<?xml version="1.0" encoding="utf-8"?>
<!-- Generator: Adobe Illustrator 16.0.0, SVG Export Plug-In . SVG Version: 6.00 Build 0)  -->
<!DOCTYPE svg PUBLIC "-//W3C//DTD SVG 1.1//EN" "http://www.w3.org/Graphics/SVG/1.1/DTD/svg11.dtd">
<svg version="1.1" id="圖層_1" xmlns="http://www.w3.org/2000/svg" xmlns:xlink="http://www.w3.org/1999/xlink" x="0px" y="0px"
	 width="64px" height="64px" viewBox="0 0 64 64" enable-background="new 0 0 64 64" xml:space="preserve">
<g id="圖層_2">
</g>
<g id="圖層_1_1_">
</g>
<g id="xxxx" display="none">
	<g display="inline">
		<path fill="#255C76" d="M6.517,71.141c0,0-2.037,1.321-1.93,1.895c0.107,0.572,0.5,0.785,0.5,0.785l0.822,0.215
			c0,0,11.546,7.578,12.725,8.328c1.18,0.751,9.729,8.15,10.065,8.578c0.336,0.43,2.267,2.146,2.695,2.789
			c0.429,0.644,0.635,1.607,1.658,1.93c1.023,0.322,2.097-1.072,2.097-1.072s19.051-12.76,24.483-10.508c0,0,1.252,0.32,1.752,0.107
			c0.5-0.215,2.323-1.467,3.109-1.789c0.786-0.32,21.019-7.506,26.665-6.469c0,0,1.644-0.144,2.18-0.822
			c0.536-0.68,0.251-1.715-0.285-1.965c-0.535-0.252-3.531-1.334-3.531-1.334"/>
		<path fill="#F4F3F2" stroke="#368190" stroke-miterlimit="10" d="M63.904,79.753c0,0,17.299-7.81,24.467-7.625
			c0.048,0.001,0.096,0.003,0.145,0.004L90.48,71.5c0,0-3.217-0.979-3.807-1.438L83.9,70.578L80.198,71.5l-2.181,0.443l-2.764,0.707
			l-1.232,0.47l-1.938,1.073l-1.896,0.914l-2.104,1.021l-2.288,1.652l-1.892,1.885"/>
		<path fill="#F4F3F2" stroke="#368190" stroke-miterlimit="10" d="M85.289,76.742"/>
		<path fill="#F4F3F2" stroke="#368190" stroke-miterlimit="10" d="M65.564,77.932c0,0,6.928-4.521,9.85-5.326
			c0,0,7.71-2.021,11.261-2.543c0.371-0.056,0.697-0.095,0.964-0.111h0.188c0,0,0.28-0.146,0-0.43
			c-0.281-0.28-3.414-3.188-3.414-3.188l-1.726,0.501l-3.44,1.394l-2.374,1.236l-2.449,1.489l-3.148,2.067l-5.307,4.397
			L65.564,77.932z"/>
		<path fill="#F4F3F2" stroke="#368190" stroke-miterlimit="10" d="M8.052,69.075l-1.75,1.708c0,0,0.138,0.068,0.388,0.199
			c1.877,0.983,10.127,5.459,14.84,10.416c6.22,6.541,10.929,9.973,11.523,10.724c0,0,2.079-2.747,3.034-2.285"/>
		<path fill="#F4F3F2" stroke="#368190" stroke-miterlimit="10" d="M9.555,65.063c0,0-2.502,1.682-4.039,1.858
			c-1.536,0.181,9.008,5.576,12.547,9.33c3.538,3.752,17.693,13.832,18.979,14.047c0,0,8.758-8.007,19.589-7.792l4.11-1.331"/>
		<path fill="#F4F3F2" stroke="#368190" stroke-miterlimit="10" d="M16.692,56.743l-1.195,0.019c0,0-1.206-0.072-4.154,1.051
			c-2.949,1.121-6.971,3.4-6.971,3.4s-0.536,0.4-0.321,0.615c0.214,0.215,0.804,0.59,0.804,0.59s7.632,3.968,9.205,5.971
			c1.572,2,8.006,8.291,8.721,9.006c0.715,0.717,13.439,9.438,13.869,9.58c0.429,0.145,8.818-5.289,13.847-5.576
			c5.026-0.284,11.331-0.284,11.539-0.143c0.054,0.037,0.86-0.803,2.229-2.107c3.883-3.7,12.291-11.151,20.854-12.977
			c0,0,4.396-1.607,4.074-1.717c-0.32-0.105-8.471-3.797-9.973-7.313l-1.425,1.666l-13.18,5.861l-9.845,3.861l-0.807,0.482
			l1.396,2.358l0.726,1.588c0,0,4.933,6.649,5.44,7.474c0.507,0.822,0.508,0.535,0.508,0.535l-8.717-11.902l-20.904-5.094
			l-10.992-7.947h-3.538L16.692,56.743z"/>
		<path fill="#EBA033" d="M84.68,40.051c0,19.717-15.982,35.699-35.699,35.699c-19.715,0-35.699-15.982-35.699-35.699
			c0-4.361,0.782-8.541,2.214-12.405C20.536,14.045,33.626,4.352,48.98,4.352C68.695,4.352,84.68,20.335,84.68,40.051z"/>
		<path fill="#E68741" d="M16.212,28.062l0.422,0.801l0.496,0.247c0,0-0.248,0.546,0,0.942c0.247,0.396,0.445,0.595,0.247,0.843
			c-0.198,0.248-0.297,0.149-0.743,0.546c-0.446,0.397-1.141,0-0.694,0.842c0.446,0.844,0.546,0.596,1.19,0.596
			s0.941-0.229,1.735,0.034c0.793,0.263,0.396-0.084,1.14,0.858c0.744,0.94,0.596,1.141,1.24,1.238s1.14-0.05,0.991,0.694
			s-0.248,0.843,0.396,0.991c0.645,0.148,0.794,0.1,0.942,0c0.148-0.1,0.446,0.148,0.396,0.646c-0.05,0.495,0.694,5.058,1.289,5.503
			c0.596,0.446,0.546,0.694,0.744,1.438c0.198,0.743,0.396,1.636,0.793,2.43c0.396,0.793-0.248,1.289,0.794,1.289
			c1.041,0,0.743-0.248,1.091-0.597c0.347-0.346,0.941,0,1.041-1.486c0.099-1.486,0.05-1.438,0.297-1.934
			c0.248-0.496,0.446,0.099,0-0.991c-0.445-1.093-0.645-0.992-0.347-1.341c0.298-0.346-0.808,0.248,0.612-0.545
			c1.421-0.793,0.727,0.101,2.016-1.238c1.289-1.34,0.646-0.105,1.785-1.84c1.142-1.73,1.487-2.592,1.487-2.592l0.793,0.662
			c0,0,0.546,0,1.042-0.147c0.495-0.147,0.595-0.433,1.041-0.515s0.645-0.131,0.893-0.131c0.04,0,0.175-0.125,0.345-0.298
			c0.076-0.075,0.156-0.161,0.24-0.249c0.24-0.256,0.498-0.537,0.654-0.693c0.595-0.594,0.545-0.545,0.743-1.141
			c0.198-0.594,0.149-1.338,0.495-1.784c0.349-0.446,0.597-0.843,0.943-0.942c0.346-0.099,0.852-0.85,0.852-0.85v-0.19"/>
		<path fill="#E68741" d="M30.046,46.91c-0.1,0.051-0.187,0.088-0.224,0.211c-0.037,0.125-0.023,0.211-0.116,0.273
			c-0.094,0.062-0.156,0.012-0.218,0.186c-0.063,0.174,0.024-0.025,0,0.57c-0.025,0.595-0.157,0.656-0.023,0.879
			c0.135,0.225,0.185,0.162,0.357,0.484c0.174,0.321,0.235,0.569,0.583,0.434c0.347-0.137,0.508-0.123,0.62-0.422
			c0.111-0.297,0.247-0.346,0.26-0.719c0.013-0.371-0.013-0.496,0-0.595c0.013-0.101,0.074-0.063-0.136-0.211
			c-0.211-0.149-0.162-0.125-0.322-0.235c-0.162-0.111-0.236-0.111-0.285-0.248c-0.05-0.137,0.037-0.187,0.049-0.248
			c0.013-0.063,0.1-0.123,0-0.187c-0.099-0.063-0.359-0.174-0.359-0.174L30.046,46.91L30.046,46.91z"/>
		<path fill="#E06817" d="M52.073,34.32l-0.099,0.41c0,0-0.088,1.537-0.484,1.636s-0.694,0.065-0.958,0.463
			c-0.265,0.396,0.429,1.321,0.958,1.719c0.527,0.396,0.496,0.364,1.023,0.826c0.529,0.463,0.859,0.761,1.275,1.321
			c0.416,0.562-0.118,0.431-0.25,0.826c-0.133,0.397,0.031,0.463,0.197,0.694s-0.1,1.619-0.297,2.148
			c-0.198,0.528-0.231,0.396-1.918,1.554c-1.686,1.158-1.916,0.827-2.082,0.033s0.1-0.396,0.166-0.694
			c0.064-0.297-0.363-0.231-0.694-0.198s-0.265,0.166-0.728-0.33s-0.066-0.496-0.266-1.058c-0.197-0.563-0.363-0.133-0.793-0.364
			c-0.43-0.23-0.198-0.132-0.198-0.132l-0.298-0.629l-0.297-0.825l-0.331-0.363l-0.231,0.264c0,0,0.266,0.762,0.299,1.125
			s0.164,0.563,0.23,0.926s-0.066,0.528-0.298,0.826c-0.231,0.297-0.562,0.595-0.431,0.926c0.134,0.33,0.332,1.586,0.695,1.982
			c0.362,0.396,2.082,1.422,2.412,2.314c0.33,0.891,0.198,0.793,0.363,1.784s0.1,0.229,0.23,0.925s-0.215,0.281-0.61,0.299
			c-0.396,0.016-0.281,0.049-1.091-0.215c-0.812-0.266-0.446-0.216-0.744-0.977c-0.297-0.762,0.314,0.099-0.215-0.165
			c-0.528-0.265-0.182,0.017-0.563-0.646c-0.38-0.662-0.265-0.479-0.595-1.471c-0.331-0.992-0.349-0.645-0.661-1.686
			c-0.314-1.041,0,0-0.094-0.381s-0.172-0.166-0.485-0.479s0.101-0.479,0.101-0.858c0-0.381,0.23-0.711,0.347-1.688
			s-0.032-0.38-0.363-1.091c-0.331-0.712-0.362-0.496-0.463-0.976c-0.099-0.479-0.132-1.389-0.331-1.785
			c-0.197-0.396-0.297-0.114-0.512,0c-0.215,0.115-0.545,0.231-0.859,0.396s-0.479,0.165-1.074,0.148
			c-0.595-0.017-0.166-0.101-0.133-0.76c0.033-0.662,0-0.546-0.115-1.142c-0.115-0.595-0.166-0.413-0.33-0.628
			c-0.166-0.215-0.248-0.266-0.348-0.579s-0.033-0.265-0.165-0.431c-0.133-0.164-0.231-0.049-0.595-0.362
			c-0.364-0.313-0.083-0.33,0-0.761c0.082-0.43,0.132-0.297,0.248-0.596c0.115-0.297,0-0.512,0-0.512"/>
		<path fill="#E06817" d="M52.073,34.32l0.586-1.986l-0.935-2.645h-1.723l-2.05-2.447h-3.41l-2.407,0.82
			c0,0-1.587,1.916-1.652,2.201c-0.065,0.285-0.858,2.93-0.858,3.127c0,0.198,0.05,1.918,0.05,1.918"/>
		<path fill="#EFCE9F" d="M16.212,28.062h0.563c0,0,2.347,0.033,2.347,0.132c0,0.099,0.364-0.066,0.529-0.066
			c0.165,0.001,0.298-0.628,0.298-0.628l0.165-0.959l0.595-0.165h0.331l0.165-0.396l0.793-0.43l0.76-0.694l0.694-1.024l0.464-0.893
			l0.825-1.058l0.496-0.628l0.43-0.331l0.728-0.198l1.454,0.165l0.463,0.463l0.529,0.596l0.462,0.595l0.266,0.991
			c0,0-0.431,0.199,0,0.596c0.429,0.396,0.23,0.396,0.297,0.562c0.067,0.166-0.165,0.198-0.297,0.495
			c-0.133,0.299-0.596,0.364-0.397,0.827c0.198,0.462,0,0.331,0.496,0.794c0.496,0.462,0.528,0.527,1.024,0.66
			c0.496,0.133,1.389,0.1,1.62,0.363c0.231,0.266-0.198,0.794,0.595,1.322c0.793,0.529,0.858,0.463,1.851,0.43
			s0.198,0.166,1.686,0.166c1.488,0,0.992-0.563,2.514-0.396c1.521,0.165,1.785-0.363,2.281-0.728
			c0.494-0.364,0.33-0.958,1.289-0.495c0.957,0.462,1.023,0.527,1.091,1.223c0.065,0.693,0.562-0.166,0.562-0.166
			c0.661,0,0.396-0.165,0.793,0.363c0.396,0.529,0.596,0.596,0.496,1.125c-0.1,0.528-0.793,0.562-0.826,1.289
			c-0.033,0.728-0.463,0.693-0.099,1.058c0.363,0.363,0.396,0.396,0.661,0.199c0.264-0.199,0.182-0.486,0.289,0.12
			c0.107,0.604-0.239,0.177,0,0.903c0.238,0.727-0.455,0.761,0.504,0.761c0.958,0,0.563,0,0.991,0.132
			c0.431,0.133,0.528,0.198,0.661,0c0.133-0.197-0.694-0.298,0.23-0.562c0.926-0.265,0.496-0.431,1.389-0.464
			c0.894-0.032,1.157,0.363,1.289-0.133c0.133-0.496-0.033-0.727,0.266-0.627c0.297,0.1,0.23,0.23,0.563,0.297
			c0.33,0.067,0.131-0.166,0.596,0.529c0.461,0.693,0.264,0.396,0.66,0.793s0.926,0.496,1.389,0.463s5.486-1.752,6.049-2.115
			s1.156-0.711,1.156-0.711l0.844-0.991c0,0,0.347-0.645,0.445-0.893c0.1-0.248,0.646-1.487,0.646-1.487l0.743-1.153l0.843-1.375
			l0.397-0.446v-0.496c0,0-0.051-0.942-0.446-1.091c-0.396-0.149-0.396-0.496-0.101-0.893c0.299-0.396,1.041-0.595,0.547-0.893
			c-0.496-0.297-0.795-0.297-1.735-0.297c-0.942,0-0.794,0.496-0.991-0.546c-0.199-1.041-0.596-0.71,0-1.322
			c0.596-0.611,0.991-0.81,0.645-1.256c-0.348-0.446-0.743-0.198-0.297-0.794c0.445-0.594,0.396-0.594,0.347-0.941
			s-0.546-0.941,0.248-0.744c0.793,0.199,1.289,0.764,1.239-0.039c-0.051-0.804-0.297-0.854-0.894-1.002
			c-0.595-0.148-0.147-0.297-0.94,0c-0.795,0.297-1.142,0.446-1.19,0.297c-0.05-0.148,0.05,0.252-0.396-0.469
			c-0.446-0.721-0.446-0.721-0.446-0.721s0-0.893,0.446-1.041c0.445-0.148,0.496-0.446,0.742-0.694
			c0.248-0.247,0.547-1.239,0.547-1.239s0.396-0.545,0.693-0.545c0.297,0,0.348,0.099,0.396,0.793
			c0.05,0.693-0.596,0.893-0.299,1.338c0.299,0.447,0.349,0.596,0.646,0.298c0.298-0.298-0.396-0.446,0.843-0.645
			c1.24-0.198,1.092-0.942,1.488,0.099c0.396,1.042-0.496,1.34,0,1.885c0.495,0.545,0.743,0.348,1.091,0.694
			c0.347,0.347,0.446,0.694,0.595,1.388c0.148,0.695,0.646,0.744,0.545,1.24c-0.099,0.496-0.742,0.595-0.246,0.941
			c0.494,0.348,0.445-0.049,0.843-0.148s0.297,0.942,0.793,0.248c0.495-0.694,0.942-0.297,0.893-1.339
			c-0.05-1.041,0.248-0.198-0.446-1.438c-0.693-1.24-0.941-1.735-1.09-1.835c-0.149-0.1,0.297-0.248-0.396-0.347
			c-0.694-0.099-0.744,0.05-0.596-0.546c0.148-0.595-0.197-1.041-0.197-1.734c0-0.695-0.694-0.695-0.893-1.29
			c-0.199-0.595,0.098-1.736,0.098-1.736C66.971,9.25,54.259,1.119,40.701,5.095c-9.48,2.78-12.688,5.821-13.367,6.252
			c-4.915,3.126-11.596,12.547-12.046,16.4L16.212,28.062z"/>
		<path fill="#EFCE9F" d="M55.027,36.268l-0.942,0.362c0,0-0.198,0.265-0.362,0.431c-0.166,0.164-0.447,0.082-0.266,0.463
			c0.182,0.379-0.066,0.313,0.348,0.444c0.412,0.134,0.594,0.134,1.041,0c0.445-0.132,0.563-0.082,0.711-0.264
			c0.147-0.183,0.182-0.265,0.182-0.265v-0.272h-0.182l-0.183,0.123l-0.115-0.347c0,0,0.017-0.065,0.148-0.183
			c0.131-0.116,0.149-0.065,0.165-0.28c0.017-0.215,0.058-0.422-0.297-0.297c-0.355,0.123-0.354,0.123-0.354,0.123"/>
		<path fill="#EFCE9F" d="M64.828,30.325c0,0-0.043-0.004-0.107,0.032c-0.046,0.025-0.104,0.072-0.166,0.154
			c-0.147,0.197-0.111,0.297-0.26,0.408s-0.285,0.125-0.359,0.248c-0.074,0.124-0.187,0.186-0.197,0.322
			c-0.014,0.137,0.074,0.087,0,0.311c-0.074,0.223-0.074,0.334-0.112,0.482c-0.037,0.149-0.124,0.162-0.062,0.311
			c0.062,0.148,0.062,0.138,0.186,0.235s0.05,0.013,0.199,0.234c0.148,0.225,0.25,0.125,0.236,0.322
			c-0.015,0.199-0.023,0.174,0,0.285c0.022,0.111,0.072,0.124,0.16,0.087c0.086-0.036,0.135-0.062,0.147-0.247
			c0.013-0.187,0.036-0.199,0.1-0.447c0.062-0.248,0.024-0.248,0.136-0.533c0.112-0.284,0.125-0.346,0.162-0.544
			c0.036-0.198-0.014-0.334,0.063-0.483c0.074-0.149,0.099-0.149,0.161-0.298c0.062-0.148,0.087-0.285,0.11-0.496
			c0.024-0.21-0.1-0.384-0.1-0.384l-0.186-0.062h-0.074L64.828,30.325z"/>
		<path fill="#E06817" d="M64.266,36.813c-0.099,0.33-0.264,0.164-0.23,0.66c0.033,0.495,0.197,0.463,0.23,0.776
			s0.059,0.248-0.234,0.381c-0.293,0.132-0.492,0.033-0.525,0.496c-0.031,0.463,0.008,0.692,0.219,1.058
			c0.213,0.363,0.563,0.729,0.563,0.729s0.18,0.23,0.543,0.33c0.363,0.099,0.336,0,0.581,0s0.212-0.045,0.675,0.044
			c0.463,0.088,0.527,0.188,0.563,0.519c0.033,0.33-0.266,0.33,0,0.66c0.265,0.33,0.362,0.396,0.528,0.396
			c0.165,0,0.165,0.199,0.396,0c0.231-0.198,0.231-0.496,0.396-0.166c0.165,0.332-0.066,0.199,0,0.695
			c0.066,0.495,0.033,0.957,0.299,0.627c0.265-0.33,0.297-0.033,0.297-0.033s0,0.066,0-0.527c0-0.596,0.197-0.992,0-1.289
			c-0.198-0.298,0.131-0.363-0.396-0.563s-0.793-0.297-0.793-0.297s0.132-0.033-0.132-0.232c-0.265-0.197-0.134,0.033-0.166-0.33
			c-0.033-0.363-0.033-0.363-0.033-0.363l-0.396-0.1l-0.431,0.188l-0.297,0.209c0,0-0.032,0.066-0.198,0s-0.226-0.021-0.312-0.209
			c-0.086-0.188-0.151-0.121-0.185-0.419c-0.035-0.298-0.231-0.331,0-0.462c0.23-0.133,0.297-0.166,0.461-0.299
			c0.166-0.132,0.311,0.001,0.388-0.264c0.075-0.266,0.044-0.199,0.143-0.463c0.101-0.266,0.198-0.33,0.101-0.793
			c-0.101-0.463,0.242-0.529-0.242-0.729c-0.485-0.197-0.617-0.132-0.915-0.23c-0.298-0.1-0.291-0.33-0.593-0.166
			c-0.301,0.166-0.2-0.058-0.2-0.058"/>
		<path fill="#E06817" d="M68.497,44.448c0,0,0.133,0.331-0.298,0.331c-0.43,0-0.694,0.033-0.826,0.197
			c-0.132,0.166-0.463,0.231-0.396,0.563c0.065,0.33,0.198,0.496,0.297,0.693c0.101,0.199,0.101,0.363,0.134,0.662
			c0.032,0.297,0.309,0.528,0.336,0.66c0.026,0.133,0.062,0.363,0.391,0.299c0.331-0.066,0.099,0.164,0.331-0.066
			c0.23-0.232,0.23,0.264,0.23-0.232c0-0.494-0.131-0.594,0-0.826c0.133-0.229,0.066-0.065,0.299-0.33
			c0.23-0.265,0.23,0.066,0.23-0.627c0-0.694,0.23-0.596,0-0.86s-0.298-0.265-0.33-0.462c-0.033-0.198-0.035-0.199-0.035-0.199
			l-0.209-0.12L68.497,44.448z"/>
		<path fill="#E06817" d="M63.143,43.588c-0.1,0.298,0.018,0.059,0,0.194c-0.018,0.137,0.069,0.347,0.069,0.347s0.231-0.023,0.283,0
			s0.176-0.188,0.176-0.188s-0.013-0.338,0-0.354c0.013-0.018,0.175-0.104,0-0.178c-0.174-0.075-0.261-0.112-0.348-0.063
			C63.236,43.398,63.143,43.588,63.143,43.588z"/>
		<path fill="#E06817" d="M64.191,41.539c0,0.05-0.051,0.124,0.074,0.385c0.123,0.26,0,0.223,0.187,0.434s0.284,0.224,0.31,0.334
			c0.024,0.113-0.05,0.225,0.137,0c0.187-0.223,0.211-0.172,0.272-0.42s0.136-0.322,0-0.472c-0.137-0.149-0.28-0.137-0.456-0.211
			c-0.177-0.073-0.238,0.037-0.313-0.05c-0.074-0.086-0.23-0.123-0.221-0.063C64.189,41.538,64.191,41.539,64.191,41.539z"/>
		<path fill="#E06817" d="M65.443,43.163c-0.101,0.224-0.101,0.261-0.125,0.421c-0.023,0.162-0.062,0.248,0,0.373
			c0.063,0.123,0.101,0.247,0.248,0.173c0.148-0.073,0.199-0.147,0.311-0.298c0.111-0.148,0.105-0.16,0.196-0.311
			c0.089-0.147,0.387-0.195,0.387-0.195v-0.163c0,0,0.013,0.05-0.063-0.187c-0.073-0.234,0.025-0.271-0.172-0.248
			c-0.199,0.024-0.349-0.076-0.483,0.092C65.604,42.99,65.443,43.163,65.443,43.163z"/>
		<path fill="#E06817" d="M65.704,44.564c-0.101,0.099-0.138,0.196-0.087,0.297c0.049,0.1-0.161,0.137,0.087,0.311
			c0.247,0.174,0.168,0.26,0.369,0.21c0.2-0.05,0.263-0.036,0.337-0.284s0.074-0.322,0.148-0.472s0.012-0.124,0.111-0.224
			s0.186-0.049,0.198,0c0.012,0.05-0.063,0.147,0,0.147c0.062,0,0.161,0,0.235-0.062c0.073-0.063,0.197-0.359,0.197-0.359v-0.298
			c0,0-0.05-0.197-0.074-0.233c-0.024-0.039,0.111-0.076-0.086-0.089c-0.199-0.012-0.225-0.062-0.336,0.063
			s-0.123,0.078-0.234,0.156s-0.161-0.021-0.26,0.092c-0.101,0.111-0.105,0.074-0.238,0.26S65.704,44.564,65.704,44.564z"/>
		<path fill="#E06817" d="M62.754,44.377l-0.436,0.173c0,0-0.197,0.187-0.434,0.248c-0.234,0.063-0.271,0.025-0.347,0.199
			s-0.298,0.149-0.087,0.397c0.211,0.246,0.05,0.309,0.311,0.271c0.26-0.037,0.271,0.024,0.495-0.21
			c0.224-0.236,0.421-0.199,0.496-0.385c0.074-0.187,0.136-0.248,0.161-0.422c0.023-0.174,0.049-0.211,0-0.272
			C62.865,44.316,62.754,44.377,62.754,44.377z"/>
		<path fill="#E06817" d="M60.943,47.893c0,0-0.396,0.314-0.719,0.637c-0.324,0.324-0.373,0.322-0.867,0.547
			c-0.496,0.223-0.299,0.023-0.77,0.445c-0.472,0.422-0.273,0.1-0.546,0.67c-0.272,0.569,0.05,0.619-0.421,0.793
			c-0.473,0.174-0.248,0.174-0.893,0.348c-0.646,0.174-0.629-0.025-0.812,0.445c-0.183,0.472,0.017,0.521-0.256,0.621
			c-0.272,0.099,0.248-0.248-0.446,0c-0.693,0.248-0.619-0.349-0.917,0.347c-0.298,0.694-0.496,0.421-0.348,1.065
			c0.149,0.645-0.071,0.446,0.175,1.065c0.247,0.619,0.1,0.72,0.371,0.967c0.271,0.248,0.305-0.124,0.251,0.646
			c-0.054,0.769-0.468,0.744,0,0.893s0.642,0.273,0.767,0.148c0.123-0.123,0.098-0.422,0.297-0.123
			c0.198,0.297,0.321,0.371,0.396,0.421c0.074,0.05,0.173,0.298,0.348,0c0.174-0.298,0.049-0.372,0.297-0.446
			s0.272-0.322,0.422-0.074c0.148,0.248-0.248,0.272,0.147,0.248c0.397-0.025,0.248,0.123,0.397-0.025
			c0.147-0.147-0.025-0.297,0.147-0.147s0,0.362,0.175,0.591c0.172,0.229,0.248,0.352,0.396,0.202s0.248-0.297,0.248-0.297
			l0.124-0.198c0,0,0.049-0.1,0.197-0.023c0.148,0.074,0.174,0.445,0.322,0.074c0.148-0.373,0.272-0.744,0.272-0.744l0.298-0.545
			c0,0,0.248-0.299,0.271-0.373c0.024-0.074,0.174-0.197,0.024-0.594c-0.147-0.397-0.247-0.349-0.124-0.597
			c0.124-0.248,0.051-0.124,0.348-0.396c0.297-0.273,0.248-0.224,0.422-0.472c0.174-0.247,0.297-0.596,0.297-0.596
			s-0.25-0.123,0.123-0.224c0.373-0.1,0.349,0.023,0.521-0.174c0.174-0.197,0.361-0.371,0.268-0.471
			c-0.092-0.1-0.342-0.248-0.342-0.248s-0.174-0.025-0.248-0.05s-0.227,0.075-0.199-0.248c0.025-0.321,0-0.595,0-0.595
			s0.176-0.174,0.101-0.273c-0.074-0.099-0.247-0.371-0.247-0.371c-0.05-0.148-0.177-0.273,0.146-0.471
			c0.324-0.199,0.397-0.225,0.67-0.471c0.273-0.248,0.349-0.199,0.349-0.397s-0.198,0,0-0.198c0.198-0.197,0.272-0.223,0.322-0.396
			s0.272-0.224-0.273-0.248c-0.545-0.024-0.569,0.101-0.743-0.124s-0.275-0.436-0.324-0.563c-0.047-0.131-0.047-0.131-0.047-0.131
			L60.943,47.893z"/>
		<path fill="#E06817" d="M67.439,51.828c0,0-0.102,0.074-0.473,0.297s-0.179,0.298-0.895,0.396c-0.717,0.1-1.108,0.1-1.359,0.1
			c-0.25,0-0.443-0.148-0.531-0.248c-0.091-0.1-0.115-0.1-0.238,0.025c-0.125,0.123-0.322,0.049-0.348,0.223s0.03,0.197-0.171,0.271
			c-0.2,0.075-0.466,0.248-0.481,0.446c-0.017,0.198-0.363,1.216-0.363,1.216s0.074-0.125-0.148,0.596
			c-0.224,0.719-0.619,0.346-0.445,1.188c0.173,0.843,0.039,0.744,0.168,1.142c0.129,0.396,0.154,0.377,0.129,0.758
			c-0.024,0.383-0.035,0.232-0.129,0.604c-0.094,0.371-0.069,0.322,0.154,0.472c0.223,0.147,0.1,0.147,0.482,0
			c0.383-0.148,0.563-0.074,0.635-0.472s0.34-0.422,0.069-0.719c-0.271-0.298-0.444-0.199-0.271-0.447
			c0.174-0.247,0.203-0.049,0.2-0.346c-0.003-0.299,0.077-0.349,0-0.472c-0.077-0.125-0.132-0.198,0.069-0.322
			c0.199-0.124,0.424-0.299,0.424-0.299s-0.163,0.273-0.168,0.349c-0.006,0.074,0.029,0,0,0.371c-0.029,0.373-0.169,0.272,0,0.569
			c0.168,0.299-0.105,0.299,0.242,0.521c0.347,0.223,0.023,0.197,0.595,0.371s0.354,0.396,0.697,0.025
			c0.344-0.372,0.542,0.099,0.419-0.521c-0.124-0.619-0.219-0.248-0.457-0.645c-0.237-0.396-0.213-0.049-0.237-0.396
			c-0.024-0.347,0.099-0.223,0.099-0.496c0-0.271,0-0.223-0.123-0.396c-0.125-0.173-0.067-0.136-0.295-0.365
			c-0.227-0.229-0.351-0.205-0.301-0.453c0.051-0.247,0.082-0.223,0.301-0.421c0.221-0.197,0.097-0.322,0.418-0.473
			c0.322-0.147,0.322-0.321,0.322-0.321l-0.471,0.051c0,0-0.021-0.024-0.246,0.173c-0.225,0.198-0.498,0.198-0.771,0.248
			c-0.272,0.051-0.223,0.051-0.297-0.148c-0.074-0.197-0.129-0.371-0.15-0.569s-0.196-0.372,0.15-0.421
			c0.348-0.051,0.153-0.1,0.535-0.148c0.383-0.05,0.952-0.125,0.952-0.125L65.58,53h0.396l0.483-0.156l0.507-0.248l0.473-0.197
			l0.197-0.297v-0.272L67.439,51.828L67.439,51.828z"/>
		<path fill="#E06817" d="M42.921,50.117c0,0-0.422-0.124-0.496-0.124c-0.073,0-0.396-0.099-0.348,0.347
			c0.05,0.447,0.075,0.471,0.298,0.596c0.225,0.123,0.298,0.224,0.669,0.422c0.372,0.197,0.166,0.074,0.753,0.793
			c0.586,0.72,0.834,1.142,0.982,1.164c0.148,0.025,0.596-0.172,0.67,0.125s-0.322,0.074,0,0.693
			c0.322,0.62,0.546,1.029,0.769,1.494c0.224,0.465,0.349,1.061,0.533,1.283c0.187,0.223,0.683,1.165,0.683,1.165l0.396,0.471
			c0,0,0.496,0.248,0.694,0.248c0.197,0,0.099-0.272,0.347,0.272s0.224,0.693,0.569,0.817c0.349,0.124,0.547,0.298,0.992,0.148
			c0.446-0.149,0.495-0.099,0.57-0.421c0.074-0.322-0.05-0.1,0-0.844c0.049-0.744,0.346-0.844,0.023-1.313
			c-0.321-0.472-0.422-0.445-0.521-0.744c-0.101-0.297,0-0.444-0.321-0.594c-0.322-0.149-0.199-0.484-0.646-0.49
			c-0.447-0.006-0.817-0.304-0.817-0.304l0.258-0.422c0,0,0.336,0.174,0.387,0c0.05-0.174-0.1-0.373-0.1-0.373l-0.287-0.37
			l-1.076-0.496l-0.967-0.472l-0.619-0.521c0,0-0.051,0.075-0.101-0.196c-0.05-0.273-0.569-0.795-0.917-1.041
			c-0.348-0.248-0.197-0.349-0.521-0.771c-0.321-0.421-0.396-0.322-0.817-0.445C43.54,50.091,42.921,50.117,42.921,50.117z"/>
		<path fill="#E06817" d="M43.604,53.538v0.099V53.7l0.193,0.284c0,0,0.189,0.261,0.215,0.298c0.024,0.038,0.024,0.149,0.211,0.198
			s0.211,0.211,0.235,0s0.049-0.18-0.087-0.418c-0.137-0.238-0.161-0.338-0.262-0.463c-0.098-0.123-0.186-0.147-0.234-0.209
			c-0.049-0.063-0.124-0.149-0.198,0C43.604,53.538,43.604,53.538,43.604,53.538z"/>
		<path fill="#E06817" d="M44.779,55.732v0.322c0,0-0.123,0.223,0,0.407c0.123,0.187,0.285,0.272,0.334,0.272
			c0.051,0,0.111,0.148,0.175-0.211c0.062-0.358,0.161-0.211,0-0.471s-0.211-0.359-0.322-0.434
			C44.855,55.544,44.779,55.732,44.779,55.732z"/>
		<path fill="#E06817" d="M50.916,55.917c-0.025,0.013-0.048,0.021-0.068,0.03c-0.177,0.078-0.164,0.074-0.143,0.236
			c0.023,0.18-0.074,0.254,0.1,0.515c0.174,0.26,0.297,0.385,0.482,0.483c0.188,0.098,0.285,0.187,0.396,0.098
			c0.111-0.086,0.224-0.247,0.224-0.247l-0.101-0.267l-0.26-0.291c0,0-0.074-0.123-0.248-0.291s-0.234-0.218-0.197-0.342
			S50.916,55.917,50.916,55.917z"/>
		<path fill="#E06817" d="M52.378,57.244v0.072v0.127c0,0,0.037,0.173,0.272,0.086c0.236-0.086,0.187-0.09,0.385-0.213
			c0.197-0.121,0.298-0.121,0.261-0.271s0.037-0.174-0.224-0.211c-0.26-0.037-0.272-0.187-0.434,0
			c-0.162,0.187-0.262,0.217-0.262,0.313c0,0.096,0-0.051,0,0.059"/>
		<path fill="#E06817" d="M73.404,52.662c0,0,0.248-0.165,0.349,0c0.099,0.166,0.115,0.215,0.347,0.248
			c0.232,0.033,0.414-0.051,0.479,0c0.065,0.049,0.265-0.115,0.33,0.115c0.065,0.231,0.083,0.281,0,0.545
			c-0.082,0.266-0.165-0.098-0.183,0.447c-0.017,0.545-0.033,0.66,0.051,0.858c0.082,0.198,0.029,0.265,0.188,0.265
			s0.258-0.082,0.424-0.298c0.166-0.215,0.166-0.1,0.313-0.28c0.147-0.182,0.099-0.197,0.313-0.297
			c0.213-0.101,0.248-0.101,0.363-0.101s0,0.101,0.215-0.147s0.065-0.314,0.363-0.479s0.248-0.215,0.563-0.215
			c0.313,0,0.446-0.05,0.711,0s0.28,0.065,0.744,0.231c0.463,0.164,0.479-0.123,0.693,0.311c0.214,0.434,0.38,0.252,0.248,0.764
			c-0.133,0.512,0.016,0.414-0.281,0.744c-0.298,0.33-0.445,0.348-0.81,0.611s-0.248,0.463-0.694,0.66
			c-0.445,0.198-0.447,0.332-0.777,0.414s-0.248,0.049-0.33,0.082c-0.082,0.032-0.148,0-0.148,0s-0.15-0.033-0.189-0.248
			c-0.041-0.216,0.008-0.216-0.256-0.445c-0.266-0.231-0.281-0.199-0.662-0.266c-0.379-0.065-0.147-0.017-0.793-0.099
			c-0.645-0.084-0.347-0.248-0.595-0.183s-0.646,0.033-0.646,0.033l-0.197-0.065c0,0-0.199-0.447-0.298-0.597
			c-0.101-0.147-0.083-0.34-0.132-0.399c-0.051-0.063-0.101-0.078,0.115-0.228c0.215-0.15,0.248-0.1,0.445-0.199
			c0.198-0.098,0.298-0.081,0.165-0.197c-0.132-0.116-0.313-0.116-0.578-0.05c-0.265,0.065-0.463,0.231-0.545,0.032
			c-0.083-0.197-0.147-0.248-0.231-0.297c-0.082-0.051-0.23,0.183-0.363-0.065s-0.231-0.199-0.266-0.396
			c-0.031-0.199,0.066-0.199,0-0.365c-0.064-0.164,0.166,0.051-0.064-0.164s-0.248-0.084-0.23-0.215
			c0.016-0.133,0.246-0.141,0.246-0.141s0.199-0.059,0.232,0c0.031,0.059,0.099,0.229,0.099,0.229l0.231,0.125l0.23,0.05
			l0.231-0.175l0.215-0.155L73.404,52.662L73.404,52.662z"/>
		<path fill="#E06817" d="M69.951,51.291c0,0-0.363-0.116-0.363,0c0,0.115,0.033,0.082,0,0.279c-0.033,0.199-0.05,0.15-0.066,0.447
			c-0.016,0.297-0.065,0.182,0,0.512c0.066,0.33,0.197,0.365,0.199,0.547c0,0.182-0.018,0.33,0.131,0.379
			c0.149,0.051,0.281,0.232,0.314,0c0.033-0.23,0.066-0.364,0-0.455c-0.066-0.09-0.132-0.139-0.082-0.255
			c0.049-0.116,0.1-0.183,0.23-0.149c0.133,0.033,0.197,0.133,0.348,0.019c0.148-0.116,0.279,0.046,0.182-0.21
			c-0.1-0.254-0.182-0.336-0.265-0.436s-0.215,0.065-0.132-0.141c0.082-0.207,0.197-0.125,0.115-0.307
			c-0.082-0.183,0.065-0.183-0.082-0.183c-0.149,0-0.164,0.033-0.299,0.101c-0.133,0.065-0.197-0.051-0.197-0.051l-0.066-0.149"/>
		<path fill="#E06817" d="M69.488,56.018c0,0,0.164,0.252,0.197,0.264c0.051,0.018,0.199,0.148,0.496,0.05
			c0.299-0.099,0.498-0.112,0.695-0.14c0.197-0.026,0.297-0.039,0.445,0c0.148,0.041,0.271,0.123,0.408,0.074
			c0.137-0.051,0.235,0.233,0.22-0.074c-0.017-0.307,0.04-0.289-0.22-0.488c-0.26-0.198-0.756-0.396-0.756-0.396
			s-0.313-0.147-0.646,0c-0.33,0.148-0.147,0.194-0.513,0.32c-0.363,0.126-0.33,0.178-0.33,0.178v0.213H69.488z"/>
		<path fill="#E06817" d="M51.3,60.645c0,0,0.204-0.297-0.125,0.198c-0.329,0.496-0.627,0.628-0.329,0.859
			c0.299,0.231,0.694,0.362,0.694,0.362s0.463,0.266,0.692,0.266c0.231,0,0.166-0.1,0.496,0s0.596,0.165,0.729,0
			c0.132-0.165-0.33-0.331,0.132-0.165c0.463,0.165,0.431,0.168,0.728,0.267c0.299,0.098,0.662-0.031,0.959,0
			c0.298,0.03,1.059,0.036,1.059,0.036h0.527c0,0,0.101,0.228,0.431,0.325c0.331,0.1,0.431,0.064,0.595,0
			c0.166-0.066,0.331-0.066,0.231-0.266c-0.099-0.197-0.298-0.362-0.298-0.362v-0.298l0.066-0.161l-0.265-0.138l-0.298,0.138h-0.165
			h-0.198h-0.197l0.064-0.302l0.363-0.133l0.23-0.23l0.1-0.034l0.101-0.032c0,0-0.33-0.197-0.661-0.197s-0.496,0.1-0.496,0.1
			l-0.595,0.1h-0.793c0,0,0.165-0.066-0.199,0c-0.362,0.065-0.595,0.065-0.595,0.065s-0.135,0-0.383,0
			c-0.246,0-0.598-0.198-0.598-0.198l-0.244-0.287c0,0-0.33-0.121-0.396,0s-0.106,0.221-0.285,0.287c-0.177,0.066-0.5,0-0.471-0.166
			c0.028-0.164,0.665-0.297,0.028-0.164C51.3,60.645,51.3,60.458,51.3,60.458"/>
		<path fill="#E06817" d="M67.966,61.125c0,0-0.478,0.561-0.51,0.594c-0.033,0.033-0.431,0.397-0.529,0.563s-0.337,0.1-0.647,0.528
			c-0.312,0.431-0.137,0.563-0.588,0.693c-0.449,0.133,0.168,0.1-0.588,0.363c-0.754,0.266-0.787,0.199-0.787,0
			c0-0.197,0.154-0.33,0.293-0.527c0.137-0.199,0.381-0.166,0.457-0.298c0.076-0.133-0.101-0.04,0.037-0.367
			c0.139-0.327,0.09-0.261,0.295-0.427c0.207-0.166,0.494-0.43,0.494-0.43l0.248-0.344l0.646-0.219l0.335-0.132l0.467-0.299h0.378
			L67.966,61.125L67.966,61.125z"/>
		<path fill="#E06817" d="M61.572,62.893c0,0-0.199-0.018-0.084,0.166c0.115,0.182,0.015,0.346,0.271,0.379
			c0.258,0.033,0.176,0.051,0.424,0.266c0.246,0.215,0.189,0.43,0.426,0.248c0.234-0.184,0.252-0.116,0.252-0.281
			c0-0.166,0.147-0.266-0.066-0.414c-0.215-0.148-0.197-0.164-0.363-0.297c-0.164-0.133-0.132-0.271-0.313-0.284
			c-0.183-0.013-0.168-0.219-0.356,0C61.572,62.893,61.572,62.893,61.572,62.893z"/>
		<path fill="#E06817" d="M64.96,61.372c0,0-0.132,0.133-0.083,0.248c0.05,0.116,0.266,0.083,0.266,0.083s0.065-0.033,0.164-0.083
			c0.101-0.05,0.248-0.146,0.248-0.146v-0.316v-0.166c0,0-0.347-0.215-0.479,0C64.943,61.207,64.96,61.372,64.96,61.372z"/>
		<path fill="#E06817" d="M59.143,62.552v0.304c0,0,0.198,0.234,0.297,0.203c0.101-0.033,0.248-0.203,0.248-0.203l0.364-0.459V62.13
			L59.82,62l-0.225,0.131l-0.322,0.268L59.143,62.552z"/>
		<path fill="#E06817" d="M62.336,61.889l-0.219,0.241c0-0.067,0.05-0.146,0.281-0.278c0.23-0.134,0.264,0.017,0.264,0.017
			s0.529-0.017,1.009-0.116s0.183,0,0.446,0s0.082,0.033,0.165,0.166c0.083,0.132-0.033,0.1-0.115,0.198
			c-0.083,0.099-0.149,0.065-0.381,0.083c-0.229,0.016-0.216,0.132-0.431,0.176c-0.215,0.045-0.215,0.055-0.43,0.121
			s-0.279,0.083-0.445,0c-0.166-0.082-0.363-0.297-0.363-0.297"/>
	</g>
	<g display="inline">
		<g>
			<path fill="#275D7B" d="M107.874,76.314c-1.376,0-2.688-0.455-3.794-1.314c-1.032-0.803-1.784-1.868-2.238-3.168
				c-0.224-0.563-0.337-1.13-0.337-1.689c0-0.973,0.306-1.922,0.886-2.748c0.102-0.147,0.209-0.289,0.321-0.42
				c-0.006,0-0.013,0-0.021,0.002c-0.096,0.008-0.19,0.014-0.287,0.014h-0.244c-1.344,0-2.592-0.455-3.613-1.315
				c-1.138-0.909-1.835-2.14-2.029-3.577c-0.062-0.277-0.092-0.559-0.092-0.842c0-1.308,0.473-2.544,1.368-3.576
				c0.201-0.244,0.42-0.469,0.656-0.671c-0.017-0.018-0.228-0.233-0.251-0.261c-0.904-0.979-1.383-2.189-1.383-3.5
				c0-0.34,0.039-0.682,0.115-1.016c0.299-1.525,1.144-2.75,2.443-3.545c0.033-0.021,0.066-0.041,0.1-0.06
				c0.463-0.259,0.938-0.539,1.416-0.835c0.026-0.085,0.055-0.17,0.084-0.253c-1.019-0.21-1.947-0.705-2.729-1.463
				c-1.093-1.056-1.67-2.427-1.67-3.962s0.577-2.906,1.671-3.963c0.386-0.375,0.809-0.685,1.259-0.928
				c-0.833-0.99-1.271-2.192-1.271-3.508c0-1.484,0.557-2.825,1.611-3.879c1.053-1.054,2.395-1.611,3.879-1.611h0.252
				c0.232-1.096,0.779-2.079,1.613-2.889c1.113-1.081,2.52-1.652,4.066-1.652c1.563,0,2.973,0.583,4.074,1.684
				c0.82,0.821,1.354,1.818,1.571,2.926c0.546,0.082,1.067,0.237,1.558,0.462c0.605-1.116,1.539-2.021,2.709-2.606
				c0.053-0.026,0.105-0.051,0.16-0.074c0.828-0.355,1.687-0.536,2.549-0.536c0.509,0,1.022,0.057,1.527,0.169
				c0.076,0.017,0.15,0.036,0.225,0.059c0.709,0.215,1.341,0.542,1.884,0.971c0.378-0.573,0.864-1.089,1.448-1.527
				c0.033-0.024,0.066-0.048,0.101-0.072c1.028-0.707,2.175-1.065,3.409-1.065h0.439c0.142,0,0.283,0.01,0.424,0.03l0.342,0.049
				c1.619,0.27,2.924,1.08,3.842,2.354c0.736,0.967,1.126,2.107,1.126,3.3c0,0.355-0.03,0.717-0.089,1.074
				c-0.008,0.041-0.014,0.082-0.021,0.122c-0.123,0.59-0.25,1.178-0.382,1.761h6.722c1.547,0,2.947,0.584,4.049,1.686
				c1.103,1.102,1.686,2.502,1.686,4.05v0.146c0,1.498-0.554,2.861-1.604,3.943c-0.5,0.516-1.064,0.918-1.682,1.201
				c-1.004,6.125-2.545,11.459-4.589,15.861c1.374,1.873,2.925,3.414,4.638,4.611c1.252,0.903,2.019,2.142,2.258,3.609
				c0.065,0.313,0.099,0.607,0.099,0.9c0,1.252-0.419,2.426-1.215,3.402c-0.177,0.242-0.367,0.484-0.572,0.727
				c-0.891,1.152-2.084,1.927-3.461,2.248c-0.463,0.125-0.922,0.188-1.364,0.188c-1.19,0-2.338-0.406-3.318-1.178
				c-1.584-1.188-3.078-2.592-4.445-4.18c-1.861,1.767-3.953,3.365-6.245,4.77c-0.048,0.03-0.098,0.059-0.147,0.085
				c-0.862,0.464-1.784,0.699-2.738,0.699c-0.582,0-1.182-0.101-1.779-0.3c-1.304-0.416-2.425-1.277-3.218-2.488
				c-0.173-0.23-0.331-0.479-0.472-0.736c-0.559-0.877-0.853-1.873-0.853-2.894c0-0.449,0.063-0.913,0.19-1.382
				c0.21-0.864,0.594-1.629,1.137-2.268c-0.561,0.045-1.184,0.094-1.87,0.149v2.133c0,1.765-0.231,3.159-0.709,4.265
				c-0.416,0.961-1.313,2.299-3.235,3.224c-0.033,0.016-0.065,0.03-0.1,0.046c-1.406,0.615-3.252,0.951-5.645,1.031
				c-0.032,0-0.065,0-0.099,0h-0.096V76.314z M121.941,54.171c1.174,0.097,2.258,0.582,3.158,1.417
				c1.101,0.963,1.741,2.371,1.741,3.909c0,0.083-0.001,0.167-0.005,0.25c0.162-0.183,0.321-0.366,0.477-0.554
				c-0.598-1.442-1.158-3.004-1.672-4.668c-0.138,0.021-0.277,0.039-0.418,0.052c-0.086,0.007-0.173,0.011-0.259,0.011h-0.243
				c-0.918,0-1.787-0.217-2.57-0.637C122.081,54.023,122.012,54.098,121.941,54.171z"/>
			<path fill="#275D7B" d="M172.055,76.364c-1.418,0-2.77-0.478-3.91-1.378c-1-0.734-1.801-1.787-2.302-3.067
				c-0.222-0.515-0.353-1.142-0.353-1.776c0-0.877,0.242-1.726,0.721-2.521c0.023-0.04,0.049-0.08,0.075-0.119
				c0.073-0.109,0.149-0.215,0.229-0.316h-8.279c-1.475,0-2.786-0.555-3.797-1.603c-0.979-1.017-1.498-2.312-1.498-3.742
				c0-1.43,0.519-2.724,1.498-3.741c0.42-0.437,0.893-0.787,1.406-1.047c-0.451-0.262-0.871-0.591-1.252-0.984
				c-1.08-1.112-1.652-2.527-1.652-4.09v-4.541c0-1.563,0.582-2.987,1.68-4.117c0.582-0.6,1.253-1.051,1.992-1.348l-0.59-10.033
				c-0.144-1.625,0.478-3.158,1.754-4.243c0.968-0.868,2.138-1.326,3.39-1.326c0.25,0,0.502,0.018,0.754,0.053
				c1.146-0.403,2.431-0.897,3.825-1.47c0.732-0.323,1.507-0.487,2.306-0.487c0.444,0,0.904,0.061,1.409,0.187
				c0.834,0.185,1.641,0.588,2.344,1.174c0.75-0.535,1.647-0.881,2.635-0.998c0.117-0.014,0.233-0.021,0.352-0.021h0.293
				c0.773,0,1.525,0.155,2.238,0.46c1.158-0.68,2.24-0.851,3.035-0.851c0.582,0,1.186,0.092,1.789,0.273
				c0.721,0.191,1.36,0.563,1.871,1.073c0.67-0.34,1.414-0.516,2.199-0.516h7.813c1.613,0,3.059,0.629,4.184,1.818
				c1.018,1.086,1.553,2.438,1.553,3.916c0,2.387-0.242,6.015-0.738,11.045c0.67,0.291,1.287,0.714,1.836,1.261
				c1.135,1.136,1.734,2.569,1.734,4.147v4.492c0,1.629-0.611,3.081-1.765,4.202c-0.386,0.375-0.806,0.688-1.252,0.94
				c0.5,0.259,0.959,0.602,1.369,1.027c0.981,1.019,1.5,2.313,1.5,3.742c0,1.432-0.519,2.727-1.5,3.743
				c-1.009,1.047-2.321,1.601-3.796,1.601H183.55v0.613c0,1.942-0.288,3.436-0.879,4.564c-0.705,1.345-1.924,2.359-3.625,3.018
				c-1.608,0.594-3.841,0.909-6.869,0.982c-0.024,0-0.049,0.002-0.073,0.002L172.055,76.364L172.055,76.364z M192.83,56.497
				c-0.15-0.124-0.296-0.256-0.438-0.397c-0.119-0.119-0.232-0.242-0.341-0.369c-0.132,0.27-0.29,0.525-0.475,0.767H192.83z
				 M163.107,56.497c-0.105-0.116-0.207-0.235-0.301-0.356c-0.127,0.125-0.26,0.244-0.396,0.356H163.107z"/>
			<path fill="#275D7B" d="M248.93,75.875c-1.502,0-2.979-0.381-4.391-1.134c-2.188-1.093-4.738-2.224-7.51-3.327
				c-1.537-0.669-2.481-1.905-2.703-3.45h-3.209c-0.217,1.338-1.014,2.449-2.262,3.114c-3.113,1.643-6.758,3.139-10.842,4.456
				c-0.033,0.01-0.065,0.021-0.1,0.03c-0.723,0.205-1.459,0.31-2.189,0.31c-0.634,0-1.272-0.08-1.898-0.235
				c-1.383-0.373-2.57-1.043-3.584-2.006c-0.122-0.115-0.234-0.242-0.335-0.377c-0.863-0.869-1.331-1.986-1.331-3.166
				c0-0.329,0.035-0.676,0.107-1.031c0.015-0.07,0.031-0.141,0.051-0.209c0.461-1.662,1.687-2.828,3.361-3.201
				c0.715-0.164,1.407-0.332,2.079-0.506c-0.567-0.912-0.862-1.949-0.862-3.06c0,0,0-14.638,0-14.683
				c-0.772-0.032-1.541-0.209-2.285-0.529c-0.053-0.023-0.105-0.047-0.158-0.074c-1.342-0.67-2.37-1.759-2.975-3.148
				c-0.291-0.653-0.442-1.359-0.442-2.074c0-0.863,0.222-1.708,0.659-2.51c0.795-1.446,2.109-2.397,3.707-2.688
				c0.871-0.188,1.921-0.422,3.136-0.699c-0.593-0.214-1.202-0.423-1.824-0.627c-1.498-0.5-2.587-1.589-3.083-3.074
				c-0.167-0.497-0.251-1.031-0.251-1.583c0-0.914,0.274-1.81,0.797-2.592c0.693-1.099,1.697-1.94,2.944-2.439
				c0.718-0.299,1.5-0.459,2.287-0.459c0.592,0,1.185,0.094,1.763,0.279c2.071,0.603,4.093,1.283,6.006,2.021
				c1.107,0.386,2.013,1.149,2.595,2.183c0.539-0.636,1.027-1.295,1.467-1.98c0.681-1.101,1.629-1.99,2.793-2.6
				c0.895-0.505,1.932-0.783,3.004-0.783c0.355,0,0.717,0.03,1.074,0.089c0.08,0.013,0.16,0.03,0.238,0.049l0.094,0.023
				c1.48,0.28,2.682,1.166,3.393,2.509c0.043,0.087,0.084,0.173,0.122,0.259h10.604c2.021,0,3.568,0.141,4.73,0.431
				c1.432,0.358,2.54,1.297,3.124,2.644c0.563,1.301,0.53,2.704-0.093,3.952c-0.016,0.031-0.032,0.063-0.049,0.096
				c-0.809,1.48-1.631,2.822-2.451,3.992c1.346,0.408,2.376,1.317,2.938,2.604c0.308,0.649,0.464,1.313,0.464,1.976
				c0,0.877-0.242,1.726-0.721,2.521c-0.751,1.234-1.754,2.18-2.99,2.824c-0.377,0.201-0.769,0.361-1.172,0.48V62.08
				c0,1.375-0.449,2.643-1.305,3.695c0.838,0.354,1.671,0.715,2.497,1.08c1.633,0.762,2.545,2.24,2.493,3.981
				c-0.055,1.737-1.041,3.154-2.642,3.794l-1.545,0.598C251.172,75.658,250.049,75.875,248.93,75.875z"/>
			<path fill="#275D7B" d="M293.626,76.314c-1.376,0-2.688-0.455-3.794-1.314c-0.027-0.021-0.053-0.042-0.079-0.063
				c-0.778-0.649-1.383-1.439-1.805-2.359c-0.22,0.058-0.447,0.104-0.681,0.136c-0.32,0.058-0.621,0.086-0.916,0.086
				c-1.234,0-2.381-0.358-3.41-1.065c-0.064-0.043-0.127-0.088-0.19-0.133c-0.137,0.265-0.276,0.523-0.419,0.779
				c-0.758,1.448-2.133,2.438-3.837,2.723c-0.363,0.06-0.724,0.09-1.08,0.09c-1.104,0-2.147-0.308-3.103-0.911
				c-0.117-0.067-0.229-0.14-0.336-0.218c-0.41-0.268-0.778-0.576-1.101-0.924c-0.546,0.512-1.203,0.914-1.954,1.188
				c-0.124,0.045-0.25,0.082-0.377,0.109c-0.505,0.112-1.003,0.17-1.479,0.17c-0.991,0-1.926-0.252-2.779-0.75l-0.521-0.313
				c-1.306-0.745-2.26-1.963-2.705-3.491c-0.174-0.58-0.266-1.182-0.266-1.767c0-0.929,0.223-1.825,0.661-2.666
				c1.612-3.386,3.151-6.947,4.575-10.586c0.56-1.474,1.701-2.582,3.207-3.103c0.58-0.211,1.164-0.318,1.736-0.318
				c0.938,0,1.868,0.268,2.7,0.777c0.058,0.029,0.115,0.062,0.171,0.096c0.098-0.983,0.176-1.908,0.233-2.77
				c-0.886,0.977-2.052,1.594-3.403,1.797c-0.305,0.063-0.615,0.094-0.924,0.094c-1.232,0-2.421-0.393-3.439-1.135
				c-0.914-0.615-1.959-1.242-3.109-1.861c-1.419-0.818-2.314-2.018-2.668-3.512c-0.016-0.063-0.028-0.125-0.039-0.188
				c-0.061-0.356-0.092-0.706-0.092-1.04c0-1.133,0.359-2.211,1.041-3.118c0.871-1.161,2.046-1.971,3.402-2.347
				c0.567-0.18,1.149-0.27,1.731-0.27c0.922,0,1.832,0.221,2.707,0.657c1.364,0.631,2.673,1.332,3.813,2.044
				c0.446,0.29,0.838,0.621,1.172,0.989v-3.792c-0.414,0.152-0.854,0.258-1.314,0.316c-0.124,0.015-0.248,0.022-0.372,0.022h-0.342
				c-1.272,0-2.484-0.397-3.509-1.149c-0.988-0.687-2.071-1.373-3.221-2.039c-1.337-0.772-2.232-1.972-2.587-3.466
				c-0.015-0.063-0.028-0.126-0.039-0.189c-0.061-0.356-0.091-0.723-0.091-1.089c0-1.06,0.336-2.106,0.973-3.025
				c0.021-0.032,0.045-0.063,0.067-0.093c0.897-1.196,2.134-2.019,3.577-2.38c0.583-0.13,1.081-0.187,1.558-0.187
				c0.927,0,1.847,0.209,2.732,0.623c0.053,0.024,0.104,0.05,0.155,0.078c1.326,0.715,2.574,1.442,3.703,2.162
				c0.166,0.102,0.324,0.212,0.476,0.329c1.129-1.097,2.553-1.677,4.116-1.677h25.635c1.545,0,2.937,0.573,4.022,1.658
				c1.089,1.089,1.662,2.473,1.662,4.003c0,1.532-0.573,2.915-1.66,4c-0.533,0.534-1.142,0.944-1.805,1.224
				c0.127,0.11,0.25,0.227,0.37,0.35c1.1,1.134,1.679,2.558,1.679,4.118v12.256c0,1.61-0.59,3.053-1.708,4.171
				c-0.032,0.033-0.065,0.065-0.099,0.097c0.209,0.246,0.401,0.511,0.576,0.791c0.022,0.039,0.046,0.078,0.067,0.117
				c0.949,1.694,1.791,3.346,2.504,4.906c0.016,0.032,0.028,0.064,0.042,0.096c0.314,0.758,0.474,1.539,0.474,2.322
				c0,0.76-0.161,1.514-0.479,2.24c-0.584,1.439-1.657,2.531-3.113,3.169c0,0-0.087,0.042-0.121,0.058
				c-0.749,0.34-1.512,0.512-2.266,0.512c-0.788,0-1.566-0.172-2.315-0.514c-1.016-0.46-1.835-1.15-2.42-2.031
				c-0.102,0.799-0.267,1.492-0.497,2.09c-0.392,1.01-1.268,2.398-3.227,3.304c-1.465,0.666-3.307,1.024-5.647,1.104
				c-0.034,0-0.068,0.002-0.103,0.002H293.626L293.626,76.314z"/>
			<path fill="#275D7B" d="M340.618,76.461c-1.517,0-2.892-0.574-3.978-1.66c-1.086-1.085-1.659-2.46-1.659-3.977v-2.782
				c-0.134-0.036-0.267-0.076-0.396-0.123v2.905c0,1.482-0.565,2.83-1.633,3.9c-1.074,1.072-2.433,1.639-3.93,1.639
				c-1.501,0-2.859-0.566-3.93-1.637c-0.93-0.931-1.479-2.074-1.605-3.332c-0.58,0.217-1.195,0.33-1.813,0.33
				c-0.796,0-1.577-0.189-2.32-0.563c-1.224-0.611-2.155-1.61-2.691-2.888c-0.291-0.721-0.429-1.442-0.429-2.187
				c0-0.582,0.101-1.181,0.3-1.778c0.478-1.58,0.902-3.748,1.238-6.367c0.139-0.933,0.472-1.754,0.98-2.452
				c-0.166-0.11-0.327-0.229-0.485-0.356c-1.118-0.92-1.799-2.137-1.991-3.542c-0.062-0.284-0.093-0.58-0.093-0.886
				c0-1.27,0.452-2.467,1.309-3.465c0.886-1.078,2.11-1.741,3.529-1.896c0.022-0.029,0.046-0.058,0.068-0.088
				c-0.719-0.975-1.584-2.029-2.583-3.152c-1.008-1.133-1.541-2.531-1.541-4.045c0-1.268,0.358-2.431,1.065-3.459
				c0,0,0.716-0.99,0.736-1.019c0.67-0.86,1.604-1.42,2.659-1.595c0.572-1.236,1.106-2.502,1.596-3.785
				c0.532-1.404,1.546-2.496,2.929-3.154c0.758-0.379,1.604-0.584,2.462-0.584c0.615,0,1.229,0.101,1.828,0.3
				c1.506,0.502,2.654,1.591,3.242,3.071c0.278,0.655,0.421,1.335,0.421,2.021c0,0.192-0.012,0.382-0.033,0.572
				c0.406,0.021,0.809,0.089,1.206,0.202c0.207-1.175,0.755-2.229,1.616-3.09c1.115-1.118,2.56-1.709,4.172-1.709h21.094
				c1.563,0,2.984,0.58,4.115,1.677c1.156,1.125,1.766,2.577,1.766,4.204v35.742c0,1.831-0.241,3.275-0.735,4.417
				c-0.6,1.375-1.662,2.487-3.076,3.224c-1.56,0.779-3.581,1.186-6.228,1.266c-0.029,0-0.158,0-0.188,0
				c-1.408,0-2.727-0.473-3.813-1.368c-1.053-0.878-1.783-1.983-2.183-3.298c-0.158-0.547-0.229-1.01-0.229-1.459
				c0-0.424,0.056-0.844,0.163-1.248c-2.236-0.019-3.987-0.424-5.295-1.233v3.067c0,1.515-0.574,2.89-1.659,3.976
				C343.506,75.889,342.132,76.461,340.618,76.461z M355.315,58.303c0.379,0,0.747,0.032,1.102,0.096v-0.17
				c-0.154,0.014-0.31,0.021-0.467,0.021h-1.98v0.056h1.346V58.303z"/>
		</g>
		<g enable-background="new    ">
			<path fill="#FFFFFF" d="M146.009,38.647c0,0.716-0.253,1.335-0.757,1.855c-0.505,0.521-1.115,0.781-1.831,0.781
				c-0.229,0-0.358,0.098-0.391,0.293c-1.042,7.227-2.768,13.217-5.176,17.969c-0.131,0.229-0.131,0.439,0,0.635
				c1.758,2.702,3.824,4.883,6.201,6.543c0.586,0.424,0.928,0.993,1.025,1.709c0.032,0.131,0.049,0.244,0.049,0.342
				c0,0.586-0.195,1.106-0.586,1.563c-0.163,0.228-0.342,0.455-0.537,0.684c-0.488,0.65-1.107,1.058-1.855,1.221
				c-0.229,0.064-0.439,0.098-0.635,0.098c-0.521,0-1.01-0.18-1.465-0.537c-2.214-1.66-4.167-3.711-5.859-6.152
				c-0.163-0.195-0.31-0.195-0.439,0c-2.182,2.507-4.785,4.688-7.813,6.543c-0.424,0.228-0.863,0.342-1.318,0.342
				c-0.261,0-0.537-0.049-0.83-0.146c-0.717-0.229-1.286-0.684-1.709-1.367c-0.131-0.163-0.244-0.342-0.342-0.537
				c-0.293-0.424-0.439-0.879-0.439-1.367c0-0.195,0.032-0.406,0.098-0.635c0.162-0.716,0.553-1.253,1.172-1.611
				c3.255-1.79,5.908-4.102,7.959-6.934c0.162-0.195,0.195-0.406,0.098-0.635c-1.237-2.734-2.295-5.892-3.174-9.473
				c0-0.065-0.041-0.105-0.122-0.122c-0.082-0.016-0.139,0.008-0.171,0.073c-0.163,0.261-0.31,0.521-0.439,0.781
				c-0.424,0.618-1.01,0.96-1.758,1.025c-0.065,0-0.146,0-0.244,0c-0.651,0-1.221-0.228-1.709-0.684
				c-0.326-0.293-0.651-0.554-0.977-0.781c-0.163-0.163-0.326-0.163-0.488,0c-2.084,2.441-4.248,4.558-6.494,6.348
				c-0.195,0.163-0.293,0.375-0.293,0.635v0.244c0,0.261,0.13,0.375,0.391,0.342c1.27-0.098,3.32-0.26,6.152-0.488
				c0.064-0.032,0.13-0.049,0.195-0.049c0.586,0,1.106,0.212,1.563,0.635c0.521,0.456,0.781,1.025,0.781,1.709
				c0,0.749-0.244,1.392-0.732,1.929s-1.091,0.839-1.807,0.903c-1.303,0.098-3.354,0.261-6.152,0.488
				c-0.261,0.033-0.391,0.18-0.391,0.439v4.492c0,1.334-0.155,2.359-0.464,3.076c-0.31,0.716-0.903,1.285-1.782,1.709
				c-1.042,0.455-2.556,0.716-4.541,0.781c-0.032,0-0.065,0-0.098,0c-0.716,0-1.367-0.229-1.953-0.684
				c-0.586-0.456-1.009-1.074-1.27-1.855c-0.098-0.229-0.146-0.439-0.146-0.635c0-0.358,0.114-0.7,0.342-1.025
				c0.358-0.521,0.847-0.781,1.465-0.781h0.195c0.911,0,1.514,0,1.807,0c0.325,0,0.554-0.049,0.684-0.146s0.195-0.293,0.195-0.586
				v-3.857c0-0.26-0.13-0.374-0.391-0.342c-1.563,0.131-3.694,0.326-6.396,0.586c-0.065,0-0.146,0-0.244,0
				c-0.651,0-1.221-0.211-1.709-0.635c-0.586-0.455-0.911-1.058-0.977-1.807c-0.032-0.098-0.049-0.195-0.049-0.293
				c0-0.586,0.212-1.123,0.635-1.611c0.456-0.553,1.042-0.862,1.758-0.928c2.539-0.162,4.866-0.342,6.982-0.537
				c0.261,0,0.391-0.13,0.391-0.391v-1.807c0-0.455,0.163-0.854,0.488-1.196s0.732-0.513,1.221-0.513
				c0.13,0,0.261-0.049,0.391-0.146c0.781-0.716,1.514-1.416,2.197-2.1c0.032-0.032,0.032-0.081,0-0.146
				c-0.033-0.065-0.082-0.098-0.146-0.098h-2.783c-0.261,0-0.488,0.065-0.684,0.195c-1.628,1.367-3.288,2.604-4.98,3.711
				c-0.521,0.326-1.074,0.488-1.66,0.488c-0.195,0-0.391-0.032-0.586-0.098c-0.813-0.13-1.497-0.521-2.051-1.172
				c-0.065-0.064-0.13-0.13-0.195-0.195c-0.391-0.423-0.586-0.911-0.586-1.465c0-0.13,0.017-0.261,0.049-0.391
				c0.13-0.716,0.488-1.253,1.074-1.611c0.813-0.456,1.644-0.96,2.49-1.514c0.163-0.098,0.244-0.244,0.244-0.439
				c0-0.586,0.203-1.082,0.61-1.489c0.406-0.406,0.903-0.61,1.489-0.61h0.732c0.228,0,0.439-0.081,0.635-0.244
				c0.554-0.488,1.286-1.172,2.197-2.051c0.065-0.032,0.081-0.081,0.049-0.146s-0.081-0.098-0.146-0.098h-7.129
				c-0.684,0-1.278-0.244-1.782-0.732c-0.505-0.488-0.757-1.091-0.757-1.807s0.252-1.318,0.757-1.807
				c0.504-0.488,1.099-0.732,1.782-0.732h4.395c0.228,0,0.342-0.13,0.342-0.391v-2.588c0-0.261-0.114-0.391-0.342-0.391h-2.783
				c-0.684,0-1.27-0.244-1.758-0.732s-0.732-1.074-0.732-1.758s0.244-1.27,0.732-1.758s1.074-0.732,1.758-0.732h2.783
				c0.228,0,0.342-0.13,0.342-0.391v-1.367c0-0.781,0.276-1.44,0.83-1.978s1.212-0.806,1.978-0.806c0.765,0,1.416,0.269,1.953,0.806
				s0.806,1.196,0.806,1.978v1.367c0,0.261,0.13,0.391,0.391,0.391h1.563c0.813,0,1.497,0.277,2.051,0.83
				c0.553,0.554,0.83,1.237,0.83,2.051v0.146c0,0.065,0.024,0.098,0.073,0.098s0.089-0.017,0.122-0.049
				c0.65-1.172,1.285-2.441,1.904-3.809c0.325-0.749,0.846-1.302,1.563-1.66c0.455-0.195,0.911-0.293,1.367-0.293
				c0.293,0,0.586,0.033,0.879,0.098c0.748,0.228,1.285,0.684,1.611,1.367c0.162,0.326,0.244,0.667,0.244,1.025
				c0,0.358-0.065,0.7-0.195,1.025c-1.14,2.441-2.441,4.851-3.906,7.227c-0.033,0.065-0.033,0.13,0,0.195
				c0.032,0.065,0.081,0.098,0.146,0.098c0.781,0,1.448,0.269,2.002,0.806c0.553,0.537,0.83,1.196,0.83,1.978v0.244
				c0,0.032,0.016,0.058,0.049,0.073c0.032,0.017,0.064,0.008,0.098-0.024c1.66-3.646,2.979-8.024,3.955-13.135
				c0.13-0.781,0.521-1.416,1.172-1.904c0.521-0.358,1.09-0.537,1.709-0.537c0.13,0,0.276,0,0.439,0l0.342,0.049
				c0.781,0.13,1.399,0.521,1.855,1.172c0.357,0.456,0.537,0.96,0.537,1.514c0,0.195-0.017,0.391-0.049,0.586
				c-0.358,1.726-0.749,3.401-1.172,5.029c-0.033,0.098-0.024,0.179,0.024,0.244s0.122,0.098,0.22,0.098h10.205
				c0.748,0,1.392,0.269,1.929,0.806s0.806,1.18,0.806,1.929V38.647z M112.806,36.206c-0.261,0-0.391,0.13-0.391,0.391v2.588
				c0,0.261,0.13,0.391,0.391,0.391h0.879c0.26,0,0.455-0.098,0.586-0.293c0.684-0.977,1.302-1.888,1.855-2.734
				c0.032-0.065,0.032-0.138,0-0.22c-0.033-0.081-0.098-0.122-0.195-0.122H112.806z M117.688,47.192
				c0.098,0,0.179-0.017,0.244-0.049c0.195-0.065,0.374-0.098,0.537-0.098c0.423,0,0.813,0.146,1.172,0.439l0.781,0.635
				c0.13,0.098,0.244,0.081,0.342-0.049c0.748-0.911,1.448-1.937,2.1-3.076c0.032-0.065,0.024-0.138-0.024-0.22
				c-0.049-0.081-0.106-0.122-0.171-0.122h-5.225c-0.261,0-0.456,0.098-0.586,0.293c-0.717,0.847-1.286,1.497-1.709,1.953
				c-0.033,0.065-0.033,0.13,0,0.195c0.032,0.065,0.081,0.098,0.146,0.098H117.688z M136.878,41.626
				c0.032-0.228-0.082-0.342-0.342-0.342h-4.932c-0.261,0-0.375,0.114-0.342,0.342c0.716,3.972,1.676,7.617,2.881,10.938
				c0.032,0.065,0.073,0.098,0.122,0.098s0.089-0.032,0.122-0.098C135.494,49.471,136.324,45.825,136.878,41.626z"/>
			<path fill="#FFFFFF" d="M195.784,44.214c0,0.228,0.113,0.342,0.342,0.342h0.586c0.781,0,1.456,0.285,2.026,0.854
				c0.569,0.57,0.854,1.245,0.854,2.026v4.492c0,0.813-0.285,1.497-0.854,2.051c-0.57,0.554-1.245,0.83-2.026,0.83h-0.146
				c-0.814,0-1.498-0.276-2.051-0.83c-0.554-0.554-0.83-1.237-0.83-2.051v-2.686c0-0.261-0.131-0.391-0.391-0.391h-31.348
				c-0.261,0-0.391,0.13-0.391,0.391v2.734c0,0.781-0.277,1.448-0.83,2.002c-0.554,0.554-1.221,0.83-2.002,0.83
				s-1.44-0.276-1.978-0.83s-0.806-1.221-0.806-2.002v-4.541c0-0.781,0.276-1.456,0.83-2.026c0.553-0.569,1.236-0.854,2.051-0.854
				h0.586c0.228,0,0.342-0.114,0.342-0.342l-0.732-12.451c-0.065-0.749,0.179-1.351,0.732-1.807
				c0.423-0.391,0.895-0.586,1.416-0.586c0.162,0,0.325,0.017,0.488,0.049l0.049,0.049c0.26,0.033,0.504,0.017,0.732-0.049
				c1.334-0.456,2.832-1.025,4.492-1.709c0.357-0.163,0.732-0.244,1.123-0.244c0.195,0,0.423,0.033,0.684,0.098
				c0.586,0.13,1.09,0.439,1.514,0.928c0.357,0.423,0.472,0.896,0.342,1.416c-0.131,0.521-0.439,0.863-0.928,1.025
				c-1.433,0.554-3.012,1.074-4.736,1.563c-0.229,0.065-0.342,0.212-0.342,0.439v0.439c0.032,0.228,0.162,0.342,0.391,0.342h4.395
				c0.521,0,0.96,0.179,1.318,0.537c0.357,0.358,0.537,0.798,0.537,1.318s-0.18,0.96-0.537,1.318
				c-0.358,0.358-0.798,0.537-1.318,0.537h-4.199c-0.229,0-0.342,0.114-0.342,0.342l0.049,0.977
				c0.032,0.261,0.162,0.391,0.391,0.391h3.906c0.618,0,1.139,0.212,1.563,0.635c0.423,0.423,0.635,0.928,0.635,1.514
				c0,0.065,0.024,0.114,0.073,0.146s0.105,0.032,0.171,0c1.009-0.488,1.969-1.025,2.881-1.611c0.098-0.065,0.146-0.138,0.146-0.22
				c0-0.081-0.049-0.139-0.146-0.171c-0.261-0.163-0.537-0.325-0.83-0.488c-0.391-0.228-0.603-0.562-0.635-1.001
				c-0.033-0.439,0.113-0.789,0.439-1.05c0.553-0.423,1.106-0.635,1.66-0.635c0.423,0,0.862,0.114,1.318,0.342
				c0.357,0.195,0.699,0.407,1.025,0.635c0.195,0.098,0.374,0.065,0.537-0.098c0.098-0.098,0.195-0.195,0.293-0.293
				c0.716-0.716,1.497-1.074,2.344-1.074c0.293,0,0.586,0.049,0.879,0.146c0.488,0.13,0.806,0.423,0.952,0.879
				s0.057,0.879-0.269,1.27c-0.326,0.358-0.668,0.716-1.025,1.074c-0.163,0.163-0.146,0.31,0.049,0.439
				c0.293,0.228,0.586,0.456,0.879,0.684c0.423,0.325,0.626,0.741,0.61,1.245c-0.017,0.505-0.22,0.92-0.61,1.245
				c-0.391,0.358-0.847,0.537-1.367,0.537c-0.033,0-0.065-0.017-0.098-0.049c-0.554,0-1.042-0.179-1.465-0.537
				c-0.261-0.195-0.537-0.407-0.83-0.635c-0.195-0.163-0.391-0.179-0.586-0.049c-0.456,0.358-0.928,0.7-1.416,1.025
				c-0.619,0.358-1.27,0.537-1.953,0.537c-0.131,0-0.261,0-0.391,0c-0.847-0.098-1.611-0.423-2.295-0.977
				c-0.098-0.065-0.195-0.13-0.293-0.195c-0.033-0.032-0.049-0.032-0.049,0c0,0.261-0.131,0.391-0.391,0.391h-5.518
				c-0.229,0-0.342,0.13-0.342,0.391l0.098,1.025c0,0.228,0.13,0.342,0.391,0.342h24.17c0.26,0,0.406-0.114,0.439-0.342l0.049-1.025
				c0.032-0.261-0.065-0.391-0.293-0.391h-3.76c-0.521,0-0.961-0.179-1.318-0.537c-0.358-0.358-0.537-0.789-0.537-1.294
				c0-0.504,0.179-0.936,0.537-1.294c0.357-0.358,0.797-0.537,1.318-0.537h4.102c0.228,0,0.357-0.13,0.391-0.391l0.049-0.977
				c0-0.228-0.114-0.342-0.342-0.342h-4.053c-0.521,0-0.961-0.179-1.318-0.537c-0.358-0.358-0.537-0.798-0.537-1.318
				s0.179-0.96,0.537-1.318c0.357-0.358,0.797-0.537,1.318-0.537h4.297c0.228,0,0.357-0.114,0.391-0.342l0.049-0.977
				c0-0.26-0.114-0.391-0.342-0.391h-4.541c-0.521,0-0.969-0.179-1.343-0.537c-0.375-0.358-0.562-0.797-0.562-1.318
				c0-0.521,0.187-0.968,0.562-1.343c0.374-0.374,0.821-0.562,1.343-0.562h7.813c0.781,0,1.448,0.293,2.002,0.879
				c0.488,0.521,0.732,1.14,0.732,1.855C196.761,33.618,196.435,38.029,195.784,44.214z M186.165,51.001
				c0.195-0.065,0.374-0.098,0.537-0.098c0.521,0,0.992,0.195,1.416,0.586l0.781,0.732c0.423,0.358,0.635,0.813,0.635,1.367
				c0,0.619-0.244,1.107-0.732,1.465c-2.019,1.465-4.199,2.897-6.543,4.297c-0.065,0-0.09,0.024-0.073,0.073
				c0.016,0.049,0.057,0.073,0.122,0.073h14.844c0.65,0,1.196,0.229,1.636,0.684c0.439,0.456,0.659,1.01,0.659,1.66
				c0,0.651-0.22,1.205-0.659,1.66c-0.439,0.456-0.985,0.684-1.636,0.684H180.94c-0.261,0-0.391,0.114-0.391,0.342v3.271
				c0,1.432-0.18,2.49-0.537,3.174c-0.358,0.684-1.042,1.221-2.051,1.611c-1.237,0.455-3.19,0.716-5.859,0.781h-0.049
				c-0.749,0-1.433-0.244-2.051-0.732c-0.619-0.456-1.074-1.059-1.367-1.807c-0.098-0.229-0.146-0.456-0.146-0.684
				c0-0.326,0.098-0.651,0.293-0.977c0.325-0.488,0.781-0.732,1.367-0.732h0.049c1.074,0.033,2.246,0.049,3.516,0.049
				c0.391-0.032,0.667-0.105,0.83-0.22c0.162-0.113,0.244-0.333,0.244-0.659v-3.076c0-0.228-0.131-0.342-0.391-0.342h-16.162
				c-0.651,0-1.196-0.228-1.636-0.684c-0.439-0.455-0.659-1.009-0.659-1.66c0-0.65,0.22-1.204,0.659-1.66
				c0.439-0.455,0.984-0.684,1.636-0.684h16.26c0.195,0,0.293-0.081,0.293-0.244c0-0.553,0.195-1.033,0.586-1.44
				c0.391-0.406,0.862-0.61,1.416-0.61h0.635c0.228,0,0.439-0.049,0.635-0.146c0.846-0.488,1.692-1.041,2.539-1.66
				c0.032-0.032,0.04-0.081,0.024-0.146c-0.017-0.064-0.058-0.098-0.122-0.098h-13.672c-0.554,0-1.034-0.203-1.44-0.61
				c-0.407-0.406-0.61-0.895-0.61-1.465c0-0.569,0.203-1.058,0.61-1.465c0.406-0.406,0.887-0.61,1.44-0.61h19.043
				C185.97,51.001,186.067,51.001,186.165,51.001z M181.624,31.567c0.423,0.293,0.635,0.692,0.635,1.196
				c0,0.505-0.195,0.936-0.586,1.294s-0.854,0.529-1.392,0.513c-0.537-0.016-1.018-0.188-1.44-0.513
				c-0.195-0.163-0.424-0.358-0.684-0.586c-0.195-0.13-0.391-0.13-0.586,0c-0.651,0.456-1.286,0.879-1.904,1.27
				c-0.424,0.228-0.879,0.342-1.367,0.342c-0.098,0-0.212,0-0.342,0c-0.586-0.065-1.123-0.31-1.611-0.732
				c-0.358-0.293-0.505-0.667-0.439-1.123c0.064-0.456,0.293-0.797,0.684-1.025c0.618-0.293,1.204-0.602,1.758-0.928
				c0.064-0.065,0.098-0.138,0.098-0.22c0-0.081-0.049-0.138-0.146-0.171c-0.229-0.163-0.488-0.309-0.781-0.439
				c-0.358-0.228-0.562-0.553-0.61-0.977c-0.049-0.423,0.089-0.765,0.415-1.025c0.423-0.358,0.911-0.569,1.465-0.635
				c0.098,0,0.195,0,0.293,0c0.423,0,0.83,0.098,1.221,0.293c0.357,0.195,0.716,0.407,1.074,0.635
				c0.162,0.098,0.309,0.082,0.439-0.049c0.098-0.065,0.162-0.13,0.195-0.195c0.748-0.716,1.529-1.074,2.344-1.074
				c0.293,0,0.602,0.049,0.928,0.146c0.488,0.13,0.797,0.423,0.928,0.879c0.13,0.456,0.032,0.863-0.293,1.221
				c-0.293,0.326-0.603,0.651-0.928,0.977c-0.163,0.163-0.163,0.31,0,0.439C181.217,31.242,181.429,31.405,181.624,31.567z"/>
			<path fill="#FFFFFF" d="M249.759,62.085c0,0.781-0.277,1.457-0.83,2.026c-0.554,0.57-1.237,0.854-2.051,0.854h-5.371
				c-0.065,0-0.098,0.017-0.098,0.049c0,0.033,0.016,0.065,0.049,0.098c3.841,1.367,7.601,2.865,11.279,4.492
				c0.488,0.228,0.724,0.61,0.708,1.147c-0.017,0.537-0.269,0.903-0.757,1.099l-1.514,0.586c-0.749,0.293-1.498,0.439-2.246,0.439
				c-1.01,0-2.002-0.261-2.979-0.781c-2.344-1.172-4.948-2.328-7.813-3.467c-0.521-0.228-0.806-0.626-0.854-1.196
				c-0.049-0.569,0.171-1.001,0.659-1.294l1.709-0.977c0.032-0.032,0.049-0.073,0.049-0.122s-0.033-0.073-0.098-0.073h-13.867
				c-0.033,0-0.058,0.024-0.073,0.073c-0.017,0.049-0.009,0.073,0.024,0.073l1.611,0.684c0.586,0.261,0.879,0.732,0.879,1.416
				c0,0.554-0.244,0.961-0.732,1.221c-2.963,1.563-6.413,2.979-10.352,4.248c-0.456,0.13-0.912,0.195-1.367,0.195
				c-0.391,0-0.781-0.049-1.172-0.146c-0.847-0.229-1.596-0.651-2.246-1.27c-0.098-0.131-0.195-0.244-0.293-0.342
				c-0.293-0.293-0.439-0.635-0.439-1.025c0-0.131,0.016-0.277,0.049-0.439c0.162-0.586,0.537-0.943,1.123-1.074
				c4.264-0.977,7.796-2.132,10.596-3.467c0.032,0,0.049-0.024,0.049-0.073s-0.033-0.073-0.098-0.073h-4.102
				c-0.781,0-1.457-0.284-2.026-0.854c-0.57-0.569-0.854-1.245-0.854-2.026V47.534c0-0.781,0.284-1.456,0.854-2.026
				c0.569-0.569,1.245-0.854,2.026-0.854h7.227c0.064,0,0.122-0.032,0.171-0.098s0.057-0.13,0.024-0.195
				c-0.717-1.335-1.449-2.376-2.197-3.125c0.032,0.13-0.017,0.212-0.146,0.244c-4.297,1.237-7.553,2.181-9.766,2.832
				c-0.326,0.065-0.635,0.098-0.928,0.098c-0.456,0-0.912-0.098-1.367-0.293c-0.717-0.358-1.237-0.911-1.563-1.66
				c-0.131-0.293-0.195-0.586-0.195-0.879c0-0.358,0.098-0.716,0.293-1.074c0.357-0.651,0.895-1.042,1.611-1.172
				c2.115-0.456,5.029-1.123,8.74-2.002c0.228-0.065,0.439-0.098,0.635-0.098c0.521,0,1.009,0.163,1.465,0.488
				c0.618,0.456,0.96,1.058,1.025,1.807l0.146,1.27c0.032,0.261,0.162,0.358,0.391,0.293c3.58-0.586,6.201-1.399,7.861-2.441
				s2.783-2.425,3.369-4.15c0.032-0.065,0.024-0.138-0.024-0.22c-0.049-0.081-0.122-0.122-0.22-0.122h-2.881
				c-0.229,0-0.424,0.098-0.586,0.293c-0.586,0.684-1.188,1.335-1.807,1.953c-0.521,0.521-1.172,0.781-1.953,0.781h-0.049
				c-0.749,0-1.433-0.195-2.051-0.586c-0.586-0.358-0.879-0.879-0.879-1.563c0-0.521,0.195-0.96,0.586-1.318
				c1.595-1.399,2.945-2.962,4.053-4.688c0.423-0.684,0.977-1.204,1.66-1.563c0.521-0.293,1.058-0.439,1.611-0.439
				c0.195,0,0.391,0.017,0.586,0.049l0.195,0.049c0.618,0.098,1.074,0.423,1.367,0.977c0.13,0.261,0.195,0.521,0.195,0.781
				c0,0.261-0.082,0.537-0.244,0.83c-0.033,0.065-0.033,0.122,0,0.171c0.032,0.049,0.081,0.073,0.146,0.073h13.281
				c1.758,0,3.092,0.114,4.004,0.342c0.521,0.13,0.887,0.439,1.099,0.928c0.211,0.488,0.203,0.96-0.024,1.416
				c-0.781,1.433-1.563,2.702-2.344,3.809c-0.424,0.586-0.993,0.993-1.709,1.221c-0.326,0.098-0.668,0.146-1.025,0.146
				c-0.358,0-0.717-0.065-1.074-0.195c-0.554-0.163-0.912-0.521-1.074-1.074c-0.065-0.195-0.098-0.391-0.098-0.586
				c0-0.358,0.098-0.684,0.293-0.977c0.13-0.163,0.244-0.325,0.342-0.488c0.032-0.065,0.032-0.138,0-0.22
				c-0.033-0.081-0.082-0.122-0.146-0.122h-4.834c-0.098,0-0.171,0.041-0.22,0.122c-0.049,0.082-0.058,0.154-0.024,0.22
				c0.586,1.563,1.7,2.873,3.345,3.931c1.644,1.059,4.207,1.88,7.69,2.466c0.618,0.13,1.041,0.472,1.27,1.025
				c0.13,0.261,0.195,0.505,0.195,0.732c0,0.325-0.098,0.651-0.293,0.977c-0.456,0.749-1.059,1.318-1.807,1.709
				c-0.488,0.261-0.993,0.391-1.514,0.391c-0.261,0-0.521-0.032-0.781-0.098c-0.033,0-0.065-0.017-0.098-0.049
				c-0.261-0.032-0.391,0.065-0.391,0.293V62.085z M222.513,30.005c0.65,0.228,1.074,0.684,1.27,1.367
				c0.098,0.261,0.146,0.505,0.146,0.732c0,0.391-0.114,0.781-0.342,1.172c-0.391,0.618-0.944,1.042-1.66,1.27
				c-0.293,0.065-0.586,0.098-0.879,0.098c-0.391,0-0.798-0.081-1.221-0.244c-1.758-0.781-3.679-1.514-5.762-2.197
				c-0.586-0.195-0.977-0.586-1.172-1.172c-0.065-0.195-0.098-0.407-0.098-0.635c0-0.325,0.098-0.635,0.293-0.928
				c0.391-0.618,0.911-1.058,1.563-1.318c0.391-0.163,0.781-0.244,1.172-0.244c0.293,0,0.586,0.049,0.879,0.146
				C218.72,28.638,220.657,29.289,222.513,30.005z M222.415,48.218c-0.229,0-0.342,0.13-0.342,0.391v1.416
				c0,0.228,0.113,0.342,0.342,0.342h20.947c0.228,0,0.342-0.114,0.342-0.342v-1.416c0-0.261-0.114-0.391-0.342-0.391H222.415z
				 M222.415,53.735c-0.229,0-0.342,0.114-0.342,0.342v1.416c0,0.261,0.113,0.391,0.342,0.391h20.947
				c0.228,0,0.342-0.13,0.342-0.391v-1.416c0-0.228-0.114-0.342-0.342-0.342H222.415z M222.415,59.204
				c-0.229,0-0.342,0.131-0.342,0.391v1.465c0,0.229,0.113,0.342,0.342,0.342h20.947c0.228,0,0.342-0.113,0.342-0.342v-1.465
				c0-0.26-0.114-0.391-0.342-0.391H222.415z M230.569,44.556c-0.033,0-0.049,0.017-0.049,0.049s0.016,0.049,0.049,0.049h16.016
				c0.032,0,0.057-0.017,0.073-0.049c0.016-0.032,0.008-0.049-0.024-0.049c-3.158-1.204-5.518-2.864-7.08-4.98
				c-0.163-0.195-0.31-0.195-0.439,0C237.356,41.724,234.508,43.384,230.569,44.556z"/>
			<path fill="#FFFFFF" d="M273.509,43.384c0.65,0.423,1.041,1.025,1.172,1.807c0,0.163,0,0.31,0,0.439
				c0,0.651-0.195,1.237-0.586,1.758l-0.098,0.146c-0.456,0.586-1.074,0.928-1.855,1.025c-0.131,0.032-0.261,0.049-0.391,0.049
				c-0.619,0-1.188-0.195-1.709-0.586c-1.01-0.684-2.148-1.367-3.418-2.051c-0.619-0.358-1.01-0.879-1.172-1.563
				c-0.033-0.195-0.049-0.374-0.049-0.537c0-0.488,0.146-0.928,0.439-1.318c0.488-0.651,1.106-1.074,1.855-1.27
				c0.293-0.098,0.586-0.146,0.879-0.146c0.455,0,0.911,0.114,1.367,0.342C271.278,42.098,272.467,42.732,273.509,43.384z
				 M270.823,56.128c0.26-0.684,0.732-1.139,1.416-1.367c0.26-0.098,0.504-0.146,0.732-0.146c0.423,0,0.83,0.131,1.221,0.391
				l0.098,0.049c0.684,0.488,1.172,1.123,1.465,1.904c0.13,0.391,0.195,0.781,0.195,1.172c0,0.424-0.082,0.847-0.244,1.27
				c-1.237,3.386-2.67,6.95-4.297,10.693c-0.293,0.684-0.798,1.155-1.514,1.416c-0.293,0.064-0.57,0.098-0.83,0.098
				c-0.456,0-0.879-0.114-1.27-0.342l-0.488-0.293c-0.684-0.391-1.14-0.977-1.367-1.758c-0.098-0.325-0.146-0.635-0.146-0.928
				c0-0.455,0.113-0.895,0.342-1.318C267.796,63.485,269.358,59.872,270.823,56.128z M275.95,30.151
				c0.684,0.423,1.074,1.042,1.172,1.855c0.032,0.163,0.049,0.31,0.049,0.439c0,0.618-0.212,1.188-0.635,1.709l-0.098,0.146
				c-0.456,0.618-1.074,0.977-1.855,1.074c-0.131,0-0.244,0-0.342,0c-0.651,0-1.237-0.195-1.758-0.586
				c-1.074-0.749-2.23-1.481-3.467-2.197c-0.619-0.358-1.01-0.879-1.172-1.563c-0.033-0.195-0.049-0.391-0.049-0.586
				c0-0.456,0.146-0.895,0.439-1.318c0.488-0.651,1.123-1.074,1.904-1.27c0.293-0.065,0.569-0.098,0.83-0.098
				c0.488,0,0.977,0.114,1.465,0.342C273.704,28.784,274.876,29.468,275.95,30.151z M309.056,53.882c0,0.814-0.277,1.498-0.83,2.051
				c-0.554,0.554-1.237,0.83-2.051,0.83h-5.469c-0.261,0-0.391,0.131-0.391,0.391V67.7c0,1.367-0.139,2.408-0.415,3.125
				c-0.277,0.716-0.839,1.27-1.685,1.66c-1.074,0.488-2.572,0.765-4.492,0.83c-0.033,0-0.065,0-0.098,0
				c-0.717,0-1.367-0.229-1.953-0.684c-0.586-0.488-0.993-1.123-1.221-1.904c-0.065-0.195-0.098-0.391-0.098-0.586
				c0-0.391,0.13-0.766,0.391-1.123c0.357-0.488,0.846-0.732,1.465-0.732h1.709c0.293,0,0.496-0.049,0.61-0.146
				c0.113-0.098,0.171-0.293,0.171-0.586v-10.4c0-0.26-0.114-0.391-0.342-0.391h-4.688c-0.814,0-1.498-0.276-2.051-0.83
				c-0.554-0.553-0.83-1.236-0.83-2.051V41.626c0-0.781,0.276-1.456,0.83-2.026c0.553-0.569,1.236-0.854,2.051-0.854h4.102
				c0.228,0,0.357-0.114,0.391-0.342c0.293-1.888,0.455-3.027,0.488-3.418c0.032-0.261-0.065-0.391-0.293-0.391h-8.984
				c-0.229,0-0.342,0.13-0.342,0.391v8.105c0,12.175-1.774,21.452-5.322,27.832c-0.358,0.684-0.928,1.09-1.709,1.221
				c-0.195,0.032-0.391,0.049-0.586,0.049c-0.554,0-1.074-0.163-1.563-0.488c-0.065-0.033-0.114-0.065-0.146-0.098
				c-0.651-0.391-1.074-0.961-1.27-1.709c-0.065-0.261-0.098-0.505-0.098-0.732c0-0.488,0.13-0.943,0.391-1.367
				c0.977-1.79,1.79-3.76,2.441-5.908c0.65-2.148,1.114-4.378,1.392-6.689c0.276-2.312,0.464-4.362,0.562-6.152
				s0.146-3.776,0.146-5.957V32.153c0-0.813,0.284-1.497,0.854-2.051c0.569-0.553,1.245-0.83,2.026-0.83h25.635
				c0.748,0,1.383,0.261,1.904,0.781c0.521,0.521,0.781,1.147,0.781,1.88s-0.261,1.359-0.781,1.88
				c-0.521,0.521-1.156,0.781-1.904,0.781h-6.104c-0.229,0-0.391,0.13-0.488,0.391c-0.163,0.488-0.521,1.628-1.074,3.418
				c-0.033,0.098-0.017,0.179,0.049,0.244c0.064,0.065,0.13,0.098,0.195,0.098h5.811c0.813,0,1.497,0.285,2.051,0.854
				c0.553,0.57,0.83,1.245,0.83,2.026V53.882z M286.644,61.304c0.325-0.716,0.813-1.253,1.465-1.611
				c0.455-0.26,0.928-0.391,1.416-0.391c0.228,0,0.472,0.033,0.732,0.098c0.684,0.163,1.204,0.57,1.563,1.221
				c0.195,0.326,0.293,0.668,0.293,1.025c0,0.293-0.065,0.586-0.195,0.879c-0.944,2.246-2.051,4.297-3.32,6.152
				c-0.424,0.618-1.025,0.977-1.807,1.074c-0.163,0.032-0.31,0.049-0.439,0.049c-0.619,0-1.188-0.18-1.709-0.537
				c-0.586-0.391-0.928-0.928-1.025-1.611c0-0.13,0-0.26,0-0.391c0-0.553,0.162-1.058,0.488-1.514
				C285.048,64.445,285.895,62.964,286.644,61.304z M292.405,43.042c-0.261,0-0.391,0.114-0.391,0.342v2.002
				c0,0.261,0.13,0.391,0.391,0.391h10.791c0.26,0,0.391-0.13,0.391-0.391v-2.002c0-0.228-0.131-0.342-0.391-0.342H292.405z
				 M292.405,49.78c-0.261,0-0.391,0.114-0.391,0.342v2.051c0,0.228,0.13,0.342,0.391,0.342h10.791c0.26,0,0.391-0.114,0.391-0.342
				v-2.051c0-0.228-0.131-0.342-0.391-0.342H292.405z M303.05,62.622c-0.195-0.391-0.293-0.781-0.293-1.172
				c0-0.26,0.049-0.537,0.146-0.83c0.228-0.684,0.684-1.155,1.367-1.416c0.391-0.162,0.797-0.244,1.221-0.244
				c0.325,0,0.667,0.049,1.025,0.146c0.748,0.261,1.334,0.732,1.758,1.416c0.911,1.628,1.709,3.19,2.393,4.688
				c0.162,0.391,0.244,0.781,0.244,1.172c0,0.358-0.082,0.717-0.244,1.074c-0.293,0.749-0.83,1.286-1.611,1.611l-0.098,0.049
				c-0.358,0.162-0.7,0.244-1.025,0.244c-0.358,0-0.717-0.082-1.074-0.244c-0.717-0.325-1.205-0.846-1.465-1.563
				C304.742,65.959,303.961,64.315,303.05,62.622z"/>
			<path fill="#FFFFFF" d="M361.956,28.833c0.781,0,1.456,0.277,2.026,0.83c0.569,0.554,0.854,1.237,0.854,2.051v35.742
				c0,1.4-0.163,2.474-0.488,3.223c-0.326,0.748-0.896,1.334-1.709,1.758c-1.107,0.553-2.751,0.862-4.932,0.928
				c-0.033,0-0.065,0-0.098,0c-0.717,0-1.352-0.229-1.904-0.684c-0.586-0.488-0.993-1.107-1.221-1.855
				c-0.065-0.229-0.098-0.424-0.098-0.586c0-0.391,0.113-0.749,0.342-1.074c0.325-0.488,0.781-0.732,1.367-0.732h0.049
				c0.716,0.033,1.497,0.049,2.344,0.049c0.325-0.032,0.562-0.122,0.708-0.269s0.22-0.398,0.22-0.757V34.351
				c0-0.261-0.114-0.391-0.342-0.391h-15.43c-0.261,0-0.391,0.13-0.391,0.391v36.475c0,0.716-0.261,1.334-0.781,1.855
				c-0.521,0.521-1.14,0.781-1.855,0.781c-0.717,0-1.335-0.261-1.855-0.781c-0.521-0.521-0.781-1.14-0.781-1.855v-5.713
				c0-0.064-0.041-0.13-0.122-0.195c-0.082-0.064-0.155-0.081-0.22-0.049l-0.586,0.195c-0.261,0.098-0.521,0.146-0.781,0.146
				c-0.424,0-0.83-0.13-1.221-0.391c-0.651-0.391-1.059-0.96-1.221-1.709c-0.293-1.334-0.651-2.701-1.074-4.102
				c-0.098-0.228-0.146-0.455-0.146-0.684c0-0.325,0.081-0.635,0.244-0.928c0.26-0.521,0.667-0.879,1.221-1.074
				c0.26-0.064,0.504-0.098,0.732-0.098c0.357,0,0.699,0.082,1.025,0.244c0.553,0.261,0.928,0.684,1.123,1.27
				c0.293,0.814,0.602,1.758,0.928,2.832c0,0.033,0.016,0.049,0.049,0.049c0.032,0,0.049-0.016,0.049-0.049v-6.25
				c0-0.064-0.041-0.122-0.122-0.171c-0.082-0.049-0.155-0.057-0.22-0.024l-0.391,0.146c-0.293,0.163-0.586,0.244-0.879,0.244
				c-0.326,0-0.651-0.081-0.977-0.244c-0.651-0.293-1.059-0.781-1.221-1.465c-0.065-0.228-0.212-0.325-0.439-0.293l-1.807,0.146
				c-0.229,0-0.342,0.13-0.342,0.391v17.773c0,0.684-0.253,1.277-0.757,1.782c-0.505,0.504-1.107,0.757-1.807,0.757
				c-0.7,0-1.303-0.253-1.807-0.757c-0.505-0.505-0.757-1.099-0.757-1.782V53.442c0-0.261-0.114-0.374-0.342-0.342l-4.004,0.293
				c-0.098,0.032-0.18,0.049-0.244,0.049c-0.619,0-1.188-0.212-1.709-0.635c-0.554-0.456-0.863-1.042-0.928-1.758
				c-0.033-0.098-0.049-0.212-0.049-0.342c0-0.554,0.195-1.058,0.586-1.514c0.455-0.554,1.041-0.847,1.758-0.879l0.635-0.049
				c0.228,0,0.423-0.098,0.586-0.293c0.553-0.651,1.155-1.433,1.807-2.344c0.13-0.195,0.13-0.407,0-0.635
				c-0.944-1.465-2.214-3.093-3.809-4.883c-0.521-0.586-0.781-1.27-0.781-2.051c0-0.651,0.179-1.237,0.537-1.758l0.635-0.879
				c0.228-0.293,0.521-0.456,0.879-0.488c0.357-0.032,0.684,0.065,0.977,0.293c0.098,0.098,0.162,0.098,0.195,0
				c0.977-1.921,1.855-3.906,2.637-5.957c0.26-0.684,0.732-1.188,1.416-1.514c0.391-0.195,0.781-0.293,1.172-0.293
				c0.293,0,0.586,0.049,0.879,0.146c0.684,0.228,1.155,0.684,1.416,1.367c0.13,0.293,0.195,0.586,0.195,0.879
				c0,0.358-0.098,0.716-0.293,1.074c-1.66,3.223-3.061,5.713-4.199,7.471c-0.131,0.195-0.114,0.391,0.049,0.586
				c0.357,0.391,0.732,0.847,1.123,1.367c0.064,0.098,0.138,0.139,0.22,0.122c0.081-0.016,0.154-0.057,0.22-0.122
				c1.172-1.888,2.213-3.694,3.125-5.42c0.325-0.651,0.846-1.091,1.563-1.318c0.293-0.13,0.586-0.195,0.879-0.195
				c0.391,0,0.781,0.098,1.172,0.293c0.618,0.293,1.025,0.765,1.221,1.416c0.064,0.228,0.098,0.456,0.098,0.684
				c0,0.423-0.131,0.83-0.391,1.221c-2.8,4.199-5.322,7.747-7.568,10.645c-0.065,0.065-0.082,0.13-0.049,0.195
				c0.032,0.065,0.081,0.081,0.146,0.049l3.613-0.195c0.098,0,0.171-0.04,0.22-0.122c0.049-0.081,0.057-0.154,0.024-0.22
				c-0.131-0.293-0.261-0.569-0.391-0.83c-0.163-0.325-0.244-0.651-0.244-0.977c0-0.228,0.049-0.472,0.146-0.732
				c0.195-0.586,0.569-0.993,1.123-1.221c0.325-0.13,0.65-0.195,0.977-0.195c0.293,0,0.586,0.049,0.879,0.146
				c0.586,0.228,1.041,0.618,1.367,1.172c0.716,1.465,1.351,2.881,1.904,4.248c0,0.032,0.024,0.041,0.073,0.024
				c0.049-0.016,0.073-0.041,0.073-0.073V31.714c0-0.813,0.276-1.497,0.83-2.051c0.553-0.553,1.236-0.83,2.051-0.83H361.956z
				 M320.745,58.325c0.098-0.65,0.406-1.172,0.928-1.563c0.391-0.325,0.83-0.488,1.318-0.488c0.13,0,0.26,0.017,0.391,0.049
				c0.684,0.098,1.221,0.424,1.611,0.977c0.357,0.424,0.537,0.912,0.537,1.465c0,0.098-0.017,0.212-0.049,0.342
				c-0.424,3.061-1.025,5.811-1.807,8.252c-0.195,0.586-0.603,0.993-1.221,1.221c-0.261,0.098-0.521,0.146-0.781,0.146
				c-0.326,0-0.651-0.081-0.977-0.244c-0.586-0.293-1.01-0.748-1.27-1.367c-0.131-0.325-0.195-0.667-0.195-1.025
				c0-0.26,0.049-0.537,0.146-0.83C319.931,63.437,320.387,61.125,320.745,58.325z M351.702,61.304h3.369c0.098,0,0.179,0,0.244,0
				c0.032,0,0.064,0,0.098,0c0.586,0,1.123,0.18,1.611,0.537c0.455,0.391,0.716,0.879,0.781,1.465c0,0.098,0,0.18,0,0.244
				c0,0.586-0.163,1.123-0.488,1.611c-0.424,0.521-0.944,0.781-1.563,0.781c-0.195,0.033-0.424,0.049-0.684,0.049h-3.369
				c-2.279,0-3.793-0.455-4.541-1.367c-0.749-0.911-1.123-2.588-1.123-5.029v-4.15c0-0.13-0.065-0.195-0.195-0.195
				c-0.391,0-0.725-0.138-1.001-0.415c-0.277-0.276-0.415-0.61-0.415-1.001v-0.83c0-0.618,0.22-1.147,0.659-1.587
				s0.968-0.659,1.587-0.659h1.709c0.26,0,0.391-0.114,0.391-0.342v-3.174c0-0.261-0.131-0.391-0.391-0.391h-1.563
				c-0.619,0-1.147-0.22-1.587-0.659s-0.659-0.969-0.659-1.587V43.97c0-0.456,0.154-0.838,0.464-1.147
				c0.309-0.309,0.691-0.464,1.147-0.464c0.13,0,0.179-0.065,0.146-0.195c-0.195-1.237-0.521-2.571-0.977-4.004
				c-0.163-0.488-0.139-0.96,0.073-1.416c0.211-0.456,0.562-0.765,1.05-0.928c0.488-0.195,0.977-0.187,1.465,0.024
				c0.488,0.212,0.83,0.562,1.025,1.05c0.325,0.781,0.586,1.595,0.781,2.441c0.064,0.195,0.098,0.391,0.098,0.586
				c0,0.423-0.114,0.813-0.342,1.172c-0.326,0.554-0.798,0.944-1.416,1.172v0.098h5.713V42.31c-0.488-0.195-0.839-0.521-1.05-0.977
				c-0.212-0.456-0.236-0.928-0.073-1.416c0.293-0.879,0.553-1.79,0.781-2.734c0.162-0.586,0.504-1.042,1.025-1.367
				c0.357-0.228,0.732-0.342,1.123-0.342c0.195,0,0.406,0.032,0.635,0.098c0.586,0.163,0.992,0.521,1.221,1.074
				c0.13,0.293,0.195,0.578,0.195,0.854c0,0.277-0.065,0.562-0.195,0.854c-0.163,0.325-0.439,0.937-0.83,1.831
				c-0.391,0.896-0.668,1.538-0.83,1.929c-0.098,0.163-0.049,0.244,0.146,0.244c0.586,0,1.082,0.212,1.489,0.635
				c0.406,0.423,0.61,0.928,0.61,1.514v0.098c0,0.618-0.22,1.147-0.659,1.587s-0.969,0.659-1.587,0.659h-1.66
				c-0.261,0-0.391,0.13-0.391,0.391v3.174c0,0.228,0.13,0.342,0.391,0.342h1.807c0.618,0,1.147,0.22,1.587,0.659
				s0.659,0.969,0.659,1.587s-0.22,1.147-0.659,1.587s-0.969,0.659-1.587,0.659h-4.639c-0.229,0-0.342,0.131-0.342,0.391v4.053
				c0,0.651,0.049,1.083,0.146,1.294C351.214,61.198,351.409,61.304,351.702,61.304z"/>
		</g>
	</g>
</g>
<g>
	<g>
		<path fill="#7D3618" d="M39.58,10.938C27.429,8.415,15.107,13.98,8.737,24.447c-5.406,8.939-6.308,21.579,1.258,29.67
			c4.295,4.572,11.294,6.909,17.374,7.945c6.1,1.015,12.298,0.353,17.599-2.896c9.2-5.627,15.151-17.838,14.48-28.428
			c-0.419-6.62-4.466-12.02-9.891-15.683c-2.702-1.842-5.657-3.187-8.929-3.642c-3.559-0.476-7.16-0.061-10.707-0.661
			c-2.827-0.498-4.063,3.807-1.195,4.282C33.72,15.883,39.415,14.725,44.065,17c4.148,2.05,8.131,5.338,9.934,9.642
			c1.929,4.676,0.795,10.18-0.839,14.771c-1.466,4.221-3.813,8.195-7.079,11.297c-7.923,7.531-19.974,6.269-29.003,1.244
			c-8.592-4.761-9.745-15.604-6.183-23.876c4.548-10.553,15.863-17.215,27.471-14.815C41.212,15.82,42.433,11.538,39.58,10.938
			L39.58,10.938z"/>
	</g>
	<g>
		<path fill="#7D3618" d="M35.115,14.663c-9.256-1.552-17.85,4.014-21.663,12.206c-3.311,7.137-4.799,18.226,1.738,24.144
			c3.271,2.979,7.88,4.016,12.197,4.386c4.526,0.413,9.287-0.29,13.283-2.525c7.884-4.343,12.284-14.314,10.397-23.005
			c-0.755-3.455-2.475-7.075-4.908-9.702C43.269,17.042,39.208,15.47,35.115,14.663c-2.407-0.477-3.455,3.206-1.026,3.683
			c3.003,0.6,6.035,1.49,8.344,3.537c1.734,1.552,2.89,3.518,3.774,5.628c2.933,6.908,0.917,14.917-4.613,20.005
			c-5.34,4.903-14.416,5.357-20.933,2.547c-7.019-3.063-6.874-11.835-5.051-18.062c2.307-7.883,9.514-15.145,18.464-13.635
			C36.523,18.759,37.574,15.076,35.115,14.663L35.115,14.663z"/>
	</g>
	<g>
		<path fill="#7D3618" d="M30.36,30.843c-0.019-0.022-0.063-0.063-0.083-0.104c-0.252-0.185-0.5-0.415-0.773-0.58
			c-0.064-0.021-0.064-0.041-0.108-0.061c-0.291-0.146-0.628-0.271-0.919-0.394c-0.083-0.044-0.17-0.044-0.252-0.083
			c-0.336-0.043-0.671-0.104-1.006-0.126c-0.041,0-0.085,0-0.124,0c-0.063,0-0.087,0-0.127,0c-0.335,0.044-0.69,0.083-1.007,0.126
			c-0.102,0.039-0.188,0.039-0.292,0.083c-0.292,0.104-0.609,0.248-0.924,0.394c-0.04,0.02-0.084,0.039-0.104,0.061
			c-0.335,0.165-0.627,0.436-0.9,0.685c-0.084,0.038-0.127,0.102-0.189,0.164c-0.19,0.249-0.419,0.518-0.61,0.767
			c-0.019,0.04-0.039,0.081-0.062,0.123c-0.146,0.289-0.273,0.62-0.397,0.89c-0.022,0.041-0.022,0.063-0.042,0.103
			c-0.042,0.189-0.063,0.415-0.083,0.58c-0.042,0.171-0.086,0.394-0.086,0.579c0,0.043,0,0.043,0,0.084
			c0.044,0.144,0.044,0.287,0.086,0.455c0.02,0.454,0.147,0.868,0.419,1.281c0.082,0.083,0.165,0.229,0.249,0.333
			c0.252,0.372,0.587,0.684,0.987,0.868c0.02,0.042,0.062,0.042,0.102,0.063c0.379,0.186,0.753,0.351,1.133,0.498
			c0.273,0.102,0.565,0.181,0.837,0.243c0.44,0.086,0.881,0.125,1.321,0.188c0.146,0,0.314,0,0.481,0
			c0.295,0,0.589-0.043,0.901-0.083c0.316-0.044,0.607-0.063,0.942-0.168c0.42-0.079,0.838-0.289,1.175-0.597
			c0.379-0.229,0.671-0.559,0.881-0.973c0.253-0.374,0.399-0.81,0.418-1.261c0.127-0.457,0.083-0.934-0.062-1.389
			c-0.103-0.289-0.249-0.539-0.356-0.826c-0.315-0.539-0.735-0.912-1.256-1.242c-0.254-0.083-0.546-0.228-0.839-0.332
			c-0.632-0.164-1.237-0.164-1.843,0c-0.148,0.043-0.296,0.063-0.462,0.083c0.314-0.04,0.627-0.083,0.919-0.127
			c-0.334,0.044-0.71,0.044-1.065,0c0.312,0.044,0.608,0.087,0.92,0.127c-0.375-0.04-0.754-0.164-1.111-0.289
			c0.292,0.125,0.566,0.249,0.838,0.352c-0.125-0.041-0.228-0.103-0.375-0.189c0.583,0.996,1.172,1.992,1.737,3.003
			c0-0.061,0-0.146,0-0.209c-0.042,0.311-0.083,0.625-0.126,0.934c0.023-0.085,0.043-0.164,0.063-0.248
			c-0.128,0.289-0.25,0.538-0.355,0.827c0.043-0.062,0.063-0.145,0.146-0.207c-0.189,0.248-0.375,0.455-0.563,0.703
			c0.062-0.083,0.145-0.185,0.227-0.248c-0.227,0.165-0.458,0.353-0.71,0.539c0.103-0.063,0.209-0.126,0.335-0.166
			c-0.295,0.104-0.566,0.246-0.86,0.353c0.106-0.044,0.253-0.106,0.379-0.106c-0.316,0.044-0.608,0.086-0.925,0.124
			c0.106-0.018,0.234-0.018,0.357,0c-0.313-0.038-0.63-0.08-0.941-0.124c0.102,0,0.187,0.044,0.272,0.063
			c-0.295-0.104-0.546-0.243-0.84-0.352c0.063,0.043,0.149,0.063,0.21,0.126c-0.251-0.165-0.46-0.352-0.713-0.539
			c0.043,0.045,0.083,0.083,0.126,0.124c0.336,0.332,0.711,0.578,1.154,0.702c0.419,0.21,0.856,0.312,1.319,0.312
			c0.501,0.022,0.945-0.102,1.343-0.312c0.419-0.124,0.794-0.37,1.129-0.702c0.169-0.248,0.356-0.454,0.546-0.703
			c0.316-0.517,0.462-1.115,0.462-1.737c-0.044-0.289-0.085-0.6-0.127-0.911C31.097,31.773,30.779,31.275,30.36,30.843L30.36,30.843
			z"/>
	</g>
	<g>
		<path fill="#7D3618" d="M30.76,24.862c-2.075,1.613-3.582,4.014-4.191,6.579c-0.19,0.891,0.272,1.904,1.217,2.132
			c0.899,0.186,1.945-0.27,2.156-1.2c0.126-0.56,0.316-1.098,0.504-1.635c0.084-0.208-0.188,0.41-0.043,0.104
			c0.043-0.063,0.043-0.104,0.083-0.188c0.083-0.125,0.147-0.251,0.19-0.372c0.146-0.249,0.292-0.518,0.439-0.766
			c0.17-0.228,0.296-0.476,0.505-0.685c-0.043,0.043-0.252,0.313-0.126,0.146c0.039-0.064,0.083-0.104,0.166-0.186
			c0.083-0.104,0.169-0.207,0.252-0.291c0.419-0.453,0.842-0.847,1.324-1.22c0.309-0.27,0.499-0.828,0.499-1.222
			c0-0.413-0.19-0.909-0.499-1.24c-0.34-0.289-0.778-0.518-1.242-0.497C31.495,24.365,31.14,24.572,30.76,24.862L30.76,24.862z"/>
	</g>
	<g>
		<path fill="#7D3618" d="M30.36,35.908c1.972-0.243,3.902-0.702,5.784-1.117c0.963-0.224,1.928-0.452,2.874-0.64
			c0.482-0.104,0.901-0.209,1.384-0.271c0.227-0.039,0.416-0.059,0.646-0.121c0.126,0,0.816-0.082,0.334-0.042
			c0.904-0.077,1.808-0.702,1.72-1.696c-0.039-0.828-0.773-1.841-1.72-1.697c-1.968,0.23-3.896,0.663-5.8,1.118
			c-0.948,0.207-1.911,0.413-2.875,0.621c-0.458,0.082-0.901,0.208-1.36,0.27c-0.232,0.041-0.442,0.061-0.651,0.104
			c-0.127,0.017-0.818,0.122-0.337,0.041c-0.92,0.124-1.801,0.703-1.718,1.716C28.642,35.02,29.396,36.033,30.36,35.908
			L30.36,35.908z"/>
	</g>
	<g>
		<path fill="#7D3618" d="M37.612,10.979c0-0.103,0-0.227,0-0.331c0-0.063,0-0.123,0.041-0.187c0-0.165-0.041,0.248-0.041,0.248
			c-0.038,0,0.189-0.661,0.211-0.744c0,0.042-0.211,0.414-0.062,0.166c0.016-0.042,0.04-0.083,0.062-0.124
			c0.043-0.104,0.121-0.206,0.168-0.291c0.04-0.041,0.104-0.123,0.127-0.165c-0.023,0.021-0.295,0.331-0.087,0.124
			c0.087-0.082,0.167-0.166,0.253-0.247c0.082-0.042,0.332-0.291,0.129-0.125c-0.255,0.206,0.062-0.041,0.123-0.041
			c0.102-0.082,0.206-0.125,0.333-0.187c0,0-0.354,0.124-0.205,0.084c0.078-0.022,0.167-0.042,0.229-0.063
			c0.104-0.021,0.227-0.042,0.328-0.063c0.231-0.063-0.391,0.041-0.188,0.021c0.049,0,0.087,0,0.129-0.021c0.148,0,0.291,0,0.379,0
			c0.062,0,0.102,0,0.164,0c0.215,0-0.42-0.104-0.125-0.021c0.213,0.042,0.442,0.104,0.632,0.167
			c0.268,0.082-0.127-0.043-0.151-0.063c0.05,0.02,0.151,0.063,0.19,0.082c0.106,0.063,0.212,0.145,0.341,0.207
			c0.227,0.145-0.295-0.247,0,0c0.078,0.063,0.138,0.145,0.202,0.229c0.024,0.04,0.09,0.081,0.129,0.123
			c0,0-0.253-0.372-0.129-0.123c0.065,0.081,0.129,0.186,0.168,0.289c0.148,0.248-0.122-0.373,0-0.042
			c0,0.125,0.047,0.207,0.087,0.312c0.062,0.268-0.04-0.187-0.04-0.187c0.04,0,0,0.165,0,0.165c0,0.043,0,0.082,0,0.124
			c0.04,0.207,0.127-0.434,0.04-0.165c-0.04,0.084-0.126,0.394-0.04,0.104c0.143-0.311-0.047,0.02-0.047,0.104
			c0.047-0.249,0.236-0.29,0.087-0.166c-0.087,0.104-0.087,0,0.212-0.165c-0.023,0.041-0.049,0.041-0.086,0.041
			c-0.252,0.146,0.166-0.083,0.208-0.083l-0.146,0.042c-0.188,0.082,0.252-0.042,0.271,0c-0.079-0.042-0.247,0-0.31,0
			c-0.149,0,0.31,0.041,0.291,0.041c-0.022-0.041-0.148-0.041-0.148-0.041c-0.039-0.042-0.104-0.042-0.143-0.062
			c-0.109-0.021,0.371,0.227,0.185,0.103c0-0.041-0.042-0.041-0.081-0.041c-0.253-0.145,0.206,0.082,0.188,0.124l-0.106-0.083
			c-0.146-0.166,0.187,0.206,0.172,0.187c-0.023-0.02-0.047-0.063-0.065-0.104c0,0.021,0.191,0.477,0.104,0.207
			c-0.039-0.145,0.04,0.371,0.04,0.31c-0.016-0.269-0.079,0.476-0.04,0.186c0.165-0.868-0.253-1.903-1.217-2.109
			c-0.876-0.206-1.927,0.248-2.157,1.2c-0.188,0.952,0.024,1.862,0.713,2.545c0.608,0.6,1.425,0.89,2.242,0.932
			c1.889,0.124,3.333-1.614,3.226-3.394c-0.08-1.676-1.132-3.229-2.681-3.91c-1.635-0.745-3.538-0.808-5.095,0.124
			c-1.611,0.931-2.702,2.813-2.613,4.696c0.04,0.911,0.771,1.737,1.715,1.695C36.815,12.655,37.653,11.952,37.612,10.979
			L37.612,10.979z"/>
	</g>
	<g>
		<path fill="#7D3618" d="M44.778,3.015c-2.43-1.159-5.198-1.781-7.921-1.406c-1.045,0.163-2.137,0.619-2.87,1.406
			c-1.026,1.116-1.112,2.71-0.441,4.014c0.672,1.282,1.886,1.984,3.205,2.48c0.528,0.207,1.072,0.354,1.615,0.539
			c0.482,0.187,0.983,0.455,1.593,0.704c1.216,0.538,2.474,1.014,3.836,0.973c1.276-0.042,2.555-0.456,3.437-1.387
			c0.943-0.952,1.275-2.359,0.904-3.643c-0.422-1.446-1.51-2.336-3.018-2.522c-0.902-0.083-1.761,0.89-1.724,1.737
			c0.043,1.015,0.772,1.572,1.724,1.696c0,0-0.34-0.041-0.173,0c0.211,0.042-0.296-0.124-0.105-0.021
			c0.15,0.083-0.103-0.104-0.142-0.104c0.167,0.146,0,0.041,0.039,0c-0.039,0-0.039-0.043-0.088-0.082
			c0.049,0.039,0.088,0.123,0.088,0.165c0.041,0.165-0.039-0.126-0.039-0.126c0.039,0.043,0.039,0.105,0.08,0.167
			c0.043,0.166,0,0.331,0-0.041c0,0.104,0,0.248,0,0.372c0,0,0.043-0.352,0.043-0.165c0,0.041-0.084,0.331,0,0.082
			c0.062-0.248-0.172,0.229-0.043,0.083c0.148-0.165-0.041,0.062-0.08,0.104c-0.19,0.187,0.185-0.104-0.049,0
			c-0.062,0.042-0.123,0.063-0.187,0.104c0.063-0.042,0.315-0.084-0.018,0c-0.168,0.039-0.314,0.082-0.465,0.122
			c0.275-0.083-0.143,0-0.269,0c-0.215,0-0.381,0-0.585-0.04c0.333,0.062-0.173-0.043-0.276-0.043
			c-0.206-0.081-0.418-0.144-0.648-0.206c-0.063-0.02-0.443-0.165-0.337-0.124c-0.247-0.082-0.482-0.206-0.729-0.31
			c-0.885-0.394-1.762-0.767-2.686-1.075c-0.206-0.063-0.419-0.146-0.627-0.187c-0.062-0.042-0.439-0.207-0.249-0.125
			c-0.216-0.082-0.381-0.207-0.593-0.31c-0.166-0.105-0.015,0,0,0.021c-0.124-0.084-0.206-0.208-0.308-0.291
			c-0.15-0.145,0,0,0.016,0.041c-0.041-0.082-0.08-0.145-0.127-0.226c-0.076-0.146-0.039,0.144,0-0.043
			c0.047-0.187-0.076,0.021,0,0.062c0,0,0-0.31-0.039-0.082c0,0.207,0.039-0.082,0.039-0.082c-0.039,0.227-0.076,0.164,0,0.04
			c-0.076,0.105-0.166,0.165-0.039,0.042c0.039-0.042,0.213-0.166,0.064-0.042c-0.191,0.124,0.061-0.04,0.102-0.083
			c0.062-0.041,0.126-0.041,0.215-0.081c-0.047,0.04-0.256,0.081-0.089,0.04c0.166,0,0.341-0.103,0.524-0.123
			C37.4,5.021,37.487,5.021,37.574,5c0.249-0.081-0.418,0.021,0.038,0c0.482-0.019,0.939-0.041,1.421-0.019
			C39.541,5,39.832,5.043,40.212,5.104c0.518,0.103,1.025,0.228,1.547,0.392c0.528,0.167,0.76,0.271,1.219,0.498
			c0.817,0.372,1.927,0.228,2.367-0.621C45.827,4.587,45.676,3.429,44.778,3.015L44.778,3.015z"/>
	</g>
	<g>
		<path fill="#7D3618" d="M34.761,49.151c-0.543-1.076-1.089-2.192-1.587-3.31c-0.048-0.083-0.086-0.186-0.124-0.292
			c-0.089-0.185,0.076,0.167-0.025-0.041c-0.063-0.165-0.149-0.329-0.23-0.515c-0.124-0.332-0.252-0.686-0.378-1.016
			c-1.067-2.791-2.473-5.462-3.291-8.336c-0.439-1.511-2.848-0.891-2.41,0.639c0.838,2.94,2.263,5.629,3.353,8.442
			c0.71,1.945,1.592,3.807,2.537,5.668C33.316,51.8,35.432,50.579,34.761,49.151L34.761,49.151z"/>
	</g>
	<g>
		<path fill="#7D3618" d="M34.263,17.643c5.569,1.178,10.767,3.743,15.001,7.51c0.752,0.683,1.969,0.744,2.728,0
			c0.71-0.705,0.773-1.987,0-2.69c-4.695-4.18-10.483-7.158-16.687-8.481c-1.042-0.207-2.092,0.311-2.383,1.345
			C32.645,16.255,33.254,17.413,34.263,17.643L34.263,17.643z"/>
	</g>
	<g>
		<path fill="#7D3618" d="M49.768,32.186c0.965,1.201,0.545,3.146,0.169,4.51c-0.464,1.779-1.133,3.54-1.973,5.215
			c-1.572,3.122-3.687,6.207-6.456,8.44c-2.993,2.441-6.952,2.895-10.729,3.061c-3.98,0.168-8.001-0.286-11.647-1.982
			c-2.242-1.037-4.192,2.232-1.95,3.307c4.443,2.07,9.305,2.753,14.187,2.465c4.863-0.269,9.516-1.202,13.243-4.491
			c3.396-2.978,5.933-6.992,7.67-11.108c1.61-3.868,3.082-8.522,0.191-12.125C50.964,27.552,48.239,30.263,49.768,32.186
			L49.768,32.186z"/>
	</g>
	<g>
		<path fill="#7D3618" d="M18.354,51.552c-0.46-0.249-0.942-0.497-1.361-0.826c0.146,0.102,0.272,0.182,0.419,0.287
			c-0.587-0.434-1.089-0.929-1.551-1.489c0.125,0.126,0.209,0.249,0.314,0.371c-0.419-0.536-0.776-1.116-1.026-1.777
			c0.041,0.165,0.125,0.331,0.187,0.477c-0.187-0.477-0.355-0.932-0.438-1.408c-0.231-0.973-1.425-1.636-2.389-1.344
			c-1.047,0.331-1.572,1.304-1.341,2.356c0.629,2.814,2.64,5.381,5.258,6.663c0.463,0.207,0.986,0.331,1.49,0.207
			c0.438-0.145,0.92-0.475,1.152-0.889C19.507,53.289,19.341,52.028,18.354,51.552L18.354,51.552z"/>
	</g>
	<g>
		<path fill="#7D3618" d="M16.281,21.346c-0.502,0.353-1.006,0.744-1.425,1.2c-0.419,0.453-0.796,0.973-1.131,1.53
			c-0.126,0.206-0.209,0.456-0.209,0.703c-0.063,0.248-0.043,0.498,0.042,0.745c0.084,0.248,0.167,0.455,0.355,0.661
			c0.147,0.207,0.314,0.374,0.523,0.498c0.462,0.228,1.007,0.33,1.509,0.186c0.462-0.145,0.901-0.434,1.133-0.89
			c0.167-0.248,0.335-0.517,0.522-0.745c-0.103,0.124-0.187,0.25-0.312,0.373c0.312-0.373,0.648-0.704,1.047-1.014
			c-0.126,0.103-0.253,0.186-0.399,0.31c0.084-0.082,0.19-0.164,0.273-0.227c0.252-0.104,0.418-0.27,0.544-0.477
			c0.169-0.166,0.293-0.393,0.355-0.662c0.107-0.248,0.107-0.496,0.044-0.765c-0.021-0.27-0.083-0.477-0.23-0.703
			c-0.251-0.415-0.651-0.767-1.132-0.892c-0.19,0-0.335-0.041-0.524-0.041C16.93,21.097,16.617,21.179,16.281,21.346L16.281,21.346z
			"/>
	</g>
	<g>
		<path fill="#7D3618" d="M14.48,25.339c-2.517,3.455-3.605,7.676-3.773,11.895c-0.084,2.236,0.083,4.492,0.377,6.704
			c0.294,2.235,0.523,4.593,1.697,6.601c1.279,2.11,4.59,0.188,3.333-1.926c-0.963-1.613-1.07-3.744-1.258-5.563
			c-0.231-1.925-0.375-3.87-0.292-5.815c0.167-3.594,1.109-7.054,3.27-9.991c0.628-0.829,0.146-2.132-0.692-2.607
			C16.154,24.076,15.107,24.489,14.48,25.339L14.48,25.339z"/>
	</g>
</g>
</svg>
