<?xml version="1.0" encoding="utf-8"?>
<!-- Generator: Adobe Illustrator 27.7.0, SVG Export Plug-In . SVG Version: 6.00 Build 0)  -->
<svg version="1.1" id="圖層_1" xmlns="http://www.w3.org/2000/svg" xmlns:xlink="http://www.w3.org/1999/xlink" x="0px" y="0px"
	 viewBox="0 0 290 100" style="enable-background:new 0 0 290 100;" xml:space="preserve">
<style type="text/css">
	.st0{fill:#7D3618;}
</style>
<g id="圖層_7">
	<g>
		<path class="st0" d="M230.54,42.59c7.97-3.99,16.52-6.23,25.41-6.69c2.68-0.14,2.7-4.32,0-4.19c-9.65,0.49-18.88,2.93-27.52,7.26
			C226.02,40.18,228.13,43.79,230.54,42.59L230.54,42.59z"/>
	</g>
	<g>
		<path class="st0" d="M224.99,45.5c-0.15,0.95-0.38,1.88-0.71,2.78c-0.04,0.12-0.09,0.24-0.14,0.36c-0.02,0.05-0.19,0.44-0.08,0.21
			c0.09-0.21-0.05,0.1-0.06,0.13c-0.05,0.12-0.11,0.23-0.17,0.35c-0.22,0.44-0.45,0.87-0.71,1.29c-0.24,0.4-0.52,0.77-0.78,1.16
			c-0.13,0.18,0.18-0.22-0.04,0.05c-0.07,0.08-0.13,0.16-0.2,0.24c-0.17,0.2-0.34,0.39-0.51,0.58c-0.32,0.34-0.65,0.67-1,0.98
			c-0.19,0.17-0.39,0.34-0.59,0.5c-0.15,0.12-0.13,0.09,0.01-0.01c-0.13,0.09-0.25,0.18-0.38,0.27c-0.8,0.56-1.25,1.66-0.67,2.56
			c0.51,0.79,1.7,1.27,2.56,0.67c3.69-2.62,6.36-6.62,7.07-11.13c0.15-0.96-0.25-2.06-1.31-2.3
			C226.4,43.99,225.15,44.46,224.99,45.5L224.99,45.5z"/>
	</g>
	<path class="st0" d="M243.36,47.35c-0.87-0.26-1.84-0.05-2.72,0.07c-0.74,0.11-1.48,0.25-2.2,0.43c-1.58,0.4-3.11,1.01-4.57,1.74
		c-0.47,0.24-0.77,0.73-0.88,1.26c-1.05-0.21-2.29,0.37-2.27,1.76c0.02,5.03-0.63,10-1.97,14.86c-0.29,1.05,0.57,2.52,1.8,2.37
		c3.22-0.39,6.36-1.08,9.41-2.17c0.95-0.34,1.59-1.27,1.31-2.3c-0.25-0.92-1.34-1.65-2.3-1.31c-1.93,0.69-3.92,1.24-5.94,1.64
		c0.1-0.47,0.21-0.93,0.3-1.4c0.39,0.05,0.79-0.01,1.15-0.23c2.56-1.6,5.18-3.1,7.85-4.5c0.48-0.25,0.79-0.76,0.89-1.3
		c0.3-0.24,0.55-0.57,0.71-0.98c0.63-1.53,0.99-3.11,1.18-4.74C245.32,50.74,245.57,48,243.36,47.35z M241.45,49.89
		C241.44,49.88,241.44,49.88,241.45,49.89L241.45,49.89z M235.75,52.81c0.3-0.15,0.6-0.3,0.91-0.43c0.03-0.01,0.06-0.02,0.09-0.04
		c0.01,0,0.02-0.01,0.03-0.01c0.14-0.06,0.29-0.12,0.43-0.17c0.6-0.23,1.22-0.43,1.84-0.6c0.6-0.16,1.2-0.3,1.81-0.41
		c0.15-0.03,0.31-0.05,0.46-0.08c0.05-0.01,0.1-0.01,0.15-0.02c0,0,0,0,0,0c-0.01,0-0.02,0-0.03,0c0.01,0,0.02,0,0.03,0
		c0,0.24-0.02,0.48-0.03,0.72c-2.43,0.67-4.79,1.62-7.01,2.82c0.02-0.53,0.02-1.06,0.02-1.59
		C234.86,53.09,235.32,53.03,235.75,52.81z M234.02,59.98c0.05-0.43,0.11-0.87,0.15-1.31c0.36,0.03,0.73-0.04,1.07-0.24
		c0.65-0.38,1.32-0.75,1.99-1.09c0.32-0.16,0.63-0.31,0.96-0.46c0.18-0.08,0.37-0.16,0.55-0.25c0.19-0.08,0.19-0.08-0.03,0.01
		c0.07-0.03,0.14-0.06,0.21-0.09c0.5-0.2,1.01-0.38,1.51-0.55c-0.04,0.1-0.07,0.2-0.11,0.29c-0.01,0.04-0.01,0.08-0.02,0.12
		C238.17,57.53,236.08,58.73,234.02,59.98z"/>
	<g>
		<path class="st0" d="M242.18,63.7c1.08,2.13,2.15,4.26,3.23,6.39c0.44,0.87,1.74,1.19,2.56,0.67c0.89-0.58,1.14-1.62,0.67-2.56
			c-1.08-2.13-2.15-4.26-3.23-6.39c-0.44-0.87-1.74-1.19-2.56-0.67C241.95,61.72,241.7,62.76,242.18,63.7L242.18,63.7z"/>
	</g>
	<path class="st0" d="M207.96,40.3c-0.28-1.02-1.31-1.52-2.3-1.31c-1.65,0.36-3.32,0.71-4.97,1.12c-0.03-0.73-0.06-1.46-0.09-2.19
		c1.69-0.43,3.39-0.82,5.1-1.13c0.99-0.18,1.56-1.39,1.31-2.3c-0.29-1.04-1.3-1.49-2.3-1.31c-1.43,0.27-2.85,0.58-4.27,0.92
		c-0.04-0.87-0.07-1.75-0.11-2.62c-0.04-0.98-0.83-1.92-1.87-1.87c-0.98,0.05-1.91,0.82-1.87,1.87c0.05,1.2,0.1,2.41,0.15,3.61
		c-1.8,0.52-3.58,1.09-5.34,1.73c-0.95,0.35-1.59,1.27-1.31,2.3c0.25,0.92,1.35,1.66,2.3,1.31c1.49-0.54,3-1.03,4.51-1.48
		c0.03,0.63,0.05,1.26,0.08,1.89c0,0.11,0.02,0.21,0.04,0.32c-2.73,0.92-5.37,2.13-8.01,3.27c-0.93,0.4-1.14,1.76-0.67,2.56
		c0.55,0.97,1.62,1.08,2.55,0.68c2.56-1.1,4.86-2.17,7.54-3.04s5.47-1.41,8.22-2.02C207.64,42.38,208.21,41.24,207.96,40.3z"/>
	<g>
		<path class="st0" d="M197.65,48.21c-0.05,2.38-0.09,4.76-0.14,7.14c-0.01,0.68,0.61,1.34,1.31,1.31c0.72-0.03,1.29-0.57,1.31-1.31
			c0.05-2.38,0.09-4.76,0.14-7.14c0.01-0.68-0.61-1.34-1.31-1.31C198.24,46.94,197.67,47.48,197.65,48.21L197.65,48.21z"/>
	</g>
	<g>
		<path class="st0" d="M204.2,53.49c1.63-0.43,3.28-0.68,4.91-1.1c0.95-0.25,1.61-1.35,1.31-2.3c-0.31-0.97-1.29-1.57-2.3-1.31
			c-1.63,0.43-3.28,0.68-4.91,1.1c-0.95,0.25-1.61,1.35-1.31,2.3C202.21,53.15,203.19,53.75,204.2,53.49L204.2,53.49z"/>
	</g>
	<path class="st0" d="M212.38,59.96c-6,0.33-12.51,0.53-17.3-3.68c-0.4-0.35-0.83-0.53-1.26-0.57c0.01-0.01,0.01-0.02,0.02-0.03
		c0.18-0.28,0.37-0.55,0.57-0.82c0.07-0.1,0.34-0.57,0.08-0.12c0.08-0.14,0.21-0.27,0.31-0.39c0.32-0.4,0.55-0.79,0.55-1.32
		c0-0.46-0.2-1.01-0.55-1.32c-0.67-0.62-1.97-0.8-2.63,0.01c-1.95,2.39-3.42,5.1-4.28,8.07c-0.27,0.94,0.33,2.08,1.31,2.3
		c1,0.23,2.01-0.3,2.3-1.31c0.13-0.44,0.29-0.87,0.44-1.3c5.79,5.05,13.1,5.37,20.44,4.97C215.25,64.29,215.27,59.81,212.38,59.96z"
		/>
	<path class="st0" d="M156.56,31.51c-0.87-0.27-1.89-0.06-2.76,0.09c-0.78,0.13-1.56,0.32-2.33,0.51c-1.77,0.43-3.52,0.9-5.32,1.21
		c-0.06,0.01-0.12,0.02-0.18,0.03c-0.01,0-0.03,0.01-0.04,0.01c-0.79,0.13-1.34,0.99-1.37,1.78c0,0.01,0,0.01,0,0.02
		c-0.28,4.17-0.44,8.34-0.5,12.51c-0.62,0.58-0.84,1.58-0.36,2.33c0.1,0.16,0.22,0.29,0.36,0.42c-0.01,3.04,0.03,6.08,0.14,9.12
		c0.09,2.4,3.83,2.41,3.74,0c-0.12-3.24-0.15-6.48-0.14-9.71c0.31-0.17,0.62-0.33,0.94-0.49c0.38-0.18,0.76-0.35,1.14-0.52
		c-0.01,0.01,0.43-0.18,0.48-0.2c0.2-0.08,0.41-0.16,0.62-0.24c1.74-0.64,3.53-1.12,5.36-1.45c0.96-0.17,1.6-1.4,1.31-2.3
		c0,0,0,0,0,0c0.13-0.25,0.22-0.53,0.24-0.85c0.17-2.09,0.31-4.18,0.42-6.27C158.41,35.52,159.08,32.29,156.56,31.51z M155.57,35.13
		C155.79,35.13,155.77,35.19,155.57,35.13L155.57,35.13z M151.95,35.84c0.7-0.18,1.4-0.35,2.11-0.5c0.2-0.04,0.41-0.08,0.61-0.11
		c0,0.06,0,0.13,0,0.19c-0.03,0.74-0.07,1.47-0.11,2.2c-2.19,0.34-4.34,0.8-6.47,1.36c0.04-0.76,0.08-1.52,0.12-2.28
		C149.47,36.44,150.71,36.14,151.95,35.84z M147.85,45.64c0.02-0.91,0.05-1.82,0.08-2.73c2.11-0.59,4.23-1.1,6.38-1.48
		c-0.05,0.71-0.09,1.42-0.15,2.13C152,44.03,149.88,44.74,147.85,45.64z"/>
	<g>
		<path class="st0" d="M71.22,44.14c-0.23,1.88-0.3,3.78-0.2,5.67c0.05,0.97,0.82,1.92,1.87,1.87c0.97-0.04,1.92-0.82,1.87-1.87
			c-0.1-1.89-0.03-3.79,0.2-5.67c0.05-0.44-0.25-1.02-0.55-1.32c-0.32-0.32-0.86-0.57-1.32-0.55c-0.48,0.02-0.98,0.18-1.32,0.55
			C71.41,43.21,71.28,43.62,71.22,44.14L71.22,44.14z"/>
	</g>
	<g>
		<path class="st0" d="M39.36,30.45c5.69-2.02,11.37-4.14,17.45-4.52c1.01-0.06,1.87-0.81,1.87-1.87c0-0.96-0.86-1.93-1.87-1.87
			c-6.45,0.41-12.41,2.51-18.45,4.66c-0.95,0.34-1.59,1.28-1.31,2.3C37.31,30.07,38.4,30.79,39.36,30.45L39.36,30.45z"/>
	</g>
	<g>
		<path class="st0" d="M35.58,51.58c-1.23,1.4-2.45,2.8-3.68,4.2c-0.33,0.38-0.55,0.81-0.55,1.32c0,0.46,0.2,1.01,0.55,1.32
			c0.36,0.33,0.82,0.57,1.32,0.55c0.48-0.02,1-0.18,1.32-0.55c1.23-1.4,2.45-2.8,3.68-4.2c0.33-0.38,0.55-0.81,0.55-1.32
			c0-0.46-0.2-1.01-0.55-1.32c-0.36-0.33-0.82-0.57-1.32-0.55C36.43,51.06,35.91,51.21,35.58,51.58L35.58,51.58z"/>
	</g>
	<g>
		<path class="st0" d="M45.06,50.35c1.05,0.52,2.11,1.03,3.16,1.55c0.46,0.22,0.94,0.33,1.44,0.19c0.43-0.12,0.9-0.45,1.12-0.86
			c0.23-0.43,0.34-0.96,0.19-1.44c-0.14-0.44-0.43-0.9-0.86-1.12c-1.05-0.52-2.11-1.03-3.16-1.55c-0.46-0.22-0.94-0.33-1.44-0.19
			c-0.43,0.12-0.9,0.45-1.12,0.86c-0.23,0.43-0.34,0.96-0.19,1.44C44.35,49.68,44.63,50.14,45.06,50.35L45.06,50.35z"/>
	</g>
	<path class="st0" d="M65.9,39.85c-0.23-0.85-1.04-1.17-1.84-1.04c-1.48,0.23-2.95,0.52-4.42,0.84c-0.59-1.79-3.67-1.6-3.63,0.59
		c0,0.1,0,0.2,0.01,0.3c-1.35,0.37-2.69,0.76-4.02,1.2c-0.77,0.26-1.27,1.03-1.04,1.84c0.21,0.74,1.07,1.3,1.84,1.04
		c1.08-0.36,2.17-0.69,3.27-1c0.02,0.93,0.03,1.86,0.05,2.78c-0.14,0.08-0.28,0.17-0.42,0.29c-1.9,1.61-3.54,3.53-4.88,5.63
		c-0.53,0.83-0.2,2.1,0.67,2.56c0.92,0.49,2,0.21,2.56-0.67c0.33-0.52,0.69-1.01,1.05-1.49c0.35-0.44,0.73-0.87,1.11-1.28
		c0.02,1.01,0.04,2.02,0.05,3.02c0.04,2.4,3.78,2.41,3.74,0c-0.07-3.93-0.14-7.85-0.21-11.78c1.68-0.38,3.37-0.72,5.07-0.99
		C65.66,41.56,66.1,40.57,65.9,39.85z"/>
	<g>
		<path class="st0" d="M62.95,50.11c0.55,0.08,1.09,0.23,1.6,0.45c-0.15-0.06-0.3-0.13-0.45-0.19c0.45,0.19,0.87,0.42,1.28,0.69
			c0.4,0.26,0.99,0.31,1.44,0.19c0.43-0.12,0.9-0.45,1.12-0.86c0.23-0.43,0.34-0.96,0.19-1.44c-0.15-0.47-0.43-0.85-0.86-1.12
			c-0.61-0.39-1.27-0.7-1.95-0.96c-0.45-0.17-0.91-0.29-1.38-0.36c-0.25-0.08-0.5-0.09-0.75-0.03c-0.25,0.01-0.48,0.09-0.69,0.22
			c-0.39,0.23-0.76,0.67-0.86,1.12c-0.11,0.48-0.09,1.02,0.19,1.44c0.1,0.13,0.19,0.25,0.29,0.38
			C62.36,49.87,62.63,50.03,62.95,50.11L62.95,50.11z"/>
	</g>
	<g>
		<path class="st0" d="M42.03,60.85c-0.24,1.31-0.48,2.63-0.72,3.94c-0.09,0.5-0.08,0.98,0.19,1.44c0.23,0.39,0.67,0.76,1.12,0.86
			c0.48,0.11,1.02,0.09,1.44-0.19c0.39-0.25,0.77-0.64,0.86-1.12c0.24-1.31,0.48-2.63,0.72-3.94c0.09-0.5,0.08-0.98-0.19-1.44
			c-0.23-0.39-0.67-0.76-1.12-0.86c-0.48-0.11-1.02-0.09-1.44,0.19C42.5,59.98,42.12,60.37,42.03,60.85L42.03,60.85z"/>
	</g>
	<g>
		<path class="st0" d="M56.8,62.27C56.78,62.27,56.78,62.27,56.8,62.27L56.8,62.27z"/>
		<path class="st0" d="M56.8,62.27c0.02,0,0.06-0.01,0.12-0.01c-0.02,0-0.04,0-0.06,0.01C56.83,62.26,56.81,62.27,56.8,62.27z"/>
		<path class="st0" d="M58.66,66.61c-2.48-0.21-4.95-0.07-7.4,0.24c0-0.03,0.01-0.05,0.01-0.08c0.05-0.98,0.1-1.96,0.15-2.94
			c0.07-0.03,0.14-0.05,0.21-0.08c0.05-0.02,0.18-0.09,0.27-0.14c-0.03,0.02-0.07,0.04-0.13,0.07c0.11-0.06,0.24-0.1,0.35-0.14
			c0.28-0.11,0.56-0.21,0.84-0.31c0.52-0.18,1.05-0.34,1.58-0.48c0.53-0.14,1.07-0.26,1.62-0.36c0.15-0.03,0.29-0.05,0.44-0.08
			c0.11-0.02,0.33-0.1,0.44-0.07c-0.05,0.01-0.08,0.01-0.12,0.01c0.04-0.01,0.09-0.01,0.13-0.01c0.17-0.02,0.34-0.04,0.51-0.05
			c0.51-0.05,0.95-0.18,1.32-0.55c0.32-0.32,0.57-0.86,0.55-1.32c-0.04-0.93-0.83-1.97-1.87-1.87c-2.05,0.2-4.02,0.63-5.93,1.32
			c0.03-0.54,0.05-1.08,0.08-1.62c0.05-0.98-0.9-1.91-1.87-1.87c-1.06,0.05-1.82,0.82-1.87,1.87c-0.15,2.87-0.29,5.75-0.44,8.62
			c-0.01,0.23,0.04,0.45,0.12,0.66c-2.13,0.41-4.25,0.92-6.35,1.42c-2.34,0.56-1.35,4.16,0.99,3.6c5.38-1.3,10.8-2.57,16.37-2.1
			c1.01,0.08,1.87-0.92,1.87-1.87C60.53,67.4,59.67,66.7,58.66,66.61z"/>
	</g>
	<g>
		<g>
			<path class="st0" d="M164.01,49.99c-5.47-1.15-11.03,1.39-13.89,6.17c-2.44,4.08-2.85,9.84,0.56,13.53
				c1.94,2.09,5.09,3.16,7.83,3.63c2.74,0.46,5.54,0.16,7.93-1.32c4.14-2.57,6.82-8.14,6.52-12.97c-0.19-3.03-2.01-5.49-4.45-7.16
				c-1.22-0.84-2.55-1.46-4.03-1.66c-1.6-0.22-3.22-0.03-4.82-0.31c-1.28-0.22-1.83,1.74-0.54,1.96c2.25,0.39,4.81-0.14,6.91,0.9
				c1.87,0.93,3.67,2.43,4.48,4.4c0.87,2.13,0.35,4.64-0.38,6.74c-0.66,1.92-1.72,3.73-3.19,5.15c-3.57,3.44-9,2.86-13.07,0.57
				c-3.86-2.17-4.39-7.12-2.78-10.9c2.05-4.81,7.15-7.85,12.37-6.76C164.75,52.22,165.3,50.26,164.01,49.99L164.01,49.99z"/>
		</g>
		<g>
			<path class="st0" d="M162,51.69c-4.17-0.71-8.04,1.83-9.76,5.57c-1.49,3.25-2.16,8.32,0.78,11.02c1.48,1.36,3.56,1.83,5.5,2
				c2.04,0.18,4.18-0.13,5.98-1.15c3.55-1.99,5.53-6.54,4.69-10.5c-0.34-1.58-1.12-3.23-2.21-4.43
				C165.68,52.77,163.84,52.06,162,51.69c-1.09-0.22-1.56,1.46-0.46,1.68c1.35,0.27,2.72,0.68,3.76,1.62c0.78,0.7,1.3,1.6,1.7,2.56
				c1.32,3.15,0.41,6.81-2.08,9.13c-2.41,2.24-6.49,2.44-9.43,1.16c-3.17-1.39-3.1-5.4-2.28-8.24c1.04-3.6,4.29-6.91,8.32-6.22
				C162.63,53.56,163.1,51.88,162,51.69L162,51.69z"/>
		</g>
		<g>
			<path class="st0" d="M159.86,59.07c-0.01-0.01-0.03-0.03-0.04-0.04c-0.11-0.09-0.23-0.19-0.35-0.27
				c-0.02-0.01-0.03-0.02-0.05-0.03c-0.13-0.07-0.28-0.12-0.41-0.18c-0.04-0.01-0.07-0.02-0.11-0.03c-0.15-0.03-0.31-0.05-0.46-0.06
				c-0.02,0-0.04,0-0.06,0s-0.03,0-0.05,0c-0.15,0.02-0.31,0.03-0.46,0.06c-0.04,0.01-0.08,0.02-0.12,0.03
				c-0.14,0.05-0.28,0.11-0.42,0.18c-0.02,0.01-0.04,0.02-0.05,0.03c-0.15,0.08-0.28,0.2-0.41,0.31c-0.03,0.02-0.05,0.05-0.08,0.08
				c-0.09,0.11-0.19,0.23-0.27,0.35c-0.01,0.02-0.02,0.04-0.03,0.05c-0.07,0.13-0.13,0.28-0.18,0.41c-0.01,0.02-0.01,0.03-0.02,0.05
				c-0.02,0.08-0.03,0.18-0.04,0.26c-0.01,0.07-0.03,0.18-0.03,0.27c0,0.01,0,0.02,0,0.03c0.01,0.07,0.02,0.14,0.03,0.21
				c0.01,0.21,0.07,0.4,0.19,0.58c0.04,0.05,0.08,0.11,0.12,0.16c0.11,0.17,0.26,0.31,0.44,0.4c0.01,0.01,0.03,0.01,0.04,0.02
				c0.17,0.09,0.35,0.16,0.52,0.23c0.12,0.05,0.25,0.09,0.37,0.11c0.2,0.04,0.4,0.06,0.6,0.08c0.07,0.01,0.14,0.01,0.21,0.01
				c0.14,0,0.27-0.02,0.41-0.04s0.28-0.03,0.42-0.07c0.2-0.05,0.38-0.14,0.53-0.28c0.17-0.11,0.31-0.26,0.4-0.44
				c0.11-0.18,0.18-0.37,0.19-0.58c0.05-0.21,0.04-0.42-0.03-0.63c-0.05-0.13-0.11-0.25-0.16-0.38c-0.14-0.24-0.33-0.42-0.56-0.56
				c-0.12-0.05-0.25-0.11-0.38-0.16c-0.28-0.07-0.56-0.07-0.83,0c-0.07,0.02-0.14,0.03-0.21,0.04c0.14-0.02,0.28-0.04,0.42-0.06
				c-0.16,0.02-0.33,0.02-0.49,0c0.14,0.02,0.28,0.04,0.42,0.06c-0.17-0.02-0.34-0.07-0.5-0.13c0.13,0.05,0.25,0.11,0.38,0.16
				c-0.06-0.02-0.11-0.05-0.17-0.08c0.26,0.45,0.52,0.9,0.78,1.36c0-0.03,0-0.06,0-0.09c-0.02,0.14-0.04,0.28-0.06,0.42
				c0.01-0.04,0.02-0.07,0.03-0.11c-0.05,0.13-0.11,0.25-0.16,0.38c0.02-0.03,0.03-0.07,0.06-0.1c-0.08,0.11-0.16,0.21-0.25,0.32
				c0.03-0.04,0.07-0.08,0.11-0.11c-0.11,0.08-0.21,0.16-0.32,0.25c0.04-0.03,0.09-0.06,0.14-0.08c-0.13,0.05-0.25,0.11-0.38,0.16
				c0.05-0.02,0.11-0.04,0.17-0.05c-0.14,0.02-0.28,0.04-0.42,0.06c0.05-0.01,0.1-0.01,0.16,0c-0.14-0.02-0.28-0.04-0.42-0.06
				c0.04,0.01,0.08,0.02,0.12,0.03c-0.13-0.05-0.25-0.11-0.38-0.16c0.03,0.02,0.07,0.03,0.1,0.06c-0.11-0.08-0.21-0.16-0.32-0.25
				c0.02,0.02,0.04,0.04,0.06,0.06c0.14,0.15,0.31,0.26,0.51,0.32c0.19,0.1,0.39,0.14,0.6,0.14c0.22,0.01,0.42-0.04,0.6-0.14
				c0.19-0.06,0.36-0.17,0.51-0.32c0.08-0.11,0.16-0.21,0.25-0.32c0.14-0.24,0.21-0.51,0.21-0.79c-0.02-0.14-0.04-0.28-0.06-0.42
				C160.19,59.5,160.05,59.27,159.86,59.07L159.86,59.07z"/>
		</g>
		<g>
			<path class="st0" d="M160.04,56.34c-0.94,0.74-1.62,1.84-1.89,3.01c-0.09,0.4,0.12,0.87,0.55,0.97c0.4,0.09,0.87-0.12,0.97-0.55
				c0.06-0.26,0.14-0.5,0.23-0.75c0.03-0.09-0.09,0.19-0.02,0.05c0.01-0.03,0.02-0.05,0.04-0.08c0.03-0.06,0.06-0.11,0.08-0.17
				c0.06-0.12,0.13-0.24,0.2-0.35c0.07-0.1,0.13-0.22,0.22-0.31c-0.02,0.02-0.11,0.14-0.05,0.06c0.02-0.03,0.04-0.05,0.07-0.08
				c0.04-0.05,0.08-0.1,0.12-0.14c0.18-0.2,0.38-0.38,0.59-0.55c0.15-0.12,0.23-0.38,0.23-0.56c0-0.19-0.09-0.42-0.23-0.56
				c-0.15-0.14-0.35-0.24-0.56-0.23C160.37,56.12,160.21,56.21,160.04,56.34L160.04,56.34z"/>
		</g>
		<g>
			<path class="st0" d="M159.86,61.38c0.88-0.11,1.75-0.31,2.61-0.51c0.43-0.1,0.86-0.2,1.29-0.29c0.21-0.04,0.41-0.09,0.62-0.12
				c0.1-0.02,0.19-0.03,0.29-0.05c0.06-0.01,0.37-0.05,0.15-0.02c0.41-0.05,0.81-0.32,0.78-0.78c-0.02-0.38-0.35-0.84-0.78-0.78
				c-0.88,0.11-1.75,0.31-2.61,0.51c-0.43,0.1-0.86,0.2-1.29,0.29c-0.21,0.04-0.41,0.09-0.62,0.12c-0.1,0.02-0.19,0.03-0.29,0.05
				c-0.06,0.01-0.37,0.05-0.15,0.02c-0.41,0.05-0.81,0.32-0.78,0.78C159.09,60.98,159.43,61.44,159.86,61.38L159.86,61.38z"/>
		</g>
		<g>
			<path class="st0" d="M163.13,50.01c0-0.05,0-0.1,0-0.15c0-0.03,0-0.06,0.01-0.08c0-0.08-0.01,0.11-0.01,0.1
				c-0.02,0,0.08-0.3,0.09-0.33c0,0.01-0.09,0.18-0.03,0.07c0.01-0.02,0.02-0.04,0.03-0.06c0.02-0.04,0.05-0.09,0.08-0.13
				c0.01-0.02,0.04-0.05,0.05-0.07c-0.01,0.01-0.13,0.15-0.04,0.06c0.04-0.04,0.08-0.08,0.12-0.12c0.03-0.02,0.15-0.13,0.05-0.05
				c-0.11,0.09,0.03-0.02,0.06-0.03c0.05-0.03,0.1-0.05,0.15-0.08c0,0-0.16,0.06-0.09,0.04c0.03-0.01,0.07-0.02,0.1-0.03
				c0.05-0.01,0.1-0.02,0.15-0.03c0.1-0.02-0.18,0.02-0.08,0.01c0.02,0,0.04,0,0.06-0.01c0.06,0,0.12,0,0.17,0c0.02,0,0.04,0,0.07,0
				c0.1,0-0.19-0.04-0.06-0.01c0.1,0.02,0.2,0.05,0.29,0.08c0.12,0.04-0.06-0.02-0.07-0.03c0.02,0.01,0.06,0.03,0.08,0.04
				c0.05,0.03,0.1,0.06,0.15,0.09c0.11,0.07-0.13-0.11,0,0c0.04,0.03,0.07,0.07,0.1,0.1c0.01,0.02,0.04,0.04,0.05,0.06
				c0,0-0.11-0.17-0.05-0.06c0.03,0.05,0.05,0.09,0.08,0.14c0.06,0.11-0.06-0.17-0.01-0.02c0.01,0.05,0.02,0.09,0.04,0.14
				c0.03,0.13-0.01-0.09-0.01-0.09c0.01,0.01,0,0.08,0,0.08c0,0.02,0,0.04,0,0.06c0.01,0.09,0.05-0.2,0.01-0.08
				c-0.01,0.04-0.06,0.18-0.01,0.05c0.06-0.14-0.02,0.01-0.03,0.04c0.03-0.1,0.11-0.13,0.05-0.07c-0.05,0.05-0.05,0,0.09-0.07
				c-0.01,0.01-0.02,0.02-0.04,0.02c-0.11,0.06,0.08-0.04,0.09-0.04l-0.06,0.02c-0.09,0.03,0.11-0.02,0.12-0.01
				c-0.03-0.01-0.11,0-0.14,0c-0.06,0,0.14,0.02,0.13,0.02c-0.01-0.01-0.06-0.01-0.07-0.02c-0.02-0.01-0.04-0.01-0.06-0.02
				c-0.05-0.01,0.17,0.1,0.09,0.04c-0.01-0.01-0.03-0.02-0.04-0.02c-0.12-0.06,0.09,0.05,0.08,0.06l-0.04-0.04
				c-0.07-0.07,0.08,0.1,0.07,0.09s-0.02-0.03-0.03-0.05c0,0.01,0.08,0.22,0.05,0.1c-0.02-0.07,0.02,0.17,0.02,0.14
				c-0.01-0.12-0.04,0.22-0.02,0.09c0.08-0.4-0.12-0.87-0.55-0.97c-0.39-0.09-0.87,0.12-0.97,0.55c-0.09,0.43,0.01,0.85,0.32,1.16
				c0.27,0.27,0.64,0.4,1.01,0.42c0.85,0.06,1.5-0.73,1.45-1.54c-0.04-0.77-0.51-1.47-1.21-1.79c-0.73-0.34-1.59-0.36-2.29,0.06
				c-0.73,0.43-1.21,1.28-1.18,2.14c0.02,0.41,0.35,0.8,0.78,0.78C162.76,50.78,163.15,50.45,163.13,50.01L163.13,50.01z"/>
		</g>
		<g>
			<path class="st0" d="M166.36,46.37c-1.1-0.53-2.35-0.81-3.57-0.63c-0.48,0.07-0.97,0.27-1.3,0.64c-0.46,0.51-0.5,1.23-0.19,1.83
				c0.3,0.58,0.85,0.9,1.44,1.13c0.24,0.09,0.48,0.16,0.72,0.25c0.22,0.08,0.45,0.2,0.72,0.32c0.55,0.24,1.12,0.46,1.73,0.44
				c0.57-0.02,1.15-0.21,1.55-0.63c0.42-0.44,0.58-1.08,0.41-1.67c-0.19-0.66-0.69-1.06-1.36-1.14c-0.41-0.05-0.8,0.4-0.78,0.78
				c0.02,0.47,0.35,0.73,0.78,0.78c0,0-0.16-0.02-0.08,0c0.1,0.02-0.14-0.06-0.05-0.01c0.07,0.04-0.05-0.04-0.06-0.04
				c0.07,0.06,0,0.01,0.01,0c-0.01-0.01-0.02-0.03-0.03-0.04c0.02,0.02,0.03,0.05,0.04,0.07c0.02,0.08-0.02-0.06-0.02-0.06
				c0.01,0.03,0.02,0.05,0.03,0.08c0.02,0.07,0,0.15,0.01-0.02c0,0.05,0,0.12,0,0.17c0,0,0.01-0.16,0.01-0.07
				c0,0.02-0.03,0.15,0,0.04c0.03-0.12-0.07,0.1-0.01,0.03c0.06-0.08-0.03,0.03-0.05,0.05c-0.08,0.08,0.09-0.05-0.01,0
				c-0.03,0.02-0.06,0.03-0.09,0.05c0.03-0.02,0.14-0.04-0.01,0c-0.07,0.02-0.14,0.04-0.21,0.05c0.13-0.04-0.06,0-0.12,0
				c-0.09,0-0.17,0-0.26-0.01c0.15,0.02-0.08-0.02-0.12-0.03c-0.1-0.03-0.2-0.06-0.3-0.09c-0.03-0.01-0.2-0.07-0.15-0.05
				c-0.11-0.05-0.22-0.1-0.33-0.15c-0.4-0.18-0.79-0.35-1.21-0.49c-0.09-0.03-0.19-0.06-0.28-0.09c-0.03-0.01-0.2-0.09-0.12-0.05
				c-0.09-0.04-0.17-0.09-0.26-0.14c-0.08-0.05-0.01,0,0,0.01c-0.05-0.04-0.09-0.09-0.14-0.13c-0.06-0.07,0,0,0.01,0.01
				c-0.02-0.03-0.04-0.06-0.06-0.1c-0.04-0.07-0.02,0.06,0-0.02s-0.04,0.01,0,0.03c0,0,0-0.14-0.01-0.04
				c-0.01,0.09,0.01-0.03,0.01-0.04c-0.02,0.11-0.03,0.08,0,0.02c-0.03,0.05-0.07,0.08-0.01,0.02c0.01-0.01,0.09-0.07,0.02-0.02
				c-0.08,0.06,0.03-0.01,0.05-0.03c0.03-0.02,0.06-0.03,0.09-0.04c-0.02,0.01-0.11,0.03-0.03,0.02c0.07-0.01,0.15-0.05,0.23-0.06
				c0.03-0.01,0.07-0.01,0.1-0.02c0.12-0.03-0.18,0.01,0.02,0c0.22-0.01,0.43-0.02,0.64-0.01c0.24,0.01,0.36,0.03,0.54,0.06
				c0.23,0.04,0.46,0.1,0.69,0.18c0.24,0.08,0.34,0.12,0.55,0.22c0.37,0.18,0.87,0.11,1.07-0.28
				C166.83,47.09,166.76,46.56,166.36,46.37L166.36,46.37z"/>
		</g>
		<g>
			<path class="st0" d="M161.84,67.43c-0.24-0.5-0.49-1-0.71-1.51c-0.02-0.04-0.04-0.09-0.06-0.13c-0.04-0.09,0.03,0.07-0.01-0.02
				c-0.03-0.08-0.07-0.16-0.1-0.24c-0.06-0.15-0.12-0.31-0.18-0.47c-0.48-1.27-1.11-2.49-1.48-3.8c-0.2-0.69-1.28-0.4-1.08,0.3
				c0.38,1.33,1.02,2.56,1.5,3.85c0.33,0.88,0.73,1.74,1.15,2.58C161.19,68.64,162.15,68.08,161.84,67.43L161.84,67.43z"/>
		</g>
		<g>
			<path class="st0" d="M161.62,53.05c2.51,0.54,4.84,1.71,6.75,3.43c0.35,0.31,0.89,0.34,1.23,0c0.32-0.32,0.35-0.91,0-1.23
				c-2.12-1.91-4.72-3.27-7.52-3.87c-0.46-0.1-0.94,0.14-1.07,0.61C160.89,52.41,161.16,52.95,161.62,53.05L161.62,53.05z"/>
		</g>
		<g>
			<path class="st0" d="M168.6,59.68c0.44,0.56,0.24,1.44,0.08,2.06c-0.21,0.82-0.51,1.62-0.89,2.38c-0.71,1.43-1.66,2.84-2.91,3.86
				c-1.35,1.11-3.14,1.32-4.83,1.39c-1.79,0.08-3.61-0.13-5.25-0.9c-1.01-0.48-1.89,1.02-0.88,1.5c2,0.95,4.19,1.26,6.39,1.13
				c2.19-0.13,4.29-0.55,5.97-2.05c1.53-1.36,2.67-3.19,3.45-5.07c0.73-1.76,1.39-3.89,0.09-5.53
				C169.14,57.57,167.91,58.81,168.6,59.68L168.6,59.68z"/>
		</g>
		<g>
			<path class="st0" d="M154.45,68.52c-0.21-0.11-0.42-0.23-0.61-0.38c0.06,0.05,0.12,0.09,0.18,0.14c-0.26-0.2-0.49-0.43-0.69-0.69
				c0.05,0.06,0.09,0.12,0.14,0.18c-0.19-0.25-0.35-0.52-0.47-0.81c0.03,0.07,0.06,0.14,0.09,0.21c-0.09-0.21-0.16-0.42-0.2-0.64
				c-0.1-0.45-0.64-0.75-1.07-0.61c-0.47,0.15-0.71,0.59-0.61,1.07c0.28,1.29,1.19,2.46,2.37,3.04c0.21,0.1,0.44,0.15,0.67,0.09
				c0.2-0.06,0.42-0.21,0.52-0.4C154.97,69.32,154.89,68.74,154.45,68.52L154.45,68.52z"/>
		</g>
		<g>
			<path class="st0" d="M153.52,54.74c-0.23,0.16-0.46,0.34-0.65,0.55c-0.19,0.21-0.36,0.44-0.5,0.69c-0.06,0.1-0.1,0.21-0.1,0.32
				c-0.03,0.12-0.02,0.23,0.02,0.35c0.03,0.11,0.08,0.21,0.16,0.3c0.06,0.09,0.14,0.17,0.24,0.22c0.2,0.11,0.45,0.16,0.67,0.09
				c0.21-0.07,0.41-0.2,0.52-0.4c0.07-0.12,0.14-0.24,0.23-0.35c-0.05,0.06-0.09,0.12-0.14,0.18c0.14-0.17,0.29-0.33,0.47-0.47
				c-0.06,0.05-0.12,0.09-0.18,0.14c0.04-0.03,0.09-0.07,0.13-0.1c0.1-0.05,0.18-0.13,0.24-0.22c0.08-0.08,0.13-0.18,0.16-0.3
				c0.04-0.12,0.04-0.23,0.02-0.35c-0.01-0.12-0.04-0.22-0.1-0.32c-0.12-0.19-0.3-0.35-0.52-0.4c-0.08-0.01-0.15-0.02-0.23-0.03
				C153.81,54.62,153.66,54.66,153.52,54.74L153.52,54.74z"/>
		</g>
		<g>
			<path class="st0" d="M152.71,56.56c-1.14,1.58-1.63,3.51-1.71,5.43c-0.04,1.02,0.04,2.05,0.18,3.06c0.13,1.02,0.23,2.1,0.76,3.01
				c0.57,0.96,2.07,0.09,1.5-0.88c-0.43-0.73-0.48-1.71-0.57-2.54c-0.1-0.88-0.16-1.77-0.13-2.65c0.07-1.64,0.5-3.22,1.47-4.56
				c0.28-0.38,0.07-0.97-0.31-1.19C153.46,55.99,152.99,56.18,152.71,56.56L152.71,56.56z"/>
		</g>
	</g>
	<path class="st0" d="M30.33,36.83c-0.23-2.03-2.59-2.62-3.8-1.73c-0.74,0.34-1.27,1.1-0.99,2.11c0.25,0.92,0.45,1.84,0.62,2.77
		c0.24,3.23,0.11,6.74-1.85,9.11c-1.55,1.88-2.5,3.65-0.63,5.73c0.28,0.31,0.59,0.5,0.9,0.61c0.72,0.42,1.6,0.26,2.25-0.29
		c2.33-1.95,3.33-5.17,3.5-8.11c0.02-0.4,0.04-0.8,0.04-1.2C30.78,42.85,30.68,39.8,30.33,36.83z"/>
	<g>
		<path class="st0" d="M56.7,28.93c4.33,0,4.34-6.73,0-6.73C52.37,22.2,52.36,28.93,56.7,28.93L56.7,28.93z"/>
	</g>
	<g>
		<path class="st0" d="M39.67,30.42c5.4-1.59,10.9-2.52,16.51-1.54c0.99,0.17,2.01-0.27,2.3-1.31c0.25-0.9-0.31-2.12-1.31-2.3
			c-6.29-1.1-12.42-0.25-18.5,1.54C36.37,27.49,37.35,31.1,39.67,30.42L39.67,30.42z"/>
	</g>
	<path class="st0" d="M59.86,32.44c-2.97,0.27-7.43,1.58-8.53,4.72c-0.64,1.82,1.08,2.94,2.58,2.68c0.14,0,0.29-0.02,0.42-0.06
		c0.47-0.15,0.78-0.43,1.08-0.81c-0.07,0.09-0.13,0.17-0.2,0.26c0.31-0.4,0.66-0.74,1.04-1.07c1.07-0.71,2.37-1.13,3.61-1.24
		c1.21-0.11,2.24-0.95,2.24-2.24C62.1,33.56,61.07,32.33,59.86,32.44z"/>
	<path class="st0" d="M49.59,42.85c-0.2-0.73-1.08-1.32-1.84-1.04c-1.32,0.48-2.64,0.98-3.95,1.5c0.02-0.63,0.03-1.26,0.05-1.9
		c0.02-0.62-0.32-1.19-0.81-1.53c0.26-0.1,0.51-0.2,0.77-0.29c0.79-0.27,1.61-0.47,2.44-0.58c0.43-0.06,0.91-0.51,1.12-0.86
		c0.18-0.32,0.28-0.75,0.24-1.14c0.12-0.47,0.09-1-0.16-1.54c-1.29-2.75-4.58-2.47-6.78-1.12c-1.98,1.22-4.23,2.59-5.62,4.48
		c-0.74,1-0.43,1.98,0.28,2.6c0.44,0.66,1.24,1.07,2.06,0.82c0.94-0.29,1.85-0.67,2.75-1.07c-0.01,0.08-0.03,0.15-0.03,0.23
		c-0.03,1.15-0.06,2.3-0.09,3.45c-1.87,0.8-3.73,1.64-5.57,2.53c-0.73,0.35-0.92,1.39-0.54,2.05c0.45,0.74,1.33,0.89,2.06,0.53
		c1.31-0.63,2.64-1.24,3.97-1.82c-0.06,2.43-0.12,4.87-0.19,7.3c-0.03,1.01,0.88,1.87,1.87,1.87c1.03,0,1.84-0.86,1.87-1.87
		c0.08-2.97,0.15-5.93,0.23-8.9c1.6-0.65,3.21-1.27,4.83-1.86C49.31,44.42,49.82,43.67,49.59,42.85z"/>
	<g>
		<path class="st0" d="M66.13,52.02c2.89,0,2.89-4.49,0-4.49C63.24,47.53,63.24,52.02,66.13,52.02L66.13,52.02z"/>
	</g>
	<g>
		<path class="st0" d="M66.08,49.8c-0.7-0.43-1.37-0.91-2.02-1.41c0.08,0.06,0.15,0.12,0.23,0.18c-0.1-0.08-0.2-0.16-0.3-0.24
			C63.75,48.13,63.51,48,63.2,48c-0.28,0-0.6,0.12-0.79,0.33c-0.2,0.21-0.34,0.49-0.33,0.79c0.01,0.28,0.1,0.61,0.33,0.79
			c0.43,0.36,0.89,0.69,1.35,1.02c0.39,0.28,0.79,0.55,1.2,0.8c0.25,0.15,0.59,0.19,0.86,0.11c0.26-0.07,0.54-0.27,0.67-0.52
			C66.77,50.79,66.62,50.12,66.08,49.8L66.08,49.8z"/>
	</g>
	<g>
		<path class="st0" d="M223.39,45.35c-0.41,1.76-0.92,3.49-1.66,5.15c-0.58,1.28-1.15,2.91-2.29,3.8c-2.65,2.08,1.08,5.76,3.7,3.7
			c1.5-1.17,2.35-3.17,3.1-4.86c0.93-2.08,1.67-4.18,2.19-6.4C229.2,43.47,224.16,42.07,223.39,45.35L223.39,45.35z"/>
	</g>
	<path class="st0" d="M263.94,52.89c-0.71-0.41-1.61-0.51-2.44-0.56c1.1-1.22,1.98-2.81,1.73-4.48c-0.36-2.33-2.79-2.84-4.77-3.08
		c-2.06-0.24-4.17-0.01-6.13,0.65c-0.23,0.08-0.43,0.2-0.6,0.36c-0.85,0.1-1.66,0.69-1.72,1.78c-0.57,10.32,0.78,20.64,0,30.96
		c-0.08,1.01,0.91,1.87,1.87,1.87c1.07,0,1.79-0.86,1.87-1.87c0.77-10.13-0.51-20.26-0.02-30.38c1.25-0.35,2.52-0.52,3.84-0.45
		c0.75,0.04,1.48,0.16,2.2,0.36c0.08,0.02,0.31,0.1,0.33,0.1c-0.07-0.02,0.06,0.05,0.11,0.07c0.01,0.02,0.03,0.06,0.05,0.08
		c0.01,0.06,0.02,0.15,0.02,0.18c-0.05,0.92-1.05,1.96-1.84,2.63c-0.99,0.83-2.19,1.45-3.34,2.05c-1.49,0.78-0.47,3.26,1.15,2.73
		c1.23-0.4,2.47-0.63,3.75-0.65c0.63-0.01,1.26,0.02,1.88,0.11c0.02,0,0.04,0.01,0.06,0.01c-0.18,0.13-0.4,0.27-0.59,0.38
		c-0.51,0.29-1.03,0.56-1.58,0.77c-1.14,0.44-2.34,0.74-3.56,0.85c-0.8,0.07-1.5,0.64-1.5,1.5c0,0.75,0.69,1.57,1.5,1.5
		c1.85-0.16,3.61-0.6,5.31-1.35c1.61-0.72,3.49-1.73,3.65-3.7C265.26,54.34,264.78,53.38,263.94,52.89z M262.42,55.46
		C262.52,55.5,262.49,55.52,262.42,55.46L262.42,55.46z"/>
	<g>
		<path class="st0" d="M233.67,46.82c1.65,0.44,3.34,0.71,5.04,0.87c1.27,0.12,2.35-1.17,2.35-2.35c0-1.37-1.08-2.24-2.35-2.35
			c-1.28-0.12-2.54-0.37-3.79-0.7c-1.23-0.33-2.56,0.41-2.9,1.64C231.69,45.14,232.43,46.49,233.67,46.82L233.67,46.82z"/>
	</g>
	<g>
		<path class="st0" d="M238.93,32.28c1.04-0.13,2.09-0.16,3.14-0.08c1.76,0.13,3.44-1.64,3.36-3.36c-0.09-1.93-1.48-3.23-3.36-3.36
			c-1.05-0.08-2.09-0.05-3.14,0.08c-0.93,0.12-1.69,0.3-2.38,0.99c-0.58,0.58-1.02,1.54-0.99,2.38c0.04,0.87,0.32,1.77,0.99,2.38
			C237.16,31.85,238.07,32.39,238.93,32.28L238.93,32.28z"/>
	</g>
	<path class="st0" d="M181.43,49.17c-0.11-4.22-0.33-8.44-0.67-12.65c-0.16-2.02-0.33-4.04-0.59-6.05
		c-0.23-1.82-0.89-3.78-2.83-4.38c-1.15-0.35-2.4-0.01-3.53,0.24c-1.14,0.25-2.27,0.54-3.39,0.88c-2.39,0.71-4.72,1.62-6.99,2.66
		c-0.92,0.42-1.14,1.75-0.67,2.56c0.29,0.49,0.73,0.76,1.22,0.85c0.08,3.17,0.09,6.35-0.02,9.52c-0.03,0.98,0.88,1.91,1.87,1.87
		c0.24-0.01,0.46-0.07,0.67-0.15c0.11-0.01,0.22-0.02,0.33-0.04c3.44-0.71,7.01-0.93,10.65-0.66c0.23,4.71,0.33,9.42,0.27,14.14
		c-0.02,2.02-0.08,4.03-0.16,6.05c0,0.08-0.01,0.17-0.01,0.25c-0.42-0.27-0.94-0.44-1.57-0.44c-3.83,0-3.85,5.95-0.03,5.98
		c0.04,0.01,0.08,0.02,0.12,0.02c1.74,0.23,3.7-0.3,4.63-1.92c0.52-0.92,0.52-2.01,0.57-3.03c0.04-1.03,0.08-2.05,0.11-3.08
		C181.53,57.59,181.54,53.38,181.43,49.17z M176.17,29.61C176.08,29.58,176.12,29.55,176.17,29.61L176.17,29.61z M175.32,29.81
		c0.22-0.05,0.46-0.06,0.67-0.13c0.02-0.01,0.14-0.01,0.21-0.02c0.01,0.02,0.02,0.04,0.03,0.07c0.14,0.56,0.25,1.06,0.31,1.64
		c0.05,0.52,0.09,1.04,0.15,1.55c-0.26-0.15-0.56-0.24-0.9-0.25c-2.7-0.07-5.43,0.27-8.05,0.96c0,0-0.01,0-0.01,0
		c-0.01-0.52-0.01-1.04-0.03-1.56C170.17,31.11,172.72,30.35,175.32,29.81z M167.74,40.55c0.02-1.11,0.06-2.21,0.05-3.32
		c0.3,0.08,0.61,0.09,0.94,0c0.6-0.16,1.21-0.3,1.82-0.42c0.31-0.06,0.61-0.11,0.92-0.16c0.17-0.03,0.33-0.06,0.5-0.07
		c-0.07,0.01-0.14,0.02-0.21,0.03c0.1-0.01,0.19-0.02,0.29-0.03c1.24-0.14,2.49-0.2,3.74-0.17c0.43,0.01,0.85-0.17,1.18-0.44
		c0.02,0.18,0.04,0.36,0.05,0.54c0.1,1.19,0.17,2.38,0.25,3.56C174.08,39.86,170.89,40.04,167.74,40.55z"/>
	<g>
		<g>
			<path class="st0" d="M215.7,34.87c0.74-1.37,1.12-2.89,1.19-4.44c0.05-1.26,0.01-3.19-1.49-3.63c-1.4-0.41-2.42,1.25-2.92,2.29
				c-0.61,1.29-1.07,2.98-0.78,4.4c0.08,0.41,0.26,0.79,0.49,1.14c0.18,0.27,0.39,0.66,0.71,0.79c0.36,0.14,0.89,0,1.27-0.02
				c0.51-0.02,1.01-0.01,1.52,0.02c0.47,0.02,0.46-0.7,0-0.72c-0.66-0.03-1.32-0.04-1.97,0c-0.13,0.01-0.33,0.06-0.45,0.03
				c-0.16-0.03-0.24-0.18-0.33-0.3c-0.17-0.24-0.33-0.5-0.43-0.78c-0.4-1.12-0.02-2.59,0.38-3.66c0.2-0.54,0.47-1.05,0.8-1.53
				c0.29-0.41,0.72-1,1.28-1.01c0.63-0.01,0.98,0.65,1.1,1.18c0.13,0.58,0.12,1.2,0.1,1.79c-0.06,1.42-0.42,2.82-1.09,4.08
				C214.86,34.92,215.48,35.28,215.7,34.87L215.7,34.87z"/>
		</g>
		<g>
			<path class="st0" d="M213.22,37c0.72-0.03,1.44-0.04,2.16-0.04c0.22,0-0.06-0.04-0.02-0.07c-0.01,0.01,0.02,0.23,0.02,0.25
				c0.01,0.18,0.01,0.36,0.01,0.54c-0.01,0.34-0.06,0.69-0.12,1.02c-0.07,0.36-0.16,0.72-0.24,1.07c-0.01,0.02-0.04,0.14-0.04,0.14
				c-0.04-0.05,0.21-0.03,0.09-0.08c-0.05-0.02-0.18,0-0.25-0.01c-0.18-0.01-0.36-0.05-0.53-0.09c-0.22-0.05-0.56-0.07-0.7-0.27
				c-0.14-0.21-0.12-0.5-0.09-0.74c0.06-0.4,0.12-0.78,0.06-1.18c-0.03-0.18-0.07-0.35-0.13-0.52c-0.06-0.17-0.17-0.35-0.2-0.53
				c0,0.06,0,0.13,0,0.19c0-0.02,0.01-0.03,0.01-0.05c-0.03,0.05-0.06,0.11-0.09,0.16c0.01-0.01,0.02-0.02,0.03-0.03
				c-0.05,0.03-0.11,0.06-0.16,0.09c0.16-0.05,0.41-0.02,0.59-0.02c0.24-0.01,0.47-0.01,0.71-0.02c0.46-0.01,0.92-0.03,1.38-0.04
				c0.47-0.01,0.47-0.74,0-0.72c-0.57,0.02-1.14,0.03-1.71,0.05c-0.27,0.01-0.55,0.02-0.82,0.02c-0.3,0.01-0.65,0.08-0.65,0.46
				c0,0.23,0.17,0.47,0.24,0.69c0.07,0.22,0.12,0.45,0.12,0.69c-0.01,0.51-0.2,1-0.06,1.51s0.51,0.77,1,0.89
				c0.25,0.06,0.51,0.12,0.76,0.16c0.25,0.03,0.57,0.09,0.81-0.03c0.25-0.13,0.29-0.42,0.35-0.67c0.07-0.29,0.14-0.57,0.2-0.86
				c0.11-0.55,0.19-1.12,0.17-1.69c-0.01-0.27,0-0.63-0.19-0.84c-0.21-0.24-0.52-0.21-0.81-0.21c-0.63,0-1.27,0.01-1.9,0.04
				C212.75,36.29,212.75,37.02,213.22,37L213.22,37z"/>
		</g>
		<g>
			<path class="st0" d="M215.3,27.33c-0.82,0.24-1.48,0.65-2.05,1.29c-0.43,0.49-0.01,1.24,0.63,1.09c0.68-0.16,1.35-0.32,2.03-0.48
				c-0.17-0.4-0.34-0.79-0.5-1.19c-1.05,0.54-2.33,0.98-3.13,1.88c-0.45,0.51-0.01,1.21,0.63,1.09c1.15-0.21,2.18-0.78,3.32-1.02
				c-0.21-0.36-0.42-0.73-0.63-1.09c-1.12,0.97-2.5,1.57-3.53,2.66c-0.4,0.42-0.11,1.09,0.46,1.11c1.45,0.06,2.67-0.59,3.96-1.17
				c-0.26-0.34-0.53-0.68-0.79-1.02c-1.17,0.93-2.34,1.86-3.51,2.79c-0.51,0.4,0.04,1.3,0.63,1.09c0.98-0.35,1.96-0.7,2.94-1.05
				c-0.21-0.36-0.42-0.73-0.63-1.09c-0.6,0.61-1.25,1.14-1.93,1.66c-0.58,0.45-0.26,1.33,0.5,1.19c0.5-0.09,0.97-0.2,1.45-0.34
				c0.81-0.23,0.46-1.49-0.35-1.26c-0.48,0.14-0.96,0.25-1.45,0.34c0.17,0.4,0.34,0.79,0.5,1.19c0.77-0.59,1.52-1.17,2.2-1.86
				c0.44-0.44,0-1.32-0.63-1.09c-0.98,0.35-1.96,0.7-2.94,1.05c0.21,0.36,0.42,0.73,0.63,1.09c1.17-0.93,2.34-1.86,3.51-2.79
				c0.62-0.49-0.17-1.31-0.79-1.02c-1.08,0.49-2.09,1.05-3.3,1c0.15,0.37,0.31,0.74,0.46,1.11c1.02-1.08,2.41-1.7,3.53-2.66
				c0.53-0.46-0.05-1.21-0.63-1.09c-1.14,0.24-2.17,0.81-3.32,1.02c0.21,0.36,0.42,0.73,0.63,1.09c0.68-0.77,1.96-1.21,2.87-1.68
				c0.67-0.35,0.2-1.36-0.5-1.19c-0.68,0.16-1.35,0.32-2.03,0.48c0.21,0.36,0.42,0.73,0.63,1.09c0.43-0.48,0.85-0.77,1.47-0.95
				C216.45,28.35,216.11,27.09,215.3,27.33L215.3,27.33z"/>
		</g>
		<g>
			<path class="st0" d="M213.82,38.04c0.51-0.15,1.03-0.28,1.56-0.39c-0.25-0.32-0.49-0.64-0.74-0.96
				c-0.22,0.37-0.69,0.59-0.99,0.89c-0.36,0.37-0.65,0.8-0.86,1.27c-0.25,0.55,0.16,1.04,0.74,0.96c0.68-0.09,1.24-0.53,1.91-0.66
				c-0.25-0.32-0.49-0.64-0.74-0.96c-0.15,0.22-0.32,0.38-0.55,0.51c-0.73,0.42-0.07,1.55,0.66,1.13c0.42-0.24,0.75-0.57,1.02-0.98
				c0.33-0.51-0.21-1.06-0.74-0.96c-0.67,0.13-1.23,0.57-1.91,0.66c0.25,0.32,0.49,0.64,0.74,0.96c0.21-0.47,0.48-0.87,0.87-1.21
				c0.36-0.31,0.74-0.54,0.98-0.96c0.3-0.52-0.19-1.07-0.74-0.96c-0.53,0.11-1.05,0.23-1.56,0.39
				C212.67,37.02,213.01,38.28,213.82,38.04L213.82,38.04z"/>
		</g>
		<g>
			<path class="st0" d="M219.19,37.75c0.55-1.13-0.09-2.32-0.3-3.45c-0.2-1.09-0.09-2.54,1.01-3.13c0.48-0.25,1.07-0.28,1.52,0.05
				c0.48,0.36,0.68,0.97,0.75,1.53c0.13,1.08,0.1,2.33-0.16,3.39c-0.07,0.29-0.16,0.57-0.29,0.84c-0.1,0.2-0.29,0.63-0.51,0.71
				c-0.14,0.05-0.37-0.06-0.52-0.09c-0.18-0.04-0.36-0.08-0.54-0.13c-0.38-0.09-0.76-0.18-1.14-0.27c-0.45-0.11-0.65,0.59-0.19,0.7
				c0.38,0.09,0.76,0.18,1.14,0.27c0.39,0.09,0.83,0.26,1.23,0.27c0.6,0.02,1.01-0.78,1.22-1.25c0.54-1.21,0.56-2.61,0.52-3.91
				c-0.04-1.27-0.52-2.82-1.98-3.02c-1.33-0.18-2.4,0.85-2.73,2.06c-0.22,0.82-0.14,1.69,0.05,2.51c0.18,0.78,0.69,1.76,0.3,2.54
				C218.36,37.8,218.99,38.17,219.19,37.75L219.19,37.75z"/>
		</g>
		<g>
			<path class="st0" d="M218.15,39.35c0.83,0.15,1.65,0.3,2.48,0.46c-0.09-0.12-0.18-0.23-0.27-0.35c0.07,0.53-0.06,1.07-0.2,1.58
				c-0.1,0.39-0.25,0.82-0.57,1.07c-0.37,0.29-0.87,0.23-1.29,0.11c-0.2-0.06-0.34-0.1-0.36-0.32c-0.03-0.24,0.02-0.5,0.05-0.74
				c0.08-0.68,0.22-1.35,0.4-2.01c0.12-0.45-0.58-0.64-0.7-0.19c-0.19,0.71-0.33,1.43-0.42,2.17c-0.08,0.61-0.16,1.36,0.51,1.67
				c0.59,0.27,1.34,0.35,1.94,0.08c0.53-0.24,0.84-0.76,1.03-1.29c0.11-0.3,0.18-0.6,0.24-0.91c0.08-0.4,0.15-0.81,0.1-1.22
				c-0.02-0.15-0.1-0.32-0.27-0.35c-0.83-0.15-1.65-0.3-2.48-0.46c-0.19-0.04-0.39,0.05-0.45,0.25
				C217.85,39.08,217.95,39.32,218.15,39.35L218.15,39.35z"/>
		</g>
		<g>
			<path class="st0" d="M220.47,30.72c-0.93,0.38-1.54,0.99-1.82,1.96c-0.16,0.54,0.37,1.02,0.89,0.89c0.72-0.18,2.2-0.25,2.71-0.86
				c0.45-0.54,0.08-1.19-0.47-1.42c-0.83-0.36-1.57,0.77-0.73,1.25c0.33,0.27,0.41,0.08,0.23-0.56c-0.11,0.08-0.22,0.17-0.33,0.25
				c-0.3,0.12-0.62,0.39-0.89,0.58c-0.48,0.34-0.85,0.7-1.15,1.21c-0.33,0.56,0.21,1.21,0.82,1.06c0.8-0.19,1.57-0.42,2.33-0.72
				c-0.27-0.35-0.55-0.71-0.82-1.06c-0.53,0.86-1.7,1.18-2.33,2.01c-0.33,0.43,0.11,1.13,0.63,1.09c0.9-0.07,1.76-0.24,2.61-0.55
				c-0.27-0.35-0.55-0.71-0.82-1.06c-0.44,0.64-1.4,1.09-2.04,1.5c-0.65,0.41-0.32,1.27,0.37,1.35c0.74,0.09,1.4,0.02,2.12-0.19
				c0.89-0.27,0.51-1.67-0.39-1.4c-0.59,0.18-1.12,0.22-1.73,0.14c0.12,0.45,0.24,0.9,0.37,1.35c0.91-0.57,1.94-1.11,2.56-2.02
				c0.34-0.51-0.23-1.28-0.82-1.06c-0.73,0.27-1.45,0.44-2.22,0.5c0.21,0.36,0.42,0.73,0.63,1.09c0.64-0.84,1.74-1.07,2.33-2.01
				c0.31-0.5-0.22-1.3-0.82-1.06c-0.76,0.29-1.53,0.53-2.33,0.72c0.27,0.35,0.55,0.71,0.82,1.06c0.62-1.07,3.92-2.14,1.62-3.46
				c-0.24,0.42-0.49,0.83-0.73,1.25c-0.02-0.15-0.05-0.31-0.07-0.46c0.17-0.17,0.34-0.34,0.51-0.51c-0.72,0.29-1.58,0.41-2.34,0.6
				c0.3,0.3,0.59,0.59,0.89,0.89c0.13-0.45,0.36-0.77,0.81-0.95C221.71,31.77,221.33,30.37,220.47,30.72L220.47,30.72z"/>
		</g>
		<g>
			<path class="st0" d="M218.22,39.55c-0.19,0.28-0.36,0.58-0.51,0.88c-0.27,0.55,0.18,1.24,0.82,1.06
				c0.34-0.09,0.67-0.24,0.97-0.44c0.13-0.09,0.26-0.18,0.39-0.28c0.06-0.05,0.13-0.1,0.19-0.14s0.21-0.1,0.09-0.08
				c-0.19-0.02-0.37-0.05-0.56-0.07c0.01,0.01,0.03,0.02,0.04,0.03c-0.12-0.21-0.24-0.42-0.36-0.63c0-0.17-0.14,0.09-0.2,0.16
				c-0.12,0.14-0.25,0.27-0.37,0.41c-0.25,0.27-0.51,0.53-0.79,0.77c-0.4,0.35-0.2,1.11,0.32,1.21c0.74,0.15,1.44-0.26,1.89-0.83
				c0.24-0.31,0.3-0.73,0-1.03c-0.25-0.25-0.78-0.31-1.03,0c-0.09,0.12-0.19,0.24-0.31,0.33c-0.07,0.05-0.3,0.11-0.17,0.13
				c0.11,0.4,0.21,0.81,0.32,1.21c0.41-0.37,0.79-0.77,1.16-1.18c0.35-0.39,0.8-0.9,0.56-1.46c-0.26-0.62-0.94-0.53-1.38-0.19
				c-0.36,0.27-0.72,0.56-1.16,0.68c0.27,0.35,0.55,0.71,0.82,1.06c0.15-0.31,0.32-0.6,0.51-0.88
				C219.99,39.5,218.74,38.77,218.22,39.55L218.22,39.55z"/>
		</g>
	</g>
	<g>
		<path class="st0" d="M167.14,58.02c0.55,0.5,1.06,1.05,1.52,1.63c-0.08-0.1-0.16-0.2-0.23-0.3c0.51,0.66,0.95,1.36,1.32,2.1
			c0.78-0.6,1.57-1.21,2.35-1.81c-0.17-0.16-0.34-0.33-0.52-0.49c-0.28-0.27-0.67-0.44-1.06-0.44c-0.37,0-0.8,0.16-1.06,0.44
			c-0.54,0.59-0.6,1.54,0,2.11c0.17,0.16,0.34,0.33,0.52,0.49c0.54,0.52,1.37,0.57,1.96,0.12c0.61-0.47,0.72-1.25,0.39-1.93
			c-0.76-1.51-1.82-2.9-3.07-4.04c-0.29-0.27-0.65-0.44-1.06-0.44c-0.37,0-0.8,0.16-1.06,0.44s-0.46,0.66-0.44,1.06
			C166.72,57.35,166.85,57.76,167.14,58.02L167.14,58.02z"/>
	</g>
	<g>
		<path class="st0" d="M99.59,69.65c3.37,0,3.37-5.23,0-5.23C96.22,64.42,96.21,69.65,99.59,69.65L99.59,69.65z"/>
	</g>
	<path class="st0" d="M102.29,67.17c0.37-1.65-0.51-3.62-2.64-3.71c-0.02,0-0.05,0-0.08-0.01c-0.03,0-0.05-0.01-0.09-0.01
		c0,0-0.01,0-0.01,0c-0.05,0-0.09-0.01-0.14-0.01c-1.44,0.05-2.88,0.04-4.31-0.05c-1.15-0.07-2.41-0.2-3.53-0.34
		c-2.68-0.58-5.32-1.36-7.93-2.2c-0.51-0.29-1.02-0.58-1.53-0.89c0.92-2.06,1.65-4.22,2.32-6.21c0.24-0.72,0.46-1.45,0.68-2.18
		c2.64-0.2,5.28-0.33,7.93-0.37c2.11-0.04,2.37-2.92,0.77-3.6c0.61-1.63,1.23-3.27,1.67-4.93c0.35-1.32-0.09-2.76-1.5-3.2
		c-1.05-0.33-2.39-0.11-3.48-0.06c-1.01,0.05-2.01,0.14-3.01,0.24c0.25-2.23,0.4-4.46,0.44-6.7c0.04-2.41-3.7-2.41-3.74,0
		c-0.04,2.41-0.21,4.82-0.51,7.2c-2.37,0.4-4.71,0.94-7.01,1.62c-2.31,0.66-1.33,4.27,0.99,3.59c1.78-0.53,3.59-0.97,5.41-1.32
		c-0.25,1.35-0.55,2.7-0.88,4.04c-1.04,0.1-2.08,0.21-3.12,0.34c-1,0.12-1.87,0.77-1.87,1.87c0.01,0.92,0.87,2,1.87,1.87
		c0.67-0.08,1.35-0.15,2.03-0.22c-0.63,1.99-1.33,3.98-2.18,5.9c-1-0.73-1.97-1.5-2.9-2.32c-0.76-0.66-1.9-0.75-2.64,0
		c-0.68,0.69-0.76,1.98,0,2.65c1.23,1.08,2.52,2.09,3.85,3.03c-0.98,1.66-2.25,3.27-4.05,3.99c-0.94,0.38-1.59,1.25-1.31,2.3
		c0.24,0.89,1.36,1.69,2.3,1.31c2.71-1.1,4.68-3.13,6.21-5.54c5.96,3.57,12.64,5.82,19.62,6.58c0.58,0.06,1.12-0.27,1.46-0.74
		C101.96,68.61,102.25,67.9,102.29,67.17z M91.82,41.62c-0.01-0.02-0.01-0.04-0.02-0.06C91.87,41.41,91.88,41.44,91.82,41.62z
		 M86.91,43.42c0.75-0.09,1.5-0.16,2.25-0.21c0.63-0.05,1.26-0.08,1.89-0.1c0.09,0,0.18-0.01,0.27-0.01
		c-0.17,0.52-0.35,1.04-0.52,1.56c-0.33,0.97-0.68,1.93-1.03,2.89c-1.24,0.05-2.49,0.11-3.73,0.2
		C86.37,46.32,86.67,44.88,86.91,43.42z"/>
	<g>
		<g>
			<path class="st0" d="M105.22,46.33c0.21-0.64,1.39-1.17,2.08-1.27c0.51-0.07,1.02,0.02,1.53,0.02c0.43,0,0.05,0.21-0.03-0.08
				c-0.06-0.21,0.13,0.48,0.11,0.41c0.35,1.27,0.64,2.56,0.89,3.85c0.24,1.2,0.47,2.42,0.62,3.64c0.11,0.92,0.18,1.84-0.54,2.39
				c-0.61,0.47-1.62,0.76-2.45,1.05c-0.66,0.23-1.32,0.45-2,0.62c-0.29,0.07-0.58,0.14-0.87,0.19c-0.13,0.03-0.26,0.05-0.39,0.05
				c-0.41-0.01-0.4,0.04,0.05,0.14c0.22,0.22,0.45,0.45,0.67,0.67c0.06,0.41,0.08,0.48,0.06,0.2c-0.01-0.1-0.01-0.2-0.02-0.31
				c-0.01-0.26-0.02-0.51-0.03-0.77c-0.02-0.51-0.03-1.02-0.04-1.53c-0.02-0.97-0.01-1.94,0.01-2.92c0.04-2,0.17-3.99,0.36-5.97
				c0.1-1.01-0.93-1.87-1.87-1.87c-1.09,0-1.77,0.86-1.87,1.87l0,0c-0.23,2.34-0.36,4.69-0.38,7.05c-0.01,1.02,0.01,2.05,0.04,3.07
				c0.04,1.3-0.09,2.95,1.18,3.73c0.97,0.6,2.16,0.37,3.22,0.18c1.18-0.21,2.31-0.6,3.43-1.01c1.81-0.65,3.77-1.42,4.67-3.26
				c1.02-2.08,0.41-4.54,0.03-6.71c-0.19-1.1-0.42-2.19-0.67-3.28c-0.25-1.08-0.43-2.29-0.96-3.28c-1.08-2.03-4.03-2.25-6.03-1.69
				c-1.99,0.56-3.35,2.38-3.74,4.36c-0.25,1.24-0.2,2.5-0.07,3.75"/>
		</g>
		<path class="st0" d="M134.89,30.08c-0.29-1.05-1.3-1.48-2.3-1.31c-1.67,0.28-3.35,0.6-5.02,0.92c0.01-0.29,0.01-0.58,0.02-0.87
			c0.02-0.98-0.87-1.91-1.87-1.87c-1.03,0.05-1.85,0.82-1.87,1.87c-0.01,0.54-0.02,1.09-0.03,1.63c-2.17,0.46-4.34,0.95-6.5,1.47
			c-2.34,0.57-1.35,4.18,0.99,3.61c1.81-0.44,3.62-0.85,5.44-1.24c-0.02,0.97-0.03,1.94-0.05,2.9c-0.02,0.98,0.87,1.91,1.87,1.87
			c1.03-0.05,1.85-0.82,1.87-1.87c0.02-1.23,0.04-2.46,0.07-3.68c2.02-0.4,4.04-0.78,6.07-1.13
			C134.58,32.21,135.13,30.98,134.89,30.08z"/>
		<g>
			<path class="st0" d="M122.84,44.66c2.29-0.68,4.58-1.37,6.87-2.05c0.94-0.28,1.62-1.32,1.31-2.3c-0.31-0.95-1.3-1.61-2.3-1.31
				c-2.29,0.68-4.58,1.37-6.87,2.05c-0.94,0.28-1.62,1.32-1.31,2.3C120.85,44.3,121.84,44.96,122.84,44.66L122.84,44.66z"/>
		</g>
		<path class="st0" d="M138.09,45.89c-1.69,0.05-3.38,0.16-5.06,0.31c-0.4-2.09-3.81-2.01-3.7,0.29c0,0.03,0,0.07,0,0.1
			c-4.53,0.58-9.01,1.49-13.4,2.73c-2.32,0.66-1.34,4.27,0.99,3.61c4.13-1.17,8.32-2.02,12.56-2.58c0.11,3.58,0.15,7.17,0.08,10.76
			c-0.01,0.58,0.01,1.18-0.04,1.76c0,0.01,0,0.04,0,0.09c-0.25,0-0.63,0.06-0.85,0.05c-0.59-0.01-1.18-0.03-1.78-0.04
			c-2.43-0.06-4.85-0.12-7.28-0.18c-2.41-0.06-2.41,3.68,0,3.74c2.72,0.07,5.44,0.13,8.17,0.2c1.23,0.03,2.54,0.14,3.67-0.46
			c1.21-0.63,1.7-1.84,1.8-3.14c0.2-2.7,0.1-5.45,0.07-8.16c-0.02-1.68-0.06-3.36-0.12-5.03c1.62-0.14,3.25-0.25,4.89-0.31
			C140.49,49.55,140.5,45.81,138.09,45.89z M129.47,63.28c-0.06-0.04-0.02-0.08,0.04-0.11C129.51,63.24,129.5,63.3,129.47,63.28z"/>
		<g>
			<path class="st0" d="M122.13,59.12c0.01,0,0.01,0,0.02,0.01c-0.49-0.29-0.99-0.58-1.48-0.87c0.01,0.01,0.03,0.02,0.03,0.03
				c-0.18-0.23-0.35-0.45-0.53-0.68c0.03,0.04,0.05,0.09,0.07,0.14c-0.11-0.27-0.23-0.54-0.34-0.8c0.12,0.31,0.2,0.63,0.29,0.95
				c0.04,0.14,0.08,0.27,0.12,0.4c0.26,0.78,0.43,1.05,0.95,1.66c0.53,0.62,1.58,0.99,2.38,0.99c0.83,0,1.81-0.37,2.38-0.99
				c0.59-0.64,1.03-1.48,0.99-2.38c-0.04-0.93-0.38-1.67-0.99-2.38l-0.01-0.01c0.18,0.23,0.35,0.45,0.53,0.68
				c-0.02-0.03-0.03-0.05-0.04-0.08c0.11,0.27,0.23,0.54,0.34,0.8c-0.14-0.34-0.21-0.71-0.32-1.07c-0.12-0.41-0.28-0.84-0.48-1.21
				c-0.15-0.27-0.37-0.56-0.58-0.78c-0.43-0.44-0.97-0.69-1.54-0.91c-0.77-0.29-1.91-0.06-2.59,0.34c-0.7,0.41-1.36,1.21-1.55,2.01
				c-0.2,0.86-0.15,1.83,0.34,2.59c0.18,0.23,0.35,0.45,0.53,0.68C121.07,58.67,121.56,58.96,122.13,59.12L122.13,59.12z"/>
		</g>
		<g>
			<path class="st0" d="M105.7,47.7c-0.11,0.33-0.16,0.7-0.14,1.05c0.01,0.1,0.04,0.19,0.11,0.26c0.06,0.06,0.17,0.11,0.26,0.11
				c0.09,0,0.19-0.04,0.26-0.11c0.06-0.07,0.11-0.16,0.11-0.26c-0.01-0.17,0-0.33,0.02-0.5c0,0.03-0.01,0.07-0.01,0.1
				c0.02-0.15,0.06-0.3,0.11-0.45c0.06-0.18-0.07-0.41-0.26-0.45C105.95,47.4,105.76,47.5,105.7,47.7L105.7,47.7z"/>
		</g>
		<g>
			<path class="st0" d="M107.28,47.43c-0.05,0.25-0.07,0.52-0.05,0.78c0,0.05,0.01,0.1,0.03,0.14c0.01,0.05,0.04,0.08,0.08,0.12
				c0.06,0.06,0.17,0.11,0.26,0.11c0.09,0,0.19-0.04,0.26-0.11c0.06-0.07,0.12-0.16,0.11-0.26c-0.02-0.17-0.02-0.35,0.01-0.52
				c0,0.03-0.01,0.07-0.01,0.1c0.01-0.05,0.02-0.1,0.03-0.16c0.02-0.1,0.01-0.2-0.04-0.28c-0.04-0.08-0.13-0.15-0.22-0.17
				c-0.09-0.02-0.2-0.02-0.28,0.04C107.37,47.26,107.29,47.33,107.28,47.43L107.28,47.43z"/>
		</g>
		<g>
			<path class="st0" d="M108.45,47.17c-0.02,0.51-0.02,1.02,0.02,1.53c0.01,0.19,0.16,0.38,0.37,0.37c0.19-0.01,0.38-0.16,0.37-0.37
				c-0.04-0.51-0.05-1.02-0.02-1.53c0.01-0.19-0.17-0.38-0.37-0.37C108.61,46.81,108.46,46.96,108.45,47.17L108.45,47.17z"/>
		</g>
		<g>
			<path class="st0" d="M105.66,50.09c-0.05,0.22-0.08,0.46-0.05,0.68c0,0.05,0.01,0.1,0.03,0.14c0.01,0.05,0.04,0.08,0.08,0.12
				c0.06,0.06,0.17,0.11,0.26,0.11c0.09,0,0.19-0.04,0.26-0.11c0.06-0.07,0.12-0.16,0.11-0.26c-0.01-0.14-0.01-0.28,0.01-0.41
				c0,0.03-0.01,0.07-0.01,0.1c0.01-0.06,0.02-0.12,0.03-0.18c0.02-0.09,0.01-0.2-0.04-0.28c-0.04-0.08-0.13-0.15-0.22-0.17
				c-0.09-0.02-0.2-0.02-0.28,0.04C105.75,49.92,105.68,50,105.66,50.09L105.66,50.09z"/>
		</g>
		<g>
			<path class="st0" d="M106.95,50.14c0,0.38,0,0.75,0,1.13c0,0.19,0.17,0.38,0.37,0.37c0.2-0.01,0.37-0.16,0.37-0.37
				c0-0.38,0-0.75,0-1.13c0-0.19-0.17-0.38-0.37-0.37C107.12,49.79,106.95,49.94,106.95,50.14L106.95,50.14z"/>
		</g>
		<g>
			<path class="st0" d="M108.49,50.05c0,0.32,0,0.63,0,0.95c0,0.19,0.17,0.38,0.37,0.37c0.2-0.01,0.37-0.16,0.37-0.37
				c0-0.32,0-0.63,0-0.95c0-0.19-0.17-0.38-0.37-0.37C108.66,49.7,108.49,49.85,108.49,50.05L108.49,50.05z"/>
		</g>
		<g>
			<path class="st0" d="M105.88,52.44c-0.07,0.29-0.1,0.6-0.11,0.9c0,0.15-0.01,0.32,0.03,0.46c0.03,0.12,0.12,0.23,0.22,0.29
				c0.15,0.09,0.37,0.07,0.49-0.07c0.13-0.14,0.15-0.38,0-0.52c-0.14-0.13-0.38-0.15-0.52,0c0.02-0.01,0.04-0.03,0.06-0.04
				c0.06-0.02,0.12-0.03,0.19-0.05h-0.01c0.03,0,0.07,0.01,0.1,0.01h-0.01c0.03,0.01,0.06,0.02,0.09,0.04
				c-0.03-0.02-0.02,0,0.04,0.03c0.04,0.06,0.05,0.07,0.03,0.04c0.01,0.03,0.02,0.06,0.04,0.09c-0.01-0.01-0.01-0.03-0.01-0.04
				c0,0.03,0.01,0.07,0.01,0.1c-0.02-0.26-0.01-0.52,0.02-0.78c0,0.03-0.01,0.07-0.01,0.1c0.02-0.11,0.04-0.23,0.06-0.34
				c0.04-0.19-0.06-0.41-0.26-0.45C106.15,52.14,105.93,52.24,105.88,52.44L105.88,52.44z"/>
		</g>
		<g>
			<path class="st0" d="M107.17,52.62c0.02,0.5,0.05,0.99,0.07,1.49c0.01,0.19,0.16,0.38,0.37,0.37c0.19-0.01,0.38-0.16,0.37-0.37
				c-0.02-0.5-0.05-0.99-0.07-1.49c-0.01-0.19-0.16-0.38-0.37-0.37C107.35,52.27,107.16,52.42,107.17,52.62L107.17,52.62z"/>
		</g>
		<g>
			<path class="st0" d="M108.66,52.53c0.02,0.42,0.04,0.84,0.06,1.26c0.01,0.19,0.16,0.38,0.37,0.37c0.19-0.01,0.38-0.16,0.37-0.37
				c-0.02-0.42-0.04-0.84-0.06-1.26c-0.01-0.19-0.16-0.38-0.37-0.37C108.83,52.18,108.65,52.33,108.66,52.53L108.66,52.53z"/>
		</g>
		<g>
			<path class="st0" d="M106.37,54.96c-0.05,0.26-0.07,0.52-0.05,0.78c0,0.05,0.01,0.1,0.03,0.14c0.01,0.05,0.04,0.08,0.08,0.12
				c0.06,0.06,0.17,0.11,0.26,0.11c0.09,0,0.19-0.04,0.26-0.11c0.06-0.07,0.12-0.16,0.11-0.26c-0.02-0.18-0.02-0.36,0.01-0.54
				c0,0.03-0.01,0.07-0.01,0.1c0.01-0.05,0.01-0.09,0.02-0.14c0.02-0.1,0.01-0.19-0.04-0.28c-0.04-0.08-0.13-0.15-0.22-0.17
				c-0.09-0.02-0.2-0.02-0.28,0.04C106.46,54.79,106.39,54.87,106.37,54.96L106.37,54.96z"/>
		</g>
	</g>
</g>
</svg>
