<?xml version="1.0" encoding="utf-8"?>
<!-- Generator: Adobe Illustrator 16.0.0, SVG Export Plug-In . SVG Version: 6.00 Build 0)  -->
<!DOCTYPE svg PUBLIC "-//W3C//DTD SVG 1.1//EN" "http://www.w3.org/Graphics/SVG/1.1/DTD/svg11.dtd">
<svg version="1.1" xmlns="http://www.w3.org/2000/svg" xmlns:xlink="http://www.w3.org/1999/xlink" x="0px" y="0px" width="30px"
	 height="30px" viewBox="0 0 30 30" enable-background="new 0 0 30 30" xml:space="preserve">
<g id="圖層_1">
	<g>
		<polygon fill="#FFFFFF" points="9,29 9,21 21,21 21,9 29,9 29,29 		"/>
		<path fill="#666666" d="M28,10v18H10v-6h10.5H22v-2.5V10H28 M30,8H20v12H8v10h22V8L30,8z"/>
	</g>
	<g>
		<path fill="#666666" d="M20,2v18H2V2H20 M22,0H0v22h22V0L22,0z"/>
	</g>
</g>
<g id="hover" display="none">
	<g display="inline">
		<polygon fill="#666666" points="9,29 9,21 21,21 21,9 29,9 29,29 		"/>
		<path fill="#666666" d="M28,10v18H10v-6h10.5H22v-2.5V10H28 M30,8H20v12H8v10h22V8L30,8z"/>
	</g>
	<g display="inline">
		<path fill="#666666" d="M20,2v18H2V2H20 M22,0H0v22h22V0L22,0z"/>
	</g>
</g>
</svg>
