<?xml version="1.0" encoding="utf-8"?>
<!-- Generator: Adobe Illustrator 16.0.0, SVG Export Plug-In . SVG Version: 6.00 Build 0)  -->
<!DOCTYPE svg PUBLIC "-//W3C//DTD SVG 1.1//EN" "http://www.w3.org/Graphics/SVG/1.1/DTD/svg11.dtd">
<svg version="1.1" id="圖層_3" xmlns="http://www.w3.org/2000/svg" xmlns:xlink="http://www.w3.org/1999/xlink" x="0px" y="0px"
	 width="1000px" height="500px" viewBox="0 0 1000 500" enable-background="new 0 0 1000 500" xml:space="preserve">
<g>
	<g>
		<path d="M0,493.75c66.601-0.006,133.2-0.571,199.8-0.853c66.436-0.28,132.896-1.328,199.33-1.132
			c53.58,0.158,107.147,0.984,160.732,0.984c28.414,0,56.741,0.638,85.14,1.585c31.434,1.05,62.894,0.709,94.338,0.415
			c43.214-0.404,86.292,0.513,129.489,1.346c43.74,0.843,87.502,0.439,131.171-2.346c0.96-0.062,0.966-1.562,0-1.5
			c-32.177,2.052-64.409,2.825-96.648,2.741c-32.068-0.084-64.098-1.518-96.157-1.912c-31.504-0.387-63.013,0.188-94.517,0.394
			c-31.652,0.205-63.217-0.529-94.847-1.604c-54.531-1.851-109.17-0.172-163.725-0.967c-60.813-0.887-121.566,0.144-182.377,0.336
			C181.153,491.524,90.576,492.242,0,492.25C-0.967,492.25-0.967,493.75,0,493.75L0,493.75z"/>
	</g>
</g>
<g>
	<g>
		<path d="M991.25,0c0.03,27.916,1.784,55.778,2.085,83.686c0.292,27.122-2.132,54.132-2.738,81.231
			c-1.24,55.491,1.147,110.981,1.153,166.473c0.002,26.519,0.312,53.032,0.576,79.548c0.143,14.383,1.333,28.745,1.065,43.127
			c-0.286,15.328-1.549,30.625-0.141,45.936c0.088,0.955,1.589,0.964,1.5,0c-1.466-15.934-0.121-31.895,0.176-47.848
			c0.291-15.619-1.046-31.274-1.147-46.904c-0.186-28.604-0.495-57.199-0.538-85.805c-0.082-55.193-2.561-110.361-0.852-165.555
			c0.776-25.041,2.766-49.939,2.383-75.019C994.37,52.569,992.779,26.312,992.75,0C992.749-0.967,991.249-0.967,991.25,0L991.25,0z"
			/>
	</g>
</g>
<g>
</g>
<g>
</g>
<g>
</g>
<g>
</g>
<g>
</g>
<g>
</g>
<g>
</g>
<g>
</g>
<g>
</g>
<g>
</g>
<g>
</g>
<g>
</g>
<g>
</g>
<g>
</g>
<g>
</g>
</svg>
