<?xml version="1.0" encoding="utf-8"?>
<!-- Generator: Adobe Illustrator 16.0.0, SVG Export Plug-In . SVG Version: 6.00 Build 0)  -->
<!DOCTYPE svg PUBLIC "-//W3C//DTD SVG 1.1//EN" "http://www.w3.org/Graphics/SVG/1.1/DTD/svg11.dtd">
<svg version="1.1" id="圖層_2" xmlns="http://www.w3.org/2000/svg" xmlns:xlink="http://www.w3.org/1999/xlink" x="0px" y="0px"
	 width="1000px" height="500px" viewBox="0 0 1000 500" enable-background="new 0 0 1000 500" xml:space="preserve">
<g>
	<g>
		<path d="M-0.199,489.724c28.264,7.052,57.618,7.104,86.561,6.332c30.832-0.821,61.648-1.172,92.483-1.811
			c65.055-1.348,130.171-2.622,195.244-2.491c32.618,0.066,65.123,3.447,97.727,4.053c32.972,0.612,66.095-1.578,99.062-2.364
			c65.853-1.57,131.724-2.289,197.593-2.563c38.29-0.159,76.58,0.029,114.866-0.535c38.888-0.573,77.77-1.577,116.664-1.595
			c0.967,0,0.967-1.5,0-1.5c-66.006,0.029-131.998,1.91-198.009,2.03c-65.819,0.12-131.639,0.652-197.447,1.935
			c-33.056,0.644-66.108,1.493-99.153,2.566c-32.787,1.065-65.238-0.842-97.969-2.508c-32.445-1.651-64.926-0.855-97.393-0.417
			c-32.598,0.44-65.194,0.367-97.789,1.115c-35.98,0.826-71.995,0.807-107.961,2.014c-34.684,1.164-70.11,2.767-104.079-5.709
			C-0.739,488.043-1.138,489.489-0.199,489.724L-0.199,489.724z"/>
	</g>
</g>
<g>
	<g>
		<path d="M987.25,0c-0.042,31.642-2.038,63.269-1.042,94.912c0.984,31.26,9.299,61.935,7.86,93.257
			c-3.021,65.747-4.982,131.434-5.901,197.243c-0.533,38.194-0.911,76.391-0.917,114.589c0,0.968,1.5,0.967,1.5,0
			c0.011-65.021,0.554-130.111,2.244-195.112c0.857-32.985,2.269-65.953,3.761-98.915c0.729-16.105,1.578-31.917-0.2-47.988
			c-1.717-15.523-4.711-30.866-5.95-46.449C985.656,74.438,988.701,37.143,988.75,0C988.751-0.967,987.251-0.967,987.25,0L987.25,0z
			"/>
	</g>
</g>
<g>
</g>
<g>
</g>
<g>
</g>
<g>
</g>
<g>
</g>
<g>
</g>
<g>
</g>
<g>
</g>
<g>
</g>
<g>
</g>
<g>
</g>
<g>
</g>
<g>
</g>
<g>
</g>
<g>
</g>
</svg>
