<?xml version="1.0" encoding="utf-8"?>
<!-- Generator: Adobe Illustrator 16.0.0, SVG Export Plug-In . SVG Version: 6.00 Build 0)  -->
<!DOCTYPE svg PUBLIC "-//W3C//DTD SVG 1.1//EN" "http://www.w3.org/Graphics/SVG/1.1/DTD/svg11.dtd">
<svg version="1.1" id="圖層_1" xmlns="http://www.w3.org/2000/svg" xmlns:xlink="http://www.w3.org/1999/xlink" x="0px" y="0px"
	 width="1000px" height="500px" viewBox="0 0 1000 500" enable-background="new 0 0 1000 500" xml:space="preserve" fill="#c36d46">
<g>
	<g>
		<path d="M989.227,0c3.498,61.577-0.052,123.097-1.157,184.68c-0.541,30.168-0.228,60.356,1.936,90.46
			c2.318,32.258,3.232,64.355,2.974,96.703c-0.341,42.729-1.509,85.476,1.224,128.157c0.062,0.96,1.562,0.967,1.5,0
			c-4.142-64.695,0.709-129.521-2.092-194.249c-0.681-15.745-2.309-31.42-3.131-47.158c-0.788-15.073-1.093-30.169-1.145-45.262
			c-0.101-29.872,0.994-59.733,1.879-89.587c1.223-41.25,1.854-82.519-0.488-123.743C990.672-0.961,989.172-0.967,989.227,0
			L989.227,0z"/>
	</g>
</g>
<g>
	<g>
		<path d="M-0.199,492.724c12.411,2.739,24.899,4.254,37.616,4.14c10.588-0.095,21.139-1.099,31.732-1.146
			c31.79-0.139,63.27-7.063,95.086-3.27c32.185,3.837,65.376,3.103,97.727,2.556c32.718-0.553,65.411-2.1,98.108-3.327
			c108.428-4.068,217-0.028,325.438,1.878c48.509,0.853,97.098,1.78,145.612,0.977c38.763-0.642,77.522-1.65,116.294-1.471
			c17.485,0.082,35.186,0.002,52.585,1.969c0.96,0.108,0.95-1.393,0-1.5c-15.454-1.746-31.142-1.783-46.674-1.928
			c-20.821-0.193-41.646,0.038-62.464,0.35c-38.895,0.583-77.728,1.349-116.631,1.14c-102.46-0.549-204.874-4.07-307.335-4.517
			c-32.363-0.142-64.684,0.123-97.03,1.248c-32.699,1.137-65.382,2.714-98.094,3.482c-32.615,0.767-65.269,0.632-97.832-1.532
			c-16.079-1.068-31.616-2.453-47.772-1.49c-15.842,0.943-31.605,2.898-47.46,3.669c-26.225,1.273-52.683,3.027-78.508-2.675
			C-0.743,491.068-1.144,492.515-0.199,492.724L-0.199,492.724z"/>
	</g>
</g>
<g>
</g>
<g>
</g>
<g>
</g>
<g>
</g>
<g>
</g>
<g>
</g>
<g>
</g>
<g>
</g>
<g>
</g>
<g>
</g>
<g>
</g>
<g>
</g>
<g>
</g>
<g>
</g>
<g>
</g>
</svg>
