<?xml version="1.0" encoding="utf-8"?>
<!-- Generator: Adobe Illustrator 16.0.0, SVG Export Plug-In . SVG Version: 6.00 Build 0)  -->
<!DOCTYPE svg PUBLIC "-//W3C//DTD SVG 1.1//EN" "http://www.w3.org/Graphics/SVG/1.1/DTD/svg11.dtd">
<svg version="1.1" id="圖層_2" xmlns="http://www.w3.org/2000/svg" xmlns:xlink="http://www.w3.org/1999/xlink" x="0px" y="0px"
	 width="1000px" height="500px" viewBox="0 0 1000 500" enable-background="new 0 0 1000 500" xml:space="preserve" fill="#d46c36">
<g>
	<g>
		<path d="M0,13.75c124.028-0.01,248.018-1.317,372.042-0.045c50.122,0.514,100.121-0.717,150.213-2.172
			c25.332-0.736,50.696-1.079,76.035-0.527c28.012,0.611,55.977,2.214,84.006,1.884c24.307-0.287,48.579-2.128,72.897-2.383
			c24.013-0.251,48.016,0.778,72.044,0.491c27.38-0.327,54.746-0.526,82.121-1.229c28.334-0.727,56.614-0.805,84.887,1.479
			c1.919,0.155,3.836,0.329,5.753,0.502c0.964,0.087,0.955-1.414,0-1.5c-28.531-2.58-57.074-2.784-85.693-2.104
			c-27.484,0.653-54.953,0.959-82.441,1.295c-24.157,0.295-48.264-0.5-72.407-0.461c-23.836,0.039-47.599,1.792-71.415,2.313
			c-28.229,0.617-56.406-0.884-84.615-1.66c-25.796-0.709-51.623-0.401-77.417,0.294c-49.686,1.34-99.274,2.787-148.989,2.327
			c-57.493-0.533-114.954-1.08-172.452-0.843c-66.201,0.273-132.4,0.803-198.601,0.838C3.98,12.25,1.99,12.25,0,12.25
			C-0.967,12.25-0.967,13.75,0,13.75L0,13.75z"/>
	</g>
</g>
<g>
	<g>
		<path d="M10.277-0.199C7.495,14.583,8.1,29.605,8.726,44.555c0.649,15.5,0.525,30.957,0.026,46.459
			c-1.045,32.432-2.198,64.769-2.155,97.229c0.043,32.797,1.669,65.538,2.03,98.322c0.35,31.799,0.025,63.589,0.711,95.386
			c0.85,39.345-0.019,78.705,0.912,118.049c0.023,0.966,1.523,0.968,1.5,0c-0.747-31.567-0.358-63.143-0.589-94.715
			c-0.233-31.883-0.882-63.745-0.917-95.632C10.173,244.168,6.42,178.815,9.359,113.32c0.83-18.494,1.665-37.037,1.328-55.553
			C10.338,38.562,8.14,19.241,11.723,0.199C11.901-0.746,10.456-1.149,10.277-0.199L10.277-0.199z"/>
	</g>
</g>
<g>
</g>
<g>
</g>
<g>
</g>
<g>
</g>
<g>
</g>
<g>
</g>
<g>
</g>
<g>
</g>
<g>
</g>
<g>
</g>
<g>
</g>
<g>
</g>
<g>
</g>
<g>
</g>
<g>
</g>
</svg>
