<?xml version="1.0" encoding="utf-8"?>
<!-- Generator: Adobe Illustrator 16.0.0, SVG Export Plug-In . SVG Version: 6.00 Build 0)  -->
<!DOCTYPE svg PUBLIC "-//W3C//DTD SVG 1.1//EN" "http://www.w3.org/Graphics/SVG/1.1/DTD/svg11.dtd">
<svg version="1.1" xmlns="http://www.w3.org/2000/svg" xmlns:xlink="http://www.w3.org/1999/xlink" x="0px" y="0px" width="1000px"
	 height="500px" viewBox="0 0 1000 500" enable-background="new 0 0 1000 500" xml:space="preserve">
<g id="圖層_1">
	<g>
		<g>
			<path d="M0,7.401c98.23,0.019,196.378,4.428,294.603,4.336c121.313-0.113,242.618,0.071,363.908-2.474
				c57.603-1.208,115.209-2.47,172.827-2.513C887.56,6.708,943.796,12.781,1000,9.075c0.96-0.063,0.966-1.563,0-1.5
				c-32.078,2.115-64.229,0.979-96.315-0.321c-32.759-1.328-65.432-2.116-98.22-1.912C739.269,5.756,673.093,7.58,606.91,8.793
				c-61.193,1.122-122.379,1.083-183.579,1.203c-55.413,0.108-110.835,0.539-166.247,0.217C171.372,9.714,85.73,5.917,0,5.901
				C-0.967,5.901-0.967,7.401,0,7.401L0,7.401z"/>
		</g>
	</g>
	<g>
		<g>
			<path d="M8.411,0c-4.245,64.717,0.338,129.462,1.777,194.188c1.378,61.956-2.65,123.93-4.251,185.855
				C4.903,420.014,4.377,460.031,5.76,500c0.033,0.965,1.534,0.968,1.5,0c-2.082-60.185-0.004-120.454,2.051-180.61
				c1.052-30.785,2.651-61.59,2.734-92.396c0.087-32.173-1.261-64.331-2.394-96.478C8.119,87.021,7.06,43.465,9.911,0
				C9.974-0.966,8.474-0.96,8.411,0L8.411,0z"/>
		</g>
	</g>
</g>
<g id="圖層_2">
	<g>
	</g>
	<g>
	</g>
	<g>
	</g>
	<g>
	</g>
	<g>
	</g>
	<g>
	</g>
	<g>
	</g>
	<g>
	</g>
	<g>
	</g>
	<g>
	</g>
	<g>
	</g>
	<g>
	</g>
	<g>
	</g>
	<g>
	</g>
	<g>
	</g>
</g>
</svg>
