<?xml version="1.0" encoding="utf-8"?>
<!-- Generator: Adobe Illustrator 16.0.0, SVG Export Plug-In . SVG Version: 6.00 Build 0)  -->
<!DOCTYPE svg PUBLIC "-//W3C//DTD SVG 1.1//EN" "http://www.w3.org/Graphics/SVG/1.1/DTD/svg11.dtd">
<svg version="1.1" id="圖層_3" xmlns="http://www.w3.org/2000/svg" xmlns:xlink="http://www.w3.org/1999/xlink" x="0px" y="0px"
	 width="1000px" height="500px" viewBox="0 0 1000 500" enable-background="new 0 0 1000 500" xml:space="preserve" fill="#c36d46">
<g>
	<g>
		<path d="M0,10.75c132.519-0.017,265.014-3.19,397.536-2.98C530.158,7.98,662.77,9.938,795.39,10.563
			c68.203,0.321,136.407,0.187,204.61,0.187c0.967,0,0.967-1.5,0-1.5c-132.517,0-265.011-0.487-397.523-1.68
			C469.859,6.376,337.286,5.952,204.669,7.535C136.448,8.35,68.227,9.241,0,9.25C-0.967,9.25-0.967,10.75,0,10.75L0,10.75z"/>
	</g>
</g>
<g>
	<g>
		<path d="M7.75,500c0-64.59-0.504-129.202,0.468-193.786c0.955-63.419,2.934-126.818,4.483-190.224
			C13.646,77.324,14.739,38.682,14.75,0c0-0.967-1.5-0.967-1.5,0c-0.034,116.888-6.486,233.698-6.978,350.591
			C6.063,400.393,6.25,450.198,6.25,500C6.25,500.968,7.75,500.968,7.75,500L7.75,500z"/>
	</g>
</g>
<g>
</g>
<g>
</g>
<g>
</g>
<g>
</g>
<g>
</g>
<g>
</g>
<g>
</g>
<g>
</g>
<g>
</g>
<g>
</g>
<g>
</g>
<g>
</g>
<g>
</g>
<g>
</g>
<g>
</g>
</svg>
