<?xml version="1.0" encoding="utf-8"?>
<!-- Generator: Adobe Illustrator 16.0.0, SVG Export Plug-In . SVG Version: 6.00 Build 0)  -->
<!DOCTYPE svg PUBLIC "-//W3C//DTD SVG 1.1//EN" "http://www.w3.org/Graphics/SVG/1.1/DTD/svg11.dtd">
<svg version="1.1" id="圖層_3" xmlns="http://www.w3.org/2000/svg" xmlns:xlink="http://www.w3.org/1999/xlink" x="0px" y="0px"
	 width="270px" height="30px" viewBox="0 0 270 30" enable-background="new 0 0 270 30" xml:space="preserve">
<g>
	<g>
		<path d="M7.849,16.103c-0.036,0.915-0.205,2.47-1.472,2.172c-1.139-0.268-2.014-1.496-2.42-2.516
			c-0.563-1.412-0.27-2.797,0.515-4.052c0.339-0.542,0.886-1.14,1.578-0.953c1.293,0.349,1.983,2.391,2.065,3.551
			c0.151,2.138-1.804,1.514-3.114,0.833c-0.703-0.366-1.333,0.351-1.026,1.026c0.727,1.602,2.595,3.107,4.288,1.843
			c0.64-0.478,0.296-1.636-0.578-1.371c-0.914,0.278-2.292,0.628-2.874-0.389c-0.461-0.807-0.19-1.97,0.071-2.792
			c0.188-0.59,0.68-1.625,1.134-1.782c0.069-0.024-0.097-0.059,0.027,0.02c0.014,0.009,0.152,0.267,0.198,0.362
			c0.32,0.668,0.353,1.535,0.405,2.257c0.25-0.25,0.5-0.5,0.75-0.75c-0.938,0.084-1.511-0.189-2.223-0.789c0,0.354,0,0.707,0,1.061
			c0.923-0.912,2.583-0.54,2.219,0.964c0.241-0.184,0.482-0.367,0.723-0.551c-1.226,0.057-1.924-0.201-1.827-1.543
			c0.064-0.896-1.201-0.947-1.473-0.199c-0.555,1.522-0.688,3.461-0.44,5.054c0.259,1.666,1.559,2.31,2.816,1.022
			c0.676-0.692-0.384-1.754-1.061-1.061c-0.093,0.096-0.221,0.265-0.353,0.317c0.269-0.108,0.281,0.263,0.147-0.161
			c-0.159-0.503-0.142-1.065-0.139-1.587c0.006-1.056,0.113-2.188,0.477-3.187c-0.491-0.066-0.982-0.133-1.473-0.199
			c-0.156,2.159,1.299,3.138,3.327,3.043c0.328-0.015,0.642-0.217,0.723-0.551c0.715-2.947-2.707-4.417-4.726-2.423
			c-0.272,0.269-0.312,0.798,0,1.061c1.002,0.844,1.941,1.348,3.283,1.228c0.383-0.034,0.782-0.316,0.75-0.75
			c-0.092-1.26-0.249-4.068-2.054-4.142c-1.324-0.054-2.102,1.483-2.521,2.511c-0.545,1.339-0.725,2.998-0.056,4.322
			c0.861,1.705,3.03,1.545,4.567,1.079c-0.192-0.457-0.385-0.914-0.578-1.371c-1.017,0.759-1.853-0.461-2.236-1.305
			c-0.342,0.342-0.684,0.684-1.026,1.026c1.178,0.613,2.737,1.292,4.045,0.651c0.965-0.473,1.313-1.521,1.333-2.53
			c0.038-1.981-1.241-4.855-3.378-5.295c-1.269-0.261-2.267,0.574-2.964,1.537c-1.135,1.567-1.409,3.547-0.77,5.363
			c0.935,2.656,5.177,5.686,6.586,1.7c0.195-0.552,0.229-1.178,0.251-1.756C9.386,15.135,7.886,15.139,7.849,16.103L7.849,16.103z"
			/>
	</g>
</g>
<g>
	<g>
		<path d="M6.945,14.675c21.364,4.04,43.99,1.44,65.598,1.182c24.172-0.289,48.36-1.35,72.537-0.731
			c11.671,0.299,23.297,1.527,34.972,1.734c10.575,0.188,21.019-1.313,31.561-1.785c9.172-0.411,18.392-0.284,27.572-0.525
			c4.111-0.108,8.222-0.258,12.334-0.362c5.212-0.132,10.414,0.896,15.625,0.996c0.968,0.019,0.966-1.481,0-1.5
			c-8.941-0.17-17.666-0.916-26.633-0.669c-9.1,0.25-18.203,0.279-27.303,0.505c-9.946,0.247-19.803,1.697-29.762,1.842
			c-11.672,0.169-23.315-1.206-34.97-1.635c-23.602-0.871-47.317,0.01-70.918,0.542c-11.282,0.254-22.56,0.344-33.842,0.652
			c-12.103,0.33-24.427,0.567-36.374-1.692C6.399,13.05,5.996,14.495,6.945,14.675L6.945,14.675z"/>
	</g>
</g>
<g>
</g>
<g>
</g>
<g>
</g>
<g>
</g>
<g>
</g>
<g>
</g>
<g>
</g>
<g>
</g>
<g>
</g>
<g>
</g>
<g>
</g>
<g>
</g>
<g>
</g>
<g>
</g>
<g>
</g>
</svg>
