<?xml version="1.0" encoding="utf-8"?>
<!-- Generator: Adobe Illustrator 16.0.0, SVG Export Plug-In . SVG Version: 6.00 Build 0)  -->
<!DOCTYPE svg PUBLIC "-//W3C//DTD SVG 1.1//EN" "http://www.w3.org/Graphics/SVG/1.1/DTD/svg11.dtd">
<svg version="1.1" id="圖層_4" xmlns="http://www.w3.org/2000/svg" xmlns:xlink="http://www.w3.org/1999/xlink" x="0px" y="0px"
	 width="270px" height="30px" viewBox="0 0 270 30" enable-background="new 0 0 270 30" xml:space="preserve">
<g>
	<g>
		<path d="M9.1,14.916c0.074-1.753-0.347-3.747-2.133-4.494c-1.383-0.579-3.003-0.131-4.154,0.748
			c-3.366,2.573-1.012,7.239,2.696,7.904c3.934,0.705,5.682-4.452,4.259-7.385C8.914,9.928,6.72,9.233,4.914,9.69
			c-1.792,0.454-2.448,2.404-2.329,4.057c0.117,1.625,0.922,3.333,2.492,3.974c2.487,1.015,3.517-2.26,3.196-4.047
			c-0.325-1.813-2.86-3.623-4.173-1.581c-1.122,1.745-0.079,3.863,1.881,4.269c0.416,0.086,0.788-0.117,0.922-0.524
			c0.49-1.482,0.303-2.159-0.916-3.139c-0.456-0.367-1.046-0.231-1.253,0.331c-0.808,2.19,0.226,4.326,2.452,5.019
			c0.926,0.288,1.319-1.16,0.398-1.447c-1.499-0.467-1.92-1.772-1.404-3.173c-0.418,0.11-0.835,0.221-1.253,0.331
			c0.785,0.632,0.847,0.718,0.53,1.68c0.308-0.175,0.615-0.35,0.922-0.524c-0.917-0.19-1.421-0.792-1.164-1.733
			c0.078-0.285,0.305-0.525,0.612-0.468c0.756,0.14,0.997,1.144,1.057,1.773c0.095,0.994-0.588,2.325-1.682,1.627
			c-0.607-0.387-0.885-1.268-1.043-1.921c-0.413-1.703,0.331-3.233,2.207-3.14c1.923,0.095,2.661,2.085,2.39,3.728
			c-0.239,1.454-1.228,2.899-2.829,2.842c-1.646-0.059-3.621-2.01-3.274-3.714c0.254-1.25,1.604-2.149,2.816-2.245
			c1.855-0.147,2.191,1.809,2.13,3.25C7.559,15.883,9.059,15.879,9.1,14.916L9.1,14.916z"/>
	</g>
</g>
<g>
	<g>
		<path d="M7.868,15.184c22.849,2.148,45.764,1.035,68.662,0.599c22.546-0.429,45.002,0.434,67.528,0.954
			c10.883,0.251,21.748,1.023,32.632,1.276c11.237,0.262,22.42-0.65,33.641-1.056c5.585-0.202,11.146-0.162,16.707,0.407
			c4.962,0.507,9.901,1.106,14.875,0.354c5.016-0.759,9.529-0.445,14.519-0.506c4.156-0.051,8.288-0.616,12.437-0.102
			c0.958,0.119,0.947-1.382,0-1.5c-3.679-0.456-7.385-0.123-11.073,0.053c-3.899,0.186-7.737-0.66-11.62-0.101
			c-11.421,1.645-22.499-0.394-33.977-0.161c-11.204,0.228-22.354,1.266-33.57,1.144c-11.531-0.125-23.044-0.984-34.57-1.311
			c-21.865-0.619-43.677-1.305-65.561-0.987c-23.561,0.343-47.115,1.645-70.628-0.566C6.904,13.593,6.913,15.094,7.868,15.184
			L7.868,15.184z"/>
	</g>
</g>
<g>
</g>
<g>
</g>
<g>
</g>
<g>
</g>
<g>
</g>
<g>
</g>
<g>
</g>
<g>
</g>
<g>
</g>
<g>
</g>
<g>
</g>
<g>
</g>
<g>
</g>
<g>
</g>
<g>
</g>
</svg>
