<?xml version="1.0" encoding="utf-8"?>
<!-- Generator: Adobe Illustrator 16.0.0, SVG Export Plug-In . SVG Version: 6.00 Build 0)  -->
<!DOCTYPE svg PUBLIC "-//W3C//DTD SVG 1.1//EN" "http://www.w3.org/Graphics/SVG/1.1/DTD/svg11.dtd">
<svg version="1.1" xmlns="http://www.w3.org/2000/svg" xmlns:xlink="http://www.w3.org/1999/xlink" x="0px" y="0px" width="270px"
	 height="30px" viewBox="0 0 270 30" enable-background="new 0 0 270 30" xml:space="preserve" fill="#c36d46">
<g id="圖層_1">
</g>
<g id="圖層_2">
	<g>
		<g>
			<path d="M6.456,15.789c-0.98-0.627-0.965-2.408,0.414-2.393c-0.097-0.001-0.17-0.197,0,0.078
				c0.087,0.142,0.098,0.449,0.093,0.704c-0.008,0.458-0.235,0.937-0.575,1.13c0.684,0.18,1.368,0.359,2.052,0.539
				c-0.438-0.638-0.631-1-0.331-1.736c-0.482,0.367-0.964,0.734-1.446,1.101c0.529,0.033,0.811,1.303,0.014,1.119
				c-1.129-0.261-1.856-2.616-1.888-3.583c-0.063-1.93-3.063-1.936-3,0c0.095,2.894,2.484,7.567,6.023,6.42
				c3.802-1.233,2.543-6.727-1.15-6.956c-0.718-0.044-1.203,0.503-1.446,1.101c-0.578,1.417-0.206,2.824,0.633,4.047
				c0.467,0.681,1.302,0.964,2.052,0.538c2.826-1.602,2.888-7.042-0.834-7.479c-4.665-0.548-5.501,5.799-2.125,7.96
				C6.576,19.426,8.079,16.828,6.456,15.789L6.456,15.789z"/>
		</g>
	</g>
	<g>
		<g>
			<path d="M6.59,15.666c11.027-0.271,22.057-0.241,33.086-0.241c10.507,0,20.568,1.012,31.009,1.839
				c21.969,1.741,44.326-0.159,66.296-1.021c11.014-0.433,22.055-0.792,33.075-0.42c10.876,0.367,21.709,1.389,32.601,1.273
				c10.876-0.115,21.675-0.67,32.565-0.422c11.232,0.256,22.18,0.486,33.367-0.525c0.955-0.086,0.964-1.587,0-1.5
				c-21.231,1.92-42.681,0.08-64.009,0.901c-10.867,0.419-21.757-0.644-32.604-1.149c-11.005-0.512-22.043-0.13-33.046,0.268
				c-22.168,0.804-44.319,2.175-66.506,1.185c-4.688-0.209-9.322-0.938-13.978-1.481c-5.586-0.653-11.23-0.446-16.843-0.446
				c-11.672,0-23.345-0.045-35.014,0.241C5.625,14.189,5.623,15.689,6.59,15.666L6.59,15.666z"/>
		</g>
	</g>
	<g>
	</g>
	<g>
	</g>
	<g>
	</g>
	<g>
	</g>
	<g>
	</g>
	<g>
	</g>
	<g>
	</g>
	<g>
	</g>
	<g>
	</g>
	<g>
	</g>
	<g>
	</g>
	<g>
	</g>
	<g>
	</g>
	<g>
	</g>
	<g>
	</g>
</g>
</svg>
