<?xml version="1.0" encoding="utf-8"?>
<!-- Generator: Adobe Illustrator 27.7.0, SVG Export Plug-In . SVG Version: 6.00 Build 0)  -->
<svg version="1.1" xmlns="http://www.w3.org/2000/svg" xmlns:xlink="http://www.w3.org/1999/xlink" x="0px" y="0px"
	 viewBox="0 0 330 100" style="enable-background:new 0 0 330 100;" xml:space="preserve" fill="#d46c36">
<style type="text/css">
	.st0{fill:#779F16;}
	.st1{fill:none;stroke:#000000;stroke-width:0.75;stroke-linecap:round;stroke-miterlimit:10;}
	.st2{fill:none;stroke:#000000;stroke-width:0.9595;stroke-miterlimit:10;}
	.st3{fill:none;stroke:#779F16;stroke-linecap:round;stroke-miterlimit:10;}
	.st4{display:none;}
	.st5{display:inline;}
	.st6{fill:#7D3618;}
	.st7{fill:#F8F6EB;}
</style>
<g id="圖層_2">
</g>
<g id="圖層_3">
</g>
<g id="圖層_1">
</g>
<g id="圖層_4">
</g>
<g id="圖層_5" class="st4">
</g>
<g id="圖層_7">
</g>
<g id="圖層_8">
	<g>
		<g>
			<g>
				<path d="M95.38,36.39c-0.61-0.77-1.43-1.3-2.4-1.47c-0.68-0.12-1.15,0.01-1.68-0.59c-0.32-0.36-0.47-0.85-0.81-1.2
					c-0.48-0.5-1.17-0.86-1.87-0.65c-0.85,0.26-0.88,1.04-1.38,1.63c-0.69,0.83-2.83,1.06-3.87,1.37c-1.02,0.31-1.78,0.72-2.47,1.56
					c-0.63,0.78-1.59,1.79-1.93,2.73c-0.13,0.35-0.09,0.61,0.01,0.96c0.04,0.16,0.16,0.25,0.22,0.39c0.32,0.66,0.12,1.19-0.54,1.59
					c-0.89,0.55-1.99,0.61-2.86,1.23c-0.79,0.56-1.1,1.28-1.2,2.22c-0.08,0.7-0.14,1.2-0.53,1.8c-0.26,0.39-0.58,0.74-0.79,1.17
					c-0.55,1.09-0.64,2.11-1.49,3.07c-0.73,0.82-1.49,1.55-2,2.55c-0.55,1.08-0.64,2.17-0.84,3.34c-0.38,2.25-2.1,4.18-1.98,6.53
					c0.11,2.17,1.99,3.59,2.41,5.65c0.38,1.89-0.01,4.18,1.7,5.54c0.78,0.62,1.73,0.65,2.65,0.92c1.36,0.4,2.44,1.34,3.41,2.33
					c0.8,0.82,1.93,1.78,2.07,2.98c0.13,1.06-0.26,2.04,0.56,2.91c1.34,1.42,2.67,0.02,2.84-1.47c0.12-1.11-0.18-2.2-0.35-3.29
					c-0.23-1.48,0.12-2.49,0.89-3.73c0.58-0.93,0.75-1.65,1.05-2.67c0.36-1.23,1.77-1.25,2.73-1.84c1.57-0.97,2.58-2.64,2.76-4.47
					c0.16-1.64,0.03-3.18,0.38-4.82c0.32-1.5,0.2-2.92,0.28-4.44c0.17-3.08,1.28-6.28,2.25-9.19c0.45-1.36,1.17-2.65,1.6-4.01
					c0.34-1.08-0.07-2.05-0.39-3.08c-0.24-0.77-0.33-1.35,0.3-1.98c0.39-0.39,0.88-0.65,1.23-1.08c0.55-0.7,0.74-1.59,0.23-2.36
					c-0.46-0.7-1.59-0.04-1.12,0.66c0.56,0.85-1.29,1.79-1.67,2.31c-0.46,0.64-0.56,1.38-0.4,2.14c0.17,0.83,0.7,1.66,0.67,2.52
					c-0.04,1.09-0.95,2.46-1.33,3.49c-0.8,2.19-1.42,4.45-1.99,6.71c-0.27,1.05-0.49,2.1-0.61,3.18c-0.14,1.33,0.05,2.66-0.14,3.98
					c-0.16,1.09-0.5,2.13-0.56,3.24c-0.07,1.23,0.16,2.49-0.24,3.68c-0.33,0.99-1.03,1.85-1.91,2.4c-0.78,0.49-1.77,0.6-2.5,1.18
					c-0.56,0.44-0.73,0.95-0.87,1.64c-0.22,1.07-0.72,1.84-1.27,2.77c-1.04,1.77-0.74,3.37-0.42,5.3c0.07,0.45,0.28,1.23,0.08,1.67
					c-0.01,0.1-0.03,0.19-0.04,0.29c-0.6,0.04-0.86-0.14-0.79-0.54c-0.08-0.26,0.04-0.6,0.03-0.88c-0.01-0.9-0.3-1.61-0.85-2.32
					c-1.12-1.46-2.55-2.98-4.18-3.88c-0.83-0.45-1.67-0.62-2.57-0.85c-1.33-0.34-1.8-1.31-1.99-2.59c-0.14-0.96-0.1-1.95-0.33-2.9
					c-0.22-0.9-0.69-1.69-1.17-2.47c-0.58-0.94-1.19-1.87-1.15-3.02c0.04-1.19,0.68-2.3,1.15-3.37c0.37-0.85,0.68-1.7,0.82-2.63
					c0.18-1.21,0.32-2.32,0.99-3.38c0.54-0.85,1.33-1.49,1.94-2.28c0.56-0.71,0.75-1.42,1.04-2.25c0.31-0.9,1-1.51,1.38-2.37
					c0.46-1.04,0.04-2.38,1.15-3.06c1.43-0.88,4.01-0.97,3.99-3.25c0-0.44-0.23-0.67-0.33-1.06c-0.19-0.7,0.34-1.15,0.74-1.7
					c0.38-0.51,0.73-1.12,1.22-1.53c0.56-0.48,1.34-0.61,2.03-0.81c1.06-0.31,2.35-0.48,3.31-1.04c0.32-0.19,0.55-0.46,0.73-0.77
					c0.29-0.5,0.35-1.24,1.12-0.68c0.71,0.51,0.75,1.49,1.65,1.88c0.39,0.17,0.8,0.18,1.22,0.24c0.87,0.11,1.47,0.46,2.02,1.15
					C94.98,37.97,95.89,37.04,95.38,36.39L95.38,36.39z"/>
			</g>
		</g>
		<g>
			<g>
				<path d="M83.56,42.9c2.25-2.19,4.55-3.24,7.72-3.41c-0.56-0.98-1.12-1.96-1.69-2.94c-1.49,2.02-5.81,3.01-7.91,4.35
					c-2.21,1.41-4.06,3.15-5.76,5.15c-1.22,1.44-0.09,3.78,1.9,3.26c4.92-1.27,9.53-3.24,14.15-5.31c-0.79-1.02-1.58-2.04-2.37-3.07
					c-4.75,4.8-12.29,4.52-16.4,10.28c-1.05,1.47,0.68,3.24,2.21,2.87c5.82-1.4,11.57-3.03,17.26-4.88
					c-0.35-1.26-0.69-2.51-1.04-3.77c-7.02,2.6-13.32,6.43-19.6,10.45c-1.77,1.13-0.66,4.39,1.5,3.57
					c5.85-2.21,11.86-3.85,17.91-5.42c-0.35-1.26-0.69-2.51-1.04-3.77c-4.04,1.35-7.66,3.59-11.69,4.99
					c-3.01,1.05-5.67,1.93-7.71,4.52c-1.09,1.39-0.15,3.93,1.9,3.26c4.92-1.59,9.87-2.69,15.01-3.24c-0.33-1.21-0.66-2.43-0.99-3.64
					c-5.89,2.61-13.64,4.61-18.3,9.18c-1.41,1.38,0.04,3.75,1.9,3.26c6.02-1.57,12.04-3.14,18.05-4.71
					c-0.35-1.26-0.69-2.51-1.04-3.77c-6.1,2.47-12,5.3-17.72,8.57c-1.61,0.92-0.99,3.78,0.99,3.64c5.91-0.42,11.39-2.11,16.96-4.05
					c-0.5-1.19-1-2.38-1.5-3.57c-5.1,2.44-10.68,4.53-15.24,7.9c-1.82,1.34-0.72,3.9,1.5,3.57c5.29-0.8,10.22-2.38,15.02-4.72
					c1.96-0.95,0.56-4.41-1.5-3.57c-3.93,1.6-7.43,3.29-9.73,6.99c-0.96,1.54,0.62,3.19,2.21,2.87c1.36-0.27,2.72-0.55,4.08-0.82
					c-0.63-1.09-1.27-2.18-1.9-3.26c-1.27,1.34-1.99,2.56-2.61,4.3c-0.84,2.37,2.93,3.4,3.77,1.04c0.53-0.86,1.07-1.72,1.6-2.58
					c1.39-1.47-0.01-3.64-1.9-3.26c-1.36,0.27-2.72,0.55-4.08,0.82c0.74,0.96,1.47,1.91,2.21,2.87c1.72-2.76,4.5-4.01,7.39-5.19
					c-0.5-1.19-1-2.38-1.5-3.57c-4.52,2.2-9.13,3.58-14.09,4.33c0.5,1.19,1,2.38,1.5,3.57c4.57-3.37,10.14-5.46,15.24-7.9
					c1.98-0.95,0.59-4.3-1.5-3.57c-5.22,1.82-10.37,3.51-15.92,3.91c0.33,1.21,0.66,2.43,0.99,3.64c5.42-3.1,10.99-5.84,16.78-8.18
					c2.27-0.92,1.46-4.42-1.04-3.77c-6.02,1.57-12.04,3.14-18.05,4.71c0.63,1.09,1.27,2.18,1.9,3.26c4.28-4.2,12.1-6.18,17.51-8.57
					c1.74-0.77,0.9-3.84-0.99-3.64c-5.49,0.59-10.8,1.68-16.05,3.38c0.63,1.09,1.27,2.18,1.9,3.26c2.17-2.76,5.51-3.21,8.63-4.4
					c3.12-1.19,5.87-3.05,9.05-4.11c2.37-0.79,1.41-4.41-1.04-3.77c-6.05,1.58-12.06,3.22-17.91,5.42c0.5,1.19,1,2.38,1.5,3.57
					c5.99-3.83,11.97-7.57,18.67-10.05c2.32-0.86,1.38-4.55-1.04-3.77c-5.69,1.85-11.44,3.48-17.26,4.88
					c0.74,0.96,1.47,1.91,2.21,2.87c3.62-5.07,11.39-5.04,15.79-9.49c1.65-1.67-0.43-3.93-2.37-3.07
					c-4.33,1.94-8.62,3.73-13.22,4.91c0.63,1.09,1.27,2.18,1.9,3.26c2.83-3.35,5.86-5.09,9.81-6.88c1.93-0.87,3.18-1.68,4.46-3.41
					c0.88-1.19-0.3-3.01-1.69-2.94c-4.14,0.21-7.5,1.65-10.48,4.55C79,41.89,81.76,44.65,83.56,42.9L83.56,42.9z"/>
			</g>
		</g>
	</g>
	<g>
		<path d="M120.02,25.67c-0.8-0.33-1.35-1.28-1.14-2.14c0.13-0.53,0.48-0.9,0.94-1.15c1.53-0.88,3.22-1.39,4.87-1.99
			c6.34-2.23,12.66-4.56,19.11-6.46c1.62-0.31,4.23-1.91,5.08,0.3c0.27,0.86-0.23,1.85-1.11,2.1c-8.41,2.43-16.78,5.5-25.01,8.41
			C122.35,25.92,121.02,26.02,120.02,25.67z"/>
		<path d="M133.04,24.31c0.32-2.9,0.53-5.83,0.96-8.71c0.43-1.88,3.27-1.69,3.34,0.27c-0.31,2.91-0.56,5.86-0.95,8.77
			c-0.11,0.91-0.91,1.61-1.84,1.52C133.64,26.07,132.95,25.23,133.04,24.31z"/>
		<path d="M129.72,28.96c-0.21-2.39,8.51-6.05,10.65-7.11c0.83-0.35,1.81-0.03,2.2,0.81c0.38,0.83,0,1.81-0.81,2.2
			c-1.78,0.85-3.52,1.77-5.26,2.68c-1.24,0.71-2.51,1.37-3.66,2.22C132.05,31.16,129.74,30.58,129.72,28.96z"/>
		<path d="M130,43.76c-0.24-0.38-0.3-0.82-0.2-1.23c-2.21-0.53-1.22-3.3-1.06-4.9c0.15-0.92,0.3-1.86,0.67-2.72
			c0.46-1.33,2.35-1.82,3.17-0.54c2-1.3,4.28-2.38,6.61-2.88c5.87,0.23,2.01,6.57-0.79,8.42c-1.93,1.6-4.01,3.01-6.11,4.38
			C131.52,44.76,130.48,44.52,130,43.76z M131.99,40.48c2.2-1.63,4.52-3.06,6.23-5.22C135.65,36.22,132.65,37.53,131.99,40.48z"/>
		<path d="M119.55,54.03c0.43-2.53,0.99-5.07,1.96-7.45c0.42-1.02,1.08-2.3,2.34-2.35c1.64-0.11,2.44,2.15,1.11,3.1
			c-1.16,2.25-1.64,4.8-2.13,7.26c-0.14,0.81-1,1.35-1.79,1.28C120.18,55.77,119.41,54.93,119.55,54.03z"/>
		<path d="M123.11,55.68c-6.09-3.02,11.81-10.65,14.2-11.53c3.61-1.03,12.01-6.03,13.13,0.13c0.32,3.76-2,7.18-3.29,10.58
			c-0.38,0.84-1.29,1.32-2.19,0.97c-0.84-0.32-1.33-1.34-0.98-2.19c1-2.94,3.05-5.83,3.01-9c-7.68,1.93-15.57,5.06-21.83,9.91
			C124.7,55.26,124.05,55.93,123.11,55.68z"/>
		<path d="M130.13,67.82c-1.47-2.46,2.09-5.23,3.24-7.25c-0.49,0.3-0.96,0.62-1.43,0.95c-0.05,0.03-0.09,0.07-0.13,0.1
			c-0.35,1.38-2.43,1.62-3.15,0.41c-0.82-1.22,0.51-2.73,1.46-3.3c2.41-1.74,5.09-3.08,7.74-4.42c0.68-0.53,1.66-0.63,2.31,0
			c0.88,0.81,0.54,2.27-0.47,2.79c-1.73,2.74-3.58,5.41-5.51,8.02c2.54-1.14,5.18-2.36,7.31-4.17c0.32-0.37,0.76-0.65,1.27-0.64
			c2.04,0.01,2.34,2.52,2.31,4.09c0.06,1.88-2.63,2.37-3.23,0.6C139.06,66.43,132.71,71.19,130.13,67.82z"/>
		<path d="M129.03,77.01c-0.5-1.04,0.24-2.28,1.34-2.5c3.29-1.85,6.66-3.61,10.26-4.77c1.96-0.63,3.08,2.28,1.2,3.13
			c-3.26,1.38-6.48,2.85-9.59,4.55C131.25,78.17,129.63,78.33,129.03,77.01z"/>
		<path d="M136.72,79.79c-0.92-0.22-1.43-1.14-1.25-2.04c0.43-2.14,0.71-4.32,0.98-6.49c0.36-1.83,0.1-6.19,3.08-5.08
			c0.8,0.43,1.02,1.38,0.71,2.18c-0.22,1.55-0.37,3.11-0.56,4.66c-0.23,1.85-0.51,3.69-0.91,5.51
			C138.56,79.44,137.59,80,136.72,79.79z"/>
		<path d="M128.94,83.15c-1.29-1.16,0.02-3.42,1.67-2.81c2.08-0.42,4.06-1.25,6.06-1.96c3.19-1.16,6.37-2.4,9.65-3.26
			c0.88-0.23,1.81,0.2,2.09,1.1c0.27,0.88-0.24,1.8-1.1,2.09c-3.98,1.34-7.91,2.81-11.88,4.17
			C133.41,82.97,130.88,84.49,128.94,83.15z"/>
		<path d="M165.24,46.15c-1.31-0.54-1.49-2.48-0.23-3.19c1.19-0.74,2.68-0.56,4.02-0.47c0.86,0.07,1.51,0.9,1.51,1.73
			c-0.1,1.92-1.9,1.76-3.33,1.75C166.6,46.22,165.9,46.44,165.24,46.15z"/>
		<path d="M164.19,55.88c-1.12-2.17,1.73-2.88,3.21-3.52c1.41-0.54,3.76-1.71,4.42,0.38c0.55,2.41-3.25,2.52-4.74,3.54
			C166.21,56.94,164.79,56.93,164.19,55.88z"/>
		<path d="M168.32,66.46c-4.04-1.17,1.65-6.66,2.86-8.4c1.35-1.58,2.71-3.16,4.08-4.73c0.3-0.34,0.65-0.58,1.11-0.64
			c1.43-0.25,2.53,1.59,1.57,2.72c-1.2,1.42-2.4,2.84-3.6,4.25c-1.47,1.76-3,3.5-4.14,5.49C169.99,65.99,169.19,66.59,168.32,66.46z
			"/>
		<path d="M192.24,24.84c-2.5-0.92-0.33-3.99-0.24-5.8c0.34-1.21,0.14-2.57,0.66-3.72c0.63-1.1,2.28-1.16,2.93-0.05
			c0.52,0.74,0.11,1.29,0.07,2.04c-0.14,2.17-0.7,4.3-1.35,6.36C194.04,24.55,193.11,25.1,192.24,24.84z"/>
		<path d="M186.19,31.88c-5.94-2.58,12.01-11.92,14.3-12.97c1.85-0.81,3.26,1.97,1.48,2.97c-4.58,2.49-9.2,5.04-13.16,8.45
			C188.01,31.03,187.52,32.3,186.19,31.88z"/>
		<path d="M187.42,36.31c-1.48-2.95,5.72-6.25,7.75-7.6c1.9-1.06,3.55,1.76,1.69,2.88c-1.18,0.67-2.32,1.4-3.45,2.14
			c-0.99,0.69-1.99,1.38-2.83,2.26C190.17,37.35,188.1,37.6,187.42,36.31z"/>
		<path d="M189.14,40.04c-0.79-0.08-1.47-0.86-1.42-1.65c0-0.74,0.51-1.38,1.2-1.58c1.27-0.84,2.52-1.71,3.81-2.52
			c1.59-0.73,4.02-3.21,5.48-1.15c0.45,0.77,0.2,1.85-0.6,2.29c-1.85,1-3.64,2.1-5.4,3.25C191.25,39.24,190.32,40.16,189.14,40.04z"
			/>
		<path d="M191.23,50.63c-0.85-0.06-1.49-0.9-1.49-1.71c0-0.51,0.24-0.99,0.61-1.32c-0.22-1.72-0.31-3.64,0.89-5.04
			c0.08-0.95,1.01-1.66,1.95-1.46c2.74-1.33,5.58,1.04,4.66,3.98C196.92,47.51,194.07,50.9,191.23,50.63z M194.24,44.62
			c0.07-0.12,0.14-0.23,0.2-0.35c0-0.01,0.01-0.02,0.01-0.03c-0.03,0.01-0.06,0.03-0.04,0.01c-0.02,0.01-0.03,0.02-0.05,0.03
			c-0.03,0.01-0.06,0.03-0.09,0.04c0.03-0.01,0.06-0.03,0.08-0.04c-0.03,0.02-0.06,0.03-0.09,0.05
			C194.27,44.43,194.26,44.52,194.24,44.62z"/>
		<path d="M179.87,48.25c-2.08-0.75-2.16-3.26-0.92-4.81c-2,0.36-3.89-1.64-3.08-3.6c0.73-1.74,1.97-3.06,2.95-4.63
			c0.67-0.93,1.25-1.97,2.16-2.69c2.25-1.64,4.61,2,1.83,3c-0.98,1.32-1.86,2.7-2.77,4.06c1.38-0.33,2.91-1.77,4.29-0.78
			c1.84,1.63-0.56,3.69-1.5,5.12c1.55-0.78,3.16-3.57,5-1.95c0.67,0.67,0.69,1.81,0,2.48C185.65,46.28,182.96,49.04,179.87,48.25z"
			/>
		<path d="M201.72,40.28c-1.99-2.1,0.47-4.68,1.55-6.59c-3.75,0.28-4.02-3.25-1.73-5.45c1.18-1.44,2.41-2.83,3.62-4.26
			c0.67-0.79,1.33-1.69,2.41-1.91c2.38-0.6,3.05,3.24,0.67,3.56c-0.63,0.77-1.28,1.52-1.91,2.29c-0.4,0.47-0.8,0.94-1.2,1.41
			c0.77-0.36,1.18-0.6,1.92-0.84c1.34-0.43,2.65,1.08,2.06,2.35c-1.07,2.2-2.44,3.79-3.66,5.83c1.87-1.16,3.57-2.56,5.31-3.91
			c1.04-0.74,2.21-2.19,3.6-1.39c0.78,0.45,1.1,1.49,0.68,2.3c-1.08,1.39-2.79,2.3-4.13,3.48
			C208.45,38.75,204.69,42.58,201.72,40.28z"/>
		<path d="M181.3,55.84c-6.49-5.5,2.31-7.56,1.43-3.38c0.17,0.17,0.32,0.36,0.51,0.51c0.43-0.28,0.78-0.7,1.06-1.12
			c0.09-0.43,0.29-0.82,0.62-1.13c0.92-0.92,2.31-0.55,3.46-0.47c1.29,0.12,2.58,0.13,3.88,0.13c0.93-0.01,1.71,0.78,1.71,1.71
			c-0.1,2.8-4.93,1.48-6.78,1.52C186.1,55.67,183.47,57.47,181.3,55.84z"/>
		<path d="M203.32,47.75c-2.71-1.99-0.55-5.89,2.44-4.19c0.83-1.62,2.95-1.43,4.51-1.42c3.54,0.06,7.1,0.08,10.64,0.12
			c0.98,0.01,1.8,0.81,1.8,1.8c0,0.98-0.82,1.8-1.8,1.8c-4.03,0.03-8.06-0.08-12.09-0.16C208.38,48.07,205.21,49.17,203.32,47.75z"
			/>
		<path d="M189.38,81.52c-1.62-0.73-3.07-1.79-4.54-2.77c-1.3-0.88-3.62-2.12-2.3-3.95c0.67-0.93,2.03-0.86,2.81-0.14
			c3.63,2.43,9.79,7,12.34,0.86c1.01-3.72,1.52-7.68,0.9-11.48c-2.06,1-3.9,2.53-6.12,3.16c-1.5,0.36-2.63-1.06-2.25-2.49
			c-1.97-1.55,0.37-3.57,1.71-4.58c1.19-0.96,2.24-2.1,3.06-3.39c-1.72,0.73-4.35-0.75-2.97-2.72c0.49-0.7,1.32-0.93,2.13-1.07
			c1.99-0.65,5.16-0.32,5.01,2.39c1.06,0.49,1.27,1.94,0.57,2.82c-0.8,0.81-1.71,1.47-2.34,2.44c6.06-2.4,5.29,7.21,4.88,10.75
			C201.99,78.9,197.29,84.79,189.38,81.52z"/>
		<path d="M236.71,52.59c-0.47-3.15-1.35-6.27-1.55-9.45c-0.02-0.77,0.49-1.5,1.19-1.8c1.67-0.77,3.54,1.38,2.83,2.97
			c0.49,2.58,0.92,5.17,1.25,7.77c0.13,1.01-0.59,1.98-1.61,2.11C237.81,54.34,236.88,53.6,236.71,52.59z"/>
		<path d="M237.76,54.61c-0.69-1.17,0.13-2.35,1.21-2.88c1.75-1.23,3.44-2.53,5.13-3.83c3.78-2.98,7.77-5.84,10.91-9.52
			c-4.46,1.34-9.09,2.8-12.67,5.89c-0.22,5.41-10.94-0.04,2.84-6.47c3.73-1.76,7.75-3.19,11.82-3.88c2.32-0.27,3.6,2.49,2.7,4.41
			c-0.52,1.14-1.32,2.14-2.12,3.09c-3.9,4.26-8.61,7.7-13.22,11.15C242.51,53.54,239.62,57.12,237.76,54.61z"/>
		<path d="M233.31,73.42c-0.79-0.61-1.01-1.87-0.34-2.65c1.68-2.01,3.49-4.5,4.91-6.56c7.21-10.4,8.33-18.2,7.95-30.45
			c0.11-2.45,3.64-2.48,3.75,0c0.79,13.78-1.41,23.34-9.77,34.55c-1.25,1.71-2.56,3.4-4.01,4.95
			C235.16,73.95,234.03,73.98,233.31,73.42z"/>
		<path d="M267.76,73.99c-12.95-0.52-19.41-5.13-29.33-12.62c-1.54-1.39-5.7-2.24-4.41-4.95c1.36-2.1,3.53-0.04,5.06,0.74
			c5.98,3.62,11.25,8.49,17.97,10.73c3.64,1.22,7.47,1.64,11.24,2.27C270.77,70.58,270.3,74.26,267.76,73.99z"/>
	</g>
	<g>
		<g>
			<path d="M39.04,59.3c-11.78-0.29-23.56-0.08-35.31,0.65c-1.92,0.12-1.93,3.12,0,3c11.76-0.73,23.54-0.94,35.31-0.65
				C40.97,62.35,40.97,59.35,39.04,59.3L39.04,59.3z"/>
		</g>
	</g>
	<g>
		<g>
			<path d="M292.09,58.53c11.38-0.36,22.78-0.11,34.14,0.76c1.93,0.15,1.92-2.85,0-3c-11.36-0.87-22.75-1.13-34.14-0.76
				C290.17,55.59,290.16,58.59,292.09,58.53L292.09,58.53z"/>
		</g>
	</g>
</g>
<g id="圖層_6" class="st4">
</g>
</svg>
