<?xml version="1.0" encoding="utf-8"?>
<!-- Generator: Adobe Illustrator 27.7.0, SVG Export Plug-In . SVG Version: 6.00 Build 0)  -->
<svg version="1.1" xmlns="http://www.w3.org/2000/svg" xmlns:xlink="http://www.w3.org/1999/xlink" x="0px" y="0px"
	 viewBox="0 0 330 100" style="enable-background:new 0 0 330 100;" xml:space="preserve">
<style type="text/css">
	.st0{fill:#779F16;}
	.st1{fill:none;stroke:#000000;stroke-width:0.75;stroke-linecap:round;stroke-miterlimit:10;}
	.st2{fill:none;stroke:#000000;stroke-width:0.9595;stroke-miterlimit:10;}
	.st3{fill:none;stroke:#779F16;stroke-linecap:round;stroke-miterlimit:10;}
	.st4{display:none;}
	.st5{display:inline;}
	.st6{fill:#7D3618;}
	.st7{fill:#F8F6EB;}
</style>
<g id="圖層_2">
</g>
<g id="圖層_3">
</g>
<g id="圖層_1">
</g>
<g id="圖層_4">
</g>
<g id="圖層_5" class="st4">
</g>
<g id="圖層_7">
</g>
<g id="圖層_8">
	<g>
		<g>
			<g>
				<path d="M123.3,35.45c-0.45,0.57-1.25,1.73-2.05,1.25c-0.3-0.18-0.42-0.49-0.78-0.64c-0.53-0.23-1.2-0.07-1.71-0.34
					c-0.55-0.3-0.82-0.99-1.15-1.49c-1.26-1.92-3.04-3.31-5.4-2.87c-0.74,0.14-1.89,0.28-2.08,1.18c-0.1,0.46,0.17,0.82,0.27,1.25
					c0.17,0.76-0.34,1.16-0.67,1.77c-0.19,0.36-0.2,1.02-0.41,1.31c-0.27,0.38-0.73,0.16-1.13,0.35c-0.89,0.43-0.98,1.46-0.93,2.33
					c0.01,0.24,0.17,0.49,0.42,0.55c0.81,0.18,2.11-0.32,2.78,0.09c0.5,0.1,0.41,0.44-0.28,1.01c-0.33,0.06-0.66,0.08-0.99,0.07
					c-0.43,0.02-0.86,0.01-1.28,0.12c-0.69,0.18-1.34,0.56-1.83,1.07c-0.15,0.15-0.36,0.58-0.54,0.71c-0.37,0.26-0.61,0-1.01,0.07
					c-0.46,0.09-0.77,0.38-0.92,0.82c-0.17,0.49,0.09,1.01-0.06,1.49c-0.14,0.47-0.67,0.8-1.08,1c-2.35,1.15-4.79,0.66-7.26,0.61
					c-0.73-0.01-0.73,1.12,0,1.13c2.74,0.06,5.62,0.57,8.13-0.93c0.71-0.42,1.28-1.06,1.36-1.91c0.02-0.23-0.05-0.89,0.26-1.05
					c0.08-0.04,0.4,0.08,0.52,0.07c0.39-0.02,0.58-0.17,0.85-0.44c0.47-0.47,0.7-1.03,1.33-1.35c0.74-0.38,1.52-0.23,2.31-0.31
					c0.79-0.08,1.62-0.45,1.93-1.23c0.3-0.72-0.01-1.46-0.65-1.87c-1.01-0.64-2.18-0.04-3.26-0.27c0.14,0.18,0.28,0.36,0.42,0.55
					c-0.03-0.63,0.29-1.03,0.86-1.31c0.09-0.04,0.27-0.01,0.38-0.05c0.3-0.11,0.49-0.33,0.64-0.6c0.2-0.38,0.18-0.85,0.34-1.25
					c0.19-0.46,0.54-0.82,0.75-1.26c0.15-0.31,0.25-0.63,0.24-0.97c-0.01-0.42-0.46-1.06-0.14-1.41c0.34-0.38,1.87-0.37,2.28-0.28
					c0.8,0.17,1.42,0.74,1.99,1.31c0.73,0.72,1.11,1.64,1.78,2.39c0.65,0.73,1.27,0.69,2.13,0.91c0.8,0.21,1.1,1.24,2.05,1.11
					c0.96-0.13,1.87-1.21,2.42-1.89C124.55,35.68,123.75,34.88,123.3,35.45L123.3,35.45z"/>
			</g>
		</g>
		<g>
			<g>
				<path d="M95.47,47.26c-1.23-0.82-2.51-1.18-3.98-1.26c-1.14-0.06-1.41-0.48-1.99-1.31c-0.29-0.42-0.61-0.81-1.08-1.03
					c-0.62-0.3-1.32-0.19-1.89-0.66c-0.75-0.62-0.33-0.94-0.52-1.71c-0.18-0.7-0.72-1.28-1.13-1.85c-0.53-0.73-1.06-1.46-1.59-2.19
					c-0.18-0.25-0.49-0.37-0.77-0.2c-0.86,0.49-1.16,1.14-1.79,1.82c-0.75,0.79-1.12-0.08-2-0.18c-1.68-0.18-2.64,1.34-3.13,2.71
					c0.23-0.13,0.46-0.26,0.7-0.4c-0.57-0.13-1.28-0.22-1.67,0.32c-0.55,0.76,0.01,1.87-0.48,2.68c-1.03,1.68-3.57-0.19-4.8,1.41
					c-0.44,0.58,0.54,1.14,0.98,0.57c0.37-0.48,1.87-0.11,2.39-0.12c0.59-0.02,1.21-0.11,1.71-0.45c0.4-0.27,0.69-0.66,0.86-1.11
					c0.16-0.4,0.15-2.35,0.71-2.22c0.31,0.07,0.59-0.1,0.7-0.4c0.17-0.47,0.37-0.99,0.72-1.36c0.59-0.63,1.37-0.32,2.03-0.05
					c0.37,0.15,0.6,0.36,1.04,0.26c0.37-0.07,0.63-0.31,0.87-0.59c0.62-0.73,0.86-1.43,1.75-1.94c-0.26-0.07-0.52-0.14-0.77-0.2
					c0.53,0.73,1.06,1.46,1.59,2.19c0.24,0.34,0.55,0.67,0.75,1.04c0.39,0.73,0.2,0.73,0.2,1.37c0.01,1.17,1.33,1.83,2.32,2.08
					c1,0.25,1.22,0.65,1.78,1.43c0.29,0.4,0.59,0.75,1.04,0.97c0.6,0.29,1.25,0.21,1.89,0.25c1.12,0.08,2.08,0.47,3.01,1.09
					C95.5,48.64,96.07,47.66,95.47,47.26L95.47,47.26z"/>
			</g>
		</g>
		<g>
			<g>
				<path d="M69.94,45.45c-0.67-0.71-1.74-0.33-2.16,0.47c-0.34,0.66-0.2,1.45-0.47,2.15c-0.19,0.49-0.44,0.87-0.18,1.41
					c0.25,0.54,0.82,0.77,1.31,1.02c0.96,0.48,1.63,1.17,1.82,2.25c0.06,0.33,0.03,0.67,0.12,1c0.12,0.46,0.45,0.84,0.41,1.36
					c-0.05,0.68-0.54,1.25-0.5,1.97c0.09,1.46,1.95,2.2,3,2.87c0.81,0.52,1.71,1,2.37,1.71c0.56,0.6,0.89,1.37,1.4,2.01
					c1.15,1.46,2.32,1.13,3.98,1.05c0.35-0.02,0.86-0.04,1.15,0.2c0.36,0.3,0.29,0.91,0.51,1.3c0.26,0.47,0.72,0.71,1.24,0.81
					c1.71,0.32,3.57-0.72,5.24-0.96c0.18-0.03,0.4-0.08,0.58-0.05c0.51,0.07,0.98,0.52,1.02,1.1c0.03,0.46-0.53,1.08-0.79,1.43
					c-0.56,0.75-0.98,1.4-1.08,2.35c-0.03,0.3,0.29,0.57,0.57,0.57c0.63-0.01,1.26-0.01,1.89-0.02c-0.19-0.19-0.38-0.38-0.57-0.57
					c-0.2,1.97,1.48,3.28,3.07,4.07c0.22,0.11,0.51,0.1,0.69-0.09c0.54-0.59,0.79-1.2,0.72-2.01c-0.14,0.18-0.28,0.36-0.42,0.55
					c1.9-0.55,3.88-1.04,5.42,0.52c0.93,0.94,1.34,1.04,2.62,0.88c0.76-0.1,0.97,0.23,1.63,0.44c0.34,0.11,0.67,0.01,0.94-0.19
					c0.56-0.43,0.57-0.92,1.36-1.18c0.89-0.29,2.05-0.28,2.97-0.4c0.24-0.03,0.42-0.32,0.42-0.55c0-0.38,1.43-0.94,1.67-1.07
					c0.58-0.32,1.17-0.63,1.75-0.95c0.64-0.35,0.07-1.32-0.57-0.98c-1.02,0.55-2.14,1.04-3.11,1.68c-0.52,0.34-0.88,0.66-0.87,1.32
					c0.14-0.18,0.28-0.36,0.42-0.55c-1.3,0.18-3.41,0-4.31,1.14c0-0.01-0.36,0.6-0.33,0.6c0.11-0.02-0.57-0.49-0.54-0.47
					c-0.46-0.23-0.94-0.11-1.42-0.02c-1.16,0.23-1.25,0.03-2.05-0.75c-0.43-0.42-0.95-0.74-1.52-0.92
					c-1.58-0.52-3.23-0.09-4.77,0.36c-0.22,0.06-0.44,0.3-0.42,0.55c0.1,0.45-0.03,0.85-0.39,1.21c0.23-0.03,0.46-0.06,0.69-0.09
					c-1.23-0.61-2.67-1.53-2.51-3.09c0.03-0.3-0.28-0.57-0.57-0.57c-0.63,0.01-1.26,0.01-1.89,0.02c0.19,0.19,0.38,0.38,0.57,0.57
					c0.19-1.73,2.63-2.92,1.74-4.88c-0.62-1.36-2.25-1.19-3.46-0.92c-1,0.22-1.98,0.55-2.99,0.74c-0.74,0.14-1.34,0.33-1.72-0.54
					c-0.14-0.32-0.1-0.57-0.33-0.88c-1.25-1.71-3.54,0.11-4.94-1.01c-0.67-0.54-1.01-1.47-1.54-2.14c-0.5-0.64-1.12-1.1-1.78-1.55
					c-0.51-0.34-1.04-0.67-1.56-1c-0.51-0.33-1.34-0.68-1.73-1.15c-0.67-0.82,0.21-1.76,0.23-2.6c0.01-0.33-0.07-0.56-0.17-0.87
					c-0.16-0.51-0.28-1.03-0.4-1.57c-0.15-0.66-0.39-1.26-0.81-1.79c-0.24-0.31-0.52-0.58-0.83-0.8c-0.33-0.23-0.91-0.35-1.18-0.62
					c-0.55-0.56-0.08-0.87,0.05-1.4c0.03-0.13,0.23-1.98,0.54-1.65C69.64,46.79,70.44,45.98,69.94,45.45L69.94,45.45z"/>
			</g>
		</g>
		<g>
			<g>
				<path d="M123.29,35.65c-0.18,1.1-0.37,2.2-0.55,3.3c-0.05,0.31-0.1,0.63-0.16,0.94c-0.1,0.11-0.22,0.15-0.37,0.13
					c-0.16,0.1-0.33,0.11-0.49,0.22c-0.36,0.27-0.46,0.65-0.46,1.09c0,0.67,0.45,1.1-0.3,1.42c-0.51,0.22-0.79,0.31-1,0.9
					c-0.25,0.72,0.14,0.56-0.83,1.21c-0.33,0.22-0.57,0.26-0.85,0.58c-0.65,0.72-1.14,1.59-1.8,2.32c-0.67,0.72-1.4,1.38-2.17,1.98
					c0.3,0.04,0.59,0.08,0.89,0.11c-0.36-0.37-0.42-0.84-0.18-1.4c0.16-0.33,0.04-0.72-0.34-0.83c-1.09-0.31-2.52-0.5-3.17,0.68
					c-0.29,0.52-0.11,1-0.6,1.37c-0.34,0.26-0.53,0.12-0.69,0.6c-0.3,0.86,0.37,1.91,1.08,2.36c1.4,0.88,2.53-0.43,3.93-0.18
					c-0.13-0.13-0.26-0.26-0.4-0.4c0.12,0.58,0.23,1.16,0.35,1.74c0.09-0.21,0.17-0.43,0.26-0.64c-1.11,0.5-3.16,1.31-2.04,2.85
					c0.58,0.8,1.64,0.71,1.91,1.83c0.15,0.62,0.11,2.22-0.1,2.79c-0.16,0.43-0.46,0.63-0.18,1.15c0.41,0.74,1.32,0.27,1.37,1.22
					c0.07,1.21-0.85,2.46-1.45,3.44c-0.69,1.13-1.38,2.27-2.07,3.4c-0.38,0.62,0.6,1.19,0.98,0.57c1.07-1.77,2.43-3.57,3.21-5.49
					c0.31-0.76,0.57-1.71,0.46-2.54c-0.05-0.38-0.11-0.58-0.42-0.82c-0.2-0.16-0.55-0.13-0.73-0.27c-0.34-0.27-0.08,0.16-0.1-0.29
					c-0.01-0.23,0.1-0.56,0.11-0.82c0.04-0.88,0.15-1.9,0.02-2.78c-0.09-0.62-0.38-1.01-0.91-1.34c-0.38-0.24-1.32-0.41-1.05-1.16
					c0.1-0.28,1.27-0.65,1.54-0.77c0.24-0.11,0.31-0.41,0.26-0.64c-0.12-0.58-0.23-1.16-0.35-1.74c-0.03-0.18-0.22-0.36-0.4-0.4
					c-0.63-0.11-1.13-0.04-1.74,0.15c-0.42,0.13-0.87,0.38-1.32,0.35c-0.63-0.04-1.36-0.69-1.13-1.4c-0.13,0.13-0.26,0.26-0.4,0.4
					c0.51-0.2,0.9-0.2,1.2-0.73c0.14-0.24,0.13-0.52,0.23-0.76c0.41-1.02,0.99-0.93,1.99-0.64c-0.11-0.28-0.23-0.55-0.34-0.83
					c-0.42,0.88-0.4,1.73,0.18,2.54c0.23,0.32,0.58,0.36,0.89,0.11c0.88-0.69,1.71-1.45,2.45-2.3c0.72-0.83,1.24-1.83,2.2-2.4
					c0.5-0.3,0.88-0.4,1.1-0.99c0.21-0.54,0.13-0.7,0.71-1.02c0.23-0.13,0.41-0.1,0.62-0.29c0.37-0.34,0.4-0.78,0.36-1.25
					c-0.02-0.21-0.11-0.43-0.11-0.63c-0.01-0.62,0.07-0.43,0.57-0.64c0.6-0.25,0.63-0.71,0.74-1.29c0.25-1.25,0.42-2.52,0.63-3.77
					C124.5,35.24,123.41,34.93,123.29,35.65L123.29,35.65z"/>
			</g>
		</g>
		<g>
			<g>
				<path d="M76.8,41.22c-0.77,1-1.52,2.04-2.33,3.01c-0.31,0.38-2.14,1.99-1.6,1.91c-0.6,0.08-1.33-0.43-2.04-0.28
					c-0.75,0.16-1.37,0.73-1.92,1.23C67.91,48,68.37,50,69.76,50.26c0.94,0.18,1.82,0.28,2.77,0.26c-0.55-0.95-1.09-1.9-1.64-2.85
					c-0.32,0.36-0.57,0.78-0.74,1.23c-0.66,1.38,0.16,2.69,1.64,2.85c2.41,0.27,5.77,0.07,6.77-2.51c0.65-1.69,1.13-3.08,2.35-4.51
					c0.91-1.06,2.1-1.53,3.14-2.4c1.88-1.56-0.82-4.23-2.68-2.68c-1.54,1.28-2.92,2-4.16,3.72c-1.24,1.72-1.75,3.29-2.43,5.21
					c0.29-0.38,0.58-0.76,0.87-1.13c-1.16,0.76-2.56,0.66-3.86,0.52c0.55,0.95,1.09,1.9,1.64,2.85c0.17-0.46,0.42-0.87,0.74-1.23
					c0.87-1.18-0.31-2.87-1.64-2.85c-0.59,0.05-1.18,0.01-1.76-0.12c0.28,1.06,0.56,2.11,0.84,3.17c0.23-0.15,0.47-0.3,0.7-0.44
					c-0.49,0.06-0.97,0.13-1.46,0.19c1.99,0.29,2.91,0.52,4.67-0.91c1.82-1.48,3.15-3.64,4.57-5.48
					C81.56,41.2,78.27,39.31,76.8,41.22L76.8,41.22z"/>
			</g>
		</g>
		<g>
			<g>
				<path d="M82.15,40.96c-2.97,4.95-6.64,9.29-10.98,13.08c-1.07,0.93-0.5,2.85,0.84,3.17c3.26,0.77,5.68-1.33,8.02-3.35
					c1.23-1.06,2.49-2.13,3.56-3.36c1.03-1.19,1.74-3,3.21-3.66c2.22-1.01,0.29-4.28-1.91-3.27c-2.16,0.98-2.97,3.2-4.52,4.85
					c-1.4,1.49-5.12,5.66-7.35,5.13c0.28,1.06,0.56,2.11,0.84,3.17c4.58-3.99,8.45-8.64,11.58-13.85
					C86.68,40.77,83.41,38.86,82.15,40.96L82.15,40.96z"/>
			</g>
		</g>
		<g>
			<g>
				<path d="M85.02,44.46c-1.55,3.05-3.58,5.68-6.23,7.86c-2.15,1.76-4.34,3.26-5.01,6.12c-0.29,1.24,0.57,2.33,1.83,2.4
					c7.84,0.4,10.17-7.9,15.05-12.21c1.83-1.62-0.86-4.29-2.68-2.68c-3.86,3.41-6.34,11.41-12.37,11.1c0.61,0.8,1.22,1.6,1.83,2.4
					c0.63-2.71,4.07-4.29,5.92-6.15c2.01-2.03,3.65-4.37,4.94-6.92C89.39,44.2,86.12,42.28,85.02,44.46L85.02,44.46z"/>
			</g>
		</g>
		<g>
			<g>
				<path d="M90.72,47.76c-5.11,3.31-8.82,8.34-12.74,12.91c-1.37,1.59,0.34,4.07,2.3,2.98c2.74-1.53,4.95-3.66,6.96-6.05
					c2.1-2.48,4.1-5.92,7.02-7.48c2.15-1.15,0.24-4.42-1.91-3.27c-5.78,3.08-8.15,10.28-13.99,13.53c0.77,0.99,1.53,1.98,2.3,2.98
					c3.68-4.28,7.18-9.21,11.97-12.31C94.67,49.71,92.77,46.43,90.72,47.76L90.72,47.76z"/>
			</g>
		</g>
		<g>
			<g>
				<path d="M92.42,49.77c-3.47,4.15-6.46,8.6-8.95,13.4c-0.92,1.77,0.89,3.36,2.59,2.59c3.07-1.38,5.15-3.95,7.21-6.53
					c2.23-2.8,4.34-5.7,6.33-8.67c0.77-1.15-0.23-2.95-1.64-2.85c-1.7,0.12-3.12,0.51-4.63,1.31c-2.16,1.13-0.25,4.41,1.91,3.27
					c0.83-0.51,1.74-0.78,2.72-0.79c-0.55-0.95-1.09-1.9-1.64-2.85c-1.81,2.71-3.7,5.36-5.73,7.91c-1.85,2.32-3.67,4.69-6.44,5.94
					c0.86,0.86,1.73,1.73,2.59,2.59c2.34-4.52,5.1-8.73,8.36-12.64C96.66,50.59,93.99,47.89,92.42,49.77L92.42,49.77z"/>
			</g>
		</g>
		<g>
			<g>
				<path d="M99.66,48.43c-3.45,4.77-6.77,9.63-9.98,14.56c-1.33,2.05,1.95,3.95,3.27,1.91c3.21-4.94,6.54-9.79,9.98-14.56
					C104.37,48.36,101.08,46.47,99.66,48.43L99.66,48.43z"/>
			</g>
		</g>
		<g>
			<g>
				<path d="M105.68,44.35c-5.26,6.48-6.92,16.53-13.68,21.83c1.08,0.45,2.16,0.89,3.24,1.34c-0.27-3.53,3-7.18,5.11-9.67
					c1.56-1.85-1.1-4.55-2.68-2.68c-2.86,3.38-6.57,7.65-6.22,12.35c0.13,1.74,1.93,2.36,3.24,1.34c6.86-5.38,8.4-15.31,13.68-21.83
					C109.88,45.15,107.22,42.45,105.68,44.35L105.68,44.35z"/>
			</g>
		</g>
		<g>
			<g>
				<path d="M111.43,57.51c-1.92,4.35-4.21,8.48-6.9,12.4c-1.38,2.02,1.9,3.92,3.27,1.91c2.69-3.92,4.98-8.05,6.9-12.4
					C115.68,57.22,112.42,55.28,111.43,57.51L111.43,57.51z"/>
			</g>
		</g>
		<g>
			<g>
				<path d="M111.68,61.52c-0.72,1.43-1.49,2.84-2.32,4.2c-0.42,0.68-0.85,1.36-1.3,2.02c-0.21,0.31-0.75,1.41-1.09,1.55
					c-2.24,0.96-0.31,4.23,1.91,3.27c1.36-0.58,2.34-2.72,3.11-3.91c1.09-1.68,2.06-3.43,2.96-5.22
					C116.04,61.26,112.78,59.34,111.68,61.52L111.68,61.52z"/>
			</g>
		</g>
		<g>
			<g>
				<path d="M113.12,62.74c-1.03,2.06-1.9,4.89-3.74,6.37c-1.9,1.53,0.8,4.2,2.68,2.68c2.12-1.72,3.14-4.76,4.33-7.13
					C117.49,62.48,114.22,60.56,113.12,62.74L113.12,62.74z"/>
			</g>
		</g>
		<g>
			<g>
				<path d="M110.33,53.21c-2.87,5.98-5.86,11.9-8.98,17.76c-1.15,2.15,2.13,4.07,3.27,1.91c3.12-5.86,6.11-11.78,8.98-17.76
					C114.65,52.93,111.38,51.01,110.33,53.21L110.33,53.21z"/>
			</g>
		</g>
		<g>
			<g>
				<path d="M107.3,52.08c-2.57,6.24-5.65,12.22-9.18,17.97c1.09,0.64,2.18,1.28,3.27,1.91c0.1-0.18,0.19-0.37,0.29-0.55
					c1.13-2.16-2.14-4.08-3.27-1.91c-0.1,0.18-0.19,0.37-0.29,0.55c-1.13,2.16,1.99,4,3.27,1.91c3.71-6.04,6.87-12.32,9.56-18.88
					C111.88,50.84,108.22,49.86,107.3,52.08L107.3,52.08z"/>
			</g>
		</g>
		<g>
			<g>
				<path d="M105.81,48.54c-2.1,3.77-4.3,7.48-6.66,11.1c-1.9,2.92-4.45,5.64-4.26,9.31c0.08,1.53,1.53,2.24,2.85,1.64
					c2.27-1.04,3.26-3.42,4.5-5.47c1.22-2.01,3.24-4.23,3.44-6.62c0.13-1.57-1.67-2.17-2.85-1.64c-0.06,0.03-0.11,0.05-0.17,0.08
					c-0.96,0.44-1.11,1.76-0.68,2.59c0.02,0.04,0.04,0.08,0.06,0.11c1.12,2.17,4.4,0.25,3.27-1.91c-0.02-0.04-0.04-0.08-0.06-0.11
					c-0.23,0.86-0.45,1.73-0.68,2.59c0.06-0.03,0.11-0.05,0.17-0.08c-0.95-0.55-1.9-1.09-2.85-1.64c-0.09,1.07-1.99,3.18-2.57,4.13
					c-0.89,1.46-1.84,3.93-3.49,4.68c0.95,0.55,1.9,1.09,2.85,1.64c-0.17-3.28,3.61-7.13,5.29-9.82c1.78-2.84,3.47-5.74,5.11-8.68
					C110.27,48.32,107,46.41,105.81,48.54L105.81,48.54z"/>
			</g>
		</g>
		<g>
			<g>
				<path d="M94.3,71.9c1.74-1.82,3.54-3.58,5.4-5.28c1.81-1.65-0.88-4.32-2.68-2.68c-1.86,1.7-3.66,3.46-5.4,5.28
					C89.94,70.98,92.61,73.67,94.3,71.9L94.3,71.9z"/>
			</g>
		</g>
		<g>
			<g>
				<path d="M94.77,73.51c1.42-1.01,2.92-1.91,4.48-2.69c0.92-0.46,1.17-1.75,0.68-2.59c-0.55-0.93-1.67-1.14-2.59-0.68
					c-1.57,0.78-3.06,1.67-4.48,2.69c-0.83,0.59-1.23,1.65-0.68,2.59C92.66,73.66,93.93,74.11,94.77,73.51L94.77,73.51z"/>
			</g>
		</g>
		<g>
			<g>
				<path d="M108.74,42.99c-1.59,2.08-2.43,4.89-3.48,7.28c-0.97,2.21,2.29,4.14,3.27,1.91c1.05-2.38,1.89-5.19,3.48-7.28
					c0.63-0.82,0.12-2.11-0.68-2.59C110.37,41.73,109.36,42.18,108.74,42.99L108.74,42.99z"/>
			</g>
		</g>
		<g>
			<g>
				<path d="M111.71,33.56c-0.39,1.19-0.78,2.38-1.17,3.57c-0.48,1.45,1,2.62,2.33,2.33c1.89-0.41,3.32-1.5,4.31-3.15
					c-1.09-0.64-2.18-1.28-3.27-1.91c-1.53,3.18-2.95,6.41-4.29,9.68c-0.92,2.26,2.74,3.24,3.66,1.01c1.21-2.96,2.52-5.88,3.9-8.77
					c1.04-2.17-2.01-4.04-3.27-1.91c-0.51,0.85-1.09,1.2-2.04,1.4c0.78,0.78,1.55,1.55,2.33,2.33c0.39-1.19,0.78-2.38,1.17-3.57
					C116.13,32.24,112.47,31.25,111.71,33.56L111.71,33.56z"/>
			</g>
		</g>
		<g>
			<g>
				<path d="M112.41,39.11c0.21-0.21,0.43-0.42,0.64-0.64c0.34-0.34,0.56-0.86,0.56-1.34c0.01-0.26-0.04-0.5-0.16-0.73
					c-0.08-0.23-0.21-0.44-0.39-0.61c-0.36-0.33-0.84-0.58-1.34-0.56c-0.5,0.02-0.98,0.19-1.34,0.56c-0.21,0.21-0.43,0.42-0.64,0.64
					c-0.34,0.34-0.56,0.86-0.56,1.34c-0.01,0.26,0.04,0.5,0.16,0.73c0.08,0.23,0.21,0.44,0.39,0.61c0.36,0.33,0.84,0.58,1.34,0.56
					C111.57,39.64,112.04,39.47,112.41,39.11L112.41,39.11z"/>
			</g>
		</g>
		<g>
			<g>
				<path d="M112.33,35.98c2.44,0,2.44-3.79,0-3.79C109.89,32.19,109.89,35.98,112.33,35.98L112.33,35.98z"/>
			</g>
		</g>
		<g>
			<g>
				<path d="M116.17,37.21c-1.66,2.57-3.18,5.41-5.32,7.61c-1.8,1.84-3.86,3.2-5.03,5.57c-1.08,2.18,2.19,4.1,3.27,1.91
					c1.26-2.54,3.89-4.01,5.65-6.18c1.76-2.18,3.19-4.65,4.71-7C120.77,37.07,117.49,35.17,116.17,37.21L116.17,37.21z"/>
			</g>
		</g>
		<g>
			<g>
				<path d="M117.16,37.48c-1.03,2.29-2.21,4.5-3.54,6.63c-1.06,1.7,0.98,3.4,2.59,2.59c0.3-0.15,0.6-0.3,0.9-0.45
					c2.18-1.09,0.27-4.36-1.91-3.27c-0.3,0.15-0.6,0.3-0.9,0.45c0.86,0.86,1.73,1.73,2.59,2.59c1.33-2.13,2.5-4.34,3.54-6.63
					c0.42-0.94,0.26-2.03-0.68-2.59C118.95,36.31,117.58,36.55,117.16,37.48L117.16,37.48z"/>
			</g>
		</g>
		<g>
			<g>
				<path d="M119.49,38.41c-1.6,2.7-3.43,5.2-5.53,7.52c-1.63,1.8,1.04,4.49,2.68,2.68c2.31-2.56,4.37-5.32,6.12-8.29
					C124.01,38.22,120.73,36.31,119.49,38.41L119.49,38.41z"/>
			</g>
		</g>
	</g>
	<g>
		<path d="M143.4,49.75c0.07-3.19-1.75-13.48,2.09-14.41c1.94-0.53,3.21,2.06,1.61,3.26c-0.54,3.6-0.13,7.28-0.02,10.9
			c0.05,0.91-0.73,1.71-1.59,1.83C144.53,51.45,143.48,50.75,143.4,49.75z"/>
		<path d="M164.19,52.5c-0.77-0.6-0.95-1.78-0.33-2.55c2.41-3.24,5.42-6.26,7.15-9.81c-4.78,0.46-9.49,1.7-13.8,3.83
			c-1.44,0.73-2.82,1.58-4.17,2.47c-0.83,0.55-2.01,0.17-2.49-0.65c-1.21-2.55,2.79-3.59,4.35-4.75c5.43-2.68,11.58-4.76,17.68-4.58
			c5.54,2.22-0.12,8.57-2.3,11.39C168.76,49.21,166.47,54.26,164.19,52.5z"/>
		<path d="M150.96,56.62c0.11-1.35,1.59-2.1,2.62-2.69c1.38-0.8,2.85-1.47,4.28-2.18c3.27-1.65,6.56-3.3,9.79-5.04
			c2.07-1.15,3.88,1.92,1.84,3.15c-4.89,2.82-10.11,5.03-15.03,7.79C153.51,59.48,150.75,58.71,150.96,56.62z"/>
		<path d="M160.03,73.38c-1.2-7.9-0.42-16.01-0.68-23.98c0-4.29-0.05-8.6,0.05-12.89c0.05-2.04,0.09-4.11,0.41-6.13
			c0.14-0.76,0.42-1.52,1.05-2.01c1.84-1.34,4.24,1.14,2.5,2.81c-0.72,13.03-0.31,26.14-0.02,39.19c-0.04,1.15,0.62,2.38,0.06,3.47
			C162.67,75.21,160.39,74.93,160.03,73.38z"/>
		<path d="M182.75,64.23c-0.59-7.46-0.7-15.04-0.42-22.52c0.3-1.94,3.01-2.11,3.57-0.23c0.07,2.03-0.11,4.11-0.03,6.17
			c0.15,5.36,0.02,10.75,0.52,16.09C186.64,66.12,183.15,66.62,182.75,64.23z"/>
		<path d="M212.35,71.01c0.54-11.4,0.06-22.78-1.15-34.12c-7.87,1.9-16.87,2.39-22.93,8.32c-0.78,2.24-4.14,1.25-3.57-1.08
			c0.78-2.17,3.08-3.42,4.88-4.67c4.54-2.81,9.87-3.84,15.02-4.98c1.97-0.43,3.94-0.84,5.92-1.23c0.83-0.16,1.77-0.39,2.58-0.02
			c2.14,0.9,1.8,3.62,2.06,5.53c0.3,4.03,0.7,8.06,0.96,12.09c0.54,6.72,0.17,13.45-0.09,20.18
			C215.95,73.42,212.42,73.44,212.35,71.01z"/>
		<path d="M189.01,55.61c-6.83-2.7,8.31-10.14,10.72-11.38c2.02-0.9,3.57,2.17,1.63,3.25c-3.57,1.89-7.18,3.88-10.25,6.53
			C190.98,55.04,190.01,55.73,189.01,55.61z"/>
		<path d="M191.94,61.38c-3.31-1.14-1.84-7.77,1.29-8.38c2.36-0.58,3.3,2.88,0.97,3.56c-0.13,0.18-0.2,0.39-0.25,0.59
			C196.83,58.24,194.33,62.11,191.94,61.38z"/>
		<path d="M191.13,67.06c-0.64-0.74-0.55-1.92,0.18-2.57c0.62-0.54,1.4-0.8,1.88-1.52c1.15-1.16,2.03-3.87,4.09-2.75
			c2.11,1.39-0.07,3.58-1.09,4.94C195.04,66.53,192.86,69,191.13,67.06z"/>
		<path d="M204.36,70.23c-4.58-6.61-5.72-14.74-8.31-22.17c-0.04-1.09,1.03-2.01,2.1-1.85c2.28,0.34,2.86,6.13,3.7,8.1
			c1.31,4.92,2.95,9.74,5.69,14.06C208.72,70.46,205.64,72.29,204.36,70.23z"/>
		<path d="M196.8,66.4c-0.87-0.51-1.16-1.66-0.66-2.53c2.79-4.8,5.98-9.34,9.22-13.83c0.59-0.82,1.83-0.94,2.61-0.34
			c0.82,0.63,0.93,1.79,0.34,2.61c-1.3,1.8-2.58,3.61-3.86,5.43c-1.76,2.63-3.5,5.28-5.13,8C198.82,66.61,197.67,66.91,196.8,66.4z"
			/>
		<path d="M205.26,42.57c-0.16-0.1-0.33-0.21-0.49-0.31c-1.72,0.8-3.52-1.31-2.47-2.88c1.18-1.78,3.68-1.08,5.07,0.06
			C209.21,40.82,207.22,43.76,205.26,42.57z"/>
		<path d="M193.8,71.89c-0.88-2.83,3.16-3.17,4.98-3.96c4.58-1.25,9.21-2.29,13.8-3.44c0.99-0.24,2.03,0.3,2.31,1.31
			c0.27,0.98-0.32,2.04-1.31,2.31c-2.67,0.71-5.35,1.42-8.04,2.07c-2.65,0.65-5.33,1.24-7.9,2.18
			C196.39,73,194.53,73.58,193.8,71.89z"/>
		<path d="M227.82,49.39c-0.36-3.53-0.11-7.1-0.55-10.62c-1.1-2.51,2.65-4.11,3.54-1.44c0.81,3.87,0.43,7.88,0.67,11.81
			C231.53,51.38,228.09,51.62,227.82,49.39z"/>
		<path d="M248.26,43.58c-3.33-1.3,0.73-5.02-0.56-7.25c0.05,0.07,0.12,0.11,0.15,0.2c0,0,0,0.01,0.01-0.02
			c-0.08-0.1-0.16-0.2-0.27-0.28c-4.77,0.8-9.2,3.12-13.47,5.31c-0.69,2.04-4,1.19-3.68-0.93c0.56-2.5,4.14-3.22,6.1-4.42
			c3.51-1.56,7.1-3.27,10.97-3.66c2.71-0.12,4.49,2.78,4.16,5.27C251.27,39.68,251.05,44.16,248.26,43.58z"/>
		<path d="M229.73,52.41c-0.45-1.02,0.19-2.23,1.26-2.5c2.23-0.81,4.44-1.69,6.66-2.52s4.44-1.7,6.59-2.7
			c0.93-0.43,2.07,0.08,2.45,1c0.41,0.97-0.08,2.01-1,2.45c-4.48,2.05-9.15,3.69-13.8,5.33c0,0,0-0.01,0-0.01
			C231.04,53.68,230.09,53.27,229.73,52.41z"/>
		<path d="M228.56,72.69c-3.11-1.31-1.17-5.44,1.62-3.38c3.27-2.08,4.8-6.11,6.2-9.57c2.8-7.73,1.91-16,0.51-23.85
			c-0.18-1.05-0.44-2.07-0.56-3.12c-0.25-2.87,4.18-2.66,3.74,0.16c2.15,10.18,3.33,21.19-1.19,30.92
			C237.12,67.48,233.54,74.75,228.56,72.69z"/>
		<path d="M257.3,76.19c-8.2-1.88-14.7-7.6-21.12-12.71c-1.61-1.41-3.4-2.64-4.92-4.15c-0.46-0.48-0.66-1.16-0.48-1.82
			c0.43-1.79,3.36-1.87,3.92-0.13c5.3,4.21,10.49,8.62,16.31,12.11c1.75,0.99,3.4,1.57,5.22,2.26c1.41,0.45,3.55,0.8,3.29,2.76
			C259.38,75.61,258.35,76.31,257.3,76.19z"/>
	</g>
	<g>
		<g>
			<path d="M39.06,59.3c-11.78-0.29-23.56-0.08-35.31,0.65c-1.92,0.12-1.93,3.12,0,3c11.76-0.73,23.54-0.94,35.31-0.65
				C40.99,62.35,40.99,59.35,39.06,59.3L39.06,59.3z"/>
		</g>
	</g>
	<g>
		<g>
			<path d="M289.18,58.53c11.38-0.36,22.78-0.11,34.14,0.76c1.93,0.15,1.92-2.85,0-3c-11.36-0.87-22.75-1.13-34.14-0.76
				C287.25,55.59,287.24,58.59,289.18,58.53L289.18,58.53z"/>
		</g>
	</g>
</g>
<g id="圖層_6" class="st4">
</g>
</svg>
