<?xml version="1.0" encoding="utf-8"?>
<!-- Generator: Adobe Illustrator 27.7.0, SVG Export Plug-In . SVG Version: 6.00 Build 0)  -->
<svg version="1.1" xmlns="http://www.w3.org/2000/svg" xmlns:xlink="http://www.w3.org/1999/xlink" x="0px" y="0px"
	 viewBox="0 0 330 100" style="enable-background:new 0 0 330 100;" xml:space="preserve" fill="#d46c36">
<style type="text/css">
	.st0{fill:#779F16;}
	.st1{fill:none;stroke:#000000;stroke-width:0.75;stroke-linecap:round;stroke-miterlimit:10;}
	.st2{fill:none;stroke:#000000;stroke-width:0.9595;stroke-miterlimit:10;}
	.st3{fill:none;stroke:#779F16;stroke-linecap:round;stroke-miterlimit:10;}
	.st4{display:none;}
	.st5{display:inline;}
	.st6{fill:#7D3618;}
	.st7{fill:#F8F6EB;}
</style>
<g id="圖層_2">
</g>
<g id="圖層_3">
</g>
<g id="圖層_1">
</g>
<g id="圖層_4">
</g>
<g id="圖層_5" class="st4">
</g>
<g id="圖層_7">
</g>
<g id="圖層_8">
	<g>
		<g>
			<g>
				<g>
					<path d="M82.96,35.72c8.77-2.21,17.57,3.54,19.26,12.41c2.1,11-5.34,20.1-16.23,20.71c-4.88,0.27-9.92-0.01-13.78-3.41
						c-3.68-3.24-6.17-8.16-5.97-13.12C66.59,43.6,74.92,37.06,82.96,35.72c1.65-0.27,0.95-2.79-0.69-2.52
						C71.93,34.92,62.15,44.4,63.84,55.47C65.8,68.31,77.54,72.8,89.13,71.19c11.22-1.56,17.79-12.91,15.6-23.75
						C102.66,37.17,92.4,30.65,82.26,33.2C80.64,33.61,81.33,36.13,82.96,35.72L82.96,35.72z"/>
				</g>
			</g>
			<g>
				<g>
					<path d="M93.57,35.47c-0.86,0.06-3.98,1.92-4.23,1.32c-0.28-0.7-1.16-1.33-1.92-0.78c-1.38,1-2.9,2.12-3.31,3.85
						c-0.18,0.75,0.24,1.33,0.91,1.61c1.51,0.63,2.98-0.07,4.38-0.71c-0.6-0.16-1.19-0.31-1.79-0.47c0.47,0.84-0.82,1.88-1.07,2.08
						c-0.28,0.23-1.05,0.11-1.42,0.29c-1.15,0.55-1.79,1.89-2.26,2.98c-0.56,1.28,0.92,2.71,2.05,1.58
						c2.01-2.01,1.59,0.47,3.63,0.62c1.31,0.1,2-0.79,2.74-1.75c-0.49,0.2-0.98,0.4-1.48,0.6c-0.47,1.6-1.19,2.11-2.16,1.52
						c-0.28-0.16-0.59-0.25-0.91-0.27c-0.5,0.13-1.04,0.07-1.53,0.28c-1.4,0.61-2.15,3.08-2.77,4.23c-0.42,0.79,0.09,2.08,1.13,1.97
						c0.96-0.11,1.92-0.21,2.88-0.32c0.4,1.28,0.45,2.57,0.14,3.87c0.02,0.84-0.17,1.76,0.22,2.58c0.59,1.24,1.89,2.13,3.31,1.63
						c1.36-0.48,1.2-1.54,1.61-2.64c1.01-2.68,2.86-3.07,4.37-5.3c0.5-0.74-0.03-1.67-0.78-1.92c-0.16-0.83-0.32-1.67-0.48-2.5
						c0.12,0.65,0.99,1.15,1.61,0.91c0.94,0.35,1.89,0.69,2.83,1.04c0.33,0.63,1.2,0.8,1.79,0.47c0.71-0.24,1.41-0.48,2.12-0.73
						c1.66-0.27,0.95-2.79-0.69-2.52c-1.57,0.26-1.36,0.2-2.74,0.99c0.6,0.16,1.19,0.31,1.79,0.47c-1.19-2.3-3.34-3.18-5.78-2.24
						c0.54,0.3,1.07,0.61,1.61,0.91c-0.58-3.2-4.28-3.07-6.04-0.72c-2.32,3.1,0.44,5.47,3.31,6.43c-0.26-0.64-0.52-1.28-0.78-1.92
						c-1.06,1.56-3.21,1.89-4.2,3.51c-0.27,0.45-0.31,1-0.5,1.46c-0.05,1.28-0.04,1.48,0.02,0.59c0.06-0.76,0.14-1.52,0.24-2.28
						c0.44-4.87-1.39-4.89-5.84-4.4c0.38,0.66,0.75,1.31,1.13,1.97c0.98-1.82,0.88-2.74,2.83-2.81c0.57-0.02,1.07,0.48,1.69,0.43
						c1.34-0.11,2.46-0.61,3.16-1.83c1.11-1.94,0.46-4.95-1.86-5.38c-0.64-0.12-1.09,0.1-1.48,0.6c0.02-0.03-1.34-1.11-2.04-1.25
						c-1.52-0.29-2.94,0.86-3.93,1.84c0.68,0.53,1.37,1.06,2.05,1.58c1.02-2.35,3.74-0.99,5.2-2.91c1.24-1.64,0.43-3.5-0.45-5.08
						c-0.37-0.66-1.16-0.76-1.79-0.47c-0.79,0.15-1.58,0.3-2.37,0.45c0.3,0.54,0.61,1.07,0.91,1.61c0.42-1,1.12-1.77,2.11-2.29
						c-0.64-0.26-1.28-0.52-1.92-0.78c0.55,1.36,1.34,2.44,2.93,2.56c1.84,0.15,2.38-1.86,3.82-1.96
						C95.24,37.97,95.25,35.35,93.57,35.47L93.57,35.47z"/>
				</g>
			</g>
			<g>
				<g>
					<path d="M76.07,37.32c-0.34,1.37-0.95,2.75,0.39,3.75c1.04,0.77,2.5,1.14,3.53,0.11c0.21-0.21,0.44-0.52,0.5-0.82
						c0.1-0.27,0.05-0.28-0.14-0.01c0.1-0.05,0.2-0.12,0.29-0.19c0.52-0.4,0.81-0.98,0.84-1.64c0.07-1.37-0.8-2.51-1.87-3.26
						c-1.38-0.97-2.69,1.3-1.32,2.26c0.3,0.21,0.35,0.52,0.57,0.74c0.02,0.05,0.02,0.1,0.02,0.15c0.05-0.11,0.1-0.21,0.16-0.32
						c-0.01-0.01-0.46,0.32-0.48,0.35c-0.1,0.1-0.7,0.92-0.53,1.02c0.04,0.02,0.38-0.29,0.39-0.24c0.01,0.04-0.45-0.33-0.4-0.23
						c0.06,0.22,0.12,0.44,0.18,0.66c0.05-0.53,0.28-1.11,0.4-1.63C78.98,36.38,76.47,35.69,76.07,37.32L76.07,37.32z"/>
				</g>
			</g>
			<g>
				<g>
					<path d="M67.93,43.73c0.45,0.72,0.89,1.44,1.34,2.16c0.41,0.67,1.49,0.93,2.05,0.26c1.38-1.62,0.05-1.19-1.17-0.28
						c-0.58,0.43-1.15,1.62-1.5,2.16c-1.15,1.76-2.14,3.55-0.78,5.57c1.55,2.31,4.13,1.72,6.51,1.83c0.96,0.04,4.49,0.6,4.72,1.81
						c0.08,0.45-1.31,2.24-1.55,2.7c-1.01,1.95-1.81,3.98-2.52,6.06c0.8-0.1,1.59-0.21,2.39-0.31c-1.38-2.27-0.54-4-1.29-6.2
						c-0.77-2.24-2.85-0.13-3.76-4.12c-0.37-1.64-2.89-0.94-2.52,0.69c0.25,1.1,0.47,1.91,1.2,2.82c0.17,0.21,2.33,1.68,2.34,1.71
						c0.94,1.79,0.51,4.34,1.77,6.41c0.61,1,2.03,0.74,2.39-0.31c0.64-1.86,1.35-3.68,2.26-5.43c0.54-1.04,1.64-2.23,1.88-3.41
						c0.18-0.92,0.13-1.67-0.47-2.49c-1.05-1.43-3.51-2.16-5.13-2.41c-2.22-0.35-7.46,0.38-4.91-3.84c1.14-1.89,4.53-2.29,3.57-5.33
						c-1.14-3.63-3.91-1.08-5.28,0.52c0.68,0.09,1.37,0.18,2.05,0.26c-0.45-0.72-0.89-1.44-1.34-2.16
						C69.31,40.98,67.05,42.29,67.93,43.73L67.93,43.73z"/>
				</g>
			</g>
			<g>
				<g>
					<path d="M65.65,47.32c-0.66,1.93,0.74,3.28,1.68,4.77c0.9,1.42,3.16,0.11,2.26-1.32c-0.46-0.73-1.75-1.79-1.42-2.75
						C68.71,46.42,66.19,45.74,65.65,47.32L65.65,47.32z"/>
				</g>
			</g>
			<g>
				<g>
					<path d="M92.26,38.71c-1.29,0.99-2.4,2.09-3.41,3.36c-0.7,0.88-0.09,2.75,1.27,2.18c0.77-0.32,1.39-0.66,1.98-1.26
						c0.88-0.89,1.54-2.58,3.06-2.52c-0.44-0.44-0.87-0.87-1.31-1.31c-0.11,0.87-0.98,1.73-1.45,2.42
						c-0.65,0.94-1.31,1.87-1.96,2.81c-0.78,1.1,0.72,2.42,1.79,1.79c2.71-1.6,5.43-3.18,8.27-4.53c-0.44-0.75-0.88-1.5-1.32-2.26
						c-2.17,1.1-4.15,2.43-6.02,3.99c0.68,0.53,1.37,1.06,2.05,1.58c0.84-1.62,1.67-3.24,2.51-4.86c-0.8-0.1-1.59-0.21-2.39-0.31
						c0.76,2.26-1.88,4.21-2.74,6.11c-0.54,1.21,0.56,2.37,1.79,1.79c2.55-1.21,5.78-2.45,7.39-4.89c0.71-1.08-0.71-2.5-1.79-1.79
						c-2.12,1.39-3.86,3.05-5.41,5.06c-0.61,0.8,0.22,2,1.13,1.97c1.88-0.06,3.62-0.41,5.37-1.12c-0.55-0.42-1.1-0.84-1.65-1.26
						c0.02,0.64-1.08,1.65-1.24,2.36c-0.2,0.95,0.61,1.89,1.61,1.61c0.34-0.1,0.69-0.2,1.03-0.3c-0.54-0.3-1.07-0.61-1.61-0.91
						c0.14,0.51,0.32,0.8,0.68,1.19c1.15,1.24,2.99-0.61,1.85-1.85c0-0.01,0-0.03-0.01-0.04c-0.19-0.67-0.92-1.11-1.61-0.91
						c-0.34,0.1-0.69,0.2-1.03,0.3c0.54,0.54,1.07,1.07,1.61,1.61c0.26-1.2,1.38-1.69,1.33-3.06c-0.03-0.76-0.83-1.6-1.65-1.26
						c-1.53,0.63-3.01,0.97-4.67,1.03c0.38,0.66,0.75,1.31,1.13,1.97c1.27-1.64,2.75-2.98,4.47-4.12c-0.6-0.6-1.19-1.19-1.79-1.79
						c-1.26,1.92-4.45,3.01-6.46,3.96c0.6,0.6,1.19,1.19,1.79,1.79c1.25-2.77,4.13-4.75,3-8.12c-0.34-1-1.84-1.37-2.39-0.31
						c-0.84,1.62-1.67,3.24-2.51,4.86c-0.7,1.36,0.92,2.53,2.05,1.58c1.7-1.41,3.52-2.58,5.49-3.58c1.51-0.77,0.19-2.97-1.32-2.26
						c-2.85,1.35-5.56,2.93-8.27,4.53c0.6,0.6,1.19,1.19,1.79,1.79c1.39-1.98,3.47-4.08,3.77-6.54c0.09-0.72-0.67-1.28-1.31-1.31
						c-1.08-0.05-1.95,0.23-2.81,0.91c-1.04,0.83-1.67,2.44-2.92,2.96c0.42,0.73,0.85,1.46,1.27,2.18c1.01-1.27,2.12-2.36,3.41-3.36
						C95.44,39.53,93.58,37.69,92.26,38.71L92.26,38.71z"/>
				</g>
			</g>
			<g>
				<g>
					<path d="M88.1,49.78c-0.36,0.21-0.68,0.34-1.09,0.46c0.23,0.84,0.46,1.68,0.69,2.52c1.29-0.47,2.58-0.74,3.96-0.78
						c-0.31-0.74-0.62-1.49-0.92-2.23c-1.34,1.12-2.25,2.62-2.64,4.32c-0.24,1.01,0.62,1.81,1.61,1.61c1.19-0.25,2.31-0.7,3.35-1.34
						c-0.6-0.6-1.19-1.19-1.79-1.79c-0.53,0.97-1.06,1.95-1.6,2.92c-0.81,1.48,1.45,2.8,2.26,1.32c0.53-0.97,1.06-1.95,1.6-2.92
						c0.61-1.11-0.64-2.49-1.79-1.79c-0.86,0.53-1.74,0.87-2.73,1.07c0.54,0.54,1.07,1.07,1.61,1.61c0.31-1.31,0.95-2.31,1.97-3.17
						c0.88-0.73,0.15-2.26-0.92-2.23c-1.6,0.05-3.15,0.32-4.65,0.87c-1.56,0.57-0.95,2.98,0.69,2.52c0.61-0.17,1.17-0.41,1.71-0.72
						C90.88,51.19,89.56,48.94,88.1,49.78L88.1,49.78z"/>
				</g>
			</g>
			<g>
				<g>
					<path d="M71.66,55.48c-0.13,0.58-0.26,1.15-0.38,1.73c-0.22,1,0.93,2.2,1.92,1.48c0.85-0.62,1.72-1.18,2.65-1.68
						c-0.6-0.6-1.19-1.19-1.79-1.79c-0.54,0.88-1.07,1.76-1.61,2.64c-0.73,1.2,0.67,2.31,1.79,1.79c2.28-1.07,4.55-2.13,6.83-3.2
						c-0.53-0.68-1.06-1.37-1.58-2.05c-1.67,1.59-3.17,3.32-4.54,5.18c-0.55,0.74,0.08,1.65,0.78,1.92c1.69,0.66,3.67-0.98,5.05-1.8
						c-0.6-0.6-1.19-1.19-1.79-1.79c-0.89,1.53-1.78,3.06-2.68,4.6c-0.85,1.46,1.41,2.77,2.26,1.32c0.89-1.53,1.78-3.06,2.68-4.6
						c0.66-1.13-0.66-2.45-1.79-1.79c-0.5,0.29-2.46,1.76-3.04,1.53c0.26,0.64,0.52,1.28,0.78,1.92c1.24-1.67,2.63-3.21,4.13-4.65
						c1.13-1.08-0.3-2.65-1.58-2.05c-2.28,1.07-4.55,2.13-6.83,3.2c0.6,0.6,1.19,1.19,1.79,1.79c0.54-0.88,1.07-1.76,1.61-2.64
						c0.7-1.15-0.67-2.39-1.79-1.79c-0.93,0.5-1.8,1.06-2.65,1.68c0.64,0.49,1.28,0.98,1.92,1.48c0.13-0.58,0.26-1.15,0.38-1.73
						C74.54,54.54,72.03,53.84,71.66,55.48L71.66,55.48z"/>
				</g>
			</g>
			<g>
				<g>
					<path d="M69.27,44.89c-0.79,0.69-1.59,1.37-2.38,2.06c-0.53,0.46-0.47,1.37,0,1.85c0.53,0.53,1.31,0.46,1.85,0
						c0.79-0.69,1.59-1.37,2.38-2.06c0.53-0.46,0.47-1.37,0-1.85C70.59,44.36,69.81,44.43,69.27,44.89L69.27,44.89z"/>
				</g>
			</g>
		</g>
		<g>
			<path d="M123.5,50.28c-3.3-2.68,2.81-4.98,4.63-6.25c6.55-3.87,13.56-6.85,20.39-10.18c3.66-1.77,7.32-3.57,11.05-5.19
				c0.78-0.59,1.89-0.56,2.6,0.14c2.04,2.53-1.67,3.81-3.49,4.64c-9.36,4.6-19.01,8.66-28.14,13.71c-1.38,0.77-2.79,1.51-4.1,2.4
				C125.96,50.64,124.48,50.95,123.5,50.28z"/>
			<path d="M144.58,56.96c-2.34-1.08-2.36-4.75-3.26-6.92c-1.31-4.98-3.37-9.64-5.03-14.45c-0.22-1.54,1.48-3.04,2.91-2.14
				c1.13,0.58,2.18,1.75,1.44,3.05c2.39,5.54,4.08,11.34,5.81,17.1C147.61,55.13,146.64,57.45,144.58,56.96z"/>
			<path d="M142.34,59.23c-0.86-0.5-1.26-1.74-0.69-2.61c1.2-1.84,2.38-3.71,3.56-5.57c3.42-5.56,6.56-12,5.74-18.62
				c-1.55,0.13-2.54-1.82-1.57-3.02c1.25-2.18,4.13-1.6,4.82,0.7c2.42,8.5-2.02,17.27-6.47,24.33
				C146.38,56,144.91,60.58,142.34,59.23z"/>
			<path d="M134.6,69.02c-2.87-0.47-3.19-3.72-3.35-6.09c-0.24-2.28-0.48-4.56-0.73-6.84c-0.48-4.28-1.24-8.53-1.95-12.77
				c-0.07-1.9-1.82-5.01,0.7-5.91c1.37-0.4,2.57,0.91,2.47,2.24c1.66,8.4,2.86,16.87,3.89,25.37c3.55-0.22,6.92-1.85,10.37-2.68
				c5.5-1.8,11.28-3.31,16.34-6.14c1.93-1.5,4.37,1.25,2.64,3c-1.12,1.14-2.7,1.66-4.15,2.26c-3.04,1.26-6.12,2.45-9.26,3.43
				c-4.46,1.39-8.91,2.81-13.42,4C137,69.17,135.76,69.27,134.6,69.02z"/>
			<path d="M176.34,46.16c-0.44-4.4-0.52-8.88-1.71-13.17c-1.38-1.42,0.28-3.94,2.15-3.11c1.08,0.43,1.44,1.6,1.7,2.62
				c1.07,4.37,1.46,8.91,1.59,13.4c0.01,0.92-0.71,1.73-1.61,1.85C177.48,47.89,176.44,47.18,176.34,46.16z"/>
			<path d="M196.34,42.18c-0.94-0.26-1.59-1.31-1.29-2.27c0.69-2.28,1.31-4.59,1.86-6.9c0.17-1.3,0.79-3.01-0.06-4.14
				c-2.55-0.06-4.88,1.21-7.14,2.2c-3.61,1.93-7.11,4.13-10.35,6.64c-0.86,1.02-2.3,1.94-3.46,0.77c-2.12-2.6,2.74-4.67,4.38-6.04
				c5.09-3.34,20.69-14.01,20.85-1.55c-0.23,3.51-1.42,6.92-2.59,10.22C198.21,41.97,197.2,42.42,196.34,42.18z"/>
			<path d="M183.6,43.71c-0.78-0.09-1.45-0.69-1.66-1.44c-0.4-2.7,3.54-4.55,5.26-6.15c1.52-1.17,3.04-2.32,4.49-3.56
				c0.74-0.84,2.03-1.15,2.89-0.28c0.7,0.7,0.71,1.89,0,2.59c-2.73,2.72-6.07,4.7-8.88,7.34C185.51,43.19,184.56,43.83,183.6,43.71z
				"/>
			<path d="M187.5,49.59c-2.8-1.05-0.26-4.5-0.03-6.5c1.09-3.53,1.89-7.15,1.97-10.86c0.12-1.62-0.5-4.34,1.87-4.43
				c1.01,0,1.86,0.84,1.86,1.85c0.12,4.92-0.59,9.81-2.14,14.48C190.19,45.92,190.33,50.11,187.5,49.59z"/>
			<path d="M173.97,70.17c-0.98-1.79,0.87-2.61,1.82-3.79c4.5-4.65,8.67-9.62,12.36-14.94c-1.17,0.72-2.34,1.49-3.66,1.9
				c-2.76,0.61-3.27-3.57-0.51-3.8c3.48-1.85,6.38-4.25,9.71-6.2c1.53-0.7,3.25,1,2.54,2.54c-3.92,7.52-9.28,14.29-14.95,20.57
				C179.46,67.92,176.35,73.24,173.97,70.17z"/>
			<path d="M196.41,56.18c-2.28-0.01-4.56-0.03-6.84-0.02c-0.99,0-1.82-0.83-1.82-1.82c0-1.01,0.83-1.8,1.82-1.82
				c4.22-0.09,8.45-0.14,12.67-0.19c3.88-0.06,7.75-0.42,11.58-1.08c0.9-0.16,1.8,0.49,2.04,1.35c0.26,0.96-0.32,2.03-1.3,2.28
				C208.64,56.36,202.48,56.24,196.41,56.18z"/>
			<path d="M190.57,70.66c-0.48-2.98-0.92-5.98-1.18-8.98c-0.02-1.54,1.88-2.49,3.08-1.52c0.47,0.39,0.77,0.94,0.77,1.55
				c0.26,2.81,0.77,5.61,1.08,8.43C194.57,72.61,191,73.12,190.57,70.66z"/>
			<path d="M202.24,77.1c-0.32-5.79-0.27-11.63-1.37-17.34c-0.41-1.31,0.01-3.05,1.57-3.23c1.23-0.18,2.32,0.93,2.15,2.15
				c1.13,6.05,1.29,12.26,1.53,18.42c0.04,1.05-0.91,1.94-1.94,1.94C203.09,79.04,202.28,78.16,202.24,77.1z"/>
			<path d="M228.36,54.54c-0.41-4.47-0.69-8.98-1.43-13.41c-0.16-0.73-0.41-1.53,0.03-2.22c0.77-1.42,3.09-1.13,3.47,0.45
				c1.14,4.85,1.33,9.93,1.73,14.91C232.21,56.6,228.63,56.85,228.36,54.54z"/>
			<path d="M231.91,50.81c-1.31-2.56,2.91-3.53,4.24-4.79c4.06-2.79,8.56-5.82,10.62-10.46c-4.93,1.33-9.62,3.48-13.63,6.62
				c-0.4,0.38-0.85,0.74-1.14,1.21c-0.09,0.9-0.87,1.63-1.79,1.63c-0.98,0-1.8-0.82-1.8-1.8c0.7-5.08,10.95-9.21,15.35-10.84
				c1.25-0.33,2.53-0.89,3.83-0.74c1.44,0.24,2.79,1.27,3.11,2.73c0.27,5.6-6.32,10.52-10.42,13.56c-1.72,1.13-3.43,2.25-5.24,3.23
				C234.06,51.89,232.58,51.99,231.91,50.81z"/>
			<path d="M219.64,73.3c-1.26-1.69,0.73-2.94,1.88-3.93c3.62-3.12,6.91-6.6,9.55-10.6c6.37-8.97,9.06-18.69,7.88-29.66
				c-0.07-2.23,3.43-2.5,3.68-0.25c1.46,12.23-1.67,23.12-8.87,33.06c-2.41,3.51-5.28,6.71-8.59,9.39
				C223.61,72.36,221.51,75.35,219.64,73.3z"/>
			<path d="M256.43,70.08c-6.21-0.23-12.43-1.35-17.95-4.3c-4.88-2.42-9.85-5.17-13.36-9.44c-1.61-1.7-1.26-5.12,1.61-4.69
				c0.93,0.26,1.54,1.24,1.32,2.18c2.91,3.26,7.05,5.54,10.83,7.51c4.57,2.43,9.55,4.03,14.68,4.34c3.08,0.23,6.2,0.56,9.27,0.23
				c0.97-0.16,1.94,0.51,2.2,1.45C265.69,71.35,258.82,69.89,256.43,70.08z"/>
			<path d="M136.39,42.93c0-1,0.84-1.84,1.84-1.84s1.84,0.84,1.84,1.84s-0.84,1.84-1.84,1.84S136.39,43.93,136.39,42.93z"/>
		</g>
	</g>
	<g>
		<g>
			<path d="M40.53,54.85c-11.78-0.29-23.56-0.08-35.31,0.65c-1.92,0.12-1.93,3.12,0,3c11.76-0.73,23.54-0.94,35.31-0.65
				C42.46,57.9,42.46,54.9,40.53,54.85L40.53,54.85z"/>
		</g>
	</g>
	<g>
		<g>
			<path d="M290.65,54.08c11.38-0.36,22.78-0.11,34.14,0.76c1.93,0.15,1.92-2.85,0-3c-11.36-0.87-22.75-1.13-34.14-0.76
				C288.72,51.14,288.71,54.14,290.65,54.08L290.65,54.08z"/>
		</g>
	</g>
</g>
<g id="圖層_6" class="st4">
</g>
</svg>
