<?xml version="1.0" encoding="utf-8"?>
<!-- Generator: Adobe Illustrator 27.7.0, SVG Export Plug-In . SVG Version: 6.00 Build 0)  -->
<svg version="1.1" id="圖層_1" xmlns="http://www.w3.org/2000/svg" xmlns:xlink="http://www.w3.org/1999/xlink" x="0px" y="0px"
	 viewBox="0 0 55 145" style="enable-background:new 0 0 55 145;" xml:space="preserve">
<style type="text/css">
	.st0{fill:none;}
	.st1{fill:#294A26;}
	.st2{fill:#1F2214;}
	.st3{fill:#9E6924;}
	.st4{fill:#164323;}
	.st5{fill:#293B1D;}
	.st6{fill:#2A4D28;}
	.st7{fill:#749A2F;}
	.st8{fill:#76933C;}
	.st9{fill:#5F7D33;}
	.st10{fill:#3F562A;}
	.st11{fill:#101D0A;}
	.st12{fill:#C89A5D;}
	.st13{fill:#F2C1A3;}
	.st14{fill:#A87762;}
	.st15{fill:#3E3526;}
	.st16{fill:#28201C;}
	.st17{fill:#040000;}
	.st18{fill:#41617E;}
	.st19{fill:#DDB3A2;}
	.st20{fill:#A34529;}
	.st21{fill:#E7D0C8;}
	.st22{fill:#282828;}
	.st23{fill:#B1927D;}
	.st24{fill:#A3A399;}
	.st25{fill:#BF8466;}
	.st26{fill:#424242;}
	.st27{fill:#552D18;}
	.st28{fill:#A1BA39;}
	.st29{fill:#E2E1E1;}
	.st30{fill:#0D2037;}
	.st31{fill:#968272;}
	.st32{fill:#9CA2C4;}
	.st33{fill:#928884;}
	.st34{fill:#DCA88D;}
	.st35{fill:#BBB6C5;}
	.st36{fill:#9C6D4D;}
	.st37{fill:#080605;}
	.st38{fill:#2A6031;}
	.st39{fill:#FEFAFC;}
	.st40{fill:#509AB3;}
	.st41{fill:#4F431E;}
	.st42{fill:#3D6832;}
	.st43{fill:#84B733;}
	.st44{fill:#1B2912;}
	.st45{fill:#806F68;}
	.st46{fill:#4A3332;}
	.st47{fill:#9BD7F0;}
	.st48{fill:#78484B;}
	.st49{fill:#A1D9F2;}
	.st50{fill:#523D38;}
	.st51{fill:#C1A09C;}
	.st52{fill:#65676D;}
	.st53{fill:#C7BBAC;}
	.st54{fill:#5E6166;}
	.st55{fill:#CA997D;}
	.st56{fill:#C6C2B6;}
	.st57{fill:#17151C;}
	.st58{fill:#5D5A5C;}
	.st59{fill:#030810;}
	.st60{fill:none;stroke:#040000;stroke-width:0;stroke-linecap:round;stroke-linejoin:round;}
	.st61{fill:#9F8D89;}
	.st62{fill:#EECFCD;}
	.st63{fill:#BACAE8;}
	.st64{fill:#370504;}
	.st65{fill:#212022;}
	.st66{fill:#EC6B5E;}
</style>
<g>
	<path class="st0" d="M27.83,17.05c0.08-0.3,0.17-0.6,0.29-0.88c-0.01-0.01-0.02-0.02-0.04-0.03c-0.12,0.23-0.32,0.38-0.62,0.38
		c-0.01,0.07-0.03,0.14-0.04,0.21c0.12,0.03,0.25,0.09,0.37,0.22C27.81,16.98,27.82,17.02,27.83,17.05z"/>
	<path class="st0" d="M16.24,7.74c0.02-0.08,0.04-0.17,0.07-0.25c-0.01,0.02-0.02,0.04-0.03,0.06C16.26,7.61,16.25,7.67,16.24,7.74z
		"/>
	<path class="st0" d="M31.31,23.32c-0.11,0.03-0.22,0.02-0.32-0.01c-1.16,0.9-2.96,0.82-3.73-0.67c-0.39-0.68-0.45-1.46-0.27-2.2
		c-0.05-0.17-0.1-0.34-0.15-0.51c-0.2,0.82-0.54,1.56-1.34,1.97c0.74,1.03,0.29,2.38-0.59,3.26c0.12,0.01,0.25,0.03,0.37,0.04
		c0.22-0.06,0.43-0.14,0.65-0.24c0.33-0.13,0.71,0.02,0.85,0.35c0,0.01,0,0.01,0,0.01c1.94,0.11,3.89,0,5.56-0.96
		c0.05-0.44,0.18-0.78,0.36-1.06C32.24,23.25,31.76,23.2,31.31,23.32z"/>
	<path class="st0" d="M27.93,31.03c-0.15,0.02-0.31,0.04-0.46,0.06c0.14,0.24,0.23,0.5,0.26,0.77
		C27.81,31.58,27.87,31.31,27.93,31.03z"/>
	<path class="st0" d="M30.51,37.85c-0.61,1.62-0.56,3.83-1.95,4.99c-0.12,0.57-0.25,1.14-0.39,1.71c-0.08,0.33-0.15,0.68-0.23,1.02
		C29.46,43.3,29.88,40.47,30.51,37.85z"/>
	<path class="st0" d="M24.46,3.09c-1.24-0.26-2.52-0.13-3.75,0.21c0.49,0.02,0.96,0.1,1.4,0.29C22.86,3.17,23.67,3.02,24.46,3.09z"
		/>
	<path class="st0" d="M17.07,5.44c0.01,0.01,0.01,0.02,0.02,0.02c0-0.02,0.01-0.04,0.01-0.06C17.08,5.42,17.07,5.43,17.07,5.44z"/>
	<path class="st0" d="M29.71,6.93c-0.42-0.99-1.14-1.78-2.02-2.38c0.78,0.69,1.38,1.58,1.68,2.53C29.49,7.01,29.6,6.97,29.71,6.93z"
		/>
	<path class="st0" d="M27.35,33.44c-0.05,0.07-0.1,0.13-0.16,0.19c0.03,0.02,0.06,0.03,0.1,0.05C27.31,33.6,27.33,33.52,27.35,33.44
		z"/>
	<path class="st0" d="M17.27,48.86c-0.24-0.07-0.49-0.13-0.73-0.21c-0.09-0.03-0.18-0.06-0.26-0.09c0.09,0.38-0.04,0.8-0.5,0.86
		c-0.16,0.38-0.31,0.77-0.47,1.16C15.84,49.9,16.51,49.16,17.27,48.86z"/>
	<path class="st0" d="M9.62,78.11c-0.12,1.45-0.23,2.91-0.33,4.36c0.15-1.37,0.29-2.75,0.41-4.13C9.67,78.27,9.65,78.19,9.62,78.11z
		"/>
	<path class="st0" d="M8.6,93.21c-0.01,0.22-0.03,0.44-0.04,0.66c0.03-0.2,0.06-0.4,0.1-0.59C8.64,93.26,8.63,93.23,8.6,93.21z"/>
	<path class="st0" d="M24,50.16c-0.42-0.05-0.83-0.1-1.25-0.15c0.32,0.11,0.64,0.22,0.96,0.34C23.8,50.28,23.9,50.22,24,50.16z"/>
	<path class="st0" d="M13.51,28.78c-0.13,0.37-0.22,0.76-0.29,1.14c0.18-0.08,0.38-0.13,0.57-0.15
		C13.74,29.43,13.72,29.07,13.51,28.78z"/>
	<path class="st0" d="M16.54,6.73c-0.04,0.09-0.08,0.19-0.12,0.29c0,0.02,0,0.04-0.01,0.05c0.13-0.32,0.42-0.6,0.76-0.68
		c-0.02-0.07-0.04-0.15-0.05-0.22C16.95,6.38,16.62,6.47,16.54,6.73z"/>
	<path class="st0" d="M30.83,50.5c-0.02,0-0.05,0-0.07,0c0.02,0.01,0.03,0.02,0.05,0.03C30.81,50.51,30.82,50.5,30.83,50.5z"/>
	<path class="st0" d="M47.2,111.69c-0.22,0.04-0.43,0.03-0.64,0.01c-0.08,0.05-0.16,0.1-0.24,0.16c-0.36,0.17-0.67,0.42-0.96,0.68
		c1.07-0.3,2.12-0.71,3.11-1.19c-0.08-0.03-0.15-0.06-0.23-0.1C47.94,111.46,47.6,111.62,47.2,111.69z"/>
	<path class="st0" d="M8.97,71.58c0.07-0.6,0.15-1.19,0.23-1.78c-0.2,0.06-0.42,0.03-0.59-0.1c-0.02,0.05-0.04,0.09-0.07,0.14
		C8.57,70.44,8.64,71.07,8.97,71.58z"/>
	<path class="st0" d="M7.57,61.82c0.04,0.02,0.08,0.04,0.12,0.06c0.12,0.05,0.21,0.13,0.27,0.21c0.13-0.11,0.29-0.18,0.49-0.16
		c0.12,0,0.27-0.01,0.41-0.01c0.26-1.64,0.69-3.24,1.03-4.87c0.01-0.07,0.03-0.14,0.05-0.21c-0.48,1.52-1.02,3.01-1.7,4.44
		C8.04,61.52,7.81,61.69,7.57,61.82z"/>
	<path class="st0" d="M3.53,59.27c0.02,0.02,0.03,0.03,0.05,0.04c-0.01-0.04-0.02-0.08-0.03-0.12C3.55,59.22,3.54,59.24,3.53,59.27z
		"/>
	<path class="st0" d="M6.7,49.71c0.04-0.25,0.06-0.51,0.09-0.76c-0.72,2.12-1.5,4.24-2.18,6.37c0.06-0.14,0.11-0.27,0.16-0.41
		C5.27,53.12,6.29,51.52,6.7,49.71z"/>
	<path class="st0" d="M12.9,46.2c-0.61,1.92-1.12,3.9-1.63,5.88c0.09-0.25,0.18-0.51,0.28-0.76c0.28-0.54,1.18-0.3,1.15,0.31
		c-1.11,3.53-2.02,7.22-2.65,10.86c-0.03,0.23-0.2,0.41-0.4,0.5c-0.25,0.25-0.74,0.22-1.11,0.18c-0.18,0.06-0.39,0.04-0.55-0.08
		c-0.05-0.03-0.09-0.07-0.12-0.11c-0.07,0.07-0.16,0.12-0.26,0.15c0.13,0.1,0.24,0.22,0.34,0.36c0.11-0.08,0.24-0.14,0.4-0.14
		c0.51-0.01,0.8,0.65,0.45,1.01c-0.09,0.26-0.14,0.53-0.19,0.8c0,0.43-0.05,0.88-0.02,1.3c0.05,0.33,0.12,0.67,0.18,1.02
		c0.2,0.33,0.44,0.66,0.61,0.99c0.92-6.33,2.37-12.56,4.82-18.53c-0.1,0.07-0.22,0.12-0.35,0.12c-0.34,0-0.63-0.29-0.63-0.63
		s0.29-0.63,0.63-0.63c0.3,0,0.55,0.23,0.61,0.52c0.09-0.22,0.18-0.45,0.27-0.67c0.06-0.19,0.19-0.36,0.35-0.49
		c-0.36-0.17-0.65-0.39-0.83-0.69C13.68,47.24,13.17,46.8,12.9,46.2z"/>
	<path class="st0" d="M16.99,10.94c0.17-0.59,0.44-1.1,0.79-1.48c-0.22,0.01-0.44,0-0.66-0.01C17.05,9.94,17.01,10.44,16.99,10.94z"
		/>
	<path class="st0" d="M5.07,63.21c0.36-0.28,0.81-0.44,1.27-0.46c-0.36-0.17-0.75-0.36-1.15-0.58C5.14,62.51,5.1,62.86,5.07,63.21z"
		/>
	<path class="st0" d="M16.65,47.17c0.11,0.04,0.22,0.08,0.33,0.12c-0.07-0.07-0.15-0.13-0.22-0.2
		C16.73,47.12,16.69,47.14,16.65,47.17z"/>
	<path class="st0" d="M5.9,107.39c0.01-0.57,0.25-1.13,0.62-1.58c0.39-1.18,0.67-2.37,0.89-3.58c-0.61,2-1.5,3.94-2.25,5.91
		C5.34,107.83,5.59,107.57,5.9,107.39z"/>
	<path class="st0" d="M18.34,23.02c-0.25,0.05-0.5,0.1-0.76,0.14c0.45,0.11,0.89,0.32,1.31,0.6c-0.05-0.07-0.11-0.13-0.17-0.2
		C18.6,23.4,18.45,23.22,18.34,23.02z"/>
	<path class="st0" d="M21.09,19.12c0.12,0.03,0.24,0.12,0.35,0.24c0.09,0.04,0.18,0.09,0.26,0.14c0.13-0.33,0.29-0.64,0.51-0.91
		c-1.68,0.22-3.14-0.18-3.59-2.02c-0.45-0.23-0.81-0.59-1.09-1.03c0.01,0.03,0.02,0.07,0.03,0.11C18.1,17.39,19.5,18.41,21.09,19.12
		z"/>
	<path class="st0" d="M14.3,24.5c0.17-0.23,0.35-0.42,0.53-0.6c-0.42,0.14-0.84,0.29-1.25,0.47C13.81,24.4,14.05,24.44,14.3,24.5z"
		/>
	<path class="st0" d="M41.86,64.15c0.45-0.17,0.88-0.38,1.26-0.66c0.41-1.04-0.21-2.36-0.27-3.48c-0.39-2.27-0.83-4.48-1.38-6.7
		c0.03,0.38,0.07,0.77,0.11,1.15C41.67,56.74,43.42,62,41.86,64.15z"/>
	<path class="st0" d="M20.89,25.9c0.05-0.07,0.12-0.13,0.17-0.19c-0.19-0.11-0.37-0.24-0.54-0.37
		C20.65,25.52,20.78,25.71,20.89,25.9z"/>
	<path class="st0" d="M34.22,48c-0.08,0.16-0.16,0.32-0.24,0.47c-0.27,0.46-0.61,0.88-0.99,1.26c0.16,0.1,0.32,0.25,0.5,0.46
		c0.47,0.29,0.83,0.76,0.94,1.4c0.29,0.51,0.58,1.08,0.86,1.67c-0.18-0.81-0.35-1.63-0.54-2.43C34.57,49.89,34.16,48.95,34.22,48z"
		/>
	<path class="st0" d="M30.44,48.98c0.07,0.03,0.13,0.06,0.19,0.11c0.11,0,0.23,0,0.34,0c-0.11-0.08-0.23-0.15-0.34-0.26
		C30.58,48.89,30.5,48.93,30.44,48.98z"/>
	<path class="st0" d="M28.6,125.03c0.17-0.02,0.33-0.05,0.49-0.08c0.51-0.32,0.26-1.26,0.42-1.81c0.09-0.98,0.19-1.96,0.27-2.94
		c-0.09,0.81-0.27,1.59-0.67,2.29C29.18,123.44,29.07,124.4,28.6,125.03z"/>
	<path class="st0" d="M32.68,139.21c0.48-0.16,0.89-0.43,1.15-0.87c0.02-0.68-0.14-1.32-0.37-1.95c-0.03,0.21-0.08,0.42-0.15,0.63
		C33.66,137.87,33.3,138.7,32.68,139.21z"/>
	<path class="st0" d="M4.86,109c-0.15,0.43-0.31,0.85-0.44,1.28c0.32,0.18,0.66,0.33,1.01,0.46c-0.11-0.12-0.22-0.25-0.31-0.4
		C4.87,109.92,4.8,109.45,4.86,109z"/>
	<path class="st0" d="M19.02,86.99c0.02-0.56,0.05-1.12,0.04-1.68c-0.12,0.72-0.26,1.44-0.39,2.16
		C18.78,87.3,18.89,87.14,19.02,86.99z"/>
	<path class="st0" d="M20.06,108.43c0.02,0,0.04,0.01,0.07,0.01c-0.02-0.04-0.03-0.07-0.05-0.11
		C20.07,108.36,20.07,108.39,20.06,108.43z"/>
	<path class="st0" d="M29.51,59.72c0.03-0.05,0.06-0.09,0.1-0.14c-0.03-0.03-0.05-0.06-0.08-0.09
		C29.53,59.57,29.52,59.65,29.51,59.72z"/>
	<path class="st0" d="M24.54,103.19c0.13-0.02,0.26-0.03,0.4-0.05c-0.08-0.46-0.16-0.92-0.27-1.37
		C24.6,102.23,24.58,102.71,24.54,103.19z"/>
	<path class="st0" d="M42.68,65.34c-0.16,0.07-0.32,0.13-0.48,0.18c0.19,0.04,0.36,0.12,0.52,0.22
		C42.71,65.61,42.68,65.48,42.68,65.34z"/>
	<path class="st0" d="M36.22,106.01c0.01,0,0.02,0,0.04-0.01c0.19-0.05,0.38-0.1,0.57-0.15c-0.15-0.2-0.28-0.42-0.37-0.65
		C36.38,105.47,36.3,105.74,36.22,106.01z"/>
	<path class="st0" d="M24.13,116.27c0-0.15,0-0.3,0-0.46c-0.45-0.06-0.9-0.13-1.34-0.21c0.07,0.1,0.15,0.2,0.22,0.32
		C23.48,115.94,23.85,116.07,24.13,116.27z"/>
	<path class="st0" d="M29.55,139.73c0.07-0.24,0.25-0.45,0.53-0.48c-0.2-0.16-0.38-0.35-0.53-0.54
		C29.56,139.05,29.56,139.4,29.55,139.73z"/>
	<path class="st0" d="M24.2,123.58c0.65,0.56,1,1.48,0.58,2.31c0.1,0.03,0.18,0.08,0.26,0.12c-0.1-0.31,0.03-0.66,0.34-0.79
		c0.12-0.04,0.23-0.02,0.34,0.01c-0.56-0.51-0.72-1.31-0.73-2.17c-0.09-0.01-0.17-0.03-0.25-0.07
		C24.6,123.23,24.42,123.43,24.2,123.58z"/>
	<path class="st0" d="M29.92,118.56c0.02-0.34,0.02-0.67,0.03-1c-0.04,0.59-0.06,1.2-0.1,1.79
		C29.88,119.09,29.9,118.82,29.92,118.56z"/>
	<path class="st0" d="M24.07,140.55c-0.36-0.12-0.68-0.31-0.98-0.53c0.6,0.78,1.28,1.48,2.12,1.85
		C24.67,141.62,24.25,141.14,24.07,140.55z"/>
	<path class="st0" d="M26.15,114.37c-0.31,0.04-0.62,0.07-0.93,0.09c0.02,0.02,0.04,0.05,0.06,0.08c0.38,0.03,0.76,0.06,1.13,0.07
		c0-0.01,0.01-0.01,0.01-0.02C26.33,114.52,26.24,114.44,26.15,114.37z"/>
	<path class="st0" d="M30.12,126.17c-0.01-0.08-0.01-0.15-0.02-0.23c-0.04,0.03-0.08,0.06-0.12,0.08c0.04,0.05,0.08,0.08,0.12,0.14
		C30.11,126.16,30.11,126.17,30.12,126.17z"/>
	<path class="st0" d="M8.53,111.41c0.39,0.04,0.79,0.08,1.18,0.11c-0.23-0.07-0.46-0.13-0.7-0.17
		C8.86,111.36,8.7,111.39,8.53,111.41z"/>
	<path class="st0" d="M20.03,113.13c-0.3,0.07-0.6,0.13-0.91,0.19c0.64,0.16,1.28,0.31,1.93,0.45c-0.25-0.13-0.5-0.27-0.74-0.43
		C20.21,113.27,20.12,113.2,20.03,113.13z"/>
	<polygon class="st0" points="5.9,107.44 5.9,107.43 5.89,107.44 	"/>
	<path class="st0" d="M11.19,104.74c-0.21,0.84-0.47,1.68-0.83,2.49c0.33,0.06,0.64,0.16,0.96,0.27c-0.35-0.78-0.4-1.64,0.07-2.56
		C11.31,104.88,11.26,104.81,11.19,104.74z"/>
	<path class="st0" d="M18.08,114.58c-0.19-0.05-0.39-0.09-0.58-0.14c0.02,0.18,0.03,0.36,0.06,0.53
		C17.71,114.81,17.89,114.68,18.08,114.58z"/>
	<path class="st0" d="M19.41,130.38c0,2.31,0.48,4.58,1.6,6.6c-0.86-2.17-1.24-4.79-1.57-6.46
		C19.44,130.48,19.43,130.43,19.41,130.38z"/>
	<path class="st0" d="M25.4,115.98c0,0.3,0,0.61,0.01,0.92c0.06-0.31,0.15-0.61,0.29-0.9C25.59,115.99,25.5,115.99,25.4,115.98z"/>
	<path class="st0" d="M26.04,142.04c-0.12,0-0.23-0.01-0.34-0.03c0.33,0.09,0.68,0.14,1.06,0.11c0.61-0.11,0.99-0.54,1.22-1.19
		c-0.08,0.08-0.16,0.15-0.25,0.22C27.36,141.69,26.74,142.04,26.04,142.04z"/>
	<path class="st12" d="M40.67,44.05c0.06,0.85,0.15,1.7,0.31,2.54C40.91,45.74,40.8,44.89,40.67,44.05z"/>
	<path class="st12" d="M24.76,25.33c0.18-0.02,0.35-0.06,0.53-0.11c-0.12-0.01-0.25-0.03-0.37-0.04
		C24.87,25.23,24.82,25.28,24.76,25.33z"/>
	<path class="st12" d="M9.84,27.88c-1.02,4.95-1.22,10.06-1.34,15.08c-0.42,2.03-1.04,4.01-1.71,5.99
		c-0.03,0.25-0.06,0.51-0.09,0.76c-0.4,1.81-1.43,3.41-1.93,5.2c-0.04,0.14-0.1,0.28-0.16,0.41c-0.41,1.28-0.77,2.57-1.06,3.87
		c0.01,0.04,0.01,0.08,0.03,0.12c1.15,1.13,2.53,1.9,3.98,2.51c0.24-0.13,0.47-0.31,0.67-0.54c0.68-1.43,1.22-2.92,1.7-4.44
		c0.34-1.61,0.78-3.21,1.34-4.76c0.51-1.98,1.02-3.96,1.63-5.88c0.26,0.6,0.77,1.04,1.35,1.28c-0.07-0.12-0.11-0.25-0.14-0.39
		c-0.34-0.62-0.62-1.28-0.88-1.94c-0.63-1.32-4.05-11.86-0.83-10.85c0.46,0.24,0.49,0.94-0.01,1.13c-0.27,2.64,0.68,5.2,1.46,7.67
		c0.5,1.2,0.82,2.71,1.71,3.67c0.35,0.15,0.72,0.26,1.08,0.39c0.04-0.03,0.08-0.05,0.11-0.08c0.07,0.07,0.15,0.13,0.22,0.2
		c0.18,0.06,0.35,0.13,0.53,0.19c0.7,0.13,1.42,0.23,2.1,0.37c2.06,0.31,4.12,0.83,6.2,1.09c1,0.07,2,0.11,3,0.13
		c0.43-0.02,0.86-0.07,1.29-0.14c0.12-0.02,0.23,0.01,0.33,0.05c0.07-0.05,0.14-0.1,0.2-0.15c0.1,0.11,0.22,0.18,0.34,0.26
		c0.22,0,0.45,0,0.67,0c1.56-1.32,2.18-3.4,3.01-5.21c0.73-1.91,1.43-3.73,1.71-5.69c0.11-0.83,1.41-0.66,1.28,0.18
		c-0.55,3.4-1.84,6.6-3.42,9.63c-0.06,0.95,0.35,1.9,0.52,2.82c0.19,0.81,0.36,1.62,0.54,2.43c1.05,2.19,2,4.65,2.33,5.24
		c0.81,2.13,1.61,4.26,2.37,6.41c0.17-0.16,0.4-0.26,0.61-0.3c0.41-0.16,0.84-0.3,1.26-0.46c1.56-2.14-0.19-7.4-0.28-9.69
		c-0.04-0.38-0.08-0.77-0.11-1.15c-0.02-0.07-0.03-0.15-0.05-0.22c-0.52-2.06-1.18-4.09-1.75-6.13c-0.33-2.05-0.31-4.18-0.45-6.24
		c-0.06-0.58-0.06-1.18-0.23-1.73c-0.11-0.31,0-0.66,0.32-0.8c0.18-0.05,0.32-0.03,0.44,0.01c0.01-1.95,0.08-4.03,0-6.04
		c-0.21-0.07-0.39-0.23-0.43-0.52c-0.5-4.35-0.86-7.55-5.87-8.21c-0.24-0.03-0.49-0.07-0.73-0.11c-0.18,0.28-0.31,0.62-0.36,1.06
		c-1.67,0.96-3.61,1.07-5.56,0.96c0.29,1.17-1.76,1.27-2.54,1.34c-1.16-0.01-2.24-0.38-3.19-0.97c-0.05,0.07-0.12,0.12-0.17,0.19
		c-0.11-0.19-0.24-0.38-0.37-0.56c-0.61-0.45-1.15-0.99-1.63-1.58c-0.42-0.28-0.86-0.48-1.31-0.6c-0.21,0.04-0.42,0.08-0.62,0.14
		c-0.7,0.18-1.42,0.37-2.14,0.6c-0.18,0.17-0.36,0.36-0.53,0.6c-0.25-0.07-0.49-0.1-0.72-0.13c-0.6,0.27-1.16,0.58-1.66,0.99
		c-0.38,0.62-0.16,1.96-1.19,1.78c-0.35-0.09-0.55-0.46-0.46-0.8c0.01-0.11,0.03-0.21,0.05-0.32c-0.2,0.31-0.39,0.65-0.55,1.02
		c0,0,0.01,0,0.01,0.01C10.02,27.29,10,27.62,9.84,27.88z M28.56,42.85c1.39-1.16,1.34-3.38,1.95-4.99
		c-0.63,2.62-1.05,5.45-2.57,7.72c0.08-0.34,0.16-0.69,0.23-1.02C28.3,43.99,28.43,43.42,28.56,42.85z M27.93,31.03
		c-0.06,0.28-0.13,0.55-0.19,0.83c-0.04-0.27-0.13-0.54-0.26-0.77C27.63,31.07,27.78,31.05,27.93,31.03z M27.35,33.44
		c-0.02,0.08-0.04,0.16-0.06,0.24c-0.03-0.02-0.06-0.04-0.1-0.05C27.25,33.57,27.31,33.5,27.35,33.44z M26.91,39.92
		c0,1.12-0.93,2.05-2.05,2.05s-2.05-0.93-2.05-2.05s0.93-2.05,2.05-2.05S26.91,38.8,26.91,39.92z M25.6,31.11
		c2.26,1.38,0.39,4.91-1.98,3.58C21.19,33.44,23.22,29.74,25.6,31.11z M13.51,28.78c0.2,0.29,0.23,0.65,0.28,0.99
		c-0.2,0.02-0.39,0.08-0.57,0.15C13.29,29.54,13.39,29.15,13.51,28.78z"/>
	<path class="st13" d="M24.76,25.33c0.05-0.05,0.11-0.1,0.16-0.15c0.88-0.88,1.34-2.23,0.59-3.26c0.8-0.41,1.14-1.15,1.34-1.97
		c-0.18-0.71-0.27-1.44-0.25-2.17c-0.07-0.54,0.35-1.14,0.82-1.04c0.01-0.07,0.03-0.14,0.04-0.21c-0.05,0-0.09,0.02-0.15,0.01
		c-0.43-0.11-0.55-0.58-0.43-0.95c0.02-0.17,0.05-0.35,0.08-0.52c-0.28-0.22-0.51-0.5-0.65-0.83c-0.24-0.56-0.29-1.19-0.31-1.82
		c-0.21-0.02-0.42-0.08-0.62-0.15c-0.47,0.42-1.12,0.88-1.69,0.4c-0.51-0.58-0.67-1.41-1.1-2.06c-0.67-0.03-1.3-0.36-1.66-0.92
		c-1.03,0.73-2.11,0.48-2.83-0.23C18,9.46,17.89,9.46,17.79,9.47c-0.36,0.37-0.62,0.89-0.79,1.48c-0.05,1.56,0.14,3.14,0.53,4.59
		c0.28,0.44,0.65,0.8,1.09,1.03c0.45,1.84,1.91,2.24,3.59,2.02c-0.22,0.27-0.38,0.59-0.51,0.91c0.8,0.56,0.85,1.85,0.68,2.77
		c-0.03,0.19-0.15,0.35-0.3,0.45c-0.12,0.47-0.36,0.79-0.77,0.76c-0.34-0.05-0.59-0.38-0.54-0.71c0.02-0.16,0.04-0.32,0.06-0.48
		c-0.16,0.49-0.26,0.99-0.22,1.5C21.76,24.83,23.24,25.53,24.76,25.33z"/>
	<path class="st13" d="M8.6,65.17c-0.1,0.49-0.17,0.99-0.17,1.49c0.02,0.25,0.16,0.53,0.33,0.82c-0.06-0.35-0.14-0.69-0.18-1.02
		C8.56,66.05,8.6,65.6,8.6,65.17z"/>
	<path class="st13" d="M8.54,69.84c0.03-0.04,0.05-0.09,0.07-0.14c-0.06-0.05-0.11-0.1-0.15-0.17c-1.01-1.56-1.67-3.05-1.03-4.91
		c0.1-0.36,0.22-0.87,0.53-1.11c-0.1-0.14-0.22-0.26-0.34-0.36c-0.13,0.04-0.28,0.05-0.45-0.02c-0.23-0.11-0.51-0.24-0.82-0.38
		c-0.46,0.02-0.91,0.19-1.27,0.46c-0.16,2.17,0.12,4.33,0.07,6.51c-0.06,1.43-0.29,3.06,0.73,4.23c0.25,0.28,0.52,0.53,0.79,0.78
		c0.63,0.17,1.35,0.06,1.86-0.34c0.05-0.04,0.1-0.09,0.15-0.14c0.09-0.89,0.19-1.78,0.3-2.66C8.64,71.07,8.57,70.44,8.54,69.84z"/>
	<path class="st13" d="M44.52,71.47c-1.05-1.75-1.64-3.69-1.8-5.72c-0.16-0.1-0.33-0.17-0.52-0.22c-0.05,0.02-0.11,0.04-0.16,0.06
		c-0.46,0.13-1.13,0.53-1.64,0.49c1.19,3.39,2.28,6.8,3.25,10.26C44.52,74.94,44.82,73.02,44.52,71.47z"/>
	<path class="st13" d="M43.99,77.59C44,77.6,44,77.61,44,77.63c1.26,0.09,2.6-0.94,2.18-2.57c-0.11-0.39-0.23-0.77-0.34-1.16
		C45.61,75.73,44.96,77.57,43.99,77.59z"/>
	<path class="st13" d="M19.77,123.36c0.02,0.06,0.01,0.11,0.01,0.17c0.01,0.01,0.02,0.01,0.02,0.02c0.67-0.63,1.72-0.87,2.61-0.37
		c0.65-0.21,1.29,0,1.78,0.41c0.22-0.16,0.4-0.36,0.54-0.59c-0.18-0.09-0.32-0.26-0.34-0.47c-0.22-2.08-0.27-4.17-0.27-6.26
		c-0.28-0.2-0.65-0.33-1.13-0.35c-0.06-0.11-0.14-0.21-0.22-0.32c-1.58-0.28-3.15-0.64-4.71-1.02c-0.19,0.11-0.37,0.23-0.52,0.39
		C17.97,117.82,19.1,120.55,19.77,123.36z"/>
	<path class="st13" d="M25.99,125.4c0.1-0.1,0.22-0.17,0.36-0.18c0.74-0.07,1.54-0.08,2.26-0.18c0.47-0.63,0.57-1.6,0.51-2.54
		c0.4-0.7,0.58-1.48,0.67-2.29c0.03-0.28,0.05-0.57,0.07-0.85c0.04-0.6,0.05-1.2,0.1-1.79c0.01-0.51,0.02-1.03,0.01-1.54
		c-0.89,0.1-1.78,0.15-2.68,0.1c-0.53-0.02-1.06-0.06-1.6-0.11c-0.14,0.28-0.23,0.58-0.29,0.9c0.01,1.34,0.04,2.69,0.14,3.96
		c-0.07,0.71,0.54,1.98-0.43,2.22c-0.04,0.01-0.08-0.01-0.12-0.01c0.01,0.87,0.17,1.67,0.73,2.17
		C25.82,125.27,25.9,125.33,25.99,125.4z"/>
	<path class="st13" d="M26.41,114.61c0.01,0,0.02,0,0.03,0c-0.01-0.01-0.02-0.01-0.02-0.02C26.42,114.6,26.41,114.6,26.41,114.61z"
		/>
	<path class="st14" d="M27.83,17.05c0.08,0.15,0.1,0.33,0.04,0.49c-0.13,1.17,0.2,2.3,0.64,3.37c0.27,0.61,0.55,1.22,0.96,1.75
		c0.21,0.27,0.16,0.68-0.11,0.89c-0.27,0.21-0.67,0.16-0.89-0.11c-0.64-0.9-1.16-1.91-1.49-2.98c-0.18,0.74-0.12,1.52,0.27,2.2
		c0.77,1.49,2.56,1.56,3.73,0.67c-0.41-0.1-0.68-0.58-0.39-0.99c0.14-0.16,0.31-0.26,0.5-0.31c0.03-0.6,0.44-1.35,0.44-1.85
		c0.14-0.74,0.23-1.49,0.3-2.24c-0.42,2.51-1.01,4.74-1.77,4.49c-0.32-0.09-0.53-0.44-0.44-0.77c0.9-3.28,1.48-6.58,1.76-9.93
		c-0.25,1.59-0.76,3.13-1.25,4.66c-0.11,0.33-0.45,0.54-0.78,0.45c-0.34-0.09-0.54-0.45-0.45-0.79c0.77-2.66,1.65-5.23,1.13-7.99
		c-0.06-0.4-0.18-0.76-0.33-1.11c-0.11,0.04-0.22,0.08-0.34,0.14c-0.29-0.95-0.9-1.83-1.68-2.53c-0.39-0.26-0.81-0.49-1.24-0.68
		c-0.64-0.39-1.31-0.64-1.99-0.78c-0.8-0.06-1.6,0.08-2.35,0.5c-0.44-0.19-0.92-0.28-1.4-0.29c-0.77,0.21-1.53,0.51-2.24,0.86
		c-0.53,0.29-1,0.74-1.38,1.25c0,0.02-0.01,0.04-0.01,0.06c0.09,0.1,0.15,0.23,0.15,0.38c0.01,0.14-0.04,0.24-0.11,0.33
		c0.01,0.07,0.03,0.15,0.05,0.22c0.15-0.03,0.3-0.03,0.46,0.03c0.05,0.02,0.07,0.07,0.12,0.1c0.11-0.02,0.23,0,0.34,0.05
		c0.07-0.28,0.14-0.55,0.17-0.76c0.11-0.67,0.52-1.95,1.36-1.16c0.35,0.53-0.18,1.29-0.21,1.82c-0.14,0.47-0.06,1.27-0.48,1.54
		c2.44-0.17,4.74,0.74,5.51,3.41c0.07-0.61,0.66-0.98,1.22-1.11c2.27-0.57,3.03,2.27,2.74,4.01c-0.1,0.47-0.06,1.32-0.31,1.82
		c0.01,0.01,0.02,0.02,0.04,0.03C28,16.45,27.91,16.75,27.83,17.05z M21.9,4.63c-0.05,0.85-0.04,1.71-0.04,2.55
		c0,0.34-0.29,0.63-0.62,0.63c-0.34,0-0.63-0.29-0.63-0.63c0.13-0.95-0.29-2.52,0.39-3.23C21.44,3.67,22.04,4.14,21.9,4.63z"/>
	<path class="st14" d="M31.54,9.05c0,0,0-0.01-0.01-0.01c0,0.01,0,0.03,0,0.04C31.54,9.07,31.54,9.06,31.54,9.05z"/>
	<path class="st14" d="M18.12,7.83c-0.09,0.11-0.18,0.22-0.26,0.32c0.2-0.04,0.4-0.05,0.59-0.08C18.3,8.01,18.19,7.93,18.12,7.83z"
		/>
	<path class="st14" d="M34.48,21.02c0.23-3.04-0.29-5.92-1.33-8.63c0.19,3.02,0.17,6.05-0.55,8.99c-0.05,0.17-0.09,0.37-0.14,0.58
		c0.01,0,0.01,0,0.02,0c0.73,0.1,1.49,0.21,2.24,0.37c0.21-0.19,0.37-0.42,0.5-0.68c-0.03,0-0.06,0.02-0.09,0.02
		C34.77,21.67,34.48,21.37,34.48,21.02z"/>
	<path class="st14" d="M34.13,11.22c0.23,0.53,0.43,1.07,0.63,1.61C34.7,12.19,34.55,11.62,34.13,11.22z"/>
	<path class="st14" d="M22.16,10.1c-1.17-1.05-2.63-0.73-4.05-0.65c0.72,0.7,1.8,0.96,2.83,0.23c0.37,0.56,1,0.89,1.66,0.92
		C22.48,10.41,22.34,10.24,22.16,10.1z"/>
	<path class="st14" d="M26.77,11.89c-0.21-0.39-0.66-0.44-1.03-0.27c0,0.14-0.04,0.3-0.17,0.47c-0.06,0.05-0.12,0.11-0.18,0.17
		c0.2,0.08,0.4,0.13,0.62,0.15c0.02,0.63,0.08,1.26,0.31,1.82c0.14,0.33,0.37,0.61,0.65,0.83C27.14,13.97,27.3,12.86,26.77,11.89z"
		/>
	<path class="st15" d="M26.67,126.56c0.68,1.7,1.12,4.49,1.44,5.22c0.46,1.58,1.32,4.44,1.44,6.93c0.15,0.19,0.33,0.38,0.53,0.54
		c0.06-0.01,0.12-0.02,0.18-0.01c0.72,0.16,1.66,0.21,2.42-0.03c0.62-0.51,0.98-1.34,0.63-2.2c0.07-0.21,0.11-0.42,0.15-0.63
		c-0.58-1.56-1.7-3-2.08-4.64c-0.63-1.8-1.07-3.68-1.26-5.58c-0.01,0-0.01-0.01-0.02-0.01c-0.04-0.05-0.08-0.09-0.12-0.14
		c-0.67,0.42-1.54,0.39-2.31,0.47C27.38,126.49,27.01,126.55,26.67,126.56z"/>
	<path class="st15" d="M24.2,123.58c-0.48-0.41-1.13-0.63-1.78-0.41c-0.89-0.5-1.94-0.26-2.61,0.37c0.03,0.02,0.06,0.04,0.1,0.06
		c0.22-0.05,0.47,0.03,0.61,0.22c0.05,0.07,0.08,0.13,0.1,0.19c0.98,0.5,2.07,0.82,3.1,0.63c0.81-0.22,1.15,1.02,0.34,1.24
		c-0.4,0.12-0.81,0.18-1.22,0.16c-0.54-0.06-1.72-0.35-2.73-0.8c-0.44,1.67-0.7,3.42-0.7,5.14c0.01,0.05,0.02,0.1,0.04,0.15
		c0.33,1.67,0.71,4.29,1.57,6.46c0.24,0.44,0.51,0.87,0.82,1.28c0.4,0.55,0.8,1.17,1.26,1.75c0.3,0.22,0.62,0.41,0.98,0.53
		c0.17,0.58,0.6,1.07,1.15,1.31c0.03,0.01,0.06,0.02,0.08,0.03c0.13,0.05,0.27,0.08,0.4,0.11c0.11,0.02,0.22,0.03,0.34,0.03
		c0.69,0,1.31-0.36,1.69-0.9c0.09-0.07,0.17-0.14,0.25-0.22c1.14-3.37-2.21-12.74-2.93-14.88c0-0.01,0-0.02-0.01-0.03
		c-0.09-0.04-0.17-0.09-0.26-0.12C25.2,125.07,24.85,124.14,24.2,123.58z"/>
	<path class="st16" d="M33.48,50.18c0.3,0.35,0.62,0.84,0.94,1.4C34.31,50.94,33.95,50.47,33.48,50.18z"/>
	<path class="st16" d="M42.22,113.04c1.06-0.04,2.11-0.22,3.14-0.51c0.3-0.26,0.6-0.51,0.96-0.68c0.08-0.06,0.16-0.11,0.24-0.16
		c0.21,0.02,0.42,0.02,0.64-0.01c0.41-0.07,0.75-0.22,1.05-0.44c0.07,0.04,0.15,0.07,0.23,0.1c0.57-0.28,1.14-0.57,1.67-0.88
		c0,0,0,0,0,0c-2.37-4.63-2.93-9.79-3.81-14.84c-0.74-3.89-1.51-7.9-2.23-11.78c-2.81-11.34-6.1-22.87-11.77-33.12
		c-0.12-0.08-0.19-0.21-0.23-0.36c-0.41,0.13-0.84,0.15-1.28,0.13c-0.01,0.01-0.02,0.02-0.02,0.02c-0.01-0.01-0.03-0.02-0.05-0.03
		c-0.25-0.01-0.5-0.01-0.74-0.01c-0.41,0-0.81-0.01-1.22-0.02c-0.74,0.02-1.48-0.04-1.86-0.02c-0.28-0.02-0.56-0.07-0.84-0.1
		c-0.7-0.05-1.41-0.11-2.11-0.19c-0.1,0.06-0.2,0.12-0.29,0.19c-0.31-0.13-0.64-0.23-0.96-0.34c-1.85-0.26-3.68-0.63-5.48-1.14
		c-0.77,0.3-1.43,1.04-1.95,1.72c-3.56,8.79-4.91,18.14-5.7,27.53c0.02,0.08,0.05,0.16,0.08,0.23c-0.12,1.38-0.26,2.75-0.41,4.13
		c-0.13,1.82-0.24,3.64-0.36,5.46c-0.16,1.76-0.23,3.52-0.33,5.28c0.02,0.02,0.03,0.05,0.06,0.07c-0.04,0.2-0.06,0.4-0.1,0.59
		c-0.16,2.81-0.4,5.61-1.15,8.34c0,0,0,0.01,0,0.01c-0.22,1.21-0.5,2.41-0.89,3.58c-0.37,0.45-0.61,1.01-0.62,1.58
		c-0.31,0.18-0.56,0.44-0.74,0.74c-0.11,0.29-0.2,0.57-0.3,0.86c-0.06,0.46,0.01,0.93,0.26,1.34c0.09,0.15,0.2,0.28,0.31,0.4
		c0.98,0.37,2.04,0.56,3.11,0.67c0.16-0.02,0.32-0.04,0.48-0.06c0.24,0.04,0.47,0.11,0.7,0.17c0.7,0.05,1.38,0.1,2.04,0.17
		c2.49,0.38,4.92,1.04,7.36,1.64c0.3-0.06,0.61-0.12,0.91-0.19c0.09,0.07,0.18,0.14,0.28,0.21c0.24,0.16,0.49,0.3,0.74,0.43
		c0.6,0.13,1.2,0.26,1.8,0.37c0.5,0.12,1.01,0.21,1.51,0.28c0.12-0.1,0.26-0.17,0.42-0.17c0.17,0,0.33,0.08,0.45,0.2
		c0.31-0.02,0.62-0.05,0.93-0.09c0.09,0.08,0.18,0.15,0.27,0.23c0.01,0.01,0.02,0.01,0.02,0.02c1.17,0.04,2.34-0.02,3.51-0.13
		c0.04-0.08,0.08-0.16,0.14-0.22c0.27-0.27,0.75-0.21,0.96,0.11c3.08-0.35,6.16-0.93,9.28-0.82c0.31,0,0.56,0.2,0.66,0.48
		c0.2,0,0.39-0.02,0.59-0.03C41.45,113.59,41.65,113.04,42.22,113.04z M5.9,107.44C5.9,107.44,5.9,107.44,5.9,107.44
		C5.9,107.44,5.9,107.44,5.9,107.44C5.9,107.43,5.9,107.43,5.9,107.44z M11.32,107.5c-0.31-0.11-0.63-0.2-0.96-0.27
		c0.36-0.81,0.61-1.65,0.83-2.49c0.07,0.07,0.12,0.14,0.2,0.2C10.92,105.86,10.97,106.72,11.32,107.5z M19.02,86.99
		c-0.12,0.15-0.24,0.31-0.35,0.48c0.14-0.72,0.27-1.44,0.39-2.16C19.07,85.87,19.04,86.43,19.02,86.99z M20.06,108.43
		c0.01-0.03,0.01-0.06,0.02-0.1c0.02,0.04,0.03,0.07,0.05,0.11C20.1,108.43,20.08,108.43,20.06,108.43z M24.54,103.19
		c0.04-0.48,0.06-0.96,0.12-1.41c0.12,0.45,0.19,0.91,0.27,1.37C24.81,103.16,24.67,103.17,24.54,103.19z M29.51,59.72
		c0.01-0.08,0.01-0.15,0.02-0.23c0.03,0.03,0.05,0.06,0.08,0.09C29.58,59.63,29.54,59.67,29.51,59.72z M36.25,106
		c-0.01,0-0.02,0-0.04,0.01c0.08-0.27,0.16-0.54,0.23-0.81c0.1,0.23,0.22,0.45,0.37,0.65C36.63,105.91,36.44,105.96,36.25,106z"/>
	<path class="st16" d="M49.93,106.29c-0.14-1.07-0.48-2.16-0.85-3.19c0.07,0.37,0.14,0.74,0.22,1.1
		C49.46,104.92,49.69,105.6,49.93,106.29z"/>
	<path class="st16" d="M51.97,107.04c-0.52-0.41-1.25-0.53-1.88-0.34c0.42,1.13,0.9,2.23,1.38,3.33c0.11,0.29,0.09,0.59-0.01,0.86
		C52.74,109.98,53.41,108.29,51.97,107.04z"/>
	<path class="st16" d="M23.62,34.7c2.37,1.32,4.24-2.2,1.98-3.58C23.22,29.74,21.19,33.44,23.62,34.7z"/>
	<circle class="st16" cx="24.86" cy="39.92" r="2.05"/>
	<path class="st17" d="M28.48,23.43c0.22,0.27,0.61,0.33,0.89,0.11c0.27-0.21,0.33-0.62,0.11-0.89c-0.41-0.53-0.7-1.14-0.96-1.75
		c-0.44-1.06-0.77-2.2-0.64-3.37c0.06-0.16,0.03-0.34-0.04-0.49c-0.02-0.03-0.02-0.07-0.04-0.09c-0.12-0.13-0.25-0.2-0.37-0.22
		c-0.48-0.11-0.89,0.49-0.82,1.04c-0.02,0.73,0.07,1.46,0.25,2.17c0.04,0.17,0.09,0.34,0.15,0.51
		C27.33,21.51,27.84,22.53,28.48,23.43z"/>
	<path class="st17" d="M21,3.95c-0.69,0.7-0.26,2.28-0.39,3.23c0,0.34,0.29,0.63,0.63,0.63c0.34,0,0.62-0.29,0.62-0.63
		c0-0.85-0.01-1.71,0.04-2.55C22.04,4.14,21.44,3.67,21,3.95z"/>
	<path class="st17" d="M21.31,23.47c0.4,0.04,0.65-0.28,0.77-0.76c0.15-0.1,0.27-0.25,0.3-0.45c0.17-0.93,0.12-2.21-0.68-2.77
		c-0.08-0.06-0.17-0.1-0.26-0.14c-0.11-0.12-0.22-0.21-0.35-0.24c-1.59-0.71-2.99-1.73-3.54-3.48c-0.01-0.03-0.02-0.07-0.03-0.11
		c-0.39-1.45-0.59-3.03-0.53-4.59c0.02-0.5,0.06-1,0.13-1.49c0.22,0.02,0.44,0.02,0.66,0.01c0.11,0,0.21-0.01,0.32-0.01
		c1.42-0.09,2.88-0.41,4.05,0.65c0.18,0.14,0.32,0.32,0.45,0.5c0.43,0.65,0.59,1.47,1.1,2.06c0.56,0.48,1.22,0.02,1.69-0.4
		c0.06-0.06,0.12-0.11,0.18-0.17c0.13-0.17,0.17-0.32,0.17-0.47c0.37-0.17,0.82-0.12,1.03,0.27c0.53,0.97,0.37,2.08,0.2,3.17
		c-0.03,0.17-0.05,0.35-0.08,0.52c-0.12,0.37,0,0.84,0.43,0.95c0.06,0.01,0.1-0.01,0.15-0.01c0.3,0,0.5-0.15,0.62-0.38
		c0.26-0.5,0.21-1.35,0.31-1.82c0.29-1.74-0.47-4.58-2.74-4.01c-0.56,0.13-1.15,0.5-1.22,1.11c-0.77-2.66-3.07-3.58-5.51-3.41
		c0.42-0.26,0.34-1.06,0.48-1.54c0.03-0.52,0.56-1.29,0.21-1.82c-0.84-0.79-1.25,0.49-1.36,1.16c-0.02,0.21-0.1,0.48-0.17,0.76
		c-0.11-0.04-0.22-0.06-0.34-0.05c-0.04-0.03-0.06-0.08-0.12-0.1c-0.16-0.07-0.31-0.07-0.46-0.03c-0.33,0.08-0.62,0.36-0.76,0.68
		c0-0.02,0-0.04,0.01-0.05c0.04-0.1,0.08-0.19,0.12-0.29c0.08-0.26,0.4-0.36,0.58-0.56c0.07-0.09,0.12-0.19,0.11-0.33
		c0-0.14-0.06-0.27-0.15-0.38c-0.01-0.01-0.01-0.02-0.02-0.02c0.01-0.01,0.02-0.02,0.03-0.03c0.37-0.51,0.85-0.96,1.38-1.25
		c0.71-0.36,1.47-0.65,2.24-0.86c1.23-0.34,2.51-0.46,3.75-0.21c0.68,0.14,1.35,0.39,1.99,0.78c0.44,0.19,0.85,0.42,1.24,0.68
		c0.88,0.6,1.6,1.4,2.02,2.38c0.15,0.35,0.27,0.71,0.33,1.11c0.52,2.76-0.36,5.32-1.13,7.99c-0.09,0.34,0.11,0.69,0.45,0.79
		c0.33,0.09,0.67-0.11,0.78-0.45c0.49-1.54,1-3.07,1.25-4.66c-0.28,3.35-0.86,6.65-1.76,9.93c-0.09,0.33,0.11,0.68,0.44,0.77
		c0.77,0.26,1.35-1.97,1.77-4.49c-0.07,0.75-0.16,1.5-0.3,2.24c0,0.5-0.4,1.25-0.44,1.85c-0.19,0.06-0.37,0.15-0.5,0.31
		c-0.29,0.41-0.02,0.88,0.39,0.99c0.1,0.03,0.21,0.03,0.32,0.01c0.46-0.12,0.93-0.07,1.4,0c0.25,0.04,0.49,0.08,0.73,0.11
		c5.02,0.65,5.37,3.85,5.87,8.21c0.04,0.29,0.22,0.45,0.43,0.52c0.41,0.13,0.96-0.13,0.89-0.7c-0.33-2.44-0.38-5.21-2.12-7.13
		c-0.95-1.14-2.34-1.68-3.79-2c-0.75-0.17-1.52-0.28-2.24-0.37c-0.01,0-0.01,0-0.02,0c0.05-0.2,0.09-0.41,0.14-0.58
		c0.72-2.94,0.74-5.98,0.55-8.99c1.04,2.71,1.56,5.59,1.33,8.63c0.01,0.36,0.3,0.65,0.66,0.65c0.03,0,0.06-0.01,0.09-0.02
		c0.32-0.05,0.56-0.31,0.57-0.63c-0.03-2.14,0.1-4.32-0.44-6.41c-0.18-0.59-0.38-1.18-0.59-1.78c-0.19-0.54-0.4-1.08-0.63-1.61
		c-0.38-0.9-0.81-1.77-1.3-2.6c0-0.03-0.01-0.06-0.01-0.09c-0.03-0.23-0.16-0.37-0.32-0.44c-0.52-0.82-1.1-1.59-1.76-2.28
		c-0.06-0.02-0.12-0.03-0.18-0.02c-0.82-1.49-2.13-2.68-3.91-3.29c-2.94-1.6-6.41-0.83-9.18,0.77c-1.05,0.79-2.03,1.97-2.23,3.3
		c-0.18,0.5-0.26,1.05-0.26,1.5c0,0.42,0.33,0.62,0.65,0.61c-0.87,1.42-0.58,3.34-0.57,4.96c-0.04,3.24,2.56,5.95,5.59,6.81
		c0.2,0.56,0.23,1.22,0.18,1.84c-0.01,0.16-0.03,0.32-0.06,0.48C20.71,23.1,20.97,23.43,21.31,23.47z M18.12,7.83
		c0.07,0.1,0.18,0.19,0.33,0.24c-0.2,0.02-0.39,0.04-0.59,0.08C17.94,8.04,18.03,7.94,18.12,7.83z M31.54,9.05c0,0.01,0,0.02,0,0.03
		c0-0.01,0-0.03,0-0.04C31.54,9.04,31.54,9.05,31.54,9.05z M16.24,7.74c0.01-0.06,0.02-0.12,0.03-0.19
		c0.01-0.02,0.02-0.04,0.03-0.06C16.28,7.57,16.26,7.65,16.24,7.74z"/>
	<path class="st17" d="M10.73,27.15c1.03,0.18,0.81-1.16,1.19-1.78c0.49-0.41,1.06-0.73,1.66-0.99c0.4-0.18,0.82-0.33,1.25-0.47
		c0.71-0.23,1.44-0.42,2.14-0.6c0.2-0.06,0.41-0.1,0.62-0.14c0.26-0.04,0.51-0.09,0.76-0.14c0.1,0.2,0.25,0.38,0.38,0.54
		c0.05,0.07,0.11,0.13,0.17,0.2c0.48,0.59,1.02,1.13,1.63,1.58c0.18,0.13,0.36,0.25,0.54,0.37c0.95,0.59,2.02,0.95,3.19,0.97
		c0.79-0.07,2.83-0.17,2.54-1.34c0-0.01,0-0.01,0-0.01c-0.14-0.33-0.52-0.48-0.85-0.35c-0.22,0.1-0.43,0.18-0.65,0.24
		c-0.18,0.05-0.35,0.09-0.53,0.11c-1.52,0.21-3-0.5-4.16-1.55c-0.43-0.39-0.82-0.83-1.15-1.28c-0.03-0.11-0.08-0.2-0.14-0.27
		c-0.07-0.39-0.61-0.64-1.07-0.5c-2.03,0.31-4.04,0.85-5.89,1.77c-1.17,0.41-1.82,1.37-2.02,2.53c-0.02,0.11-0.04,0.21-0.05,0.32
		C10.19,26.69,10.39,27.06,10.73,27.15z"/>
	<path class="st17" d="M51.46,110.04c-0.48-1.11-0.96-2.21-1.38-3.33c-0.05-0.14-0.1-0.28-0.15-0.42c-0.24-0.68-0.47-1.37-0.64-2.08
		c-0.07-0.37-0.14-0.74-0.22-1.1c-1.52-7.68-2.57-15.53-4.47-23.13c-0.19-0.78-0.4-1.56-0.61-2.34c0-0.01-0.01-0.03-0.01-0.04
		c0.96-0.01,1.62-1.86,1.85-3.7c0.19-1.47,0.11-2.93-0.29-3.39c-1.14-1.65-1.46-3.56-1.63-5.56c-0.03-0.1-0.07-0.17-0.11-0.24
		c0.59-0.47,0.98-1.09,0.81-1.95c-0.61-4.74-1.62-9.37-3.02-13.97c-0.28-0.72-0.48-1.46-0.62-2.2c-0.16-0.84-0.25-1.68-0.31-2.54
		c-0.1-1.3-0.13-2.61-0.26-3.92c-0.09-0.57-0.07-1.73-0.67-1.94c-0.12-0.04-0.26-0.06-0.44-0.01c-0.32,0.13-0.43,0.48-0.32,0.8
		c0.17,0.56,0.17,1.16,0.23,1.73c0.14,2.07,0.11,4.19,0.45,6.24c0.57,2.05,1.23,4.07,1.75,6.13c0.02,0.07,0.03,0.15,0.05,0.22
		c0.55,2.22,0.99,4.43,1.38,6.7c0.06,1.11,0.68,2.44,0.27,3.48c-0.38,0.28-0.81,0.49-1.26,0.66c-0.42,0.16-0.85,0.3-1.26,0.46
		c-0.21,0.04-0.44,0.15-0.61,0.3c-0.77-2.15-1.56-4.28-2.37-6.41c-0.34-0.6-1.28-3.06-2.33-5.24c-0.28-0.59-0.58-1.16-0.86-1.67
		c-0.32-0.57-0.64-1.05-0.94-1.4c-0.17-0.2-0.34-0.35-0.5-0.46c0.38-0.37,0.73-0.8,0.99-1.26c0.08-0.16,0.16-0.31,0.24-0.47
		c1.58-3.03,2.87-6.24,3.42-9.63c0.12-0.83-1.17-1-1.28-0.18c-0.28,1.96-0.98,3.78-1.71,5.69c-0.83,1.81-1.44,3.89-3.01,5.21
		c-0.22,0-0.45,0-0.67,0c-0.11,0-0.23,0-0.34,0c-0.06-0.05-0.12-0.08-0.19-0.11c-0.1-0.04-0.22-0.07-0.33-0.05
		c-0.43,0.07-0.86,0.12-1.29,0.14c-1-0.02-2-0.06-3-0.13c-2.07-0.25-4.14-0.77-6.2-1.09c-0.69-0.14-1.4-0.24-2.1-0.37
		c-0.18-0.06-0.35-0.13-0.53-0.19c-0.11-0.04-0.22-0.08-0.33-0.12c-0.36-0.13-0.72-0.25-1.08-0.39c-0.89-0.96-1.21-2.47-1.71-3.67
		c-0.78-2.47-1.73-5.03-1.46-7.67c0.5-0.2,0.47-0.89,0.01-1.13c-3.22-1.01,0.19,9.54,0.83,10.85c0.26,0.66,0.54,1.31,0.88,1.94
		c0.03,0.14,0.07,0.27,0.14,0.39c0.17,0.3,0.47,0.52,0.83,0.69c-0.16,0.13-0.29,0.31-0.35,0.49c-0.1,0.22-0.18,0.45-0.27,0.67
		c-0.06-0.29-0.3-0.52-0.61-0.52c-0.34,0-0.63,0.29-0.63,0.63s0.29,0.63,0.63,0.63c0.13,0,0.25-0.05,0.35-0.12
		c-2.46,5.97-3.9,12.19-4.82,18.53c-0.17-0.33-0.42-0.66-0.61-0.99c-0.18-0.29-0.31-0.57-0.33-0.82c-0.01-0.5,0.06-1,0.17-1.49
		c0.06-0.27,0.11-0.54,0.19-0.8c0.36-0.36,0.07-1.02-0.45-1.01c-0.16,0.01-0.29,0.06-0.4,0.14c-0.31,0.24-0.43,0.75-0.53,1.11
		c-0.64,1.86,0.02,3.35,1.03,4.91c0.04,0.07,0.09,0.12,0.15,0.17c0.17,0.13,0.38,0.16,0.59,0.1c-0.08,0.59-0.16,1.19-0.23,1.78
		c-0.11,0.89-0.21,1.77-0.3,2.66c-0.65,6.38-0.95,12.81-1.38,19.16c-0.21,3.06-0.39,6.3-1.4,9.3c-0.85,2.18-1.76,4.34-2.56,6.54
		c-0.18,0.46-0.4,0.96-0.24,1.46c1.3,2.31,6.38,2.12,8.79,2.47c1.44,0.26,2.88,0.59,4.32,0.94c0,0.14,0.01,0.27,0.01,0.39
		c0.37,2.98,1.45,5.81,2.19,8.71c-0.01,0.02-0.02,0.03-0.03,0.04c-0.17,0.5,0.13,0.95,0.65,1.34c-0.49,1.01-0.52,2.3-0.71,3.37
		c-0.5,3.6-0.03,7.25,2.02,10.32c1.4,2.03,2.8,4.71,5.49,5.07c2.57,0.23,3.53-1.27,3.71-3.32c0.04,0.23,0.18,0.43,0.46,0.5
		c1.66,0.44,3.82,0.18,4.88-1.3c0.9-1.54-0.17-3.33-0.88-4.74c-1.48-2.86-2.39-5.95-2.69-9.21c-0.04-0.18,0.04-0.55,0-0.78
		c-0.07-0.26-0.3-0.42-0.55-0.44c0.23-2.72,0.69-5.5,0.52-8.24c1.8-0.28,3.59-0.66,5.41-0.75c0.94-0.26,4.42,0.42,4.36-0.84
		c0-0.08-0.02-0.15-0.05-0.23c-0.1-0.28-0.35-0.48-0.66-0.48c-3.12-0.11-6.2,0.47-9.28,0.82c-0.21-0.32-0.68-0.38-0.96-0.11
		c-0.06,0.06-0.11,0.14-0.14,0.22c-1.17,0.11-2.34,0.17-3.51,0.13c-0.01,0-0.02,0-0.03,0c-0.38-0.01-0.76-0.04-1.13-0.07
		c-0.02-0.03-0.03-0.06-0.06-0.08c-0.12-0.12-0.28-0.2-0.45-0.2c-0.16,0-0.3,0.07-0.42,0.17c-0.5-0.07-1-0.16-1.51-0.28
		c-0.6-0.11-1.2-0.24-1.8-0.37c-0.64-0.14-1.29-0.3-1.93-0.45c-2.44-0.6-4.88-1.25-7.36-1.64c-0.66-0.07-1.35-0.11-2.04-0.17
		c-0.39-0.03-0.79-0.07-1.18-0.11c-1.07-0.12-2.13-0.3-3.11-0.67c-0.35-0.13-0.69-0.28-1.01-0.46c0.13-0.43,0.29-0.85,0.44-1.28
		c0.1-0.29,0.19-0.58,0.3-0.86c0.75-1.97,1.64-3.91,2.25-5.91c0,0,0-0.01,0-0.01c0.75-2.73,0.99-5.53,1.15-8.34
		c0.01-0.22,0.03-0.44,0.04-0.66c0.09-1.76,0.17-3.53,0.33-5.28c0.12-1.82,0.23-3.64,0.36-5.46c0.1-1.45,0.21-2.91,0.33-4.36
		c0.79-9.39,2.14-18.74,5.7-27.53c0.16-0.39,0.3-0.77,0.47-1.16c0.45-0.05,0.59-0.48,0.5-0.86c0.09,0.03,0.18,0.06,0.26,0.09
		c0.24,0.07,0.48,0.14,0.73,0.21c1.8,0.51,3.63,0.89,5.48,1.14c0.42,0.06,0.83,0.11,1.25,0.15c0.7,0.08,1.4,0.14,2.11,0.19
		c0.28,0.03,0.55,0.08,0.84,0.1c0.37-0.02,1.12,0.03,1.86,0.02c0.41,0.01,0.81,0.02,1.22,0.02c0.24-0.01,0.49,0,0.74,0.01
		c0.02,0,0.05,0,0.07,0c0.44,0.01,0.87,0,1.28-0.13c0.04,0.14,0.11,0.28,0.23,0.36c5.68,10.25,8.96,21.78,11.77,33.12
		c0.72,3.88,1.48,7.89,2.23,11.78c0.88,5.05,1.44,10.21,3.81,14.84c0,0,0,0,0,0c-0.54,0.31-1.1,0.61-1.67,0.88
		c-1,0.48-2.04,0.89-3.11,1.19c-1.03,0.29-2.08,0.47-3.14,0.51c-0.56,0-0.77,0.54-0.63,0.95c0.08,0.24,0.29,0.44,0.63,0.44
		c3.17-0.07,6.6-1.24,9.07-3.19c0.07-0.11,0.12-0.23,0.17-0.34C51.56,110.62,51.58,110.33,51.46,110.04z M30.1,125.94
		c0.01,0.08,0.01,0.15,0.02,0.23c0.19,1.9,0.63,3.78,1.26,5.58c0.38,1.63,1.5,3.07,2.08,4.64c0.23,0.62,0.39,1.27,0.37,1.95
		c-0.25,0.45-0.67,0.72-1.15,0.87c-0.77,0.25-1.7,0.19-2.42,0.03c-0.07-0.01-0.12,0-0.18,0.01c-0.27,0.03-0.46,0.23-0.53,0.48
		c0.02-0.33,0.02-0.67,0-1.02c-0.11-2.49-0.98-5.36-1.44-6.93c-0.32-0.73-0.76-3.51-1.44-5.22c0.34,0,0.71-0.07,1-0.06
		c0.77-0.08,1.64-0.05,2.31-0.47C30.02,126,30.06,125.97,30.1,125.94z M18.08,114.58c1.56,0.38,3.13,0.74,4.71,1.02
		c0.45,0.08,0.89,0.15,1.34,0.21c0,0.15,0,0.3,0,0.46c0,2.09,0.05,4.18,0.27,6.26c0.02,0.21,0.17,0.37,0.34,0.47
		c0.08,0.04,0.16,0.07,0.25,0.07c0.04,0,0.08,0.01,0.12,0.01c0.97-0.25,0.36-1.51,0.43-2.22c-0.1-1.27-0.13-2.62-0.14-3.96
		c0-0.31-0.01-0.61-0.01-0.92c0.1,0.01,0.2,0.01,0.29,0.02c0.53,0.05,1.06,0.1,1.6,0.11c0.9,0.05,1.79,0,2.68-0.1
		c0.01,0.51,0,1.03-0.01,1.54c-0.01,0.33-0.01,0.67-0.03,1c-0.02,0.26-0.05,0.53-0.07,0.79c-0.02,0.28-0.05,0.56-0.07,0.85
		c-0.09,0.98-0.18,1.97-0.27,2.94c-0.16,0.55,0.09,1.49-0.42,1.81c-0.16,0.04-0.32,0.06-0.49,0.08c-0.72,0.11-1.51,0.11-2.26,0.18
		c-0.14,0.01-0.26,0.09-0.36,0.18c-0.08-0.08-0.17-0.13-0.26-0.16c-0.11-0.04-0.22-0.05-0.34-0.01c-0.31,0.13-0.45,0.48-0.34,0.79
		c0,0.01,0,0.02,0.01,0.03c0.72,2.14,4.07,11.51,2.93,14.88c-0.22,0.65-0.61,1.08-1.22,1.19c-0.38,0.03-0.73-0.02-1.06-0.11
		c-0.13-0.04-0.27-0.06-0.4-0.11c-0.03-0.01-0.06-0.02-0.08-0.03c-0.84-0.36-1.52-1.07-2.12-1.85c-0.45-0.58-0.86-1.2-1.26-1.75
		c-0.31-0.41-0.58-0.84-0.82-1.28c-1.13-2.03-1.6-4.3-1.6-6.6c0-1.73,0.26-3.47,0.7-5.14c1.02,0.45,2.19,0.74,2.73,0.8
		c0.42,0.02,0.82-0.04,1.22-0.16c0.8-0.22,0.47-1.46-0.34-1.24c-1.03,0.19-2.13-0.13-3.1-0.63c-0.02-0.06-0.05-0.13-0.1-0.19
		c-0.14-0.19-0.39-0.26-0.61-0.22c-0.03-0.02-0.06-0.04-0.1-0.06c-0.01-0.01-0.02-0.01-0.02-0.02c0-0.06,0-0.11-0.01-0.17
		c-0.67-2.81-1.81-5.53-2.21-8.39c-0.03-0.18-0.04-0.35-0.06-0.53C17.7,114.48,17.89,114.53,18.08,114.58z M40.4,66.08
		c0.51,0.04,1.17-0.36,1.64-0.49c0.05-0.02,0.11-0.04,0.16-0.06c0.16-0.05,0.32-0.12,0.48-0.18c0.01,0.14,0.03,0.27,0.04,0.4
		c0.16,2.03,0.75,3.97,1.8,5.72c0.3,1.55,0,3.47-0.87,4.87C42.69,72.88,41.59,69.46,40.4,66.08z"/>
	<path class="st17" d="M5.14,69.72c0.05-2.18-0.23-4.34-0.07-6.51c0.03-0.35,0.07-0.7,0.12-1.05c0.4,0.22,0.8,0.41,1.15,0.58
		c0.31,0.15,0.6,0.28,0.82,0.38c0.17,0.07,0.31,0.06,0.45,0.02c0.1-0.03,0.19-0.08,0.26-0.15c0.04,0.04,0.07,0.08,0.12,0.11
		c0.16,0.12,0.37,0.14,0.55,0.08c0.37,0.03,0.86,0.07,1.11-0.18c0.21-0.08,0.37-0.26,0.4-0.5c0.63-3.64,1.54-7.33,2.65-10.86
		c0.02-0.61-0.87-0.85-1.15-0.31c-0.1,0.25-0.19,0.51-0.28,0.76c-0.56,1.55-1,3.15-1.34,4.76c-0.01,0.07-0.03,0.14-0.05,0.21
		c-0.33,1.63-0.77,3.23-1.03,4.87c-0.14,0-0.29,0-0.41,0.01c-0.19-0.02-0.36,0.05-0.49,0.16c-0.06-0.08-0.15-0.16-0.27-0.21
		c-0.04-0.02-0.08-0.04-0.12-0.06c-1.45-0.62-2.84-1.39-3.98-2.51c-0.02-0.01-0.03-0.03-0.05-0.04c0.01-0.03,0.01-0.05,0.02-0.08
		c0.29-1.3,0.66-2.59,1.06-3.87c0.68-2.13,1.46-4.25,2.18-6.37c0.67-1.98,1.29-3.96,1.71-5.99c0.12-5.03,0.31-10.14,1.34-15.08
		c0.16-0.26,0.18-0.59-0.05-0.83c0,0-0.01,0-0.01-0.01c-1.41-0.84-1.42,2.08-1.63,2.93c-0.34,3.13-0.81,6.26-0.85,9.42
		c-0.08,1.4,0.06,2.76-0.23,4.14C5.65,48.79,3.4,53.79,2.22,59.11c-0.03,0.86,0.79,1.67,1.8,2.36c-0.2,0.65-0.18,1.4-0.25,2.05
		c-0.06,2.62,0.2,5.23,0.03,7.85c-0.22,2.47,1.67,4.26,3.51,5.6c0.29,0.19,0.67,0.17,0.9-0.12c0.21-0.27,0.17-0.69-0.11-0.9
		c-0.5-0.38-0.98-0.8-1.44-1.23c-0.27-0.25-0.54-0.51-0.79-0.78C4.85,72.77,5.08,71.15,5.14,69.72z"/>
</g>
</svg>
