<?xml version="1.0" encoding="utf-8"?>
<!-- Generator: Adobe Illustrator 27.7.0, SVG Export Plug-In . SVG Version: 6.00 Build 0)  -->
<svg version="1.1" id="圖層_1" xmlns="http://www.w3.org/2000/svg" xmlns:xlink="http://www.w3.org/1999/xlink" x="0px" y="0px"
	 viewBox="0 0 40 125" style="enable-background:new 0 0 40 125;" xml:space="preserve">
<style type="text/css">
	.st0{fill:none;}
	.st1{fill:#294A26;}
	.st2{fill:#1F2214;}
	.st3{fill:#9E6924;}
	.st4{fill:#164323;}
	.st5{fill:#293B1D;}
	.st6{fill:#2A4D28;}
	.st7{fill:#749A2F;}
	.st8{fill:#76933C;}
	.st9{fill:#5F7D33;}
	.st10{fill:#3F562A;}
	.st11{fill:#101D0A;}
	.st12{fill:#C89A5D;}
	.st13{fill:#F2C1A3;}
	.st14{fill:#A87762;}
	.st15{fill:#3E3526;}
	.st16{fill:#28201C;}
	.st17{fill:#040000;}
	.st18{fill:#41617E;}
	.st19{fill:#DDB3A2;}
	.st20{fill:#A34529;}
	.st21{fill:#E7D0C8;}
	.st22{fill:#282828;}
	.st23{fill:#B1927D;}
	.st24{fill:#A3A399;}
	.st25{fill:#BF8466;}
	.st26{fill:#424242;}
	.st27{fill:#552D18;}
	.st28{fill:#A1BA39;}
	.st29{fill:#E2E1E1;}
	.st30{fill:#0D2037;}
	.st31{fill:#968272;}
	.st32{fill:#9CA2C4;}
	.st33{fill:#928884;}
	.st34{fill:#DCA88D;}
	.st35{fill:#BBB6C5;}
	.st36{fill:#9C6D4D;}
	.st37{fill:#080605;}
	.st38{fill:#2A6031;}
	.st39{fill:#FEFAFC;}
	.st40{fill:#509AB3;}
	.st41{fill:#4F431E;}
	.st42{fill:#3D6832;}
	.st43{fill:#84B733;}
	.st44{fill:#1B2912;}
	.st45{fill:#806F68;}
	.st46{fill:#4A3332;}
	.st47{fill:#9BD7F0;}
	.st48{fill:#78484B;}
	.st49{fill:#A1D9F2;}
	.st50{fill:#523D38;}
	.st51{fill:#C1A09C;}
	.st52{fill:#65676D;}
	.st53{fill:#C7BBAC;}
	.st54{fill:#5E6166;}
	.st55{fill:#CA997D;}
	.st56{fill:#C6C2B6;}
	.st57{fill:#17151C;}
	.st58{fill:#5D5A5C;}
	.st59{fill:#030810;}
	.st60{fill:none;stroke:#040000;stroke-width:0;stroke-linecap:round;stroke-linejoin:round;}
	.st61{fill:#9F8D89;}
	.st62{fill:#EECFCD;}
	.st63{fill:#BACAE8;}
	.st64{fill:#370504;}
	.st65{fill:#212022;}
	.st66{fill:#EC6B5E;}
</style>
<g id="_x3C_p_x3E__00000001623795747232143290000015095258143066822304_">
	<path class="st55" d="M12.72,18.1c-0.07-0.5,0.21-0.98,0.32-1.46c0.07-0.33,0.24-0.7,0.6-0.77c0.09-0.27,0.17-0.55,0.28-0.81
		c0.09-0.22,0.31-0.36,0.53-0.37c0.32-0.62,1.32-0.21,1.12,0.45c-0.33,0.74-0.53,1.7-1.18,2.22C14.18,18.16,13.23,19.35,12.72,18.1z
		"/>
	<path class="st55" d="M12.93,20.03c-1.03-0.95-0.91-2.43-0.37-3.61c0.46-1.91,1.88-3.08,3.3-4.26c1.01-0.86,2.62-0.57,3.4,0.44
		c0.84,1.08,0.57,2.55-0.44,3.4c-0.46,0.37-0.86,0.83-1.16,1.34C17.91,19.74,14.86,21.9,12.93,20.03z"/>
	<path class="st55" d="M14.85,25.83c-0.11-0.07-0.22-0.16-0.32-0.25c-0.61,0.19-1.26,0.18-1.89-0.01c-0.66-0.19-1.23-0.58-1.72-1.05
		c-4.62-0.62-3.59-3.31-0.96-5.83c0.23-0.83,0.31-1.87,1.16-2.3c-0.13-1.57,0.47-3.12,1.1-4.54c0.45-1.03,1.01-2.21,2.13-2.56
		c2.01-1.22,4.84,0.02,5.81,2.05c1.07-0.13,1.98,0.79,2.09,1.81c0.24,1.19-0.4,2.24-1.12,3.13c-0.78,1.06-1.55,2.12-2.37,3.14
		c0.31,0.45,0.39,1,0.36,1.57c1.29,0.36,1.69,2.1,0.75,3.03C18.6,25.36,16.7,27.02,14.85,25.83z M15.6,15.06
		c-0.12,0.33-0.25,0.68-0.39,1.02c0.44-0.27,0.96-0.27,1.43-0.4c-0.07-0.03-0.14-0.07-0.2-0.1c-0.33-0.19-0.55-0.46-0.74-0.77
		C15.66,14.9,15.63,14.98,15.6,15.06z"/>
	<path class="st55" d="M27.58,26.76c-1.43-0.81-0.92-2.59-0.13-3.68c1.1-1.81,2.28-3.6,3.64-5.22c-2.02-0.93-3.66-2.47-5.59-3.53
		c-0.93-0.56-2.06-0.77-2.87-1.55c-1.24-1.02-0.85-3.18,0.75-3.57c1.25-0.31,2.48,0.35,3.57,0.9c2.48,1.42,4.86,2.4,7.31,3.77
		c1.29,0.93,3.08,1.45,3.92,2.86c0.49,1.11-0.28,2.47-1.48,2.61c-1.14,2.54-3.2,4.41-5.24,6.23C30.41,26.48,28.98,27.56,27.58,26.76
		z"/>
	<path class="st55" d="M33.58,16.05c-0.92-0.55-1.17-1.83-0.51-2.68c1.06-1.37,2.94-0.45,3.65,0.8
		C38.07,16.43,34.8,18.45,33.58,16.05z"/>
	<path class="st55" d="M7.43,61.83C6.2,58.4,6.11,54.62,5.45,51.04c-0.51-3.63-2.45-7.12-2.16-10.82c0.15-1.12,1.03-2.05,2.22-1.89
		c1.49,0.26,2.64,2.24,1.37,3.41c0.69,3.16,1.74,6.24,2.28,9.45c0.42,2.99,0.76,5.99,1.46,8.94C11.61,62.17,8.58,63.8,7.43,61.83z"
		/>
	<path class="st55" d="M8.85,68.95c-0.4-4.74-1.62-10.17-2.24-15.14c-0.85-4.58-2.93-9.12-2.18-13.85c0.43-3.22,5.19-1.9,3.51,0.97
		c-0.31,3.5,1.04,6.84,1.79,10.21c0.7,2.84,1.02,5.73,1.39,8.62c0.38,2.9,1.33,5.74,1.33,8.68C12.7,70.8,9.24,71.31,8.85,68.95z"/>
	<path class="st56" d="M10.06,48.32c-0.87-1.1-0.72-2.53-0.8-3.84C8,44.09,7.74,42.57,7.42,41.46c-0.26-0.89-0.44-1.81-0.58-2.73
		c-1.22-0.24-2.57,0.31-3.75-0.07c-1.71-0.85-1.94-3.6-0.52-4.81c0.06-0.34,0.12-0.69,0.19-1.03c-0.79-2.32-0.07-4.87,0.47-7.17
		c0.37-1.77,2.25-2.64,3.93-2.23c2.22-1.83,3.8,1.67,4.98,3.12c0.08,0.03,0.15,0.06,0.22,0.1c1.58-0.96,3.46-0.27,5.18-0.35
		c0.42-0.58,0.84-1.17,1.26-1.75c0.32-0.45,0.84-0.69,1.37-0.73c1.58-1.71,3.9-5.88,6.51-3.55c1.47-0.69,2.99,0.82,2.57,2.32
		c-0.09,1.61-0.12,3.24-0.11,4.86c0.05,0.6-0.04,1.26-0.41,1.73c-0.13,0.99-0.27,1.97-0.46,2.95c-0.03,0.18-0.07,0.36-0.11,0.54
		c1.82,1.53,0.77,4.09-0.13,5.85c0.17,2.06,0.27,4.24-0.33,6.24c-0.21,0.55-0.7,0.89-1.18,1.17c-2.62,1.73-6.17,3.77-9.07,1.45
		C15.76,49.39,12.09,50.23,10.06,48.32z M22.16,44.12c0.71-0.4,1.41-0.82,2.1-1.25c0.01-0.07,0.01-0.14,0.02-0.2
		c-0.06,0.03-0.11,0.06-0.17,0.08c-0.32,0.15-0.67,0.24-1.03,0.29c-0.06,0.1-0.14,0.19-0.22,0.27c-0.13,0.13-0.29,0.24-0.45,0.33
		C22.34,43.8,22.25,43.96,22.16,44.12z M16.67,36.92c0.07-0.17,0.14-0.34,0.2-0.51c0.11-0.27,0.22-0.54,0.33-0.8
		c-0.08,0.14-0.16,0.28-0.24,0.42c-0.13,0.24-0.27,0.48-0.4,0.72C16.6,36.81,16.64,36.87,16.67,36.92z M23.91,26.95
		c0.01-0.13,0.01-0.26,0.02-0.39c-0.04,0.07-0.09,0.14-0.13,0.21C23.84,26.83,23.88,26.89,23.91,26.95z"/>
	<path class="st57" d="M7.53,21.18c-1.84-0.59-1.41-2.43-0.73-3.78c0.59-1.79,1.19-3.56,1.92-5.29c-1.17-1.12-0.2-2.69,0.53-3.78
		c1.4-1.96,3.16-5.21,5.99-4.65c1.47,0.16,2.03,1.92,1.37,3.12c-1.14,2.03-3.1,3.52-4.02,5.72c-1.13,2.34-1.83,4.86-2.76,7.28
		C9.58,20.82,8.52,21.46,7.53,21.18z"/>
	<path class="st57" d="M22.25,20.13c-0.02-2.41-0.31-4.91-0.88-7.22c-1.1-0.95-2.13-2.13-2.38-3.62c-0.66-0.06-1.29-0.45-1.57-1.11
		c-1.43,0.1-2.33-1.35-2.03-2.66c-1.32-3.64,2.66-4.12,4.65-1.82c0.9-0.05,1.63,0.58,2.18,1.22c1.13,1.14,2.45,3.19,0.87,4.52
		c0.5,0.58,1.19,0.97,1.54,1.68c0.35,0.7,0.44,1.46,0.55,2.03c0.5,2.29,0.74,4.64,0.74,6.99C25.86,22.54,22.33,22.55,22.25,20.13z"
		/>
	<path class="st57" d="M20.21,40.67c-0.95-0.13-1.74-1.07-1.56-2.05c0.37-2.02,0.76-4.04,0.96-6.08c0.14-3.06,0.01-6.13,0.16-9.19
		c-1.29-1.04-0.44-2.69,0.17-3.87c0.75-1.45,1.48-2.9,1.75-4.54c-0.01,0.07-0.03,0.13-0.04,0.2c0,0.04,0,0.08-0.01,0.12
		c0.18-2.29,3.57-2.19,3.59,0.11c-0.41,2.17-1.09,4.3-1.78,6.4c0.41,1.66,0.12,3.48,0.23,5.19c0.01,0.78,0.12,1.72-0.36,2.39
		c0.12,3.3-0.42,6.54-1.06,9.77C22.09,40.1,21.2,40.82,20.21,40.67z"/>
	<path class="st57" d="M17.73,38.03c-2.4-1.26,0.02-4.06,0.19-5.97c0.05-1.95,1.91-3.45,3.46-1.8c0.87,1.25-0.16,2.78-0.36,4.11
		C20.49,35.94,20.03,38.88,17.73,38.03z"/>
	<path class="st57" d="M21.95,39.97c-2.18-0.36-1.43-2.81-1.22-4.34c0.11-1.45,0.26-3.68,2.26-3.44c2.03,0.33,1.5,2.46,1.31,3.93
		C24.08,37.65,24.15,40.21,21.95,39.97z"/>
	<path class="st57" d="M14.93,10.21c-3.43-1.36,0.63-5.62,2.52-2.89C18.41,8.91,16.51,10.62,14.93,10.21z"/>
	<path class="st58" d="M20.98,91.31c-0.03-0.19-0.05-0.38-0.07-0.57c-0.56-0.34-0.87-0.94-0.91-1.61c-0.09-1.75,0.05-3.52,0.15-5.27
		c0.23-3.3-0.31-6.6-0.57-9.89c-0.66,1.21-2.56,1.22-3.22,0.01c-0.44-0.83-0.55-1.79-0.89-2.67c-0.73-2.05-2.36-3.62-3.03-5.71
		c-0.81-2.6-1.79-5.37-1.46-8.12c-0.34-2-1.75-4.16-1.05-6.18c-0.43-1.33,0.95-2.71,2.29-2.3c0.52,0.17,1.03,0.38,1.57,0.43
		c0.4-1.93,2.8-1.48,4.22-2.12c1.24-0.49,2.88-0.95,3.83,0.3c0.87-1.32,3.03-1.15,3.5,0.41c2.85,2.18,1.88,12.34,1.77,15.91
		c0.46,4.22-0.4,8.42-0.77,12.62c-0.03,0.79-0.15,1.68-0.85,2.13c-0.04,3.87-0.07,7.75-0.53,11.6c-0.02,0.85-0.29,1.71-0.99,2.25
		C22.91,93.46,21.17,92.67,20.98,91.31z"/>
	<path class="st58" d="M22.72,115.55c-1.92-0.48-5.21-1.91-3.93-4.39c-0.53-0.85-0.37-1.96-0.28-2.92c0.1-1.67,0.25-3.34,0.81-4.91
		c-0.68-0.44-0.93-1.46-0.95-2.16c-0.37-6.22,0.29-12.46,0.17-18.69c-0.03-4.51-0.12-9.02-0.52-13.52c-0.25-2.04,2.6-2.88,3.45-1.01
		c0.16-1.21,0.05-2.46,0.48-3.62c0.31-0.77,1.14-1.22,1.95-1.11c1.79,0.25,1.63,2.26,1.67,3.63c0.62,0.2,1.07,0.67,1.31,1.26
		c0.34,0.28,0.57,0.68,0.61,1.13c0.08,1.61,0.09,3.22,0.17,4.83c0.35,4.03,0.76,8.04,0.91,12.08c0.12,4.19,0.08,8.39,0.07,12.59
		c-0.31,1.93,1.14,5.42-1.46,6.03c0.2,1.65,0.45,3.3,0.65,4.95c0.3,1.12-0.03,2.39-1.09,2.98
		C26.85,115.05,24.85,116.28,22.72,115.55z"/>
	<path class="st58" d="M12.85,116.95c-0.86-0.13-1.68-0.66-1.98-1.49c-0.26-0.71-0.13-1.39,0.25-1.98
		c-1.37-1.28-0.63-3.45-0.94-5.13c-0.09-5.17,0.13-10.35,0.03-15.53c-0.04-2.59-0.17-5.17-0.36-7.75c-0.04-0.8,0.56-1.53,1.3-1.77
		c-0.15-3.58-0.36-7.18-0.25-10.76c-0.02-2,1.04-2.68,2.77-3.24c1.38-6.45,6.98-1.94,3.76,0.34c-0.01,0.02-0.01,0.04-0.02,0.05
		c-0.29,0.91-0.56,1.82-0.83,2.73c0.44-0.16,0.94-0.15,1.37,0.03c0.35,0.15,0.62,0.39,0.81,0.68c1.84,0.69,1.55,3.39,1.96,5.01
		c1.55,2.18,1.92,19.08-0.48,20.46c-0.04,0.44-0.09,0.87-0.13,1.31c-0.01,0.11-0.04,0.22-0.07,0.33c0.43,3.84,0.74,7.88-0.36,11.64
		c1.89-2.35,5.01-0.26,3.22,2.1c-0.88,0.87-1.87,1.98-3.17,2.12C17.45,116.35,15.17,117.17,12.85,116.95z"/>
	<path class="st59" d="M12.69,122.68c-0.59-0.25-0.99-0.79-1.1-1.39c-2.3-1.56-0.62-7.86,2.44-5.06c2.04-2.46,4.87,0.52,2.94,2.85
		c-0.4,0.69-1.13,1.12-1.49,1.82C15.12,122.12,14.02,123.26,12.69,122.68z"/>
	<path class="st59" d="M22.91,120.71c-1.59-0.16-2.08-1.96-1.59-3.28c0.35-1.35,0.73-3,2.13-3.61c-0.11-1.18,0.95-2.3,2.16-2.11
		c2,0.28,2.23,2.84,2.12,4.47C27.55,118.52,25.78,122.28,22.91,120.71z"/>
	<path class="st17" d="M18.28,20.76c-0.12-0.28-0.01-0.58,0.21-0.75c0.69-1.16,1.39-2.31,2.12-3.44c1.05-1.64,0.66-3.34,0.92-5.09
		c0.23-0.39,0.82-0.39,1.05,0c0.2,1.23,0.15,2.59-0.11,3.82c-0.44,1.71-1.58,3.09-2.44,4.61C19.72,20.56,18.94,21.8,18.28,20.76z"/>
	<path class="st17" d="M9.94,19.79c-0.34-0.14-0.47-0.52-0.35-0.85c0.39-1.18,0.88-2.33,1.32-3.49c0.57-1.6,0.59-3.3,1.27-4.85
		c0.45-1.1,1.59-1.5,2.53-2.07C15.6,7.79,16.4,6.65,16.6,5.5c0.01-0.5,0.58-0.77,0.98-0.48c0.32,0.23,0.27,0.66,0.21,1
		c-0.32,1.25-1.1,2.41-2.01,3.31c-0.82,0.76-2.22,0.91-2.55,2.11c-0.62,2.57-1.15,5.01-2.23,7.41
		C10.92,19.35,10.56,20.05,9.94,19.79z"/>
	<path class="st17" d="M6.99,20.81c-1.16-0.32-0.12-2.46-0.13-3.34C7.88,12.32,8.71,6,13.37,2.86c1.4-0.58,4.64-0.8,4.21,1.49
		c-0.05,0.4-0.21,0.98-0.7,1.03c-0.32,0.04-0.63-0.18-0.68-0.52c-0.01-0.34,0.2-0.6,0.17-0.95c-4.6-1.51-7.04,7.27-7.62,10.6
		c-0.41,1.9-0.76,3.82-1.05,5.74C7.65,20.61,7.33,20.86,6.99,20.81z"/>
	<path class="st17" d="M24.55,20.59c-0.25-5-0.31-10.34-3.06-14.7c-1.08-1.48-3.04-4.39-4.98-2.59c-0.13,0.68-1.2,0.57-1.19-0.13
		c0.09-1.01,1.32-1.58,2.22-1.7c2.04-0.19,3.49,1.71,4.62,3.15c0.16,0.22,0.32,0.45,0.46,0.68c0.01,0.1,0.02,0.2,0.04,0.29
		c0.03,0.18,0.04,0.37,0.05,0.55c0-0.03,0-0.06,0-0.09c0,0.04,0,0.07,0,0.11c0-0.01,0-0.01,0-0.02c0,0.02,0,0.04,0,0.05
		c0.02,0.65,0.05,1.29,0.19,1.92c0.16,0.67,0.43,1.33,0.81,1.91c0.22,0.34,0.49,0.66,0.79,0.94c0.04,0.04,0.08,0.07,0.11,0.1
		c0.02,0.28,0.04,0.56,0.05,0.84c0.02,0.46,0.02,0.92,0.04,1.38c0.04,0.89,0.09,1.79,0.14,2.68c0.05,0.91,0.09,1.83,0.07,2.74
		c0,0.23-0.01,0.46,0,0.68c0.02,0.26,0.1,0.55,0.38,0.62c0.06,0.02,0.11,0.02,0.17,0.02c0.08,0,0.15-0.02,0.23-0.06
		c0.04-0.02,0.07-0.05,0.11-0.09c0,0.15,0.01,0.3,0.01,0.45c0.08,0.44-0.3,0.71-0.66,0.71C24.88,21.05,24.63,20.91,24.55,20.59z"/>
	<path class="st17" d="M22.72,6.17C22.72,6.18,22.72,6.18,22.72,6.17C22.72,6.18,22.72,6.18,22.72,6.17z"/>
	<path class="st17" d="M22.72,6.21c0,0,0-0.01,0-0.01c0,0.02,0,0.04,0,0.07C22.72,6.24,22.72,6.23,22.72,6.21z"/>
	<path class="st17" d="M16,23.48c-0.36-1.29-0.15-3.2-0.07-4.57c0.17-0.65,1.18-0.52,1.18,0.16c0,1.27-0.02,2.55,0,3.82
		C17.45,23.58,16.41,24.15,16,23.48z"/>
	<path class="st17" d="M8,24.16c0-0.34,0.28-0.62,0.62-0.62s0.62,0.28,0.62,0.62s-0.28,0.62-0.62,0.62S8,24.49,8,24.16z"/>
	<path class="st17" d="M6.31,39.89c-0.24-0.02-0.47-0.03-0.66-0.01c-0.14-0.02-0.27-0.03-0.41-0.03c-0.03-0.03-0.06-0.07-0.1-0.1
		c-0.18-0.16-0.38-0.25-0.62-0.25c-0.23,0-0.45,0.1-0.62,0.26c-0.03,0.03-0.06,0.06-0.08,0.1c-1.55,0.05-2.72,0-2.42-2.47
		c0.09-3.48-0.33-7.18,1.18-10.41c1.2-1.93,2.54-4.07,4.53-5.23c0.7-0.22,1.09,0.82,0.43,1.12c-0.59,0.41-1.12,1.03-1.57,1.5
		C2.07,28.22,2.7,33.5,2.7,38.5c1.47,0.06,2.96,0.08,4.43,0.09c0.36,0,0.65,0.3,0.65,0.65c-0.06,0.56-0.49,0.68-0.98,0.68
		C6.64,39.92,6.47,39.9,6.31,39.89z"/>
	<path class="st17" d="M5.94,40.18c-0.17-0.14-0.38-0.2-0.58-0.18c-0.06-0.09-0.12-0.18-0.21-0.25c-0.12-0.1-0.24-0.18-0.38-0.22
		c0.15-0.03,0.33,0.01,0.55,0.12c0.96-0.41,1.32,0.39,0.88,0.88C6.13,40.4,6.06,40.28,5.94,40.18z"/>
	<path class="st17" d="M12.54,66.76c-0.22-1.68-1.12-3.1-1.8-4.59c-1.09-3.16-1.19-6.5-1.49-9.8c-0.4-4.27-1.96-8.64-1.41-12.92
		c0.28-0.52,1.15-0.3,1.14,0.31c-0.21,3.79,0.81,7.45,1.36,11.16c0.52,3.74,0.33,7.7,1.8,11.24c0.43,0.92,2.74,4.88,1.04,5.14
		C12.85,67.3,12.59,67.07,12.54,66.76z"/>
	<path class="st17" d="M9.68,70.79c-1.34-1.15-1.77-2.98-1.84-4.67c0.03-0.51-0.04-1.62,0.01-2.67c0.17,0.07,0.35,0.07,0.53,0.03
		c0.08,0.27,0.18,0.53,0.39,0.72c0.09,0.08,0.19,0.14,0.3,0.17c-0.01,0.57,0,1.13,0.01,1.67c0.12,4.79,4.1,6.04,3.32,0.26
		c-0.14-0.75,1.05-1,1.23-0.25c0.63,1.98-0.31,5.44-2.31,5.44C10.84,71.47,10.29,71.27,9.68,70.79z"/>
	<path class="st17" d="M9.24,48.01c-2.58-4.1-1.92-9.71-2.54-14.36c-0.2-1.06,1.29-1.17,1.2-0.11C8.46,38.02,8.09,42.81,10,47
		c0,0,0,0,0,0C11.01,47.47,10.05,48.73,9.24,48.01z"/>
	<path class="st17" d="M23.87,20.16c0-0.33,0.27-0.6,0.6-0.6s0.6,0.27,0.6,0.6s-0.27,0.6-0.6,0.6S23.87,20.49,23.87,20.16z"/>
	<path class="st17" d="M28.01,26.18c0.23-1.71,0.77-3.46,0.86-5.15c-1.25-0.19-2.47-0.68-3.7-0.72c-0.46,0.46-1.24-0.14-0.96-0.72
		c0.15-0.29,0.41-0.43,0.7-0.49c0,0.1,0,0.21,0.01,0.31c0.02,0.26,0.1,0.55,0.38,0.62c0.05,0.01,0.11,0.02,0.16,0.02
		c0.08,0,0.16-0.02,0.23-0.06c0.1-0.06,0.18-0.16,0.23-0.26c0.1-0.19,0.17-0.38,0.24-0.58c0.04,0.01,0.09,0.02,0.13,0.02
		c1.11,0.27,2.21,0.47,3.3,0.75c0.66,0.31,0.59,1.16,0.5,1.77c-0.18,1.47-0.48,2.92-0.8,4.37c0.04,0.48-0.32,0.75-0.67,0.75
		C28.32,26.8,28.03,26.6,28.01,26.18z"/>
	<path class="st17" d="M28.49,26.14c0.47-1.27,1.96-1.87,2.86-2.82c2.12-2.07,5.28-3.58,6.08-6.54c0-0.19-0.04-0.35-0.11-0.48
		c-0.02-0.02-0.03-0.04-0.04-0.06c-0.04-0.16-0.11-0.31-0.21-0.44c-0.18-0.23-0.41-0.43-0.6-0.64c-0.09-0.11-0.17-0.22-0.26-0.33
		c-0.01-0.02-0.02-0.03-0.02-0.05c-0.1-0.2-0.19-0.39-0.29-0.58c-0.19-0.38-0.37-0.75-0.55-1.13c-0.1-0.19-0.19-0.39-0.29-0.58
		c0.42,0.42,0.83,0.83,1.33,1.17c0.16,0.1,0.32,0.2,0.49,0.28c0.29,0.28,0.57,0.56,0.86,0.84c3.84,3.91-5.7,8.97-8,11.55
		c-0.03,0.38-0.3,0.55-0.59,0.55C28.79,26.87,28.42,26.6,28.49,26.14z"/>
	<path class="st17" d="M36.41,15.08c0.01,0.01,0.02,0.03,0.04,0.04C36.44,15.11,36.42,15.09,36.41,15.08z"/>
	<path class="st17" d="M22.37,6.8c-0.02-0.34,0.13-0.54,0.35-0.63c0,0.01,0,0.02,0,0.03c0,0.01,0,0.01,0,0.02
		c0.01,0.36,0.03,0.72,0.06,1.07C22.58,7.19,22.42,7.05,22.37,6.8z"/>
	<path class="st17" d="M22.72,6.21c0,0,0-0.01,0-0.02c0,0.02,0,0.05,0,0.07C22.72,6.25,22.72,6.23,22.72,6.21z"/>
	<path class="st17" d="M28.36,20.8c0.04-0.55,0.39-1.03,0.81-1.45c0.22,0.02,0.44,0.03,0.66,0.04c0.36,0.02,0.76,0.06,1.07-0.15
		c0.16-0.11,0.32-0.24,0.44-0.4c0.12-0.15,0.23-0.31,0.34-0.48c0.09-0.14,0.17-0.28,0.24-0.42c0.12,0.26,0.04,0.57-0.18,0.76
		c-0.79,0.67-1.52,1.24-2.12,2.06c0,0.39-0.31,0.59-0.62,0.59C28.71,21.34,28.41,21.16,28.36,20.8z"/>
	<path class="st17" d="M28.39,16.82c0.02,0,0.04-0.01,0.05-0.02c0.01,0.04,0.03,0.08,0.05,0.11C28.46,16.88,28.43,16.85,28.39,16.82
		z"/>
	<path class="st17" d="M25.68,13.3c0.02,0.03,0.03,0.07,0.04,0.1c-0.01,0.06-0.02,0.12-0.03,0.18C25.69,13.49,25.69,13.4,25.68,13.3
		z"/>
	<path class="st17" d="M23.46,9.75c0.01-0.03,0.02-0.06,0.03-0.09c0.07,0.13,0.15,0.26,0.23,0.39c0.22,0.34,0.49,0.66,0.79,0.94
		c0.04,0.04,0.08,0.07,0.12,0.11c0.02,0.28,0.04,0.56,0.05,0.84c0.01,0.17,0.01,0.34,0.01,0.52C24.13,11.63,23.4,10.76,23.46,9.75z"
		/>
	<path class="st17" d="M26.51,45.93c-1.07-0.35-0.18-2.87,0.88-1.67c0.46-4.23,1.12-8.47,1.19-12.72c0.2-1.14-0.47-5.16,1.05-5.17
		c0.82-0.04,1.2,0.96,0.34,1.23c-0.15,5.4-0.51,10.77-1.26,16.13c-0.07,0.25-0.11,0.7-0.15,1.23c-0.09,0.03-0.16,0.08-0.22,0.16
		c-0.09,0.12-0.14,0.28-0.18,0.43c0,0.02-0.01,0.03-0.01,0.05c-0.07,0.18-0.12,0.36-0.2,0.54c-0.02,0.05-0.05,0.1-0.08,0.14
		c0,0,0.01-0.01,0.02-0.02c0,0.01-0.01,0.02-0.02,0.02c0,0,0,0,0,0c0,0,0,0,0,0c0,0.01-0.01,0.02-0.02,0.02c0,0,0,0,0-0.01
		c0-0.01,0.01-0.01,0.01-0.02c-0.01,0.01-0.01,0.01-0.01,0.02c-0.04,0.05-0.07,0.1-0.11,0.15c0,0,0,0,0,0c0,0-0.01,0.01-0.01,0.02
		c0,0,0.01-0.01,0.01-0.02c-0.16,0.18-0.31,0.35-0.45,0.54c-0.16,0.21-0.31,0.44-0.3,0.7C26.61,47.21,26.61,46.52,26.51,45.93z"/>
	<path class="st17" d="M27.79,46.41c-0.01,0.01-0.01,0.02-0.02,0.03C27.77,46.43,27.78,46.42,27.79,46.41z"/>
	<path class="st17" d="M14.95,26.53c-3.05,0.32-5.27-1.81-7.4-3.62c-1.71,1.79-2.07-4.19,2.28,0.27c2.06,2.12,5.44,2.78,8.07,1.46
		c0.78-0.19,1.7-1.52,2.43-0.78c0.2,0.26,0.17,0.69-0.11,0.88C18.67,25.81,16.88,26.68,14.95,26.53z"/>
	<path class="st17" d="M8.71,49.87c0-1.85,2.85-1.45,4.12-1.71c5.3-0.51,10.36-2.32,15.59-3.12c-0.03,0.02-0.05,0.05-0.07,0.08
		c-0.09,0.12-0.14,0.28-0.18,0.43c0,0.02-0.01,0.03-0.01,0.05c-0.06,0.18-0.12,0.36-0.2,0.54c-0.02,0.05-0.05,0.1-0.07,0.15
		c0,0,0,0,0,0h0c-0.01,0.01-0.01,0.02-0.02,0.02c0-0.01,0.01-0.02,0.01-0.02c-0.04,0.06-0.08,0.11-0.12,0.16c0,0,0,0.01-0.01,0.01
		c-0.03,0.04-0.06,0.07-0.09,0.11c-0.77,0.07-1.57,0.08-2.07,0.24c-2.98,0.67-5.92,1.6-8.94,2.11c-2.21,0.53-4.57,0.38-6.74,0.99
		c-0.04,0.33-0.32,0.5-0.6,0.5C9.03,50.39,8.74,50.21,8.71,49.87z"/>
	<path class="st17" d="M27.77,46.44c0.01-0.01,0.01-0.01,0.02-0.02C27.78,46.43,27.77,46.43,27.77,46.44
		C27.77,46.44,27.77,46.44,27.77,46.44z"/>
	<path class="st17" d="M29.06,44.76c-0.01,0.01-0.02,0.02-0.02,0.04C29.04,44.78,29.06,44.77,29.06,44.76z"/>
	<path class="st17" d="M18.02,112.82c0.42-12.79,1.17-25.56,1.55-38.35c0.18-3.18,0.04-6.37,0.18-9.55
		c0.03-0.54-0.01-1.42,0.72-1.45c0.33-0.01,0.61,0.29,0.61,0.61c-0.44,12.98-0.66,26-1.45,38.98c-0.07,3.26-0.28,6.51-0.34,9.77
		C19.29,113.61,18.02,113.64,18.02,112.82z"/>
	<path class="st17" d="M11.04,117.34c-0.67-0.01-1-0.66-0.99-1.27c-0.03-2,0.11-4.01,0.16-6.01c0.25-6.4,0.19-12.82,0.04-19.22
		c-0.19-4.89-0.32-9.79-0.25-14.68c0.14-1.73-0.23-3.71,0.5-5.3c0.46-0.46,1.25,0.1,0.98,0.67c-0.62,6.89-0.09,13.82,0.05,20.73
		c0.24,7.93-0.02,15.86-0.22,23.79c1.81-0.47,3.76-0.54,5.48-1.26c0.27-0.21,0.67-0.16,0.88,0.11
		C18.85,116.53,12.05,117.06,11.04,117.34z"/>
	<path class="st17" d="M11.88,123.48c-3.65-1.23-1.45-6.24-0.33-8.67c0.55-0.76,1.64,0.13,0.95,0.78c-0.67,1.91-1.83,4.02-1.12,6.05
		c1.15,1.69,4.13-0.33,4.64-1.76c0.4-1.3,0.78-2.74,0.84-4.08c0.02-0.34,0.27-0.63,0.63-0.63c0.33,0,0.65,0.29,0.63,0.63
		c-0.11,1.76-0.48,3.56-1.2,5.17C15.8,122.56,13.89,123.82,11.88,123.48z"/>
	<path class="st17" d="M24.82,46.46c0-0.33,0.27-0.6,0.6-0.6s0.6,0.27,0.6,0.6s-0.27,0.6-0.6,0.6S24.82,46.79,24.82,46.46z"/>
	<path class="st17" d="M20.16,114.07c-0.72-0.08-0.72-1.19,0-1.27c2.35-0.27,4.83,0.2,7.15-0.31c0,0,0,0.01,0,0.01
		c0.04-0.02,0.08-0.04,0.12-0.06c-1.26-13.02-0.15-26.07-0.26-39.11c0.01-8.7,0.25-17.57-2.98-25.8c-0.33-0.53,0.4-1.2,0.89-0.78
		c1.29,2.89,2.07,6.14,2.68,9.27c1.47,13.97,0.26,28.08,0.31,42.1c0.02,4.59,0.16,9.06,0.58,13.56c0.36,1.65-0.7,2.18-2.2,2.28
		C24.37,114.1,22.26,114,20.16,114.07z"/>
	<path class="st17" d="M23.98,121.31c-3.01-0.2-3.5-3.31-3.01-5.74c0.13-0.56-0.04-1.26,0.38-1.7c0.46-0.44,1.23,0.12,0.97,0.69
		c-0.25,2.06-0.92,5.8,2.29,5.45c3.26-0.73,3.48-4.79,2.77-7.45c-0.06-0.3,0.17-0.61,0.46-0.69c1.17-0.13,0.89,1.66,1.13,2.43
		C29.39,117.41,27.58,121.47,23.98,121.31z"/>
	<path class="st17" d="M22.63,13c-1.13-1.77-10.85-6.4-5.88-8.43c0.75-0.21,1.07,0.95,0.32,1.16c-0.17,0.05-0.32,0.14-0.45,0.25
		c0.7,1.91,2.85,2.74,4.33,3.98c0.9,0.78,2.14,1.26,2.7,2.35C24.04,12.95,23.08,13.6,22.63,13z"/>
	<path class="st17" d="M6.49,21.68c-0.43-0.99,1.32-1.33,1.8-1.96c0.67-0.52,2.32-2.83,2.84-1.13c0.02,0.4-0.34,0.51-0.6,0.7
		C9.78,19.89,7.36,22.83,6.49,21.68z"/>
	<path class="st17" d="M15.67,20.8c-0.09-0.72,0.71-0.72,1.19-0.84c0.81-0.24,3.01-1.93,3.3-0.45c0,0.4-0.35,0.59-0.69,0.63
		C18.47,20.38,16.23,22.26,15.67,20.8z"/>
	<path class="st17" d="M16.52,20.9c0-0.34,0.28-0.61,0.61-0.61s0.61,0.28,0.61,0.61s-0.28,0.61-0.61,0.61S16.52,21.23,16.52,20.9z"
		/>
	<path class="st17" d="M20.27,36.69c-0.16-3.51-0.39-7.11-0.63-10.55c0.17-1.16-1.4-7.38,0.56-6.76c0.61,0.01,0.8,0.89,0.25,1.14
		c0.22,3.86,0.63,7.84,0.84,11.65c0.1,1.48,0.12,2.96,0.22,4.44c0.02,0.31-0.25,0.58-0.54,0.62C20.65,37.27,20.3,37.03,20.27,36.69z
		"/>
	<path class="st17" d="M21.15,39.47c-0.71-0.66,0.43-1.49,0.61-2.14c1.05-2.09,1.08-4.43,1.05-6.71c0.08-5.51-0.22-11.05,0.07-16.55
		c0.17-0.66,1.21-0.54,1.2,0.16c-0.42,6.92,0.45,13.93-0.26,20.82C23.64,36.03,22.49,40.28,21.15,39.47z"/>
	<path class="st17" d="M21.84,41.34c-0.27-0.2-0.34-0.62-0.11-0.88c0.73-0.86,1.41-1.8,1.77-2.88c0.68-1.86,0.62-3.7,0.63-5.61
		c0.13-6.23-0.52-12.47-0.01-18.69c0.04-0.34,0.3-0.5,0.56-0.51c0,0.18,0.01,0.35,0.02,0.53c0.04,0.89,0.09,1.79,0.14,2.68
		c0.05,0.91,0.09,1.83,0.07,2.74c0,0.23-0.01,0.46,0,0.68c0.01,0.21,0.07,0.44,0.24,0.56c0.1,5.63,0.64,11.27-0.11,16.85
		c-0.15,0.96-1.66,4.63-2.89,4.63C22.06,41.43,21.95,41.4,21.84,41.34z"/>
	<path class="st17" d="M17.93,35.19c-0.32-0.09-0.54-0.44-0.43-0.77c0.24-0.78,0.51-1.59,0.69-2.38c0.33-1.45,0.44-3,0.46-4.47
		c0.07-2.65-0.05-5.33,0.37-7.95c0.07-0.37,0.18-0.82,0.56-0.97c0.57-0.24,1.09,0.48,0.69,0.95c-0.84,5.02,0.33,10.31-1.57,15.15
		C18.59,35.08,18.25,35.29,17.93,35.19z"/>
	<path class="st17" d="M23.65,47.85c0.08-1.74,2.8-1.41,3.6-2.63c0.28-0.39,0.78-0.26,1.01,0.05c-0.04,0.09-0.07,0.18-0.09,0.27
		c0,0.02-0.01,0.03-0.01,0.05c-0.06,0.18-0.12,0.36-0.2,0.54c-0.02,0.05-0.04,0.09-0.07,0.13c0,0-0.01,0.01-0.01,0.01
		c0,0.01-0.01,0.02-0.01,0.02c0-0.01,0.01-0.02,0.01-0.02c-0.04,0.06-0.08,0.11-0.12,0.16c0,0,0,0.01-0.01,0.01c0,0,0,0,0,0
		c0,0,0,0,0,0c0,0,0,0-0.01,0.01c0,0,0,0,0-0.01c-0.04,0.05-0.08,0.1-0.12,0.14c-0.81,0.59-1.94,0.77-2.79,1.31
		c-0.02,0.36-0.31,0.53-0.59,0.53C23.95,48.44,23.65,48.24,23.65,47.85z"/>
	<path class="st17" d="M27.77,46.44C27.77,46.44,27.77,46.44,27.77,46.44C27.77,46.44,27.77,46.44,27.77,46.44z"/>
	<path class="st17" d="M27.9,46.26c0,0,0,0.01-0.01,0.01C27.9,46.27,27.9,46.26,27.9,46.26z"/>
	<path class="st17" d="M6.74,22.37c-0.92-0.77,0.52-1.76,1.1-2.25c0.91-0.59,1.88-2.03,3.07-1.55c0.76,0.27,0.29,1.44-0.45,1.12
		c-0.92,0.62-1.84,1.39-2.65,2.12C7.6,22.21,7.22,22.65,6.74,22.37z"/>
	<path class="st17" d="M22.75,17.92c-0.18-1.65-0.32-3.32-0.68-4.95c-0.18-0.51-0.15-1.32,0.56-1.32c0.33,0,0.61,0.27,0.61,0.6
		c0.01,0.91,0.35,1.81,0.41,2.73c0.11,0.92,0.21,1.84,0.3,2.77c0.03,0.33-0.18,0.64-0.52,0.68C23.11,18.48,22.78,18.25,22.75,17.92z
		"/>
	<path class="st17" d="M4.27,38.44c0-0.33,0.27-0.61,0.61-0.61s0.61,0.27,0.61,0.61s-0.27,0.61-0.61,0.61S4.27,38.77,4.27,38.44z"/>
	<path class="st17" d="M7.65,64.77c-0.08-2.1,0.15-4.22-0.18-6.23c-0.81-4.45-2.79-8.56-3.71-12.96c-0.37-1.75-0.63-3.52-0.81-5.3
		c-0.03-0.46-0.07-1.13,0.45-1.32c0.68-0.29,1.16,0.71,0.77,1.21c0,0,0,0,0,0c0.37,6.31,3.23,11.95,4.49,18.05
		c0.4,2.16,0.15,4.37,0.22,6.55C8.88,65.56,7.65,65.57,7.65,64.77z"/>
	<path class="st17" d="M35.5,13.96c-2.19-1.04-4.63-1.46-6.71-2.74c-0.55-0.3-1.09-0.68-1.63-1.06c-0.08-0.2-0.16-0.41-0.25-0.61
		c-0.16-0.39-0.34-0.77-0.52-1.15c0.02,0,0.04,0.01,0.05,0.02c0.23,0.08,0.45,0.16,0.67,0.25c0,0-0.01,0-0.02-0.01
		c0.01,0,0.03,0.01,0.04,0.02c0,0,0.01,0,0.02,0.01c0.01,0.01,0.02,0.01,0.03,0.02c0.08,0.04,0.17,0.08,0.25,0.13
		c0.05,0.03,0.09,0.07,0.14,0.1c0.13,0.11,0.26,0.23,0.38,0.35c0.01,0,0.01,0.01,0.02,0.02c0,0,0,0,0,0l0,0c0,0,0,0,0,0
		c0,0,0,0.01,0.01,0.01c0.01,0.01,0.01,0.02,0.02,0.02c0,0,0,0.01,0.01,0.01c0.4,0.46,0.8,0.96,1.41,1.16
		c0.15,0.05,0.3,0.07,0.44,0.07c0.1,0,0.2-0.01,0.29-0.03c0.05,0.02,0.11,0.05,0.16,0.07c1.48,0.71,3.09,1.12,4.62,1.73
		c0.04,0.04,0.08,0.08,0.13,0.13c0.4,0.4,0.8,0.8,1.26,1.12c0,0.01-0.01,0.02-0.01,0.03c-0.09,0.23-0.34,0.38-0.58,0.38
		C35.65,14.01,35.58,14,35.5,13.96z"/>
	<path class="st17" d="M28.01,9.35C28.01,9.35,28,9.35,28.01,9.35C28,9.34,27.99,9.33,27.98,9.32C28,9.33,28.01,9.34,28.01,9.35
		C28.01,9.35,28.01,9.35,28.01,9.35z"/>
	<path class="st17" d="M27.98,9.32C27.98,9.32,27.98,9.32,27.98,9.32C27.98,9.32,27.98,9.32,27.98,9.32L27.98,9.32z"/>
	<path class="st17" d="M27.19,8.71c-0.01-0.01-0.02-0.01-0.03-0.02C27.17,8.7,27.18,8.7,27.19,8.71
		C27.19,8.71,27.19,8.71,27.19,8.71z"/>
	<path class="st17" d="M22.49,8.54c-0.64,0-0.8-0.84-0.3-1.18c0.4-0.23,0.82-0.34,1.25-0.34c0.07,0.19,0.14,0.37,0.21,0.56
		c0.1,0.26,0.2,0.52,0.3,0.78c-0.22-0.07-0.46-0.12-0.69-0.15c-0.15,0-0.26,0.08-0.37,0.16c-0.11,0.08-0.22,0.17-0.37,0.17
		C22.51,8.54,22.5,8.54,22.49,8.54z"/>
	<path class="st17" d="M24.24,21.29c0.04-0.81,0.07-1.62,0.11-2.43c-0.62,0.65-1.43,0.06-1.34-0.75c-0.22-3.31-0.42-6.61-0.89-9.89
		c-0.19-1.05-0.45-2.08-1.04-2.97c-0.18-0.32-0.47-0.66-0.29-1.04c0.26-0.55,0.93-0.43,1.25,0.01c0.06-0.04,0.13-0.08,0.2-0.1
		c0.07,0.12,0.13,0.25,0.2,0.37c-0.01-0.01-0.02-0.02-0.02-0.04c0.24,0.47,0.45,0.96,0.64,1.45c0.2,0.56,0.38,1.12,0.59,1.68
		c0.22,0.56,0.44,1.13,0.65,1.69c-0.01-0.02-0.02-0.04-0.03-0.07c0.09,0.25,0.18,0.5,0.27,0.75c0.02,0.23,0.05,0.46,0.07,0.7
		c0-0.02,0-0.04,0-0.07c0.04,0.45,0.07,0.89,0.08,1.34c0.02,0.46,0.02,0.92,0.04,1.38c0.04,0.89,0.09,1.79,0.14,2.68
		c0.05,0.91,0.09,1.83,0.07,2.74c0,0.23-0.01,0.46,0,0.68c0.02,0.26,0.1,0.55,0.38,0.62c0.05,0.01,0.11,0.02,0.16,0.02
		c0.02,0,0.04,0,0.06,0c-0.02,0.42-0.04,0.84-0.06,1.26c0,0.4-0.31,0.59-0.62,0.59C24.54,21.89,24.23,21.69,24.24,21.29z"/>
	<path class="st17" d="M24.98,20.49c-0.37-0.06-0.77-0.15-1.04-0.42c-0.53-0.51,0.23-1.36,0.79-0.89c0.11,0.07,0.26,0.09,0.39,0.11
		c-0.3-1.43,1.53-0.75,1.95,0C27.96,20.75,25.88,20.7,24.98,20.49z"/>
	<path class="st17" d="M28.32,10.31c-1.45-0.67-2.93-1.05-4.53-1.25c-0.34-0.04-0.57-0.37-0.53-0.7c0.05-0.34,0.36-0.55,0.7-0.53
		c0.59,0.11,1.21,0.2,1.82,0.32c0.22,0.09,0.44,0.19,0.66,0.27c0.23,0.08,0.45,0.16,0.67,0.25c0,0-0.01,0-0.02-0.01
		c0.01,0,0.02,0.01,0.04,0.02c0.01,0,0.01,0,0.02,0.01c0,0-0.01,0-0.01,0c0,0-0.01,0-0.01,0c0,0-0.01,0-0.02-0.01
		c0.01,0.01,0.02,0.01,0.03,0.01c0,0,0.01,0,0.01,0c0,0,0,0,0,0c0.01,0.01,0.02,0.01,0.03,0.01c0.08,0.04,0.17,0.08,0.25,0.13
		c0.05,0.03,0.09,0.07,0.14,0.1c0,0,0.01,0.01,0.01,0.01c0,0,0,0,0,0c0,0,0,0,0,0c0.13,0.11,0.25,0.22,0.37,0.34
		c0.01,0.01,0.01,0.01,0.02,0.02l0,0c0,0,0,0,0,0c0.01,0.01,0.02,0.02,0.04,0.04C28,9.34,27.99,9.33,27.98,9.32
		c0.27,0.3,0.53,0.62,0.84,0.86c-0.12,0.08-0.27,0.13-0.45,0.13C28.36,10.31,28.34,10.31,28.32,10.31z"/>
	<path class="st17" d="M27.98,9.32C27.98,9.31,27.97,9.31,27.98,9.32C27.98,9.31,27.98,9.32,27.98,9.32
		C27.98,9.32,27.98,9.32,27.98,9.32z"/>
	<path class="st17" d="M27.46,8.85c0.02,0.01,0.04,0.02,0.05,0.03C27.49,8.87,27.47,8.86,27.46,8.85z"/>
	<path class="st17" d="M27.19,8.71c0,0-0.01,0-0.01-0.01C27.18,8.7,27.18,8.71,27.19,8.71C27.19,8.71,27.19,8.71,27.19,8.71z"/>
	<path class="st17" d="M27.16,8.69C27.16,8.69,27.16,8.69,27.16,8.69c0,0,0.01,0,0.02,0.01C27.17,8.7,27.16,8.7,27.16,8.69z"/>
	<path class="st17" d="M27.15,8.69C27.15,8.69,27.15,8.69,27.15,8.69C27.15,8.69,27.16,8.69,27.15,8.69
		C27.16,8.69,27.15,8.69,27.15,8.69z"/>
	<path class="st17" d="M34.23,18.4c-3.75-0.53-7.1-2.85-9.46-5.73c-0.17-0.13-0.28-0.34-0.25-0.57c0.11-0.68,0.96-0.62,1.26-0.11
		c1.97,2.41,4.74,4.32,7.76,5.06c0.38,0.07,0.8,0.08,1.16,0.22C35.43,17.58,34.95,18.7,34.23,18.4z"/>
	<path class="st17" d="M29.37,19.96c-0.99-0.82,2.75-3.12,3.43-2.62c0.49,0.26,0.34,1.06-0.21,1.12c-0.91,0.2-1.65,0.93-2.35,1.5
		C29.99,20.18,29.62,20.2,29.37,19.96z"/>
	<path class="st17" d="M30.92,11.64c-0.79-0.54-1.75-0.56-2.6-0.94c-1.2-0.66-2.4-1.28-3.77-1.51c-0.5-0.11-1.36-0.1-1.28-0.83
		c0.04-0.32,0.36-0.58,0.69-0.52c1.87,0.22,3.55,1.04,5.19,1.88c0.83,0.23,1.66,0.38,2.38,0.88C32.67,10.88,31.84,12.28,30.92,11.64
		z"/>
	<path class="st17" d="M5.8,23.87C3.77,23.15,9.27,9.8,10.15,7.88c0.32-0.97,1.71-0.45,1.12,0.44c-1.83,4.16-3.54,8.55-4.47,12.98
		C6.47,22.03,6.89,23.9,5.8,23.87z"/>
</g>
</svg>
