<?xml version="1.0" encoding="utf-8"?>
<!-- Generator: Adobe Illustrator 27.7.0, SVG Export Plug-In . SVG Version: 6.00 Build 0)  -->
<svg version="1.1" id="圖層_1" xmlns="http://www.w3.org/2000/svg" xmlns:xlink="http://www.w3.org/1999/xlink" x="0px" y="0px"
	 viewBox="0 0 152 124" style="enable-background:new 0 0 152 124;" xml:space="preserve">
<style type="text/css">
	.st0{fill:none;}
	.st1{fill:#294A26;}
	.st2{fill:#1F2214;}
	.st3{fill:#9E6924;}
	.st4{fill:#164323;}
	.st5{fill:#293B1D;}
	.st6{fill:#2A4D28;}
	.st7{fill:#749A2F;}
	.st8{fill:#76933C;}
	.st9{fill:#5F7D33;}
	.st10{fill:#3F562A;}
	.st11{fill:#101D0A;}
	.st12{fill:#C89A5D;}
	.st13{fill:#F2C1A3;}
	.st14{fill:#A87762;}
	.st15{fill:#3E3526;}
	.st16{fill:#28201C;}
	.st17{fill:#040000;}
	.st18{fill:#41617E;}
	.st19{fill:#DDB3A2;}
	.st20{fill:#A34529;}
	.st21{fill:#E7D0C8;}
	.st22{fill:#282828;}
	.st23{fill:#B1927D;}
	.st24{fill:#A3A399;}
	.st25{fill:#BF8466;}
	.st26{fill:#424242;}
	.st27{fill:#552D18;}
	.st28{fill:#A1BA39;}
	.st29{fill:#E2E1E1;}
	.st30{fill:#0D2037;}
	.st31{fill:#968272;}
	.st32{fill:#9CA2C4;}
	.st33{fill:#928884;}
	.st34{fill:#DCA88D;}
	.st35{fill:#BBB6C5;}
	.st36{fill:#9C6D4D;}
	.st37{fill:#080605;}
	.st38{fill:#2A6031;}
	.st39{fill:#FEFAFC;}
	.st40{fill:#509AB3;}
	.st41{fill:#4F431E;}
	.st42{fill:#3D6832;}
	.st43{fill:#84B733;}
	.st44{fill:#1B2912;}
	.st45{fill:#806F68;}
	.st46{fill:#4A3332;}
	.st47{fill:#9BD7F0;}
	.st48{fill:#78484B;}
	.st49{fill:#A1D9F2;}
	.st50{fill:#523D38;}
	.st51{fill:#C1A09C;}
	.st52{fill:#65676D;}
	.st53{fill:#C7BBAC;}
	.st54{fill:#5E6166;}
	.st55{fill:#CA997D;}
	.st56{fill:#C6C2B6;}
	.st57{fill:#17151C;}
	.st58{fill:#5D5A5C;}
	.st59{fill:#030810;}
	.st60{fill:none;stroke:#040000;stroke-width:0;stroke-linecap:round;stroke-linejoin:round;}
	.st61{fill:#9F8D89;}
	.st62{fill:#EECFCD;}
	.st63{fill:#BACAE8;}
	.st64{fill:#370504;}
	.st65{fill:#212022;}
	.st66{fill:#EC6B5E;}
</style>
<g>
	<path class="st41" d="M66.37,106.63c-4.93-10.04-9.67-20.57-18.98-27.28c-2-1.15-0.19-4.28,1.81-3.09
		c4.87,3.68,9.4,8.33,12.51,13.62c2.92,4.8,5.22,9.93,7.79,14.92C70.69,106.81,67.54,108.68,66.37,106.63z"/>
	<path class="st41" d="M67.94,117.04c-1.88-2.76-2.49-6.21-3.9-9.22c-1.51-3.73-3.82-7.07-5.32-10.82
		c-2.44-6.22-6.49-11.69-9.05-17.79c-0.31-2.63,3.94-2.67,3.74-0.06c5.7,10.09,11.02,20.31,15.45,30.99
		c0.69,1.54,0.98,3.3,1.95,4.69C72.24,116.66,69.38,118.91,67.94,117.04z"/>
	<path class="st41" d="M70.01,116.54c-0.88-2.56-8.13-11.47-3.12-12.36c2.08-0.02,1.74,2.8,2.67,3.94c0.62,2.33,5.53,7.31,2.89,9.06
		C71.64,117.67,70.48,117.4,70.01,116.54z"/>
	<path class="st41" d="M72.19,115.39c-2.51-0.53-1.65-3.83-1.89-5.72c-1.65,1.32-3.64-0.69-2.88-2.48c0.51-2.73,0.81-5.49,1.04-8.25
		c0.7-6.56-0.54-13.5,0.66-19.89c4.46-3.32,3.53,6.52,4.15,8.83c1.06-0.46,2.34,0.22,2.74,1.26c4.37-3.13,7.5-7.33,10.57-11.64
		c1.48-1.58,4.08,0.69,2.69,2.36c-3.76,5.54-8.17,11.22-14.45,14c-0.39,3.04-0.83,6.09-0.51,9.16
		C73.97,105.82,76.3,115.41,72.19,115.39z"/>
	<path class="st41" d="M72.25,95.6c-2.63-1.06-0.72-3.4,0.81-4.48c1.53-1.58,2.86-3.35,4.28-5.03c1.65-1.99,3.33-3.84,5.02-5.75
		c1.6-1.67,4.19,0.91,2.53,2.53C81.9,85.4,75.5,95.84,72.25,95.6z"/>
	<path class="st41" d="M72.17,114.65c0-0.99,0.83-1.81,1.81-1.81c0.99,0,1.81,0.83,1.81,1.81c0,0.99-0.83,1.81-1.81,1.81
		C72.99,116.46,72.17,115.64,72.17,114.65z"/>
	<path class="st41" d="M71.92,116.61c-1.16-4.18-0.96-8.73-1.08-13.05c0.02-0.96,0.79-1.77,1.77-1.77c3.1,0.02,1.36,7.24,2.08,9.54
		c4.12-7.53,8.53-14.91,12.82-22.36c2.53-5.54,5.14-11.11,9.3-15.65c1.4-1.82,4.27,0.36,2.83,2.18c-4.28,4.7-6.73,10.56-9.49,16.2
		c-2.25,4.09-5.02,7.88-7.04,12.1c-1.7,3.34-3.88,6.4-5.55,9.75C76.48,115.34,74.09,119.32,71.92,116.61z"/>
	<path class="st41" d="M76.1,119.51c-0.19-0.12-0.37-0.25-0.52-0.41c-2.47-0.63-5.27,0.37-7.6-0.52c-3.08-4.26,4.66-3.31,6.94-3.24
		c0.31-3.07,2.08-5.66,3.88-8.07c2.18-3.17,3.8-6.67,5.55-10.09c4.36-8.41,9.34-16.53,15.07-24.07c1.39-1.83,4.25,0.34,2.83,2.18
		c-7.11,9.49-13,19.93-18.24,30.53c-1.78,3.62-5.45,6.52-5.5,10.8C79.83,118.16,77.83,120.6,76.1,119.51z"/>
	<path class="st41" d="M93.98,91.3c-1.74,0.07-2.68-2.15-1.28-3.25c0.78-0.73,1.77-0.11,2.65-0.45c2.39-0.57,3.2-3.43,5.28-4.15
		C106.86,84.45,96.99,92.38,93.98,91.3z"/>
	<path class="st4" d="M10.2,80.53c-0.44-0.44-0.6-1.08-0.52-1.69c0.02-0.15,0.05-0.29,0.1-0.42c-1.09-2.26,1.52-3.91,3.56-3.7
		c1.48-1.2,3.81-4.65,5.6-2.08c0.86-1.19,1.31-2.95,2.84-3.45c1.27-0.36,2.57,0.74,2.53,2.04c0.46-2.78,4.17-3.02,3.9,0.07
		c0.16-0.03,0.33-0.04,0.51-0.03c1.24-2.13,1.53-7.44,4.49-7.5c0.79,0.11,1.45,0.75,1.55,1.55c0.24,2.31-1.22,4.57-0.94,6.85
		c1.92,1.53,3.84-2.96,5.95-1.61c0.97,0.55,1.08,1.76,0.63,2.69c-1.2,2.11,0.59,6.68-2.13,7.23c-2.55,0.2-2.16-2.95-2.04-4.65
		c-1.67,0.64-3.78,0.43-4.97-1.02c-0.91,2.03-1.49,4.7-3.6,5.82c-1.63,0.66-3.22-1.04-2.79-2.66c-0.02-0.01-0.03-0.01-0.05-0.02
		c-1.35,3.33-6.34,3.92-5.32-0.64c-0.06,0.03-0.12,0.05-0.17,0.08c0.01,1.66-1.84,2.13-3.13,1.52
		C14.67,80.29,12.12,82.34,10.2,80.53z"/>
	<path class="st4" d="M43.35,84.72c-0.39-0.1-0.73-0.23-1.05-0.48c-0.32-0.25-0.55-0.57-0.7-0.93c-1.24,1.1-3.52,0.66-3.74-1.16
		c-1.91,1.33-3.07-0.84-3.45-2.42c0.01,0.02,0.02,0.03,0.03,0.05c0.02,0.04,0.04,0.08,0.06,0.12c-0.2-0.38-0.52-0.69-0.9-0.89
		c-5.01,3.69-7.16-5.07-1.02-4.19c1.75-3.19,5.07-2.31,4.8,1.35c1.05-0.72,2.48-0.72,3.4,0.22c1.12-0.06,2.07,1,1.86,2.1
		c0.78-0.04,1.52,0.44,1.91,1.11c0.28,0.47,0.35,1.03,0.38,1.57c1.35-0.12,3.25-0.32,3.49,1.46C48.6,85.27,45.1,84.86,43.35,84.72z"
		/>
	<path class="st4" d="M49.72,83.91c0-0.98,0.82-1.8,1.8-1.8s1.8,0.82,1.8,1.8c0,0.98-0.82,1.8-1.8,1.8S49.72,84.89,49.72,83.91z"/>
	<path class="st4" d="M62.65,83.77c-0.11-0.11-0.21-0.22-0.3-0.33c-0.96,0.89-2.63,1.16-3.53,0.04c-4.18,0.7-2.5-5.77,0.18-6.52
		c1.4-2.46,4.24-0.48,3.33,1.92c1.07-0.27,2.17,0.46,2.56,1.45c0.67-0.53,1.6-0.68,2.4-0.4c1.29-1.13,1.52-3.2,2.97-4.09
		c1.39-0.66,3.03,0.95,2.35,2.35c-1.22,2.28-2.8,5.95-5.95,5.34C65.54,84.43,63.8,84.89,62.65,83.77z"/>
	<path class="st4" d="M70.54,76.72c0-0.98,0.82-1.8,1.8-1.8s1.8,0.82,1.8,1.8s-0.82,1.8-1.8,1.8S70.54,77.7,70.54,76.72z"/>
	<path class="st4" d="M73.32,82.22c-0.43-3.56,0.91-7.87,3.42-10.5c1.44-1.49,3.91,0.48,2.79,2.21c0.31,0.16,0.57,0.4,0.76,0.7
		c0.69-0.02,1.26,0.39,1.68,0.9c0.95-1.07,2.72-0.71,3.2,0.64c1.72-1.73,4.57-9.55,7.38-7.54c0.79,0.61,0.88,1.7,0.32,2.49
		c-2.63,2.6-4.96,11.26-9.55,9.22c-1.14,2.01-4.11,1.34-4.15-1c-0.12,0.02-0.24,0.03-0.36,0.03C78.17,81.57,75.11,85.73,73.32,82.22
		z"/>
	<path class="st4" d="M88.83,79.73c-2.5-3.18,1.54-8.2,2.74-11.39c0.89-2.12,4.2-0.72,3.27,1.38c-0.52,1.06-1.03,2.13-1.52,3.2
		c1.35-1.22,3.13-0.52,4.64-0.07c2.97,1.55,0.68,4.67-2.53,3.08c-0.81,0.77-1.35,1.91-2.43,2.34
		C92.17,79.69,90.34,80.99,88.83,79.73z"/>
	<path class="st4" d="M100.48,85.92c-0.14-0.52-0.08-1.03,0.03-1.53c-0.87-1.65,0.71-3.39,1.14-4.99c0.9-1.78,1.29-4.88,3.75-5.02
		c1.43-0.02,2.33,1.78,1.38,2.87c0.58-0.06,1.16,0.15,1.56,0.57c0.17-0.05,0.34-0.07,0.51-0.08c0.06-0.11,0.14-0.22,0.22-0.32
		c0.2-0.25,0.45-0.44,0.74-0.56c0.4-1.36,0.27-3.5,2.07-3.76c0.77-0.11,1.58,0.31,1.91,1.02c0.08-1.8,0.12-5.11,2.67-4.82
		c0.24-1.17,1.58-1.89,2.67-1.36c0.04-2.21,3.47-2.38,3.72-0.18c0.04,1.86,0.91,3.61,2.14,4.98c1.47-1.62,0.84-4.28,2.24-5.85
		c6.42-3.09,0.69,15.78-5.46,7.88c-0.43,1.37-1.29,2.85-2.8,3.16c-0.62,1.56-2.66,3.48-4.19,1.85c-0.47,0.27-0.98,0.44-1.54,0.36
		c-0.16-0.02-0.32-0.06-0.47-0.12c-0.33,1.04-0.76,2.19-1.86,2.62c-0.43,1.33-1.16,3.23-2.89,2.96c-0.78,0.3-1.69,0.02-2.24-0.58
		C104.89,87.1,101.46,88.85,100.48,85.92z"/>
	<path class="st4" d="M124.51,66.83c-3.14-1.18-5.08-4.7-5.3-7.94c-0.08-1.54,0.56-3.94,2.56-3.43c2.52,0.87,0.23,3.86,1.72,5.57
		c2.08,4.63,4.46,0.07,5.94,3.31C129.95,66.89,126.28,67.25,124.51,66.83z"/>
	<path class="st4" d="M129.97,68.53c-2.23-1.36-4.48-3.78-5.33-6.3c-0.46-2.01,1.67-4.39,3.47-2.65c-0.95-1.69,0.54-4.19,2.49-3.03
		c-0.32-2.15,2.67-2.81,3.65-1.05c0.72,1.09,0.39,2.54,1.07,3.62c0.38-1.91-1.49-3.85-0.45-5.56c0.71-0.96,2.02-0.8,2.91-0.2
		c4.43,3.11,2.91,1.71,5.74-1.08c5.69-0.82,0.35,9.02-4.54,6.1c0.33,2.54-1.66,5.5-4.46,4.66c-0.46,0.74-1.18,1.3-2.06,1.32
		c-0.05,0-0.1,0-0.15,0C132.44,66.31,132.91,68.86,129.97,68.53z"/>
	<path class="st4" d="M142.79,50.96c-2.49-0.53-4.08-3.76-3.33-6.08c0.74-1.39,3.06-1.11,3.4,0.44c0.15,0.63,0.24,1.28,0.51,1.87
		c1.41,0.7,3.22,0.19,4.69-0.22c0.94-0.3,1.98,0.34,2.23,1.27C150.59,51.66,145.09,51.32,142.79,50.96z"/>
	<path class="st4" d="M136.18,51.79c-2.13-0.69-7.28-2.23-5.16-5.23c1.72-1.64,3.41,1.17,5.1,1.41
		C139.04,48.21,139.33,52.15,136.18,51.79z"/>
	<path class="st4" d="M140.62,53.27c-9.19-2.51-0.57-10.29-0.32-3.96c0.78,0.45,1.85,0.49,2.33,1.34
		C143.46,51.94,142.08,53.75,140.62,53.27z"/>
	<path class="st4" d="M8.65,75.57c-0.79-2.98,3.12-4.14,5.23-5.04c2.14-0.91,3.56,2.43,1.4,3.32c-0.99,0.4-2.01,0.78-2.93,1.32
		C12.21,77.13,9.3,77.33,8.65,75.57z"/>
	<path class="st4" d="M13.28,71.52c-3.04-0.76-1.77-3.59,0.49-4.47c1.63-0.79,3.93-3.52,5.48-1.27c1.13,2.2-1.94,3.13-3.28,4.18
		C15.83,71.29,14.44,71.74,13.28,71.52z"/>
	<path class="st4" d="M8.87,68.6c-3.17-2.9,5.23-5.9,5.74-2.46c0.2,1.4-1.11,2.09-2.32,2.17C11.13,68.46,9.98,69.53,8.87,68.6z"/>
	<path class="st4" d="M5.34,69.3c-0.33-1.13,0.57-2.21,1.69-2.33c1.67-0.44,4.2-2.48,5.33-0.2c0.75,1.87-1.35,2.6-2.73,3.08
		C8.25,70.5,5.95,71.3,5.34,69.3z"/>
	<path class="st4" d="M7.41,64.93c-1.34-0.97-0.61-3.26,1.07-3.22c0.51,0.04,0.93,0.23,1.44,0.06c1.51-0.32,3.62-1.88,4.55,0.18
		C15.51,64.9,9.19,66.19,7.41,64.93z"/>
	<path class="st4" d="M5.71,62.16c-2.3-2.74,1.29-3.57,3.5-3.36c2.05,0.33,5.71-1.69,6.43,1.15c-0.03,3.39-5.84,2.05-8.12,2.53
		C6.92,62.62,6.23,62.55,5.71,62.16z"/>
	<path class="st4" d="M12.62,57.98c-2.25-0.37-7.92-1.44-6.29-4.69c1.93-1.98,4.41,1.44,6.77,1.14
		C15.41,54.72,14.91,58.3,12.62,57.98z"/>
	<path class="st4" d="M6.88,54.01c-2.28-3.11,2.09-4.51,4.55-3.62c1.9,0.65,6.14,0.2,5.67,3.16c-1.2,2.78-4.87,0.19-7.07,0.3
		C9.51,55.15,7.54,55.24,6.88,54.01z"/>
	<path class="st4" d="M14.55,49.65c-2-0.5-6.87-0.74-5.11-3.9c1.55-1.69,3.93,0.34,5.83,0.4C17.38,46.65,16.67,50.04,14.55,49.65z"
		/>
	<path class="st4" d="M10.14,42.88c0-1.01,0.84-1.85,1.85-1.85s1.85,0.84,1.85,1.85s-0.84,1.85-1.85,1.85S10.14,43.89,10.14,42.88z"
		/>
	<path class="st4" d="M11.67,65.46c-8.39,0.17-5.37-6.26-2.14-3.87c0.87,0.15,1.74,0.25,2.62,0.33
		C14.46,62.18,13.96,65.81,11.67,65.46z"/>
	<path class="st4" d="M7.99,73.75c-2.63-0.37-1.72-4.3,0.73-3.52c1.93-0.22,4.63-3.01,5.98-0.48C15.73,72.47,9.91,73.85,7.99,73.75z
		"/>
	<path class="st4" d="M30.63,62.63c-0.02-1.75,4.46-4.32,5.49-2.18c1.03,1.87-1.23,2.82-2.56,3.53
		C32.49,64.98,30.59,64.1,30.63,62.63z"/>
	<path class="st4" d="M45.83,70.37c-3.85-1.14-0.8-4.61,1.79-5.1c3.23-0.69,3.18,3.32,0.2,3.78C47.6,69.92,46.7,70.48,45.83,70.37z"
		/>
	<path class="st4" d="M51.16,75.69c-1.45-1.75,0.84-6.07,3.18-4.87c1.36,0.8,0.88,2.38,0.05,3.39C54.79,76.04,52.3,77.2,51.16,75.69
		z"/>
	<path class="st4" d="M58.12,76.39c-0.37-0.29-0.62-0.72-0.69-1.18c-0.09-0.63,0.2-1.29,0.69-1.69c0.12-0.47,0.26-0.95,0.19-1.44
		c-0.04-1.82,2.52-2.51,3.41-0.92C62.6,73.3,61.08,78.17,58.12,76.39z"/>
	<path class="st4" d="M66.35,76.19c-0.71-0.3-1.18-1.06-1.1-1.83c-0.19-0.06-0.36-0.15-0.51-0.27c-0.39,1.29-2.1,2.01-3.17,1.1
		c-1.58,1.07-3.39-0.8-2.62-2.43c0.29-1.88,0.54-3.78,0.6-5.68c-0.28-0.8,0.06-1.68,0.78-2.14c2.95-1.29,3.05,2.64,2.63,4.56
		c0.59-1.21,2.1-1.91,3.33-1.2c0.01,0,0.02-0.01,0.03-0.01c0.44-0.19,0.93-0.18,1.36-0.01c0.57-2.04,3.17-3.44,4.81-1.68
		c0.38-2.55,3-4.92,4.86-2.05c0.76,2.11,1.26,4.96,0.5,7.08c-0.78,1.09-2.61,0.83-3.11-0.4c-0.7,2.96-4.05,2.63-4.26-0.36
		C69.41,72.67,69.32,77.03,66.35,76.19z"/>
	<path class="st4" d="M17.77,43.62c-0.8-2.89-2.01-7.56-6.01-6.42c-1.01,1.78-3.78,0.64-3.48-1.32c0.95-3.09,5.89-2.88,8.2-1.47
		c-0.01-2,2.57-2.61,3.8-1.24c0.16-0.08,0.34-0.13,0.53-0.16c0.17-0.02,0.33-0.02,0.49,0c-0.16-1.28,0.77-2.68,2.17-2.41
		c0.04-2.13,2.89-2.76,3.98-1c-0.11-1.59,0.59-3.77,2.61-3c0.44-2,3.25-1.98,4.07-0.27c-0.14-0.67-0.29-1.33-0.5-1.97
		c-0.56-1.71,1.83-3.07,3-1.74c-0.13-1.84,2.04-3.21,3.34-1.62c1.16,1.98,1.45,4.41,3.05,6.18c1.45,3.02-2.42,4.39-4.12,0.31
		c-0.25,0.4-0.55,0.75-0.93,1c0.24,3.4-3.31,7.07-5.49,2.9c-0.44,1.14-1.32,2.35-2.62,2.49c-0.59,1.07-1.95,1.57-3.07,1.04
		c-0.34,1.98-0.71,5.54-3.43,5.26c-0.72,0.46-1.64,0.27-2.28-0.24c-0.13,0.01-0.27,0.01-0.4-0.01c0.07,0.86,0.31,1.68,0.47,2.53
		C21.48,44.35,18.66,45.32,17.77,43.62z"/>
	<path class="st4" d="M44.45,25.11c-1.65-1.77-5.84-7.84-1.66-8.74c2.36,0.2,1.74,3.43,3.15,4.85c0.81,1.13,2.4,2.52,1.05,3.89
		C46.31,25.79,45.12,25.82,44.45,25.11z"/>
	<path class="st4" d="M50,23.12c-2.41-0.6-4.54-6.28-1.08-6.74c1.58-0.02,1.74,1.51,1.92,2.69C52.24,20.57,52.76,23.08,50,23.12z"/>
	<path class="st4" d="M52.48,20.73c-1.11-1.9-2-5.54,1.38-4.8c1.29,0.52,1.15,2.17,1.81,3.2C56.59,21.09,53.49,22.64,52.48,20.73z"
		/>
	<path class="st4" d="M54.56,18.89c-0.88-1.72-1.16-3.9-0.5-5.74c0.32-0.83,1.3-1.26,2.13-1.03c1.58,0.42,1.3,2.01,1.12,3.25
		c0.02,1.44,1.39,3.19-0.3,4.17C56.18,20.03,55.07,19.74,54.56,18.89z"/>
	<path class="st4" d="M68.99,10.84c0-1.06,0.88-1.94,1.94-1.94s1.94,0.88,1.94,1.94s-0.88,1.94-1.94,1.94S68.99,11.9,68.99,10.84z"
		/>
	<path class="st4" d="M123.1,29.69c0-0.99,0.82-1.81,1.81-1.81s1.81,0.82,1.81,1.81s-0.82,1.81-1.81,1.81S123.1,30.67,123.1,29.69z"
		/>
	<path class="st4" d="M137.88,41.94c-1.99-0.79-6.3,0.12-6.3-2.88c0.87-3.03,4.87-0.72,7.02-0.63
		C140.71,38.93,140.01,42.32,137.88,41.94z"/>
	<path class="st4" d="M44.91,80.37c-1.32-0.82-1.84-2.42-1.92-3.89c-2.45,0.59-4.19-1.76-4.14-4.01c-2.13-0.84-3.31-3.24-4.1-5.28
		c-1.42,1.46-3.14,2.84-5.21,3.16c-2.14,3.79-7.34,4.33-9.21,0.01c-3.8,2.44-7.79-1.57-7.21-5.54c-2.79-3.95-1.76-21.02,5.24-20.17
		c3.94-3.26,9.36-0.7,8.81,4.53c0.3,0.1,0.58,0.24,0.85,0.42c4.09-3.84,14.68-8.84,12.84,1.33c5.47-3.18,12.7-0.68,17.18,3.2
		c0.06,0.01,0.11,0.02,0.17,0.03c0.13,0.03,0.26,0.06,0.38,0.09c1.81-3.41,8.5-5.23,7.36,0.52c6.51-5.64,18.28-5.62,21.62,3.41
		c1.07-0.33,2.15-0.62,3.25-0.79c0.29-0.3,0.65-0.5,1.08-0.56c0.52-0.07,1.09,0.09,1.48,0.45c1.45,0.13,2.84,0.55,4.14,1.23
		c1.61-1.55,4.07-1.2,5.94-0.33c1.72-3.21,6.39-3.71,8.48-0.6c2.52,3.22,1.43,7.51,1.58,11.25c3.7,2.7,0.77,8.75-2.6,10.41
		c-2.77,1.26-5.59-1.36-5.46-4.19c-4.22,2.04-8.41-2.74-8.2-6.82c-0.1,0.05-0.19,0.1-0.29,0.15c-1.4,0.69-3.29,0.87-4.73,0.14
		c-0.65,1.17-1.76,2.32-3.17,2.41c-1.03,2.37-3.4,5.47-6.3,4.08c-1.59,1.79-4.7,2.11-6.2,0.06c-1.51,0.95-3.25,2.2-5.13,1.82
		c-3.33,4.35-10.95,2.65-10.82-3.24c-0.56,1.53-1.62,3.76-3.6,3.24c-1.76,2.55-5.03-0.33-3.6-2.73c-0.25,0.02-0.52,0.06-0.77,0.02
		c-0.15-0.03-0.29-0.06-0.43-0.09C51.34,77.14,48.89,82.67,44.91,80.37z M46.79,77.03c0.39-0.35,0.62-0.84,0.84-1.31
		c-0.03,0-0.07,0-0.1,0c-0.27,0.21-0.56,0.4-0.87,0.51C46.65,76.51,46.71,76.77,46.79,77.03z M66.45,75.67
		c1.6-0.37,3.16-1.81,3.4-3.45c-0.16-0.04-0.32-0.1-0.48-0.15c-0.2-0.07-0.4-0.16-0.58-0.27c-1.3,0.8-2.86,0.89-4.35,0.81
		C63.96,74.02,64.75,75.9,66.45,75.67z M103.26,71.78c-1.45-3.09-1.25-6.75-1.11-10.1c-0.22-0.09-0.44-0.18-0.66-0.26
		c-0.27-0.09-0.53-0.18-0.56-0.21c-0.25-0.07-0.39-0.08-0.62-0.09c0.09,0.01,0.17,0.01,0.25,0.02c-0.05,0-0.11,0-0.16,0
		c-0.03,0-0.05,0.01-0.08,0.01C102.36,64.35,98.98,69.99,103.26,71.78z M24.73,69.8c0.28-0.01,0.52-0.14,0.72-0.33
		c-0.65-0.57-1.32-1.22-1.68-2.02c-0.15,0.17-0.3,0.34-0.46,0.5C23.51,68.66,23.9,69.74,24.73,69.8z M79.01,69.75
		c0.05,0.01,0.09,0.03,0.14,0.04c-0.06-0.21-0.11-0.43-0.15-0.64c-0.03,0.19-0.06,0.38-0.08,0.58
		C78.95,69.73,78.98,69.74,79.01,69.75z M108.89,69.46c0.06-0.14,0.11-0.29,0.16-0.43c0.05-0.15,0.09-0.3,0.14-0.46
		c-0.13,0.24-0.29,0.46-0.47,0.65C108.79,69.3,108.84,69.38,108.89,69.46z M60.11,68.95c0.93-0.23,1.56-1.03,2.09-1.77
		c-0.2-1.12-0.27-2.27-0.16-3.4C61.17,65.38,61.05,67.34,60.11,68.95C60.1,68.95,60.11,68.95,60.11,68.95z M94.45,65.24
		c0.35-0.04,0.69-0.15,1-0.3c-0.23-0.99-0.05-2.05,0.19-3.02c0.01-0.05,0.02-0.1,0.04-0.15c-0.43-0.23-0.9-0.41-1.37-0.54
		c-0.06,0.83-0.2,1.66-0.38,2.47c-0.08,0.38-0.17,0.76-0.27,1.13c0.06,0.14,0.15,0.27,0.29,0.34C94.1,65.23,94.28,65.24,94.45,65.24
		z M48.41,64.3c0.25-0.03,0.5-0.11,0.73-0.21c-0.31-0.83-0.5-1.7-0.54-2.58c-0.5,0.17-1.01,0.35-1.46,0.63
		c-0.05,0.54-0.06,1.1,0.05,1.63C47.64,63.85,48.06,64.01,48.41,64.3z M34.23,60.44c-0.23,0.52-0.43,1.06-0.64,1.59
		c-0.2,0.52-0.41,1.04-0.62,1.56c0.96-1,1.23-2.16,1.4-3.49C34.33,60.21,34.28,60.33,34.23,60.44z M76.88,59.87
		c0.69,0.98,0.77,2.21,0.69,3.37c0.83-0.83,1.98-1.5,3.2-1.25c1.46-1.26,3.72-1.14,5.04,0.26c0.03-0.12,0.07-0.25,0.11-0.37
		c-1.47-0.62-1.71-2.27-2.31-3.58c-1.81-3-5.95-4.26-9.28-3.68c0.48,0.83,0.65,1.81,0.65,2.77c0.28,0.39,0.5,0.84,0.67,1.3
		C76.14,58.96,76.55,59.37,76.88,59.87z M41.15,62.79c0.06-0.08,0.12-0.16,0.19-0.24c0.3-0.37,0.65-0.66,1.04-0.92
		c0.07-0.24,0.14-0.48,0.2-0.72C41.97,61.41,41.53,62.09,41.15,62.79z M109.16,61.58c0.2,0.06,0.4,0.13,0.59,0.22
		c-0.13-1.59-1.82-3.85-3.08-1.74c0.44,0.37,0.83,0.78,1.2,1.21c0.02,0.02,0.03,0.04,0.05,0.05
		C108.34,61.35,108.77,61.46,109.16,61.58z M69.72,61.55c0.39-0.58,0.8-1.14,1.28-1.63c0.01-0.04,0.02-0.08,0.03-0.11
		c0.06-0.31,0.11-0.63,0.16-0.94c-0.26-0.11-0.55,0.11-0.79,0.23C70.13,59.9,69.87,60.71,69.72,61.55z M15.41,58.71
		c0.78-0.74,1.34-1.66,2.11-2.41c0.01-0.11,0.02-0.22,0.03-0.32c0.02-0.36,0.03-0.71,0.03-1.07c-0.64-0.21-1.26-0.44-1.86-0.75
		c-0.06,0.49-0.11,0.98-0.16,1.48C15.5,56.66,15.43,57.69,15.41,58.71z M40.49,56.26c0.03,0.38,0.07,0.76,0.02,1.14
		c-0.03,0.21-0.09,0.42-0.16,0.62c1.3-1.11,3.25-1.75,4.81-0.8c0.48-0.69,1.06-1.32,1.67-1.86c0.79-0.7,1.71-1.28,2.7-1.67
		c-3.3-1.18-6.64-0.27-9.18,2.05C40.43,55.9,40.48,56.07,40.49,56.26z M35.55,57.2c0.03-0.06,0.07-0.12,0.1-0.17
		c0.18-0.3,0.38-0.6,0.61-0.87c-1.02-2.46,1.61-5.06,1.09-7.69c-2.71,0.8-5.25,2.37-7.33,4.27c0,0.02,0.01,0.05,0.01,0.07
		c0.12,0.81,0.1,1.63-0.05,2.42c0.23,0.05,0.46,0.12,0.68,0.2c0.18,0.07,0.35,0.15,0.5,0.26c1.03-0.07,2.41-0.14,3.12,0.76
		C34.79,56.5,35.26,56.79,35.55,57.2z M20.39,49.91c0.01-0.39-0.23-0.72-0.56-0.91c0,0.01,0,0.03,0,0.04c0,0.05,0,0.1-0.01,0.14
		C20.04,49.4,20.23,49.65,20.39,49.91z"/>
	<path class="st4" d="M78.17,64.93c-0.66-0.09-1.34-0.46-1.75-0.99c-0.3-0.39-0.44-0.83-0.51-1.29c-4.39-1.49-3.38-12.05,1.93-9.87
		c1.74-3.47,5.86-1.56,4.42,2.09C83.32,57.64,81.88,65,78.17,64.93z"/>
	<path class="st4" d="M35.19,68.18c-0.86-0.67-1.19-1.77-1.22-2.82c-0.03-0.93,0.11-1.84,0.37-2.72c-5.89,2.82-8.26-10.9-2.16-9.73
		c0.15-0.23,0.32-0.44,0.51-0.63c0.34-1.4,0.42-3.19,1.81-3.99c0.52-3.63,5.48-5.29,5.93-0.78c-0.23,2.28-1.58,4.33-2.58,6.36
		c0.61,1.55,0.44,3.25-0.15,4.78c0.11,0.27,0.22,0.54,0.34,0.81c0.02,0.04,0.04,0.08,0.07,0.12c0.14,0.07,0.28,0.16,0.4,0.27
		c1.01-2.18,1.89-4.42,2.54-6.73c-0.08-1.09,0.72-2.13,1.85-2.12c3.09,0.38,1.2,4.51,2.23,6.55c1.3-2.51,0.89-6.61,4.87-6.08
		c4.78-0.63,4.57,4.5-0.17,3.66c-0.43,3.51-4.03,9.72-7.52,5.15c-0.57,1.32-1.21,2.63-2.02,3.82C40.47,66.6,37.77,70.03,35.19,68.18
		z M32.88,59.32c0.43-0.22,0.71-0.62,0.95-1.03c-0.51-0.1-1.03-0.09-1.49-0.4C32.41,58.38,32.51,58.97,32.88,59.32z"/>
	<path class="st4" d="M94.11,71.14c-1.56-1.05-1.18-3.23-1.13-4.85c-3-4.28,0.03-10.65,4.82-12.06c3-0.85,6.22,0.03,9.12,0.91
		c0.58-5.01,6.88-2.77,3.61,0.32c-0.13,1.46,1.02,3.13-0.45,4.29c-2.95,3.79-5.9,11.36-11.9,9.41
		C97.57,70.79,95.83,72.2,94.11,71.14z M101.64,60.38c0.42,1.03,0.46,2.09,0.09,3.14c-0.26,0.75-0.63,1.48-1.08,2.14
		c2.58-1.53,3.96-4.53,5.69-6.85c-1.69-0.68-3.5-1.07-5.31-1.25c0.19,0.33,0.32,0.69,0.39,1.04c0.09,0.48,0.09,0.95,0.05,1.43
		C101.54,60.15,101.6,60.27,101.64,60.38z"/>
	<path class="st4" d="M115.61,72.19c-0.05-0.09-0.1-0.17-0.16-0.26c-1.86-0.46-2.57-2.57-2.81-4.26c-0.19-0.09-0.37-0.19-0.54-0.32
		c-0.45-0.35-0.81-0.83-1.01-1.37c-2.47-1.09-3.5-5.65-2.97-8.12c0.85-2.98,4.49-1.16,3.38,1.53c1.5-4.03,4.44-10.68,9.82-8.3
		c3.02-6.18,9.97-1.21,9.67,4.17c0,2.84-0.74,5.69-1.84,8.29c-0.75,2.91-1.27,6.04-3.13,8.49c-1.26,2.24-4.62,0.58-4.58-1.68
		c-0.2-0.01-0.4-0.05-0.6-0.12C120.43,72.36,117.12,74.33,115.61,72.19z M117.08,65.58c0.48-2.02,1.83-4.45,0.77-6.42
		c-0.05,1.89-0.35,3.79-0.97,5.58C116.94,65.03,117.01,65.3,117.08,65.58z M119.98,56.01c0.11-0.05,0.22-0.1,0.33-0.13
		c0.01-0.26,0.03-0.53,0.05-0.79c-0.5-0.79-1.6-0.97-2.19-0.18C118.85,55.14,119.47,55.52,119.98,56.01z M124.39,53.71
		c0.24-0.4,0.55-0.76,0.94-1.03c0.22-0.15,0.46-0.26,0.71-0.34c-0.19-0.2-0.45-0.35-0.73-0.38
		C124.77,52.39,124.52,53.05,124.39,53.71z"/>
	<path class="st4" d="M21.52,84.71c-0.65-0.65-0.72-1.87,0-2.51c2.03-1.16,4.69-6.3,7.16-4.33c1.73,1.98-1.27,3.49-2.43,4.8
		C24.93,83.72,23.32,86.34,21.52,84.71z"/>
	<path class="st4" d="M32.25,83.83c-3.24-0.38-2.27-6.36,0.94-4.21c1.61-1.69,4.21,0.87,2.55,2.52
		C34.82,83.1,33.64,84.05,32.25,83.83z"/>
	<path class="st4" d="M35.37,84.71c-1.57-0.93-0.67-2.73,0.26-3.77c0.71-1.22,1.98-2.76,3.46-1.64c1.74,1.43-0.27,3.2-1.11,4.48
		C37.53,84.77,36.33,85.28,35.37,84.71z"/>
	<path class="st4" d="M39.2,86.46c-0.89-0.38-1.34-1.45-0.95-2.34c0.96-1.55,1.34-5.12,3.86-4.29c0.88,0.37,1.34,1.44,0.95,2.33
		C42.07,83.71,41.75,87.31,39.2,86.46z"/>
	<path class="st4" d="M43.13,85.96c-2.13-1.21,0.1-4.9,2.18-3.68C47.44,83.5,45.19,87.19,43.13,85.96z"/>
	<path class="st4" d="M46.82,88.4c-0.84-0.49-1.14-1.61-0.64-2.45c1.42-1.6,1.75-5.88,4.57-5.09c0.85,0.36,1.38,1.46,0.95,2.33
		C50.41,84.93,49.74,89.59,46.82,88.4z"/>
	<path class="st4" d="M58.65,82.77c-1.22-0.3-1.73-1.95-0.9-2.88c0.96-1.58,1.08-5.27,3.72-4.4c1.9,0.85,0.73,2.94,0.18,4.31
		C61.13,81.12,60.49,83.26,58.65,82.77z"/>
	<path class="st4" d="M55.86,79.43c-2.11-0.59-1.91-3.29-1.18-4.9c1.12-2.39,4.47-0.39,3.16,1.82
		C59.25,77.72,57.62,79.97,55.86,79.43z"/>
	<path class="st4" d="M56.48,76.06c-1.61-0.97-0.87-4.12,1-4.23c1.2-2.54,4.93-1.01,3.38,1.51C59.71,74.56,58.5,77.24,56.48,76.06z"
		/>
	<path class="st4" d="M82.73,77.01c-2.79-0.94-0.71-4.8,1.62-4.46c2-1.17,3.75-5.98,6.36-4.4c0.74,0.57,0.96,1.77,0.32,2.51
		C88.63,72.92,86.43,77.2,82.73,77.01z"/>
	<path class="st4" d="M107.88,80.73c-3.91-1.32-0.76-6.67-0.4-9.48c0.61-2.26,4.13-1.3,3.49,0.96c-0.52,1.9-1.04,3.79-1.36,5.71
		C110.52,79.14,109.37,80.97,107.88,80.73z"/>
	<path class="st4" d="M119.62,70.93c0.32-1.55,1.49-2.75,2.26-4.09c1.27-1.43,2.08-5.14,4.59-3.98c2.74,1.96-2.4,6.36-3.26,8.58
		C122.92,73.7,119.26,73.22,119.62,70.93z"/>
	<path class="st4" d="M122.75,72.05c-4.94-1.77-0.83-8.84-0.17-12.36c0.3-0.93,1.24-1.52,2.21-1.25c3.13,1.07-0.76,7.02-0.66,9.49
		c0.78-0.12,1.61,0.35,1.92,1.08C126.81,70.9,124.3,72.11,122.75,72.05z"/>
	<path class="st4" d="M98.39,75.44c-1.01-1.49,0.31-4.07,2.23-3.48c1.36-1.28,2.58-2.7,3.73-4.16c1.4-1.83,4.24,0.35,2.82,2.18
		C105.24,72.03,101.5,78.69,98.39,75.44z"/>
	<path class="st4" d="M100.09,74.25c-3.71-1.68-1.12-7.43-1.2-10.59c0.13-0.97,1.05-1.66,2.02-1.53c3.12,0.71,0.46,6.37,0.85,8.73
		C103.73,71.99,102.13,74.91,100.09,74.25z"/>
	<path class="st6" d="M41.74,53.78c-0.2-1.28,0.9-2.09,2.02-2.26c1.62-0.88,3.09-2.01,4.54-3.13c1.82-1.42,4.01,1.41,2.18,2.83
		C48.38,52.57,43.3,58.14,41.74,53.78z"/>
	<path class="st6" d="M52.24,50.64c-1.84-1.21-0.21-4.29,1.8-3.21c1.19-0.36,2.32-0.88,3.52-1.23c2.26-0.65,3.23,2.87,0.96,3.5
		C56.55,50.22,54.22,51.9,52.24,50.64z"/>
	<path class="st6" d="M61.21,54.63c0.1-2.28,0.14-4.62-0.44-6.85c-1.15,1.51-0.67,3.7-1.9,5.06c-0.3,2.53-3.57,3.67-4.02,0.66
		c0.51-2.2-0.23-7.67,2.01-8.56c0.3-1.05,1.59-1.61,2.55-1.06c1.45-1.12,3.45-0.15,4.21,1.32c0.79-1.8,1.05-3.94,2.38-5.43
		c1.24-1.28,3.01-0.04,3.3,1.43c4.85-2.13,3.11,7.35,3.29,9.9c0.96,2.29-2.84,3.77-3.59,1.33c-0.63,1.86-3.62,1.33-3.52-0.65
		c-0.62,1.6-0.08,4.59-2.43,4.7C62.08,56.45,61.14,55.62,61.21,54.63z"/>
	<path class="st6" d="M21.61,40.73c0-1.04,0.86-1.9,1.9-1.9s1.9,0.86,1.9,1.9c0,1.04-0.86,1.9-1.9,1.9S21.61,41.76,21.61,40.73z"/>
	<path class="st6" d="M28.43,44.6c-1.45-1-4.4-0.28-4.49-2.63c0.32-3.01,4.14-1.41,5.88-0.65C31.95,42.2,30.54,45.52,28.43,44.6z"/>
	<path class="st6" d="M18.15,60.36c-2.6-0.54-4.47-4.28-2.11-6.17c1.14-1.21,2.22-2.87,4.11-2.89c0.29-1.51,0.81-3.03,1.8-4.22
		c0.21-3.07,0.94-6.47,3.34-8.6c-1.58-6.65,2.84-14.42,9.26-7.6c0.73-2.78,3.68-4.69,6.51-3.89c1.15-1.29,2.81-1.95,4.51-1.67
		c4.93-0.78,8.53,3.89,9.02,8.38c7.13,1.24,5.76,10.48,1.9,14.5c2.65-0.2,3.72-4.13,4.5-6.28c-0.82-2.34-2.66-8.04,1.19-8.3
		c0.84,0.06,1.71,0.34,2.17,1.1c3.72-0.84,7.37,2.45,8.99,5.55c1.69-1.12,3.95-0.01,4.27,1.95c2.77-1.83,5.13,2.31,6.09,4.46
		c0.66-1.71,2.83-1.38,3.64,0.03c0.82,1.18,0.7,2.74,1.59,3.89c0.97-2.35-0.66-11.27,4.02-8.57c1.3,1.2,2.08,2.98,3.74,3.75
		c1.71,1.3,4.98-0.49,5.53,2.14c-0.32,4.16-7.31,1.64-9.17-0.23c-0.26,2.84-0.79,9.66-5.11,7.82c-1.45,4.06-6.95,6.37-9.31,1.75
		c-1.96-0.5-3.55-2.02-4.75-3.59c-4.75,1.55-8.39-3.77-10.57-7.25c-1.8,4.99-7.99,8.1-11.38,2.7c-3.19,3.96-8.72,4.99-10.77-0.67
		c-0.37,0.02-0.75-0.01-1.14-0.1c-0.2-0.05-0.4-0.11-0.6-0.17c-1.14,0.93-2.59,1.44-4.04,1.42c-0.37,0.47-0.77,0.92-1.17,1.36
		c-0.36,0.39-0.77,0.74-1.22,1.02c0.08,3.21-3.16,6.42-6.39,5.13C24.26,59.03,21.32,61.07,18.15,60.36z M19.46,56.75
		c0.18-0.02,0.36-0.04,0.54-0.08c0.03-0.01,0.06-0.01,0.08-0.02c-0.15-0.33-0.23-0.7-0.27-1.07c-0.34,0.33-0.47,0.71-0.55,1.16
		C19.33,56.76,19.39,56.75,19.46,56.75z M84.77,51.26c0.04,1.25-0.33,2.48-0.89,3.58c-0.13,0.25-0.29,0.48-0.47,0.7
		c1.31-1.1,1.48-2.93,1.35-4.53C84.77,51.1,84.77,51.18,84.77,51.26z M80.75,52.57c0.61-1.87-0.21-3.85-1.1-5.49
		c0.1,0.96,0.24,1.93,0.42,2.88C80.27,50.84,80.49,51.71,80.75,52.57z M72.13,50.22c-0.02,0-0.04,0-0.07,0
		c-0.04-0.01-0.09-0.02-0.13-0.03c0.08,0.01,0.16,0.02,0.23,0.03c-0.14-0.47-0.25-0.94-0.34-1.42c-0.04-0.19-0.07-0.39-0.1-0.59
		c-0.39,0.41-0.85,0.74-1.36,1c0.48,0.38,1.03,0.78,1.6,0.99c0.03,0,0.06,0.01,0.09,0.01c0.04,0.01,0.08,0.02,0.12,0.02L72.13,50.22
		z M46.02,48.76c0.13-0.02,0.25-0.07,0.37-0.12c-0.04-0.17-0.09-0.35-0.13-0.53c-0.12-0.02-0.23-0.04-0.35-0.07
		c-0.34-0.08-0.67-0.2-0.99-0.33C45.14,48.18,45.52,48.59,46.02,48.76z M68.36,45.97c3.82-2.25,0.56-6.93-2.74-7.66
		c-1.15,2.17,0.23,5.37,1.73,7.09c0.23,0.22,0.49,0.41,0.8,0.52c-0.04-0.02-0.09-0.03-0.13-0.05c-0.03-0.02-0.06-0.03-0.1-0.04
		C68.06,45.89,68.21,45.95,68.36,45.97z M27.53,45.92c-0.01-0.08-0.02-0.17-0.03-0.25c-0.03-0.01-0.05-0.01-0.08-0.02
		c0,0.02,0,0.04,0,0.07c0.01,0.06,0.01,0.12,0.02,0.18C27.47,45.9,27.5,45.91,27.53,45.92z M54.7,44.37
		c0.72-2.1,2.58-5.37-0.01-6.72C54.69,39.9,53.99,42.21,54.7,44.37z M48.61,36.18c0.19-0.11,0.39-0.21,0.6-0.28
		c-0.02-0.16-0.05-0.33-0.08-0.49c-0.05-0.23-0.11-0.45-0.17-0.67C48.86,35.22,48.74,35.7,48.61,36.18z M32.39,34.04
		c-0.81-0.72-1.61-1.9-2.73-2.02c-0.37,0.52-0.57,1.14-0.72,1.75C30.07,33.44,31.31,33.55,32.39,34.04z"/>
	<path class="st6" d="M109.9,43.94c-3-0.1-6.26-2-6.59-5.21c-0.21-1.04,0.66-2.05,1.66-2.18c2.88-0.2,1.52,3.59,4.68,3.72
		c0.59,0.12,1.2,0.04,1.77-0.14C115,39.95,114.25,44.38,109.9,43.94z"/>
	<path class="st6" d="M118.32,28.5c-3.15-0.81-0.66-5.87,1.78-3.58C124.35,24.37,123.71,29.67,118.32,28.5z"/>
	<path class="st6" d="M118.89,25.75c-2.66-3.58,4.53-5.28,6.75-3.69c1.12,1.04,0.28,3.13-1.27,3.06c-0.88-0.04-1.78,0.01-2.65,0.23
		C121.2,26.35,119.66,26.62,118.89,25.75z"/>
	<path class="st6" d="M124.65,26.19c-1.54-0.52-3.34-0.61-4.62-1.68c-0.69-0.69-0.69-1.85,0-2.54c1.65-1.34,3.72,0.68,5.57,0.78
		C127.82,23.35,126.85,26.82,124.65,26.19z"/>
	<path class="st6" d="M112.48,23.39c-0.91-3.9,4.83-5.39,7.67-6.35c2.24-0.63,3.2,2.86,0.96,3.47c-1.68,0.55-3.45,1.05-4.85,2.17
		C116.23,24.6,113.22,25.19,112.48,23.39z"/>
	<path class="st6" d="M119.17,25.44c-6.72-0.01-4.5-7.04-1.07-3.83c1.41,0.32,2.9,0.28,4.34,0.27c1.56-0.07,2.42,2.04,1.28,3.09
		C122.49,25.97,120.65,25.41,119.17,25.44z"/>
	<path class="st6" d="M109.7,21.48c-1.41-2.5,4.75-5.62,6.2-7.48c1.66-1.38,3.94,1.2,2.35,2.67
		C116.11,17.9,111.91,24.73,109.7,21.48z"/>
	<path class="st6" d="M109.94,18.9c-0.91-1.39-0.69-3.78,0.41-5c2.12-1.34,3.39,1.06,2.67,2.95
		C114.26,18.79,111.29,20.69,109.94,18.9z"/>
	<path class="st6" d="M104.11,15.9c-0.68-1.71,2.27-6.28,4.28-4.58c1.63,1.31-0.04,3.02-0.85,4.25
		C107.24,17.23,104.76,17.51,104.11,15.9z"/>
	<path class="st6" d="M105.1,14.19c-6.81-0.52-3.34-8.09-0.37-3.79c1.05,0.35,2.25,0.07,3.3-0.17c0.93-0.27,1.94,0.32,2.19,1.25
		C110.72,14.2,106.94,14.14,105.1,14.19z"/>
	<path class="st6" d="M92.05,13.48c-1.49-1.79,0.82-3.95,1.43-5.7c1.02-1.92,4.13-0.37,3.2,1.61C95.65,11.13,94.92,15.6,92.05,13.48
		z"/>
	<path class="st6" d="M69.67,16.26c-0.11-0.18-0.19-0.36-0.27-0.55c-1.42,0.86-3.81-0.23-4.84-1.32c-1.04-1.81,1.21-3.53,2.85-2.43
		c0.81-1.46,2.87-1.52,3.9-0.27c1.24-1.65,3.62-1.82,5.05-0.34c0.23-2.38,2.08-6.19,4.83-3.94c0.72-0.51,1.72-0.63,2.54-0.27
		c0.72-2.37,3.64-4.43,5.04-1.41c0.04,0,0.08,0.01,0.11,0.01c0.57-2.33,3.7-1.34,4.3,0.43c0.22,0.74-0.12,1.54-0.72,2
		c-0.95,1.57-1.36,3.51-2.02,5.23c-0.76,1.97-3.89,1.02-3.45-1.04c-0.22,0.13-0.46,0.21-0.71,0.24c-0.36,0.05-0.73-0.02-1.05-0.17
		c-0.53,2.04-2.81,3.98-4.1,1.37c-0.51,0.09-1.1-0.03-1.52-0.37c-0.84,4.77-3.31,4.25-5.6,0.7C73.04,15.85,71.78,18.72,69.67,16.26z
		"/>
	<path class="st6" d="M56.59,13.18c-1.04-3.49,6.42-3.79,8.67-4.67c2.26-0.03,8.14-2.28,8.79,0.79c0.17,3.41-5.96,1.84-8.21,2.82
		c-1.87,0.39-3.71,0.92-5.53,1.5C59.07,14.22,57.3,14.84,56.59,13.18z"/>
	<path class="st6" d="M71.52,9.1c-2.68-2.13,3.93-7.71,5.19-3.98c0.28,1-0.39,2-1.37,2.24C74.32,8.36,73.14,10.32,71.52,9.1z"/>
	<path class="st6" d="M114.34,40.95c-0.79-2.1,4.37-4.67,5.41-2.52c0.83,1.42-0.5,2.54-1.68,3.1
		C116.9,42.59,114.86,42.72,114.34,40.95z"/>
	<path class="st6" d="M120.3,47.17c-1.26-1.34-0.09-3.73,1.76-3.18c1.76-2.11,4.8,0.48,2.73,2.38
		C123.62,47.46,121.64,48.71,120.3,47.17z"/>
	<path class="st6" d="M122.83,46.62c0-0.98,0.82-1.8,1.8-1.8c0.98,0,1.8,0.82,1.8,1.8s-0.82,1.8-1.8,1.8
		C123.65,48.42,122.83,47.6,122.83,46.62z"/>
	<path class="st6" d="M90.21,47.15c-2.57-0.73-0.89-5.99,1.65-4.94C94,43.06,92.52,47.85,90.21,47.15z"/>
	<path class="st6" d="M96.23,68.64c-4.45-3.17-14.24-0.61-16.47-5.4c-3.3-1.12-1.19-8.55,0.84-10.07c2.59-0.72,2.94,1.94,1.83,3.69
		c0.2-0.09,0.4-0.14,0.62-0.15c4.15-3.22,8.65,2.24,6.03,6.25c2.46,0.3,4.99,0.57,7.27,1.61c1.71-1.51,0.91-5.97,3.97-5.49
		C103.73,60.22,99.23,69.15,96.23,68.64z M86.09,59.72c-0.04-0.09-0.1-0.17-0.18-0.23C85.97,59.57,86.03,59.65,86.09,59.72z"/>
	<path class="st42" d="M91.83,55c-1.18-0.63-2.7-1-2.9-2.57c-0.28-2.76-1.03-5.5-0.66-8.3c-0.16,0.09-0.32,0.16-0.49,0.22
		c-2.84,6.32-6.46,3.03-7.36-2.21c-0.26-1.14-0.85-2.32-0.55-3.5c0.38-1.46,2.44-1.81,3.48-0.86c0.07-0.39,0.21-0.76,0.44-1.08
		c0.44-0.62,1.11-1.02,1.82-1.03c1.73-2.67,4.54,0.28,3.49,2.66c0.25,0.04,0.49,0.12,0.7,0.24c0.88-0.47,1.9-0.05,2.48,0.69
		c0.53-0.03,1.04,0.24,1.48,0.5c0.52-2.3-1.35-9.57,1.82-9.59c3.2-0.17,1.33,8.6,1.72,10.92c5.13-1.84,7.49,13.04,1.91,12.45
		c-1,1.25-2.96,1.52-4.22,0.52C94.27,54.94,92.95,55.49,91.83,55z M96.78,50.45c0.01-0.03,0.02-0.06,0.03-0.09
		c-0.06-0.17-0.13-0.34-0.19-0.51c-0.01,0.06-0.02,0.12-0.03,0.18C96.65,50.17,96.71,50.31,96.78,50.45z"/>
	<path class="st42" d="M56.52,37.51c-0.51-0.92-1.14-1.79-1.9-2.52c-0.11,0.04-0.23,0.07-0.35,0.08c-0.99,0.13-1.87-0.53-2.09-1.46
		c0.01,0.03,0.01,0.05,0.02,0.08c0.02,0.05,0.03,0.1,0.05,0.15c-1.6-4.74,4.54-2.89,5.96-0.25C61.51,36.89,58.77,40,56.52,37.51z"/>
	<path class="st42" d="M56.44,38.65c-0.22-1.36,1.24-1.8,1.65-2.91c-0.17-0.74,0.01-1.52,0.1-2.26c-1.11-2.06,0.71-5.3,1.25-7.48
		c0.84-1.97,3.68-1,3.58,1c1.83,0.75,2.88,3.82,0.35,4.33C63.48,33.86,59.09,44.13,56.44,38.65z"/>
	<path class="st42" d="M105.11,15.49c0-1.06,0.88-1.94,1.94-1.94c1.06,0,1.94,0.88,1.94,1.94s-0.88,1.94-1.94,1.94
		C105.99,17.43,105.11,16.55,105.11,15.49z"/>
	<path class="st42" d="M96.22,15.24c-3.15-0.2-2-3.81-0.35-5.22c1.43-1.3,2.82-4.87,5.16-3.39c2.28,2.35-2.03,4.58-3.03,6.59
		C98.13,14.24,97.26,15.29,96.22,15.24z"/>
	<path class="st42" d="M99.72,16.41c-3.33-0.32-1.81-4.08-0.12-5.53c1.57-1.32,3.25-5.35,5.66-3.45c1.83,2.57-2.53,4.6-3.58,6.71
		C102.07,15.35,100.94,16.6,99.72,16.41z"/>
	<path class="st42" d="M104.84,18.87c-1.69,0.03-2.49-2.2-1.13-3.23c1.45-0.84,3.47-3.21,5.03-1.38c1.14,1.5-0.47,2.76-1.69,3.43
		C106.29,18.08,105.76,18.92,104.84,18.87z"/>
	<path class="st42" d="M109.41,20.61c-2.96-1.24-0.22-4.08,1.6-4.91c1.28-0.8,3.27-2.31,4.39-0.5c1.11,2.1-1.62,2.86-2.93,3.81
		C111.45,19.58,110.78,21.04,109.41,20.61z"/>
	<path class="st42" d="M115.24,24.91c-1.5-1.62,0.41-3.18,1.95-3.71c1.36-0.66,3.47-1.94,4.36,0.02c0.8,2.1-1.82,2.65-3.19,3.39
		C117.42,25.26,116.2,25.91,115.24,24.91z"/>
	<path class="st42" d="M122.86,34.6c-0.85-0.47-1.19-1.74-0.6-2.52c0.03-0.05,0.06-0.09,0.1-0.14c0,0-0.01,0-0.01,0
		c1.59-1.34,5.19-4.73,6.83-2c0.49,1.13-0.33,2.19-1.38,2.54C126.06,32.97,124.79,35.59,122.86,34.6z"/>
	<path class="st42" d="M128.98,37.35c-2.15-0.54-1.57-3.95,0.67-3.62c1.29,0.2,2.59-0.58,3.85-0.87c2.29-1.5,4.59,1.71,2.07,3.05
		C133.46,36.57,131.23,37.77,128.98,37.35z"/>
	<path class="st42" d="M131.87,41.29c-2.07-0.21-2.03-3.43,0.01-3.62c1.68-0.13,4.08-2.02,5.12,0.18
		C137.86,40.56,133.73,41.06,131.87,41.29z"/>
	<path class="st42" d="M134.87,43.71c-10.17-0.7-6.03-6.93-3.3-4.33c1.24,0.34,2.52,0.56,3.79,0.77
		C137.68,40.45,137.17,44.04,134.87,43.71z"/>
	<path class="st42" d="M128.72,46.64c-2.17-0.87-5.9-4.66-1.82-5.61c1.58,0.16,2.1,2.03,3.64,2.49
		C132.57,44.69,130.72,47.84,128.72,46.64z"/>
	<path class="st42" d="M120.28,53.08c-12.36-11.09,2.64-17.68-0.25-10.38c-0.57,0.51-1.16,1.18-1.06,1.99c0.39,2.18,2,4,3.5,5.55
		C124.31,51.66,122.1,54.51,120.28,53.08z"/>
	<path class="st42" d="M112.85,53.64c-2.11-1.65-7.53-15.63-0.96-12.48c0.83,0.86,0.48,2.17,0.77,3.23
		c0.47,1.95,1.19,3.83,1.99,5.66c0.73,1.09,2.02,2.34,0.75,3.59C114.69,54.35,113.57,54.32,112.85,53.64z"/>
	<path class="st42" d="M109.46,52.7c-0.4-2.15-1.79-10.01,1.75-9.68c2.94,0.62,0.81,5.55,1.51,7.8
		C113.77,53.16,110.72,55.1,109.46,52.7z"/>
	<path class="st42" d="M105.53,60.2c-1.31-1.7-0.39-3.8,0.57-5.43c-0.21-0.25-0.39-0.53-0.55-0.8c-0.17-0.28-0.33-0.58-0.46-0.88
		c-0.23-0.09-0.45-0.2-0.67-0.33c-0.04-0.02-0.08-0.05-0.11-0.07c0.54,2.65-1.67,3.62-3.76,2.42c-0.73,1.27-2.24,1.86-3.65,1.83
		c-1.28,0.96-3.34,0.53-4.03-0.95c-2.05,1.41-4.46,3.48-7.11,2.63c-1.38-0.47-3.18-1.35-2.49-3.1c0.72-3.22,4.25-5.39,7.43-4.36
		c1.05-1.22,2.65-1.94,4.26-1.79c0.65-0.63,1.29-1.26,1.93-1.9c0.1-0.1,0.2-0.2,0.3-0.3c0.07-5.78-4.38-11.7-1.42-17.47
		c1.82-2.99,5.58-5.17,9.02-3.47c1.8-5.78,8.61-6.83,11.4-1.15c0.65-0.07,1.33,0.19,1.72,0.73c0.36,0.5,0.72,1,1.07,1.51
		c3.35-2,5.7,6.35,6.09,8.67c2.76-1.82,4.83,2.5,5.56,4.6c1.92,1.4,0.37,4.34,1.65,6.26c1.63-0.16,3.25,1.27,3.03,2.95
		c4.26,2.79-8.77,13.77-10.2,1.39c-1.82,1.95-4.07,4.15-6.8,4.59c-1.02,1.1-2.81,1.43-3.95,0.33
		C113.01,58.99,108.52,63.2,105.53,60.2z M109.39,56.57c0.06-0.05,0.12-0.1,0.18-0.15c0.09-0.08,0.17-0.17,0.26-0.25
		c-0.08,0.02-0.16,0.03-0.24,0.04C109.52,56.34,109.45,56.45,109.39,56.57z M129.12,52.19c0.04-0.43-0.09-0.86-0.27-1.25
		c0.03,0.2,0.06,0.4,0.09,0.6C128.99,51.77,129.05,51.98,129.12,52.19z M119.79,50.72c0.05,0,0.09-0.01,0.14-0.02
		c0.41-0.51,0.79-1.07,0.96-1.71c-0.78-0.02-1.53-0.31-2.3-0.44c-0.17,0.25-0.32,0.52-0.45,0.8c0.05,0.04,0.1,0.07,0.15,0.11
		c0.39,0.3,0.73,0.7,1,1.15C119.44,50.67,119.61,50.73,119.79,50.72z M101.81,42.12c0.64-0.74,1.27-1.5,1.88-2.26
		c-0.05-0.41-0.09-0.83-0.13-1.24c-0.01-0.17-0.03-0.33-0.04-0.5c-0.91,0.92-1.74,1.97-2.13,3.21l0.11,0.22
		C101.6,41.74,101.71,41.93,101.81,42.12z M118.4,40.63c0.02-0.06,0.04-0.13,0.05-0.19c-0.06-0.1-0.11-0.21-0.17-0.31
		c0,0.01,0,0.01,0,0.02C118.32,40.31,118.36,40.47,118.4,40.63z M99.81,36.6c0.61-0.72,1.28-1.38,1.96-2
		c0.13-0.11,0.25-0.23,0.38-0.34c-0.84-0.65-1.65-1.35-2.53-1.93C99.35,33.74,99.5,35.19,99.81,36.6z M102.27,29.57
		c0.51,0.35,0.98,0.75,1.47,1.13c0.03-0.21,0.07-0.41,0.11-0.62c0-0.02,0.01-0.05,0.01-0.07c-0.54-0.31-1.14-0.66-1.79-0.58
		C102.13,29.48,102.2,29.52,102.27,29.57z M109.32,29.59c0.04-0.01,0.08-0.03,0.12-0.04c-0.02-1.61,0.19-3.86,2.06-4.3
		c-1.75-1.14-3.22,1.64-3.48,3.11C108.48,28.75,108.91,29.15,109.32,29.59z"/>
	<path class="st42" d="M72.58,48.17c-7.63-2.91-1.67-12.88,1.97-16.95c-0.68-0.19-1.36-0.36-2.05-0.51c-0.55-0.1-1.1-0.2-1.65-0.28
		c-0.03,0.71-0.42,1.46-0.96,1.91c2.47,4.67-2.72,9.43-6.46,4.96c-4.16,1.48-5.26-4.83-4.42-7.7c-0.09-0.09-0.28-0.22-0.36-0.28
		c-0.04-0.02-0.08-0.04-0.12-0.06c-2.14,1.99-3.28,0.25-5.4-0.51c-2.04-1.19-7.82-0.9-7.27-4.1c0.52-1.87,2.46-1.18,3.85-1.11
		c2.38-2.07,4.44-5.73,8.21-4.29c-1.95-2.47,1.41-4.62,3.71-3.54c0.16-0.62,0.61-1.13,1.28-1.31c0.29-0.08,0.59-0.09,0.88-0.02
		c2.75-1.13,5.45,1.1,7.58,2.62c1.05-7.73,10.82,4.07,12.9,6.31c1.99,0.65,3.8,5.07,5.19,6.88c1.81,1.35,6.81,1.78,6.02,4.77
		c-0.85,1.9-2.84,0.79-4.15,0.08c0.59,4.02-7.37,11.79-10.99,8.44C78.75,46.1,75.89,48.89,72.58,48.17z M73.53,44.63
		c1.94-0.27,3.18-2.15,4.04-3.75c-1.39-1.65-2.34-4.49-0.66-6.27c-0.01-0.23,0.01-0.46,0.04-0.69c-1.69,2.05-6.03,8.27-3.72,10.59
		c-0.03-0.02-0.07-0.03-0.1-0.05c-0.02-0.01-0.03-0.02-0.11-0.05c0.19,0.09,0.38,0.21,0.59,0.22
		C73.57,44.62,73.55,44.63,73.53,44.63C73.52,44.63,73.53,44.63,73.53,44.63z M83.13,39.87c0.07-0.01,0.15-0.01,0.22-0.02
		c0.33-0.59,0.58-1.31,0.59-1.98c0,0.04-0.01,0.07-0.01,0.07c0,0.01,0,0.03,0,0.04c0,0.05-0.01,0.09-0.01,0.14
		c0.02-0.32-0.05-0.63-0.14-0.93c-0.47,0.82-0.77,1.75-0.92,2.68C82.95,39.87,83.04,39.87,83.13,39.87z M87.25,35.9
		c0.06,0.16,0.11,0.33,0.15,0.5c0.28-0.49,0.53-1.33-0.24-1.47c0.06,0.25,0.07,0.52,0.02,0.77C87.2,35.76,87.23,35.83,87.25,35.9z
		 M66.73,35.32c0.27-1.07-0.57-2.08-1.25-2.82C65.37,33.55,65.86,34.71,66.73,35.32z M74.72,27.44c1.14,0.28,2.26,0.64,3.36,1.05
		c0.5-0.23,1.03-0.38,1.58-0.47c0.26-0.41,0.53-0.83,0.79-1.24c0.27-0.43,0.53-0.86,0.79-1.29c-1.69-1.98-3.53-3.85-5.49-5.57
		c0.17,1.89,1.83,3.02,2.56,4.69c0.99,1.76-0.79,3.91-2.68,3.02c-1.99-0.84-2.14-3.3-3.21-4.82c0.1,1.43-0.25,3.02-1.45,3.92
		C72.23,26.87,73.49,27.14,74.72,27.44z M53.66,25.03c0.73,0.23,1.44,0.49,2.13,0.81c0.22,0.1,0.43,0.21,0.64,0.33
		c0.52-0.31,1.09-0.53,1.69-0.61c0.34-0.05,0.68-0.03,1.01,0.03c-0.19-0.47-0.34-0.96-0.45-1.45c-0.05-0.21-0.09-0.43-0.13-0.65
		c-0.99-0.42-2.27-1.23-3.27-0.42c0.05-0.03,0.1-0.06,0.14-0.1c0,0,0.01-0.01,0.05-0.04c-0.71,0.62-1.24,1.4-1.87,2.09
		C53.63,25.02,53.65,25.03,53.66,25.03z M62.31,21.32c0.05,0.03,0.1,0.06,0.15,0.09c-0.03-0.17-0.07-0.33-0.1-0.5
		c-0.06,0.06-0.08,0.13-0.11,0.2c0.01-0.03,0.02-0.05,0.02-0.07c-0.02,0.07-0.05,0.15-0.07,0.22
		C62.23,21.27,62.27,21.29,62.31,21.32z"/>
	<path class="st42" d="M86.83,49.57c-5.45,0.18-8.83-3.48-10.75-8.12c-1.29,4.11-6.01,5.77-7.18,0.63
		c-1.14-0.08-2.27-0.27-3.35-0.54c-0.46-0.12-0.91-0.24-1.36-0.38c-4.27,6-9.27,3.18-8.55-3.67c-3.13-1.66-8.2-5.13-3.93-8.49
		c1.9-2.58,3.79-6.08,7.36-6.29c3.47-0.26,6.95,1.72,8.52,4.82c1.67-0.44,3.45-0.12,5.15,0c2.07-1.32,1.91-4.69,4.37-5.31
		c-0.05-2.51,1.18-5.64,3.82-6.35c0.56-2.96,3.86-4.5,6.64-3.92c-3.47-1-3.76-5.48,0.41-4.78c2.17,0.39,4.27,1.07,6.29,1.97
		c1.9,0.67,4.54,0.59,5.56,2.63c0.58,0.16,1.15,0.35,1.71,0.58c0.77,0.32,1.44,0.8,2.01,1.4c4.3-1.29,5.55,4.13,5.75,7.3
		c1.49,2,1.08,7.36-2.24,6.97c-0.41,0.25-0.89,0.35-1.37,0.44c-0.76,0.15-1.54-0.29-1.93-0.93c-0.59,0.59-1.18,1.18-1.77,1.77
		c-0.77,0.77-1.56,1.54-2.36,2.28c6.66,0.89,3.8,9.8,0.32,12.9c-1.08,1.06-2.5,2.04-4.05,2.12C93.16,48.27,90.14,49.8,86.83,49.57z
		 M87.91,45.8c1.44-0.1,2.81-0.57,4.07-1.26c-1.3-2.02-1.73-4.45-2.13-6.78c-0.14-0.05-0.28-0.09-0.41-0.15
		c-0.59-0.23-1.17-0.51-1.73-0.79c1.09,3.46-2.11,7.07-5.48,7.46C83.77,45.61,85.93,45.85,87.91,45.8z M59.63,40.47
		c0.02-0.02,0.04-0.03,0.06-0.05c0.23-0.21,0.45-0.43,0.67-0.65c-0.29-0.12-0.59-0.25-0.88-0.38C59.5,39.75,59.53,40.12,59.63,40.47
		z M68.78,38.27c0.03-0.39,0.08-0.78,0.13-1.17c-0.71-0.18-1.3-0.75-1.54-1.44c-0.29,0.75-0.65,1.47-1.04,2.17
		c0.36,0.1,0.73,0.19,1.1,0.27C67.89,38.17,68.33,38.23,68.78,38.27z M72.66,38c0.23-0.06,0.46-0.12,0.68-0.19
		c0.27-1.04,0.53-2.16,0.25-3.23C73.09,35.66,72.78,36.82,72.66,38z M62.66,36.6c1.04-1.92,2.27-4.08,1.89-6.33
		c-1.13-0.57-2.26-1.11-3.44-1.58c-1.57,1.58-1.24,4.44-1.57,6.55C60.56,35.73,61.6,36.19,62.66,36.6z M55.9,33.23
		c0.11-1.24,0.35-2.48,0.61-3.7c0.08-0.37,0.18-0.74,0.3-1.1c-0.93,1.13-1.67,2.41-2.59,3.54C54.74,32.42,55.31,32.84,55.9,33.23z
		 M78.59,32.88c0.15-0.09,0.31-0.16,0.46-0.23c-0.34-0.11-0.68-0.22-1.02-0.32C78.23,32.51,78.42,32.69,78.59,32.88z M87.11,31.71
		c0.37-0.15,0.73-0.31,1.09-0.47c0.44-0.2,0.97-0.38,1.49-0.44c-0.29-0.7-0.6-1.39-0.9-2.08C88.03,29.57,87.55,30.66,87.11,31.71z
		 M79.84,28.94c1.27,0.41,2.52,0.91,3.73,1.47c0.11-0.28,0.22-0.55,0.34-0.83c0.18-0.41,0.39-0.82,0.61-1.21
		c-0.01-0.01-0.03-0.01-0.04-0.02c-0.08-0.04-0.15-0.08-0.22-0.13c-1.8,0.29-3.51-0.82-4.57-2.2c-0.28,0.05-0.57,0.03-0.84-0.06
		c-0.57,0.72-1.06,1.43-1.09,2.38C78.46,28.52,79.15,28.72,79.84,28.94z M95.06,28.09c0.26,0.63,0.43,1.29,0.51,1.97
		c0.2-0.17,0.4-0.35,0.6-0.52c1.19-1.07,2.34-2.17,3.47-3.29c-0.07-0.14-0.15-0.28-0.21-0.42c-0.82,0.88-2.01,1.5-3.23,1.22
		c-0.01,0.01-0.02,0.02-0.02,0.03c-0.31,0.4-0.7,0.72-1.12,1.01C95.06,28.08,95.06,28.08,95.06,28.09z M92.94,24.91
		c0.14-0.11,0.26-0.24,0.36-0.39c-0.08-0.17-0.15-0.34-0.23-0.51c-0.25-0.59-0.45-1.21-0.61-1.83c-0.14,0.24-0.29,0.47-0.45,0.69
		c0.22,0.69,0.33,1.52,0.91,2.01c0.05-0.04,0.1-0.08,0.16-0.11C93.03,24.83,92.98,24.87,92.94,24.91
		C92.93,24.91,92.94,24.91,92.94,24.91z M100.64,16.68c0.05-0.11,0.11-0.21,0.17-0.31c-0.05-0.05-0.1-0.09-0.14-0.14
		c-0.06-0.05-0.12-0.1-0.18-0.14c0.02,0.14,0.05,0.29,0.07,0.43C100.58,16.57,100.61,16.62,100.64,16.68z M91.09,13.61
		c0.28,0.24,0.55,0.5,0.81,0.77c0.14-0.03,0.28-0.06,0.42-0.08c0.14-0.02,0.28-0.04,0.42-0.05c0.09-0.11,0.18-0.22,0.28-0.31
		c-0.85-0.25-1.71-0.51-2.55-0.8C90.69,13.28,90.89,13.45,91.09,13.61z"/>
	<path class="st42" d="M123.8,51.87c0-0.98,0.82-1.8,1.8-1.8s1.8,0.82,1.8,1.8s-0.82,1.8-1.8,1.8S123.8,52.85,123.8,51.87z"/>
	<path class="st42" d="M54.2,36.26c0-0.98,0.82-1.8,1.8-1.8c0.98,0,1.8,0.82,1.8,1.8s-0.82,1.8-1.8,1.8
		C55.02,38.06,54.2,37.24,54.2,36.26z"/>
	<path class="st42" d="M62.24,48.82c-3.21-1.07-6.56-2.67-8.33-5.7c-1.04-1.71-2.84-5.94,0.32-6.33c2.53,0.08,1.47,4.38,3.96,5.99
		c1.46,1.17,3.23,1.96,5,2.56C65.46,45.94,64.48,49.47,62.24,48.82z"/>
	<path class="st42" d="M77.11,26.85c-2.02-0.42-6.25-1.75-3.8-4.34c1.57-1.2,3.13,0.7,4.76,0.87C80.31,24,79.34,27.49,77.11,26.85z"
		/>
	<path class="st43" d="M106.67,21.55c-1.5,0.01-2.37-1.78-1.46-2.97c1.27-1.14,5.8-3.68,6.78-1.27c0.83,2.22-2.01,2.71-3.47,3.43
		C108.14,21.33,107.39,21.66,106.67,21.55z"/>
	<path class="st43" d="M119.73,26.66c-1.99-0.79-1.18-3.95,0.96-3.63c1.58-0.25,3.84-2.09,4.86,0.09
		C126.6,25.56,121.45,27.14,119.73,26.66z"/>
	<path class="st43" d="M113.19,25.25c-0.48-1.9,1.35-3.11,2.88-3.7c2.92-0.83,3.34,3.14,0.57,3.73
		C116.24,26.96,113.59,26.96,113.19,25.25z"/>
	<path class="st43" d="M128.6,38.17c-4.88-1.26-1.52-7.05,1.04-3.48C132.13,35.32,131.01,39.12,128.6,38.17z"/>
	<path class="st43" d="M129.26,43.55c-2.45,0.07-2.91-3.67-0.32-3.77c1.45,0.43,3.94-0.13,4,2.06
		C132.91,43.8,130.7,43.75,129.26,43.55z"/>
	<path class="st43" d="M126.44,52.27c-1.51-1.78-6.19-1.61-5.38-4.65c1.66-2.74,5.68,0.74,7.57,1.81
		C130.49,50.83,128.27,53.7,126.44,52.27z"/>
	<path class="st43" d="M113.67,62.32c-0.31-2.58-5.28-8.41-2.18-9.88c2.96-1.3,4.37,6.5,5.47,8.49
		C117.88,63.05,114.53,64.47,113.67,62.32z"/>
	<path class="st43" d="M40.3,51.31c0-1.02,0.85-1.87,1.87-1.87c1.02,0,1.87,0.85,1.87,1.87c0,1.02-0.85,1.87-1.87,1.87
		C41.15,53.18,40.3,52.33,40.3,51.31z"/>
	<path class="st43" d="M20.49,44.97c0-0.97,0.81-1.77,1.77-1.77s1.77,0.81,1.77,1.77s-0.81,1.77-1.77,1.77S20.49,45.94,20.49,44.97z
		"/>
	<path class="st43" d="M12.99,59.46c0-0.97,0.81-1.78,1.78-1.78s1.78,0.81,1.78,1.78s-0.81,1.78-1.78,1.78S12.99,60.43,12.99,59.46z
		"/>
	<path class="st43" d="M80.58,19.63c-0.68-2.32-6.37-8.51-3.59-9.98c2.84-1.65,5.15,6.35,6.67,8.18
		C84.83,19.82,81.73,21.63,80.58,19.63z"/>
	<path class="st43" d="M94.01,21.61c-2.75-1.18-0.19-4.8-0.48-7.02c0.16-1.69-0.87-4.62,1.72-4.75c3.37,0.43,1.52,6.78,1.29,9.07
		C96.41,20.31,95.73,22.06,94.01,21.61z"/>
	<path class="st43" d="M98.48,16.9c0-1.06,0.88-1.94,1.94-1.94c1.06,0,1.94,0.88,1.94,1.94s-0.88,1.94-1.94,1.94
		C99.36,18.83,98.48,17.95,98.48,16.9z"/>
	<path class="st43" d="M115.09,31.27c-2.33-0.75-4.72-1.32-7.03-2.15c-1.43-0.52-1.41-2.74,0-3.28c2.66-0.16,5.34,1.44,7.98,1.97
		C118.29,28.42,117.31,31.93,115.09,31.27z"/>
	<path class="st43" d="M112.06,32.97c0-1.04,0.92-1.87,1.95-1.8c1.59-0.09,4.19-1.08,4.59,1.21c0.19,2.49-3.06,2.17-4.75,2.38
		C112.88,34.78,112.06,33.94,112.06,32.97z"/>
	<path class="st43" d="M124.17,40.51c-2.31-0.45-4.65-0.75-6.98-1.07c-2.29-0.3-1.8-3.87,0.48-3.53c1.17,0.17,2.34,0.32,3.51,0.47
		c1.51,0.37,3.47,0.13,4.64,1.27C126.81,38.82,125.68,40.8,124.17,40.51z"/>
	<path class="st43" d="M102.05,47.79c-2.12-1.46-5.15-2.92-5.18-5.87c-0.03-2.39,3.7-2.39,3.7,0c-0.02,0.15,0.11,0.26,0.19,0.37
		c0.95,1.01,2.17,1.74,3.29,2.54C105.82,46.09,103.88,48.94,102.05,47.79z"/>
	<path class="st43" d="M99.31,51.71c0-0.97,0.81-1.78,1.78-1.78s1.78,0.81,1.78,1.78c0,0.97-0.81,1.78-1.78,1.78
		S99.31,52.68,99.31,51.71z"/>
	<path class="st43" d="M94.73,56.51c-0.27-3.02-1.74-5.68-2.51-8.54c-0.05-1,0.87-1.83,1.84-1.83c2.76,0.3,3.65,7.51,4.21,9.89
		C98.6,58.3,95.05,58.81,94.73,56.51z"/>
	<path class="st43" d="M87.91,51.66c0-0.97,0.81-1.79,1.79-1.79c0.97,0,1.79,0.81,1.79,1.79c0,0.97-0.81,1.79-1.79,1.79
		C88.72,53.44,87.91,52.63,87.91,51.66z"/>
	<path class="st43" d="M81.65,45.86c-0.2-1.48-0.2-3.85,1.8-3.91c1.98,0.03,1.72,2.03,1.74,3.43
		C85.51,47.66,81.94,48.16,81.65,45.86z"/>
	<path class="st43" d="M75.17,46.32c-0.35-1.81-1.18-5.39,1.48-5.61c2.58,0.13,1.38,3.04,1.97,4.66
		C79.24,47.59,75.76,48.56,75.17,46.32z"/>
	<path class="st43" d="M72.66,47.69c-1.83-0.27-1.58-2.26-1.35-3.62c0.08-1.64,0.63-3.86,2.64-3.38c1.14,0.31,1.66,1.66,1.07,2.68
		C74.67,44.98,75.09,47.91,72.66,47.69z"/>
	<path class="st43" d="M113.47,45.24c-7.75-3.36,1.68-8,1.74-3.15C117.33,43.2,115.52,46.44,113.47,45.24z"/>
	<path class="st43" d="M131.38,42.75c-2.02-0.94-4.03-1.9-6.08-2.76c-2.13-0.88-0.73-4.21,1.39-3.29c1.89,1.28,7.99,2.14,7.03,5.1
		C133.35,42.67,132.25,43.16,131.38,42.75z"/>
	<path class="st43" d="M144.02,40.11c0-1.06,0.88-1.94,1.94-1.94s1.94,0.88,1.94,1.94c0,1.06-0.88,1.94-1.94,1.94
		S144.02,41.16,144.02,40.11z"/>
	<path class="st43" d="M140.14,51.54c-12.97-2.96-5.78-8.64-3.99-5.25c1.86,1.39,6.54,0.89,6.19,4
		C142.1,51.21,141.06,51.82,140.14,51.54z"/>
	<path class="st43" d="M142.12,48.6c0-0.98,0.82-1.8,1.8-1.8c0.98,0,1.8,0.82,1.8,1.8c0,0.98-0.82,1.8-1.8,1.8
		C142.93,50.39,142.12,49.58,142.12,48.6z"/>
	<path class="st43" d="M137.82,54.42c0-0.98,0.81-1.79,1.79-1.79s1.79,0.81,1.79,1.79c0,0.98-0.81,1.79-1.79,1.79
		S137.82,55.4,137.82,54.42z"/>
	<path class="st43" d="M121.5,62.17c-0.57-0.83-1.38-1.56-1.58-2.58c-0.16-0.95,0.58-1.87,1.52-2c1.56-0.22,2.01,1.49,2.88,2.41
		C125.73,61.8,122.89,64,121.5,62.17z"/>
	<path class="st43" d="M116,75.2c0-1.06,0.88-1.94,1.94-1.94s1.94,0.88,1.94,1.94s-0.88,1.94-1.94,1.94S116,76.25,116,75.2z"/>
	<path class="st43" d="M91.01,48.09c-11.19-15.83,3.69-14.8-0.7-9.76c-0.31,3.05,5.65,8.05,3.21,10.08
		C92.77,48.98,91.55,48.89,91.01,48.09z"/>
	<path class="st43" d="M76.52,42.76c-7.18-0.97-4.34-6.93-1.3-4.1c0.72,0.3,1.49,0.47,2.24,0.66
		C79.71,39.91,78.73,43.39,76.52,42.76z"/>
	<path class="st43" d="M59.99,22.82c-7.13-1.34-3.19-7.98-0.58-3.99c1.29,0.48,3.26,0.92,2.77,2.75
		C61.93,22.51,60.9,23.09,59.99,22.82z"/>
	<path class="st43" d="M75.78,13.95c0-0.97,0.81-1.77,1.77-1.77s1.77,0.81,1.77,1.77s-0.81,1.77-1.77,1.77S75.78,14.92,75.78,13.95z
		"/>
	<path class="st43" d="M103.84,11.13c0-1.01,0.84-1.85,1.85-1.85c1.01,0,1.85,0.84,1.85,1.85s-0.84,1.85-1.85,1.85
		C104.68,12.98,103.84,12.14,103.84,11.13z"/>
	<path class="st43" d="M39.16,30.21c-2.58-7.91,6.88-6.3,3.26-2.32c0.29,1.31,0.69,3.12-1.02,3.6
		C40.47,31.74,39.39,31.17,39.16,30.21z"/>
	<path class="st43" d="M28.78,39.78c-0.65-2.11-4.28-4.99-1.87-6.93c0.83-0.49,1.95-0.2,2.43,0.64c0.71,2.07,4.27,5,1.87,6.93
		C30.41,40.9,29.25,40.64,28.78,39.78z"/>
	<path class="st43" d="M3.7,53.5c-1.09-1.98-3.81-7-0.1-7.7c1.67,0,1.9,1.73,1.8,3.04c0.35,1.13,1.22,2.11,1.61,3.26
		C7.94,54.22,4.61,55.65,3.7,53.5z"/>
	<path class="st43" d="M8.63,63.12c-10.16,0.65-7.11-7.47-3.65-3.97c1.18,0.36,2.43,0.35,3.65,0.39
		C10.94,59.53,10.94,63.15,8.63,63.12z"/>
	<path class="st43" d="M74.8,30.31c0-1.01,0.84-1.85,1.85-1.85s1.85,0.84,1.85,1.85s-0.84,1.85-1.85,1.85S74.8,31.32,74.8,30.31z"/>
	<path class="st43" d="M62.46,46.45c0-0.99,0.83-1.82,1.82-1.82c0.99,0,1.82,0.83,1.82,1.82s-0.83,1.82-1.82,1.82
		C63.29,48.27,62.46,47.44,62.46,46.45z"/>
	<path class="st43" d="M56.86,43.22c0-0.99,0.82-1.81,1.81-1.81s1.81,0.82,1.81,1.81c0,0.99-0.82,1.81-1.81,1.81
		S56.86,44.21,56.86,43.22z"/>
	<path class="st43" d="M119.22,50.36c-5.44-2.75-1.11-7.62,0.87-3.78C122.85,47.86,122.24,51.41,119.22,50.36z"/>
	<path class="st43" d="M107.86,52.07c-1.48-1.86-5.17-2.88-5.15-5.47c0.17-1.68,2.63-2.12,3.37-0.6c1.46,1.14,2.95,2.27,4.3,3.56
		C112.02,51.16,109.49,53.7,107.86,52.07z"/>
	<path class="st43" d="M107.39,53.12c-1.38-0.44-3.3-1.08-3.3-2.83c0-0.99,0.83-1.82,1.82-1.82c1.11,0,1.58,1.12,2.65,1.27
		C110.59,50.52,109.45,53.77,107.39,53.12z"/>
	<path class="st43" d="M100.86,53.58c0-0.99,0.83-1.82,1.82-1.82s1.82,0.83,1.82,1.82c0,0.99-0.83,1.82-1.82,1.82
		S100.86,54.57,100.86,53.58z"/>
	<path class="st43" d="M97.63,56.86c-1.32-1.33-2.48-5.06,0.1-5.61c2.09-0.24,1.81,1.85,2.42,3.1
		C101.79,55.96,99.24,58.51,97.63,56.86z"/>
	<path class="st43" d="M98.4,53.26c-0.4-1.48,0.03-4.02,2.03-3.77c1.34,0.18,1.8,1.59,1.39,2.75c0.29,0.95-0.26,2-1.23,2.26
		C99.68,54.76,98.64,54.21,98.4,53.26z"/>
	<path class="st43" d="M100.91,51.48c0-1.06,0.88-1.94,1.94-1.94c1.06,0,1.94,0.88,1.94,1.94c0,1.06-0.88,1.94-1.94,1.94
		C101.79,53.42,100.91,52.54,100.91,51.48z"/>
	<path class="st43" d="M104.11,54.53c0-0.98,0.82-1.81,1.81-1.81s1.81,0.82,1.81,1.81s-0.82,1.81-1.81,1.81
		S104.11,55.52,104.11,54.53z"/>
	<path class="st43" d="M125.46,33.88c0-0.97,0.81-1.79,1.79-1.79c0.97,0,1.79,0.81,1.79,1.79c0,0.97-0.81,1.79-1.79,1.79
		C126.27,35.67,125.46,34.85,125.46,33.88z"/>
	<path class="st43" d="M120.44,22.79c0-0.98,0.82-1.8,1.8-1.8c0.98,0,1.8,0.82,1.8,1.8s-0.82,1.8-1.8,1.8
		C121.26,24.59,120.44,23.77,120.44,22.79z"/>
	<path class="st43" d="M124.96,52.33c0-0.99,0.83-1.82,1.82-1.82c0.99,0,1.82,0.83,1.82,1.82c0,0.99-0.83,1.82-1.82,1.82
		C125.79,54.15,124.96,53.32,124.96,52.33z"/>
	<path class="st43" d="M114.24,52.73c0-0.97,0.81-1.77,1.77-1.77s1.77,0.81,1.77,1.77c0,0.97-0.81,1.77-1.77,1.77
		S114.24,53.69,114.24,52.73z"/>
	<path class="st43" d="M119.26,43.45c0-0.98,0.82-1.8,1.8-1.8c0.98,0,1.8,0.82,1.8,1.8c0,0.98-0.82,1.8-1.8,1.8
		C120.08,45.25,119.26,44.43,119.26,43.45z"/>
	<path class="st44" d="M17.34,71.37c-0.79-2.77,3.41-3.19,4.87-4.78c1.38-0.82,3.24-2.99,4.72-1.21c1.5,2.31-1.95,3.41-3.33,4.6
		C21.84,70.94,18.89,74.11,17.34,71.37z"/>
	<path class="st44" d="M33.33,73.9c0-0.98,0.82-1.8,1.8-1.8s1.8,0.82,1.8,1.8s-0.82,1.8-1.8,1.8S33.33,74.88,33.33,73.9z"/>
	<path class="st44" d="M34.24,76.05c0-0.98,0.82-1.79,1.79-1.79c0.98,0,1.79,0.82,1.79,1.79s-0.82,1.79-1.79,1.79
		C35.06,77.84,34.24,77.03,34.24,76.05z"/>
	<path class="st44" d="M12.3,71.98c-1.86-0.2-2.36-2.3-1.83-3.83c0.42-1.82,3.27-1.66,3.49,0.17C18.01,67.39,18.31,72.61,12.3,71.98
		z"/>
	<path class="st44" d="M5.61,65.24c0-0.97,0.81-1.79,1.79-1.79s1.79,0.81,1.79,1.79s-0.81,1.79-1.79,1.79S5.61,66.21,5.61,65.24z"/>
	<path class="st44" d="M59.75,77.24c-0.8-0.79-0.67-2.01-0.26-2.96c0.82-1.81,0.81-4.27,2.3-5.65c4.56-1.26,1.75,4.45,1.19,6.54
		C63.88,77.12,61.12,78.72,59.75,77.24z"/>
	<path class="st44" d="M74.19,70.56c0-1,0.83-1.83,1.83-1.83s1.83,0.83,1.83,1.83c0,1-0.83,1.83-1.83,1.83S74.19,71.55,74.19,70.56z
		"/>
	<path class="st44" d="M85.43,69.42c0-1.06,0.88-1.94,1.94-1.94s1.94,0.88,1.94,1.94s-0.88,1.94-1.94,1.94S85.43,70.48,85.43,69.42z
		"/>
	<path class="st44" d="M99.76,71.45c-0.92-0.54-2.13-1.12-2.42-2.24c-0.43-1.48,1.29-2.84,2.62-2.01c0.53,0.43,0.98,0.87,1.61,1.16
		C103.57,69.52,101.74,72.64,99.76,71.45z"/>
	<path class="st44" d="M111.42,77.85c0-0.98,0.82-1.8,1.8-1.8c0.98,0,1.8,0.82,1.8,1.8c0,0.98-0.82,1.8-1.8,1.8
		C112.24,79.66,111.42,78.84,111.42,77.85z"/>
	<path class="st44" d="M38.02,62.79c-3.43-1.68-9.43-2.22-10.95-6.09c-0.31-2.02,2.67-2.8,3.43-0.93c1.98,2.07,11.3,2.83,9.87,6.06
		C40.01,62.74,38.91,63.15,38.02,62.79z"/>
	<path class="st44" d="M46.32,54.6c-1.64-0.13-4.4,0.02-4.51-2.2c0-0.97,0.81-1.77,1.78-1.77c2,0.55,4.09,0.4,6.15,0.39
		c0.98-0.02,1.8,0.83,1.8,1.8C51.35,55.38,48.08,54.48,46.32,54.6z"/>
	<path class="st44" d="M52.86,65.98c-6.34-1.27-2.82-7.89-0.13-3.84c0.02,0.02,0.05,0.03,0.07,0.05c0.09,0.05,0.17,0.1,0.15,0.11
		c0.99,0.43,2.22,0.24,3.24-0.05C59.92,62.06,59.33,67.15,52.86,65.98z"/>
	<path class="st11" d="M68.35,117.71c-0.68-0.91-1.49-1.66-2.11-2.61c-0.72-1.02-1.01-2.26-1.42-3.42
		c-1.16-2.57-1.45-5.35-1.97-8.08c-0.73-2.26-2.39-3.95-3.57-5.96c-0.76-1.31-1.45-2.68-1.93-4.12c-0.42-1.38-0.74-2.79-1.57-3.99
		c-1.07-1.49-2.19-2.99-3.23-4.5c-0.38-0.49-1.02-0.73-1.51-0.25c-0.19,0.16-0.3,0.34-0.28,0.59c0,0.17-0.14,0.3-0.3,0.3
		c-0.71-0.14-0.08-1.24,0.31-1.46c1.36-1.04,2.52,0.59,3.16,1.65c0.75,1.11,1.63,2.14,2.38,3.26c1.43,2.11,1.58,4.79,2.89,6.98
		c1.28,2.66,3.65,4.79,4.41,7.7c0.36,1.98,0.52,4.03,1.2,5.92c0.73,1.64,1.02,3.49,1.99,5c0.55,0.79,1.15,1.46,1.76,2.15
		c0.21,0.26,0.64,0.66,0.25,0.94C68.65,117.92,68.45,117.86,68.35,117.71z"/>
	<path class="st11" d="M68.02,120.04c-0.26-0.27,0.1-0.74,0.43-0.65c0.68-0.33,1.17-0.92,1.73-1.41c0.12-0.12,0.31-0.12,0.44,0
		c0.32,0.41-0.36,0.7-0.57,0.98c-0.51,0.47-1.04,0.95-1.72,1.16C68.22,120.15,68.1,120.12,68.02,120.04z"/>
	<path class="st11" d="M71.18,117.44c-0.97-0.16-1.21-6.3-1.31-7.38c0,0,0,0,0,0c0,0.01,0,0.03,0,0.04
		c-0.12-2.02-0.4-4.09-1.64-5.76c-1.32-1.64-2.08-3.62-3.08-5.45c-0.99-1.5-1.81-3.1-2.44-4.78c-0.98-2.23-2.04-4.41-3.36-6.45
		c0.01,0.01,0.01,0.01,0.02,0.02c-0.22-0.32-0.4-0.59-0.61-0.9c0,0,0,0,0,0l0,0c-0.95-1.34-1.82-2.67-2.85-3.95
		c-0.24-0.3,0.24-0.7,0.49-0.38c2.75,3.51,5.18,7.24,6.9,11.35c0.66,1.77,1.53,3.4,2.56,4.96c0.59,1.07,1.03,2.22,1.65,3.27
		c0.87,1.48,2.07,2.75,2.53,4.44c0.86,3.37,0.42,7,1.38,10.34C71.77,117.02,71.54,117.55,71.18,117.44z"/>
	<path class="st11" d="M70.44,112.76c-0.63-0.44-0.24-1.38-0.27-2.01c0.16-3.2,0.34-6.46,0.35-9.65c-0.49-3.95-1.55-7.83-1.95-11.8
		c-0.6-3.96,0.3-7.75,1.48-11.51c0.3-1.1,0.51-2.13,0.68-3.23c0.05-0.32,0.25-0.58,0.51-0.77c0.3-0.24,0.72,0.21,0.43,0.49
		c-0.05,0.03-0.17,0.16-0.2,0.2c-0.51,2.88-1.47,5.73-2.12,8.57c-0.4,2.04-0.32,4.15-0.12,6.21c0.4,3.93,1.42,7.76,1.92,11.66
		c0.04,3.74-0.28,7.54-0.44,11.27c0.46-0.13,0.61,0.57,0.13,0.6C70.71,112.79,70.58,112.81,70.44,112.76z"/>
	<path class="st11" d="M72.74,105.38c-0.48-0.26-0.46-0.82-0.4-1.29c0.04-0.52,0.09-1.02,0.12-1.49c0.11-2.29,0.38-4.54,0.79-6.79
		c0.31-1.89,0.62-3.78,1-5.66c0.33-1.26,0.51-3.82,2.31-3.6c0.24,0,0.61-0.09,0.66,0.24c0.04,0.34-0.33,0.36-0.58,0.35
		c-0.19,0.01-0.39-0.07-0.57,0.01c-0.28,0.16-0.41,0.41-0.55,0.67c-0.72,1.79-0.85,3.73-1.23,5.61c-0.53,3.06-1.07,6.19-1.18,9.29
		c-0.03,0.7-0.13,1.35-0.12,2.02c0.02,0.07,0.09,0.11,0.14,0.15C73.46,105.12,73.07,105.64,72.74,105.38z"/>
	<path class="st11" d="M73.71,113.67c-0.52-0.55-0.34-1.37-0.42-2.06c-0.06-1.42-0.2-2.75-0.2-4.14c0.03-1.65,0.26-3.28,0.48-4.92
		c0.27-1.37,0.16-3.53,1.64-4.19c0.41-0.05,0.5,0.58,0.09,0.63c-0.94,0.83-0.86,2.23-1.07,3.36c-0.6,3.55-0.57,7.2-0.13,10.75
		c-0.01-0.01-0.01-0.03-0.02-0.04c0.05,0.11,0.09,0.13,0.15,0.21C74.48,113.6,73.97,114.01,73.71,113.67z"/>
	<path class="st11" d="M73.72,117.34c-0.75-0.23,0.67-2.08,0.82-2.57c0.82-1.49,1.51-3,2.17-4.56c1.06-2.43,1.9-4.97,2.87-7.42
		c1.09-2.41,2.65-4.56,4.03-6.8c1.65-2.68,2.62-5.71,4.23-8.42c1.08-1.92,2.64-3.51,4.17-5.07c0.19-0.19,0.52-0.43,0.74-0.16
		c0.17,0.24-0.01,0.45-0.22,0.57c-1.47,1.51-3,3.03-4.05,4.87c-1.56,2.62-2.52,5.52-4.06,8.14c-1.29,2.16-2.79,4.21-3.93,6.46
		c-1.95,4.72-3.57,9.69-6.15,14.1c0.08,0.11,0.09,0.26,0,0.37C74.17,117.05,74.03,117.42,73.72,117.34z"/>
	<path class="st11" d="M76.11,119.7c-0.59-1.08,1.18-1.37,1.85-1.67c0.47-3.77,1.73-7.46,3.07-11.01c0.92-2.03,2.41-3.74,3.34-5.76
		c0.81-1.77,1.96-3.35,2.95-5.02c0.79-1.41,1.7-2.74,2.72-3.99c1.58-2.19,3.76-3.81,5.52-5.84c1.24-1.57,1.94-3.44,2.94-5.15
		c0.24-0.41,0.68-1.58,1.16-0.78c0.05,0.23-0.08,0.62-0.35,0.66c-1.02,1.79-1.81,3.74-3.02,5.43c-1.88,2.27-4.31,4.03-6.01,6.45
		c-1.77,2.25-3.11,4.8-4.64,7.21c-0.63,1.15-1.12,2.38-1.88,3.46c-1.46,2.08-2.61,4.35-3.28,6.79c-0.67,2.33-1.52,4.65-1.8,7.07
		c-0.05,0.32-0.01,0.69-0.25,0.95c-0.33,0.24-0.77,0.27-1.14,0.45c-0.24,0.14-0.6,0.15-0.69,0.38
		C76.78,119.63,76.35,119.95,76.11,119.7z"/>
	<path class="st11" d="M93.46,89.78c-0.43,0-0.37-0.67,0.05-0.63c4.05-1.53,7.79-3.7,11.21-6.35c0.14-0.1,0.34-0.08,0.45,0.06
		c0.11,0.14,0.08,0.34-0.06,0.45c-0.91,0.72-1.85,1.38-2.8,2.04C99.6,87.23,96.58,88.74,93.46,89.78z"/>
	<path class="st11" d="M73.85,96.13c-0.6-0.2-0.05-0.72,0.28-0.89c2.53-1.86,4.2-4.64,6.32-6.93c2.51-2.83,4.86-5.79,7.04-8.88
		c0.21-0.36,0.78-0.03,0.56,0.33c-2.38,3.5-5.13,6.77-7.91,9.94c-1.51,1.75-2.89,3.65-4.58,5.23c-0.01,0.26-0.3,0.33-0.48,0.45
		C74.68,95.67,74.35,96.14,73.85,96.13z"/>
	<path class="st11" d="M8.85,81.93c-1.05-0.75,0.48-1.57,1.03-2.08c1.79-1.39,5.29-4.47,7.51-2.6c0.43-0.44,0.85-0.88,1.26-1.34
		c0.1-0.12,0.3-0.12,0.42-0.03c0.13,0.1,0.17,0.31,0.06,0.45c-0.59,0.7-1.22,1.36-1.88,1.99c-1.58,1.54-3.55,2.61-5.64,3.29
		C10.74,81.82,9.72,82.31,8.85,81.93z M9.51,81.41c2.75-0.42,5.43-1.76,7.4-3.69c-0.01-0.11-0.07-0.2-0.17-0.24
		c0.01,0,0.02,0.01,0.03,0.01c0.01,0.01,0.02,0.01,0.03,0.02c-2.47-0.99-5.86,2.33-7.63,3.82C9.27,81.43,9.39,81.41,9.51,81.41z"/>
	<path class="st11" d="M19.35,80.88c-1.88-0.33,0.38-2.28,0.83-3.03c0.44-0.58,0.89-1.17,1.24-1.82c0.03-0.14,0.15-0.24,0.3-0.24
		c1.26,0.18-2.21,3.68-2.42,4.32c-0.01,0.03-0.03,0.06-0.02,0.09c0.26,0.05,0.49-0.05,0.71-0.18c0.76-0.56,1.32-1.31,1.94-2
		c0.25-0.33,0.77,0.07,0.51,0.39C21.52,79.35,20.77,80.8,19.35,80.88z"/>
	<path class="st11" d="M25.27,81.41c-0.89-0.48-0.36-1.38,0.1-1.97c0.44-0.62,0.94-1.2,1.41-1.8c0.1-0.13,0.3-0.15,0.43-0.05
		c0.38,0.42-0.43,0.91-0.62,1.27c-0.41,0.56-0.88,1.1-1.17,1.72c-0.04,0.09,0.04,0.19,0.09,0.25c1.03-0.28,1.84-1.07,2.65-1.73
		c1.27-1.17,2.48-2.4,3.61-3.71c0.11-0.12,0.31-0.14,0.44-0.02c0.15,0.13,0.13,0.36-0.02,0.49c-0.76,0.93-1.61,1.78-2.46,2.63
		c-1.05,1.03-2.14,2.08-3.46,2.75C25.96,81.38,25.6,81.53,25.27,81.41z"/>
	<path class="st11" d="M31.92,83.58c-1.24-0.43,0.34-1.89,0.67-2.54c0.77-1.1,1.67-2.1,2.59-3.08c0.12-0.12,0.32-0.12,0.43,0
		c0.12,0.12,0.11,0.31,0,0.43c-1.32,1.41-2.57,2.86-3.48,4.56c0.01,0,0.02,0,0.02,0c0.01,0,0.01,0,0.01,0.01
		c0.59-0.2,1.07-0.66,1.55-1.05c0.74-0.7,1.64-1.29,1.91-2.3c0.04-0.17,0.23-0.27,0.39-0.22C37.25,80.02,32.77,84.06,31.92,83.58z"
		/>
	<path class="st11" d="M37.56,84.08c-0.82-0.43-0.16-1.42,0.14-1.99c0.6-1.12,1.3-2.18,2.08-3.19c0.46-0.55,0.93-1.1,1.4-1.64
		c0.11-0.13,0.3-0.17,0.44-0.06c0.13,0.1,0.17,0.31,0.06,0.44c-1.51,1.74-3.04,3.63-3.85,5.81c0.07,0.07,0.16,0.05,0.24,0
		c0.62-0.36,1.14-0.8,1.66-1.25c0.98-0.86,1.91-1.66,2.87-2.54c0.12-0.11,0.31-0.12,0.43,0c0.12,0.12,0.12,0.32,0,0.43
		c-0.58,0.55-1.17,1.1-1.77,1.64C40.47,82.32,38.52,84.61,37.56,84.08z"/>
	<path class="st11" d="M43.86,84.44c-1.04-0.18-0.35-1.39-0.19-2.02c0.41-1.18,0.8-2.5,1.88-3.25c0.31-0.24,0.69,0.24,0.37,0.48
		c-1.23,0.99-1.54,2.71-1.97,4.14c1.06-0.62,1.9-1.59,2.81-2.41c0.28-0.29,0.73,0.16,0.44,0.44c-0.77,0.74-1.52,1.52-2.37,2.17
		C44.55,84.2,44.24,84.5,43.86,84.44z"/>
	<path class="st11" d="M46.9,86.05c-0.99-0.44-0.56-1.64-0.2-2.39c0.42-1.08,1.01-2.14,1.19-3.3c0.02-0.16,0.18-0.28,0.34-0.26
		c0.74,0.21-0.38,2.26-0.53,2.77c-0.25,0.78-0.85,1.57-0.74,2.4c0.67,0.78,2.68-0.79,3.26-1.3c0.19-0.17,0.45-0.5,0.71-0.24
		c0.12,0.12,0.13,0.33,0,0.45C49.86,85.11,48.44,86.48,46.9,86.05z"/>
	<path class="st11" d="M10.36,70.14c-0.58,0.02-1.06-0.63-0.78-1.16c1.07-1.53,3.47-1.93,5.09-1.08c0.35-0.11,0.81-0.71,1.13-0.3
		c0.19,0.37-0.31,0.52-0.55,0.68c0.23,0.24,0.77,0.67,0.43,1c-0.12,0.1-0.33,0.08-0.42-0.05c-0.16-0.24-0.34-0.47-0.59-0.62
		C13.31,69.26,11.91,70.13,10.36,70.14z M10.41,69.5c1.3-0.03,2.41-0.73,3.56-1.23c-0.98-0.35-2.04-0.17-2.93,0.3
		c-0.29,0.2-0.92,0.42-0.85,0.83c-0.01-0.01-0.01-0.02-0.02-0.04c0.04,0.13,0.18,0.13,0.29,0.14C10.45,69.5,10.41,69.5,10.41,69.5z"
		/>
	<path class="st11" d="M16.84,74.39c-0.46-0.38,0.3-1,0.47-1.38c0.73-1,1.35-2.17,2.36-2.9c0.42-0.14,0.62,0.49,0.18,0.59
		c-0.78,0.78-1.38,1.72-2,2.63C17.55,73.62,17.36,74.62,16.84,74.39z"/>
	<path class="st11" d="M7.36,68.45C5.32,67.79,6.77,66,7.91,65.23c1.39-1.07,2.91-2.39,4.78-2.28c0.39,0,0.4,0.61,0,0.61
		c-0.15,0-0.3,0.01-0.42,0.01c-1.74,0.2-3.07,1.49-4.38,2.53c-0.38,0.38-1.22,0.99-0.72,1.55c-0.01-0.01-0.02-0.02-0.03-0.03
		c2.46,1.2,5.19-2.9,6.5-4.57c0.24-0.32,0.73,0.06,0.49,0.38C12.45,65.57,10.48,68.84,7.36,68.45z"/>
	<path class="st11" d="M8,62.1c-0.58-0.08-0.74-0.87-0.48-1.31c0.79-1.1,1.59-2.23,2.68-3.04c1.26-1.01,2.95-0.95,4.44-1.4
		c0.16-0.04,0.34,0.05,0.38,0.22c0.04,0.16-0.05,0.34-0.22,0.38c-0.63,0.17-1.28,0.3-1.92,0.43c-2.2,0.21-3.58,2.03-4.76,3.69
		c-0.09,0.11-0.08,0.26-0.03,0.38c0.92,0.01,1.82-0.49,2.54-0.98c1.41-1,2.78-2.06,4.1-3.18c0.11-0.1,0.3-0.08,0.4,0.03
		c0.11,0.11,0.12,0.32,0,0.43c-0.86,0.77-1.77,1.48-2.68,2.19C11.14,60.92,9.73,62.15,8,62.1z"/>
	<path class="st11" d="M10.43,55.82c-2.39-0.3,2-3.23,2.78-3.43c0.39-0.07,1.12-0.64,1.35-0.13c0.08,0.25-0.2,0.39-0.39,0.43
		c-0.37,0.13-0.74,0.25-1.09,0.41c-0.99,0.55-1.93,1.21-2.64,2.07c0.05,0.01,0.17,0.01,0.19,0c0.68-0.22,1.35-0.45,2.01-0.73
		c0.37-0.16,0.62,0.42,0.24,0.57C12.08,55.31,11.28,55.77,10.43,55.82z"/>
	<path class="st11" d="M9.18,50.21c-1.65-0.5-2.68-2.11-1.39-3.57c0.69-0.8,1.72-1.19,2.68-1.56c0.43-0.1,0.54,0.54,0.12,0.61
		c-1.3,0.42-3.74,1.76-2.32,3.3c0.35,0.3,0.74,0.48,1.15,0.64c0.16,0.07,0.23,0.25,0.17,0.41C9.52,50.21,9.33,50.28,9.18,50.21z"/>
	<path class="st11" d="M59.81,74.2c0-0.16,0.14-0.3,0.3-0.3c0.16,0,0.3,0.14,0.3,0.3s-0.14,0.3-0.3,0.3
		C59.94,74.5,59.81,74.37,59.81,74.2z"/>
	<path class="st11" d="M105.98,88.44c-0.54-0.05-0.71-0.7-0.69-1.16c-0.1-1.64,2.32-4.42,3.78-5c0.34-0.23,0.7,0.3,0.33,0.52
		c-0.38,0.16-0.73,0.37-1.02,0.66c0.69,0.11,0.33,0.98,0.15,1.4c0.01,0.06,0.03,0.11,0.05,0.17c0.01,0.02,0.02,0.04,0.02,0.05
		c-0.01-0.01-0.01-0.02-0.02-0.03c0-0.01,0-0.01-0.01-0.02c0,0.01,0,0.02,0.01,0.02c0.17,0.29,0.5,0.54,0.84,0.53
		c0.41-0.06,0.7-0.42,0.77-0.8c0.11-0.65,0.11-1.28,0.18-1.93c-0.01-0.67,0.35-1.01,1.02-0.85c0.17,0.03,0.3,0.19,0.27,0.36
		c-0.04,0.31-0.37,0.28-0.61,0.26c-0.19,1.09,0.16,2.47-0.77,3.29c-0.65,0.61-1.64,0.38-2.16-0.28c-0.42,0.74-0.8,1.49-1.25,2.2
		C106.69,88.14,106.4,88.49,105.98,88.44z M106.07,87.76c0.73-0.87,1.18-1.98,1.77-2.96c-0.02-0.31,0.05-0.63,0.13-0.93
		c-0.9,1.03-2.15,2.17-1.99,3.66C105.99,87.61,106.02,87.69,106.07,87.76z"/>
	<path class="st11" d="M118.86,79.1c-1.34-0.97-2.21-2.46-3.45-3.53c-0.13-0.1-0.16-0.3-0.06-0.43c0.1-0.13,0.29-0.15,0.43-0.05
		c0.62,0.23,3.9,4.91,4.02,3.17c0,0.01,0,0.02,0,0.03c0,0,0,0.01,0,0.01c0,0,0-0.01,0-0.01c0,0,0,0,0,0
		c-0.23-2.39-3.83-2.31-4.2-4.61c-0.11-0.39,0.5-0.57,0.61-0.17c0.08,0.39,0.27,0.76,0.57,1.01c1.39,1.04,4.04,1.96,3.62,4.12
		C120.19,79.4,119.44,79.59,118.86,79.1z"/>
	<path class="st11" d="M125.72,75.24c-1.71-0.32-3.4-1.05-4.71-2.21c-0.26-0.24-0.82-0.85-0.28-1.08c0.23-0.07,0.35,0.13,0.43,0.31
		c0.81,0.98,2.04,1.51,3.2,1.95c0.6,0.18,1.2,0.46,1.8,0.36c0.01-0.19,0.18-0.35,0.37-0.32c0.31,0.04,0.33,0.42,0.21,0.65
		C126.54,75.25,126.09,75.29,125.72,75.24z"/>
	<path class="st11" d="M112.24,81.82c-1.02-0.72-2.67-2.04-1.63-3.37c0.29-0.23,0.74-0.88,1.11-0.51c0.1,0.13,0.08,0.34-0.06,0.44
		c-0.32,0.24-0.71,0.46-0.76,0.88c0.06,0.96,1.1,1.59,1.82,2.06c0.12-0.07,0.19-0.21,0.24-0.34c0.2-0.92,0.14-1.89,0.19-2.83
		c0-0.17,0.14-0.31,0.31-0.31c0.17,0,0.31,0.14,0.31,0.31c0,0.53,0,1.06-0.02,1.59C113.82,80.64,113.53,82.58,112.24,81.82z"/>
	<path class="st11" d="M119.8,69.7c-0.03-0.18,0.1-0.35,0.28-0.37c1.56-0.27,3.17-0.64,4.49-1.53c0.51-0.36,1.25-0.99,0.89-1.67
		c-0.47-0.55-1.22-0.89-1.92-0.95c-1.14,0-2.1,1.07-2.4,2.09c0.41,0.01,0.39,0.65-0.02,0.64c-0.18,0.01-0.37-0.07-0.49-0.21
		c-0.53-0.97,0.95-2.47,1.76-2.91c1.42-0.84,4.59,0.45,3.72,2.36c-0.95,1.68-3.05,2.22-4.81,2.65
		C120.91,69.84,119.94,70.26,119.8,69.7z"/>
	<path class="st11" d="M121.33,64.64c-0.43-0.07-1.1-0.47-0.83-0.98c0.23-0.35,0.66-0.47,1.04-0.59c1.21-0.34,2.46-0.53,3.71-0.67
		c0.18-0.02,0.34,0.1,0.37,0.28c0.02,0.17-0.1,0.34-0.28,0.36c-1.42,0.22-2.89,0.31-4.21,0.86c0.07,0.05,0.16,0.09,0.24,0.11l0,0.01
		c0.26,0.04,0.66-0.18,0.77,0.18C122.24,64.65,121.64,64.67,121.33,64.64z"/>
	<path class="st11" d="M120.67,58.63c-0.5-0.04-1.05-0.01-1.5-0.25c-0.3-0.23,0.03-0.72,0.35-0.52c1.25,0.29,2.55,0.12,3.8-0.04
		c0.16-0.03,0.32,0.1,0.34,0.26c0.02,0.17-0.1,0.31-0.26,0.34C122.5,58.57,121.58,58.66,120.67,58.63z"/>
	<path class="st11" d="M126.28,56.27c-0.52-0.12-2.47-0.53-2.21-1.25c0.26-0.39,0.64,0.06,0.93,0.18c1.51,0.68,3.24,0.58,4.73,0
		c0.97-0.4,2.43-0.84,2.57-2.06c0,0.01,0,0.03,0,0.04c0,0,0,0.01,0,0.01c0,0,0-0.01,0-0.01c0,0,0,0,0,0
		c-0.68-2.37-4.11-2.24-6.08-2.29c-0.7,0-1.39-0.01-2.09-0.01c-0.17,0-0.3-0.14-0.3-0.3c0-0.17,0.14-0.3,0.3-0.3
		c1.78,0.02,3.58-0.11,5.34,0.17c1.67,0.21,4.41,1.7,3.21,3.69C131.29,55.81,128.38,56.63,126.28,56.27z"/>
	<path class="st11" d="M133.44,47.1c-0.28-0.43,0.38-0.61,0.56-0.91c0.4-0.49,2.34-2.73,1.02-2.93c-1.2,0.24-2.49,0.92-3.25,1.88
		c-0.02,0.39-0.63,0.37-0.62-0.02c0.3-1.08,1.59-1.58,2.5-2.1c0.77-0.45,2.28-0.76,2.47,0.45c0.13,0.99-0.58,1.83-1.12,2.58
		C134.67,46.39,133.96,47.57,133.44,47.1z"/>
	<path class="st11" d="M130.08,45.34c-0.01-1.29,2.82-2.49,3.83-3.1c0.36-0.21,0.69,0.35,0.33,0.56c-1.21,0.69-2.63,1.26-3.52,2.36
		C130.99,45.65,130.19,45.84,130.08,45.34z"/>
	<path class="st11" d="M126.23,40.43c-0.1-0.42,0.46-0.43,0.7-0.58c0.85-0.51,3.12-1.69,2.66-2.85c-0.65-0.97-4.58,1.77-5.54,2.19
		c-0.15,0.09-0.34,0.04-0.43-0.11c-0.08-0.15-0.04-0.35,0.11-0.43c1.1-0.61,2.2-1.26,3.33-1.81c0.71-0.33,1.43-0.8,2.25-0.71
		c1.21,0.15,1.26,1.61,0.56,2.37C129.53,38.99,126.56,41.35,126.23,40.43z"/>
	<path class="st11" d="M122.17,39.99c-1.03-2.32,2.67-5.08,4.27-6.38c0.67-0.37,2.8-2.22,3.36-1.33c0.09,0.25-0.13,0.48-0.23,0.71
		c-0.57,0.76-1.37,1.34-2.11,1.93c-0.48,0.37-0.99,0.71-1.5,1.05c-0.13,0.08-0.31,0.04-0.4-0.08c-0.1-0.13-0.08-0.34,0.06-0.43
		c1.11-0.77,2.2-1.58,3.16-2.54c-1.85,1-6.6,4.32-6.12,6.67C123.18,39.92,122.5,40.47,122.17,39.99z"/>
	<path class="st11" d="M122.95,32.17c0-0.21,0.16-0.36,0.31-0.48c0.57-0.44,1.21-0.77,1.83-1.12c0.55-0.3,1.1-0.59,1.66-0.85
		c0.16-0.08,0.35,0.02,0.42,0.17c0.07,0.16-0.01,0.34-0.17,0.42c-1.17,0.58-2.42,1.14-3.45,1.94c0,0,0,0,0,0
		C123.47,32.59,122.94,32.53,122.95,32.17z"/>
	<path class="st11" d="M110.07,25.74c-1.66-0.22-3.34-0.32-5.02-0.46c-0.54-0.12-3.34-0.03-3.08-0.83c0.07-0.17,0.27-0.23,0.42-0.16
		c2.55,0.55,5.19,0.41,7.76,0.84C110.56,25.17,110.47,25.8,110.07,25.74z"/>
	<path class="st11" d="M91.79,21.7c-1.75-0.23-2.42-2.32-1.98-3.83c0.16-0.68,0.66-1.26,1.39-1.29c0.39-0.06,0.48,0.56,0.08,0.61
		c-0.17,0.03-0.38,0.07-0.5,0.18c-0.83,1.01-0.53,3.08,0.74,3.59c0.49,0.16,1.18,0.19,1.48-0.3C93,20.67,93,20.68,92.99,20.69
		c0.39-1.19-0.34-2.46-0.58-3.63c-0.12-0.35-0.18-0.8,0.1-1.1c0.99-0.71,3,0.85,4.08,1.16c1.24,0.47,2.48,1.08,3.78,1.27
		c-0.63-1.38-1.43-2.75-2.38-3.94c-0.29-0.32,0.11-0.68,0.47-0.6c0.53,0.14,1.03,0.27,1.56,0.36c1.29,0.17,2.66,0.41,3.94,0.26
		c0.08-0.4,0.7-0.29,0.64,0.11c0.05,1.27-4.71,0.25-5.57,0.12c0.91,1.53,4.01,5.55-0.17,3.99c-1.32-0.43-2.61-0.97-3.87-1.55
		c-0.64-0.25-1.28-0.72-1.98-0.71c0.01,0,0.02,0,0.03-0.01c0.01,0,0.02,0,0.03,0c-0.02,0-0.04,0.01-0.06,0.01c-0.01,0-0.01,0-0.02,0
		C93.26,18.2,95.1,21.98,91.79,21.7z"/>
	<path class="st11" d="M95.92,12.46c-0.26-0.46,0.24-0.94,0.56-1.24c1.03-0.9,2.54-1.27,3.85-0.83c0.37,0.19,1.37,0.31,1.14,0.89
		c-0.09,0.16-0.29,0.2-0.45,0.12c-0.28-0.15-0.53-0.25-0.83-0.35c-1.29-0.47-2.91-0.03-3.7,1.1C96.73,12.53,96.16,12.81,95.92,12.46
		z"/>
	<path class="st11" d="M95.72,11.04c-0.05-0.17,0.06-0.34,0.23-0.4c2.37-1.15,5.09-2.51,6.4-4.87c-2.67,0.39-7.06,1.18-8.73,3.4
		c0.15,0.4-0.5,0.58-0.6,0.18c0.27-2.56,6.93-3.94,9.13-4.23c1.77-0.21,0.54,1.5-0.01,2.17c-1.16,1.37-2.76,2.26-4.29,3.16
		C97.39,10.63,96.02,11.73,95.72,11.04z"/>
	<path class="st11" d="M89.29,7.37c-0.26-0.38,0.27-0.57,0.53-0.72c1.08-0.52,2.2-0.97,3.31-1.43c0.16-0.07,0.34,0.01,0.4,0.16
		s-0.01,0.34-0.16,0.4c-0.52,0.22-1.04,0.44-1.56,0.66c-0.68,0.3-1.34,0.55-1.96,0.9C89.74,7.57,89.42,7.56,89.29,7.37z"/>
	<path class="st11" d="M81.2,21.07c-1.79-0.1-1.18-2.41-0.16-3.15c0.52-0.46,1.2-0.62,1.83-0.87c0.16-0.06,0.34,0,0.4,0.16
		c0.06,0.15-0.01,0.34-0.16,0.4c-0.97,0.3-2.01,0.73-2.35,1.77c-0.15,0.36-0.17,0.98,0.32,1.04c0.88,0,1.58-0.76,1.88-1.52
		c0.15-0.37,0.74-0.12,0.57,0.24C83.17,20.13,82.28,20.99,81.2,21.07z"/>
	<path class="st11" d="M76.39,16.73c-0.87-0.4-0.33-1.4,0.39-1.6c-0.3-0.18-0.21-0.6-0.27-0.89c-0.19-0.8-0.75-1.45-1.16-2.12
		c-0.08-0.12-0.13-0.18-0.25-0.22c-0.58,0.26-0.73-0.59-0.15-0.68c0.08-0.07,0.16-0.15,0.23-0.23l0,0c0.08-0.11,0.06-0.24,0.01-0.36
		c-0.05-0.17,0.06-0.35,0.22-0.39c0.61-0.06,0.57,0.92,0.22,1.22c0.68,0.89,1.45,1.89,1.56,3.05c0.96-0.15,2.31-0.67,3.08,0.15
		c0.27-0.01,0.7-0.15,0.77,0.23c0.04,0.4-0.42,0.37-0.7,0.39C79.88,16.35,77.46,17.14,76.39,16.73z M77.13,16.21
		c0.87-0.1,1.72-0.39,2.43-0.89c-0.98,0.04-1.97,0.06-2.82,0.57c-0.09,0.06-0.13,0.11-0.12,0.21c0.17,0.08,0.37,0.11,0.56,0.1
		C77.16,16.21,77.14,16.21,77.13,16.21z"/>
	<path class="st11" d="M56.86,15.94c-0.29-0.03-0.57-0.13-0.85-0.17c-0.4-0.08-0.27-0.58-0.27-0.87c0.04-0.32,0.3-0.54,0.47-0.78
		c0.55-0.74,1.17-1.54,2.09-1.79c1.42-0.22,2.87,0.05,4.28,0.17c0.35-0.23,0.69-0.46,1-0.67c0.17-0.11,0.33-0.23,0.49-0.35
		c-0.16,0.04-0.32-0.02-0.39-0.18c-0.19-0.54,0.92-0.67,1.29-0.67c0.21,0,0.36,0.2,0.31,0.4c-0.19,0.79-1.14,1.09-1.72,1.58
		c0.29,0.04,0.72-0.05,0.74,0.34c0,0.16-0.14,0.31-0.3,0.3c-0.41-0.03-0.82-0.05-1.23-0.11C60.94,14.24,59.07,15.84,56.86,15.94z
		 M57.15,15.31c1.71-0.33,3.16-1.39,4.62-2.28c-1.48-0.03-3.38-0.65-4.43,0.72c-0.32,0.36-0.62,0.78-0.92,1.15
		c-0.06,0.08-0.05,0.19-0.05,0.28C56.64,15.24,56.89,15.32,57.15,15.31z"/>
	<path class="st11" d="M61.98,20.75c-1.06-0.7,0.44-1.68,0.92-2.25c0.34-0.33,0.67-0.66,1.01-0.99c0.13-0.12,0.33-0.13,0.46,0
		c0.13,0.12,0.13,0.34,0,0.46c-0.71,0.72-1.5,1.38-2.12,2.17c0,0.01,0,0.02,0.01,0.03c0.56,0.08,1.1-0.25,1.62-0.44
		c0.15-0.06,0.34,0.01,0.4,0.16c0.14,0.43-0.45,0.49-0.72,0.64C63.06,20.71,62.49,20.96,61.98,20.75z"/>
	<path class="st11" d="M64.42,20.81c-0.47-0.28,0.07-0.86,0.15-1.24c0.52-1.26,1.23-2.45,2.21-3.4c0.28-0.28,0.72,0.16,0.43,0.44
		c-1.15,1.14-1.82,2.55-2.38,4.03C64.78,20.8,64.57,20.87,64.42,20.81z"/>
	<path class="st11" d="M105.16,33.14c-0.47-0.1-0.22-0.59-0.1-0.85c0.28-0.89,0.74-1.9,0.32-2.8c-0.12-0.23-0.29-0.37-0.36-0.61
		c-0.16-0.69,1.11-0.72,0.69-0.02c0.57,0.68,0.56,1.63,0.34,2.44c0.76-0.86,1.69-1.69,2.89-1.69c1.88-0.32,3.89-0.87,5.7,0.05
		c0.39,0.16,0.14,0.76-0.25,0.6c-1.5-0.71-3.16-0.4-4.72-0.09c-0.63,0.17-1.36,0.05-1.9,0.46c-0.82,0.57-1.4,1.27-1.95,2.07
		C105.69,32.94,105.47,33.21,105.16,33.14z"/>
	<path class="st11" d="M93.13,40.37c-0.32-0.06-0.7-0.5-0.38-0.77c0.21-0.17,0.39,0.01,0.55,0.13c0.44,0.07,0.86-0.05,1.29-0.11
		c0.98-0.19,1.99-0.28,2.83-0.83c0.52-0.41,0.54-1.24,0.21-1.77c-0.32-0.45-0.82-0.71-1.32-0.92c-0.4,0.17-1.12-0.02-1.12-0.53
		c0.07-0.56,0.84-0.21,1.18-0.12c0.19-0.1,0.46-0.03,0.49,0.21c1.33,0.47,2.18,2.12,1.28,3.34c-0.64,0.78-1.71,0.94-2.64,1.14
		C94.72,40.25,93.91,40.51,93.13,40.37z"/>
	<path class="st11" d="M94.52,36.62c-0.95-0.83-1.96-1.58-2.97-2.32c-0.4-0.35-1.62-1.03-0.95-1.62c0.24-0.15,0.54,0.11,0.44,0.37
		c0,0,0,0,0,0c0,0,0,0,0,0c0,0,0,0,0,0c0.44,0.69,4.4,2.9,3.92,3.52C94.85,36.69,94.65,36.73,94.52,36.62z"/>
	<path class="st11" d="M91.65,47.21c-0.17-0.02-0.29-0.18-0.27-0.35c0.14-1.49,0.55-3.07,0.02-4.52c-0.11-0.23-0.13-0.57,0.15-0.68
		c0.3-0.15,0.67,0.19,0.44,0.48c0.41,0.99,0.34,2.08,0.22,3.13c-0.05,0.56-0.12,1.12-0.21,1.68C91.98,47.11,91.82,47.24,91.65,47.21
		z"/>
	<path class="st11" d="M105.94,36.46c-0.2-1-0.51-2.41-1.66-2.65c-0.21-0.04-0.43-0.05-0.64-0.07c-0.4-0.05-0.31-0.67,0.08-0.61
		c1.83-0.14,2.64,1.71,2.84,3.25C106.62,36.78,106,36.86,105.94,36.46z"/>
	<path class="st11" d="M74.98,67.77c-1-0.34-1.97-1.29-3.11-0.94c0.11,0.68-0.93,0.4-0.69-0.17c0.82-1.19,2.81-0.17,3.76,0.4
		c0,0,0,0,0,0c-0.06-0.63-0.34-1.17-0.6-1.72c-0.12-0.29-0.4-0.55-0.7-0.62c-0.55-0.11-1.02-0.1-1.57-0.1
		c-0.18,0-0.33-0.15-0.33-0.33c0.05-0.51,0.72-0.28,1.07-0.32c0.58,0.02,1.23,0.06,1.68,0.46C75.04,64.99,76.41,67.65,74.98,67.77z"
		/>
	<path class="st11" d="M57.11,63.75c-1.67-0.01-2.85-1.49-2.09-3.07c0.85-1.81,2.79-3.03,4.77-3.13c1.24,0,2.42,0.54,3.67,0.43
		c0.16,0,0.3,0.13,0.3,0.3c0,0.16-0.13,0.3-0.3,0.3c-1.11,0.06-2.18-0.23-3.26-0.41c-1.68-0.06-3.35,0.84-4.28,2.22
		c-0.97,1.31-0.43,2.69,1.26,2.72c2.05-0.06,4.26-1.35,4.96-3.33c0.07-0.16,0.26-0.24,0.42-0.17c0.17,0.07,0.23,0.26,0.17,0.42
		C61.93,62.27,59.44,63.75,57.11,63.75z"/>
	<path class="st11" d="M62.97,64.67c-2.98-0.09,1.47-4.95,1.95-6.12c0.15-0.19,0.21-0.53,0.49-0.54c0.17,0,0.31,0.14,0.31,0.31
		c-0.58,1.27-1.5,2.38-2.21,3.59c-0.36,0.64-0.9,1.25-0.91,2.01c1.11,0.49,3.24-2.01,4.03-2.75c-0.51-0.65,0.39-2.13,1.13-2.21
		c0.89,0.17,0.48,1.35,0.05,1.82c1.02-0.4,1.86-1.06,2.66-1.78c0.25-0.24,0.57,0.02,0.61,0.31c0.02,0.35-0.04,0.62,0.01,0.93
		c0,0-0.01,0-0.01,0c0.16,0.66,1.33-0.29,1.61-0.49c0.13-0.11,0.18-0.23,0.34-0.29c0.2-0.1,0.43,0.06,0.46,0.26
		c0.02,0.16,0.08,0.31,0.18,0.44l0,0.01c0.17,0.19,0.46,0.08,0.68,0.05c0.41-0.06,0.5,0.58,0.09,0.64c-0.54,0.16-1.19,0.07-1.44-0.5
		c-0.92,0.79-2.63,1.4-2.58-0.44c-0.93,0.69-1.99,1.7-3.22,1.6C65.98,62.68,64.72,64.4,62.97,64.67z M67.15,60.59
		c0.21-0.27,0.48-0.56,0.52-0.91c-0.21,0.23-0.41,0.53-0.5,0.82C67.16,60.53,67.16,60.56,67.15,60.59z"/>
	<path class="st11" d="M78.41,62.05c-1.28-0.28-2.1-1.8-1.78-3.05c0.15-0.33,0.37-1.22,0.86-1c0.14,0.09,0.2,0.28,0.11,0.43
		c-0.77,0.95-0.33,2.51,0.8,2.94c0.2,0.06,0.39,0.13,0.53-0.03c0.45-0.59,0.69-1.25,1.58-1.02c0.42,0.04,0.84,0.02,1.26,0
		c0.16-0.01,0.3,0.13,0.32,0.28c0.04,0.74-1.65,0.25-2.08,0.36C79.59,61.47,79.23,62.3,78.41,62.05z"/>
	<path class="st11" d="M86.82,56.56c-0.87-0.27-3.48-1.36-2.14-2.48c0.39-0.2,1.25-0.96,1.58-0.42c0.07,0.17-0.01,0.38-0.18,0.45
		c-0.38,0.17-0.84,0.32-1.12,0.63c0.48,0.57,1.29,0.93,1.99,1.15c0.07-0.01,0.2-0.06,0.25-0.1c0.29-0.21,0.56-0.48,0.74-0.78
		c0.08-0.3,0.28-0.55,0.59-0.66c0.75-0.22,1.54-0.23,2.32-0.29c0.18-0.01,0.32,0.15,0.32,0.32c0,0.18-0.15,0.31-0.32,0.32
		c-0.71,0.05-1.46,0.05-2.14,0.25c0,0,0,0,0,0C88.26,55.62,87.75,56.61,86.82,56.56z"/>
	<path class="st11" d="M54.37,57.74c-0.34-0.11-1.06-0.41-0.85-0.86c0.08-0.15,0.13-0.33,0.25-0.45c1.17-0.78,2.86-0.52,4.09,0
		c0.36-0.07,0.92-0.62,1.19-0.16c0.11,0.27-0.15,0.42-0.37,0.5c0.24,0.57-0.49,0.5-0.81,0.34C56.76,57.48,55.56,57.86,54.37,57.74z
		 M54.97,57.1c0.34-0.03,0.67-0.07,0.96-0.13c0.32-0.07,0.64-0.14,0.95-0.23c-0.8-0.19-1.67-0.2-2.45,0.04
		c-0.1,0.04-0.16,0.06-0.2,0.15c0.03,0.02,0.06,0.05,0.07,0.05c0.03,0.02,0.06,0.04,0.1,0.06l0,0.01
		C54.58,57.12,54.78,57.11,54.97,57.1z"/>
	<path class="st11" d="M56.41,51.39c-0.77-0.09-1.89-0.15-2.22-0.99c-0.07-0.46,0.26-0.89,0.69-1.02c1.39-0.42,2.88-0.23,4.32-0.28
		c0.39,0,0.39,0.61,0,0.61c-1.38,0.05-2.86-0.14-4.17,0.29c-0.09,0.04-0.17,0.11-0.2,0.21c0.01-0.01,0.01-0.03,0.01-0.04
		c-0.01,0.03-0.02,0.07-0.03,0.08c0,0.01,0,0.01,0,0.02c0.01,0.01,0.02,0.02,0.03,0.03c0.03,0.03,0.07,0.06,0.08,0.06
		c1.34,0.69,2.9,0.37,4.32,0.21c1.23-0.13,2.47-0.15,3.71-0.14c0.17,0,0.31,0.14,0.31,0.31c0,0.17-0.14,0.31-0.31,0.31
		C60.73,50.94,58.61,51.48,56.41,51.39z"/>
	<path class="st11" d="M76.36,50.01c-2.04-1.24-3.58-3.5-6.05-3.86c-0.42-0.05-0.33-0.72,0.09-0.65c2.11,0.3,3.62,1.89,5.2,3.16
		c0.37,0.3,0.75,0.58,1.14,0.86c0.14,0.1,0.16,0.31,0.06,0.44C76.69,50.1,76.5,50.11,76.36,50.01z"/>
	<path class="st11" d="M82.38,48.55c0-0.16,0.14-0.3,0.3-0.3s0.3,0.14,0.3,0.3s-0.14,0.3-0.3,0.3S82.38,48.72,82.38,48.55z"/>
	<path class="st11" d="M63.83,83.68c-0.38-0.39-0.4-0.95-0.26-1.45c0.27-1.28,1.04-2.45,2.25-3.01c0.3-0.17,0.98-0.5,1.04,0.05
		c0,0.17-0.14,0.3-0.3,0.31c-1.05,0.34-1.87,1.18-2.19,2.22c-0.12,0.47-0.39,1-0.07,1.41c0,0,0,0,0,0c0.69-0.02,1.16-0.63,1.63-1.06
		c-0.27-0.44-0.22-1.01,0.11-1.41c0.33-0.55,0.63-1.08,1.06-1.54c0.36-0.44,1.03-0.7,1.28-0.02c0.04,0.51-0.15,1.05-0.38,1.5
		c0.97-0.85,1.84-1.85,2.46-2.97c0.26-0.52,0.4-1.1,0.77-1.57c0.13-0.18,0.28-0.33,0.43-0.49c0.28-0.29,0.74,0.15,0.45,0.44
		c-0.22,0.23-0.44,0.54-0.57,0.81c-0.56,1.57-1.58,2.92-2.79,4.06c-0.58,0.5-1.16,1.14-1.95,1.25
		C66.08,82.91,64.92,84.39,63.83,83.68z M66.45,81.52c0.02,0,0.03,0,0.05,0c0.51-0.57,1.07-1.15,1.18-1.94
		C67.19,80.14,66.68,80.83,66.45,81.52z"/>
	<path class="st11" d="M76.24,80.96c-1.26-0.04-1.06-1.5-0.51-2.24c0.67-1.08,1.24-2.42,2.34-3.11c0.38-0.11,0.57,0.48,0.19,0.61
		c-0.7,0.6-1.17,1.46-1.64,2.25c-0.25,0.48-0.62,0.98-0.68,1.52c0,0,0.01-0.01,0.01-0.01c0.13,0.65,0.96,0.13,1.3-0.07
		c0.83-0.46,1.31-1.25,1.55-2.14c0.05-0.16,0.21-0.26,0.38-0.22c0.16,0.04,0.27,0.22,0.22,0.38C79.06,79.42,77.81,80.85,76.24,80.96
		z"/>
	<path class="st11" d="M82.76,80.23c-1.82-0.61-1.9-2.71-1.18-4.21c0.06-0.16,0.26-0.23,0.41-0.17c0.19,0.08,0.23,0.29,0.15,0.46
		c-0.48,1.07-0.62,2.59,0.6,3.19c1.34,0.58,2.7-0.65,3.38-1.69c0.09-0.13,0.28-0.16,0.41-0.08c0.38,0.25-0.03,0.64-0.2,0.89
		C85.53,79.69,84.14,80.63,82.76,80.23z"/>
	<path class="st11" d="M16.19,44.29c-0.53-0.13-0.93-0.6-1.23-1.02c-0.43-0.48-0.88-0.88-1.45-1.16c-1.52-0.86-3.3-0.31-4.67,0.59
		c-0.26,0.11-0.54,0.41-0.82,0.26c-0.31-0.21-0.13-0.6,0.22-0.63c1.13-0.66,2.35-1.36,3.71-1.3c1.56,0.06,2.99,0.99,3.87,2.25
		c0.16,0.16,0.33,0.31,0.54,0.36c0.54,0.05,1.04-0.09,1.54-0.22c0.18-0.05,0.37,0.06,0.41,0.24C18.51,44.28,16.59,44.37,16.19,44.29
		z"/>
	<path class="st11" d="M21.04,42.94c-0.8-0.43-1.67-1.83-2.64-0.99c-0.06,0.52-0.8,0.3-0.63-0.17c0.41-0.86,1.65-0.9,2.35-0.37
		c-0.19-0.73-0.83-1.96,0.16-2.36c1.52-0.45,2.89,0.3,3.06,1.93c0.04,0.31-0.11,0.87-0.52,0.72c-0.24-0.1-0.21-0.36-0.13-0.54
		c-0.03-0.79-0.53-1.59-1.38-1.56c-0.32,0.01-0.91-0.14-0.94,0.28c0,0-0.01,0.01-0.01,0.01c0.18,0.83,0.38,1.71,0.86,2.42
		C21.68,42.49,21.55,43.14,21.04,42.94z"/>
	<path class="st11" d="M21,36.58c-2.61-0.64,0.71-4.9,4-2.67c0.24-0.91,0.76-1.87,1.64-2.29c-2.19-4.98,2.9-4.41,5.8-2.66
		c0.36,0.21,0.04,0.78-0.33,0.56c-0.57-0.33-1.16-0.58-1.77-0.77c-2.76-0.97-4.52-0.39-3.05,2.73c4.69-0.35,1.82,4.55-0.35,0.73
		c-0.79,0.37-1.22,1.33-1.34,2.14c0.45,0.46,1.19,1.33,0.77,1.99c-0.65,0.55-1.26-0.42-1.36-1C23.82,36.12,22.42,36.58,21,36.58z
		 M21.4,35.93c0.75-0.09,1.52-0.19,2.21-0.52c0.44-0.14,0.85-0.65,1.32-0.56c0-0.06-0.01-0.13-0.01-0.19
		c-1.16-0.94-3.08-1.04-3.96,0.31c-0.16,0.25-0.38,0.63-0.14,0.89l0,0C21,35.96,21.2,35.95,21.4,35.93z M28.8,33.03
		c0.19-0.03,0.35-0.16,0.36-0.36c-0.02-0.17-0.08-0.28-0.24-0.34c-0.44-0.13-0.83-0.19-1.28-0.21
		C27.93,32.53,28.28,33.01,28.8,33.03z"/>
	<path class="st11" d="M36.65,30.99c-1.25-2.28-5.79-6.58-8.51-4.93c-0.36,0.23-0.64,0.66-0.45,1.07c0,0,0,0.01,0,0.01
		c0.05,0.09,0.12,0.16,0.2,0.22l0,0.01c0.08,0.05,0.18,0.08,0.27,0.09c0,0-0.01,0-0.01,0c-0.01,0-0.02,0-0.03-0.01
		c0.44,0.03,0.87-0.16,1.3-0.24c0.17-0.04,0.34,0.05,0.39,0.22c0.04,0.16-0.05,0.35-0.22,0.39c-0.39,0.08-0.78,0.2-1.17,0.26
		c-0.82,0.14-1.57-0.62-1.4-1.44c0.16-0.92,1.1-1.43,1.95-1.57c2.76-0.35,5.88,2.34,7.48,4.37c0.28,0.4,0.54,0.8,0.78,1.22
		C37.43,31.02,36.87,31.36,36.65,30.99z"/>
	<path class="st11" d="M42.5,29.4c-0.2-1.32-0.51-2.68-1.29-3.77c-0.27-0.44-0.71-0.82-0.82-1.33c-0.03-0.25,0.08-0.58,0.37-0.59
		c0.25,0,0.39,0.28,0.27,0.49c0.68,1.06,1.51,2.07,1.77,3.35c0.04,0.45,0.69,2.04,0.07,2.13C42.69,29.7,42.53,29.58,42.5,29.4z"/>
	<path class="st11" d="M48.71,25.08c-0.35-0.37-0.9-0.45-1.33-0.63c-0.7-0.19-1.55-0.67-2.26-0.36c-0.39,0.23-0.71-0.42-0.29-0.59
		c0.5-0.24,1.06-0.16,1.57-0.03c0.84,0.25,1.71,0.48,2.47,0.92c0.2-0.69,0.38-1.39,0.56-2.09c0.04-0.16,0.21-0.25,0.37-0.21
		c0.16,0.04,0.25,0.21,0.21,0.37c-0.1,0.43-0.21,0.85-0.32,1.28C49.54,24.16,49.42,25.59,48.71,25.08z"/>
	<path class="st11" d="M53.43,20.6c-1.06-0.21-2.19-0.18-3.2-0.6c-0.41-0.11-0.56-1.08-0.05-1.12c0.3,0,0.32,0.33,0.31,0.55
		c0,0,0,0,0,0c0,0,0,0,0,0c0,0,0,0,0,0c0.97,0.36,2.03,0.32,3.03,0.53c0.17,0.03,0.3,0.18,0.27,0.36
		C53.77,20.49,53.6,20.63,53.43,20.6z"/>
	<path class="st11" d="M58.6,10.89c-0.91-0.17-0.51-1.24,0.1-1.54c0.95-0.59,2.07-0.08,3.03,0.21c0.38,0.12,0.76,0.25,1.13,0.38
		c0.15,0.05,0.22,0.23,0.18,0.38c-0.04,0.16-0.23,0.28-0.39,0.22c-0.32-0.11-0.64-0.22-0.96-0.32c-0.91-0.24-2.38-1.03-3,0.04
		c0.25,0.03,0.63-0.04,0.64,0.32C59.32,10.97,58.87,10.92,58.6,10.89z"/>
	<path class="st11" d="M76.66,10.2c-1.22-1.42-2.13-3.74-4.22-3.96c-0.37-0.04-0.33-0.63,0.04-0.61c1.54,0.03,2.63,1.35,3.45,2.5
		c0.41,0.56,0.81,1.13,1.21,1.69c0.1,0.14,0.08,0.33-0.06,0.43C76.96,10.36,76.76,10.34,76.66,10.2z"/>
	<path class="st11" d="M82.75,12.57c-0.18-0.02-0.28-0.18-0.27-0.35c0.09-1.62,0.33-3.28-0.23-4.8c-0.29-0.25,0.1-0.72,0.4-0.47
		c0.16,0.13,0.24,0.33,0.3,0.53c0.43,1.57,0.27,3.22,0.15,4.83C83.08,12.48,82.91,12.6,82.75,12.57z"/>
	<path class="st11" d="M43.86,30.8c-1.7-1.08-2.69-3.09-4.54-3.91c-0.85-0.3-1.86-0.35-2.56,0.27c-0.22,0.35-0.77,0.01-0.52-0.34
		c0.95-1,2.53-0.9,3.69-0.36c1.13,0.57,1.88,1.64,2.78,2.5c0.48,0.48,0.98,0.93,1.52,1.35c0.13,0.1,0.16,0.3,0.05,0.43
		C44.19,30.88,43.99,30.9,43.86,30.8z"/>
	<path class="st11" d="M48.84,29.08c-0.5-1.3-0.9-2.82-1.9-3.81c-0.23,0.22-0.63-0.07-0.49-0.36c1.17-1.48,2.71,3.2,2.99,4.01
		C49.54,29.29,48.95,29.46,48.84,29.08z"/>
	<path class="st11" d="M39.55,50.12c-1.18,0-2.05-1.16-1.26-2.19c0.45-0.92,5.67-3.25,5.41-1.18c-0.11,0.35-0.53,1.46-1,0.91
		c-0.16-0.38,0.38-0.68,0.39-1.07c-0.58-0.14-1.19,0.15-1.75,0.29c-0.97,0.38-2.05,0.7-2.63,1.61c0.01-0.01,0.01-0.03,0.02-0.04
		c-0.08,0.2-0.15,0.47,0.01,0.64c-0.01-0.01-0.02-0.02-0.03-0.03c0-0.01-0.01-0.01-0.01-0.02c0.58,0.7,1.68,0.38,2.42,0.17
		c1.52-0.46,2.67-1.51,4.07-2.17c2.03-0.4,4.13,0.2,6.18,0.26c0.4,0.05,0.32,0.69-0.09,0.63c-1.88-0.06-3.82-0.49-5.67-0.33
		C43.63,48.45,41.88,50.23,39.55,50.12z"/>
	<path class="st11" d="M28.51,63.38c-0.84-0.16-1.54-0.97-1.48-1.84c0.24-1.67,1.86-2.75,3.32-3.32c1.15-0.44,2.39-0.5,3.6-0.65
		c0.16-0.02,0.31,0.09,0.33,0.25c0.04,0.54-1.1,0.35-1.48,0.48c-2.02,0.19-4.77,1.12-5.14,3.39c0.07,0.6,0.56,1,1.13,1.08
		c2.26,0.32,4.29-1.25,6.08-2.41c-0.13-0.9,1.13-0.89,0.8,0.04c1.01,0.57,2.17,0.59,3.28,0.76c0.4,0.05,0.31,0.67-0.08,0.61
		c-1.22-0.16-2.57-0.17-3.63-0.87C33.28,62.19,30.99,63.91,28.51,63.38z"/>
	<path class="st11" d="M45.43,69.62c-2.04-0.67-4.43-1.46-5.61-3.39c-0.11-0.28-0.32-0.8,0.11-0.89c0.2-0.03,0.35,0.14,0.36,0.33
		c0.62,1.69,2.98,2.45,4.51,3.11c0.32,0.18,1.06,0.12,0.99,0.62C45.76,69.56,45.59,69.66,45.43,69.62z"/>
	<path class="st11" d="M108.21,61.69c-0.78,0.01-2.25-0.66-1.2-1.47c0.36-0.21,0.67,0.36,0.3,0.55c0.82,0.43,1.8,0.29,2.69,0.34
		c0.18,0,0.32,0.15,0.32,0.32C110.33,62.06,108.65,61.65,108.21,61.69z"/>
	<path class="st11" d="M105.15,50.51c-0.28-0.05-0.48-0.24-0.63-0.47c-0.11-0.14-0.08-0.35,0.06-0.46c0.25-0.2,0.46,0.06,0.62,0.24
		c0.08,0.04,0.18,0.05,0.27,0.04c0,0-0.01,0-0.01,0c0.89-0.48,1.94-1.38,1.9-2.47c-0.07-0.49-0.57-0.57-0.98-0.52
		c-1.64,0.48-3.21,1.39-4.46,2.55c-0.21,0.17-0.11,0.52-0.42,0.56c-1.82-0.65,3.88-3.7,4.62-3.72c1.45-0.38,2.36,0.87,1.71,2.18
		C107.39,49.28,106.19,50.69,105.15,50.51z"/>
	<path class="st11" d="M114.23,38.38c-0.27,0-0.55-0.29-0.38-0.55c0.4-0.67,1.29-0.83,1.98-1.07c1.37-0.5,2.89-0.11,4.21-0.78
		c0.38-0.16,0.63,0.43,0.25,0.59c-0.83,0.4-1.77,0.59-2.66,0.51c-1.07,0.1-2.09,0.36-3.02,0.88c0,0,0,0,0,0
		C114.67,38.18,114.47,38.41,114.23,38.38z"/>
	<path class="st11" d="M122.17,29.54c-0.83-1.11,1.76-2.84,2.69-3.1c0.38-0.16,0.62,0.43,0.25,0.58c-1,0.4-2.08,1.05-2.49,2.08
		C122.91,29.39,122.46,29.83,122.17,29.54z"/>
	<path class="st11" d="M121.35,27.4c-1.05-2.62,8.91-2.34,9.84-0.87c0.29,0.28-0.12,0.76-0.44,0.5c-0.08-0.07-0.15-0.13-0.24-0.19
		c-1.51-0.89-7.57-1.23-8.67,0.21C122.25,27.39,121.6,27.85,121.35,27.4z"/>
	<path class="st11" d="M138.28,52.81c-1.48-0.25-2.85-1.08-4.17-1.72c-0.23-0.09-0.51-0.26-0.39-0.54c0.27-0.56,1.26,0.29,1.66,0.41
		c1.16,0.53,2.42,1.32,3.73,1.15c1.04-0.31,2.09-1.13,2.39-2.2c0.04-0.99-0.56-1.93-1.13-2.67c-1.01-1.15-2.76-0.89-4.08-0.71
		c-0.33,0.29-0.77-0.27-0.38-0.51c1.27-0.38,2.79-0.47,4.03,0.06c1.29,0.69,2.12,2.23,2.27,3.65
		C142.08,51.46,140.01,53.06,138.28,52.81z"/>
	<path class="st11" d="M123.83,50.26c-0.04-0.15,0.05-0.34,0.21-0.37c0.82-0.18,1.63-0.38,2.45-0.54c0.91-0.18,1.83-0.34,2.75-0.49
		c0.16-0.03,0.32,0.1,0.34,0.26c0.02,0.17-0.1,0.31-0.26,0.34c-0.95,0.16-1.89,0.33-2.84,0.51c-0.76,0.17-1.52,0.34-2.28,0.51
		C124.04,50.51,123.87,50.42,123.83,50.26z"/>
	<path class="st11" d="M116.24,52.99c-0.86-0.96-1.72-2.05-2.98-2.49c-0.16-0.06-0.23-0.25-0.16-0.4c0.77-0.79,3.1,1.89,3.62,2.52
		C116.96,52.92,116.48,53.3,116.24,52.99z"/>
	<path class="st11" d="M94.89,73.73c-2.06-0.47,0.98-3.91,1.63-4.73c0.38-0.39,0.77-0.84,1.3-1.01c0.37-0.12,0.75-0.06,1.13-0.07
		c0.4,0,0.4,0.63,0,0.62c-0.28,0.01-0.56-0.02-0.83,0.01c-0.47,0.11-0.82,0.55-1.14,0.87c-0.73,0.84-1.39,1.81-1.94,2.76
		c-0.12,0.25-0.23,0.57-0.17,0.85c1.49,0.21,3.63-2.07,4.24-3.32c0.27-0.44,0.28-1.14,0.88-1.27c0.98-0.27,1.98,0.32,2.96,0.24
		c1.46-0.11,2.59-1.2,3.7-2.05c1.17-0.88,2.29-1.87,3.62-2.49c0.54-0.2,1.13-0.23,1.7-0.29c0.18-0.02,0.35,0.1,0.37,0.28
		c0.02,0.18-0.1,0.35-0.28,0.37c-3.66,0.14-5.5,4.47-9.06,4.87c-0.82,0.07-1.66-0.26-2.44-0.32c-0.17,0-0.43-0.02-0.51,0.15
		c0-0.01,0.01-0.02,0.01-0.03c0,0,0,0,0-0.01C99.49,71.05,97,73.81,94.89,73.73z"/>
	<path class="st11" d="M30.13,69.39c-1.29-0.2-1.8-1.98-0.83-2.85c0.72-0.7,1.82-0.8,2.66-1.25c0.36-0.11,0.84-0.71,1.17-0.29
		c0.08,0.15,0.03,0.34-0.11,0.43c-0.67,0.4-1.37,0.72-2.11,0.96c-0.54,0.2-1.08,0.39-1.36,0.91c-0.2,0.42-0.08,0.93,0.26,1.24
		c0.47,0.4,1.12,0.17,1.65,0.05c0.17-0.04,0.35,0.05,0.4,0.23C32,69.41,30.53,69.43,30.13,69.39z"/>
</g>
</svg>
