<?xml version="1.0" encoding="utf-8"?>
<!-- Generator: Adobe Illustrator 27.7.0, SVG Export Plug-In . SVG Version: 6.00 Build 0)  -->
<svg version="1.1" id="圖層_1" xmlns="http://www.w3.org/2000/svg" xmlns:xlink="http://www.w3.org/1999/xlink" x="0px" y="0px"
	 viewBox="0 0 40 110" style="enable-background:new 0 0 40 110;" xml:space="preserve">
<style type="text/css">
	.st0{fill:none;}
	.st1{fill:#294A26;}
	.st2{fill:#1F2214;}
	.st3{fill:#9E6924;}
	.st4{fill:#164323;}
	.st5{fill:#293B1D;}
	.st6{fill:#2A4D28;}
	.st7{fill:#749A2F;}
	.st8{fill:#76933C;}
	.st9{fill:#5F7D33;}
	.st10{fill:#3F562A;}
	.st11{fill:#101D0A;}
	.st12{fill:#C89A5D;}
	.st13{fill:#F2C1A3;}
	.st14{fill:#A87762;}
	.st15{fill:#3E3526;}
	.st16{fill:#28201C;}
	.st17{fill:#040000;}
	.st18{fill:#41617E;}
	.st19{fill:#DDB3A2;}
	.st20{fill:#A34529;}
	.st21{fill:#E7D0C8;}
	.st22{fill:#282828;}
	.st23{fill:#B1927D;}
	.st24{fill:#A3A399;}
	.st25{fill:#BF8466;}
	.st26{fill:#424242;}
	.st27{fill:#552D18;}
	.st28{fill:#A1BA39;}
	.st29{fill:#E2E1E1;}
	.st30{fill:#0D2037;}
	.st31{fill:#968272;}
	.st32{fill:#9CA2C4;}
	.st33{fill:#928884;}
	.st34{fill:#DCA88D;}
	.st35{fill:#BBB6C5;}
	.st36{fill:#9C6D4D;}
	.st37{fill:#080605;}
	.st38{fill:#2A6031;}
	.st39{fill:#FEFAFC;}
	.st40{fill:#509AB3;}
	.st41{fill:#4F431E;}
	.st42{fill:#3D6832;}
	.st43{fill:#84B733;}
	.st44{fill:#1B2912;}
	.st45{fill:#806F68;}
	.st46{fill:#4A3332;}
	.st47{fill:#9BD7F0;}
	.st48{fill:#78484B;}
	.st49{fill:#A1D9F2;}
	.st50{fill:#523D38;}
	.st51{fill:#C1A09C;}
	.st52{fill:#65676D;}
	.st53{fill:#C7BBAC;}
	.st54{fill:#5E6166;}
	.st55{fill:#CA997D;}
	.st56{fill:#C6C2B6;}
	.st57{fill:#17151C;}
	.st58{fill:#5D5A5C;}
	.st59{fill:#030810;}
	.st60{fill:none;stroke:#040000;stroke-width:0;stroke-linecap:round;stroke-linejoin:round;}
	.st61{fill:#9F8D89;}
	.st62{fill:#EECFCD;}
	.st63{fill:#BACAE8;}
	.st64{fill:#370504;}
	.st65{fill:#212022;}
	.st66{fill:#EC6B5E;}
</style>
<g>
	<path class="st0" d="M3.31,19.15c0.02,0.16,0.05,0.31,0.09,0.47c-0.01-0.09-0.02-0.18-0.01-0.27C3.36,19.28,3.34,19.22,3.31,19.15z
		"/>
	<path class="st0" d="M7.43,24.74c0.04,0.07,0.07,0.14,0.11,0.2c0.04-0.02,0.07-0.04,0.11-0.07C7.58,24.84,7.51,24.79,7.43,24.74z"
		/>
	<path class="st0" d="M31.33,52.63c-0.01-0.02-0.02-0.04-0.03-0.06c0,0.02-0.01,0.04-0.01,0.07C31.3,52.64,31.31,52.64,31.33,52.63z
		"/>
	<path class="st0" d="M7.75,20.24c-0.02,0.01-0.05,0.01-0.08,0.02c-0.01,0.05,0,0.1-0.01,0.15C7.69,20.35,7.72,20.3,7.75,20.24z"/>
	<path class="st0" d="M5.19,21.97c-0.07-0.01-0.15-0.02-0.21-0.04c0.09,0.09,0.18,0.17,0.28,0.26C5.23,22.11,5.21,22.04,5.19,21.97z
		"/>
	<path class="st0" d="M9.45,17.53c0.01-0.25,0.07-0.47,0.15-0.67c-0.03,0.01-0.06,0.03-0.08,0.04c-0.39,0.67-0.77,1.34-1.14,2
		c0,0.01-0.01,0.01-0.01,0.02c0.01,0.02,0.01,0.04,0.02,0.07C8.67,18.45,8.98,17.92,9.45,17.53z"/>
	<path class="st0" d="M10.38,65.71c0,0.04,0,0.09,0,0.13c0.09,0.05,0.19,0.08,0.28,0.13C10.56,65.89,10.47,65.8,10.38,65.71z"/>
	<path class="st0" d="M22.08,102.63c0.02-0.01,0.04-0.02,0.06-0.03c0,0-0.01,0-0.01,0C22.11,102.61,22.1,102.62,22.08,102.63z"/>
	<path class="st0" d="M23.64,21.6c0.06-0.34,0.11-0.69,0.14-1.03c-0.27,0.5-0.59,0.93-0.97,1.28C23.11,21.79,23.4,21.71,23.64,21.6z
		"/>
	<path class="st0" d="M7.01,53.36c0,0.01,0,0.03,0,0.04c0.01,0,0.02,0,0.03,0C7.02,53.38,7.01,53.37,7.01,53.36z"/>
	<path class="st0" d="M14.53,12.16c0.04-0.16,0.08-0.32,0.11-0.48c0.05-0.23,0.12-0.47,0.14-0.71c0.02-0.14,0.02-0.29,0-0.44
		c-0.01-0.08-0.05-0.16-0.08-0.23c0.02-0.19,0.06-0.36,0.09-0.55c-0.33,0.3-0.65,0.6-0.97,0.91c-1.21,1.39-2.28,2.92-3.26,4.51
		c0.01-0.01,0.01-0.01,0.02-0.01c0.03,0,0.07,0,0.1,0c0.08-0.03,0.15-0.06,0.23-0.08c0.17-0.06,0.35-0.01,0.5,0.08
		c1.07,0.01,2.17,0.09,2.87,0.39c0.05-0.01,0.09-0.02,0.14-0.03C14.43,14.4,14.46,13.27,14.53,12.16z"/>
	<path class="st0" d="M16.9,6.65c0.02-0.07,0.05-0.14,0.07-0.21c-0.03,0.06-0.05,0.13-0.08,0.19C16.9,6.64,16.9,6.64,16.9,6.65z"/>
	<path class="st0" d="M16.14,12.05c-0.06-0.75-0.08-1.5-0.07-2.2c-0.1,0.7-0.17,1.42-0.22,2.17C15.95,12,16.05,12.02,16.14,12.05z"
		/>
	<path class="st0" d="M22.39,91.21c0-0.24,0.01-0.47,0.02-0.71c-0.03,0.01-0.06,0.03-0.1,0.03c-0.24,0.17-0.48,0.33-0.73,0.48
		c0.27,0.04,0.51,0.12,0.74,0.25C22.35,91.25,22.37,91.24,22.39,91.21z"/>
	<path class="st0" d="M25.26,17.04c-0.09,0.12-0.18,0.23-0.28,0.35c0.03,0.06,0.05,0.13,0.06,0.2
		C25.11,17.41,25.18,17.23,25.26,17.04z"/>
	<polygon class="st0" points="15.72,15.13 15.72,15.13 15.72,15.12 	"/>
	<path class="st0" d="M20.66,3.22c0.01,0.06,0.01,0.12,0.01,0.19c0.07-0.08,0.14-0.16,0.2-0.23C20.8,3.2,20.73,3.2,20.66,3.22z"/>
	<path class="st0" d="M30.28,22.06c0.03,0,0.05,0,0.08,0c-0.01-0.16-0.02-0.31-0.03-0.47C30.31,21.75,30.3,21.9,30.28,22.06z"/>
	<path class="st0" d="M17.92,7.82c0.21-0.07,0.43-0.09,0.65-0.09c-0.13-0.3-0.24-0.63-0.33-0.98C18.12,7.1,18.01,7.46,17.92,7.82z"
		/>
	<path class="st0" d="M19.91,3.92c-0.12-0.03-0.24-0.08-0.36-0.19c-0.03,0-0.05,0-0.08,0c-0.14,0.08-0.27,0.14-0.41,0.23
		c0.22,0.18,0.33,0.52,0.17,0.78c0.03,0.11,0.04,0.23,0.01,0.37c0,0.06,0.01,0.11,0.02,0.16C19.31,4.76,19.5,4.28,19.91,3.92z"/>
	<path class="st0" d="M25.59,14.79c-0.06,0.17-0.14,0.34-0.25,0.51c0,0.01-0.01,0.03-0.01,0.05c0.13-0.01,0.27,0.02,0.42,0.1
		c-0.01-0.06-0.02-0.12-0.03-0.18C25.67,15.11,25.64,14.94,25.59,14.79z"/>
	<path class="st0" d="M36.54,32.52c0.07-0.04,0.15-0.06,0.22-0.1c-0.04-0.11-0.08-0.22-0.12-0.33
		C36.61,32.23,36.58,32.38,36.54,32.52z"/>
	<path class="st0" d="M25.48,33.94c-0.14,0.06-0.27,0.11-0.41,0.15c-0.01,0.11-0.01,0.22-0.03,0.32
		C25.17,34.25,25.32,34.09,25.48,33.94z"/>
	<path class="st0" d="M30.43,41.75c0.33-0.22,0.66-0.45,0.98-0.68c0.03-0.09,0.06-0.18,0.08-0.28c0.09-0.73,0.09-1.47,0.06-2.22
		c-0.17,0.49-0.43,0.95-0.7,1.34C30.72,40.52,30.63,41.16,30.43,41.75z"/>
	<path class="st0" d="M31.53,36.08c0,0.01,0,0.01,0.01,0.02c0.01-0.09,0.01-0.17,0.01-0.26c0-0.01,0-0.02,0-0.04
		c-0.01,0-0.01,0-0.02,0C31.54,35.89,31.53,35.99,31.53,36.08z"/>
	<path class="st0" d="M18.58,55.61c-0.11,0-0.23-0.01-0.34-0.02c0.01,0.1,0.01,0.21,0.02,0.31C18.35,55.8,18.46,55.7,18.58,55.61z"
		/>
	<path class="st0" d="M23.81,94.25c0.04-0.04,0.07-0.09,0.11-0.13c-0.04-0.02-0.08-0.04-0.11-0.06
		C23.8,94.12,23.8,94.19,23.81,94.25z"/>
	<path class="st0" d="M33.31,58.8c-0.03,0.19-0.07,0.39-0.11,0.59c0.04-0.01,0.08-0.02,0.11-0.03c0.61-0.34,0.21-1.29,0.17-1.79
		c-0.01-0.05-0.03-0.1-0.04-0.16C33.45,57.87,33.42,58.33,33.31,58.8z"/>
	<path class="st0" d="M19.99,90.47c0.08-0.04,0.15-0.08,0.23-0.11c-0.09-0.03-0.17-0.06-0.26-0.11
		C19.97,90.32,19.98,90.39,19.99,90.47z"/>
	<path class="st45" d="M13.12,21.54c0.28-0.32,0.76-0.54,1.11-0.18c0.05,0.06,0.08,0.13,0.1,0.19c0.03-0.73,0.05-1.49,0.06-2.28
		c-0.04-0.71-0.08-1.42-0.09-2.14c0-0.07,0.02-0.14,0.02-0.21c-0.2,0.04-0.41,0.08-0.61,0.13c0.01-0.09,0.02-0.17,0.03-0.26
		c-0.91-0.22-1.84-0.32-2.78-0.36c-0.45,0.17-0.99,0.28-1.36,0.44c-0.08,0.2-0.13,0.42-0.15,0.67C8.98,17.92,8.67,18.45,8.39,19
		c0.11,0.28,0.04,0.61-0.27,0.76c-0.06,0.22-0.15,0.41-0.36,0.49c-0.03,0.05-0.06,0.11-0.09,0.16c-0.07,0.38-0.27,0.72-0.53,0.99
		c-0.03,0.09-0.07,0.19-0.11,0.28c-0.08,0.31-0.19,0.73-0.34,1.12c0.17,0.69,0.39,1.35,0.74,1.95c0.08,0.05,0.15,0.1,0.22,0.14
		C9.48,23.78,11.38,22.79,13.12,21.54z M10.2,23.12c-0.02,0.17-0.11,0.33-0.29,0.41C10.01,23.4,10.1,23.26,10.2,23.12z"/>
	<path class="st45" d="M30.28,22.06c-0.09,0.68-0.21,1.35-0.36,2.02c0.21,0.16,0.38,0.35,0.51,0.56c0.01-0.8-0.02-1.67-0.07-2.58
		C30.33,22.06,30.3,22.06,30.28,22.06z"/>
	<path class="st45" d="M16.89,30.68c0-0.01,0-0.02,0-0.03c0,0.01-0.01,0.02-0.01,0.02C16.89,30.68,16.89,30.68,16.89,30.68z"/>
	<path class="st45" d="M8.08,36.1c-0.12,0.52-0.22,1.05-0.31,1.56c0-0.01,0-0.01,0-0.02C7.87,37.12,7.97,36.61,8.08,36.1z"/>
	<path class="st45" d="M11.36,53.53c0.39-0.05,0.78-0.01,1.14,0.14c1.29,0.18,2.57,0.38,3.86,0.5c-0.09-0.32-0.14-0.73-0.13-1.26
		c-0.12-0.21-0.08-0.46-0.09-0.69c0-0.12,0.03-0.22,0.09-0.31c-0.03-0.79-0.1-1.6-0.04-2.37c-0.04-0.01-0.08-0.03-0.13-0.03
		c-0.26,0.02-0.51,0.03-0.77-0.05c-2.1-0.42-3.73-5.14-1.04-5.33c0.46-0.26,1-0.33,1.52-0.23c0.01-2.7,0.08-5.39,0.16-8.09
		c-0.16-0.45-0.01-0.94,0.07-1.42c-0.03-0.6-0.05-1.19-0.08-1.79c-0.04,0.04-0.07,0.08-0.11,0.11c-0.52,0.58-1.2,0.85-2.09,0.52
		c-0.14-0.04-0.23-0.11-0.3-0.2c-0.14-0.07-0.27-0.17-0.39-0.28c-0.6,0.05-1.2,0.02-1.72-0.26c-1.14-0.88,0.39-1.87,0.82-2.69
		c0.09-0.12,0.17-0.25,0.25-0.38c-0.37-0.57,0.48-1.3,0.7-1.88c0.45-0.96,0.71-2.08,0.93-3.11c0.14-0.69,0.22-1.47,0.27-2.32
		c-0.08,0.15-0.21,0.3-0.36,0.44c0.18,0.25,0.2,0.59-0.2,0.84c-4.55,9.28-6,19.72-6.72,29.92c0.01,0.01,0.02,0.02,0.02,0.04
		C8.48,53.26,9.92,53.36,11.36,53.53z"/>
	<path class="st45" d="M30.16,48.91c-0.05-0.5-0.07-1.01,0-1.47c-2.87,0.75-5.84,1.11-8.8,1.2c-1.32,0.29-2.64,0.82-3.96,0.93
		c0.02,0.18,0,0.37,0.01,0.54c0.41,0.25,0.27,0.8,0.3,1.2c0.49,0.19,0.33,0.9,0.31,1.25C18.01,52.79,18,53,17.98,53.21
		c0.23,0.17,0.37,0.47,0.32,0.74c4.35,0.44,8.76-0.27,12.97-1.31c0.01-0.02,0.01-0.04,0.01-0.07c-0.61-0.89-0.96-1.93-1.35-2.93
		C29.84,49.38,29.93,49.08,30.16,48.91z"/>
	<path class="st45" d="M6.34,44.21c-0.2,1.13-0.61,2.49-0.15,3.58c0.24-2.17,0.53-4.34,0.89-6.49C6.7,42.21,6.59,43.26,6.34,44.21z"
		/>
	<path class="st45" d="M31.93,22.7c-0.09,0-0.18-0.05-0.26-0.09c0.08,1.72,0.07,3.29-0.01,4.6c-0.25,1.76-0.96,3.53-2.55,4.42
		c0.02,0.24-0.09,0.47-0.3,0.61c-0.97,0.55-1.94,1.42-3.06,1.56c-0.09,0.05-0.18,0.1-0.27,0.14c-0.16,0.16-0.3,0.32-0.45,0.47
		c0.02-0.11,0.02-0.21,0.03-0.32c-0.46,0.13-0.91,0.14-1.17-0.06c-3.49-1.94-1.8-7.22-0.9-10.28c0.09-0.2,0.17-0.4,0.25-0.6
		c-0.7,0.16-1.41,0.2-1.77,0.1c-0.82-0.05-1.88-0.23-2.8-0.61c0,0.87-0.05,1.74-0.2,2.63c0.15,1.3-0.27,2.57-0.38,3.86
		c-0.03,0.43-0.01,0.85,0.02,1.25c0.12,0.09,0.21,0.23,0.22,0.39c-0.07,4.23-0.11,8.47-0.12,12.7c-0.07,0.33-0.01,0.79,0,1.23
		c0.45-0.02,0.9-0.05,1.35-0.09c2.99-0.67,6.09-0.87,9.03-1.71c0.63-0.34,1.24-0.72,1.83-1.13c0.2-0.59,0.29-1.23,0.42-1.83
		c0.28-0.39,0.53-0.85,0.7-1.34c-0.03-0.83-0.07-1.66-0.02-2.49c0-0.01,0-0.01-0.01-0.02c0-0.09,0.01-0.18,0-0.28
		c0.01,0,0.01,0,0.02,0c0.01-0.3,0.09-0.63,0.34-0.8c0,0,0,0,0,0c-0.47,0.04-0.89-0.04-1.02-0.58c-0.01-0.7,0.69-0.86,1.46-0.91
		c0.47-0.62,1.25-1.02,2.04-0.87c0.36,0.06,0.64,0.19,0.89,0.35c0.1-0.09,0.24-0.16,0.41-0.16c0.03,0,0.05,0.02,0.07,0.02
		c0.27-0.09,0.53-0.2,0.78-0.32c0.04-0.14,0.08-0.29,0.1-0.43C35.45,28.77,34.24,25.39,31.93,22.7z"/>
	<path class="st45" d="M12.32,23.61c-0.2,0.12-0.38,0.22-0.51,0.32c-0.04,0.02-0.08,0.05-0.12,0.07c-0.03,0.37-0.05,0.75-0.09,1.12
		C11.84,24.61,12.07,24.11,12.32,23.61z"/>
	<path class="st46" d="M9.07,62.75c0-0.45,0.01-0.9,0.02-1.35C9.06,61.85,9.05,62.31,9.07,62.75z"/>
	<path class="st46" d="M9.82,54.87c0.02-0.05,0.05-0.09,0.07-0.14c-0.06-0.01-0.11-0.01-0.17-0.02c-0.62,1.18-0.52,2.63-0.55,3.98
		c0.07-1.04,0.1-2.1,0.5-3.03C9.72,55.4,9.76,55.14,9.82,54.87z"/>
	<path class="st46" d="M9.15,59.38c0,0.01,0,0.02,0,0.03c0.01-0.12,0.01-0.24,0.01-0.35C9.16,59.16,9.15,59.27,9.15,59.38z"/>
	<path class="st46" d="M11.36,53.53c0.38,0.04,0.76,0.09,1.14,0.14C12.14,53.52,11.74,53.48,11.36,53.53z"/>
	<path class="st47" d="M26.87,70.41c0.09-0.05,0.18-0.1,0.27-0.16c-0.07,0-0.15-0.01-0.22-0.01C26.9,70.29,26.89,70.35,26.87,70.41z
		"/>
	<path class="st47" d="M11.56,66.37c0.16-0.6,1.07-0.8,1.21,0.09c0.02,0.02,0.03,0.04,0.04,0.06c0.32-0.09,0.7,0.09,0.75,0.45
		c0.02,0.05,0.04,0.1,0.06,0.15c0.4,0.12,0.8,0.24,1.21,0.34c0.72-0.24,1.56-0.13,2.1,0.47c0.52,0.1,1.05,0.18,1.57,0.26
		c0.24-0.31,0.63-0.27,0.88-0.07c0.03-0.01,0.06-0.03,0.09-0.04c0.28-0.08,0.59,0.08,0.71,0.33c0.33,0.04,0.66,0.07,0.99,0.1
		c0.27-0.21,0.61-0.37,1.03-0.43c0.58-0.07,1.12,0.06,1.57,0.39c0.26,0.07,0.48,0.17,0.7,0.28c0.19,0.01,0.39,0.02,0.58,0.03
		c0.04-0.03,0.06-0.06,0.11-0.08c0.26-0.15,0.55-0.06,0.72,0.13c0.75,0.04,1.5,0.07,2.24,0.12c0.02-0.81,0.04-1.62,0.06-2.43
		c-0.31,0.19-0.66,0.31-1.03,0.31c-0.32,0-0.65-0.09-0.97-0.28c-0.25-0.14-0.43-0.33-0.59-0.54c-0.73-0.16-1.19-0.88-1.96-0.85
		c-0.29,0-0.59,0.01-0.89,0.03c-1.25,0.07-2.56,0.14-3.11-1.25c-0.26-0.61-0.19-1.3,0.1-1.87c-1.89-0.1-1.94-0.59-2.48-4.04
		c-0.07-0.42-0.13-0.85-0.18-1.27c-0.04-0.22-0.08-0.48-0.07-0.73c-0.01-0.16-0.03-0.32-0.04-0.48c-1.81-0.11-3.62-0.28-5.43-0.58
		c-0.05,0.19-0.17,0.37-0.31,0.52c-0.7,0.91-0.7,2.27-0.77,3.3c-0.1,2.32-0.08,4.62-0.09,6.94c0.09,0.09,0.18,0.18,0.28,0.26
		C10.96,66.11,11.26,66.24,11.56,66.37z"/>
	<path class="st47" d="M9.68,55.67c0.13-0.31,0.3-0.6,0.52-0.87c0.01-0.01,0.01-0.02,0.02-0.03c-0.11-0.01-0.22-0.02-0.33-0.03
		c-0.02,0.05-0.05,0.09-0.07,0.14C9.76,55.14,9.72,55.4,9.68,55.67z"/>
	<path class="st48" d="M33.44,57.4c-0.32-1.24-0.72-2.46-1.16-3.67c-1.13,0.5-2.44,0.57-3.63,0.92c-1.6,0.34-3.22,0.56-4.85,0.68
		c-0.11,0.25-0.35,0.43-0.63,0.42c-1.53-0.04-3.06-0.07-4.59-0.14c-0.12,0.09-0.22,0.19-0.32,0.3c0.09,0.87,0.23,1.73,0.39,2.58
		c0.13,0.54,0.28,1.08,0.47,1.62c0.13,0.2,0.35,0.37,0.51,0.55c0.99,0.05,1.99,0.09,2.99,0.1c0.46-0.04,0.91-0.05,1.37-0.01
		c1.41-0.02,2.82-0.1,4.21-0.27c0.15-0.38,0.7-0.58,1.03-0.23c0.02,0.02,0.03,0.05,0.05,0.07c1.34-0.21,2.65-0.51,3.93-0.94
		c0.04-0.2,0.08-0.39,0.11-0.59C33.42,58.33,33.45,57.87,33.44,57.4z"/>
	<path class="st48" d="M28.22,62.62c0-0.26-0.01-0.52-0.02-0.79c-0.37,0.04-0.75,0.08-1.12,0.11C27.5,62.08,27.89,62.31,28.22,62.62
		z"/>
	<path class="st49" d="M19.63,63.91c0.55,1.39,1.87,1.32,3.11,1.25c0.3-0.02,0.61-0.04,0.89-0.03c0.77-0.03,1.23,0.68,1.96,0.85
		c0.16,0.21,0.34,0.4,0.59,0.54c0.32,0.2,0.65,0.28,0.97,0.28c0.37,0,0.72-0.12,1.03-0.31c0.03-1.29,0.04-2.58,0.02-3.87
		c-0.33-0.31-0.72-0.54-1.14-0.67c-1.59,0.14-3.19,0.18-4.78,0.15c-1.11-0.04-1.93-0.03-2.56-0.06
		C19.44,62.61,19.38,63.29,19.63,63.91z"/>
	<path class="st49" d="M22.62,60.76c0.46,0,0.91,0,1.37-0.01C23.53,60.72,23.07,60.73,22.62,60.76z"/>
	<path class="st50" d="M25.72,15.27c0.01,0.06,0.02,0.12,0.03,0.18c0.01,0.01,0.02,0.01,0.03,0.02c0.01-0.03,0.01-0.06,0.02-0.09
		c-0.05-0.23-0.11-0.45-0.19-0.66c-0.01,0.02-0.01,0.05-0.01,0.07C25.64,14.94,25.67,15.11,25.72,15.27z"/>
	<path class="st50" d="M26.84,31.97c0.06-0.03,0.13-0.06,0.19-0.1c-0.01-0.02-0.02-0.03-0.03-0.04c-0.23-0.59,0.25-0.83,0.73-1.02
		c-0.09-0.09-0.15-0.2-0.19-0.32c0.01,0.04,0.03,0.07,0.05,0.1c-0.03-0.05-0.03-0.1-0.05-0.15c-0.05,0-0.09,0.01-0.15-0.01
		c-0.12-0.07-0.2-0.15-0.26-0.24c-0.19,0.59-0.38,1.18-0.57,1.77C26.67,31.95,26.76,31.95,26.84,31.97z"/>
	<path class="st50" d="M29.5,29.53c0.07-0.1,0.15-0.19,0.21-0.29C29.64,29.32,29.57,29.42,29.5,29.53z"/>
	<path class="st50" d="M29.91,24.08c0.16-0.67,0.27-1.34,0.36-2.02c0.02-0.16,0.03-0.32,0.05-0.47c-0.58-8.25-3.7-19.7-9.46-18.41
		c-0.07,0.07-0.14,0.14-0.2,0.23c-0.05,0.33-0.39,0.6-0.76,0.52c-0.41,0.36-0.6,0.84-0.65,1.36c0.31,4.41,4.63,4.49,6.85,7.49
		c0.19,0.31,0.53,0.88,0.76,1.45c0.04,0.02,0.08,0.03,0.12,0.05c0.27,0.13,0.43,0.42,0.34,0.72c-0.04,0.13-0.12,0.24-0.23,0.32
		c-0.01,0.16-0.06,0.3-0.14,0.41c-0.29,1.13-0.92,3.68-1.83,3.51c0.01,0.69-0.05,1.36-0.17,2.02c0.02,0.02,0.05,0.03,0.07,0.06
		c0.32,0.51,0.1,0.94-0.37,1.26c-0.34,1.29-0.78,2.56-1.15,3.9c-0.19,2.1-1.25,5.05,0.93,6.38c0.08,0.07,0.32,0.02,0.35-0.01
		c0.01-0.01,0.02-0.01,0.03-0.02c-0.03,0-0.05,0.01-0.08,0.01c-0.94-0.22-0.35-1.37-0.24-2c0.44-1.67,0.81-3.45,1.18-5.09
		c0.28-1,1.79-0.32,1.12,0.52c-0.17,0.91-0.38,1.83-0.59,2.75c0.36-1.13,0.7-2.27,0.91-3.44c0.31-1,1.53-0.43,1.13,0.58
		c-0.04,0.21-0.1,0.41-0.15,0.62c0.16-0.38,0.38-0.67,0.84-0.6c0.98,0.4,0.02,1.57-0.13,2.25c-0.01,0.02-0.02,0.04-0.03,0.05
		c0.19-0.15,0.41-0.22,0.7-0.08c0.2,0.12,0.32,0.37,0.3,0.6c0.05-0.11,0.1-0.22,0.13-0.35c0.3-0.88,0.46-2.28,0.48-3.99
		C30.3,24.43,30.13,24.23,29.91,24.08z"/>
	<path class="st50" d="M18.24,20.77c-0.05-0.1-0.1-0.19-0.13-0.29c-0.14-0.83-0.19-1.79,0.04-2.64c-0.35-0.35-0.65-0.77-0.9-1.24
		c0.17,0.95,0.33,1.91,0.46,2.87c0.25,0.16,0.39,0.46,0.15,0.84C17.96,20.47,18.1,20.62,18.24,20.77z"/>
	<path class="st50" d="M18.67,22.62c-0.24-0.1-0.46-0.21-0.67-0.34c0.04,0.63,0.05,1.27,0.04,1.91c0.3,0.12,0.45,0.45,0.4,0.78
		c0.02,0.09,0.02,0.19,0.03,0.28C18.61,24.36,18.67,23.49,18.67,22.62z"/>
	<path class="st50" d="M15.92,32.62c0-0.01,0-0.01,0-0.02c-0.04,0.04-0.07,0.09-0.11,0.13C15.86,32.7,15.89,32.66,15.92,32.62z"/>
	<path class="st50" d="M15.99,16.55c-0.09,0.02-0.19,0.04-0.28,0.06c-0.02,3.63,0,7.25-0.79,9.91c0.47,0.03,0.97,0.25,0.9,0.77
		c-0.06,0.45-0.54,0.61-0.94,0.48c0,0,0,0,0,0c-0.87,1.17-1.4,2.57-2.35,3.69c0.79,0,1.56-0.1,2.25-0.25
		c0.15-0.05,0.31-0.06,0.47-0.05c0.27-0.61,0.46-1.36,0.61-1.69C17.25,25.25,16.76,20.84,15.99,16.55z"/>
	<path class="st50" d="M14.39,19.27c0.01-0.77,0.01-1.55,0.02-2.36c-0.02,0-0.03,0.01-0.04,0.01c-0.01,0-0.02,0-0.03,0
		c0,0-0.01,0-0.01,0c-0.01,0.07-0.02,0.13-0.02,0.21C14.31,17.85,14.35,18.56,14.39,19.27z"/>
	<path class="st50" d="M13.28,32.76c-0.08,0.01-0.17,0.02-0.25,0.02c0.12,0.11,0.25,0.21,0.39,0.28
		C13.35,32.97,13.3,32.87,13.28,32.76z"/>
	<path class="st51" d="M17.92,7.82C17.9,7.88,17.88,7.94,17.87,8c-0.06,0.24-0.27,0.4-0.49,0.44c0.01,1.17-0.05,2.34,0.01,3.51
		c0.19,2.01,0.7,4.71,2.67,5.67c1.07,0.1,2.16,0.33,3.05-0.27c0.74-0.32,1.4-1.93,2.21-2.01c0-0.02,0.01-0.03,0.01-0.05
		c0.11-0.16,0.2-0.33,0.25-0.51c0.01-0.02,0.01-0.05,0.01-0.07c-1.22-3.48-5.49-3.49-7.03-6.99C18.35,7.73,18.13,7.75,17.92,7.82z"
		/>
	<path class="st51" d="M18.11,20.48c0.04,0.1,0.08,0.19,0.13,0.29c1.03,1.03,3.07,1.36,4.56,1.08c0.39-0.35,0.71-0.78,0.97-1.28
		c0.06-0.72,0.07-1.44,0.05-2.17c-0.71,0.47-1.54,0.74-2.46,0.62c-1.41,0.06-2.45-0.41-3.23-1.18
		C17.92,18.68,17.97,19.64,18.11,20.48z"/>
	<path class="st51" d="M4.98,21.1c0.06,0.04,0.12,0.07,0.19,0.08c0.02,0,0.05,0.01,0.07,0.01c0.22,0,0.41-0.16,0.45-0.38
		c0.06-0.32,0.11-0.64,0.18-0.96c0.19,0.08,0.34,0.24,0.37,0.44c0.07-0.16,0.14-0.33,0.22-0.48c0.16-0.34,0.33-0.75,0.62-0.99
		c0.07-0.19,0.15-0.37,0.23-0.54c0.24-0.44,0.49-0.88,0.73-1.31c-0.05-0.08-0.09-0.17-0.1-0.26c-0.04-0.21,0.07-0.45,0.23-0.57
		c0.15-0.11,0.31-0.17,0.48-0.23c1.55-2.65,3.27-5.2,5.43-7.4c-0.02-0.04-0.02-0.09-0.04-0.13c0.05-0.01,0.11-0.01,0.17-0.01
		c0.01-0.01,0.02-0.02,0.03-0.03c0.36-0.37,0.67-0.75,0.97-1.12c0.06-0.12,0.11-0.24,0.17-0.37c-0.07-0.03-0.13-0.06-0.19-0.08
		c-0.41-0.11-0.83-0.31-1.22-0.5c-0.04,0.32-0.33,0.51-0.63,0.51c-0.04,0-0.08-0.01-0.12-0.02c0.09,0.49-0.56,0.83-0.9,1.14
		C12.2,8,12.07,8.11,11.94,8.22c-0.22,0.15-0.44,0.32-0.66,0.48c-0.33,0.25-0.67,0.49-1.01,0.75c-0.02,0.02-0.04,0.03-0.06,0.05
		c0,0,0,0,0,0C10.2,9.5,10.2,9.51,10.19,9.51c-0.82,0.62-1.57,1.34-2.3,2.05c-0.73,0.7-1.44,1.42-2.15,2.14
		c-0.17,0.17-0.33,0.34-0.49,0.51c-0.23,0.25-0.45,0.51-0.65,0.8c-0.17,0.24-0.37,0.52-0.53,0.82c-0.02-0.04-0.03-0.08-0.05-0.11
		c-0.38,0.49-0.7,1.01-0.8,1.61c0.02,0.63,0.03,1.23,0.11,1.82c0.02,0.07,0.04,0.13,0.07,0.2c0,0.09,0.01,0.18,0.01,0.27
		c0.05,0.19,0.1,0.38,0.17,0.57c0.17,0.33,0.38,0.63,0.61,0.9c0-0.01,0-0.01,0-0.02c0.08,0.06,0.17,0.11,0.26,0.16
		c-0.02,0.03-0.03,0.07-0.05,0.1c0.19,0.2,0.38,0.4,0.58,0.59c0.07,0.02,0.14,0.03,0.21,0.04C5.1,21.68,5.02,21.39,4.98,21.1z"/>
	<path class="st51" d="M11.9,6.6c-0.17,0.16-0.34,0.31-0.51,0.46c0.18-0.16,0.36-0.31,0.53-0.47C11.91,6.6,11.91,6.6,11.9,6.6z"/>
	<path class="st51" d="M3.55,14.32c0.53-0.66,1.1-1.3,1.71-1.91C4.56,12.99,3.87,13.6,3.55,14.32z"/>
	<path class="st51" d="M14.81,9.64c-0.03,0-0.07,0-0.1,0c-0.22,0.23-0.41,0.42-0.5,0.57c-0.14,0.15-0.25,0.31-0.38,0.47
		c0.32-0.31,0.64-0.61,0.97-0.91C14.8,9.72,14.8,9.68,14.81,9.64z"/>
	<path class="st51" d="M7.66,20.4c0.01-0.05,0-0.1,0.01-0.15c-0.02,0-0.04,0.01-0.06,0.01c-0.17,0.37-0.33,0.75-0.48,1.12
		C7.4,21.12,7.59,20.79,7.66,20.4z"/>
	<path class="st51" d="M36.5,37.37c0.09-1.01,0.11-2.24-0.27-3.2c0.04,1.45,0.13,2.9,0.16,4.36C36.42,38.13,36.46,37.75,36.5,37.37z
		"/>
	<path class="st51" d="M31.47,41.04c0.01-0.08,0.02-0.16,0.03-0.24c-0.03,0.09-0.05,0.18-0.08,0.28
		C31.43,41.06,31.45,41.05,31.47,41.04z"/>
	<path class="st51" d="M14.26,44.14c0.15-0.01,0.31-0.01,0.49,0c0.35-0.01,0.69,0.06,1.03,0.15c0-0.13,0-0.25,0-0.38
		C15.26,43.81,14.72,43.88,14.26,44.14z"/>
	<path class="st51" d="M16.2,49.5c-0.04,0.01-0.09,0.01-0.13,0.01c0.04,0.01,0.08,0.03,0.13,0.03C16.2,49.53,16.2,49.52,16.2,49.5z"
		/>
	<path class="st51" d="M19.34,48.65c-0.28-0.04-0.67-0.01-1.02-0.03c-0.08,0.37-0.53,0.59-0.88,0.62c-0.05,0.01-0.1,0.02-0.15,0.04
		c0.06,0.09,0.09,0.19,0.11,0.29c1.32-0.12,2.65-0.64,3.96-0.93C20.69,48.65,20.01,48.66,19.34,48.65z"/>
	<path class="st51" d="M22.93,44.24c1.79-0.31,3.68-0.44,5.33-1.18c0.11-0.06,0.22-0.12,0.34-0.18c-2.94,0.84-6.04,1.04-9.03,1.71
		C20.7,44.47,21.82,44.3,22.93,44.24z"/>
	<path class="st51" d="M32.34,33.5c0.68-0.04,1.43-0.01,1.8-0.17c0.36-0.11,0.73-0.21,1.1-0.32c0.01-0.01,0.02-0.02,0.03-0.03
		c-0.25-0.16-0.54-0.29-0.89-0.35C33.59,32.47,32.81,32.88,32.34,33.5z"/>
	<path class="st51" d="M17.72,46.05c-0.18,0.22-0.48,0.36-0.8,0.25c-0.2-0.06-0.35-0.22-0.45-0.4c-0.72-0.31-1.5-0.42-2.23-0.43
		c0,0,0,0,0,0.01c-0.18,1.02,0.43,2.28,1.4,2.7c0.51,0.14,1.18-0.22,1.74-0.31c0.02-0.34,0.31-0.65,0.66-0.63
		c0.86,0.05,1.72,0.08,2.58,0.06c4.73-0.08,9.41-0.75,13.69-2.71c0.55-0.52,0.67-1.41,0.77-2.09c0.09-2.66,0-5.33-0.09-7.99
		c-0.49,0.14-0.98,0.23-1.48,0.29c-0.16,0.42-0.16,1-0.65,1.05c-0.02,0.03-0.03,0.05-0.06,0.08c-0.05,1.53,0.08,3.19,0.04,4.7
		c-0.01,0.64-0.21,1.32-0.83,1.62c-2.6,2.24-6.04,3.11-9.36,3.37C21.01,45.69,19.35,46.09,17.72,46.05z"/>
	<polygon class="st51" points="31.9,34.99 31.9,34.99 31.9,34.99 	"/>
	<path class="st51" d="M25.07,77.47c0.1-0.33,0.19-0.66,0.29-0.99c-0.03-0.01-0.07-0.01-0.1-0.02
		C25.19,76.8,25.14,77.14,25.07,77.47z"/>
	<path class="st51" d="M24.67,70.65c0.03-0.16,0.03-0.35,0.03-0.54c-1.72-0.1-3.46-0.21-5.18-0.4c-0.07,2.12,0.34,4.2,0.73,6.27
		c-0.17,0.17-0.32,0.36-0.45,0.53c-0.16,0.22-0.32,0.45-0.48,0.68c-0.02,1.74-0.01,3.47,0.04,5.2c0.25,0.73,0.5,1.47,0.75,2.21
		c0.1,0.29-0.09,0.63-0.36,0.74c-0.08,0.04-0.17,0.05-0.26,0.04c0.03,0.44,0.06,0.88,0.1,1.31c0.06,0.15,0.11,0.31,0.17,0.46
		c0.08,0.2,0.04,0.42-0.07,0.58c0.08,0.84,0.18,1.68,0.28,2.52c0.08,0.04,0.17,0.08,0.26,0.11c0.36-0.17,0.72-0.35,1.01-0.61
		c0.31-0.3,0.85-0.54,1.23-0.41c0.13-2.46,0.43-4.92,0.71-7.33c0.01-0.07,0.02-0.14,0.03-0.22c-0.01-0.23-0.02-0.46-0.03-0.69
		c-0.04-0.43,0.03-0.91,0.27-1.2c0.28-2.13,0.61-4.34,1.16-6.44C24.62,72.51,24.65,71.58,24.67,70.65z M20.24,84.18
		C20.24,84.18,20.23,84.17,20.24,84.18C20.23,84.17,20.23,84.17,20.24,84.18C20.23,84.17,20.23,84.17,20.24,84.18
		C20.24,84.17,20.24,84.18,20.24,84.18z"/>
	<path class="st51" d="M25.81,74.87c0.11-0.39,0.22-0.77,0.32-1.16c0.19-0.62,0.29-1.23,0.29-1.81c-0.21,0.72-0.41,1.45-0.6,2.18
		C25.82,74.35,25.82,74.61,25.81,74.87z"/>
	<path class="st51" d="M22.22,68.06c-0.42,0.06-0.76,0.22-1.03,0.43c1.1,0.1,2.2,0.17,3.3,0.23c-0.22-0.1-0.44-0.2-0.7-0.28
		C23.33,68.13,22.79,67.99,22.22,68.06z"/>
	<path class="st51" d="M17.02,79.48c0.04,0.21,0.06,0.4,0.06,0.6c0.07,0.02,0.14,0.02,0.21,0.02c-0.13-0.39-0.26-0.78-0.39-1.17
		C16.93,79.11,16.98,79.3,17.02,79.48z"/>
	<path class="st51" d="M14.5,72.97c0.12,0.03,0.23,0.1,0.32,0.19c-0.28-0.67-0.57-1.33-0.85-2C14.15,71.77,14.33,72.37,14.5,72.97z"
		/>
	<path class="st51" d="M15.04,73.82c0.06,0.12,0.11,0.25,0.17,0.37c-0.06-0.15-0.11-0.3-0.17-0.45
		C15.04,73.76,15.04,73.79,15.04,73.82z"/>
	<path class="st51" d="M14.83,67.46c0.7,0.18,1.4,0.34,2.1,0.47C16.39,67.33,15.55,67.22,14.83,67.46z"/>
	<path class="st51" d="M17.51,76.9c0.24,0.1,0.42,0.33,0.42,0.6c0,0.11-0.04,0.21-0.09,0.3c0.08,0.23,0.16,0.47,0.24,0.7
		c0.02-2.79-0.02-5.61,0.19-8.38c0-0.18-0.02-0.36-0.01-0.55c0-0.01,0-0.02,0.01-0.04c-1.1-0.15-2.19-0.35-3.26-0.61
		c-0.18-0.09-0.36-0.17-0.54-0.25c-0.08-0.03-0.15-0.07-0.23-0.11C15.39,71.32,16.49,74.09,17.51,76.9z"/>
	<path class="st51" d="M25.46,86.25c0.08,0.38,0.17,0.76,0.27,1.13c0.24,0.86,0.5,1.71,0.78,2.55c0,0.01,0.01,0.01,0.01,0.02
		c-0.28-0.85-0.54-1.71-0.79-2.57c-0.12-0.45-0.22-0.91-0.32-1.36c-0.03-0.13-0.06-0.27-0.09-0.41c-0.02-0.08-0.05-0.16-0.07-0.25
		c-0.06-0.2-0.11-0.4-0.16-0.6c-0.03-0.14-0.06-0.3-0.07-0.45c-0.04-0.16-0.07-0.31-0.09-0.48c-0.02-0.1-0.02-0.2,0-0.3
		c-0.11-0.37-0.2-0.73-0.21-1.12c0-0.11-0.01-0.22-0.01-0.33c-0.1-0.05-0.2-0.07-0.31-0.1c0.07,1.43,0.33,2.82,0.71,4.17
		C25.25,86.18,25.36,86.21,25.46,86.25z"/>
	<path class="st51" d="M23.78,93.3c0.01,0.26,0.02,0.51,0.03,0.76c0.03,0.02,0.08,0.04,0.11,0.06c0.07-0.08,0.14-0.15,0.21-0.22
		c0.02-0.02,0.04-0.05,0.06-0.07C24.02,93.68,23.88,93.5,23.78,93.3z"/>
	<path class="st52" d="M22.65,96.59c0.03-0.01,0.06-0.02,0.09-0.04c-0.14-0.85-0.22-1.71-0.27-2.57c-0.09-0.75-0.18-1.51-0.26-2.26
		c-0.01-0.16,0.03-0.32,0.12-0.45c-0.22-0.13-0.47-0.22-0.74-0.25c-0.43,0.28-0.88,0.54-1.35,0.75c-0.02,0.04-0.05,0.07-0.08,0.11
		c0.2,1.55,0.39,3.1,0.56,4.67C21.29,96.3,21.95,96.28,22.65,96.59z"/>
	<path class="st52" d="M22.95,101.19c-0.76,1.59-2.43,1.94-3.83,2.68c1-0.41,2.01-0.78,2.96-1.24c0.01-0.01,0.03-0.02,0.05-0.03
		c0,0,0.01,0,0.01,0c0.6-0.3,1.18-0.64,1.7-1.06c0.09-0.15,0.13-0.34,0.16-0.55C23.65,101.07,23.3,101.14,22.95,101.19z"/>
	<path class="st52" d="M9.88,104.32c-0.03-0.41,0.03-0.8,0.16-1.17c-0.19,0.2-0.37,0.42-0.5,0.71c-0.29,0.9-0.36,1.55-0.26,2.02
		C9.28,105.32,9.46,104.75,9.88,104.32z"/>
	<path class="st52" d="M18.4,98.45c-0.75,0.13-1.48,0.41-2.17,0.75c-0.8,0.38-1.9,0.8-2.76,1.38c1.51-0.28,3.03-0.57,4.3-1.49
		C18.11,98.95,18.29,98.72,18.4,98.45z"/>
	<path class="st53" d="M24.13,93.9c0.02-0.02,0.04-0.04,0.06-0.06c0,0,0,0,0,0C24.17,93.85,24.15,93.88,24.13,93.9z"/>
	<path class="st53" d="M22.95,101.19c0.34-0.05,0.7-0.12,1.05-0.2c0.07-0.48,0.06-1.07,0.17-1.52c-0.09,0.1-0.22,0.18-0.36,0.2
		c-0.33,0.04-0.65-0.19-0.7-0.53c-0.05-0.41-0.1-0.82-0.16-1.23c-0.67,0.22-1.44,0.36-1.95,0.46c0.05,0.14,0.02,0.28-0.04,0.4
		c0.12,0.36-0.1,0.84-0.55,0.82c-0.39,0.04-0.76-0.06-1.08-0.23c-0.98,1.43-3.02,1.9-4.62,2.35c-1.52,0.5-3.55,0.31-4.67,1.44
		c-0.13,0.36-0.2,0.76-0.16,1.17c-0.42,0.43-0.61,1-0.6,1.56c0.31,1.57,2.44,1.13,4.46,0.54c1.81-0.69,3.31-1.73,5.09-2.43
		c0.09-0.04,0.19-0.08,0.29-0.12C20.52,103.13,22.19,102.78,22.95,101.19z"/>
	<path class="st53" d="M20.72,96.54c0.02,0.19,0.04,0.37,0.05,0.56c0.64-0.12,1.27-0.27,1.87-0.52
		C21.95,96.28,21.29,96.3,20.72,96.54z"/>
	<path class="st53" d="M26.94,93.85c-0.32,0.34-0.75,0.55-1.27,0.55c-0.06,0-0.14-0.02-0.2-0.03c-0.05,0.03-0.1,0.06-0.15,0.09
		c-0.53,0.4-0.82,1.18-1.37,1.51c0,0.02,0.01,0.04,0.01,0.07c0.05,0.1,0.07,0.19,0.07,0.28c0.09,0.06,0.17,0.15,0.23,0.28
		c0.08,0.25,0.02,0.46-0.14,0.64c0.07,0.57,0.15,1.14,0.23,1.71c0.01,0.04-0.01,0.08-0.01,0.12c0.11-0.17,0.27-0.29,0.52-0.32
		c0.4,0.04,0.57,0.3,0.63,0.65c0.12-0.13,0.28-0.22,0.46-0.22c0.14,0,0.27,0.06,0.37,0.14c0.79-0.14,1.55-0.34,2.19-0.82
		c0.13-0.7,0.12-1.41,0.06-2.11c-0.02-0.16-0.14-0.31-0.24-0.42C27.82,95.31,27.36,94.59,26.94,93.85z"/>
	<path class="st54" d="M26.94,93.85c-0.01-0.02-0.02-0.03-0.03-0.05c-0.51,0.14-1,0.29-1.45,0.58c0.07,0.01,0.14,0.03,0.2,0.03
		C26.19,94.4,26.62,94.19,26.94,93.85z"/>
	<path class="st54" d="M23.91,86.42c-0.15,2.29-0.19,4.59-0.14,6.88c0.11,0.2,0.25,0.38,0.41,0.54c0,0,0,0,0,0
		c0.51-0.5,1.09-0.91,1.8-1.12c0.1-0.03,0.21-0.05,0.32-0.07C25.32,90.65,24.56,88.52,23.91,86.42z"/>
	<path class="st54" d="M25.46,86.25c-0.1-0.04-0.22-0.07-0.34-0.1c0.3,1.06,0.68,2.11,1.1,3.14c0.1,0.21,0.2,0.42,0.29,0.64
		c-0.28-0.84-0.54-1.7-0.78-2.55C25.63,87.01,25.55,86.63,25.46,86.25z"/>
	<path class="st17" d="M34.34,23.78c-0.6-0.98-1.39-1.8-2.09-2.7c-0.2-0.18-0.46-0.22-0.68-0.12C31.02,13.83,28.94,5.03,24,2.28
		c-1.44-0.79-3.56-0.69-5.02,0.21c-0.22,0.04-0.44,0.09-0.63,0.17c-0.41,0.25-0.76,0.57-1.09,0.91c-0.04-0.01-0.09-0.03-0.13-0.04
		c-0.07,0.11-0.14,0.22-0.21,0.32c-0.07,0.12-0.14,0.24-0.21,0.36c-0.47-0.4-1.38,0.08-2.08,0.38c-0.22,0.02-0.44,0.03-0.65,0.05
		c-0.04,0.04-0.08,0.08-0.13,0.12c-0.05,0.05-0.11,0.1-0.17,0.15c-0.65,0.61-1.32,1.2-1.99,1.79c0.07-0.03,0.13-0.07,0.2-0.1
		c0.01,0,0.01-0.01,0.02-0.01c-0.18,0.16-0.36,0.32-0.53,0.47c-2.02,1.77-4.21,3.45-6.12,5.35c-0.61,0.61-1.18,1.24-1.71,1.91
		c-0.49,0.61-0.96,1.25-1.36,1.93c-0.5,1.41-0.28,3.14,0.25,4.52c0.51,1.06,1.38,1.84,2.24,2.61c0.02,0.05,0.04,0.11,0.07,0.16
		c0.15,0.16,0.29,0.27,0.43,0.36c0.06,0.31,0.31,0.47,0.58,0.47c0.02,0,0.05-0.01,0.07-0.01c0.27,0.9,0.67,1.78,1.58,1.99
		c1.52-0.44,2.86-1.57,4.28-2.35c0.04-0.02,0.08-0.05,0.12-0.07c0.12-0.1,0.3-0.2,0.51-0.32c-0.25,0.5-0.48,1-0.71,1.51
		c-1.58,3.51-2.75,7.21-3.53,10.98c-0.11,0.51-0.21,1.03-0.3,1.54c0,0.01,0,0.01,0,0.02c-0.25,1.2-0.48,2.41-0.69,3.63
		c-0.37,2.15-0.65,4.32-0.89,6.49c-0.16,1.46-0.3,2.91-0.41,4.36c0,0.81-0.37,1.95,0.47,2.45c0.47,0.22,1,0.1,1.49,0.06
		c0.62-0.05,1.31-0.01,1.98,0.06c0.06,0.01,0.11,0.01,0.17,0.02c0.11,0.01,0.22,0.02,0.33,0.03c-0.01,0.01-0.01,0.02-0.02,0.03
		c-0.22,0.27-0.39,0.57-0.52,0.87c-0.4,0.93-0.44,1.99-0.5,3.03c0,0.02,0,0.04,0,0.07c-0.01,0.1-0.01,0.19-0.01,0.29
		c-0.01,0.12-0.01,0.23-0.01,0.35c-0.03,0.65-0.05,1.32-0.06,1.99c-0.01,0.45-0.01,0.9-0.02,1.35c-0.01,1.04-0.01,2.07-0.02,3.08
		c0.01,0.33,0.06,0.67,0.3,0.91c0.84,0.48,1.7,0.89,2.58,1.23c0,0.01,0,0.01,0.01,0.02c0.02,0,0.04-0.01,0.06-0.01
		c0.23-0.04,0.45-0.02,0.67,0.03c0.42,1.06,0.85,2.11,1.3,3.16c0.28,0.67,0.57,1.33,0.85,2c0.04,0.09,0.07,0.17,0.11,0.26
		c0.04,0.1,0.07,0.2,0.11,0.31c0.06,0.15,0.11,0.3,0.17,0.45c0.59,1.57,1.15,3.16,1.68,4.75c0.13,0.39,0.26,0.78,0.39,1.17
		c0.07,0.2,0.13,0.4,0.2,0.6c0.02,0.49,0.04,0.97,0.08,1.46c0.04,0.45,0.08,0.9,0.12,1.35c0.04,0.36,0.09,0.73,0.14,1.09
		c0.05,0.36,0.12,0.72,0.18,1.07c0.01,0.08,0.01,0.16,0,0.24c0.13,0.39,0.25,0.72,0.35,1c0.12,1.48,0.27,2.96,0.44,4.44
		c-0.09,0.2-0.05,0.41,0.06,0.58c0.16,1.32,0.33,2.63,0.51,3.94c-0.17-0.01-0.34,0.05-0.48,0.19c-0.45,0.66-0.18,1.68-0.47,2.41
		c-0.11,0.27-0.29,0.5-0.62,0.65c-1.27,0.92-2.78,1.21-4.3,1.49c-1.41,0.26-2.82,0.52-4.03,1.28c-1.8,1.37-2.38,5.59,0.3,6.26
		c3.02,0.6,5.85-1.05,8.43-2.4c1.82-0.84,3.76-1.42,5.49-2.45c0.56-0.33,1.24-0.65,1.44-1.33c0.05-0.27,0.17-0.71,0.28-1.18
		c0.41,0.05,0.88-0.1,1.28-0.15c0.87-0.22,1.79-0.41,2.51-0.98c0.98-0.7,0.65-2.14,0.68-3.19c-0.02-0.33-0.16-0.84-0.44-1.11
		c-1.33-1.55-2.06-3.51-2.89-5.37c0-0.01-0.01-0.01-0.01-0.02c-0.1-0.21-0.19-0.43-0.29-0.64c-0.42-1.04-0.8-2.08-1.1-3.14
		c-0.38-1.36-0.64-2.74-0.71-4.17c-0.01-0.15,0-0.29-0.01-0.44c0.03-0.22,0.06-0.44,0.09-0.66c0.52-0.15,0.54-0.81,0.15-1.09
		c0.12-0.78,0.27-1.54,0.42-2.31c0.07-0.34,0.12-0.67,0.19-1.01c0.03,0,0.07,0.01,0.1,0.02c0.14,0.02,0.28,0.04,0.42,0.08
		c0-0.56,0.02-1.12,0.03-1.69c0.01-0.26,0.01-0.52,0.01-0.79c0.18-0.73,0.38-1.46,0.6-2.18c0.15-0.5,0.29-1,0.45-1.5
		c0.02-0.06,0.03-0.12,0.05-0.18c0.07,0,0.15,0.01,0.22,0.01c0.17,0.01,0.33,0.02,0.5,0.03c0.1,0,0.21,0,0.32,0.01
		c0.1,0,0.21,0.01,0.32,0.01c0.44,0,0.88-0.07,1.08-0.5c0.27-1.22,0.12-2.51,0.17-3.76c0-1.46,0-2.92,0-4.38
		c1.44-0.23,2.85-0.56,4.23-1c1.49-0.61,1.32-2.32,0.95-3.6c-0.61-2.16-1.39-4.26-2.21-6.34c-0.26-0.98-0.47-1.97-0.66-2.93
		c-0.03-0.06-0.09-0.09-0.14-0.13c0.2-0.18,0.28-0.47,0.18-0.71c1.06-0.34,2.11-0.74,3.12-1.21c1.63-1.31,1.41-3.69,1.4-5.57
		c0.01-0.54,0-1.09-0.01-1.63c-0.03-1.45-0.11-2.91-0.16-4.36c0-0.02,0-0.05,0-0.07c0.19-0.07,0.37-0.13,0.56-0.2
		c0.56-0.22,1.19-0.59,1.31-1.22C37.35,29.59,35.98,26.52,34.34,23.78z M17.71,19.47c-0.13-0.96-0.29-1.91-0.46-2.87
		c0.25,0.47,0.54,0.88,0.9,1.24c0.77,0.77,1.81,1.24,3.23,1.18c0.92,0.12,1.74-0.15,2.46-0.62c0.01,0.73,0.01,1.45-0.05,2.17
		c-0.03,0.35-0.08,0.69-0.14,1.03c-0.24,0.11-0.53,0.19-0.84,0.24c-1.49,0.28-3.53-0.05-4.56-1.08c-0.14-0.14-0.28-0.29-0.38-0.46
		C18.1,19.93,17.96,19.63,17.71,19.47z M32,42.24c0.62-0.29,0.82-0.98,0.83-1.62c0.04-1.51-0.1-3.17-0.04-4.7
		c0.03-0.02,0.04-0.05,0.06-0.08c0.49-0.04,0.49-0.63,0.65-1.05c0.5-0.05,1-0.15,1.48-0.29c0.09,2.66,0.19,5.33,0.09,7.99
		c-0.1,0.68-0.21,1.58-0.77,2.09c-4.28,1.96-8.97,2.63-13.69,2.71c-0.86,0.02-1.72-0.01-2.58-0.06c-0.35-0.02-0.64,0.3-0.66,0.63
		c-0.57,0.09-1.23,0.45-1.74,0.31c-0.96-0.42-1.58-1.68-1.4-2.7c0,0,0,0,0-0.01c0.73,0.01,1.51,0.12,2.23,0.43
		c0.1,0.18,0.25,0.34,0.45,0.4c0.32,0.1,0.62-0.03,0.8-0.25c1.63,0.05,3.29-0.36,4.92-0.44C25.97,45.35,29.4,44.48,32,42.24z
		 M29.95,49.65c0.39,1,0.74,2.04,1.35,2.93c0.01,0.02,0.02,0.04,0.03,0.06c-0.02,0-0.03,0.01-0.05,0.01
		c-4.22,1.03-8.62,1.74-12.97,1.31c0.04-0.27-0.09-0.58-0.32-0.74c0.01-0.21,0.03-0.41,0.04-0.65c0.02-0.35,0.18-1.06-0.31-1.25
		c-0.03-0.4,0.1-0.95-0.3-1.2c-0.01-0.17,0.01-0.36-0.01-0.54c-0.01-0.11-0.05-0.21-0.11-0.29c0.05-0.01,0.1-0.03,0.15-0.04
		c0.34-0.03,0.79-0.25,0.88-0.62c0.35,0.02,0.73-0.01,1.02,0.03c0.67,0.01,1.35,0,2.02-0.02c2.95-0.08,5.93-0.45,8.8-1.2
		c-0.07,0.47-0.05,0.97,0,1.47C29.93,49.08,29.84,49.38,29.95,49.65z M15.25,31.17c-0.16-0.01-0.32,0-0.47,0.05
		c-0.69,0.14-1.46,0.25-2.25,0.25c0.95-1.12,1.48-2.52,2.35-3.69c0,0,0,0,0,0c0.4,0.13,0.88-0.03,0.94-0.48
		c0.06-0.52-0.44-0.74-0.9-0.77c0.8-2.66,0.77-6.28,0.79-9.91c0.09-0.02,0.19-0.04,0.28-0.06c0.77,4.3,1.27,8.7-0.13,12.94
		C15.71,29.81,15.52,30.56,15.25,31.17z M4.4,21.33c0.02-0.03,0.03-0.07,0.05-0.1c-0.09-0.04-0.18-0.09-0.26-0.16
		c0,0.01,0,0.01,0,0.02c-0.23-0.28-0.44-0.57-0.61-0.9C3.5,20,3.44,19.81,3.4,19.62c-0.04-0.16-0.06-0.31-0.09-0.47
		c-0.08-0.59-0.09-1.18-0.11-1.82c0.1-0.6,0.43-1.12,0.8-1.61c0.02,0.04,0.03,0.08,0.05,0.11c0.16-0.3,0.36-0.58,0.53-0.82
		c0.19-0.29,0.42-0.55,0.65-0.8c0.16-0.17,0.33-0.34,0.49-0.51c0.71-0.72,1.42-1.45,2.15-2.14c0.74-0.71,1.49-1.42,2.3-2.05
		c0.01-0.01,0.02-0.01,0.03-0.02c0,0,0,0,0,0c0.02-0.02,0.04-0.03,0.06-0.05c0.33-0.25,0.67-0.49,1.01-0.75
		c0.22-0.16,0.43-0.33,0.66-0.48C12.07,8.11,12.2,8,12.32,7.88c0.35-0.31,0.99-0.65,0.9-1.14c0.04,0.01,0.08,0.02,0.12,0.02
		c0.29,0,0.58-0.19,0.63-0.51c0.39,0.19,0.82,0.39,1.22,0.5c0.06,0.02,0.13,0.05,0.19,0.08c-0.06,0.12-0.11,0.25-0.17,0.37
		c-0.31,0.38-0.62,0.75-0.97,1.12c-0.01,0.01-0.02,0.02-0.03,0.03c-0.06,0-0.11,0-0.17,0.01c0.02,0.04,0.02,0.08,0.04,0.13
		c-2.16,2.2-3.88,4.75-5.43,7.4c-0.17,0.06-0.33,0.12-0.48,0.23c-0.17,0.12-0.27,0.37-0.23,0.57c0.01,0.1,0.05,0.18,0.1,0.26
		c-0.25,0.44-0.49,0.87-0.73,1.31c-0.08,0.17-0.16,0.35-0.23,0.54c-0.29,0.24-0.46,0.65-0.62,0.99c-0.08,0.16-0.15,0.32-0.22,0.48
		c-0.04-0.2-0.18-0.36-0.37-0.44c-0.06,0.32-0.12,0.64-0.18,0.96c-0.04,0.22-0.23,0.38-0.45,0.38c-0.02,0-0.05,0-0.07-0.01
		c-0.07-0.01-0.14-0.04-0.19-0.08c0.04,0.29,0.12,0.58,0.21,0.87c0.02,0.07,0.04,0.14,0.06,0.22c-0.09-0.08-0.19-0.17-0.28-0.26
		C4.77,21.74,4.58,21.54,4.4,21.33z M25.6,14.71c0.07,0.21,0.14,0.42,0.19,0.66c-0.01,0.03-0.01,0.06-0.02,0.09
		c-0.01-0.01-0.02-0.01-0.03-0.02c-0.14-0.09-0.28-0.12-0.42-0.1c-0.81,0.08-1.47,1.69-2.21,2.01c-0.89,0.6-1.98,0.38-3.05,0.27
		c-1.97-0.96-2.48-3.66-2.67-5.67c-0.06-1.17-0.01-2.34-0.01-3.51c0.23-0.04,0.44-0.2,0.49-0.44c0.02-0.06,0.03-0.12,0.05-0.18
		c0.09-0.36,0.2-0.72,0.33-1.08c0.09,0.35,0.2,0.68,0.33,0.98C20.11,11.22,24.39,11.23,25.6,14.71z M24.97,17.39
		c0.1-0.11,0.19-0.23,0.28-0.35c-0.07,0.18-0.15,0.37-0.22,0.55C25.03,17.52,25.01,17.45,24.97,17.39z M16.89,30.68
		c0,0-0.01-0.01-0.01-0.01c0-0.01,0.01-0.02,0.01-0.02C16.89,30.66,16.89,30.67,16.89,30.68z M11.41,15.16
		c-0.15-0.1-0.33-0.14-0.5-0.08c-0.08,0.03-0.15,0.06-0.23,0.08c-0.03,0-0.07,0-0.1,0c-0.01,0.01-0.01,0.01-0.02,0.01
		c0.98-1.59,2.05-3.12,3.26-4.51c0.13-0.15,0.25-0.32,0.38-0.47c0.09-0.14,0.28-0.34,0.5-0.57c0.04,0.01,0.07,0,0.1,0
		c-0.01,0.04-0.01,0.08-0.02,0.12c-0.03,0.18-0.06,0.36-0.09,0.55c0.04,0.07,0.07,0.14,0.08,0.23c0.02,0.14,0.02,0.29,0,0.44
		c-0.02,0.24-0.09,0.48-0.14,0.71c-0.04,0.16-0.07,0.32-0.11,0.48c-0.07,1.11-0.1,2.24-0.12,3.37c-0.05,0.01-0.09,0.02-0.14,0.03
		C13.58,15.26,12.48,15.17,11.41,15.16z M15.72,15.13C15.72,15.13,15.72,15.12,15.72,15.13C15.72,15.12,15.72,15.13,15.72,15.13
		C15.72,15.13,15.72,15.13,15.72,15.13z M16.07,9.85c0,0.7,0.02,1.44,0.07,2.2c-0.1-0.03-0.2-0.04-0.3-0.03
		C15.9,11.27,15.97,10.55,16.07,9.85z M16.9,6.65c0-0.01,0-0.01-0.01-0.02c0.03-0.06,0.05-0.13,0.08-0.19
		C16.95,6.51,16.92,6.58,16.9,6.65z M27.14,30.2c0.06,0.09,0.14,0.17,0.26,0.24c0.06,0.01,0.1,0,0.15,0.01
		c0.01,0.05,0.02,0.1,0.05,0.15c-0.02-0.03-0.04-0.07-0.05-0.1c0.03,0.12,0.1,0.23,0.19,0.32c-0.48,0.19-0.96,0.43-0.73,1.02
		c0.01,0.02,0.02,0.03,0.03,0.04c-0.07,0.04-0.13,0.07-0.19,0.1c-0.08-0.02-0.17-0.02-0.27-0.01C26.75,31.38,26.95,30.79,27.14,30.2
		z M29.5,29.53c0.07-0.11,0.14-0.21,0.21-0.29C29.65,29.34,29.57,29.43,29.5,29.53z M30.43,24.64c-0.02,1.7-0.18,3.11-0.48,3.99
		c-0.03,0.12-0.09,0.23-0.13,0.35c0.02-0.23-0.1-0.48-0.3-0.6c-0.29-0.14-0.51-0.07-0.7,0.08c0.01-0.02,0.02-0.04,0.03-0.05
		c0.15-0.68,1.1-1.85,0.13-2.25c-0.45-0.07-0.68,0.21-0.84,0.6c0.05-0.21,0.11-0.41,0.15-0.62c0.39-1.01-0.82-1.58-1.13-0.58
		c-0.21,1.17-0.55,2.31-0.91,3.44c0.21-0.92,0.42-1.83,0.59-2.75c0.67-0.84-0.84-1.51-1.12-0.52c-0.37,1.64-0.74,3.42-1.18,5.09
		c-0.11,0.63-0.7,1.78,0.24,2c0.03,0,0.05-0.01,0.08-0.01c-0.01,0.01-0.02,0.02-0.03,0.02c-0.04,0.03-0.27,0.08-0.35,0.01
		c-2.19-1.33-1.13-4.28-0.93-6.38c0.36-1.33,0.81-2.61,1.15-3.9c0.46-0.32,0.69-0.74,0.37-1.26c-0.02-0.02-0.05-0.04-0.07-0.06
		c0.12-0.66,0.18-1.33,0.17-2.02c0.9,0.18,1.54-2.37,1.83-3.51c0.08-0.12,0.13-0.26,0.14-0.41c0.11-0.08,0.2-0.19,0.23-0.32
		c0.08-0.3-0.07-0.59-0.34-0.72c-0.04-0.02-0.08-0.03-0.12-0.05c-0.23-0.57-0.57-1.14-0.76-1.45c-2.22-3-6.54-3.08-6.85-7.49
		c0-0.06-0.01-0.11-0.02-0.16c0.03-0.14,0.02-0.26-0.01-0.37c0.16-0.27,0.05-0.6-0.17-0.78c0.14-0.09,0.28-0.16,0.41-0.23
		c0.03,0,0.06,0,0.08,0c0.11,0.12,0.24,0.17,0.36,0.19C20.28,4,20.62,3.74,20.67,3.4c0.01-0.06,0.01-0.12-0.01-0.19
		c0.07-0.02,0.14-0.02,0.21-0.04c5.76-1.29,8.87,10.16,9.46,18.41c0.01,0.16,0.02,0.32,0.03,0.47
		C30.41,22.97,30.44,23.84,30.43,24.64z M7.43,24.74c-0.35-0.6-0.56-1.26-0.74-1.95c0.14-0.39,0.25-0.81,0.34-1.12
		c0.03-0.09,0.07-0.19,0.11-0.28c0.14-0.38,0.3-0.75,0.48-1.12c0.02,0,0.04-0.01,0.06-0.01c0.03-0.01,0.06-0.01,0.08-0.02
		c0.21-0.08,0.3-0.27,0.36-0.49c0.31-0.14,0.38-0.48,0.27-0.76c-0.01-0.02-0.01-0.05-0.02-0.07c0-0.01,0.01-0.01,0.01-0.02
		c0.37-0.66,0.75-1.33,1.14-2c0.03-0.01,0.06-0.03,0.08-0.04c0.37-0.16,0.92-0.26,1.36-0.44c0.94,0.04,1.87,0.14,2.78,0.36
		c-0.01,0.09-0.02,0.17-0.03,0.26c0.2-0.04,0.41-0.09,0.61-0.13c0,0,0.01,0,0.01,0c0.01,0,0.02,0,0.03,0c0.02,0,0.03-0.01,0.04-0.01
		c0,0.8-0.01,1.59-0.02,2.36c-0.01,0.79-0.03,1.56-0.06,2.28c-0.03-0.06-0.06-0.12-0.1-0.19c-0.35-0.36-0.83-0.14-1.11,0.18
		c-1.73,1.24-3.64,2.23-5.46,3.34c-0.04,0.02-0.07,0.04-0.11,0.07C7.5,24.88,7.47,24.81,7.43,24.74z M7.01,53.36
		c0.73-10.2,2.18-20.64,6.72-29.92c0.4-0.25,0.38-0.6,0.2-0.84c0.15-0.14,0.28-0.28,0.36-0.44c-0.06,0.84-0.14,1.63-0.27,2.32
		c-0.22,1.03-0.48,2.14-0.93,3.11c-0.22,0.57-1.07,1.3-0.7,1.88c-0.08,0.13-0.16,0.26-0.25,0.38c-0.43,0.82-1.96,1.81-0.82,2.69
		c0.52,0.28,1.12,0.31,1.72,0.26c0.08-0.01,0.17-0.01,0.25-0.02c0.02,0.11,0.07,0.21,0.14,0.3c0.07,0.08,0.17,0.16,0.3,0.2
		c0.89,0.33,1.57,0.06,2.09-0.52c0.04-0.04,0.07-0.09,0.11-0.13c0,0.01,0,0.01,0,0.02c0.03,0.6,0.06,1.19,0.08,1.79
		c-0.08,0.48-0.23,0.97-0.07,1.42c-0.08,2.69-0.14,5.39-0.16,8.09c0,0.13,0,0.25,0,0.38c-0.33-0.09-0.67-0.15-1.03-0.15
		c-0.18-0.02-0.34-0.02-0.49,0c-2.69,0.19-1.05,4.91,1.04,5.33c0.26,0.07,0.51,0.07,0.77,0.05c0.04,0,0.09-0.01,0.13-0.01
		c0,0.02,0,0.03,0,0.05c-0.06,0.78,0.01,1.58,0.04,2.37c-0.05,0.09-0.09,0.19-0.09,0.31c0.01,0.23-0.03,0.48,0.09,0.69
		c-0.01,0.53,0.04,0.94,0.13,1.26c-1.29-0.12-2.58-0.32-3.86-0.5c-0.38-0.05-0.76-0.1-1.14-0.14c-1.44-0.17-2.88-0.27-4.33-0.14
		c-0.01,0-0.02,0-0.03,0C7,53.38,7.01,53.37,7.01,53.36z M10.38,65.71c0-2.32-0.01-4.62,0.09-6.94c0.07-1.04,0.07-2.4,0.77-3.3
		c0.14-0.15,0.26-0.34,0.31-0.52c1.8,0.3,3.61,0.48,5.43,0.58c0.01,0.16,0.03,0.32,0.04,0.48c-0.01,0.25,0.03,0.51,0.07,0.73
		c0.05,0.42,0.1,0.84,0.18,1.27c0.54,3.45,0.6,3.94,2.48,4.04c0.62,0.03,1.45,0.02,2.56,0.06c1.59,0.03,3.19-0.01,4.78-0.15
		c0.37-0.03,0.75-0.07,1.12-0.11c0.01,0.26,0.02,0.52,0.02,0.79c0.02,1.29,0,2.58-0.02,3.87c-0.02,0.81-0.04,1.62-0.06,2.43
		c-0.74-0.04-1.49-0.08-2.24-0.12c-0.18-0.19-0.46-0.28-0.72-0.13c-0.04,0.02-0.07,0.05-0.11,0.08c-0.19-0.01-0.39-0.02-0.58-0.03
		c-1.1-0.06-2.2-0.13-3.3-0.23c-0.33-0.03-0.66-0.06-0.99-0.1c-0.12-0.25-0.43-0.41-0.71-0.33c-0.03,0.01-0.06,0.03-0.09,0.04
		c-0.25-0.2-0.65-0.24-0.88,0.07c-0.53-0.08-1.05-0.16-1.57-0.26c-0.71-0.13-1.41-0.29-2.1-0.47c-0.4-0.11-0.81-0.22-1.21-0.34
		c-0.02-0.05-0.04-0.1-0.06-0.15c-0.05-0.35-0.43-0.53-0.75-0.45c-0.02-0.02-0.03-0.04-0.04-0.06c-0.14-0.89-1.05-0.69-1.21-0.09
		c-0.3-0.12-0.6-0.26-0.9-0.4c-0.09-0.04-0.19-0.08-0.28-0.13C10.38,65.8,10.38,65.76,10.38,65.71z M22.14,102.6
		c-0.02,0.01-0.04,0.02-0.06,0.03c-0.94,0.46-1.96,0.82-2.96,1.24c-0.1,0.04-0.19,0.08-0.29,0.12c-1.78,0.7-3.28,1.74-5.09,2.43
		c-2.02,0.59-4.15,1.03-4.46-0.54c-0.09-0.47-0.03-1.13,0.26-2.02c0.13-0.29,0.31-0.51,0.5-0.71c1.12-1.13,3.15-0.94,4.67-1.44
		c1.6-0.44,3.64-0.91,4.62-2.35c0.31,0.17,0.69,0.27,1.08,0.23c0.45,0.02,0.67-0.46,0.55-0.82c0.06-0.12,0.08-0.26,0.04-0.4
		c0.51-0.1,1.28-0.24,1.95-0.46c0.05,0.41,0.11,0.82,0.16,1.23c0.05,0.34,0.37,0.58,0.7,0.53c0.14-0.02,0.27-0.1,0.36-0.2
		c-0.11,0.45-0.09,1.03-0.17,1.52c-0.03,0.21-0.08,0.4-0.16,0.55C23.31,101.96,22.74,102.3,22.14,102.6z M14.46,68.68
		c0.18,0.08,0.36,0.17,0.54,0.25c1.07,0.26,2.16,0.45,3.26,0.61c0,0.01,0,0.02-0.01,0.04c0,0.18,0.01,0.36,0.01,0.55
		c-0.21,2.77-0.17,5.58-0.19,8.38c-0.08-0.23-0.16-0.47-0.24-0.7c0.05-0.09,0.09-0.19,0.09-0.3c0-0.27-0.18-0.5-0.42-0.6
		c-1.01-2.8-2.12-5.57-3.27-8.32C14.31,68.61,14.39,68.64,14.46,68.68z M28.5,98.52c-0.64,0.48-1.4,0.69-2.19,0.82
		c-0.11-0.08-0.23-0.14-0.37-0.14c-0.19,0-0.35,0.09-0.46,0.22c-0.06-0.35-0.23-0.61-0.63-0.65c-0.25,0.03-0.4,0.15-0.52,0.32
		c0-0.04,0.01-0.08,0.01-0.12c-0.08-0.57-0.15-1.14-0.23-1.71c0.15-0.18,0.22-0.4,0.14-0.64c-0.06-0.14-0.14-0.22-0.23-0.28
		c0.01-0.09-0.02-0.18-0.07-0.28c0-0.02-0.01-0.04-0.01-0.07c0.56-0.33,0.85-1.11,1.37-1.51c0.05-0.04,0.1-0.06,0.15-0.09
		c0.44-0.28,0.93-0.44,1.45-0.58c0.01,0.02,0.02,0.03,0.03,0.05c0.42,0.74,0.87,1.47,1.38,2.15c0.11,0.11,0.22,0.25,0.24,0.42
		C28.62,97.11,28.63,97.83,28.5,98.52z M20.77,97.1c-0.02-0.19-0.03-0.37-0.05-0.56c-0.16-1.56-0.36-3.11-0.56-4.67
		c0.03-0.04,0.06-0.06,0.08-0.11c0.47-0.21,0.92-0.47,1.35-0.75c0.25-0.16,0.49-0.31,0.73-0.48c0.04,0,0.06-0.02,0.1-0.03
		c-0.01,0.24-0.02,0.47-0.02,0.71c-0.02,0.02-0.05,0.04-0.07,0.06c-0.09,0.12-0.14,0.28-0.12,0.45c0.08,0.75,0.17,1.51,0.26,2.26
		c0.06,0.86,0.13,1.72,0.27,2.57c-0.03,0.01-0.06,0.02-0.09,0.04C22.04,96.83,21.41,96.98,20.77,97.1z M25.99,92.72
		c-0.71,0.2-1.29,0.61-1.8,1.12c-0.02,0.02-0.04,0.04-0.06,0.06c-0.07,0.07-0.14,0.15-0.21,0.22c-0.04,0.04-0.07,0.08-0.11,0.13
		c0-0.06,0-0.12-0.01-0.19c-0.01-0.25-0.02-0.51-0.03-0.76c-0.05-2.28-0.01-4.58,0.14-6.88c0.65,2.1,1.4,4.23,2.39,6.22
		C26.2,92.67,26.09,92.69,25.99,92.72z M23.43,79.89c-0.24,0.29-0.31,0.77-0.27,1.2c0.01,0.23,0.02,0.46,0.03,0.69
		c-0.01,0.07-0.02,0.15-0.03,0.22c-0.27,2.41-0.57,4.87-0.71,7.33c-0.38-0.12-0.92,0.12-1.23,0.41c-0.3,0.26-0.65,0.43-1.01,0.61
		c-0.08,0.04-0.15,0.08-0.23,0.11c-0.01-0.07-0.02-0.15-0.03-0.22c-0.1-0.84-0.2-1.67-0.28-2.52c0.11-0.17,0.15-0.38,0.07-0.58
		c-0.06-0.15-0.11-0.31-0.17-0.46c-0.04-0.44-0.07-0.88-0.1-1.31c0.09,0,0.18-0.01,0.26-0.04c0.27-0.11,0.46-0.45,0.36-0.74
		c-0.25-0.74-0.49-1.47-0.75-2.21c-0.05-1.73-0.06-3.46-0.04-5.2c0.16-0.23,0.32-0.45,0.48-0.68c0.13-0.18,0.28-0.36,0.45-0.53
		c-0.39-2.08-0.79-4.15-0.73-6.27c1.72,0.19,3.46,0.3,5.18,0.4c0,0.19,0,0.38-0.03,0.54c-0.02,0.93-0.05,1.87-0.08,2.8
		C24.04,75.55,23.71,77.76,23.43,79.89z M33.31,59.35c-0.04,0.01-0.08,0.02-0.11,0.03c-1.28,0.42-2.6,0.72-3.93,0.94
		c-0.02-0.02-0.03-0.05-0.05-0.07c-0.33-0.35-0.88-0.15-1.03,0.23c-1.39,0.17-2.8,0.25-4.21,0.27c-0.46,0.01-0.91,0.01-1.37,0.01
		c-1-0.01-2-0.05-2.99-0.1c-0.16-0.19-0.38-0.36-0.51-0.55c-0.18-0.54-0.33-1.08-0.47-1.62c-0.16-0.86-0.3-1.72-0.39-2.58
		c-0.01-0.1-0.01-0.21-0.02-0.31c0.11,0,0.23,0.01,0.34,0.02c1.53,0.06,3.06,0.09,4.59,0.14c0.28,0.01,0.52-0.18,0.63-0.42
		c1.63-0.12,3.25-0.34,4.85-0.68c1.19-0.34,2.5-0.41,3.63-0.92c0.44,1.21,0.84,2.43,1.16,3.67c0.01,0.05,0.03,0.1,0.04,0.16
		C33.52,58.06,33.92,59.01,33.31,59.35z M36.54,32.52c-0.25,0.12-0.51,0.23-0.78,0.32c-0.03,0-0.04-0.02-0.07-0.02
		c-0.18,0-0.31,0.06-0.41,0.16c-0.01,0.01-0.02,0.02-0.03,0.03c-0.37,0.11-0.74,0.21-1.1,0.32c-0.38,0.17-1.12,0.13-1.8,0.17
		c-0.78,0.05-1.47,0.21-1.46,0.91c0.13,0.54,0.55,0.62,1.02,0.58c0,0,0,0,0,0c0,0,0,0,0,0c-0.25,0.18-0.33,0.51-0.34,0.8
		c0,0.01,0,0.02,0,0.04c-0.01,0.09-0.01,0.17-0.01,0.26c-0.05,0.83-0.01,1.66,0.02,2.49c0.03,0.74,0.03,1.48-0.06,2.22
		c-0.01,0.08-0.02,0.16-0.03,0.24c-0.02,0.01-0.04,0.02-0.05,0.04c-0.32,0.23-0.65,0.45-0.98,0.68c-0.6,0.4-1.2,0.79-1.83,1.13
		c-0.11,0.06-0.22,0.13-0.34,0.18c-1.65,0.74-3.54,0.87-5.33,1.18c-1.12,0.06-2.24,0.23-3.37,0.34c-0.45,0.05-0.9,0.08-1.35,0.09
		c-0.01-0.44-0.08-0.9,0-1.23c0.02-4.23,0.05-8.47,0.12-12.7c-0.02-0.16-0.1-0.29-0.22-0.39c-0.03-0.41-0.05-0.82-0.02-1.25
		c0.11-1.29,0.53-2.56,0.38-3.86c-0.01-0.09-0.02-0.19-0.03-0.28c0.05-0.33-0.11-0.67-0.4-0.78c0.01-0.64,0-1.27-0.04-1.91
		c0.21,0.13,0.44,0.24,0.67,0.34c0.92,0.38,1.97,0.56,2.8,0.61c0.36,0.1,1.07,0.06,1.77-0.1c-0.07,0.2-0.15,0.41-0.25,0.6
		c-0.9,3.06-2.59,8.35,0.9,10.28c0.27,0.2,0.72,0.19,1.17,0.06c0.14-0.04,0.28-0.09,0.41-0.15c0.09-0.04,0.18-0.09,0.27-0.14
		c1.13-0.14,2.1-1.02,3.06-1.56c0.21-0.14,0.33-0.37,0.3-0.61c1.59-0.89,2.3-2.66,2.55-4.42c0.08-1.31,0.09-2.88,0.01-4.6
		c0.08,0.04,0.17,0.09,0.26,0.09c2.31,2.69,3.52,6.08,4.71,9.39c0.04,0.11,0.08,0.22,0.12,0.33C36.69,32.45,36.61,32.48,36.54,32.52
		z"/>
	<polygon class="st17" points="20.23,84.17 20.24,84.18 20.23,84.17 20.23,84.17 	"/>
	<path class="st17" d="M10.2,23.12c-0.1,0.14-0.19,0.27-0.29,0.41C10.09,23.45,10.18,23.29,10.2,23.12z"/>
</g>
</svg>
