<?xml version="1.0" encoding="utf-8"?>
<!-- Generator: Adobe Illustrator 27.7.0, SVG Export Plug-In . SVG Version: 6.00 Build 0)  -->
<svg version="1.1" id="圖層_1" xmlns="http://www.w3.org/2000/svg" xmlns:xlink="http://www.w3.org/1999/xlink" x="0px" y="0px"
	 viewBox="0 0 62 144" style="enable-background:new 0 0 62 144;" xml:space="preserve">
<style type="text/css">
	.st0{fill:none;}
	.st1{fill:#294A26;}
	.st2{fill:#1F2214;}
	.st3{fill:#9E6924;}
	.st4{fill:#164323;}
	.st5{fill:#293B1D;}
	.st6{fill:#2A4D28;}
	.st7{fill:#749A2F;}
	.st8{fill:#76933C;}
	.st9{fill:#5F7D33;}
	.st10{fill:#3F562A;}
	.st11{fill:#101D0A;}
	.st12{fill:#C89A5D;}
	.st13{fill:#F2C1A3;}
	.st14{fill:#A87762;}
	.st15{fill:#3E3526;}
	.st16{fill:#28201C;}
	.st17{fill:#040000;}
	.st18{fill:#41617E;}
	.st19{fill:#DDB3A2;}
	.st20{fill:#A34529;}
	.st21{fill:#E7D0C8;}
	.st22{fill:#282828;}
	.st23{fill:#B1927D;}
	.st24{fill:#A3A399;}
	.st25{fill:#BF8466;}
	.st26{fill:#424242;}
	.st27{fill:#552D18;}
	.st28{fill:#A1BA39;}
	.st29{fill:#E2E1E1;}
	.st30{fill:#0D2037;}
	.st31{fill:#968272;}
	.st32{fill:#9CA2C4;}
	.st33{fill:#928884;}
	.st34{fill:#DCA88D;}
	.st35{fill:#BBB6C5;}
	.st36{fill:#9C6D4D;}
	.st37{fill:#080605;}
	.st38{fill:#2A6031;}
	.st39{fill:#FEFAFC;}
	.st40{fill:#509AB3;}
	.st41{fill:#4F431E;}
	.st42{fill:#3D6832;}
	.st43{fill:#84B733;}
	.st44{fill:#1B2912;}
	.st45{fill:#806F68;}
	.st46{fill:#4A3332;}
	.st47{fill:#9BD7F0;}
	.st48{fill:#78484B;}
	.st49{fill:#A1D9F2;}
	.st50{fill:#523D38;}
	.st51{fill:#C1A09C;}
	.st52{fill:#65676D;}
	.st53{fill:#C7BBAC;}
	.st54{fill:#5E6166;}
	.st55{fill:#CA997D;}
	.st56{fill:#C6C2B6;}
	.st57{fill:#17151C;}
	.st58{fill:#5D5A5C;}
	.st59{fill:#030810;}
	.st60{fill:none;stroke:#040000;stroke-width:0;stroke-linecap:round;stroke-linejoin:round;}
	.st61{fill:#9F8D89;}
	.st62{fill:#EECFCD;}
	.st63{fill:#BACAE8;}
	.st64{fill:#370504;}
	.st65{fill:#212022;}
	.st66{fill:#EC6B5E;}
</style>
<g>
	<path class="st0" d="M27.78,80.97c-0.02,0.07-0.04,0.14-0.07,0.21c0.13-0.04,0.26-0.06,0.4-0.07C28,81.06,27.89,81.01,27.78,80.97z
		"/>
	<path class="st0" d="M17.47,127.23c0.04,0,0.09-0.01,0.13-0.02c-0.03-0.05-0.06-0.11-0.09-0.16
		C17.5,127.11,17.48,127.17,17.47,127.23z"/>
	<polygon class="st0" points="6.5,127.59 6.5,127.59 6.5,127.6 	"/>
	<path class="st0" d="M25.02,72.64c-0.24,0.55-0.48,1.1-0.7,1.65c0.15-0.23,0.29-0.47,0.41-0.71
		C24.83,73.27,24.92,72.95,25.02,72.64z"/>
	<path class="st0" d="M27.82,39.62c-0.01,0.06-0.02,0.12-0.03,0.17c0.02,0.04,0.04,0.08,0.07,0.12c0.02-0.06,0.03-0.12,0.05-0.18
		C27.87,39.7,27.85,39.66,27.82,39.62z"/>
	<path class="st0" d="M28.57,62.81c0.05,0.01,0.09,0.02,0.14,0.03c0,0,0-0.01,0-0.01c-0.04-0.01-0.08-0.03-0.12-0.04
		C28.59,62.8,28.58,62.8,28.57,62.81z"/>
	<path class="st0" d="M30.01,51.35c-0.01-0.04-0.02-0.08-0.04-0.12c-0.15-0.09-0.29-0.19-0.43-0.3c0.57,0.87,1.24,1.64,2.03,2.29
		c-0.06-0.14-0.12-0.28-0.15-0.43C30.84,52.47,30.25,51.98,30.01,51.35z"/>
	<path class="st0" d="M32.5,41.18c-0.2,0.41-0.4,0.82-0.6,1.23c-0.19,0.44-0.38,0.88-0.57,1.32c0.12,0.11,0.25,0.21,0.37,0.32
		c0.35-0.62,0.71-1.23,1.11-1.81C32.62,41.94,32.52,41.58,32.5,41.18z"/>
	<path class="st0" d="M53.94,91.8c0.19-0.1,0.33-0.25,0.33-0.47c-0.11-1.17-0.32-2.31-0.59-3.43c0.15,0.97,0.26,1.94,0.46,2.9
		C54.15,91.16,54.08,91.49,53.94,91.8z"/>
	<path class="st0" d="M25.7,40.9c-0.1,0-0.21,0.01-0.3,0.07c-0.16,0.1-0.24,0.26-0.25,0.44C25.3,41.21,25.49,41.04,25.7,40.9z"/>
	<path class="st0" d="M38.76,79.22c-0.01,0.04-0.02,0.09-0.04,0.13c0.1,1.87,0.21,3.74,0.37,5.6c0.02-0.42,0.04-0.84,0.07-1.27
		C39.06,82.19,38.92,80.7,38.76,79.22z"/>
	<path class="st0" d="M30.02,82.13c0.04-0.1,0.08-0.21,0.13-0.31c-0.15-0.04-0.3-0.08-0.45-0.13
		C29.82,81.83,29.94,81.97,30.02,82.13z"/>
	<path class="st0" d="M25.15,91.66c-0.11,0.6-0.23,1.2-0.36,1.8c0.12-0.43,0.23-0.85,0.33-1.28C25.13,92,25.13,91.83,25.15,91.66z"
		/>
	<path class="st0" d="M23.23,77.82c0.19,0.05,0.38,0.12,0.56,0.18c-0.17-0.32-0.3-0.66-0.39-1.02
		C23.34,77.25,23.28,77.53,23.23,77.82z"/>
	<path class="st0" d="M33.94,29.51c0.89-0.05,1.72,0.24,2.38,1.12c0.37,0.61,0.35,1.25,0.13,1.86c0.45-0.45,0.94-0.87,1.48-1.22
		c-1.17-0.52-2.15-1.35-2.91-2.36c-0.06,0.04-0.12,0.07-0.18,0.11C34.55,29.2,34.25,29.36,33.94,29.51z"/>
	<path class="st0" d="M30.31,42.83c0.02-0.04,0.04-0.09,0.06-0.13c-0.05,0.02-0.12,0.01-0.17,0.02
		C30.23,42.76,30.27,42.79,30.31,42.83z"/>
	<path class="st0" d="M24.77,41.43c0.01-0.12,0.05-0.24,0.08-0.36c-0.06,0.04-0.12,0.09-0.18,0.13
		C24.71,41.27,24.74,41.35,24.77,41.43z"/>
	<path class="st0" d="M33.15,16.54c-0.01-0.23-0.03-0.46-0.04-0.69c-0.28,0.05-0.65,0.02-1.05-0.05c0.04,0.07,0.09,0.13,0.13,0.21
		C32.56,16.07,32.88,16.27,33.15,16.54z"/>
	<path class="st0" d="M29.1,15.18c0.02-0.02,0.05-0.02,0.07-0.04c-0.12-0.01-0.23-0.02-0.33-0.02c-0.01,0-0.01,0.01-0.02,0.01
		C28.91,15.15,29.01,15.15,29.1,15.18z"/>
	<path class="st0" d="M26.01,40.42c-0.12-0.13-0.23-0.26-0.35-0.39c-0.07-0.08-0.1-0.17-0.12-0.26c-0.02,0.24-0.07,0.47-0.18,0.68
		C25.57,40.38,25.79,40.37,26.01,40.42z"/>
	<path class="st0" d="M28.23,23.83c-1.1,0.07-1.93-0.13-2.52-0.51c0,0.13,0,0.26,0,0.39c1.09,0.53,2.34,0.86,3.44,1.41
		C28.75,24.76,28.4,24.34,28.23,23.83z"/>
	<path class="st0" d="M34.33,27.86c-0.09-0.16-0.16-0.32-0.24-0.48c0,0.24-0.03,0.47-0.11,0.67C34.1,27.99,34.22,27.92,34.33,27.86z
		"/>
	<path class="st0" d="M24.34,33.33c-0.04-0.02-0.14,0-0.14-0.03c-0.14,0.01-0.27,0.12-0.36,0.24c-0.02,0.04-0.02,0.09-0.04,0.14
		c0.28,0.07,0.54,0.18,0.79,0.33C24.52,33.78,24.45,33.54,24.34,33.33z"/>
	<path class="st0" d="M44.27,20.91c0.14,0.2,0.29,0.38,0.45,0.57c-0.18-1.09-0.29-2.21-0.42-3.26c-0.07,0.49-0.13,0.99-0.18,1.48
		C44.17,20.11,44.22,20.51,44.27,20.91z"/>
	<path class="st0" d="M21.93,66.03c-0.03-0.01-0.06-0.01-0.09-0.01c-0.21,0.29-0.41,0.58-0.61,0.88c0.62,0.2,1.16,0.65,1.37,1.27
		c0.15-0.36,0.32-0.7,0.5-1.03C22.53,66.91,22.15,66.52,21.93,66.03z"/>
	<path class="st0" d="M34.9,24.93c-0.13-0.26-0.26-0.51-0.36-0.78c0.01,0.08,0.02,0.15,0.04,0.2c0,0.59,0.11,1.18,0.3,1.75
		C34.87,25.71,34.88,25.32,34.9,24.93z"/>
	<path class="st0" d="M34.4,15.39c0,0.07,0.01,0.14,0.01,0.2c0.02-0.06,0.04-0.12,0.05-0.19C34.45,15.4,34.42,15.39,34.4,15.39z"/>
	<path class="st0" d="M25.05,55.18c0.02-0.6,0.05-1.25,0.09-1.94c-0.05-0.29-0.08-0.57-0.08-0.86c-0.19,0.93-0.37,1.85-0.55,2.77
		C24.69,55.13,24.87,55.14,25.05,55.18z"/>
	<path class="st0" d="M23.46,14.52c0.01,0.02,0.01,0.03,0.02,0.05c0,0-0.01,0-0.01,0c0.05,0.06,0.11,0.12,0.11,0.12
		c0.1,0.1,0.36,0.17,0.45,0.2c0.47,0.06,0.91-0.01,1.35-0.12c-0.03-0.04-0.08-0.07-0.11-0.11C24.65,14.93,24,14.83,23.46,14.52z"/>
	<path class="st0" d="M32.34,55.78c0.94,0.09,1.61,0.57,2.06,1.24c0,0,0-0.01,0-0.01c-0.21-0.41-0.19-1.03,0.33-1.17
		c0.08-0.02,0.15-0.02,0.22-0.01c-0.01-0.05-0.02-0.09-0.02-0.14c-0.27,0.13-0.56,0.21-0.87,0.21c-0.06,0-0.12,0-0.18-0.01
		c-1.46-0.31-2.65-1.03-3.65-2c0.02,0.14,0.04,0.27,0.03,0.41C31.13,54.47,31.67,55.27,32.34,55.78z"/>
	<path class="st0" d="M27.59,50.06c-0.3-0.61-0.57-1.23-0.82-1.86c-0.05,0.62-0.08,1.23-0.12,1.85
		C26.95,49.97,27.28,49.98,27.59,50.06z"/>
	<path class="st0" d="M35.25,60.1c0.01,0.35,0,0.69-0.03,1c-0.09,0.63-0.41,1.09-0.83,1.42c0.04,0.02,0.07,0.05,0.11,0.09
		c0.09-0.02,0.18-0.04,0.27-0.06c0.3-0.12,0.65-0.02,0.81,0.27c0.13,0.27,0.08,0.48-0.06,0.66c0.18,0.12,0.35,0.25,0.5,0.4
		C35.81,62.62,35.55,61.36,35.25,60.1z"/>
	<path class="st0" d="M27.16,60c-0.01-0.03-0.02-0.07-0.03-0.1c-0.03-0.01-0.05-0.03-0.07-0.04c-0.01,0.67-0.02,1.33,0,1.97
		c0,0.05,0.01,0.1,0.02,0.15c0.06-0.09,0.13-0.18,0.2-0.27C27.05,61.28,26.99,60.72,27.16,60z"/>
	<path class="st0" d="M54.67,139.33c0.41-0.19,0.82-0.39,1.24-0.59c-0.21,0.1-0.42,0.18-0.63,0.26
		C55.08,139.11,54.87,139.22,54.67,139.33z"/>
	<path class="st0" d="M47.63,102.46c-0.42-1.14-0.84-2.28-1.26-3.43c-0.16,0.42-0.4,0.82-0.68,1.16
		C46.39,100.9,47.03,101.67,47.63,102.46z"/>
	<path class="st0" d="M58.14,136.99c-0.61,0.71-1.37,1.32-2.2,1.74c1.06-0.52,2.08-1.12,2.77-2.03c0.12-0.25,0.25-0.53,0.34-0.82
		C58.8,136.28,58.49,136.65,58.14,136.99z"/>
	<path class="st0" d="M37.64,82.6c-0.05-0.68-0.1-1.37-0.14-2.05c-0.13,0.05-0.27,0.09-0.42,0.11c-0.21,0.2-0.5,0.35-0.75,0.44
		c-0.26,0.11-0.52,0.24-0.78,0.36c0.16,0.01,0.32,0.02,0.47,0.05C36.71,81.71,37.23,82.1,37.64,82.6z"/>
	<path class="st0" d="M27.15,15.63c-0.1,0-0.19-0.02-0.29-0.04c-0.05,0.02-0.1,0.04-0.15,0.06c-0.06,0.29-0.13,0.59-0.19,0.88
		C26.67,16.18,26.87,15.88,27.15,15.63z"/>
	<path class="st0" d="M51.7,121.79c-0.31-1-0.64-1.98-0.98-2.97c-0.02-0.07-0.05-0.14-0.07-0.21c-0.23,0.11-0.45,0.19-0.66,0.24
		c0.47,1.1,0.92,2.2,1.36,3.31C51.44,122.03,51.56,121.9,51.7,121.79z"/>
	<path class="st0" d="M28.12,66.01c-0.08-0.38-0.11-0.72-0.1-1.02c-0.09,0.18-0.17,0.35-0.25,0.53c-0.06,0.3-0.12,0.61-0.17,0.93
		c0.13-0.06,0.26-0.13,0.4-0.16C28.04,66.19,28.08,66.1,28.12,66.01z"/>
	<path class="st0" d="M43.17,96.03c0.77-0.05,1.55-0.1,2.21,0.22c-0.09-0.25-0.16-0.51-0.22-0.76c-0.06,0.01-0.13,0.02-0.19,0.03
		c-0.39,0.08-0.78,0.15-1.18,0.22c-0.32,0.13-0.64,0.24-0.97,0.31C42.94,96.04,43.05,96.04,43.17,96.03z"/>
	<path class="st61" d="M49.99,73.68c-0.22-1.23-0.41-2.47-0.54-3.72c-0.1-0.82-0.2-1.64-0.29-2.46c-0.19-0.29-0.37-0.59-0.54-0.89
		c-0.52-0.93-0.88-1.95-1.27-2.94c-0.07-0.17-0.14-0.34-0.21-0.52c0.59,1.73,1.26,3.44,1.54,5.24
		C49.01,70.2,49.44,71.96,49.99,73.68z"/>
	<path class="st61" d="M42.82,96.05c0.33-0.08,0.65-0.19,0.97-0.31c-0.51,0.1-1.02,0.2-1.52,0.32
		C42.45,96.06,42.63,96.06,42.82,96.05z"/>
	<path class="st61" d="M36.31,59.2c0.79,2.91,1.36,5.77,1.56,8.77c0.4,3.22,0.59,6.46,0.76,9.71c0.14,0.28,0.23,0.59,0.23,0.93
		c0,0.21-0.04,0.41-0.1,0.61c0.16,1.48,0.3,2.97,0.4,4.46c-0.03,0.42-0.05,0.84-0.07,1.27c0.06,0.73,0.13,1.45,0.21,2.18
		c0.07,0.32,0.14,0.63,0.21,0.92c1.07,2.24,0.9,4.66,1.86,6.9c1.29-0.34,2.6-0.6,3.93-0.84c0.17-0.13,0.4-0.17,0.6-0.11
		c2.68-0.48,5.37-0.96,7.86-2.09c0.06-0.03,0.12-0.06,0.18-0.09c0.14-0.31,0.21-0.65,0.2-1c-0.2-0.95-0.31-1.93-0.46-2.9
		c-1.46-6.18-4.86-11.78-6.05-18.04c-0.66-4.59-3.3-8.7-2.89-13.44c0.06-4.17-0.8-8.25-1.08-12.39c-0.45-2.54-0.75-13.39-4.7-11.98
		c0.03,0.39-0.37,0.76-0.77,0.63c-0.01,0-0.01-0.01-0.02-0.01c-2.55,2.25-4.18,5.45-5.68,8.51c0.02,0.4,0.12,0.76,0.3,1.05
		c-0.4,0.58-0.76,1.2-1.11,1.81c0.12,0.11,0.25,0.22,0.37,0.32c0.51,0.51-0.15,1.36-0.77,0.99c-0.2-0.1-0.38-0.21-0.56-0.33
		c-0.1,0.09-0.22,0.16-0.35,0.18c-0.3,0.04-0.63-0.15-0.7-0.46c-0.05-0.16-0.03-0.33,0.03-0.49c-0.09-0.08-0.18-0.15-0.26-0.23
		c-0.07,0.04-0.15,0.07-0.24,0.08c0.02-0.03,0.03-0.06,0.05-0.09c0.02-0.04,0.03-0.08,0.05-0.12c-0.74-0.72-1.4-1.52-2.11-2.28
		c-0.09-0.04-0.18-0.07-0.28-0.08c-0.19-0.02-0.36,0.02-0.52,0.1c0,0,0,0,0,0c0,0,0,0,0,0c0-0.01-0.01-0.01-0.01-0.02
		c-0.04-0.07-0.08-0.15-0.11-0.23c0,0,0-0.01,0-0.01c-0.02-0.05-0.05-0.1-0.07-0.15c-0.08-0.21-0.3-0.32-0.51-0.32
		c-0.21,0.14-0.4,0.31-0.55,0.51c-0.01,0.11,0.01,0.23,0.06,0.33c0,0,0,0.01,0,0.01c0.13,0.21,0.27,0.43,0.43,0.62
		c0.03,0.04,0.05,0.07,0.08,0.1c0,0,0,0,0,0c0,0,0,0,0,0c0,0.01-0.01,0.02-0.01,0.04c0,0.01,0,0.02,0,0.03
		c-0.02,0.07-0.03,0.13-0.02,0.19c0.01,0.07,0.02,0.14,0.04,0.22c-0.03,0.04-0.06,0.08-0.08,0.13c-0.01,0.03-0.02,0.05-0.03,0.08
		c0.07,0.06,0.13,0.13,0.17,0.21c0.08,0.2,0.05,0.43-0.08,0.6c0.36,0.44,0.68,0.9,1,1.37c0.02,0.01,0.04,0.02,0.06,0.03
		c0.03,0.01,0.06,0.02,0.1,0.03c0.1,0.03,0.19,0.06,0.29,0.07c0.12,0.38,0.25,0.75,0.38,1.12c0.73,1.12,1.48,2.22,2.47,3.09
		c0.4,0.41,1.36,0.71,0.98,1.43c-0.17,0.29-0.56,0.4-0.85,0.22c-0.05-0.03-0.09-0.07-0.14-0.1c0.01,0.04,0.02,0.08,0.04,0.12
		c0.23,0.63,0.82,1.12,1.41,1.45c0.03,0.15,0.09,0.29,0.15,0.43c0.63,0.52,1.33,0.98,2.14,1.31c0.36,0.11,0.68-0.01,0.95-0.21
		c1.62-1.29,3.17-2.66,4.35-4.37c0.27-0.32,0.6-0.76,1.07-0.76c0.97-0.16,1.23,1.2,0.19,1.24c-1.26,1.77-2.76,3.3-4.45,4.66
		c-0.27,0.24-0.57,0.45-0.89,0.6c0.01,0.05,0.02,0.09,0.02,0.14C35.93,55.96,35.96,58.45,36.31,59.2z M28.24,43.31
		c-0.01-0.01-0.02-0.02-0.02-0.03c0.02-0.01,0.04-0.02,0.06-0.02C28.27,43.28,28.25,43.29,28.24,43.31z M28.42,43.54
		C28.42,43.54,28.42,43.54,28.42,43.54C28.42,43.54,28.42,43.54,28.42,43.54C28.42,43.54,28.42,43.54,28.42,43.54z M28.43,43.55
		L28.43,43.55C28.43,43.55,28.43,43.55,28.43,43.55c0.01,0.01,0.02,0.02,0.03,0.03C28.45,43.57,28.44,43.56,28.43,43.55z
		 M37.05,57.31c0.32,0,0.61,0.27,0.6,0.6c0,0.84,0.14,1.68,0.22,2.52c0.04,0.32-0.19,0.63-0.52,0.68c-0.32,0.04-0.65-0.19-0.68-0.52
		C36.73,59.76,35.85,57.46,37.05,57.31z"/>
	<path class="st61" d="M46.1,58.94c0.08,0.84,0.26,1.66,0.49,2.47c-0.1-0.54-0.06-1.09,0.09-1.62c0.05-0.17,0.1-0.35,0.18-0.52
		c-0.08-0.05-0.16-0.11-0.24-0.16c-0.14-3.59-0.56-7.15-1.16-10.68C45.84,51.93,46.18,55.42,46.1,58.94z"/>
	<path class="st61" d="M23.09,55.84c-0.14,0.16-0.27,0.34-0.35,0.56c-0.22,0.84-0.34,1.71-0.45,2.58c0.14-0.46,0.28-0.93,0.41-1.39
		C22.84,57,22.97,56.42,23.09,55.84z"/>
	<path class="st61" d="M25.82,59.69c0-0.21,0.01-0.42,0.02-0.62c-0.06,0.01-0.11,0.04-0.17,0.04c-0.31,0-0.62-0.21-0.65-0.55
		c-0.03-0.67-0.02-1.86,0.03-3.38c-0.18-0.03-0.36-0.04-0.55-0.03c-0.21,1.03-0.42,2.06-0.69,3.08c-0.6,2.1-1.42,4.19-1.44,6.35
		c1.28,0.55,0.84,1.78-0.45,1.46c0.23,0.48,0.6,0.87,1.18,1.1c0.03-0.06,0.06-0.12,0.09-0.18c0.15-0.32,0.51-0.49,0.85-0.35
		c0.24,0.1,0.4,0.36,0.39,0.62c1.12-0.25,2.06-1.3,1.62-2.62c0.32-0.31,0.51-0.67,0.63-1.06C25.86,62.93,25.6,61.79,25.82,59.69z"/>
	<polygon class="st61" points="19.24,135.29 19.24,135.29 19.24,135.29 	"/>
	<path class="st61" d="M14.79,137.11c-2.1-0.18-4.16-0.66-6.23-1c-1.59-0.36-3.64-0.49-4.93-1.56c0.26,1.35,1.95,2.1,3.11,1.36
		c2,0.56,4,1.21,6.08,1.36c1.58,0.14,3.02,0.18,4.27-0.13c-0.16,0.01-0.32,0.01-0.48,0.01C15.97,137.15,15.33,137.12,14.79,137.11z"
		/>
	<path class="st61" d="M54.31,139.26c-0.48,0.29-0.97,0.57-1.48,0.83c0.48-0.15,0.96-0.34,1.4-0.56c0.14-0.07,0.28-0.14,0.43-0.21
		c0.2-0.11,0.41-0.22,0.61-0.33C54.96,139.11,54.64,139.21,54.31,139.26z"/>
	<path class="st61" d="M46.74,133.48c-0.89,0.91-1.84,1.98-1.9,3.24c0.06,0.27,0.17,0.54,0.3,0.78c0.17-1.15,1.11-2.19,1.84-3.05
		C46.81,134.1,46.74,133.78,46.74,133.48z"/>
	<path class="st61" d="M59.06,135.87c0.05-0.17,0.09-0.35,0.1-0.53c-0.24,0.58-0.59,1.14-1.02,1.64
		C58.49,136.65,58.8,136.28,59.06,135.87z"/>
	<path class="st61" d="M59.61,133.21c-0.08-0.22-0.19-0.44-0.33-0.63c0.01,0.03,0.01,0.06,0.01,0.09
		C59.4,132.85,59.49,133.03,59.61,133.21z"/>
	<path class="st62" d="M22.02,102c-0.13,0.42-0.25,0.85-0.37,1.27c-0.88,3.62-1.69,7.26-2.42,10.92c0.78-2.75,1.56-5.5,2.13-8.31
		C21.58,104.59,21.8,103.3,22.02,102z"/>
	<path class="st62" d="M28.08,109.71c0.54-2.11,1.19-4.18,1.91-6.23c-0.15-0.19-0.21-0.44-0.19-0.69c0.12-1.08,0.31-2.15,0.48-3.22
		c0.12-0.77,0.26-1.53,0.4-2.3c-1.11,4.52-2.03,9.09-3.16,13.6C27.82,110.57,28.02,110.17,28.08,109.71z"/>
	<path class="st62" d="M31.98,92.43c0.05-0.04,0.1-0.09,0.16-0.12c0.1-0.05,0.21-0.09,0.32-0.11c0.14-0.59,0.27-1.18,0.4-1.77
		c0.07-0.32,0.12-0.65,0.18-0.98c0.03-0.17,0.06-0.33,0.09-0.5c0.02-0.12,0.05-0.23,0.08-0.35c0.04-0.17,0.12-0.32,0.21-0.47
		c0.14-0.25,0.41-0.39,0.69-0.43c-0.09-0.29-0.18-0.58-0.27-0.87C33.14,88.68,32.52,90.54,31.98,92.43z"/>
	<path class="st62" d="M31.01,91.3c0.8-2.07,1.2-4.38,2.32-6.3c0-0.01-0.01-0.02-0.01-0.03c-0.15-0.67-0.52-1.93-0.62-3
		c-0.8,0.01-1.6,0.03-2.39-0.09c-0.05-0.01-0.11-0.03-0.16-0.05c-0.05,0.1-0.09,0.2-0.13,0.31c-0.09-0.17-0.2-0.3-0.32-0.43
		c-0.53-0.16-1.06-0.37-1.59-0.59c-0.13,0.01-0.27,0.03-0.4,0.07c-0.42,1.3-1,2.67-1.03,3.23c-0.64,2.41-1.08,4.84-1.54,7.25
		c-0.01,0.17-0.02,0.35-0.03,0.52c-0.1,0.43-0.21,0.85-0.33,1.28c-0.04,0.18-0.07,0.37-0.11,0.55c-1.09,5.17-1.56,10.48-2.83,15.62
		c-0.94,3.35-2.03,6.7-2.83,10.08c-0.51,2.47-0.97,4.91-1.51,7.34c0.03,0.06,0.06,0.11,0.09,0.16c0.17-0.03,0.35-0.09,0.5-0.18
		c-0.02,0.07-0.03,0.13-0.05,0.2c0.12-0.03,0.23-0.08,0.35-0.11c0.02-0.01,0.04,0,0.06,0c0.73-0.68,1.8-0.98,2.72-0.46
		c1.27-4.05,2.73-8.04,4.04-12.07C27.65,106.9,28.51,98.93,31.01,91.3z"/>
	<path class="st62" d="M23.42,123.8c0.12-0.18,0.22-0.37,0.28-0.59c0.1-0.41,0.21-0.82,0.31-1.23c-0.01,0.03-0.03,0.07-0.04,0.1
		C23.78,122.65,23.61,123.22,23.42,123.8z"/>
	<path class="st62" d="M50.64,118.61c0.03,0.07,0.05,0.14,0.07,0.21c0.34,0.99,0.67,1.98,0.98,2.97c-0.14,0.11-0.26,0.24-0.37,0.37
		c0.84,2.16,1.61,4.35,2.3,6.58c0.1,0.31,0.2,0.62,0.3,0.93c0.55,0.05,1.05,0.26,1.45,0.75c0.09,0.04,0.16,0.11,0.22,0.21
		c0.06-0.04,0.13-0.07,0.19-0.11c-1.3-4.54-2.08-9.28-3.43-13.84c-1.27-4.85-3-9.54-4.73-14.23c-0.6-0.8-1.24-1.56-1.94-2.27
		c0.28-0.34,0.52-0.74,0.68-1.16c-0.2-0.54-0.4-1.09-0.59-1.63c-0.12-0.39-0.27-0.77-0.4-1.16c-0.66-0.32-1.44-0.27-2.21-0.22
		c-0.12,0.01-0.23,0.01-0.35,0.02c-0.19,0.01-0.37,0.01-0.55,0.01c-0.29,0.07-0.57,0.15-0.85,0.24c-0.42,0.14-0.88,0.24-1.29,0.01
		c-0.47-0.23-0.72-0.72-0.86-1.19c-0.76-2.78-0.95-5.69-1.27-8.54c-0.14-1.32-0.26-2.65-0.36-3.97c-0.41-0.5-0.94-0.89-1.62-1.09
		c-0.16-0.03-0.32-0.04-0.47-0.05c-0.5,0.23-1.01,0.45-1.55,0.5c0.11,0.89,0.26,1.77,0.46,2.64c0.32,0.04,0.65,0.1,0.92,0.09
		c0.52,0.07,1.03,0.47,1,1.03c0,0.66-0.97,0.81-1.16,0.19c-0.14-0.02-0.28-0.02-0.42-0.03c0.88,3.12,2.21,6.13,3.45,9.12
		c1.17,3.12,2.76,6.13,4.23,9.09c2.78,4.77,5.33,9.69,7.5,14.76C50.19,118.8,50.41,118.72,50.64,118.61z"/>
	<path class="st62" d="M45.19,111.76c0.84,1.99,1.49,5.92,3.34,6.92c-0.68-1.65-1.41-3.27-2.23-4.86
		C45.93,113.13,45.56,112.44,45.19,111.76z"/>
	<path class="st62" d="M51.98,127.98c-0.29-0.83-0.58-1.66-0.88-2.5C51.33,126.34,51.66,127.2,51.98,127.98z"/>
	<path class="st62" d="M54.35,118.54c-0.03-0.18-0.05-0.36-0.09-0.54c-0.08-0.29-0.16-0.57-0.24-0.86
		c-0.13-0.48-0.27-0.96-0.39-1.45c-0.22-0.88-0.47-1.76-0.48-2.68c0-0.07,0-0.15,0.01-0.22c-0.21-0.56-0.39-1-0.49-1.27
		c-0.47-1.04-0.96-2.09-1.47-3.13c1.24,3.67,2.32,7.41,3.29,11.17C54.44,119.22,54.4,118.88,54.35,118.54z"/>
	<path class="st62" d="M39.3,87.12c0.29,2.69,0.72,5.36,1.41,7.98c0.22-0.06,0.44-0.11,0.66-0.17c-0.96-2.24-0.79-4.66-1.86-6.9
		C39.44,87.75,39.37,87.44,39.3,87.12z"/>
	<path class="st63" d="M27.32,35.6c0.24-1.04,0.5-1.99,0.79-2.82C27.56,33.6,27.38,34.6,27.32,35.6z"/>
	<path class="st63" d="M36.32,30.64c-0.66-0.89-1.49-1.18-2.38-1.12c-1,0.51-2.04,0.94-3.05,1.42c-0.1,0.29-0.42,0.47-0.73,0.37
		c-0.03,0.02-0.07,0.03-0.1,0.05c-1.03,2.69-1.74,5.46-2.25,8.27c0.03,0.04,0.05,0.08,0.09,0.11c-0.02,0.06-0.03,0.12-0.05,0.18
		c0.57,1.06,1.42,1.97,2.34,2.81c0.06-0.01,0.12-0.01,0.17-0.02c0.56-1.3,1.15-2.59,1.82-3.83c1.28-2.14,2.47-4.57,4.26-6.37
		C36.66,31.89,36.69,31.25,36.32,30.64z"/>
	<path class="st63" d="M28.71,62.83c0.01-0.05,0.02-0.11,0.04-0.15c-0.04,0.04-0.1,0.08-0.16,0.11
		C28.63,62.81,28.67,62.82,28.71,62.83z"/>
	<path class="st63" d="M35.22,61.11c0.03-0.32,0.04-0.66,0.03-1c-0.25-1.04-0.53-2.07-0.85-3.09c-0.46-0.67-1.12-1.15-2.06-1.24
		c-0.67-0.51-1.21-1.31-2.07-1.46c0.01-0.14-0.01-0.28-0.03-0.41c-1.09-1.05-1.94-2.4-2.65-3.83c-0.31-0.08-0.63-0.09-0.95-0.01
		c-0.09,1.33-0.16,2.66-0.23,3.99c0.16-0.05,0.34-0.04,0.53,0.1c0.5,0.6,0.09,1.56,0.19,2.29c-0.01,1.12-0.05,2.28-0.06,3.43
		c0.03,0.01,0.05,0.03,0.07,0.04c0.01,0.03,0.02,0.07,0.03,0.1c-0.18,0.71-0.11,1.27,0.12,1.71c0.36-0.5,0.79-1.02,1.43-0.89
		c0.73,0.2,0.77,1.35,0.19,1.52c0,0.07-0.03,0.15-0.07,0.22c0.11-0.14,0.28-0.24,0.47-0.24c0.3,0,0.54,0.22,0.59,0.51
		c0.75-0.15,1.64-0.1,2.53,0.05c0.3-0.02,0.6-0.05,0.89-0.07c0.33-0.21,0.74-0.47,1.08-0.28C34.81,62.2,35.13,61.74,35.22,61.11z"/>
	<path class="st63" d="M25.14,53.24c0.03-0.56,0.07-1.16,0.11-1.77c-0.07,0.3-0.13,0.61-0.19,0.91
		C25.06,52.67,25.09,52.95,25.14,53.24z"/>
	<path class="st62" d="M22.42,33.72c-1.34,0.45-2.29,2.26-0.86,6.32c0.28,0.86,1.05,1.45,1.9,1.49
		C22.55,39.41,21.79,35.83,22.42,33.72z"/>
	<path class="st62" d="M23.8,33.68c-0.82,2.32-0.04,5.23,0.87,7.5c0.06-0.04,0.12-0.08,0.18-0.13c0.02-0.09,0.03-0.18,0.07-0.27
		c0.12-0.17,0.28-0.28,0.45-0.34c0.1-0.21,0.16-0.44,0.18-0.68c-0.02-0.08-0.01-0.16,0.01-0.24c-0.01-0.69-0.26-1.46-0.49-2.21
		c0.07-0.08,0.12-0.16,0.17-0.25c-0.22-1.01-0.33-2.09-0.64-3.06C24.35,33.87,24.08,33.75,23.8,33.68z"/>
	<path class="st62" d="M18.67,68.03c-0.33,1.2-0.85,2.32-1.39,3.44c0.87-1.47,1.54-3.05,2.39-4.52
		C19.25,67.14,18.89,67.48,18.67,68.03z"/>
	<path class="st62" d="M21.23,66.9c-1.37,2.14-2.23,4.6-3.75,6.66c-0.93,0.98-2.11,2.73,0.06,2.99l-0.01,0.01
		c0.11,0,0.22-0.02,0.25-0.03c0.09-0.02,0.18-0.05,0.27-0.08c2.79-1.8,3.29-5.35,4.55-8.28C22.39,67.55,21.85,67.1,21.23,66.9z"/>
	<path class="st62" d="M17.88,77.75c1.17,0.37,2.46-0.49,2.62-1.67C19.83,76.96,18.98,77.6,17.88,77.75z"/>
	<path class="st62" d="M24.58,20.73c0-0.04,0.01-0.08,0.01-0.12C24.59,20.65,24.59,20.69,24.58,20.73z"/>
	<path class="st62" d="M29.61,26.95c0.11,0.55,0.27,1.06,0.58,1.54c-0.11-0.52-0.17-0.95-0.43-1.41
		C29.72,27.03,29.67,26.99,29.61,26.95z"/>
	<path class="st62" d="M33.6,28.05c0.1,0,0.19,0.02,0.27,0.06c0.04-0.02,0.08-0.04,0.12-0.06c0.07-0.2,0.11-0.43,0.11-0.67
		c-0.73-1.55-1.05-3.34-0.87-5.1c0-1.9,0-3.82-0.07-5.73c-0.28-0.27-0.59-0.47-0.96-0.54c-0.03-0.07-0.08-0.14-0.13-0.21
		c-0.93-0.17-2.07-0.55-2.9-0.65c-0.02,0.02-0.05,0.02-0.07,0.04c-0.09-0.03-0.19-0.03-0.29-0.05c-0.47,0.3-0.99,0.51-1.57,0.51
		c-0.03,0-0.06-0.01-0.09-0.01c-0.28,0.25-0.48,0.56-0.63,0.9c-0.46,2.25-0.82,4.54-0.81,6.78c0.59,0.38,1.42,0.58,2.52,0.51
		c0.17,0.52,0.52,0.93,0.92,1.29c0.55,0.28,1.08,0.6,1.52,1.05c0.47,0.53,1.32,2.61,0.34,2.89c-0.08,0.02-0.16,0.02-0.24,0.02
		c0.19,0.13,0.4,0.21,0.62,0.27c0.53-0.24,1.05-0.5,1.56-0.76C33.03,28.29,33.28,28.05,33.6,28.05z"/>
	<path class="st64" d="M37.18,3.43c-2.15-1.38-5.16-1.69-7.44-0.8c-1.33,0.55-2.49,1.46-3.51,2.49c2.04-1.17,4.56-1.63,7.16-1.78
		C34.81,3.09,36.06,3.15,37.18,3.43z"/>
	<path class="st64" d="M27.24,15.64c0.58,0,1.1-0.21,1.57-0.51c0.01,0,0.01-0.01,0.02-0.01c-0.16,0-0.3,0.01-0.41,0.04
		c-0.53,0.07-1.04,0.24-1.56,0.43c0.1,0.02,0.19,0.03,0.29,0.04C27.18,15.63,27.21,15.64,27.24,15.64z"/>
	<path class="st64" d="M43.71,30.7c-0.03,0.03-0.07,0.05-0.1,0.08c0.46,0.27,0.99,0.46,1.61,0.51c0.02,0,0.04,0,0.06,0
		c1.11,0,1.81-0.83,1.96-1.75c-1.16,0.26-2.28,0.89-3.47,1.11C43.75,30.66,43.73,30.68,43.71,30.7z"/>
	<path class="st64" d="M49.02,26.82c1.1,0.1,0.7,1.54-0.33,1.21c-2.63-1.2-3.52-3.81-3.97-6.55c-0.16-0.18-0.31-0.37-0.45-0.57
		c-0.05-0.4-0.1-0.81-0.15-1.22c0.05-0.5,0.1-0.99,0.18-1.48c-0.06-0.53-0.13-1.04-0.21-1.53c-0.3-2.33-1.01-4.62-1.97-6.73
		c-2.77-6.36-6.6-5.89-12.56-4.77c-3.03,0.39-5.37,2.76-6.2,5.62c-0.02,0.19-0.14,0.34-0.3,0.43c-0.1,1.13-0.04,2.24,0.41,3.28
		c0.54,0.31,1.19,0.4,1.8,0.14c0.03,0.04,0.07,0.07,0.11,0.11c0.1-0.03,0.19-0.06,0.29-0.09c0.05-0.23,0.11-0.46,0.16-0.68
		c0.18-0.69,1.24-0.49,1.18,0.2c0.61-0.22,1.23-0.39,1.9-0.33c1.01,0,2.13,0.38,3.09,0.55c0.29,0.1,0.71,0.11,1.06,0.21
		c-0.07-1.12-0.16-2.23-0.32-3.32c1.12-1.37,1.52,0.99,1.66,4.08c0.02,0.01,0.04,0.01,0.06,0.02c-0.02,0.06-0.04,0.12-0.05,0.19
		c0.02,0.49,0.03,1,0.05,1.51c0.04,0.08,0.07,0.17,0.07,0.26c0,0.09-0.02,0.17-0.06,0.25c0.04,2.83-0.04,5.67,0.07,6.53
		c0.11,0.27,0.23,0.53,0.36,0.78c-0.02,0.39-0.03,0.78-0.02,1.16c0.13,0.4,0.31,0.78,0.52,1.15c0.01-0.01,0.02-0.01,0.04-0.02
		c0.68-0.39,1.29,0.61,0.68,1.04c1.31,1.57,3.26,2.57,5.08,2.25c-1.85-0.56-3.29-2.35-3.25-4.34c-0.01-0.5,0.15-1.2,0.75-1.26
		c0.58-0.08,0.93,0.68,0.48,1.06c-0.09,2.34,1.96,3.66,4.07,3.47c0.09-0.09,0.19-0.16,0.29-0.26c0.24-0.22,0.61-0.24,0.86-0.02
		c1.69-0.6,3.41-1.47,5.21-0.79c0.13,0.04,0.24,0.12,0.32,0.22c0.49-0.01,0.97-0.07,1.38-0.23c0.06-0.1,0.13-0.18,0.21-0.26
		c-0.32-0.1-0.64-0.23-0.94-0.39c-0.29-0.15-0.54-0.36-0.78-0.59c0,0,0,0,0,0c-0.24-0.24-0.45-0.5-0.65-0.76
		c-0.16-0.21-0.3-0.42-0.44-0.64c-0.01-0.01-0.01-0.02-0.02-0.03c-0.04-0.03-0.09-0.06-0.13-0.08c-0.12-0.08-0.24-0.15-0.35-0.23
		c-0.39-0.25-0.79-0.52-1.17-0.83C47.51,25.42,48.14,26.2,49.02,26.82z"/>
	<path class="st64" d="M44.87,13.59c0.17,0.61,0.29,1.24,0.39,1.89C45.46,14.83,45.29,14.12,44.87,13.59z"/>
	<path class="st65" d="M26.37,80.35c0.08,0.04,0.17,0.08,0.25,0.12c0,0,0,0,0-0.01C26.54,80.42,26.45,80.38,26.37,80.35z"/>
	<path class="st65" d="M25.12,72.42c-0.03,0.07-0.06,0.15-0.1,0.22c-0.1,0.31-0.19,0.63-0.29,0.94c-0.12,0.24-0.27,0.48-0.41,0.71
		c-0.14,0.34-0.27,0.69-0.4,1.03c0.04-0.08,0.09-0.15,0.16-0.2C24.53,74.25,24.86,73.35,25.12,72.42z"/>
	<path class="st65" d="M29.88,62.83c0.01,0.03,0.02,0.06,0.02,0.1c0,0.01-0.01,0.02-0.01,0.03c0.84,0.04,1.7-0.02,2.52-0.08
		C31.53,62.73,30.63,62.68,29.88,62.83z"/>
	<path class="st65" d="M36.02,63.89c-0.15-0.15-0.32-0.29-0.5-0.4c-0.76,0.94-4.62,0.85-5.43,0.9c-0.39-0.01-0.97-0.05-1.55-0.16
		c-0.05,0.13-0.15,0.24-0.3,0.3c-0.08,0.15-0.14,0.31-0.21,0.46c-0.01,0.3,0.02,0.64,0.1,1.02c-0.04,0.09-0.08,0.18-0.12,0.28
		c-0.15,0.03-0.27,0.1-0.4,0.16c-0.73,4.05-1.52,9.73-3.3,9.84c-0.35-0.09-0.51-0.44-0.45-0.77c-0.17,0.48-0.32,0.96-0.44,1.45
		c0.09,0.36,0.22,0.7,0.39,1.02c1.05,0.31,2.08,0.69,3.09,1.11c0.01-0.08,0.02-0.16,0.02-0.24c0.02-0.33,0.27-0.6,0.61-0.6
		c0.57,0.05,0.69,0.6,0.59,1.34c0.78,0.32,1.56,0.64,2.36,0.9c0.78,0.1,1.57,0.1,2.37,0.09c0.22-0.49,0.7-0.71,1.63-0.39
		c0.1,0.03,0.17,0.07,0.24,0.12c0.53-0.21,1.06-0.46,1.57-0.71c0.3-0.21,0.71-0.18,0.94,0.12c0.27,0.37,0.13,0.68-0.13,0.93
		c0.15-0.02,0.28-0.06,0.42-0.11C37.14,74.97,36.94,69.37,36.02,63.89z"/>
	<path class="st65" d="M38.86,78.61c0-0.33-0.09-0.65-0.23-0.93c0.03,0.56,0.06,1.11,0.09,1.66c0.02-0.04,0.03-0.09,0.04-0.13
		C38.82,79.02,38.86,78.82,38.86,78.61z"/>
	<path class="st66" d="M58.14,136.99c0.43-0.5,0.77-1.06,1.02-1.64c0.02-0.3-0.05-0.59-0.27-0.85c-0.66-0.93-1.21-1.93-1.65-2.98
		c-0.03,0.1-0.1,0.19-0.21,0.27c-0.27,0.21-0.7,0.17-0.9-0.11c-0.13,0.3-0.62,0.5-1.31,0.64c0.04,0.21-0.01,0.45-0.17,0.6
		c-0.25,0.24-0.68,0.26-0.93,0c-0.05-0.14-0.1-0.28-0.15-0.41c-2.55,0.28-6.15,0.23-6.67,0.78c0.02-0.02,0.05-0.03,0.07-0.05
		c-0.08,0.08-0.16,0.17-0.25,0.25c0.01,0.3,0.07,0.62,0.23,0.98c-0.73,0.85-1.67,1.9-1.84,3.05c0.17,0.33,0.37,0.63,0.59,0.87
		c1.72,2.29,4.59,2.51,7.12,1.72c0.51-0.26,1-0.55,1.48-0.83c0.32-0.05,0.65-0.15,0.96-0.26c0.21-0.08,0.42-0.16,0.63-0.26
		c0.01-0.01,0.02-0.01,0.04-0.02C56.78,138.31,57.53,137.7,58.14,136.99z"/>
	<path class="st66" d="M59.29,132.67c0-0.03-0.01-0.06-0.01-0.09c-0.07-0.43-0.17-0.85-0.35-1.25c-0.17-0.3-0.39-0.54-0.65-0.72
		C58.56,131.32,58.9,132.01,59.29,132.67z"/>
	<path class="st66" d="M53.93,129.67c0.09,0.28,0.18,0.56,0.27,0.84c0.02,0.01,0.04,0,0.06,0.01c0.35-0.09,0.8-0.25,1.11-0.1
		C54.98,129.93,54.48,129.71,53.93,129.67z"/>
	<path class="st66" d="M55.68,130.79c0.01,0.04,0,0.08,0.01,0.12c0.07,0.01,0.14,0.03,0.21,0.05c0.02,0.02,0.03,0.04,0.05,0.07
		c-0.05-0.17-0.1-0.33-0.14-0.5c-0.06,0.03-0.13,0.06-0.19,0.11C55.63,130.68,55.66,130.73,55.68,130.79z"/>
	<path class="st66" d="M53.11,131.19c-0.16-0.46-0.33-0.92-0.49-1.38c-0.75,0.19-1.51,0.52-2.15,0.75
		c-0.77,0.26-1.73,0.58-2.49,1.04C49.66,131.32,51.43,131.44,53.11,131.19z"/>
	<path class="st66" d="M10.19,126.27c1.02,0.02,2.05,0.06,3.08,0.14c-0.24-0.08-0.48-0.16-0.72-0.23c-1.09-0.4-2.49-0.61-3.44,0.08
		C9.47,126.28,9.84,126.29,10.19,126.27z"/>
	<path class="st66" d="M2.56,131.91c0.19-1.71,0.46-3.51,1.78-4.68c-0.73,0.13-1.42,0.5-1.93,1.09c-1.41,1.66-0.99,3.47,0.22,4.74
		C2.52,132.66,2.54,132.25,2.56,131.91z"/>
	<path class="st66" d="M22.48,128.57c-0.39,1.45-0.72,2.91-1.1,4.36C22.19,131.59,22.76,129.96,22.48,128.57z"/>
	<path class="st66" d="M4.81,133.84c2.08,0.86,4.25,0.97,6.42,1.43c2.59,0.43,5.52,1.15,8.01,0.03c0,0,0,0,0,0c0,0,0,0,0,0
		c0.74-1.73,1.12-3.59,1.56-5.43c-0.27-0.11-0.41-0.39-0.38-0.67c-0.02,0.04-0.04,0.07-0.07,0.11c-0.21,0.16-0.57,0.18-0.77-0.02
		c-0.32-0.11-0.64-0.23-0.96-0.34c-0.03-0.01-0.05-0.01-0.08-0.02c-0.3,0.1-0.56-0.05-0.76-0.26c-0.02-0.01-0.03-0.01-0.05-0.02
		c-0.02,0.01-0.03,0.01-0.05,0.02c-0.08,0.27-0.32,0.47-0.6,0.47c-0.02,0-0.04,0-0.06,0c-0.06,0.25-0.11,0.49-0.18,0.74
		c-0.08,0.34-0.46,0.54-0.79,0.45c-0.35-0.09-0.52-0.45-0.45-0.79c0.11-0.46,0.22-0.92,0.33-1.39c-1.07-0.26-2.15-0.44-3.23-0.46
		c-2.06-0.07-4.15-0.2-6.21-0.09c0,0,0,0,0,0c0,0,0,0,0,0c-0.11,0.01-0.22,0-0.34,0.01c-1.18,0.4-1.88,1.6-2.06,2.76
		C3.85,131.64,3.41,133.15,4.81,133.84z"/>
	<path class="st66" d="M18.46,127.12c0.42-0.08,0.7,0.27,0.7,0.62c0.32,0.04,0.66,0.02,0.99-0.07c0.26-0.04,0.5,0.11,0.62,0.32
		c0.13-0.44,0.27-0.89,0.41-1.33C20.26,126.14,19.19,126.43,18.46,127.12z"/>
	<path class="st22" d="M28.43,43.55L28.43,43.55c0.01,0.01,0.02,0.02,0.02,0.03C28.45,43.57,28.44,43.56,28.43,43.55
		C28.43,43.55,28.43,43.55,28.43,43.55z"/>
	<polygon class="st22" points="28.42,43.54 28.43,43.54 28.42,43.54 	"/>
	<path class="st22" d="M28.24,43.31c0.01-0.02,0.03-0.03,0.04-0.05c-0.02,0.01-0.04,0.02-0.06,0.02
		C28.23,43.29,28.23,43.3,28.24,43.31z"/>
	<path class="st22" d="M37.36,61.11c0.33-0.05,0.55-0.36,0.52-0.68c-0.08-0.84-0.22-1.68-0.22-2.52c0.01-0.33-0.28-0.6-0.6-0.6
		c-1.19,0.15-0.31,2.45-0.38,3.29C36.71,60.93,37.04,61.16,37.36,61.11z"/>
	<path class="st22" d="M59.67,133.32c-0.02-0.04-0.04-0.07-0.06-0.11c-0.11-0.17-0.21-0.36-0.32-0.54
		c-0.39-0.66-0.73-1.34-1.02-2.06c-0.41-1.04-0.74-2.11-1.03-3.19c-0.09-0.33-0.45-0.53-0.78-0.44c-0.07,0.03-0.12,0.08-0.17,0.12
		c-0.57-2.52-1.16-5.03-1.81-7.54c-0.97-3.77-2.05-7.5-3.29-11.17c-0.03-0.07-0.05-0.15-0.07-0.22c-1.54-4.31-3.32-8.54-4.71-12.9
		c1.75-0.27,3.5-0.53,5.16-1.21c1.17-0.47,2.81-0.66,3.73-1.68c0.69-1.2-0.01-2.68-0.19-3.95c-0.84-3.98-2.25-7.81-3.92-11.52
		c-0.46-1.07-0.85-2.15-1.2-3.24c-0.55-1.72-0.99-3.47-1.31-5.29c-0.27-1.79-0.94-3.51-1.54-5.24c-0.2-0.57-0.39-1.15-0.55-1.73
		c-0.23-0.81-0.41-1.63-0.49-2.47c0.08-3.53-0.26-7.02-0.65-10.5c-0.21-1.94-0.44-3.89-0.61-5.83c-0.49-2.55-0.66-8.51-2.85-10.9
		c0.59-0.2,1.13-0.54,1.62-0.93c0.03-0.03,0.07-0.05,0.1-0.08c0.02-0.02,0.05-0.04,0.07-0.06c1.19-0.22,2.31-0.84,3.47-1.11
		c0.68-0.15,1.37-0.19,2.1,0.06c0.33,0.06,0.66-0.21,0.7-0.54c0.02-0.17-0.03-0.34-0.14-0.47c-0.08-0.1-0.19-0.18-0.32-0.22
		c-1.8-0.69-3.52,0.19-5.21,0.79c-0.25-0.22-0.61-0.2-0.86,0.02c-0.09,0.1-0.19,0.17-0.29,0.26c-2.11,0.19-4.16-1.13-4.07-3.47
		c0.45-0.38,0.1-1.14-0.48-1.06c-0.6,0.05-0.77,0.76-0.75,1.26c-0.04,1.98,1.4,3.78,3.25,4.34c-1.82,0.32-3.77-0.68-5.08-2.25
		c0.61-0.43,0-1.43-0.68-1.04c-0.01,0.01-0.02,0.01-0.04,0.02c-0.21-0.37-0.39-0.75-0.52-1.15c-0.19-0.57-0.31-1.16-0.3-1.75
		c-0.01-0.04-0.03-0.11-0.04-0.2c-0.11-0.86-0.03-3.7-0.07-6.53c0.04-0.08,0.06-0.16,0.06-0.25c0-0.1-0.03-0.18-0.07-0.26
		c-0.01-0.51-0.02-1.02-0.05-1.51c0-0.07-0.01-0.14-0.01-0.2c-0.14-3.08-0.54-5.45-1.66-4.08c0.15,1.09,0.24,2.21,0.32,3.32
		c-0.35-0.1-0.77-0.11-1.06-0.21c-0.96-0.17-2.08-0.55-3.09-0.55c-0.67-0.06-1.29,0.11-1.9,0.33c0.06-0.68-1-0.88-1.18-0.2
		c-0.06,0.23-0.11,0.45-0.16,0.68c-0.1,0.03-0.19,0.06-0.29,0.09c-0.44,0.12-0.88,0.18-1.35,0.12c-0.08-0.03-0.34-0.11-0.45-0.2
		c0,0-0.06-0.05-0.11-0.12c0,0,0.01,0,0.01,0c-0.01-0.02-0.01-0.03-0.02-0.05c-0.45-1.03-0.51-2.15-0.41-3.28
		c0.16-0.09,0.28-0.24,0.3-0.43c0.83-2.86,3.17-5.23,6.2-5.62c5.96-1.13,9.79-1.6,12.56,4.77c0.96,2.11,1.67,4.4,1.97,6.73
		c0.08,0.49,0.15,1,0.21,1.53c0.13,1.05,0.24,2.17,0.42,3.26c0.45,2.74,1.33,5.35,3.97,6.55c1.03,0.33,1.43-1.12,0.33-1.21
		c-0.88-0.62-1.51-1.4-1.98-2.27c-1.36-2.56-1.31-5.98-1.78-9.06c-0.1-0.65-0.23-1.29-0.39-1.89c-0.13-0.49-0.28-0.96-0.48-1.41
		c-1.29-4.1-3.43-7.79-7.21-8.75c-1.12-0.28-2.37-0.34-3.79-0.09c-2.59,0.16-5.12,0.61-7.16,1.78c-1.06,0.61-1.99,1.42-2.73,2.49
		c-0.16-0.54-1.1-0.58-1.19,0.1c-0.26,2.42-1.59,6.77,1,8.25c0.7,0.3,1.37,0.26,2.04,0.1c-0.33,1.49-0.6,3.01-0.75,4.53
		c0,0.04-0.01,0.08-0.01,0.12c-0.1,1.07-0.15,2.14-0.11,3.21c0.31,1.17,1.78,1.38,2.77,1.69c0.8,0.37,1.68,0.74,2.37,1.31
		c0.05,0.04,0.11,0.08,0.16,0.12c0.26,0.46,0.31,0.89,0.43,1.41c0.01,0.04,0.02,0.08,0.03,0.12c0.06,0.26,0.3,0.43,0.55,0.46
		c0.08,0.01,0.16,0.01,0.24-0.02c0.99-0.28,0.13-2.37-0.34-2.89c-0.45-0.45-0.97-0.77-1.52-1.05c-1.11-0.55-2.35-0.88-3.44-1.41
		c0-0.13,0-0.26,0-0.39c-0.01-2.25,0.35-4.53,0.81-6.78c0.06-0.3,0.12-0.59,0.19-0.88c0.05-0.02,0.1-0.04,0.15-0.06
		c0.52-0.19,1.04-0.36,1.56-0.43c0.11-0.04,0.26-0.05,0.41-0.04c0.1,0,0.21,0.01,0.33,0.02c0.83,0.1,1.97,0.48,2.9,0.65
		c0.41,0.07,0.77,0.1,1.05,0.05c0.01,0.23,0.03,0.46,0.04,0.69c0.07,1.91,0.07,3.83,0.07,5.73c-0.18,1.76,0.14,3.55,0.87,5.1
		c0.08,0.16,0.16,0.32,0.24,0.48c-0.12,0.06-0.23,0.13-0.35,0.19c-0.04,0.02-0.08,0.04-0.12,0.06c-0.08-0.04-0.17-0.06-0.27-0.06
		c-0.31,0-0.57,0.24-0.63,0.53c-0.52,0.26-1.04,0.51-1.56,0.76c-0.2,0.09-0.41,0.18-0.61,0.28c-0.08-0.1-0.2-0.17-0.36-0.2
		c-0.45,0.08-0.86,0.44-1.24,1.01c-0.6,0.4-1.18,0.96-1.22,1.55c0.08,0.21,0.17,0.34,0.27,0.43c-0.04,0.12-0.09,0.25-0.13,0.38
		c-0.28,0.83-0.54,1.78-0.79,2.82c-0.24,1.03-0.46,2.15-0.66,3.32c-0.06,0.05-0.11,0.12-0.15,0.21c-0.39-0.3-0.87,0.01-0.97,0.4
		c-0.02,0.08-0.02,0.16-0.01,0.24c0.02,0.09,0.05,0.17,0.12,0.26c0.11,0.14,0.23,0.26,0.35,0.39c-0.22-0.04-0.44-0.04-0.64,0.03
		c-0.17,0.06-0.32,0.17-0.45,0.34c-0.03,0.09-0.04,0.18-0.07,0.27c-0.03,0.12-0.07,0.24-0.08,0.36c-0.03-0.08-0.06-0.16-0.1-0.24
		c-0.91-2.28-1.69-5.18-0.87-7.5c0.02-0.05,0.02-0.09,0.04-0.14c0.09-0.12,0.22-0.23,0.36-0.24c0,0.03,0.1,0.01,0.14,0.03
		c0.1,0.22,0.17,0.45,0.25,0.69c0.31,0.97,0.42,2.06,0.64,3.06c0.03,0.12,0.05,0.26,0.08,0.38c0.07,0.34,0.47,0.54,0.79,0.45
		c0.3-0.08,0.52-0.39,0.47-0.71c-0.17-0.92-0.34-1.84-0.53-2.76c-0.2-0.95-0.44-2.34-1.65-2.4c-1.07,0.01-1.67,0.68-1.97,1.69
		c-0.63,2.11,0.13,5.69,1.04,7.81c0.26,0.61,0.53,1.1,0.79,1.4c0.03,0.04,0.07,0.05,0.11,0.08c-0.81,0.7,0.78,2.19,1.36,3.04
		c-0.13,1.22-0.23,2.42-0.32,3.57c-0.32-0.23-0.83-0.09-1.01,0.31c-0.59,1.92-0.88,3.91-1.29,5.9c-0.12,0.58-0.25,1.17-0.4,1.75
		c-0.13,0.46-0.27,0.93-0.41,1.39c-0.6,1.94-1.24,3.89-1.17,5.93c-0.56,0.64-1.01,1.33-1.43,2.05c-0.85,1.47-1.52,3.04-2.39,4.52
		c-0.24,0.4-0.48,0.79-0.75,1.17c-1.72,1.67-2.49,4.56,0.57,5.15c0.27,0.02,0.53,0,0.78-0.04c1.1-0.16,1.95-0.8,2.62-1.67
		c1.21-1.55,1.89-3.84,2.54-5.45c0.43-1.07,0.88-2.13,1.36-3.18c0.04-0.07,0.05-0.15,0.05-0.23c0.01-0.26-0.16-0.52-0.39-0.62
		c-0.34-0.14-0.7,0.03-0.85,0.35c-0.03,0.06-0.06,0.12-0.09,0.18c-0.18,0.33-0.35,0.68-0.5,1.03c-1.27,2.93-1.77,6.48-4.55,8.28
		c-0.09,0.03-0.18,0.06-0.27,0.08c-0.02,0.01-0.13,0.02-0.25,0.03l0.01-0.01c-2.17-0.25-0.99-2-0.06-2.99
		c1.51-2.07,2.38-4.52,3.75-6.66c0.19-0.3,0.39-0.59,0.61-0.88c0.03,0.01,0.06,0.01,0.09,0.01c1.29,0.32,1.73-0.91,0.45-1.46
		c0.02-2.17,0.84-4.25,1.44-6.35c0.27-1.02,0.48-2.05,0.69-3.08c0.18-0.91,0.37-1.84,0.55-2.77c0.06-0.3,0.12-0.61,0.19-0.91
		c-0.04,0.61-0.08,1.2-0.11,1.77c-0.04,0.69-0.07,1.34-0.09,1.94c-0.06,1.52-0.07,2.7-0.03,3.38c0.03,0.34,0.34,0.55,0.65,0.55
		c0.06,0,0.11-0.02,0.17-0.04c0,0.21-0.01,0.42-0.02,0.62c-0.23,2.1,0.04,3.24,0.88,3.85c0.08,0.06,0.16,0.11,0.25,0.16
		c-0.14,0.47-0.27,0.95-0.38,1.43c-0.11,0.3-0.21,0.59-0.34,0.83c-1.2,3.86-3.32,7.39-4.2,11.33c-1.94,1.47,1.83,2.06,2.78,2.46
		c0.52,0.16,1.04,0.37,1.56,0.6c0.08,0.04,0.17,0.07,0.25,0.11c0,0,0,0,0,0.01c-0.34,1.1-0.88,2.17-1.07,3.3
		c-1.51,5.97-2.51,12.12-3.53,18.23c-0.22,1.3-0.43,2.59-0.66,3.88c-0.57,2.81-1.35,5.56-2.13,8.31c-1,3.54-2,7.07-2.56,10.73
		c-0.12,0.63-0.27,1.28-0.43,1.93c-0.98-0.22-1.97-0.36-2.98-0.44c-1.02-0.08-2.06-0.12-3.08-0.14c-0.35,0.02-0.71,0.01-1.08,0
		c-0.19-0.01-0.38-0.02-0.57-0.03c-1.42-0.08-2.86-0.16-3.98,0.79c-0.08,0.06-0.14,0.13-0.22,0.2c-1.32,1.17-1.59,2.97-1.78,4.68
		c-0.03,0.35-0.04,0.75,0.06,1.15c0.02,0.07,0.03,0.14,0.06,0.21c0.21,0.54,0.55,0.96,0.94,1.28c1.29,1.07,3.34,1.2,4.93,1.56
		c2.07,0.34,4.13,0.82,6.23,1c0.54,0,1.17,0.04,1.82,0.04c0.16,0,0.32-0.01,0.48-0.01c1.54-0.05,3.07-0.39,3.59-1.88
		c0.27-0.77,0.49-1.55,0.7-2.33c0.38-1.45,0.71-2.91,1.1-4.36c0.03-0.11,0.06-0.23,0.09-0.34c0.08-0.29-0.06-0.58-0.32-0.72
		c0.38-1.24,0.78-2.48,1.17-3.71c0.18-0.57,0.35-1.15,0.55-1.72c0.01-0.03,0.03-0.07,0.04-0.1c1.48-3.61,2.57-7.33,3.52-11.1
		c1.13-4.51,2.05-9.08,3.16-13.6c0.4-1.63,0.82-3.24,1.29-4.85c0.55-1.88,1.16-3.75,1.86-5.59c0.09,0.29,0.18,0.58,0.27,0.87
		c2.62,8.45,6.86,16.28,11.08,24.05c0.37,0.69,0.74,1.37,1.12,2.05c0.81,1.59,1.54,3.22,2.23,4.86c0.93,2.24,1.77,4.52,2.58,6.81
		c0.29,0.83,0.59,1.66,0.88,2.5c0.21,0.61,0.43,1.22,0.64,1.83c0.16,0.46,0.33,0.92,0.49,1.38c-1.68,0.25-3.45,0.13-5.13,0.41
		c-0.54,0.09-1.08,0.22-1.6,0.43c-1.39,1.12-2.74,2.78-2.89,4.61c0.42,2.48,2.71,4.58,5.14,5.05c2.92,0.68,5.84-0.71,8.36-2.07
		c1.68-0.85,3.26-2.06,3.45-4.09C60.61,134.69,60.17,133.95,59.67,133.32z M37.93,31.27c-0.54,0.36-1.03,0.77-1.48,1.22
		c-1.78,1.8-2.97,4.23-4.26,6.37c-0.68,1.25-1.26,2.53-1.82,3.83c-0.02,0.04-0.04,0.09-0.06,0.13c-0.04-0.04-0.08-0.07-0.12-0.11
		c-0.92-0.84-1.76-1.75-2.34-2.81c-0.02-0.04-0.04-0.08-0.07-0.12c0.01-0.06,0.02-0.12,0.03-0.17c0.51-2.81,1.22-5.58,2.25-8.27
		c0.03-0.02,0.07-0.03,0.1-0.05c0.3,0.1,0.62-0.08,0.73-0.37c1-0.47,2.04-0.91,3.05-1.42c0.31-0.16,0.61-0.31,0.91-0.49
		c0.06-0.03,0.12-0.07,0.18-0.11C35.79,29.93,36.76,30.75,37.93,31.27z M28.71,62.83C28.71,62.84,28.71,62.84,28.71,62.83
		c-0.05,0-0.09-0.01-0.14-0.02c0.01-0.01,0.02-0.01,0.02-0.02c0.06-0.04,0.12-0.07,0.16-0.11C28.73,62.73,28.72,62.78,28.71,62.83z
		 M24.32,74.29c0.23-0.55,0.46-1.1,0.7-1.65c0.03-0.07,0.06-0.15,0.1-0.22c-0.26,0.93-0.59,1.83-1.04,2.7
		c-0.07,0.05-0.12,0.13-0.16,0.2C24.05,74.98,24.18,74.63,24.32,74.29z M4.1,130.37c0.18-1.16,0.88-2.36,2.06-2.76
		c0.11-0.01,0.22-0.01,0.34-0.01c0,0,0,0,0.01,0c2.06-0.11,4.15,0.02,6.21,0.09c1.08,0.02,2.16,0.2,3.23,0.46
		c-0.11,0.46-0.22,0.92-0.33,1.39c-0.08,0.34,0.1,0.69,0.45,0.79c0.33,0.09,0.7-0.1,0.79-0.45c0.06-0.25,0.12-0.49,0.18-0.74
		c0.02,0,0.04,0,0.06,0c0.28,0,0.53-0.2,0.6-0.47c0.02-0.01,0.03-0.01,0.05-0.02c0.02,0.01,0.03,0.01,0.05,0.02
		c0.2,0.21,0.45,0.36,0.76,0.26c0.03,0.01,0.05,0.01,0.08,0.02c0.32,0.11,0.65,0.22,0.96,0.34c0.2,0.21,0.55,0.19,0.77,0.02
		c0.03-0.04,0.05-0.07,0.07-0.11c-0.04,0.28,0.11,0.56,0.38,0.67c-0.44,1.84-0.82,3.7-1.56,5.43c0,0,0,0,0,0v0c0,0,0,0,0,0
		c-2.49,1.12-5.41,0.39-8.01-0.03c-2.16-0.46-4.34-0.56-6.42-1.43C3.41,133.15,3.85,131.64,4.1,130.37z M21.18,126.66
		c-0.14,0.44-0.28,0.88-0.41,1.33c-0.12-0.22-0.37-0.37-0.62-0.32c-0.33,0.09-0.66,0.11-0.99,0.07c-0.01-0.35-0.28-0.7-0.7-0.62
		c-0.02,0-0.04,0-0.06,0c-0.12,0.03-0.23,0.07-0.35,0.11c0.02-0.07,0.03-0.13,0.05-0.2c-0.15,0.09-0.32,0.15-0.5,0.18
		c-0.04,0.01-0.09,0.01-0.13,0.02c0.01-0.06,0.03-0.12,0.04-0.18c0.54-2.43,1-4.87,1.51-7.34c0.8-3.38,1.88-6.74,2.83-10.08
		c1.28-5.14,1.74-10.44,2.83-15.62c0.04-0.18,0.07-0.37,0.11-0.55c0.12-0.6,0.24-1.2,0.36-1.8c0.46-2.41,0.9-4.84,1.54-7.25
		c0.03-0.56,0.61-1.93,1.03-3.23c0.02-0.07,0.05-0.14,0.07-0.21c0.11,0.05,0.22,0.1,0.33,0.14c0.52,0.22,1.05,0.43,1.59,0.59
		c0.15,0.05,0.3,0.09,0.45,0.13c0.05,0.01,0.11,0.03,0.16,0.05c0.79,0.12,1.59,0.1,2.39,0.09c0.09,1.08,0.47,2.34,0.62,3
		c0,0.01,0.01,0.02,0.01,0.03c-1.12,1.92-1.52,4.23-2.32,6.3c-2.5,7.63-3.36,15.6-5.78,23.3C23.91,118.63,22.45,122.61,21.18,126.66
		z M42.48,104.09c-1.46-2.96-3.06-5.97-4.23-9.09c-1.24-2.98-2.57-5.99-3.45-9.12c0.14,0.01,0.28,0.01,0.42,0.03
		c0.2,0.62,1.17,0.47,1.16-0.19c0.03-0.57-0.48-0.96-1-1.03c-0.27,0.01-0.6-0.06-0.92-0.09c-0.2-0.87-0.36-1.75-0.46-2.64
		c0.54-0.05,1.05-0.26,1.55-0.5c0.26-0.12,0.52-0.25,0.78-0.36c0.25-0.09,0.54-0.24,0.75-0.44c0.26-0.25,0.39-0.56,0.13-0.93
		c-0.23-0.3-0.64-0.34-0.94-0.12c-0.51,0.25-1.04,0.5-1.57,0.71c-0.07-0.04-0.14-0.09-0.24-0.12c-0.93-0.32-1.41-0.1-1.63,0.39
		c-0.8,0.01-1.59,0.01-2.37-0.09c-0.79-0.27-1.57-0.58-2.36-0.9c0.1-0.75-0.02-1.29-0.59-1.34c-0.34,0-0.59,0.28-0.61,0.6
		c0,0.08-0.01,0.16-0.02,0.24c-1.01-0.42-2.04-0.8-3.09-1.11c-0.19-0.06-0.37-0.13-0.56-0.18c0.05-0.28,0.11-0.56,0.18-0.84
		c0.12-0.49,0.27-0.97,0.44-1.45c-0.06,0.33,0.1,0.68,0.45,0.77c1.78-0.11,2.57-5.79,3.3-9.84c0.06-0.32,0.12-0.63,0.17-0.93
		c0.08-0.18,0.16-0.36,0.25-0.53c0.07-0.15,0.13-0.31,0.21-0.46c0.15-0.06,0.25-0.17,0.3-0.3c0.57,0.11,1.15,0.14,1.55,0.16
		c0.81-0.05,4.67,0.05,5.43-0.9c0.15-0.18,0.19-0.4,0.06-0.66c-0.16-0.29-0.51-0.39-0.81-0.27c-0.09,0.02-0.18,0.04-0.27,0.06
		c-0.04-0.03-0.07-0.06-0.11-0.09c-0.34-0.2-0.76,0.07-1.08,0.28c-0.29,0.02-0.59,0.05-0.89,0.07c-0.82,0.07-1.68,0.12-2.52,0.08
		c0-0.01,0.01-0.02,0.01-0.03c0-0.03-0.01-0.07-0.02-0.1c-0.05-0.28-0.29-0.51-0.59-0.51c-0.19,0-0.36,0.1-0.47,0.24
		c0.04-0.07,0.07-0.14,0.07-0.22c0.58-0.17,0.54-1.32-0.19-1.52c-0.64-0.13-1.07,0.39-1.43,0.89c-0.07,0.09-0.13,0.18-0.2,0.27
		c-0.01-0.05-0.02-0.1-0.02-0.15c-0.02-0.64-0.01-1.3,0-1.97c0.02-1.15,0.06-2.31,0.06-3.43c-0.1-0.73,0.31-1.7-0.19-2.29
		c-0.19-0.14-0.37-0.15-0.53-0.1c0.07-1.33,0.14-2.66,0.23-3.99c0.04-0.62,0.08-1.23,0.12-1.85c0.25,0.62,0.52,1.25,0.82,1.86
		c0.7,1.43,1.55,2.78,2.65,3.83c1,0.97,2.2,1.69,3.65,2c0.06,0.01,0.12,0.01,0.18,0.01c0.31,0,0.6-0.09,0.87-0.21
		c0.32-0.15,0.62-0.36,0.89-0.6c1.69-1.36,3.19-2.89,4.45-4.66c1.04-0.04,0.78-1.39-0.19-1.24c-0.46,0-0.8,0.44-1.07,0.76
		c-1.18,1.71-2.73,3.08-4.35,4.37c-0.26,0.2-0.59,0.32-0.95,0.21c-0.81-0.33-1.51-0.79-2.14-1.31c-0.79-0.65-1.46-1.42-2.03-2.29
		c0.14,0.1,0.28,0.2,0.43,0.3c0.05,0.03,0.09,0.07,0.14,0.1c0.28,0.18,0.68,0.06,0.85-0.22c0.38-0.72-0.58-1.01-0.98-1.43
		c-1-0.87-1.75-1.97-2.47-3.09c-0.13-0.37-0.26-0.75-0.38-1.12c-0.1-0.01-0.2-0.04-0.29-0.07c-0.03-0.01-0.07-0.02-0.1-0.03
		c-0.02-0.01-0.04-0.02-0.06-0.03c-0.31-0.47-0.64-0.93-1-1.37c0.12-0.17,0.16-0.39,0.08-0.6c-0.04-0.09-0.1-0.16-0.17-0.21
		c0.01-0.03,0.02-0.05,0.03-0.08c0.02-0.04,0.05-0.09,0.08-0.13c-0.02-0.07-0.03-0.14-0.04-0.22c0-0.06,0-0.13,0.02-0.19
		c0-0.01,0-0.02,0-0.03c0-0.01,0.01-0.02,0.01-0.04c0,0,0,0,0,0c0,0,0,0,0,0c-0.02-0.03-0.05-0.06-0.08-0.1
		c-0.16-0.2-0.3-0.41-0.43-0.62c0,0,0-0.01,0-0.01c-0.06-0.1-0.07-0.22-0.06-0.33c0.01-0.17,0.1-0.34,0.25-0.44
		c0.09-0.06,0.19-0.07,0.3-0.07c0.22,0,0.43,0.11,0.51,0.32c0.02,0.05,0.05,0.1,0.07,0.15c0,0,0,0.01,0,0.01
		c0.03,0.08,0.07,0.15,0.11,0.23c0,0.01,0.01,0.01,0.01,0.02c0,0,0,0,0,0c0,0,0,0,0,0c0.16-0.08,0.33-0.12,0.52-0.1
		c0.1,0.01,0.2,0.04,0.28,0.08c0.71,0.76,1.36,1.56,2.11,2.28c-0.02,0.04-0.03,0.08-0.05,0.12c-0.02,0.03-0.03,0.06-0.05,0.09
		c0.08-0.01,0.16-0.04,0.24-0.08c0.09,0.08,0.18,0.16,0.26,0.23c-0.06,0.16-0.08,0.33-0.03,0.49c0.07,0.31,0.4,0.5,0.7,0.46
		c0.14-0.02,0.26-0.08,0.35-0.18c0.18,0.11,0.36,0.23,0.56,0.33c0.62,0.37,1.28-0.49,0.77-0.99c-0.12-0.11-0.25-0.22-0.37-0.32
		c-0.12-0.11-0.24-0.21-0.37-0.32c0.19-0.44,0.38-0.88,0.57-1.32c0.2-0.4,0.4-0.81,0.6-1.23c1.5-3.06,3.12-6.26,5.68-8.51
		c0.01,0,0.01,0.01,0.02,0.01c0.4,0.12,0.8-0.25,0.77-0.63c3.95-1.41,4.26,9.44,4.7,11.98c0.28,4.14,1.14,8.23,1.08,12.39
		c-0.41,4.75,2.23,8.85,2.89,13.44c1.19,6.26,4.58,11.86,6.05,18.04c0.27,1.12,0.48,2.26,0.59,3.43c0,0.22-0.14,0.37-0.33,0.47
		c-0.06,0.03-0.12,0.06-0.18,0.09c-2.49,1.13-5.18,1.61-7.86,2.09c-0.2-0.06-0.43-0.02-0.6,0.11c-1.32,0.24-2.64,0.5-3.93,0.84
		c-0.22,0.06-0.44,0.11-0.66,0.17c-0.69-2.63-1.12-5.29-1.41-7.98c-0.08-0.72-0.15-1.45-0.21-2.18c-0.16-1.86-0.27-3.73-0.37-5.6
		c-0.03-0.55-0.06-1.11-0.09-1.66c-0.17-3.24-0.36-6.49-0.76-9.71c-0.2-3-0.77-5.86-1.56-8.77c-0.35-0.75-0.38-3.24-1.35-3.37
		c-0.07-0.01-0.14-0.01-0.22,0.01c-0.53,0.14-0.54,0.75-0.33,1.17c0,0,0,0.01,0,0.01c0.32,1.02,0.6,2.05,0.85,3.09
		c0.3,1.25,0.56,2.52,0.77,3.79c0.92,5.48,1.12,11.08,1.48,16.66c0.04,0.69,0.09,1.37,0.14,2.05c0.1,1.33,0.21,2.65,0.36,3.97
		c0.32,2.85,0.5,5.76,1.27,8.54c0.14,0.48,0.39,0.96,0.86,1.19c0.41,0.23,0.87,0.13,1.29-0.01c0.28-0.09,0.57-0.17,0.85-0.24
		c0.5-0.13,1.01-0.23,1.52-0.32c0.39-0.07,0.78-0.15,1.18-0.22c0.06-0.01,0.13-0.02,0.19-0.03c0.06,0.26,0.14,0.51,0.22,0.76
		c0.14,0.39,0.28,0.77,0.4,1.16c0.2,0.54,0.39,1.09,0.59,1.63c0.42,1.14,0.84,2.29,1.26,3.43c1.74,4.69,3.46,9.38,4.73,14.23
		c1.35,4.55,2.13,9.29,3.43,13.84c0.05,0.17,0.1,0.33,0.14,0.5c-0.02-0.02-0.03-0.04-0.05-0.07c-0.07-0.02-0.14-0.04-0.21-0.05
		c0-0.04,0-0.07-0.01-0.12c-0.02-0.06-0.05-0.11-0.07-0.16c-0.06-0.1-0.13-0.17-0.22-0.21c-0.31-0.15-0.77,0-1.11,0.1
		c-0.02-0.01-0.04,0-0.06-0.01c-0.09-0.28-0.18-0.56-0.27-0.84c-0.1-0.31-0.19-0.62-0.3-0.93c-0.69-2.22-1.46-4.42-2.3-6.58
		c-0.43-1.11-0.89-2.21-1.36-3.31C47.81,113.78,45.26,108.86,42.48,104.09z M55.94,138.72c-0.01,0.01-0.02,0.01-0.04,0.02
		c-0.42,0.2-0.83,0.4-1.24,0.59c-0.14,0.07-0.29,0.14-0.43,0.21c-0.45,0.22-0.92,0.41-1.4,0.56c-2.53,0.8-5.4,0.57-7.12-1.72
		c-0.22-0.24-0.42-0.54-0.59-0.87c-0.13-0.25-0.24-0.51-0.3-0.78c0.07-1.26,1.01-2.33,1.9-3.24c0.08-0.08,0.17-0.17,0.25-0.25
		c-0.02,0.02-0.05,0.03-0.07,0.05c0.52-0.55,4.12-0.5,6.67-0.78c0.05,0.14,0.1,0.28,0.15,0.41c0.24,0.26,0.68,0.24,0.93,0
		c0.16-0.16,0.21-0.39,0.17-0.6c0.69-0.15,1.17-0.35,1.31-0.64c0.2,0.28,0.63,0.32,0.9,0.11c0.11-0.08,0.17-0.17,0.21-0.27
		c0.45,1.05,0.99,2.05,1.65,2.98c0.22,0.26,0.28,0.55,0.27,0.85c-0.01,0.17-0.04,0.35-0.1,0.53c-0.09,0.29-0.22,0.57-0.34,0.82
		C58.03,137.6,57,138.2,55.94,138.72z"/>
	<path class="st22" d="M24.66,80.75c0.16,0.14,0.25,0.33,0.27,0.52c0.01,0.01,0.02,0.02,0.03,0.03c-0.03-0.14-0.06-0.27-0.08-0.4
		c0-0.57-0.5-1.07-1.04-0.7c-0.05,0.03-0.09,0.07-0.12,0.12c0.02,0.01,0.03,0.01,0.05,0.02c0.07,0.03,0.13,0.07,0.2,0.11
		C24.21,80.49,24.47,80.58,24.66,80.75z"/>
</g>
</svg>
