<?xml version="1.0" encoding="utf-8"?>
<!-- Generator: Adobe Illustrator 27.7.0, SVG Export Plug-In . SVG Version: 6.00 Build 0)  -->
<svg version="1.1" id="圖層_1" xmlns="http://www.w3.org/2000/svg" xmlns:xlink="http://www.w3.org/1999/xlink" x="0px" y="0px"
	 viewBox="0 0 65 142" style="enable-background:new 0 0 65 142;" xml:space="preserve">
<style type="text/css">
	.st0{fill:none;}
	.st1{fill:#294A26;}
	.st2{fill:#1F2214;}
	.st3{fill:#9E6924;}
	.st4{fill:#164323;}
	.st5{fill:#293B1D;}
	.st6{fill:#2A4D28;}
	.st7{fill:#749A2F;}
	.st8{fill:#76933C;}
	.st9{fill:#5F7D33;}
	.st10{fill:#3F562A;}
	.st11{fill:#101D0A;}
	.st12{fill:#C89A5D;}
	.st13{fill:#F2C1A3;}
	.st14{fill:#A87762;}
	.st15{fill:#3E3526;}
	.st16{fill:#28201C;}
	.st17{fill:#040000;}
	.st18{fill:#41617E;}
	.st19{fill:#DDB3A2;}
	.st20{fill:#A34529;}
	.st21{fill:#E7D0C8;}
	.st22{fill:#282828;}
	.st23{fill:#B1927D;}
	.st24{fill:#A3A399;}
	.st25{fill:#BF8466;}
	.st26{fill:#424242;}
	.st27{fill:#552D18;}
	.st28{fill:#A1BA39;}
	.st29{fill:#E2E1E1;}
	.st30{fill:#0D2037;}
	.st31{fill:#968272;}
	.st32{fill:#9CA2C4;}
	.st33{fill:#928884;}
	.st34{fill:#DCA88D;}
	.st35{fill:#BBB6C5;}
	.st36{fill:#9C6D4D;}
	.st37{fill:#080605;}
	.st38{fill:#2A6031;}
	.st39{fill:#FEFAFC;}
	.st40{fill:#509AB3;}
	.st41{fill:#4F431E;}
	.st42{fill:#3D6832;}
	.st43{fill:#84B733;}
	.st44{fill:#1B2912;}
	.st45{fill:#806F68;}
	.st46{fill:#4A3332;}
	.st47{fill:#9BD7F0;}
	.st48{fill:#78484B;}
	.st49{fill:#A1D9F2;}
	.st50{fill:#523D38;}
	.st51{fill:#C1A09C;}
	.st52{fill:#65676D;}
	.st53{fill:#C7BBAC;}
	.st54{fill:#5E6166;}
	.st55{fill:#CA997D;}
	.st56{fill:#C6C2B6;}
	.st57{fill:#17151C;}
	.st58{fill:#5D5A5C;}
	.st59{fill:#030810;}
	.st60{fill:none;stroke:#040000;stroke-width:0;stroke-linecap:round;stroke-linejoin:round;}
	.st61{fill:#9F8D89;}
	.st62{fill:#EECFCD;}
	.st63{fill:#BACAE8;}
	.st64{fill:#370504;}
	.st65{fill:#212022;}
	.st66{fill:#EC6B5E;}
</style>
<g>
	<path class="st0" d="M58.37,44.89c0.01-0.01,0.03-0.02,0.04-0.03c-0.02-0.05-0.04-0.1-0.05-0.15
		C58.37,44.77,58.37,44.83,58.37,44.89z"/>
	<path class="st0" d="M30.88,36.39c-0.08,0.22-0.14,0.44-0.21,0.66c0.07-0.06,0.14-0.13,0.22-0.19
		C30.89,36.7,30.89,36.55,30.88,36.39z"/>
	<path class="st0" d="M44.9,56.65c-0.17,0.05-0.33,0.1-0.5,0.15c0.69-0.05,1.38-0.12,2.07-0.21c-0.24-0.03-0.46-0.1-0.68-0.22
		C45.49,56.47,45.19,56.56,44.9,56.65z"/>
	<path class="st0" d="M56.79,53.9c-0.08,0.38-0.14,0.75-0.14,1.1c0,0.11-0.01,0.21-0.01,0.31c0.16-0.34,0.24-0.72,0.19-1.06
		C56.82,54.14,56.8,54.02,56.79,53.9z"/>
	<path class="st0" d="M2.05,41.35c-0.05,0.3-0.11,0.6-0.16,0.9c0.24,0.02,0.48,0.05,0.71,0.07C2.33,42.06,2.15,41.73,2.05,41.35z"/>
	<path class="st0" d="M8.86,69.68c0.13,0.06,0.27,0.11,0.41,0.15c-0.15-0.14-0.28-0.3-0.4-0.47C8.87,69.47,8.86,69.58,8.86,69.68z"
		/>
	<path class="st0" d="M34.36,34.27c0-0.27,0-0.54,0-0.81c-0.23,0.08-0.45,0.17-0.68,0.25c0.13,0.06,0.26,0.13,0.38,0.22
		C34.19,34.03,34.27,34.15,34.36,34.27z"/>
	<path class="st0" d="M28.33,41.78c0.06,0.27,0.11,0.55,0.16,0.82c0.14-2.05,0.27-4.19,0.89-6.13c-0.32,0.53-0.61,1.08-0.82,1.67
		C28.11,39.36,27.84,40.53,28.33,41.78z"/>
	<path class="st0" d="M47.06,48.18c-0.45,0.06-0.91,0.08-1.37,0.06C46.15,48.29,46.61,48.28,47.06,48.18z"/>
	<path class="st0" d="M19.28,25.07c0.64,0.07,1.29,0.05,1.91-0.06c0.13-0.04,0.25-0.02,0.37,0.03c-0.21-0.15-0.3-0.42-0.24-0.68
		c0-0.05,0.01-0.09,0.01-0.14c-0.49,0.29-1.06,0.47-1.69,0.46C19.53,24.82,19.41,24.95,19.28,25.07z"/>
	<path class="st0" d="M52.02,47.07c0-0.03,0.01-0.06,0.01-0.09c-0.04-0.07-0.08-0.15-0.11-0.23c-0.12-0.25-0.16-0.49-0.16-0.73
		c-0.14,0.13-0.27,0.26-0.42,0.38c-0.06,0.06-0.12,0.12-0.18,0.18C51.51,46.69,51.8,46.85,52.02,47.07z"/>
	<path class="st0" d="M7.82,45.38c0,0.05,0.01,0.09,0.01,0.14c0.01-0.08,0.01-0.16,0.01-0.24C7.83,45.32,7.82,45.35,7.82,45.38z"/>
	<path class="st0" d="M12.44,123.11c0.24-0.05,0.48-0.08,0.72-0.11c0-0.35-0.01-0.71-0.01-1.06
		C13.01,122.4,12.78,122.8,12.44,123.11z"/>
	<path class="st0" d="M10.75,128.16c-0.05,0-0.11,0-0.16,0c-0.04,0.03-0.07,0.06-0.11,0.09c0.04-0.01,0.08-0.02,0.12-0.02
		C10.65,128.19,10.7,128.18,10.75,128.16z"/>
	<path class="st0" d="M6.97,40.01c0.12,0.08,0.24,0.16,0.36,0.25c0.03,0.02,0.06,0.04,0.09,0.06c-0.09-0.23-0.19-0.45-0.26-0.68
		C7.09,39.76,7.03,39.89,6.97,40.01z"/>
	<path class="st0" d="M9.08,132.75c0,0.05,0,0.11,0,0.16c0,0,0,0,0,0c0.03,0.01,0.06,0.01,0.08,0.02
		C9.14,132.87,9.11,132.81,9.08,132.75z"/>
	<path class="st0" d="M9.24,93.36c0,0.1,0,0.2-0.01,0.31c0.02-0.09,0.04-0.18,0.06-0.27C9.27,93.38,9.26,93.37,9.24,93.36z"/>
	<path class="st0" d="M56.3,48.72c-0.02-0.35-0.04-0.71-0.01-1.04c-0.07,0.01-0.15,0.02-0.22,0.03c-0.09,0.05-0.19,0.09-0.29,0.13
		C56.01,48.08,56.18,48.39,56.3,48.72z"/>
	<path class="st0" d="M34.4,60.53c-0.23-0.23-0.44-0.47-0.64-0.72c-0.51-0.28-0.97-0.62-1.34-1.04c0.22,2.2,0.39,4.41,0.57,6.61
		c0.68-1.54,1.56-3,2.44-4.44C35.07,60.9,34.71,60.77,34.4,60.53z"/>
	<path class="st0" d="M12.36,63.3c0.07,0.01,0.14,0.01,0.21,0.03c-0.05-0.1-0.11-0.2-0.16-0.31c-0.02-0.04-0.04-0.08-0.06-0.13
		c0,0.06,0,0.12,0,0.18C12.35,63.14,12.36,63.22,12.36,63.3z"/>
	<path class="st0" d="M37.98,58.22c0.19-0.05,0.37-0.07,0.56-0.11c-0.33-0.03-0.67-0.08-1-0.13c0.05,0.11,0.1,0.23,0.13,0.34
		C37.78,58.29,37.87,58.25,37.98,58.22z"/>
	<path class="st0" d="M14.1,66.71C14.1,66.7,14.1,66.7,14.1,66.71c-0.04,0.14-0.08,0.28-0.12,0.42c0.35,0.05,0.7,0.09,1.06,0.12
		C14.71,67.1,14.37,66.93,14.1,66.71z"/>
	<path class="st0" d="M43.46,132.89c-0.21,0.2-0.47,0.33-0.75,0.42c0.28,0,0.56,0.01,0.83,0.02c0.03-0.15,0.06-0.31,0.09-0.46
		C43.56,132.87,43.51,132.89,43.46,132.89z"/>
	<path class="st0" d="M7.81,45.78c-0.04,0.45-0.14,0.92-0.11,1.21c-0.07,1.1-0.1,2.21-0.12,3.31c-0.01,0.31-0.01,0.68,0.11,0.98
		C7.66,49.44,7.69,47.61,7.81,45.78z"/>
	<path class="st0" d="M27.63,113.1c-0.24-0.22-0.46-0.48-0.63-0.76c0.08,0.23,0.16,0.47,0.19,0.72
		C27.34,113.06,27.49,113.07,27.63,113.1z"/>
	<path class="st0" d="M7.73,53.45c0-0.16-0.01-0.31-0.02-0.47c-0.03-0.01-0.07-0.02-0.1-0.03c-0.19-0.06-0.35-0.16-0.5-0.27
		c-0.02,0.24-0.04,0.49-0.05,0.73C7.31,53.38,7.53,53.41,7.73,53.45z"/>
	<path class="st0" d="M58.98,106.76c-0.19-1.24-0.36-2.49-0.53-3.74c0.15,1.26,0.19,2.52,0.26,3.78
		C58.8,106.78,58.89,106.77,58.98,106.76z"/>
	<path class="st0" d="M47.62,125.17c0,0.05,0,0.11,0,0.16c0.01,0,0.02,0,0.03,0C47.63,125.29,47.63,125.23,47.62,125.17z"/>
	<path class="st0" d="M29.41,29.49c0.03,0,0.05,0,0.08,0c-0.19-0.14-0.39-0.27-0.58-0.4C29.08,29.23,29.24,29.36,29.41,29.49z"/>
	<path class="st0" d="M31.22,59.15c-0.07-0.8-0.16-1.61-0.25-2.41c0,0.58,0.01,1.16,0.01,1.74C31.07,58.7,31.15,58.93,31.22,59.15z"
		/>
	<path class="st0" d="M28,123.89c-0.11,0.33-0.3,0.61-0.52,0.87c0.1-0.01,0.19-0.01,0.29-0.02c0.16-0.24,0.4-0.32,0.63-0.28
		c0.02-0.34,0.03-0.67,0.05-1.01C28.32,123.61,28.18,123.76,28,123.89z"/>
	<path class="st0" d="M40.59,126.62c-0.06-0.01-0.11-0.01-0.17-0.01c-0.1,0.01-0.2,0.01-0.3,0c-0.05,0.19-0.11,0.38-0.15,0.58
		C40.15,126.95,40.35,126.76,40.59,126.62z"/>
	<path class="st0" d="M29.75,91.71c0.28-1.54,0.53-3.09,0.71-4.65C30.23,88.61,29.99,90.16,29.75,91.71z"/>
	<path class="st0" d="M29.23,113.7c0.53,0.05,1.06,0.11,1.58,0.2c-0.26-0.14-0.52-0.28-0.77-0.44
		C29.77,113.61,29.5,113.68,29.23,113.7z"/>
	<path class="st0" d="M28.57,113.64c0.01,0,0.01,0,0.02,0C28.58,113.64,28.57,113.64,28.57,113.64
		C28.57,113.64,28.57,113.64,28.57,113.64z"/>
	<path class="st0" d="M25.35,14.23c-0.14,0.06-0.29,0.11-0.44,0.12c-0.02,0.01-0.05,0.01-0.07,0.02c0.21,0.12,0.4,0.27,0.56,0.46
		C25.39,14.63,25.37,14.43,25.35,14.23z"/>
	<path class="st0" d="M27.71,102.74c-0.3,1.69-0.54,3.38-0.71,5.08c0.08-0.25,0.16-0.51,0.27-0.74
		C27.34,105.62,27.51,104.18,27.71,102.74z"/>
	<path class="st0" d="M54.53,113.95c1-0.04,2-0.07,2.99-0.11c-0.51-0.04-1-0.09-1.42-0.13C55.58,113.8,55.05,113.88,54.53,113.95z"
		/>
	<path class="st0" d="M33.76,67.43c-0.15,0.51-0.3,1.02-0.44,1.53c0.11-0.28,0.21-0.55,0.32-0.83
		C33.69,67.9,33.73,67.67,33.76,67.43z"/>
	<path class="st23" d="M9.55,71.31c-0.02,0-0.04-0.01-0.05-0.01c-0.01,0.27-0.01,0.53-0.02,0.8c0.01-0.21,0.02-0.43,0.03-0.64
		C9.52,71.4,9.54,71.36,9.55,71.31z"/>
	<path class="st23" d="M6.48,118.91c0.07-5.33,0.52-10.64,1.01-15.94c-0.45,2.82-0.87,5.65-1.38,8.46
		c-0.56,3.43-0.97,6.9-0.68,10.38c0.01,0.96,0.44,1.82,1.1,2.46C6.48,122.49,6.43,120.71,6.48,118.91z"/>
	<path class="st23" d="M8.47,85.29c0.05-0.5,0.1-1,0.15-1.5C8.57,84.29,8.51,84.79,8.47,85.29z"/>
	<path class="st23" d="M14.66,95.92c-0.24,2.79-0.36,5.59-0.4,8.41C14.49,101.53,14.65,98.73,14.66,95.92z"/>
	<path class="st23" d="M19.02,75.4c-0.4-0.31-0.19-0.98,0.28-1.07c0,0,0,0,0,0c0.02,0,0.03-0.01,0.05-0.01c0.03,0,0.05,0,0.08-0.01
		c-0.05,0-0.09,0.01-0.13,0.02c2.08-0.14,2.64,10.49,2.91,12.38c1.81,12.71,1.75,25.58,0.84,38.36c0.43-0.05,0.86-0.09,1.29-0.13
		c0.35-0.27,0.78-0.44,1.24-0.44c0.39,0,0.75,0.12,1.06,0.31c0.28-0.01,0.57-0.03,0.85-0.05c0.22-0.26,0.41-0.55,0.52-0.87
		c0.18-0.13,0.32-0.28,0.45-0.44c0.14-2.78,0.12-5.58,0.36-8.34c-1.11-0.01-2.49,0.18-3-0.89c-0.11-0.36,0.03-0.73,0.03-1.1
		c0-0.42-0.31-0.75-0.33-1.17c0.01-3.64,0.46-7.32,1.18-10.89c1.26-5.38,1.98-10.87,2.85-16.32c0.21-1.49,0.43-2.97,0.65-4.46
		c-0.05,0.01-0.1,0.02-0.16,0.02c-1.02-0.22-0.34-1.64-0.3-2.26c0.51-1.97,0.97-3.94,1.45-5.92c-1.38,0.51-3.08,0.69-4.2,0.68
		c-1.32,0.18-2.65,0.4-3.97,0.09c-1.16-0.17-2.19-0.81-3.29-1.1c-0.43-0.05-0.85-0.1-1.29-0.13c-1.77-0.05-3.63-0.03-5.38-0.36
		c-0.76,0.08-1.56,0.17-2.33,0.15c0.02,0.32,0,0.65-0.01,0.98c-0.16,5.77-0.96,11.59-1.37,17.33c-0.06,1.19-0.09,2.39-0.11,3.59
		c0.02,0.01,0.04,0.02,0.05,0.03c-0.02,0.09-0.04,0.18-0.06,0.27c-0.04,2.32-0.07,4.64-0.29,6.91c-0.68,8.02-1.51,15.99-1.13,24.04
		c0.8-0.34,1.61-0.66,2.44-0.93c0.59-0.38,1.26-0.59,1.88-0.51c0.1-0.02,0.2-0.04,0.3-0.06c0.34-0.31,0.57-0.71,0.72-1.17
		c-0.12-13.36-1.14-27.03,2.83-39.95c0.08-0.32,0.44-0.51,0.75-0.43c0.11,0.03,0.2,0.1,0.27,0.18c0.76-1.79,1.65-3.53,2.32-5.35
		C19.23,76.06,19.13,75.72,19.02,75.4z M26.08,79.58c-1.11,0-1.95-0.81-2.84-1.34c-0.76-0.11-0.66-1.3,0.1-1.28
		c1.14,0.12,1.87,1.49,3.08,1.29c0.67,0.08,1.26-0.67,1.79-0.06C28.83,79.4,26.89,79.61,26.08,79.58z"/>
	<path class="st23" d="M28.56,113.64c-0.34-0.1-0.66-0.29-0.94-0.53c-0.14-0.03-0.29-0.04-0.44-0.04c0.02,0.19,0.03,0.38-0.02,0.58
		C27.64,113.61,28.1,113.62,28.56,113.64C28.57,113.64,28.57,113.64,28.56,113.64z"/>
	<path class="st23" d="M22.17,116.48c0.11-2.49,0.19-4.98,0.21-7.46C22.17,111.48,22.06,113.99,22.17,116.48z"/>
	<path class="st23" d="M20.2,80.4c-0.13-0.86-0.29-1.72-0.48-2.57C19.68,78.67,19.92,79.53,20.2,80.4z"/>
	<path class="st24" d="M27.63,113.1c0.28,0.25,0.6,0.44,0.94,0.53c0.01,0,0.02,0,0.03,0.01c0.21,0.01,0.43,0.04,0.64,0.06
		c0.27-0.02,0.54-0.09,0.81-0.24c0.25,0.15,0.51,0.3,0.77,0.44c2.53,0.41,5.02,1.14,7.53,1.37c2.2,0.06,4.38-0.15,6.56-0.42
		c0.8-1.09,2.25-1.07,3.13-0.39c0.09-0.01,0.17-0.02,0.26-0.03c0.21-0.25,0.55-0.25,0.8-0.09c0.65-0.07,1.29-0.13,1.94-0.18
		c1.16-0.11,2.32-0.17,3.49-0.21c0.53-0.08,1.05-0.15,1.57-0.24c0.42,0.04,0.91,0.09,1.42,0.13c0.08,0,0.16-0.01,0.23-0.01
		c0.28-0.87,1.89-0.58,2.59-0.87c0.6-0.12,1.24-0.34,1.77-0.63c0.16-0.07,0.25-0.22,0.23-0.4c-0.2-1.7-0.41-3.39-0.73-5.07
		c-0.92-6.05-2.53-11.93-3.89-17.88C55.87,81.42,55.13,73.5,53.28,66c-0.54-1.56-1.37-2.96-2.44-4.21
		c-0.08-0.19-0.17-0.38-0.25-0.57c-0.48-0.06-0.92-0.28-1.25-0.61c-2.6,0.7-5.36,0.81-8.03,0.52c-0.52-0.01-2.42-0.27-3.74-0.75
		c0,0.34-0.24,0.67-0.61,0.67c-0.76,1.47-1.85,2.84-2.51,4.33c-0.24,0.68-0.46,1.36-0.67,2.05c-0.04,0.23-0.08,0.47-0.11,0.7
		c-0.11,0.27-0.21,0.55-0.32,0.83c0,0.01-0.01,0.03-0.01,0.04c0.03,0.33,0.06,0.66,0.09,0.99c-0.04,0.49-0.28,0.9-0.65,1.24
		c-0.59,2.45-1.11,4.91-1.79,7.32c-0.06,0.21-0.09,0.49-0.12,0.76c0.35-0.03,0.73,0.21,0.72,0.61c-0.39,2.36-0.75,4.74-1.11,7.13
		c-0.19,1.56-0.43,3.11-0.71,4.65c-0.31,2.01-0.64,4.02-0.99,6.01c-0.39,1.65-0.74,3.33-1.04,5.01c-0.2,1.44-0.37,2.88-0.44,4.34
		c-0.11,0.24-0.19,0.49-0.27,0.74c-0.13,1.3-0.21,2.6-0.23,3.89c0.06,0.21,0.15,0.42,0.22,0.63
		C27.17,112.63,27.38,112.89,27.63,113.1z M58.98,106.76c-0.09,0.01-0.18,0.02-0.27,0.04c-0.07-1.26-0.11-2.52-0.26-3.78
		C58.61,104.27,58.79,105.51,58.98,106.76z"/>
	<path class="st24" d="M49.47,57.57c-3.08,0.58-6.89,0.76-7.68,0.69c-1.08-0.01-2.17-0.04-3.26-0.15c-0.19,0.03-0.37,0.06-0.56,0.11
		c-0.11,0.03-0.2,0.07-0.31,0.11c0.06,0.21,0.1,0.43,0.09,0.65c0.28,0.13,0.56,0.27,0.81,0.32c1.89,0.55,3.73,0.59,5.62,0.63
		c1.58,0.05,3.07-0.19,4.53-0.57C48.64,58.53,48.97,57.99,49.47,57.57z"/>
	<path class="st24" d="M63.6,111.42c0.02,0,0.04,0,0.05,0.01c0.04-0.23,0.07-0.48,0.06-0.76c-0.18-4.48-1.14-8.94-1.87-13.37
		c-0.82-4.51-2.16-8.89-3.76-13.18c0.42,2.14,0.87,4.27,1.4,6.39C61.13,97.4,62.99,104.35,63.6,111.42z"/>
	<path class="st25" d="M43.7,125.42c-0.03-0.08-0.05-0.16-0.05-0.26c-0.03-2.32,0-4.64,0.06-6.96c0.09-0.46-0.05-1.19,0.05-1.74
		c-1.07,0.13-2.14,0.23-3.2,0.28c0.44,2.87,0.87,5.75,1.24,8.64C42.43,125.41,43.04,125.43,43.7,125.42z"/>
	<path class="st25" d="M47.6,125.06c0.02-3.09,0.18-6.09,0.46-9.09c-1.01,0.09-2.02,0.21-3.03,0.34c0.01,0.1,0,0.2-0.02,0.3
		c-0.09,2.86-0.1,5.73-0.1,8.59c0,0.07-0.03,0.12-0.05,0.18c0.91,0.17,1.85,0.04,2.76-0.04c0-0.05,0-0.11,0-0.16
		C47.61,125.13,47.6,125.1,47.6,125.06z"/>
	<path class="st25" d="M44.91,114.85c1.04-0.13,2.09-0.26,3.13-0.39C47.16,113.78,45.71,113.76,44.91,114.85z"/>
	<path class="st25" d="M24.17,126.36c0.16,0.12,0.27,0.3,0.27,0.5c0,0.16-0.07,0.3-0.17,0.42c0.67-0.03,1.32-0.07,1.95-0.09
		c0.05-0.08,0.11-0.13,0.18-0.17c0-0.25-0.03-0.53-0.03-0.81c-0.43,0.01-0.86,0.01-1.27,0.05
		C24.79,126.28,24.48,126.32,24.17,126.36z"/>
	<path class="st25" d="M24.34,124.94c0.77-0.06,1.53-0.09,2.3-0.13c-0.31-0.19-0.67-0.31-1.06-0.31
		C25.11,124.5,24.68,124.67,24.34,124.94z"/>
	<path class="st25" d="M13.72,125.76c0.15-0.47,0.13-0.99-0.09-1.46c-0.02,0-0.03,0-0.05,0.01
		C13.66,124.77,13.69,125.29,13.72,125.76z"/>
	<path class="st25" d="M10.01,125.49c-0.03,0.53-0.02,1.07,0,1.6c0.05-0.01,0.09-0.02,0.14-0.02c0.66-0.39,1.53-0.36,2.36-0.26
		c-0.12-0.76-0.07-1.54-0.19-2.27c-0.81,0.18-1.61,0.39-2.39,0.67C9.98,125.29,10.01,125.39,10.01,125.49z"/>
	<path class="st25" d="M10.26,123.68c0.62-0.2,1.25-0.37,1.88-0.51C11.51,123.09,10.84,123.3,10.26,123.68z"/>
	<path class="st25" d="M7.73,53.45c-0.21-0.04-0.43-0.06-0.67-0.04c0.01-0.24,0.04-0.49,0.05-0.73c-0.77-0.58-0.92-1.7-0.84-2.64
		c0.04-1.64,0.09-3.28,0.29-4.91c0.02-0.15,0.11-0.28,0.23-0.38c-0.15-0.07-0.29-0.15-0.44-0.23c-0.08-0.02-0.17-0.05-0.25-0.07
		c-0.17-0.04-0.28-0.14-0.36-0.26c-0.14-0.08-0.27-0.17-0.41-0.26c-0.03,0-0.07,0.01-0.1,0.01C5.16,43.93,5.08,43.91,5,43.91
		c-0.04,0.12-0.11,0.24-0.25,0.31c-0.68,3.57-1.03,7.3-1.21,10.91c0.02,0.31,0.12,0.65,0.28,0.9c0.07,0.04,0.13,0.08,0.13,0.07
		c0.87,0.29,1.82,0.28,2.73,0.37c0.32,0.02,0.55,0.34,0.55,0.64c0,0.19-0.09,0.36-0.23,0.48c0.21-0.03,0.42-0.05,0.62-0.07
		c0.09-0.01,0.17-0.04,0.25-0.06c0-0.06,0-0.12,0-0.18C7.83,56,7.77,54.72,7.73,53.45z"/>
	<path class="st25" d="M7.84,45.16c-0.02-0.01-0.04-0.02-0.06-0.03c0.02,0.08,0.03,0.16,0.04,0.25c0.01-0.03,0.01-0.06,0.02-0.09
		C7.84,45.24,7.84,45.2,7.84,45.16z"/>
	<path class="st25" d="M3.68,57.34c0.67,0.69,1.71,0.77,2.57,0.41c-1.16-0.01-2.01-0.17-2.6-0.45C3.66,57.3,3.67,57.32,3.68,57.34z"
		/>
	<path class="st25" d="M51.81,59.71c-0.02,0.01-0.03,0.03-0.05,0.05c-0.09,0.04-0.18,0.07-0.27,0.11c0.13,0.37,0.3,0.73,0.49,1.09
		c1.02-0.42,1.93-1.21,2.85-1.95c0.43-0.38,0.77-0.77,1.05-1.19c-0.09,0.05-0.17,0.1-0.26,0.15C54.93,58.27,52.79,59.9,51.81,59.71z
		"/>
	<path class="st25" d="M56.79,53.9c-0.1-1.22-0.29-2.42-0.39-3.65c0.02-0.33-0.06-0.92-0.1-1.54c-0.12-0.33-0.29-0.63-0.52-0.88
		c-0.27,0.11-0.56,0.17-0.86,0.16c-0.32,0.09-0.64,0.19-0.98,0.27c-0.26,0.05-0.52-0.11-0.65-0.33c-0.01,0-0.02-0.01-0.03-0.01
		c0,0.03,0,0.06,0,0.09c0,0.08,0,0.16,0,0.24c0.07,0.08,0.12,0.18,0.13,0.29c0.1,1.25,0.16,2.5,0.24,3.75
		c0.07,1.14,0.12,2.27,0.13,3.41c0,0.34-0.29,0.62-0.63,0.62c0,0-0.01,0-0.01,0c-0.46,0.34-1.2,0.63-2.1,0.88
		c0.27,0.14,0.42,0.44,0.18,0.9c0,0.15,0.01,0.29,0.02,0.44c0.15-0.04,0.29-0.03,0.42,0.02c0.03-0.02,0.06-0.05,0.1-0.07
		c0.63-0.28,1.23-0.6,1.85-0.89c0.9-0.56,1.95-1.01,2.7-1.77c0.15-0.15,0.26-0.34,0.36-0.54c0-0.1,0.01-0.2,0.01-0.31
		C56.64,54.65,56.71,54.28,56.79,53.9z"/>
	<path class="st25" d="M50.59,61.22c-0.12-0.29-0.24-0.59-0.34-0.89c-0.3,0.1-0.61,0.2-0.92,0.28
		C49.67,60.94,50.11,61.16,50.59,61.22z"/>
	<path class="st25" d="M49.96,57.93c0.01-0.22,0.09-0.37,0.18-0.49c-0.22,0.05-0.44,0.09-0.66,0.13c-0.5,0.42-0.83,0.96-0.74,1.79
		c0.41-0.11,0.81-0.22,1.22-0.35C49.91,58.65,49.91,58.29,49.96,57.93z"/>
	<path class="st25" d="M35.44,60.94c0.07-0.11,0.13-0.21,0.19-0.32c-0.63-0.23-1.28-0.48-1.87-0.81c0.2,0.25,0.41,0.49,0.64,0.72
		C34.71,60.77,35.07,60.9,35.44,60.94z"/>
	<path class="st25" d="M29.61,49.29c0.01,0.05,0.01,0.1,0.02,0.15c0.14,0.07,0.26,0.15,0.37,0.23c0-0.09,0-0.17,0.01-0.26
		c-0.11-0.03-0.22-0.05-0.33-0.08C29.65,49.31,29.63,49.3,29.61,49.29z"/>
	<path class="st25" d="M37.54,57.98C37.54,57.98,37.54,57.98,37.54,57.98c-0.01,0.3,0,0.6,0.01,0.9c0.07,0.03,0.14,0.06,0.21,0.09
		c0.01-0.22-0.03-0.44-0.09-0.65C37.64,58.21,37.6,58.1,37.54,57.98z"/>
	<path class="st25" d="M33.01,57.43c0.67,1.16,1.97,1.61,3.2,2.04c0.09-0.56,0.01-1.16,0.04-1.74c-0.3-0.08-0.6-0.16-0.9-0.26
		c-0.45-0.17-0.97-0.38-1.12-0.88c-0.37-2.21-1.09-4.52-1.3-6.79c-0.22-0.02-0.46-0.05-0.7-0.08c-0.32-0.04-0.64-0.07-0.97-0.1
		c-0.01,0.05,0,0.09-0.02,0.14C31.88,52.42,32.5,54.68,33.01,57.43z"/>
	<path class="st25" d="M16.28,23.69c0.01,0.17-0.02,0.36-0.03,0.52c0.94,0.44,1.98,0.76,3.03,0.86c0.13-0.12,0.25-0.25,0.36-0.39
		c0.63,0,1.19-0.17,1.69-0.46c0.09-2.92,2.66-4.08,3.91-6.44c0.17-0.91,0.23-1.92,0.16-2.95c-0.15-0.19-0.35-0.33-0.56-0.46
		c-1.2,0.33-2.45,1.01-2.92,2.2c-0.57,1.32-0.45,4.56-2.33,4.59c-1.23-0.1-2.88-0.05-4.16-0.52c-0.12,0.07-0.23,0.16-0.34,0.28
		c-0.94,0.93-0.82,2.43-0.1,3.48c0-0.32,0.02-0.65,0.11-0.95C15.34,22.84,16.31,23.04,16.28,23.69z M24.27,15.64
		c0.7-0.19,1.14,0.74,0.56,1.13c-0.14,0.42,0.14,0.99-0.41,1.2c-0.31,0.13-0.71-0.01-0.84-0.34C23.32,16.98,23.55,15.9,24.27,15.64z
		"/>
	<path class="st26" d="M17.05,8.41c-1.97,2.54-2.78,5.94-2.51,9.06c0.08,0.32,0.17,0.63,0.27,0.94c0.08,0.1,0.13,0.21,0.13,0.34
		c1.01,1.24,3.2,0.96,4.67,1.11c1.02-2.01,0.72-4.78,3.04-5.93c0.53-0.28,1.74-1.02,2.5-0.9c-0.48-2.16-1.64-4.1-3.77-4.78
		c-0.45-0.04-0.58-0.5-0.46-0.84c-1.05-0.38-2.2-0.39-3.22-0.08C18.13,7.72,17.81,8.55,17.05,8.41z"/>
	<path class="st27" d="M51.34,46.4c-0.08,0.06-0.16,0.11-0.24,0.17c0.02,0,0.04,0.01,0.06,0.01C51.22,46.52,51.28,46.46,51.34,46.4z
		"/>
	<path class="st27" d="M36.32,46.18c-0.14-0.23-0.26-0.47-0.37-0.72c0.08,0.23,0.15,0.46,0.21,0.67
		C36.21,46.15,36.27,46.17,36.32,46.18z"/>
	<path class="st27" d="M37.93,13.68c-0.19,0.2-0.36,0.41-0.51,0.63c0.08-0.01,0.17-0.01,0.27,0.01c0.92,0.37,0.13,1.54,0.03,2.21
		c-0.65,2.15-1.18,4.34-1.52,6.55c-0.25,2.84-0.42,5.7-0.43,8.56c0.48,0.14,0.66,0.84,0.2,1.18c-0.06,0.03-0.13,0.05-0.19,0.08
		c0.03,2.41,0.18,4.81,0.5,7.19c0.11,0.64,0.16,1.35,0.23,2.05c0.25,0.51,0.96,1.12,0.34,1.63c-0.02,0.02-0.05,0.02-0.07,0.03
		c0.17,0.7,0.43,1.34,0.88,1.87c1.76,0.33,3.58,0.72,5.41,0.94c-0.11-0.08-0.2-0.19-0.24-0.33c-0.82-4.28-0.9-8.65-1.44-12.97
		c-0.21-2.2-0.4-4.41-0.61-6.61c-0.03-0.35,0.2-0.68,0.55-0.73c0.34-0.04,0.7,0.2,0.73,0.56c0.5,5.51,1.07,11.02,1.6,16.54
		c0.12,0.99,0.29,1.97,0.45,2.96c0.04,0.28-0.12,0.55-0.37,0.67c1.34,0.12,2.68,0.14,3.98-0.07c1.7-0.33,3.28-1.5,4.22-2.89
		c0.18-0.36,0.29-0.73,0.38-1.11c-0.41-0.24-0.38-0.75-0.14-1.1c0.63-1.32,0.6-2.68,0.34-4.05c-0.44-0.67-0.57-1.33-0.47-1.9
		c-0.33-1.16-0.69-2.31-0.82-3.45c-0.51-3.19-1.52-6.26-2.5-9.33c-1.09-4.37-3.63-9.58-8.77-9.67c-0.39,0.67-1.36,0.09-1.12-0.6
		c0.44-1,1.68-0.76,2.64-0.52c-0.92-0.94-2.68-0.88-3.68,0c-0.31,0.26-0.57,0.54-0.81,0.84c0.21-0.22,0.42-0.43,0.66-0.61
		C38.96,11.78,39.35,14.08,37.93,13.68z M46.32,36.64c1.03,0.14,0.64,1.6,0.79,2.34c0,0.8-1.24,0.8-1.24,0
		C46,38.24,45.21,36.77,46.32,36.64z M43.44,27.52c0.32-0.04,0.66,0.19,0.69,0.52c0.54,5.34,1.71,10.6,2.33,15.93
		c0.06,0.52,0.28,1.32-0.4,1.52c-0.3,0.08-0.67-0.07-0.78-0.38c-0.63-4.18-1.17-8.39-1.84-12.57c-0.23-1.44-0.42-2.88-0.52-4.34
		C42.9,27.87,43.1,27.57,43.44,27.52z M40.06,18.27c0-0.79,1.24-0.79,1.23,0c-0.21,0.91,0.77,4.12-0.92,3.35
		C39.8,20.68,40.17,19.34,40.06,18.27z"/>
	<path class="st28" d="M29.68,49.32c0.11,0.04,0.22,0.06,0.33,0.08c0-0.04,0-0.09,0-0.13c-0.1-0.02-0.2-0.03-0.3-0.05
		c-0.04,0-0.08-0.01-0.12-0.01c0,0.02,0.01,0.05,0.01,0.07C29.63,49.3,29.65,49.31,29.68,49.32z"/>
	<path class="st28" d="M32.93,49.79c-0.11-1.18-0.09-2.36,0.2-3.51c0.35-0.38,1.07-0.1,1.04,0.43c-0.25,3.25,0.65,6.22,1.29,9.31
		c2.87,0.81,5.92,0.98,8.93,0.76c0.17-0.05,0.33-0.1,0.5-0.15c0.3-0.09,0.6-0.18,0.89-0.29c0.22,0.12,0.44,0.19,0.68,0.22
		c1.48-0.19,2.93-0.46,4.34-0.8c0.27-0.11,0.54-0.21,0.81-0.31c0-0.03-0.02-0.05-0.01-0.08c0.43-2.61,0.18-5.65,0.42-8.33
		c-0.22-0.22-0.5-0.38-0.86-0.48c-0.02-0.01-0.04-0.01-0.06-0.01c-1.18,0.87-2.57,1.42-4.03,1.61c-0.46,0.1-0.91,0.11-1.37,0.06
		c-0.16-0.01-0.32,0-0.48-0.01c-2-0.16-4-0.46-5.98-0.8c-0.89-0.2-1.93-0.21-2.65-0.82c-0.1-0.14-0.18-0.28-0.27-0.42
		c-0.05-0.02-0.11-0.03-0.16-0.05c-0.06-0.22-0.13-0.44-0.21-0.67c-0.38-0.89-0.56-1.87-0.68-2.85c-0.45-0.99-0.57-2.11-0.69-3.19
		c-0.16-1.71-0.2-3.43-0.22-5.15c-0.09-0.12-0.18-0.24-0.3-0.34c-0.12-0.09-0.25-0.16-0.38-0.22c-0.81,0.31-1.58,0.68-2.19,1.27
		c-0.24,0.46-0.44,0.92-0.61,1.4c0.01,0.16,0.02,0.32,0.01,0.47c-0.08,0.06-0.15,0.12-0.22,0.19c-1.09,3.44-0.87,7.25-1.03,10.8
		c0.82,0.29,2.66-0.13,2.8,0.98c0,0.37-0.31,0.69-0.69,0.69c-0.16,0-0.31-0.03-0.47-0.05c0,0.05-0.01,0.1-0.02,0.15
		c0.32,0.03,0.65,0.06,0.97,0.1C32.47,49.75,32.7,49.77,32.93,49.79z"/>
	<path class="st28" d="M51.91,46.75c0.03,0.08,0.07,0.15,0.11,0.23c0.04-0.48,0.11-0.95,0.2-1.4c-0.15,0.16-0.31,0.3-0.47,0.44
		C51.75,46.26,51.8,46.51,51.91,46.75z"/>
	<path class="st28" d="M53.27,47.88c0,0.02,0,0.04,0,0.05c0.01,0,0.02,0.01,0.03,0.01C53.29,47.92,53.28,47.9,53.27,47.88z"/>
	<path class="st28" d="M52.52,37.48c-0.12-0.63-0.29-1.27-0.47-1.9C51.95,36.15,52.08,36.81,52.52,37.48z"/>
	<path class="st28" d="M54.29,34.17c-0.36,0.01-0.7,0.25-1.05,0.1c-0.07-0.03-0.12-0.07-0.17-0.12c0.33,1.28,0.73,2.59,0.9,3.87
		c0,0.02,0.01,0.04,0.01,0.07c0,0.02,0,0.03,0,0.05c0.11,0.87,0.11,1.73-0.08,2.58c-0.08,1.41-0.29,2.81-1.01,4.04
		c-0.02,0.03-0.05,0.06-0.08,0.1c0.3,0.03,0.58,0.26,0.57,0.61c-0.07,0.61-0.08,1.23-0.1,1.85c0.19-0.32,0.7-0.42,1.07-0.52
		c0.52-0.16,1.08-0.32,1.64-0.42c0.01-0.01,0.02-0.02,0.03-0.03c0.8-0.46,1.59-0.94,2.35-1.46c0-0.06-0.01-0.12-0.01-0.18
		C57.24,41.17,55.67,37.52,54.29,34.17z"/>
	<path class="st28" d="M56.07,47.71c-0.39,0.08-0.77,0.18-1.14,0.29c0.3,0.01,0.58-0.06,0.86-0.16
		C55.88,47.8,55.98,47.77,56.07,47.71z"/>
	<path class="st29" d="M14.62,25.24c-0.48,0.11-0.92,0.33-1.25,0.73c0.18-0.11,0.36-0.22,0.54-0.33
		C14.13,25.5,14.37,25.34,14.62,25.24z"/>
	<path class="st29" d="M15.05,26.45c-2.52,1.83-5.61,2.61-8.23,4.22c-2.54,2.94-4.07,6.86-4.76,10.68c0.1,0.39,0.28,0.71,0.56,0.97
		c0.93,0.09,1.84,0.21,2.78,0.3c0.36-0.03,0.69,0.19,0.74,0.56c0,0.03-0.01,0.05-0.01,0.07c0.03-0.01,0.05-0.02,0.08-0.02
		c0,0,0,0,0-0.01c0.61-0.02,1.17,0.3,1.73,0.5c0.35,0.09,0.6,0.43,0.49,0.8c-0.08,0.3-0.38,0.49-0.68,0.45
		c0.02,0.05,0.04,0.1,0.05,0.16c0.02,0.01,0.04,0.02,0.06,0.03c0,0.04,0,0.09-0.01,0.13c-0.01,0.08-0.01,0.16-0.01,0.24
		c0,0.08-0.01,0.17-0.01,0.25c-0.12,1.83-0.15,3.66-0.12,5.5c0.04,0.11,0.11,0.2,0.2,0.28c-0.01-1.44-0.01-2.88-0.05-4.32
		c-0.01-0.35,0.3-0.64,0.64-0.64c0.36,0,0.63,0.29,0.64,0.64c0.16,7.38,0,14.76-0.24,22.14c0.11,0.17,0.24,0.33,0.4,0.47
		c2.59,0.88,5.48-0.55,8.11,0.3c2,0.44,4.03,0.42,6.03,0.79c2.72,0.73,5.53,0.79,8.16-0.37c0,0,0.01-0.01,0.01-0.01
		c0.15-0.61,0.3-1.22,0.46-1.83c-0.1-0.91-0.2-1.81-0.29-2.72c-0.15-2.29-0.31-4.57-0.52-6.85c-0.08-0.23-0.15-0.45-0.24-0.67
		c0-0.58-0.01-1.16-0.01-1.74c-0.05-0.44-0.1-0.88-0.15-1.33c-0.24-1.05-0.28-2.12-0.32-3.19c0-0.03,0.01-0.07,0.02-0.1
		c-0.02-0.06-0.03-0.12-0.06-0.19c-0.18-0.74-0.45-1.51-0.45-2.27c-0.11-0.09-0.23-0.17-0.37-0.23c-0.01-0.05-0.01-0.1-0.02-0.15
		c0-0.02-0.01-0.05-0.01-0.07c-0.53-0.06-1.18-0.17-1.27-0.79c-0.06-1.54,0.02-3.1,0.08-4.64c0.03-0.39,0.06-0.78,0.08-1.18
		c-0.06-0.27-0.1-0.55-0.16-0.82c-0.49-1.25-0.21-2.42,0.23-3.65c0.22-0.58,0.5-1.13,0.82-1.67c0.26-0.82,0.6-1.6,1.06-2.33
		c0.46-0.54,1.07-0.92,1.72-1.23c0.3-0.46,0.48-0.97,0.4-1.57c-0.06-0.42-0.21-0.75-0.42-1.02c0.17,0.28,0.21,0.58-0.11,0.86
		c-0.28,0.22-0.65,0.15-0.88-0.11c-0.49-0.6-1.05-1.12-1.66-1.58c-0.03,0-0.05,0-0.08,0c-0.16-0.12-0.33-0.26-0.5-0.4
		c-1.1-0.73-2.31-1.29-3.56-1.74c-0.29,0.01-0.59,0.08-0.88,0.21c-0.9-0.87-2.29-0.54-3.42-0.87c-0.32-0.06-0.64-0.16-0.95-0.28
		c-0.24-0.01-0.45-0.02-0.61-0.03c-1.23-0.31-3.01-0.3-3.99-1.2c-0.05,0-0.1,0-0.15,0c0.08,0.02,0.15,0.06,0.23,0.11
		C16.25,25.7,15.84,26.78,15.05,26.45z M7.32,40.26c-0.12-0.08-0.24-0.16-0.36-0.25c0.06-0.12,0.12-0.25,0.19-0.37
		c0.08,0.23,0.17,0.46,0.26,0.68C7.39,40.3,7.36,40.28,7.32,40.26z M14.1,66.7C14.1,66.7,14.1,66.7,14.1,66.7
		c0.28,0.23,0.62,0.4,0.95,0.55c-0.36-0.03-0.71-0.07-1.06-0.12C14.02,66.98,14.06,66.84,14.1,66.7z M12.41,63.01
		c0.05,0.1,0.1,0.21,0.16,0.31c-0.07-0.01-0.14-0.02-0.21-0.03c0-0.08,0-0.15,0-0.23c0-0.06,0-0.12,0-0.18
		C12.37,62.93,12.39,62.97,12.41,63.01z"/>
	<path class="st29" d="M18.44,71.67C18.43,71.67,18.43,71.67,18.44,71.67c-1.46-0.23-2.9-0.67-4.37-0.46c-0.32,0.02-0.66,0.06-1,0.1
		C14.81,71.65,16.67,71.62,18.44,71.67z"/>
	<path class="st29" d="M23.01,72.91c1.32,0.31,2.65,0.09,3.97-0.09c-0.17,0-0.32,0-0.46-0.01c-2.32-0.34-4.52-0.75-6.8-1
		C20.83,72.1,21.86,72.74,23.01,72.91z"/>
	<path class="st29" d="M5.67,43.87c-0.1,0.04-0.21,0.06-0.32,0.06c0.14,0.09,0.27,0.18,0.41,0.26C5.69,44.09,5.67,43.98,5.67,43.87z
		"/>
	<path class="st29" d="M6.89,44.7c-0.17-0.07-0.35-0.13-0.52-0.18c0.15,0.08,0.29,0.16,0.44,0.23C6.83,44.72,6.86,44.71,6.89,44.7z"
		/>
	<path class="st29" d="M7.88,57.27c0.02-1.41,0.02-2.83,0.01-4.24c-0.06-0.01-0.12-0.03-0.18-0.05c0,0.16,0.01,0.31,0.02,0.47
		C7.77,54.72,7.83,56,7.88,57.27z"/>
	<path class="st30" d="M14.83,132.32c0.22-0.65,0.26-1.33,0.03-1.88c-0.02,0.52-0.03,1.03-0.03,1.54
		C14.83,132.08,14.83,132.2,14.83,132.32z"/>
	<path class="st30" d="M12.56,134.84c-0.66-0.05-1.31-0.13-1.96-0.25C11.18,134.94,11.9,135.04,12.56,134.84z"/>
	<path class="st30" d="M13.38,133.56c0.28-1.73,0.19-3.51,0.21-5.25c-0.95-0.18-1.89-0.14-2.83-0.15c-0.05,0.02-0.1,0.04-0.15,0.07
		c-0.04,0-0.08,0.02-0.12,0.02c-0.43,0.36-0.93,0.57-1.17,1.13c-0.3,1.08-0.24,2.28-0.23,3.38c0.03,0.06,0.06,0.12,0.09,0.18
		C10.57,133.27,11.99,133.54,13.38,133.56z"/>
	<path class="st30" d="M29.92,129.6c-0.05-0.41-0.33-1.04-0.67-1.24c-0.57-0.27-1.57,0.01-2.18-0.2c-0.15,0.13-0.34,0.21-0.53,0.24
		c-0.93,0.25-1.93,0.24-2.9,0.28c-0.07,0-0.14-0.02-0.21-0.04c-0.15,1.43-0.06,2.9-0.1,4.34c0.99,0.66,2.34,0.31,3.39,0.08
		C28.43,132.73,29.78,131.33,29.92,129.6z"/>
	<path class="st30" d="M23.99,134.66c-0.2-0.03-0.37-0.08-0.53-0.12c0.64,0.36,1.38,0.35,2.1,0.12
		C25.02,134.7,24.49,134.71,23.99,134.66z"/>
	<path class="st30" d="M30.47,131.93c-0.09,0.17-0.21,0.32-0.32,0.48c0.43-0.39,0.78-0.9,1-1.44c0.11-0.38,0.1-0.79,0.02-1.18
		C31.15,130.54,30.92,131.3,30.47,131.93z"/>
	<path class="st31" d="M43.62,132.87c0.34-1.75,0.35-3.47,0.38-5.22c-0.16-0.24-0.15-0.57,0.02-0.79c0-0.04,0-0.09,0-0.13
		c-0.09,0.04-0.19,0.07-0.31,0.07c-0.51,0.01-1.02-0.01-1.53-0.04c-0.05,0.06-0.1,0.12-0.17,0.16c0.45,0.34,0.22,1.26-0.48,1.16
		c-0.53-0.08-1.36-0.04-1.38-0.75c0.02-0.43,0.28-0.58,0.6-0.61c-0.02-0.02-0.03-0.05-0.04-0.07c-0.04,0-0.08-0.01-0.12-0.01
		c-0.24,0.14-0.45,0.33-0.61,0.56c-0.41,1.85-0.36,3.82-0.43,5.69c0.97,0.42,2.08,0.43,3.15,0.44c0.28-0.1,0.54-0.23,0.75-0.42
		C43.51,132.89,43.56,132.87,43.62,132.87z"/>
	<path class="st31" d="M49.85,125.61c-0.03,0-0.05-0.01-0.08-0.02c0,0,0.01,0.01,0.01,0.02C49.81,125.61,49.83,125.61,49.85,125.61z
		"/>
	<path class="st31" d="M48.73,126.43c-0.37,0.24-1.01,0.34-1.67,0.37c0.19,0,0.38,0,0.58,0.01c0.36,0,0.66,0.3,0.66,0.66
		c-0.21,1.2-1.93,0.48-2.78,0.59c-0.08,0-0.16-0.01-0.24-0.02c-0.03,1.44-0.02,2.88-0.21,4.31c0,0.02,0,0.04-0.01,0.06
		c0.09-0.02,0.18-0.02,0.29,0.01c1.49,0.66,2.92-0.21,4.34-0.62c1.08-0.32,2.25-0.5,3.19-1.16c-0.15-2.19-0.87-3.93-3.37-3.7
		C49.18,126.86,48.93,126.67,48.73,126.43z"/>
	<path class="st31" d="M46.82,134.06c0.88,0.3,1.87-0.14,2.76-0.4c0.95-0.39,2.2-0.57,2.99-1.31c-0.72,0.29-1.5,0.47-2.23,0.7
		C49.17,133.35,48.03,133.98,46.82,134.06z"/>
	<path class="st17" d="M20.08,26.41c0.85,0.02,2.01-0.09,1.87-0.96c-0.04-0.14-0.13-0.25-0.25-0.33c0.02,0.01,0.04,0.02,0.06,0.03
		c1.24,0.13,0.76-1.67,1.13-2.42c0.74-0.91,1.51-1.82,2.27-2.73c1.69-1.45,1.72-3.84,1.39-5.89c-0.23-2.95-1.89-6.52-5.09-7.05
		c-0.28-0.01-0.46,0.15-0.54,0.36c-0.13,0.34,0.01,0.8,0.46,0.84c2.13,0.69,3.29,2.62,3.77,4.78c-0.76-0.12-1.97,0.62-2.5,0.9
		c-2.32,1.15-2.03,3.92-3.04,5.93c-1.47-0.15-3.67,0.13-4.67-1.11c0-0.13-0.06-0.24-0.13-0.34c-0.1-0.31-0.19-0.62-0.27-0.94
		c-0.27-3.12,0.55-6.52,2.51-9.06c0.76,0.14,1.09-0.69,0.66-1.07c-0.1-0.09-0.23-0.16-0.41-0.18c-2.01-0.03-2.79,3.14-3.4,4.68
		c-0.93,2.8-1.14,5.96,0.23,8.65c0.17,0.33,0.62,0.42,0.93,0.25c0.08-0.05,0.14-0.11,0.2-0.19c0.07,0.03,0.12,0.07,0.19,0.09
		c1.28,0.47,2.93,0.42,4.16,0.52c1.88-0.03,1.76-3.27,2.33-4.59c0.46-1.19,1.72-1.88,2.92-2.2c0.02-0.01,0.05-0.01,0.07-0.02
		c0.15-0.01,0.3-0.05,0.44-0.12c0.02,0.2,0.04,0.4,0.05,0.6c0.06,1.02,0,2.04-0.16,2.95c-1.25,2.36-3.82,3.52-3.91,6.44
		c0,0.05-0.01,0.09-0.01,0.14c-0.06,0.26,0.03,0.53,0.24,0.68c-0.12-0.04-0.24-0.06-0.37-0.03c-0.63,0.12-1.27,0.13-1.91,0.06
		c-1.05-0.11-2.09-0.42-3.03-0.86c0.01-0.17,0.04-0.35,0.03-0.52c0.03-0.64-0.95-0.85-1.18-0.24c-0.09,0.3-0.11,0.63-0.11,0.95
		c0,0.05,0,0.1,0,0.14c0.12,0.26,0.29,0.46,0.49,0.63c0.98,0.9,2.76,0.89,3.99,1.2C19.63,26.39,19.85,26.4,20.08,26.41z"/>
	<path class="st17" d="M29.48,29.48c0.61,0.46,1.17,0.98,1.66,1.58c0.22,0.26,0.6,0.33,0.88,0.11c0.32-0.28,0.28-0.58,0.11-0.86
		c-0.18-0.3-0.5-0.59-0.69-0.83c-1.77-1.95-4.45-2.86-6.85-3.81c-0.63-0.07-1.53-0.64-1.99,0.02c-0.26,0.4,0.09,0.95,0.53,0.95
		c0.73,0.2,1.47,0.43,2.21,0.7c1.25,0.45,2.47,1.02,3.56,1.74C29.1,29.22,29.3,29.34,29.48,29.48z"/>
	<path class="st17" d="M24.41,17.97c0.55-0.21,0.27-0.78,0.41-1.2c0.58-0.39,0.14-1.33-0.56-1.13c-0.72,0.26-0.94,1.34-0.69,2
		C23.7,17.96,24.1,18.11,24.41,17.97z"/>
	<path class="st17" d="M19.34,74.32c-0.01,0-0.03,0.01-0.05,0.01c0,0,0,0,0,0c0.04-0.01,0.08-0.02,0.13-0.02
		C19.4,74.31,19.37,74.31,19.34,74.32z"/>
	<path class="st17" d="M26.43,78.25c-1.21,0.19-1.94-1.17-3.08-1.29c-0.77-0.01-0.86,1.17-0.1,1.28c0.89,0.53,1.73,1.35,2.84,1.34
		c0.8,0.03,2.75-0.18,2.13-1.39C27.69,77.58,27.1,78.33,26.43,78.25z"/>
	<path class="st17" d="M40.37,21.62c1.69,0.77,0.71-2.43,0.92-3.35c0.01-0.79-1.24-0.79-1.23,0C40.17,19.34,39.8,20.68,40.37,21.62z
		"/>
	<path class="st17" d="M45.29,45.11c0.11,0.3,0.48,0.46,0.78,0.38c0.68-0.2,0.46-0.99,0.4-1.52c-0.62-5.33-1.79-10.59-2.33-15.93
		c-0.02-0.33-0.37-0.56-0.69-0.52c-0.34,0.05-0.54,0.36-0.52,0.69c0.1,1.45,0.29,2.9,0.52,4.34C44.12,36.72,44.66,40.93,45.29,45.11
		z"/>
	<path class="st17" d="M45.86,38.98c0,0.8,1.24,0.8,1.24,0c-0.14-0.74,0.24-2.21-0.79-2.34C45.21,36.77,46,38.24,45.86,38.98z"/>
	<path class="st17" d="M64.09,111.81c-0.09-0.22-0.25-0.34-0.43-0.39c-0.02,0-0.03-0.01-0.05-0.01c-0.61-7.07-2.48-14.02-4.12-20.91
		c-0.53-2.12-0.98-4.25-1.4-6.39c-1.17-6.02-2.05-12.11-3.39-18.09c-0.4-1.92-1.81-3.41-2.72-5.08c-0.19-0.35-0.36-0.71-0.49-1.09
		c0.09-0.04,0.18-0.07,0.27-0.11c0.02-0.01,0.03-0.03,0.05-0.05c0.98,0.19,3.12-1.44,3.82-1.75c0.09-0.04,0.17-0.1,0.26-0.15
		c1.11-0.63,2.14-1.65,2.25-2.97c-0.03-2.39-0.63-4.76-0.56-7.2c0.25,0.04,0.5,0.1,0.75,0.14c0.61,0.07,0.92-0.79,0.4-1.11
		c-0.12-0.06-0.24-0.1-0.36-0.15c0.19-0.14,0.38-0.26,0.54-0.32c0.6-0.32,1.02-0.92,0.85-1.63c-0.98-3.49-2.64-6.79-3.86-10.21
		c-0.08-0.54-0.46-1.19-1.03-1.42c-0.58-0.23-1.53-0.1-1.94,0.39c-0.02,0.03-0.02,0.07-0.03,0.1c-0.1-0.43-0.19-0.85-0.25-1.27
		c-0.49-3.17-1.47-6.4-2.48-9.46c-0.88-3.02-1.88-6.15-4.21-8.38c-1.06-1.08-2.38-1.88-3.88-2.18c-0.17-0.04-0.37-0.09-0.57-0.14
		c-0.97-0.24-2.2-0.47-2.64,0.52c-0.24,0.69,0.73,1.27,1.12,0.6c5.14,0.1,7.68,5.3,8.77,9.67c0.98,3.07,1.99,6.14,2.5,9.33
		c0.13,1.13,0.49,2.29,0.82,3.45c0.18,0.63,0.35,1.27,0.47,1.9c0.26,1.37,0.29,2.73-0.34,4.05c-0.24,0.35-0.27,0.86,0.14,1.1
		c-0.09,0.38-0.2,0.75-0.38,1.11c-0.93,1.39-2.52,2.56-4.22,2.89c-1.3,0.21-2.64,0.19-3.98,0.07c0.24-0.12,0.41-0.39,0.37-0.67
		c-0.16-0.98-0.33-1.96-0.45-2.96c-0.53-5.51-1.09-11.02-1.6-16.54c-0.04-0.36-0.39-0.6-0.73-0.56c-0.36,0.05-0.59,0.38-0.55,0.73
		c0.21,2.2,0.41,4.41,0.61,6.61c0.54,4.31,0.62,8.69,1.44,12.97c0.03,0.14,0.13,0.25,0.24,0.33c-1.83-0.22-3.66-0.61-5.41-0.94
		c-0.45-0.52-0.71-1.17-0.88-1.87c0.02-0.01,0.05-0.02,0.07-0.03c0.62-0.51-0.08-1.12-0.34-1.63c-0.08-0.71-0.13-1.41-0.23-2.05
		c-0.32-2.38-0.46-4.78-0.5-7.19c0.06-0.03,0.13-0.05,0.19-0.08c0.45-0.34,0.28-1.04-0.2-1.18c0.01-2.86,0.18-5.72,0.43-8.56
		c0.34-2.21,0.87-4.4,1.52-6.55c0.1-0.68,0.9-1.85-0.03-2.21c-0.1-0.02-0.19-0.02-0.27-0.01c0.15-0.22,0.32-0.43,0.51-0.63
		c1.41,0.41,1.03-1.9-0.28-1.44c-0.24,0.18-0.45,0.39-0.66,0.61c-3.36,3.62-2.39,12.6-2.64,17.16c0.01,0.66,0,1.33,0,1.99
		c-0.71,0.3-1.49,0.57-2.21,0.91c-0.65,0.31-1.25,0.69-1.72,1.23c-0.46,0.73-0.8,1.51-1.06,2.33c-0.61,1.94-0.75,4.08-0.89,6.13
		c-0.03,0.4-0.05,0.79-0.08,1.18c-0.06,1.54-0.14,3.1-0.08,4.64c0.09,0.63,0.74,0.74,1.27,0.79c0.04,0,0.08,0.01,0.12,0.01
		c0.1,0.01,0.2,0.03,0.3,0.05c-0.01,0.04,0,0.09,0,0.13C30,49.49,30,49.58,30,49.67c0.01,0.77,0.27,1.54,0.45,2.27
		c0.02,0.06,0.04,0.12,0.06,0.19c0,0.03-0.02,0.06-0.02,0.1c0.05,1.07,0.09,2.15,0.32,3.19c0.06,0.44,0.1,0.88,0.15,1.33
		c0.09,0.8,0.18,1.6,0.25,2.41c0.21,2.28,0.37,4.56,0.52,6.85c0.09,0.91,0.19,1.81,0.29,2.72c-0.16,0.61-0.3,1.22-0.46,1.83
		c0,0-0.01,0.01-0.01,0.01c-2.63,1.16-5.43,1.1-8.16,0.37c-2.01-0.36-4.03-0.35-6.03-0.79c-2.63-0.86-5.53,0.58-8.11-0.3
		c-0.14-0.05-0.27-0.09-0.41-0.15c0-0.1,0.01-0.21,0.01-0.31c0.24-7.37,0.4-14.76,0.24-22.14c-0.01-0.35-0.28-0.64-0.64-0.64
		c-0.34,0-0.64,0.29-0.64,0.64c0.04,1.44,0.04,2.88,0.05,4.32c-0.09-0.08-0.15-0.17-0.2-0.28c-0.12-0.3-0.12-0.67-0.11-0.98
		c0.02-1.1,0.05-2.21,0.12-3.31c-0.03-0.29,0.07-0.76,0.11-1.21c0.01-0.09,0.01-0.17,0.01-0.25c0-0.05,0-0.09-0.01-0.14
		c0-0.09-0.02-0.17-0.04-0.25c-0.01-0.05-0.03-0.11-0.05-0.16c0.3,0.03,0.6-0.15,0.68-0.45c0.11-0.37-0.14-0.71-0.49-0.8
		c-0.56-0.19-1.12-0.52-1.73-0.5c0,0,0,0,0,0.01c-0.03,0-0.05,0.02-0.08,0.02c0-0.03,0.01-0.04,0.01-0.07
		c-0.05-0.37-0.38-0.59-0.74-0.56c-0.94-0.09-1.85-0.21-2.78-0.3c-0.24-0.02-0.47-0.05-0.71-0.07c0.04-0.3,0.1-0.6,0.16-0.9
		c0.69-3.82,2.23-7.75,4.76-10.68c2.63-1.61,5.71-2.39,8.23-4.22c0.79,0.33,1.2-0.75,0.51-1.17c-0.08-0.05-0.15-0.09-0.23-0.11
		c-0.24-0.08-0.48-0.03-0.71,0.07c-0.25,0.1-0.49,0.26-0.71,0.39c-0.18,0.12-0.36,0.22-0.54,0.33c-2.04,1.24-4.31,2.03-6.45,3.07
		c-3.54,2.15-5.79,9.14-6.32,13.12c-0.25,1.14,0.85,1.46,1.76,1.45c0.43,0.03,0.85,0.09,1.28,0.14c-0.72,1.55-0.68,5.28-0.95,6.2
		c-0.11,3.29-1.35,6.24,0.95,7.34c0.6,0.29,1.44,0.45,2.6,0.45c0.12,0,0.22,0.01,0.35,0.01c0.16,0.01,0.3-0.06,0.41-0.16
		c0.14-0.12,0.23-0.3,0.23-0.48c0-0.3-0.24-0.62-0.55-0.64c-0.91-0.09-1.86-0.09-2.73-0.37c0,0.01-0.06-0.03-0.13-0.07
		c-0.16-0.25-0.26-0.59-0.28-0.9c0.18-3.61,0.53-7.34,1.21-10.91c0.13-0.07,0.2-0.18,0.25-0.31c0.08,0.01,0.16,0.02,0.24,0.03
		c0.03,0,0.07-0.01,0.1-0.01c0.11,0,0.22-0.02,0.32-0.06c0,0.11,0.03,0.22,0.08,0.32c0.07,0.12,0.19,0.22,0.36,0.26
		c0.09,0.02,0.17,0.04,0.25,0.07c0.18,0.05,0.35,0.11,0.52,0.18c-0.03,0.02-0.06,0.03-0.09,0.05c-0.12,0.09-0.21,0.23-0.23,0.38
		c-0.2,1.63-0.26,3.27-0.29,4.91c-0.09,0.94,0.07,2.06,0.84,2.64c0.15,0.11,0.31,0.21,0.5,0.27c0.03,0.01,0.07,0.02,0.1,0.03
		c0.06,0.02,0.12,0.04,0.18,0.05c0.01,1.42,0.01,2.83-0.01,4.24c0,0.06,0,0.12,0,0.18c-0.04,3.05-0.13,6.1-0.21,9.16
		c0.13,1.16-0.4,2.83,0.12,3.82c0.5,0.47,1.09,0.73,1.71,0.87c0.02,0,0.04,0.01,0.05,0.01c-0.02,0.05-0.04,0.09-0.04,0.14
		c-0.01,0.21-0.02,0.43-0.03,0.64C9.34,76,9.02,79.9,8.62,83.8c-0.05,0.5-0.1,1-0.15,1.5c-0.02,0.14-0.03,0.29-0.04,0.43
		c-0.6,5.25-0.31,10.45-0.79,15.72c-0.05,0.51-0.09,1.03-0.14,1.54c-0.49,5.3-0.95,10.61-1.01,15.94c-0.05,1.79,0,3.58,0.06,5.36
		c0.01,0.21,0.01,0.42,0.02,0.64c0.01,0.37,0,0.79,0.27,1.08c0.38,0.42,0.94,0.2,1.32-0.08c0.19-0.09,0.39-0.16,0.59-0.24
		c-0.13,0.71,0.03,1.71-0.01,2.2c0,0.02,0.01,0.03,0.02,0.05c-0.25,0.28-0.47,0.61-0.67,0.9c-0.42,1.36-0.36,2.89-0.31,4.3
		c0.07,0.83,0.85,1.11,1.56,1.21c0.42,0.11,0.84,0.18,1.27,0.26c0.65,0.12,1.3,0.2,1.96,0.25c0.19,0.01,0.38,0.05,0.58,0.05
		c1.53,0.23,1.67-1.4,1.7-2.58c0-0.12,0.01-0.23,0.01-0.34c-0.01-0.51,0.01-1.03,0.03-1.54c0.03-0.96,0.06-1.92-0.07-2.85
		c-0.16-0.44-0.57-0.57-0.99-0.62c0.01-0.05,0.02-0.11,0.01-0.17c-0.05-0.21-0.07-0.6-0.09-1.04c-0.03-0.47-0.06-0.99-0.14-1.46
		c0.02,0,0.03,0,0.05-0.01c0.35-0.05,0.7-0.11,1.05-0.14c0.34-0.13,0.49-0.55,0.36-0.87c-0.09-0.21-0.29-0.35-0.5-0.39
		c-0.02-0.43-0.1-0.89-0.05-1.22c-0.06-5.75-0.3-11.56-0.22-17.35c0.04-2.81,0.16-5.62,0.4-8.41c0.4-4.59,1.14-9.14,2.5-13.61
		c0.05-0.21-0.01-0.42-0.15-0.57c-0.07-0.08-0.16-0.15-0.27-0.18c-0.31-0.09-0.67,0.11-0.75,0.43c-3.98,12.93-2.95,26.59-2.83,39.95
		c0,0.35,0.01,0.71,0.01,1.06c-0.24,0.03-0.48,0.07-0.72,0.11c-0.1,0.02-0.2,0.04-0.3,0.06c-0.63,0.13-1.26,0.3-1.88,0.51
		c-0.83,0.27-1.64,0.59-2.44,0.93c-0.38-8.04,0.45-16.02,1.13-24.04c0.21-2.27,0.25-4.59,0.29-6.91c0-0.1,0-0.2,0.01-0.31
		c0.02-1.2,0.05-2.4,0.11-3.59c0.41-5.74,1.21-11.56,1.37-17.33c0.02-0.32,0.03-0.65,0.01-0.98c0.77,0.02,1.57-0.07,2.33-0.15
		c0.34-0.04,0.68-0.07,1-0.1c1.47-0.21,2.91,0.23,4.37,0.46c0,0,0,0,0,0c0.43,0.03,0.86,0.08,1.29,0.13c2.28,0.25,4.48,0.66,6.8,1
		c0.14,0.01,0.29,0.01,0.46,0.01c1.12,0.01,2.83-0.18,4.2-0.68c-0.48,1.97-0.95,3.95-1.45,5.92c-0.03,0.62-0.72,2.04,0.3,2.26
		c0.06,0,0.1-0.01,0.16-0.02c-0.22,1.48-0.45,2.97-0.65,4.46c-0.87,5.45-1.58,10.94-2.85,16.32c-0.73,3.57-1.17,7.25-1.18,10.89
		c0.02,0.42,0.33,0.74,0.33,1.17c0,0.36-0.14,0.74-0.03,1.1c0.51,1.07,1.89,0.88,3,0.89c-0.24,2.75-0.23,5.56-0.36,8.34
		c-0.02,0.34-0.03,0.67-0.05,1.01c-0.23-0.04-0.47,0.04-0.63,0.28c-0.1,0.01-0.19,0.01-0.29,0.02c-0.28,0.02-0.57,0.03-0.85,0.05
		c-0.77,0.04-1.53,0.07-2.3,0.13c-0.43,0.03-0.86,0.07-1.29,0.13c0.91-12.78,0.97-25.65-0.84-38.36
		c-0.27-1.88-0.83-12.52-2.91-12.38c-0.47,0.09-0.67,0.76-0.28,1.07c0.12,0.33,0.21,0.66,0.31,0.99c0.14,0.48,0.27,0.96,0.38,1.44
		c0.2,0.85,0.35,1.71,0.48,2.57c0.3,2,0.46,4.04,0.67,6.04c0.44,4.27,0.99,8.52,1.29,12.8c0.19,3.25,0.25,6.51,0.22,9.78
		c-0.02,2.49-0.1,4.98-0.21,7.46c-0.13,2.9-0.3,5.8-0.49,8.68c-0.16,0.37-0.12,0.87,0.28,1.1c0.44,0.2,0.91,0.23,1.39,0.19
		c-0.1,0.11-0.17,0.26-0.17,0.41c0,0.2,0.1,0.37,0.25,0.49c-0.12,0.04-0.21,0.11-0.29,0.2c-0.19-0.07-0.42-0.05-0.6,0.14
		c-0.81,1.15-0.37,2.73-0.54,4.14c-0.15,1.52,0.13,2.33,1.45,2.7c0.16,0.05,0.34,0.09,0.53,0.12c0.5,0.05,1.03,0.04,1.57,0
		c1.77-0.15,3.58-0.83,4.59-2.25c0.11-0.16,0.23-0.3,0.32-0.48c0.45-0.63,0.68-1.4,0.69-2.14c0.03-1.56-0.91-3.01-2.81-2.9
		c-0.2-0.01-0.46-0.03-0.71-0.03c0.01-0.23,0.02-0.47,0.02-0.71c0.25-0.02,0.51-0.05,0.75-0.11c0.27-0.11,0.44-0.4,0.54-0.66
		c0.01-0.03,0.01-0.06,0.02-0.09c0.34,0.03,0.71-0.17,0.71-0.62c0.18-3.04,0.23-6.09,0.26-9.14c0.05-0.13,0.05-0.24,0.03-0.35
		c1.93,0.18,3.87,0.84,5.77,1.23c1.17,0.24,2.34,0.33,3.51,0.33c0.41,2.79,0.83,5.59,1.2,8.39c-0.55-0.07-1.12,0.01-1.37,0.57
		c-0.89,2.32-0.8,4.97-0.83,7.43c0.48,1.57,2.68,1.38,4.01,1.54c1.67,0.17,2.31,0,2.61-1.04c0.26,0.16,0.57,0.24,0.87,0.31
		c0.36,0.1,0.72,0.12,1.07,0.1c1.2-0.07,2.35-0.71,3.52-1.01c0.73-0.22,1.51-0.4,2.23-0.7c0.56-0.23,1.07-0.52,1.49-0.97
		c0.44-0.68,0.04-1.56-0.04-2.31c-0.2-2.06-2.12-3.65-4.17-3.46c-0.02,0-0.05,0-0.07,0c0,0-0.01-0.01-0.01-0.02
		c-0.41-0.46-0.45-1.32-0.86-1.77c0.05-2.66,0.25-5.31,0.39-7.97c3.53-0.46,7.11-0.39,10.7-0.67
		C62.35,114.98,65.47,115.19,64.09,111.81z M9.08,132.91c0-0.05,0-0.11,0-0.16c-0.01-1.1-0.07-2.3,0.23-3.38
		c0.25-0.55,0.74-0.77,1.17-1.13c0.04-0.03,0.08-0.06,0.11-0.09c0.05,0,0.11,0,0.16,0c0.94,0.01,1.89-0.03,2.83,0.15
		c-0.02,1.74,0.07,3.53-0.21,5.25c-1.39-0.02-2.81-0.29-4.21-0.63C9.14,132.92,9.11,132.92,9.08,132.91
		C9.08,132.91,9.08,132.91,9.08,132.91z M12.51,126.81c-0.83-0.1-1.7-0.13-2.36,0.26c-0.05,0-0.1,0.01-0.14,0.02
		c-0.02-0.54-0.03-1.07,0-1.6c0-0.11-0.04-0.2-0.08-0.29c0.78-0.28,1.58-0.5,2.39-0.67C12.44,125.27,12.39,126.05,12.51,126.81z
		 M26.4,127.02c-0.07,0.04-0.13,0.1-0.18,0.17c-0.63,0.02-1.28,0.06-1.95,0.09c0.1-0.11,0.17-0.26,0.17-0.42
		c0-0.21-0.11-0.39-0.27-0.5c0.31-0.04,0.62-0.08,0.93-0.09c0.42-0.04,0.85-0.05,1.27-0.05C26.38,126.49,26.4,126.78,26.4,127.02z
		 M23.33,132.98c0.04-1.44-0.05-2.91,0.1-4.34c0.07,0.02,0.14,0.04,0.21,0.04c0.97-0.04,1.97-0.03,2.9-0.28
		c0.2-0.03,0.39-0.12,0.53-0.24c0.61,0.21,1.61-0.06,2.18,0.2c0.33,0.2,0.61,0.83,0.67,1.24c-0.14,1.74-1.49,3.13-3.19,3.46
		C25.68,133.29,24.33,133.64,23.33,132.98z M48.73,59.36c-1.47,0.38-2.95,0.62-4.53,0.57c-1.9-0.04-3.74-0.08-5.62-0.63
		c-0.24-0.05-0.52-0.19-0.81-0.32c-0.07-0.03-0.14-0.06-0.21-0.09c-0.01-0.3-0.03-0.6-0.01-0.9c0,0,0,0,0,0
		c0.33,0.05,0.66,0.1,1,0.13c1.08,0.11,2.18,0.13,3.26,0.15c0.79,0.07,4.59-0.11,7.68-0.69c0.23-0.04,0.45-0.09,0.66-0.13
		c-0.1,0.13-0.17,0.28-0.18,0.49c-0.05,0.36-0.04,0.72,0,1.08C49.54,59.14,49.14,59.25,48.73,59.36z M32.43,58.78
		c0.37,0.42,0.83,0.76,1.34,1.04c0.59,0.32,1.23,0.58,1.87,0.81c-0.06,0.11-0.13,0.21-0.19,0.32c-0.88,1.44-1.77,2.9-2.44,4.44
		C32.82,63.18,32.65,60.98,32.43,58.78z M56.64,55.32c-0.09,0.2-0.21,0.39-0.36,0.54c-0.75,0.76-1.8,1.21-2.7,1.77
		c-0.62,0.29-1.22,0.61-1.85,0.89c-0.04,0.02-0.07,0.05-0.1,0.07c-0.13-0.05-0.27-0.06-0.42-0.02c-0.01-0.14-0.02-0.29-0.02-0.44
		c0.25-0.46,0.09-0.77-0.18-0.9c0.9-0.24,1.64-0.53,2.1-0.88c0,0,0.01,0,0.01,0c0.34,0,0.63-0.29,0.63-0.62
		c-0.01-1.14-0.06-2.28-0.13-3.41c-0.08-1.25-0.13-2.5-0.24-3.75c-0.01-0.11-0.06-0.21-0.13-0.29c0-0.08,0-0.16,0-0.24
		c0-0.03,0-0.06,0-0.09c0-0.02,0-0.04,0-0.05c0.01,0.02,0.02,0.04,0.03,0.06c0.13,0.22,0.39,0.37,0.65,0.33
		c0.34-0.08,0.66-0.17,0.98-0.27c0.38-0.11,0.75-0.22,1.14-0.29c0.07-0.01,0.15-0.02,0.22-0.03c-0.02,0.33-0.01,0.69,0.01,1.04
		c0.04,0.62,0.12,1.21,0.1,1.54c0.1,1.23,0.29,2.43,0.39,3.65c0.01,0.12,0.03,0.24,0.04,0.36C56.88,54.6,56.8,54.98,56.64,55.32z
		 M58.37,44.89c-0.76,0.52-1.55,1-2.35,1.46c-0.01,0.01-0.02,0.02-0.03,0.03c-0.57,0.1-1.13,0.26-1.64,0.42
		c-0.37,0.1-0.88,0.2-1.07,0.52c0.01-0.62,0.03-1.24,0.1-1.85c0.01-0.34-0.27-0.58-0.57-0.61c0.02-0.03,0.05-0.06,0.08-0.1
		c0.71-1.23,0.93-2.62,1.01-4.04c0.19-0.85,0.19-1.71,0.08-2.58c0-0.02,0-0.03,0-0.05c0-0.02-0.01-0.04-0.01-0.07
		c-0.17-1.29-0.57-2.59-0.9-3.87c0.05,0.04,0.1,0.09,0.17,0.12c0.35,0.15,0.7-0.08,1.05-0.1c1.38,3.35,2.96,7,4.08,10.54
		c0.02,0.05,0.04,0.1,0.05,0.15C58.4,44.87,58.39,44.88,58.37,44.89z M31.28,49.46c0.16,0.02,0.31,0.05,0.47,0.05
		c0.37,0,0.69-0.32,0.69-0.69c-0.13-1.11-1.98-0.68-2.8-0.98c0.16-3.55-0.05-7.36,1.03-10.8c0.07-0.22,0.13-0.44,0.21-0.66
		c0.18-0.47,0.38-0.94,0.61-1.4c0.61-0.59,1.38-0.96,2.19-1.27c0.23-0.09,0.45-0.17,0.68-0.25c0,0.27,0,0.54,0,0.81
		c0.01,1.72,0.05,3.44,0.22,5.15c0.12,1.08,0.24,2.2,0.69,3.19c0.12,0.99,0.31,1.96,0.68,2.85c0.1,0.25,0.23,0.49,0.37,0.72
		c0.09,0.14,0.17,0.29,0.27,0.42c0.73,0.61,1.76,0.62,2.65,0.82c1.98,0.34,3.98,0.64,5.98,0.8c0.16,0.01,0.32,0.01,0.48,0.01
		c0.46,0.02,0.92,0,1.37-0.06c1.46-0.18,2.85-0.73,4.03-1.61c0.08-0.06,0.16-0.11,0.24-0.17c0.15-0.12,0.28-0.25,0.42-0.38
		c0.16-0.14,0.32-0.28,0.47-0.44c-0.08,0.45-0.15,0.92-0.2,1.4c0,0.03-0.01,0.06-0.01,0.09c-0.24,2.68,0.01,5.72-0.42,8.33
		c0,0.03,0.01,0.05,0.01,0.08c-0.27,0.11-0.54,0.21-0.81,0.31c-1.41,0.33-2.87,0.6-4.34,0.8c-0.69,0.09-1.37,0.16-2.07,0.21
		c-3.01,0.22-6.06,0.05-8.93-0.76c-0.64-3.1-1.54-6.06-1.29-9.31c0.03-0.53-0.69-0.82-1.04-0.43c-0.29,1.15-0.31,2.33-0.2,3.51
		c0.21,2.28,0.93,4.58,1.3,6.79c0.15,0.5,0.67,0.71,1.12,0.88c0.3,0.1,0.6,0.18,0.9,0.26c-0.04,0.58,0.05,1.18-0.04,1.74
		c-1.23-0.43-2.53-0.88-3.2-2.04c-0.51-2.75-1.13-5.01-1.76-7.69c0.01-0.05,0.01-0.09,0.02-0.14C31.27,49.55,31.28,49.5,31.28,49.46
		z M27.17,113.63c0.04-0.2,0.04-0.39,0.02-0.58c-0.03-0.25-0.1-0.48-0.19-0.72c-0.08-0.21-0.16-0.42-0.22-0.63
		c0.02-1.29,0.1-2.59,0.23-3.89c0.16-1.7,0.41-3.4,0.71-5.08c0.3-1.69,0.66-3.36,1.04-5.01c0.36-2,0.68-4,0.99-6.01
		c0.24-1.55,0.48-3.1,0.71-4.65c0.36-2.38,0.72-4.76,1.11-7.13c0.01-0.4-0.37-0.64-0.72-0.61c0.04-0.28,0.06-0.56,0.12-0.76
		c0.68-2.41,1.2-4.88,1.79-7.32c0.37-0.35,0.62-0.75,0.65-1.24c-0.03-0.33-0.06-0.66-0.09-0.99c0-0.01,0.01-0.03,0.01-0.04
		c0.14-0.51,0.28-1.02,0.44-1.53c0.21-0.69,0.42-1.37,0.67-2.05c0.66-1.49,1.75-2.86,2.51-4.33c0.38,0.01,0.62-0.33,0.61-0.67
		c1.32,0.48,3.23,0.73,3.74,0.75c2.68,0.29,5.43,0.17,8.03-0.52c0.31-0.08,0.61-0.18,0.92-0.28c0.1,0.3,0.21,0.6,0.34,0.89
		c0.08,0.19,0.16,0.38,0.25,0.57c1.07,1.25,1.91,2.65,2.44,4.21c1.85,7.51,2.59,15.43,4.45,22.99c1.36,5.96,2.97,11.83,3.89,17.88
		c0.32,1.68,0.53,3.37,0.73,5.07c0.02,0.18-0.08,0.33-0.23,0.4c-0.53,0.29-1.17,0.51-1.77,0.63c-0.69,0.29-2.3,0-2.59,0.87
		c-0.08,0-0.16,0.01-0.23,0.01c-1,0.04-1.99,0.08-2.99,0.11c-1.16,0.04-2.33,0.1-3.49,0.21c-0.65,0.05-1.29,0.11-1.94,0.18
		c-0.25-0.16-0.6-0.16-0.8,0.09c-0.09,0.01-0.17,0.02-0.26,0.03c-1.04,0.12-2.09,0.26-3.13,0.39c-2.18,0.26-4.36,0.48-6.56,0.42
		c-2.51-0.23-5.01-0.97-7.53-1.37c-0.53-0.08-1.05-0.15-1.58-0.2c-0.21-0.02-0.43-0.05-0.64-0.06c-0.01,0-0.01,0-0.02,0
		C28.1,113.62,27.64,113.61,27.17,113.63z M47.62,125.34c-0.9,0.08-1.85,0.21-2.76,0.04c0.02-0.06,0.04-0.11,0.05-0.18
		c0-2.87,0.01-5.74,0.1-8.59c0.03-0.1,0.03-0.2,0.02-0.3c1.01-0.13,2.02-0.25,3.03-0.34c-0.28,3.01-0.44,6-0.46,9.09
		c0,0.04,0.02,0.08,0.02,0.11c0.01,0.06,0.01,0.12,0.03,0.16C47.64,125.34,47.63,125.34,47.62,125.34z M43.77,116.45
		c-0.1,0.55,0.04,1.28-0.05,1.74c-0.07,2.32-0.09,4.63-0.06,6.96c0,0.1,0.02,0.19,0.05,0.26c-0.66,0.01-1.27-0.01-1.9-0.05
		c-0.37-2.88-0.8-5.76-1.24-8.64C41.63,116.68,42.7,116.58,43.77,116.45z M42.7,133.31c-1.07-0.01-2.18-0.02-3.15-0.44
		c0.07-1.87,0.02-3.83,0.43-5.69c0.04-0.19,0.1-0.38,0.15-0.58c0.1,0.01,0.2,0.02,0.3,0c0.05,0.01,0.11,0.01,0.17,0.01
		c0.04,0,0.08,0.01,0.12,0.01c0.01,0.03,0.03,0.05,0.04,0.07c-0.32,0.03-0.58,0.18-0.6,0.61c0.02,0.71,0.85,0.67,1.38,0.75
		c0.7,0.1,0.93-0.82,0.48-1.16c0.07-0.04,0.12-0.09,0.17-0.16c0.51,0.03,1.02,0.05,1.53,0.04c0.12,0,0.22-0.03,0.31-0.07
		c0,0.04,0,0.09,0,0.13c-0.17,0.22-0.18,0.55-0.02,0.79c-0.03,1.75-0.04,3.47-0.38,5.22c-0.03,0.15-0.05,0.3-0.09,0.46
		C43.26,133.32,42.98,133.31,42.7,133.31z M52.89,130.63c-0.94,0.66-2.11,0.84-3.19,1.16c-1.42,0.42-2.86,1.28-4.34,0.62
		c-0.1-0.03-0.2-0.03-0.29-0.01c0-0.02,0-0.04,0.01-0.06c0.19-1.43,0.17-2.87,0.21-4.31c0.08,0.01,0.16,0.01,0.24,0.02
		c0.85-0.1,2.57,0.61,2.78-0.59c0-0.36-0.3-0.66-0.66-0.66c-0.19-0.01-0.38-0.01-0.58-0.01c0.66-0.03,1.3-0.13,1.67-0.37
		c0.2,0.24,0.45,0.43,0.79,0.51C52.02,126.7,52.74,128.44,52.89,130.63z"/>
</g>
</svg>
