<?xml version="1.0" encoding="utf-8"?>
<!-- Generator: Adobe Illustrator 27.7.0, SVG Export Plug-In . SVG Version: 6.00 Build 0)  -->
<svg version="1.1" id="圖層_1" xmlns="http://www.w3.org/2000/svg" xmlns:xlink="http://www.w3.org/1999/xlink" x="0px" y="0px"
	 viewBox="0 0 70 125" style="enable-background:new 0 0 70 125;" xml:space="preserve">
<style type="text/css">
	.st0{fill:none;}
	.st1{fill:#294A26;}
	.st2{fill:#1F2214;}
	.st3{fill:#9E6924;}
	.st4{fill:#164323;}
	.st5{fill:#293B1D;}
	.st6{fill:#2A4D28;}
	.st7{fill:#749A2F;}
	.st8{fill:#76933C;}
	.st9{fill:#5F7D33;}
	.st10{fill:#3F562A;}
	.st11{fill:#101D0A;}
	.st12{fill:#C89A5D;}
	.st13{fill:#F2C1A3;}
	.st14{fill:#A87762;}
	.st15{fill:#3E3526;}
	.st16{fill:#28201C;}
	.st17{fill:#040000;}
	.st18{fill:#41617E;}
	.st19{fill:#DDB3A2;}
	.st20{fill:#A34529;}
	.st21{fill:#E7D0C8;}
	.st22{fill:#282828;}
	.st23{fill:#B1927D;}
	.st24{fill:#A3A399;}
	.st25{fill:#BF8466;}
	.st26{fill:#424242;}
	.st27{fill:#552D18;}
	.st28{fill:#A1BA39;}
	.st29{fill:#E2E1E1;}
	.st30{fill:#0D2037;}
	.st31{fill:#968272;}
	.st32{fill:#9CA2C4;}
	.st33{fill:#928884;}
	.st34{fill:#DCA88D;}
	.st35{fill:#BBB6C5;}
	.st36{fill:#9C6D4D;}
	.st37{fill:#080605;}
	.st38{fill:#2A6031;}
	.st39{fill:#FEFAFC;}
	.st40{fill:#509AB3;}
	.st41{fill:#4F431E;}
	.st42{fill:#3D6832;}
	.st43{fill:#84B733;}
	.st44{fill:#1B2912;}
	.st45{fill:#806F68;}
	.st46{fill:#4A3332;}
	.st47{fill:#9BD7F0;}
	.st48{fill:#78484B;}
	.st49{fill:#A1D9F2;}
	.st50{fill:#523D38;}
	.st51{fill:#C1A09C;}
	.st52{fill:#65676D;}
	.st53{fill:#C7BBAC;}
	.st54{fill:#5E6166;}
	.st55{fill:#CA997D;}
	.st56{fill:#C6C2B6;}
	.st57{fill:#17151C;}
	.st58{fill:#5D5A5C;}
	.st59{fill:#030810;}
	.st60{fill:none;stroke:#040000;stroke-width:0;stroke-linecap:round;stroke-linejoin:round;}
	.st61{fill:#9F8D89;}
	.st62{fill:#EECFCD;}
	.st63{fill:#BACAE8;}
	.st64{fill:#370504;}
	.st65{fill:#212022;}
	.st66{fill:#EC6B5E;}
</style>
<g>
	<path class="st0" d="M24.29,122.06c0.23,0.03,0.45,0.05,0.68,0.06c-0.03-0.07-0.07-0.14-0.1-0.22
		C24.66,121.98,24.47,122.03,24.29,122.06z"/>
	<path class="st0" d="M25.77,118.49c0.08-0.02,0.15-0.03,0.23-0.04c-0.05-0.44-0.11-0.88-0.18-1.32
		C25.8,117.58,25.78,118.03,25.77,118.49z"/>
	<path class="st0" d="M46.64,83.03c0.35-1.67,0.65-3.35,0.67-5.06C47.19,79.67,46.92,81.35,46.64,83.03z"/>
	<path class="st0" d="M56.93,83.68c-0.08,1.29,0.7,2.37,1.75,3.01c-0.69-1.1-1.25-2.26-1.58-3.4
		C57.06,83.43,57.02,83.57,56.93,83.68z"/>
	<path class="st0" d="M26.72,15.49c0.17-0.03,0.33-0.07,0.49-0.12c-0.07-0.04-0.14-0.06-0.2-0.11
		C26.92,15.35,26.82,15.42,26.72,15.49z"/>
	<path class="st0" d="M45.95,88.82c0.2,0.02,0.4,0.02,0.6,0.03c-0.28-0.34-0.44-0.77-0.52-1.23C46,88.02,45.97,88.42,45.95,88.82z"
		/>
	<path class="st0" d="M12.07,102.19c0.02,0.01,0.05,0.01,0.07,0.02c0-0.04,0-0.08,0-0.11c0-0.11,0-0.23-0.01-0.34
		c-0.03-0.01-0.07-0.02-0.1-0.02c0.02,0.11,0.05,0.22,0.05,0.34C12.08,102.11,12.08,102.15,12.07,102.19z"/>
	<path class="st0" d="M15.33,107.38c-0.07,0.02-0.14,0.03-0.21,0.04c0.07,0.05,0.14,0.09,0.21,0.14
		C15.33,107.5,15.33,107.44,15.33,107.38z"/>
	<path class="st0" d="M13.66,96.53c-0.04-0.52-0.12-1.28-0.18-2.15c-0.09,1.69-0.1,3.39-0.09,5.12c-0.06,0.31-0.03,0.87,0.01,1.5
		c0.04,0.06,0.08,0.12,0.11,0.19C13.63,99.62,13.76,98.07,13.66,96.53z"/>
	<path class="st0" d="M13.45,101.8c0,0.08,0.01,0.15,0.01,0.23c0.01-0.09,0.01-0.18,0.02-0.28
		C13.46,101.77,13.46,101.78,13.45,101.8z"/>
	<path class="st0" d="M60.16,77.3c0.05-0.01,0.1-0.03,0.16-0.04c0.11-0.05,0.23-0.09,0.33-0.11c0.11-0.04,0.22-0.1,0.31-0.17
		c-0.14-0.3-0.25-0.62-0.35-0.93c-0.14,0.41-0.31,0.78-0.51,1.11C60.12,77.21,60.14,77.26,60.16,77.3z"/>
	<path class="st0" d="M12.88,26.84c-0.02,0.23-0.11,0.48-0.17,0.7c-0.02,0.06-0.03,0.11-0.05,0.17c0.12-0.08,0.25-0.15,0.39-0.21
		c0.07-0.03,0.14-0.06,0.21-0.08c0.02-0.42,0.04-0.84,0.06-1.26c-0.15,0.07-0.29,0.17-0.42,0.28C12.9,26.56,12.89,26.7,12.88,26.84z
		"/>
	<path class="st0" d="M17.3,62.44c0,0.01,0,0.02,0.01,0.04c0.08,0,0.15,0,0.23-0.01c0.01,0,0.02,0,0.03,0
		c-0.02-0.13-0.02-0.26-0.01-0.38C17.47,62.2,17.38,62.32,17.3,62.44z"/>
	<path class="st0" d="M15.66,53.38c0.03-0.46,0.07-0.92,0.12-1.39c-0.1,0.42-0.2,0.84-0.3,1.26C15.54,53.29,15.6,53.33,15.66,53.38z
		"/>
	<path class="st0" d="M19.82,59.85c-0.12,0.16-0.23,0.33-0.35,0.49c-0.03,0.03-0.05,0.07-0.08,0.11c0.26-0.06,0.51-0.11,0.77-0.17
		c-0.02-0.08-0.03-0.15-0.05-0.23C20.01,59.99,19.91,59.92,19.82,59.85z"/>
	<path class="st0" d="M15.84,71.33c0-0.11,0.01-0.21,0.03-0.31c-0.04-0.06-0.08-0.12-0.12-0.18C15.78,71,15.81,71.16,15.84,71.33z"
		/>
	<path class="st0" d="M24.32,63.03c0.3-0.01,0.6-0.01,0.89,0.01c-0.09-0.18-0.14-0.37-0.16-0.57
		C24.81,62.66,24.57,62.84,24.32,63.03z"/>
	<path class="st0" d="M43.19,72.36c0.36-0.22,0.83-0.38,1.46-0.44c0.16-0.18,0.35-0.33,0.56-0.43c0.04-0.34,0.18-0.62,0.37-0.87
		c-0.71,0.5-1.42,1.01-2.28,1.16C43.28,71.95,43.24,72.15,43.19,72.36z"/>
	<path class="st0" d="M19.92,68.79c-0.06,0.08-0.12,0.16-0.06,0.09c-0.05,0.08-0.1,0.17-0.14,0.25c0,0,0,0.01-0.01,0.01
		c0.07,0.01,0.13,0.03,0.19,0.04c0.09-0.1,0.19-0.19,0.3-0.28c0.11-0.08,0.22-0.16,0.34-0.22c-0.2,0.03-0.4,0.06-0.6,0.09
		C19.93,68.78,19.92,68.78,19.92,68.79z"/>
	<path class="st0" d="M37.38,37.9c0.12-0.11,0.25-0.21,0.33-0.35c0-0.12,0-0.23-0.01-0.35c-0.03-0.31-0.07-0.61-0.11-0.92
		c-0.07,0.06-0.15,0.12-0.23,0.17c-0.3,0.17-0.65,0.24-0.99,0.19c0.07,0.08,0.14,0.17,0.21,0.25C36.86,37.21,37.11,37.55,37.38,37.9
		z"/>
	<path class="st0" d="M25.31,49.8c0.02-0.26,0.03-0.51,0.05-0.77c0-0.05,0.01-0.09,0.01-0.14c-0.05,0.31-0.11,0.61-0.18,0.92
		C25.23,49.8,25.27,49.8,25.31,49.8z"/>
	<path class="st0" d="M33.19,64.95c-0.06,0.06-0.13,0.12-0.2,0.18c0.06,0,0.13,0.01,0.19,0C33.19,65.07,33.19,65.01,33.19,64.95z"/>
	<path class="st0" d="M4.46,38.24c-0.04-0.11-0.06-0.22-0.09-0.34c-0.11,0.38-0.23,0.75-0.36,1.12c0.13-0.03,0.27-0.04,0.4-0.03
		C4.41,38.74,4.43,38.49,4.46,38.24z"/>
	<path class="st0" d="M16.11,10.16c0,0.02,0,0.04,0,0.05c0.02-0.01,0.04-0.01,0.06-0.02C16.15,10.18,16.13,10.17,16.11,10.16z"/>
	<path class="st0" d="M10.71,56.1c0.05,0.37-0.04,0.73-0.2,1.04c-0.11,1.27-0.35,2.53-0.8,3.77c-0.02,0.11-0.04,0.23-0.06,0.34
		c0.27-0.88,0.68-1.73,1.01-2.59c0.18-1.38,0.22-2.76,0.22-4.15c-0.04,0.12-0.07,0.24-0.11,0.36C10.76,55.29,10.74,55.7,10.71,56.1z
		"/>
	<path class="st0" d="M10.1,64.15c-0.32-0.41-0.54-0.89-0.63-1.44c-0.02,0.33-0.01,0.66,0.08,0.98C9.72,63.87,9.91,64.02,10.1,64.15
		z"/>
	<path class="st0" d="M25.35,21.22c0,0.07-0.01,0.14-0.02,0.21c0.2-0.25,0.37-0.53,0.49-0.86c-0.02,0-0.04,0-0.07,0
		c-0.08,0.15-0.17,0.28-0.29,0.39C25.44,21.05,25.39,21.13,25.35,21.22z"/>
	<path class="st0" d="M20.15,3.13c-0.4,0.11-0.79,0.25-1.16,0.44c-0.51,0.51-0.63,1.3-0.91,1.94c-0.31,0.89-0.45,1.8-0.51,2.72
		C17.69,8.31,17.8,8.4,17.9,8.5C18.33,6.58,18.95,3.95,20.15,3.13z"/>
	<path class="st0" d="M51.3,68.51c-0.72,0.13-1.46,0.3-2.19,0.51c0.52,0.05,1.02,0.26,1.41,0.66c0.34-0.4,0.72-0.76,1.12-1.09
		c-0.09-0.04-0.18-0.09-0.26-0.14C51.35,68.47,51.33,68.5,51.3,68.51z"/>
	<path class="st0" d="M26.92,20.63c0.04,0.12,0.04,0.25,0.01,0.38c0.2-0.14,0.41-0.24,0.62-0.32
		C27.34,20.67,27.14,20.65,26.92,20.63z"/>
	<path class="st0" d="M18.72,22.34c-0.12-0.09-0.23-0.18-0.35-0.27c-0.25-0.19-0.44-0.44-0.56-0.69c-0.88,0.01-1.65,0.05-2.31,0.1
		c0.5,0.15,1.06,0.37,1.72,0.69C17.73,21.97,18.24,22.1,18.72,22.34z"/>
	<path class="st0" d="M23,3.01c1.73,0.07,2.63,1.89,2.9,3.4c0.18,0.06,0.34,0.14,0.49,0.24c-0.28-1.45-0.85-2.87-1.89-3.82
		c-1.09-0.03-2.23-0.06-3.32,0.09C21.78,3.15,22.35,3.01,23,3.01z"/>
	<path class="st0" d="M55.61,58.57c-0.27-0.27-0.59-0.48-0.94-0.61c0.1,0.11,0.19,0.21,0.28,0.33
		C55.18,58.33,55.4,58.43,55.61,58.57z"/>
	<path class="st0" d="M51.11,58.08c-0.01,0.02-0.01,0.04-0.02,0.06c0.02-0.02,0.03-0.04,0.05-0.06
		C51.13,58.08,51.12,58.08,51.11,58.08z"/>
	<path class="st0" d="M46.46,62.6c-0.08,0.23-0.06,0.49,0.08,0.69c0.03,0.04,0.07,0.08,0.1,0.12c-0.09-0.3-0.15-0.6-0.16-0.89
		C46.48,62.55,46.47,62.57,46.46,62.6z"/>
	<path class="st0" d="M30.85,85.79c-0.06,0.07-0.15,0.14-0.23,0.21c0.12-0.04,0.24-0.08,0.36-0.13
		C30.94,85.84,30.89,85.82,30.85,85.79z"/>
	<path class="st0" d="M30.22,87.8c0.04-0.1,0.06-0.2,0.11-0.29c-0.17,0.05-0.34,0.08-0.51,0.12c0.02,0.03,0.03,0.06,0.05,0.09
		C29.98,87.74,30.1,87.75,30.22,87.8z"/>
	<path class="st0" d="M9.32,42.76c-0.13,0.05-0.26,0.1-0.4,0.16c0.13,0.06,0.26,0.12,0.37,0.2C9.3,42.99,9.31,42.88,9.32,42.76z"/>
	<path class="st0" d="M10.89,53.22c0-0.15-0.01-0.31-0.01-0.46c0,0.15-0.01,0.3-0.01,0.45C10.87,53.21,10.88,53.21,10.89,53.22z"/>
	<path class="st0" d="M10.84,49.4c0-0.35,0-0.7,0.01-1.05c0-1.34-0.04-2.68,0.02-4.01c0.02-0.52,0.27-0.98,0.68-1.26
		c-0.26-0.15-0.47-0.38-0.58-0.68c-0.01-0.02-0.02-0.05-0.03-0.07c-0.11,0.07-0.22,0.13-0.35,0.18c-0.06,0.98-0.13,1.96-0.19,2.93
		C10.67,46.75,10.79,48.07,10.84,49.4z"/>
	<path class="st0" d="M52.82,65.76c0.24,0.12,0.49,0.29,0.77,0.29c0.02,0,0.04-0.01,0.06-0.01c0.01,0,0.03-0.01,0.04-0.01
		c-0.11-0.07-0.21-0.15-0.3-0.24C53.2,65.79,53.01,65.78,52.82,65.76z"/>
	<path class="st0" d="M23.29,82.78c-0.04-0.16-0.12-0.31-0.21-0.45c0,0.18,0,0.36,0,0.54C23.15,82.85,23.22,82.81,23.29,82.78z"/>
	<path class="st0" d="M16.37,94.46c0.05-0.35,0.11-0.69,0.16-1.04c-0.08,0.02-0.15,0.04-0.23,0.05
		C16.31,93.8,16.34,94.13,16.37,94.46z"/>
	<path class="st0" d="M56.63,109.09c0-0.17,0-0.35,0-0.52c-0.16,0.01-0.33,0.01-0.49,0.01C56.34,108.71,56.5,108.88,56.63,109.09z"
		/>
	<path class="st0" d="M54.78,106.99c0,0.08-0.01,0.17-0.01,0.25c0.04-0.01,0.07-0.03,0.11-0.04c0.59,0.06,1.16,0.08,1.71,0.01
		c0.01-0.04,0.01-0.08,0.02-0.13c0-0.14-0.01-0.29-0.02-0.43C56.16,107.17,55.37,107.28,54.78,106.99z"/>
	<path class="st0" d="M55.46,101.1c0.15-0.11,0.36-0.16,0.59-0.19c0.01-0.09,0.01-0.18,0.01-0.27c-0.22,0-0.45-0.04-0.65-0.14
		C55.43,100.7,55.45,100.9,55.46,101.1z"/>
	<path class="st0" d="M54.74,108.41c0,0.05,0,0.11,0,0.17c0.06-0.03,0.13-0.07,0.19-0.09C54.86,108.46,54.8,108.44,54.74,108.41z"/>
	<path class="st0" d="M52.15,121.19c0.01,0.01,0.01,0.01,0.02,0.02c0.05,0.04,0.08,0.07,0.1,0.08c-0.04-0.05-0.08-0.1-0.12-0.16
		C52.15,121.15,52.15,121.17,52.15,121.19z"/>
	<path class="st0" d="M53.55,107.15c0.03-0.68,0.05-1.36,0.07-2.04c-0.03,0.08-0.06,0.16-0.11,0.25
		C53.5,105.96,53.52,106.55,53.55,107.15z"/>
	<path class="st0" d="M54.28,121.74c0.04-0.17,0.07-0.35,0.1-0.53c-0.24,0.28-0.58,0.46-0.93,0.51
		C53.74,121.77,54.02,121.79,54.28,121.74z"/>
	<path class="st0" d="M24.88,26.41c0.26-0.07,0.55-0.08,0.82-0.05c0.05-0.11,0.1-0.22,0.15-0.33c0.04-0.08,0.08-0.16,0.12-0.24
		c-0.09,0.06-0.19,0.13-0.28,0.19C25.43,26.14,25.16,26.29,24.88,26.41z"/>
	<path class="st0" d="M59.69,80.35c0.01-0.05,0.02-0.1,0.03-0.14c-0.12,1.97,0.57,3.86,1.69,5.5c-0.12-0.23-0.23-0.46-0.34-0.68
		c-0.74-1.56-1.2-3.22-1.35-4.92c-0.01,0.09-0.01,0.18-0.04,0.27C59.69,80.37,59.69,80.36,59.69,80.35z"/>
	<path class="st0" d="M62.45,86.85c-0.11-0.06-0.22-0.12-0.31-0.2c0.08,0.09,0.15,0.18,0.23,0.27
		C62.4,86.89,62.43,86.87,62.45,86.85z"/>
	<path class="st0" d="M53.69,103.65c-0.15,0-0.29-0.01-0.44-0.01c0.18,0.17,0.31,0.37,0.39,0.6
		C53.68,104.07,53.69,103.87,53.69,103.65z"/>
	<path class="st0" d="M50.2,90.44c0.02-0.03,0.04-0.06,0.06-0.09c-0.32-0.01-0.63-0.01-0.95-0.02c0.01,0.33,0.02,0.67,0.02,1
		C49.48,90.92,49.8,90.59,50.2,90.44z"/>
	<path class="st0" d="M56.41,90.98c-0.68,0.01-1.35-0.03-2-0.11c0.1,0.16,0.19,0.34,0.22,0.53C55.2,91.2,55.8,91.07,56.41,90.98z"/>
	<path class="st0" d="M59.68,78.89c-0.09,0.02-0.18,0.04-0.26,0.06c-0.01,0.03-0.02,0.06-0.03,0.09c0.15,0.16,0.25,0.36,0.31,0.58
		C59.68,79.38,59.69,79.14,59.68,78.89z"/>
	<path class="st0" d="M49.19,98.58c-0.02,1.18-0.01,2.36,0.04,3.54c0.07,0.01,0.13,0.01,0.2,0.01
		C49.08,101.1,49.24,99.74,49.19,98.58z"/>
	<path class="st0" d="M40.45,64.29c-0.1,0.07-0.23,0.12-0.4,0.11c-0.02,0-0.04-0.01-0.06-0.02c-0.09,0.39-0.17,0.78-0.25,1.17
		c-0.03,0.17-0.06,0.34-0.09,0.5c0.22-0.57,0.57-1.13,0.81-1.59C40.45,64.41,40.45,64.35,40.45,64.29z"/>
	<path class="st0" d="M43.35,63.12c-0.02-0.43-0.07-0.86-0.14-1.28c0.04,0.67,0.05,1.34,0.03,2.01
		C43.32,63.61,43.37,63.36,43.35,63.12z"/>
	<path class="st0" d="M36.86,41.49c0.1,0.43,0.2,0.86,0.31,1.29c-0.04-0.41-0.11-0.84-0.08-1.25
		C37.01,41.52,36.94,41.51,36.86,41.49z"/>
	<path class="st0" d="M55.86,74.9c-0.09-0.05-0.18-0.11-0.27-0.17c-0.08,0.31-0.17,0.62-0.27,0.93c0.01-0.02,0.03-0.04,0.04-0.06
		C55.53,75.36,55.69,75.13,55.86,74.9z"/>
	<path class="st0" d="M43.27,70.41c-0.1-0.07-0.17-0.18-0.2-0.31c0,0.13,0,0.26,0,0.38C43.13,70.45,43.2,70.43,43.27,70.41z"/>
	<path class="st0" d="M52.36,73.51c0.07,0,0.15,0.01,0.22,0.02c0.14-0.69,0.28-1.37,0.38-2.06c-0.35,0.64-0.77,1.32-0.81,2.06
		c0,0,0,0,0,0C52.22,73.52,52.29,73.51,52.36,73.51z"/>
	<path class="st0" d="M39.35,40.47c0.31-0.27,0.69-0.36,1.07-0.3c-0.02-0.33-0.05-0.66-0.07-1c0,0-0.01,0.01-0.01,0.01
		c-0.27,0.46-0.62,0.88-1.03,1.24C39.32,40.44,39.33,40.46,39.35,40.47z"/>
	<path class="st0" d="M54.43,78.27c0.15-0.56,0.38-1.1,0.45-1.68c-0.25,0.26-0.61,0.42-0.97,0.46c-0.01,0.06-0.03,0.12-0.04,0.18
		c0.28,0.23,0.46,0.56,0.54,0.94C54.42,78.2,54.42,78.23,54.43,78.27z"/>
	<path class="st32" d="M26.6,8.44c-0.02-0.58-0.09-1.19-0.2-1.8c-0.15-0.1-0.31-0.18-0.49-0.24c-0.27-1.51-1.17-3.32-2.9-3.4
		c-0.65,0.01-1.22,0.14-1.82-0.09c-0.35,0.05-0.7,0.12-1.04,0.21c-1.19,0.82-1.81,3.45-2.24,5.37c0.11,0.13,0.21,0.27,0.22,0.45
		c0,0.25-0.15,0.46-0.36,0.55c0.46,0.12,0.92,0.22,1.37,0.33c2.43,0.57,4.87,0.66,7.34,0.7c0.35,0.01,0.64,0.29,0.64,0.64
		c-0.08,1.2-2.58,0.46-3.43,0.57c-2.09-0.2-4.42-0.33-6.42-1.07c-0.36,0.25-0.97,0.1-1-0.44c-0.03-0.01-0.06-0.03-0.09-0.04
		c-0.02,0.01-0.04,0.01-0.06,0.02c-0.07,0.75,0.23,1.58,0.53,2.23c1.26,2.37,4.11,3.06,6.57,3.13c1.15-0.01,2.39,0.13,3.52-0.07
		c0.1-0.08,0.19-0.15,0.29-0.23c0.06,0.05,0.13,0.07,0.2,0.11c0.51-0.14,1-0.37,1.43-0.74c1.14-1.75,0.47-2.86-0.98-4.08
		c-0.26-0.25-0.25-0.68,0-0.93c0.04-0.04,0.08-0.05,0.12-0.08c-0.01-0.04-0.02-0.08-0.03-0.12c-0.12,0.15-0.3,0.25-0.49,0.25
		C26.59,9.7,26.61,8.88,26.6,8.44z"/>
	<path class="st32" d="M15.22,12.51c0.27,1.3,1.53,2.47,3.02,3.22C16.9,14.98,15.79,13.89,15.22,12.51z"/>
	<path class="st33" d="M49.4,67.1c0.14,0.12,0.28,0.24,0.43,0.35c0.1-0.02,0.2-0.03,0.3-0.05C49.88,67.31,49.64,67.21,49.4,67.1z"/>
	<path class="st33" d="M55.65,64.28c-1.04,0.26-2.12,0.62-3.19,0.31c-0.6-0.14-1.08-0.51-1.52-0.93c-0.6-0.6,0.32-1.53,0.93-0.93
		c1.12,1.22,2.83,0.37,4.17,0.07c0.39-1.22,0.23-2.8-0.23-4.01c-0.06-0.08-0.14-0.15-0.21-0.22c-0.2-0.14-0.42-0.23-0.67-0.28
		c-0.09-0.12-0.18-0.23-0.28-0.33c-0.77-0.3-1.67-0.31-2.45-0.1c-0.28,0.02-0.68,0.14-1.07,0.23c-0.02,0.02-0.03,0.04-0.05,0.06
		c-0.31,0.85-0.38,1.81-0.46,2.63c0.45,0.32,0.17,1.12-0.39,1.1c-0.53-0.01-0.77-0.38-0.85-0.92c-0.34,0.06-0.69,0.07-1.02,0.08
		c-0.93,0.02-1.59,0.65-1.88,1.49c0,0.29,0.07,0.59,0.16,0.89c0.62,0.8,1.41,1.52,2.31,1.97c2.56,1.33,5.33,2.12,8.18,1.44
		c1.29-0.27,2.34-1.34,2.54-2.62c0.08-0.35,0.03-0.69-0.16-0.95c-0.25-0.38-0.86-0.64-1.33-0.94c-0.06,0-0.11,0-0.17,0.01
		c-0.16-0.06-0.32-0.1-0.47-0.12c-0.01,0-0.02,0-0.04,0c-0.04,0.34-0.09,0.67-0.15,0.98C57.15,63.92,56.34,64.15,55.65,64.28z
		 M53.65,66.04c-0.02,0-0.04,0.01-0.06,0.01c-0.28,0-0.53-0.17-0.77-0.29c0.19,0.03,0.38,0.03,0.57,0.03
		c0.09,0.09,0.19,0.17,0.3,0.24C53.68,66.03,53.66,66.04,53.65,66.04z"/>
	<path class="st33" d="M51.38,68.46c0.09,0.05,0.18,0.1,0.26,0.14c0.18-0.15,0.36-0.31,0.55-0.44c0.03-0.01,0.07-0.02,0.1-0.03
		c-0.21-0.06-0.43-0.13-0.65-0.19C51.65,68.15,51.56,68.35,51.38,68.46z"/>
	<path class="st33" d="M55.37,68.61c0.1-0.05,0.19-0.11,0.28-0.17c-0.16,0.01-0.32,0.02-0.48,0.03
		C55.24,68.51,55.31,68.55,55.37,68.61z"/>
	<path class="st34" d="M19.29,21.23c0.77,0.66,1.6,1.36,2.59,1.59c1.29-0.06,2.66-0.41,3.45-1.39c0.01-0.07,0.02-0.14,0.02-0.21
		c0.04-0.09,0.09-0.16,0.11-0.27c0.12-0.11,0.22-0.24,0.29-0.39c-0.39-0.01-0.79-0.02-1.2-0.02c-0.57-0.02-1.53-0.12-1.35-0.92
		c0.08-0.35,0.5-0.56,0.82-0.41c0.39-0.01,0.75,0,1.12,0.01c-0.08-0.08-0.14-0.18-0.17-0.33c-0.06-0.31-0.12-0.7,0.09-0.97
		c0.06-0.08,0.14-0.14,0.22-0.18c-0.1-0.13-0.21-0.24-0.35-0.33c0.02,0.01,0.05,0.02,0.07,0.04c-0.05-0.03-0.09-0.05-0.13-0.08
		c-0.01-0.01-0.03-0.02-0.04-0.02c-0.5-0.29-0.94-0.29-1.3-0.1c-0.11-0.16-0.25-0.29-0.42-0.38c-0.23-0.01-0.46-0.03-0.68-0.03
		c-0.18,0-0.36-0.01-0.54-0.03c-0.36,0.14-0.67,0.4-0.82,0.77c-0.26,0.48-0.01,1.17-0.5,1.51c-0.28,0.36-0.61,0.6-0.98,0.87
		c-0.09,0.11-0.17,0.22-0.23,0.33c0.11,0.1,0.19,0.24,0.21,0.45C19.55,20.92,19.44,21.11,19.29,21.23z"/>
	<path class="st34" d="M4.82,45.53c0.01-0.38,0.03-0.75,0.05-1.13C4.72,44.76,4.69,45.17,4.82,45.53z"/>
	<path class="st34" d="M6.23,67.72c0.03-4.32,1.75-8.35,3.13-12.39c0.01-2.69-0.45-5.41-0.3-8.11c0.06-1.37,0.14-2.74,0.23-4.11
		c-0.12-0.07-0.24-0.14-0.37-0.2c-0.9,0.37-1.84,0.76-2.79,0.69c0.14,5.53-0.61,11.09-1.42,16.57c-0.19,1.71-0.37,3.48-0.48,5.19
		c0.8-0.35,1.62,0.68,0.61,1.12c-0.28,1.41-0.28,3.2,0.72,4.28c0.81-0.17,1.52-0.97,1.11-2c-0.06-0.2-0.12-0.41-0.16-0.62
		C6.36,68.06,6.25,67.91,6.23,67.72z"/>
	<path class="st34" d="M10.4,51.1c0.05,0.67,0.1,1.34,0.14,2.01c0.05,0,0.1,0,0.15,0.01c0.07,0.02,0.13,0.05,0.18,0.09
		c0.01-0.15,0.01-0.3,0.01-0.45c-0.02-1.12-0.05-2.24-0.04-3.36c-0.05-1.33-0.17-2.66-0.42-3.96C10.31,47.32,10.25,49.2,10.4,51.1z"
		/>
	<path class="st34" d="M3.36,66.72c0,0.26,0.02,0.51,0.04,0.77c0.02-0.26,0.06-0.5,0.11-0.74C3.45,66.74,3.4,66.73,3.36,66.72z"/>
	<path class="st34" d="M10.79,54.89c-0.06,0.21-0.13,0.41-0.2,0.61c-0.01,0.55-0.03,1.1-0.08,1.64c0.16-0.31,0.25-0.67,0.2-1.04
		C10.74,55.7,10.76,55.29,10.79,54.89z"/>
	<path class="st34" d="M43.06,70.09c-0.01-0.03-0.03-0.05-0.03-0.09c-0.12-1.19-0.09-2.39-0.07-3.59c-0.21,0.04-0.43-0.01-0.59-0.17
		c-0.49-0.49,0.05-1,0.37-1.38c0.19-0.3,0.39-0.65,0.51-1.02c0.02-0.67,0.01-1.34-0.03-2.01c-0.32-2.11-1.08-4.09-1.23-6.26
		c-0.45-5.14-1.2-10.27-1.57-15.41c-0.37-0.06-0.76,0.04-1.07,0.3c-0.02-0.01-0.03-0.03-0.05-0.04c-0.48,0.43-1.01,0.8-1.54,1.07
		c-0.23,0.06-0.45,0.06-0.67,0.03c-0.03,0.41,0.04,0.85,0.08,1.25c0.87,3.68,1.85,7.36,3.15,10.91c0.84,2.08,1.26,4.29,1.6,6.5
		c0.04,0.24-0.08,0.47-0.27,0.6c0.53,0.44,0.44,1.88-0.27,1.9c0.11,0.18,0.13,0.42,0.03,0.65c-0.04,0.45-0.24,0.98-0.78,0.9
		c-0.03,0-0.04-0.02-0.07-0.02c-0.03,0.03-0.07,0.05-0.11,0.08c0,0.06,0.01,0.12,0.01,0.18c-0.25,0.46-0.59,1.02-0.81,1.59
		c-0.06,0.37-0.12,0.74-0.15,1.11c0.52-0.39,0.96-1.55,1.73-1.05c0.03,0.02,0.05,0.06,0.08,0.09c0.15-0.07,0.33-0.08,0.52,0.01
		c0.4,0.23,0.33,0.68,0.12,1.02c-0.47,1.87-0.49,3.79-0.18,5.65c0.12-0.82,0.12-1.77,0.86-2.27c0.15-0.03,0.3-0.08,0.44-0.13
		C43.06,70.35,43.06,70.22,43.06,70.09z"/>
	<path class="st34" d="M40.89,60.79c-0.13-0.1-0.23-0.25-0.25-0.43c-0.24-1.85-0.67-3.58-1.21-5.29c0.32,2.14,0.65,4.28,0.85,6.44
		C40.47,61.2,40.68,60.94,40.89,60.79z"/>
	<path class="st34" d="M40.42,68.1c-0.08,0.08-0.15,0.16-0.23,0.23c-0.04,1.25,0.01,2.51-0.03,3.74c0.01,0.37,0.12,0.66,0.3,0.89
		C40.2,71.47,40.17,69.53,40.42,68.1z"/>
	<path class="st34" d="M60.66,88.74c0.02-0.03,0.03-0.06,0.05-0.08c-0.02-0.02-0.04-0.04-0.06-0.06c0,0.05-0.01,0.1-0.01,0.15
		C60.64,88.75,60.65,88.75,60.66,88.74z"/>
	<path class="st34" d="M64.45,91.87c-0.6-0.18-1.01-0.68-1.35-1.18c-0.2-0.29-0.56-0.63-0.64-0.98c-0.17,0.05-0.36,0.04-0.52-0.06
		c-0.06-0.04-0.1-0.08-0.16-0.12c-0.02,0.04-0.05,0.07-0.07,0.11c-0.02,0.01-0.04,0.02-0.06,0.03c-0.02,0.17-0.09,0.33-0.16,0.49
		c0.95,0.91,1.92,1.64,2.78,2.05c0.95,0.54,1.82-0.04,2.1-0.82C65.78,91.75,65.11,92.01,64.45,91.87z"/>
	<path class="st34" d="M62.58,86.93c-0.05-0.02-0.08-0.06-0.12-0.08c-0.03,0.02-0.06,0.05-0.08,0.07c-0.08-0.09-0.15-0.18-0.23-0.27
		c-0.31-0.25-0.53-0.59-0.73-0.95c-1.12-1.64-1.81-3.53-1.69-5.5c-0.01,0.05-0.02,0.1-0.03,0.14c0,0.01-0.01,0.02-0.01,0.02
		c0.03-0.09,0.03-0.18,0.04-0.27c-0.01-0.16-0.02-0.32-0.03-0.48c-0.06-0.22-0.16-0.41-0.31-0.58c-0.07,0.19-0.22,0.35-0.48,0.38
		c-0.32,0.05-0.52,0.1-0.79,0.2c0.08,2.95,1.38,6,3.48,8.07c0.09,0,0.19,0,0.3,0.05c0.28,0.14,0.38,0.34,0.39,0.56
		c0.29,0.2,0.58,0.41,0.63,0.7c0.94-0.29,1.19,1.58,2.06,1.58c0.61-0.27,1.98-0.76,1.51-1.62C65.51,87.77,64.02,87.25,62.58,86.93z"
		/>
	<path class="st34" d="M57.1,83.3c0.32,1.13,0.89,2.29,1.58,3.4c0.19,0.11,0.39,0.21,0.59,0.3c-1.05-1.51-1.75-3.29-2.16-5.09
		c0.02,0.24,0.03,0.48,0.07,0.72C57.21,82.85,57.17,83.08,57.1,83.3z"/>
	<path class="st34" d="M14.51,86.57c-0.22,1.2-0.42,2.39-0.58,3.61c-0.24,1.41-0.37,2.8-0.45,4.19c0.06,0.87,0.14,1.64,0.18,2.15
		c0.1,1.54-0.03,3.1-0.15,4.65c0.03,0.07,0.07,0.14,0.08,0.23c0,0.13-0.05,0.25-0.12,0.35c-0.01,0.09-0.01,0.18-0.02,0.28
		c0.01,0.2,0.01,0.4,0.01,0.6c0.34-0.03,0.68,0.21,0.68,0.6c-0.16,0.55-0.57,1.11-0.5,1.72c0.06,0.59,0.66,0.96,1.18,1.11
		c0.16,0,0.34,0.02,0.5,0.06c0-1.3,0.04-2.59,0.17-3.88c-0.18-0.14-0.29-0.35-0.25-0.58c0.44-2.39,0.76-4.8,1.12-7.2
		c-0.03-0.33-0.05-0.66-0.07-0.99c0.08-0.01,0.16-0.03,0.23-0.05c0.06-0.36,0.11-0.72,0.17-1.07c0.3-1.71,0.49-3.46,0.76-5.18
		c-0.14-0.01-0.28-0.02-0.4-0.04C16.19,87.02,15.35,86.77,14.51,86.57z"/>
	<path class="st34" d="M25.48,88.98c-0.19,5.22-0.56,10.35-0.43,15.56c0.04,2.47-0.04,4.93-0.29,7.39c0.66,0.08,1.36,0.17,1.95-0.24
		c-0.01-6.93,1.24-13.82,2.75-20.55c0.27-1.1,0.36-2.27,0.75-3.34c-0.13-0.05-0.24-0.06-0.36-0.08c-0.01-0.03-0.03-0.06-0.05-0.09
		c-1.29,0.28-2.62,0.32-3.92-0.01c-0.32-0.07-0.61-0.13-0.88-0.18c-0.02,0.06-0.03,0.13-0.04,0.19
		C25.47,87.68,25.76,88.48,25.48,88.98z"/>
	<polygon class="st34" points="54.03,116.41 54.03,116.41 54.03,116.41 	"/>
	<path class="st34" d="M53.77,115.25c-0.49-2.64-0.34-5.39-0.22-8.1c-0.03-0.6-0.05-1.2-0.04-1.8c0.05-0.08,0.08-0.17,0.11-0.25
		c0.01-0.27,0.02-0.55,0.02-0.82c0-0.01,0-0.03,0.01-0.05c-0.08-0.23-0.21-0.43-0.39-0.6c-0.04,0-0.09,0-0.13,0
		c-0.32,0-0.61,0-0.89,0c-0.26,0.05-0.52,0.07-0.8,0.05c-0.39,3.88,0.74,7.69,1.32,11.53C53.07,115.26,53.46,115.2,53.77,115.25z"/>
	<path class="st34" d="M56.02,105.3c0.01-0.73,0-1.47-0.01-2.21c-0.3,0.3-0.67,0.44-1.06,0.51c-0.06,1.13-0.12,2.26-0.16,3.39
		c0.59,0.29,1.38,0.18,1.81-0.33c-0.01-0.22-0.01-0.44-0.03-0.65c0-0.02,0.01-0.05,0.01-0.07C56.26,105.88,56.03,105.62,56.02,105.3
		z"/>
	<path class="st35" d="M22.6,66.22c0.07-0.05,0.15-0.08,0.23-0.12c-0.13,0.03-0.25,0.06-0.38,0.1c0.02,0.03,0.04,0.05,0.06,0.08
		C22.54,66.26,22.57,66.24,22.6,66.22z"/>
	<path class="st35" d="M3.73,42.05c0.27,0.13,0.55,0.25,0.81,0.39c0.15,0.18,0.29,0.37,0.44,0.55c0.02-0.2,0.03-0.41,0.05-0.61
		C4.58,42.3,4.15,42.19,3.73,42.05z"/>
	<path class="st35" d="M36.36,39.76c1.38-0.91,3.36-1.17,4.19-2.74c-3.41-8.65-3.41-15.28-13-16.33c-0.21,0.07-0.42,0.18-0.62,0.32
		c-0.01,0.05-0.02,0.1-0.04,0.14c-0.77,2.13-3.19,2.95-5.29,2.86c-1.12-0.22-2.01-0.98-2.88-1.68c-0.47-0.23-0.99-0.37-1.51-0.18
		c-0.66-0.31-1.21-0.54-1.72-0.69c-4.55,0.35-4.67,1.72-8.35,6.72c-0.11,0.06-0.24,0.08-0.37,0.07c0.82,0.12,1.02,1.48,0.01,1.43
		c-1.05,2.65-1.58,5.48-2.41,8.21c0.03,0.11,0.05,0.22,0.09,0.34c-0.04,0.25-0.06,0.5-0.05,0.75c-0.14-0.01-0.27,0.01-0.4,0.03
		c-0.17,0.51-0.36,1.01-0.56,1.5c1.39,0.55,2.78,0.7,4.22,0.94c0.36,0.05,0.62,0.39,0.57,0.75c-0.05,0.36-0.4,0.63-0.75,0.58
		c-0.45-0.09-0.92-0.16-1.39-0.23c0.02,0.35,0.02,0.69,0.03,1.04c0.95,0.06,1.89-0.33,2.79-0.69c0.13-0.05,0.27-0.11,0.4-0.16
		c0.09-1.38,0.2-2.76,0.34-4.14c0.12-1.21,0.25-2.43,0.36-3.64c-0.01-0.44,0.34-0.92,0.82-0.77c0.32,0.1,0.49,0.42,0.43,0.72
		c-0.16,2.07-0.44,4.3-0.59,6.33c-0.02,0.42-0.05,0.84-0.07,1.25c0.12-0.05,0.24-0.11,0.35-0.18c0.01,0.02,0.02,0.05,0.03,0.07
		c0.11,0.3,0.32,0.53,0.58,0.68c-0.41,0.27-0.66,0.74-0.68,1.26c-0.05,1.34-0.02,2.68-0.02,4.01c-0.01,0.35-0.01,0.7-0.01,1.05
		c-0.01,1.12,0.02,2.24,0.04,3.36c0,0.15,0.01,0.31,0.01,0.46c0.19,0.14,0.27,0.39,0.21,0.63c-0.06,0.23-0.14,0.45-0.2,0.67
		c0,1.39-0.04,2.77-0.22,4.15c-0.33,0.85-0.75,1.7-1.01,2.59c-0.08,0.49-0.17,0.98-0.19,1.46c0.09,0.55,0.31,1.03,0.63,1.44
		c0.8,0.57,1.81,0.85,2.76,1.16c1.24-0.73,2.91,0.59,4.26,0.62c0.93,0.19,2.14-0.27,3.21-0.43c0.93-0.29,1.85-0.61,2.75-0.87
		c3.29-0.66,6.64,0.54,9.92,0.5c0.07-0.05,0.14-0.11,0.2-0.18c0.19-2.42,0.11-4.95-0.07-7.49c-0.12-1.48-0.25-2.95-0.38-4.43
		c-0.12-1.31-0.25-2.61-0.35-3.88c-0.08-1.72-1.92-13.25,0-13.07c0.34,0.05,0.56,0.36,0.53,0.69c-0.02,0.25-0.02,0.49-0.04,0.73
		c0.43,0.46,0.88,0.91,1.3,1.38C34.86,38.41,35.69,39.54,36.36,39.76z M37.36,36.44c0.08-0.05,0.16-0.1,0.23-0.17
		c0.05,0.31,0.09,0.61,0.11,0.92c0.01,0.12,0.01,0.23,0.01,0.35c-0.08,0.14-0.21,0.24-0.33,0.35c-0.26-0.34-0.52-0.69-0.8-1.02
		c-0.07-0.08-0.14-0.17-0.21-0.25C36.71,36.68,37.06,36.61,37.36,36.44z M13.26,27.42c-0.07,0.02-0.14,0.05-0.21,0.08
		c-0.14,0.06-0.27,0.13-0.39,0.21c0.02-0.06,0.03-0.11,0.05-0.17c0.06-0.22,0.15-0.47,0.17-0.7c0.01-0.14,0.02-0.27,0.02-0.41
		c0.13-0.11,0.27-0.21,0.42-0.28C13.3,26.58,13.28,27,13.26,27.42z M15.66,53.38c-0.06-0.05-0.12-0.09-0.19-0.13
		c0.1-0.42,0.2-0.84,0.3-1.26C15.73,52.46,15.69,52.92,15.66,53.38z M17.53,62.47c-0.08,0-0.15,0.01-0.23,0.01
		c0-0.01,0-0.02-0.01-0.04c0.09-0.12,0.17-0.24,0.26-0.36c-0.01,0.13-0.01,0.25,0.01,0.38C17.55,62.46,17.54,62.47,17.53,62.47z
		 M19.39,60.44c0.03-0.04,0.06-0.07,0.08-0.11c0.12-0.16,0.24-0.32,0.35-0.49c0.09,0.07,0.18,0.14,0.28,0.19
		c0.01,0.08,0.03,0.15,0.05,0.23C19.9,60.33,19.64,60.38,19.39,60.44z M24.32,63.03c0.24-0.19,0.49-0.37,0.73-0.56
		c0.02,0.2,0.07,0.39,0.16,0.57C24.92,63.01,24.62,63.01,24.32,63.03z M25.35,49.03c-0.02,0.26-0.03,0.51-0.05,0.77
		c-0.04,0-0.08,0.01-0.12,0.01c0.07-0.3,0.12-0.61,0.18-0.92C25.36,48.94,25.36,48.98,25.35,49.03z M25.85,26.03
		c-0.05,0.11-0.1,0.22-0.15,0.33c-0.27-0.03-0.56-0.02-0.82,0.05c0.28-0.12,0.55-0.27,0.81-0.43c0.1-0.06,0.19-0.12,0.28-0.19
		C25.93,25.87,25.89,25.95,25.85,26.03z M33.61,33.66c0.1-1.84,0.25-3.68,0.58-5.49c0.07-0.3,0.39-0.49,0.68-0.45
		c0.32,0.04,0.59,0.37,0.53,0.7c-0.21,1.17-0.33,2.51-0.43,3.66c-0.18,0.72,0.29,2.1-0.73,2.23C33.91,34.3,33.59,34.01,33.61,33.66z
		"/>
	<path class="st35" d="M32.26,20.55c0.65,0.29,1.25,0.64,1.81,1.03C33.55,21.06,32.95,20.63,32.26,20.55z"/>
	<path class="st35" d="M30.13,66.28c0.02,0.06,0.05,0.12,0.07,0.18c0.11,0.03,0.21,0.08,0.31,0.14c0.02,0.01,0.04,0.03,0.06,0.04
		c0.45-0.33,1.03-0.3,1.49-0.07c0.03-0.04,0.06-0.07,0.09-0.11c-0.14-0.01-0.28-0.02-0.41-0.03C31.2,66.39,30.66,66.34,30.13,66.28z
		"/>
	<path class="st35" d="M37.76,41.5c0.53-0.27,1.06-0.63,1.54-1.07c0.41-0.37,0.76-0.78,1.03-1.24c-0.84,0.58-1.87,0.98-2.69,1.34
		c-0.31,0.16-0.6,0.39-0.93,0.5c0.05,0.07,0.09,0.15,0.1,0.26c0.02,0.07,0.03,0.14,0.05,0.2c0.07,0.02,0.15,0.03,0.23,0.04
		C37.31,41.56,37.53,41.56,37.76,41.5z"/>
	<path class="st36" d="M21.5,86.49c-0.72,0.32-1.46,0.6-2.26,0.41c-0.13-0.01-0.27-0.04-0.41-0.07c-0.01,0.05-0.02,0.1-0.02,0.14
		c1.2,0.08,2.4-0.03,3.54-0.4c-0.04-0.03-0.08-0.07-0.12-0.11C21.98,86.49,21.74,86.49,21.5,86.49z"/>
	<path class="st36" d="M30.57,66.64c-0.02-0.01-0.04-0.03-0.06-0.04c-0.1-0.06-0.21-0.11-0.31-0.14c-0.02-0.06-0.05-0.12-0.07-0.18
		c-1.36-0.15-2.7-0.35-4.07-0.48c-1.1-0.13-2.17,0.03-3.22,0.3c-0.08,0.04-0.16,0.07-0.23,0.12c-0.03,0.02-0.06,0.04-0.09,0.06
		c-0.02-0.03-0.04-0.05-0.06-0.08c-2.51,0.71-4.96,1.91-7.63,1.12c-2.07-0.64-3.62-1.09-4.7-1.64c-0.1,0.14-0.19,0.28-0.26,0.46
		c0.17,0,0.33,0.07,0.45,0.23c0.38,0.97,0.19,2.27,0.34,3.26c0.15,2.07,0.59,4.14,0.94,6.17c0.85,2.97,0.37,6.13,0.82,9.12
		c1.69,0.01,3.32,0.7,4.96,0.87c0.08-0.06,0.17-0.12,0.28-0.15c0.03-0.01,0.07-0.02,0.1-0.03c0.11-0.5,0.21-1.01,0.35-1.51
		c0.3-0.55,1.21-0.34,1.2,0.3c-0.02,0.11-0.04,0.22-0.06,0.33c0.05,0.05,0.1,0.11,0.14,0.17c0.64,0.15,1.26,0.28,1.89,0.32
		c0.16-0.08,0.32-0.16,0.48-0.22c-0.03-0.64,0.01-1.49,0.05-2.65c0.01-2.87-0.02-5.75,0.05-8.61c0.1-0.86-0.17-3.26,1.28-2.65
		c0.37,0.25,0.5,0.87,0.09,1.13c-0.21,3.37-0.14,6.75-0.13,10.12c0.09,0.14,0.18,0.28,0.21,0.45c-0.07,0.03-0.14,0.06-0.21,0.1
		c0,0.54,0,1.07-0.01,1.61c0.13-0.17,0.36-0.27,0.57-0.24c0.32,0.04,0.59,0.36,0.53,0.69c-0.05,0.32-0.18,0.57-0.35,0.78
		c2.18,0.73,4.62,1.04,6.79,0.28c0.09-0.07,0.17-0.13,0.23-0.21c0.04,0.03,0.09,0.05,0.13,0.08c0.06-0.02,0.12-0.04,0.18-0.06
		c0.56-0.32,1.67-0.13,1.59-0.99c-0.01-5.23-0.58-10.27-0.26-15.47c0.04-0.69-0.61-1.87,0.2-2.22c-0.15-0.24-0.37-0.44-0.63-0.57
		C31.6,66.33,31.03,66.31,30.57,66.64z M15.84,71.33c-0.03-0.16-0.06-0.33-0.09-0.49c0.04,0.06,0.08,0.12,0.12,0.18
		C15.85,71.12,15.84,71.22,15.84,71.33z M20.19,68.9c-0.11,0.08-0.2,0.18-0.3,0.28c-0.06-0.02-0.13-0.03-0.19-0.04
		c0,0,0-0.01,0.01-0.01c0.04-0.09,0.09-0.17,0.14-0.25c-0.06,0.08,0-0.01,0.06-0.09c0.01-0.01,0.01-0.01,0.02-0.02
		c0.2-0.03,0.4-0.06,0.6-0.09C20.42,68.75,20.3,68.82,20.19,68.9z"/>
	<path class="st36" d="M20.33,65.5c-1.07,0.16-2.28,0.62-3.21,0.43c-1.35-0.03-3.01-1.35-4.26-0.62c0.26,0.08,0.51,0.17,0.76,0.26
		C15.85,66.65,18.13,66.18,20.33,65.5z"/>
	<path class="st37" d="M15.12,107.42c-0.11,0.01-0.23,0.01-0.34-0.01c-1.33-0.16-2.43-1.29-2.43-2.58c-0.03,0-0.05,0-0.08,0
		c-0.31-0.13-0.45-0.46-0.38-0.77c0.36-0.56,0.26-1.2,0.24-1.83c-0.02-0.01-0.04-0.01-0.07-0.02c0-0.04,0-0.08,0.01-0.13
		c0-0.11-0.03-0.23-0.05-0.34c-0.62-0.15-1.25-0.28-1.9-0.3c-0.62,0.17-0.81,0.91-1.04,1.44c-1.1,3.19,2.05,6.45,4.24,8.39
		c0.46,0.22,1.01,0.33,1.52,0.38c0.24-0.77,0.38-1.57,0.48-2.34c0.01-0.58,0-1.15,0-1.73C15.26,107.51,15.19,107.46,15.12,107.42z"
		/>
	<path class="st37" d="M16.43,111.9c0-0.05,0.01-0.09,0.02-0.14c-0.03-0.32-0.03-0.66-0.04-1c-0.05,0.26-0.11,0.57-0.18,0.88
		C16.31,111.71,16.38,111.8,16.43,111.9z"/>
	<path class="st37" d="M27.5,119.67c0.21-2.27-0.61-4.35-0.8-6.55c-0.38,0.14-0.77,0.22-1.17,0.21c-0.53-0.02-1.06-0.13-1.59-0.18
		c-0.78,1.11-0.62,2.72-0.79,3.97c-0.08,1.57-0.31,3.28,0.14,4.78c0.33,0.07,0.67,0.12,1,0.16c0.18-0.04,0.37-0.08,0.58-0.15
		c0.03,0.07,0.07,0.14,0.1,0.22c0.56,0.03,1.12,0.02,1.68-0.01C28.04,122.24,27.37,120.54,27.5,119.67z M25.77,118.49
		c0.01-0.45,0.03-0.9,0.05-1.36c0.07,0.44,0.13,0.88,0.18,1.32C25.92,118.46,25.84,118.47,25.77,118.49z"/>
	<path class="st37" d="M28.79,119.76c-0.05,0.81,0.12,1.68-0.1,2.47c0.6-1.04,0.47-2.69,0.28-3.91c-0.23-1.33-0.27-3.21-0.94-4.52
		c0,0.06,0,0.13,0,0.19C28.64,115.86,28.84,117.8,28.79,119.76z"/>
	<path class="st37" d="M15.79,113.04c0.06-0.06,0.11-0.12,0.16-0.18c-0.04,0.02-0.07,0.04-0.11,0.05
		C15.83,112.96,15.81,113,15.79,113.04z"/>
	<path class="st37" d="M14.32,112.91c-1.11-0.18-2.16-0.65-2.88-1.54c-0.23-0.26-0.46-0.53-0.69-0.8c0.22,0.92,0.51,1.79,1.43,2.14
		c0.33,0.09,0.65,0.04,0.94-0.09c0.22,0.19,0.43,0.35,0.61,0.45c0.14,0.14,0.3,0.24,0.46,0.32c-0.01-0.16,0.02-0.32,0.13-0.45
		C14.32,112.92,14.32,112.91,14.32,112.91z"/>
	<path class="st38" d="M54.63,91.4c-0.04-0.19-0.12-0.37-0.22-0.53c-0.22-0.03-0.44-0.05-0.65-0.08c-1.13-0.33-2.31-0.41-3.49-0.44
		c-0.02,0.03-0.04,0.06-0.06,0.09c-0.41,0.15-0.73,0.48-0.86,0.89c0.01,2.42-0.12,4.84-0.15,7.25c0.05,1.16-0.11,2.51,0.24,3.55
		c1.45,0.12,2.91,0.13,4.37,0.11c0.07-0.24,0.2-0.43,0.4-0.53c-0.14-2.41-1.58-10.4,0.8-8.8c0.19,0.24,0.15,0.56-0.02,0.77
		c-0.16,2.29,0.23,4.54,0.43,6.82c0.21,0.1,0.43,0.14,0.65,0.14c0-0.05,0-0.09,0.01-0.14c0.06-0.15,0.18-0.24,0.31-0.29
		c-0.03-0.44,0.49-0.69,0.84-0.94c-0.06-0.54-0.14-1.07-0.19-1.62c-0.08-0.51-0.18-1.33,0.52-1.37c0.04-0.15,0.06-0.3,0.12-0.45
		c0.36-0.95,1.01-1.75,1.47-2.64c0.38-0.92,0.65-1.86,0.95-2.81c-1.16,0.4-2.43,0.58-3.69,0.59C55.8,91.07,55.2,91.2,54.63,91.4z"/>
	<path class="st38" d="M52.24,103.64c-0.29,0-0.55,0-0.8-0.01c0,0.02,0,0.03,0,0.05C51.71,103.71,51.98,103.69,52.24,103.64z"/>
	<path class="st39" d="M47.38,76.35c0,0.54-0.03,1.08-0.07,1.62c-0.02,1.7-0.31,3.39-0.67,5.06c-0.25,1.53-0.49,3.06-0.61,4.6
		c0.08,0.46,0.24,0.89,0.52,1.23c1.89,0.11,3.8,0,5.69,0.26c2.82,0.66,5.69,0.69,8.4-0.36c0-0.05,0.01-0.1,0.01-0.15
		c-0.51-0.49-0.97-1.03-1.38-1.61c-0.2-0.09-0.4-0.18-0.59-0.3c-1.06-0.64-1.83-1.72-1.75-3.01c0.08-0.12,0.13-0.25,0.17-0.39
		c0.07-0.22,0.1-0.44,0.07-0.67c-0.04-0.24-0.05-0.48-0.07-0.72c-0.1-0.42-0.18-0.84-0.25-1.26c0.03-0.74-0.33-2.14,0.54-2.43
		c0.07-0.21,0.19-0.43,0.34-0.58c0.12-0.13,0.25-0.23,0.4-0.32c0.21-0.27,0.59-0.46,1-0.44c0.08-0.01,0.16,0,0.23,0.01
		c0.02,0,0.03-0.01,0.05-0.01c0.32-0.09,0.56,0.07,0.68,0.29c0.2-0.33,0.37-0.7,0.51-1.11c-0.52-1.62-0.63-3.37-1.27-4.92
		c-0.36-0.74-1.41-1.1-1.48-1.95c0.07-0.24,0.18-0.39,0.31-0.47c-0.5-0.21-1.1-0.16-1.67,0.31c-0.12-0.1-0.25-0.18-0.41-0.25
		c-0.21-0.09-0.43-0.13-0.65-0.12c-0.02-0.02-0.04-0.03-0.06-0.04c-0.06-0.05-0.13-0.1-0.2-0.14c-0.75,0.03-1.49-0.02-2.17-0.14
		c-0.22-0.06-0.46-0.12-0.71-0.2c-0.03,0.01-0.07,0.02-0.1,0.03c-0.2,0.13-0.37,0.29-0.55,0.44c-0.4,0.33-0.78,0.69-1.12,1.09
		c-0.39-0.4-0.89-0.61-1.41-0.66c-0.82,0.24-1.62,0.52-2.35,0.86c-0.41,0.2-0.8,0.46-1.18,0.73c-0.19,0.25-0.33,0.53-0.37,0.87
		c-0.21,0.11-0.4,0.25-0.56,0.43c-0.63,0.06-1.1,0.22-1.46,0.44c-0.07,0.34-0.15,0.7-0.21,1.07c0.17,0.08,0.3,0.22,0.3,0.44
		c0.03,0.31-0.09,0.58-0.27,0.8c0.09,0.34,0.28,0.64,0.63,0.83c0.59-0.08,1.36-0.71,1.79-0.02c0.18,0.32,0.06,0.71-0.24,0.9
		c-0.04,0.02-0.08,0.04-0.12,0.06c0.35,0,0.71-0.08,1.07-0.24c0.03-0.16,0.08-0.31,0.2-0.43C46.76,75.33,47.55,75.76,47.38,76.35z
		 M55.6,74.73c0.08,0.06,0.17,0.12,0.27,0.17c-0.17,0.23-0.33,0.46-0.49,0.7c-0.01,0.02-0.03,0.04-0.04,0.06
		C55.43,75.36,55.51,75.05,55.6,74.73z M53.91,77.05c0.36-0.04,0.72-0.2,0.97-0.46c-0.07,0.58-0.3,1.12-0.45,1.68
		c-0.01-0.04-0.01-0.07-0.02-0.11c-0.07-0.38-0.26-0.71-0.54-0.94C53.88,77.16,53.9,77.11,53.91,77.05z M52.96,71.47
		c-0.1,0.69-0.24,1.38-0.38,2.06c-0.07-0.01-0.15-0.02-0.22-0.02c-0.07,0-0.14,0-0.21,0.01c0,0,0,0,0,0
		C52.19,72.79,52.61,72.11,52.96,71.47z"/>
	<path class="st40" d="M54.03,116.41C54.03,116.41,54.03,116.41,54.03,116.41c-0.24,0.13-0.59,0.15-0.92,0.13
		c-0.04,0.03-0.06,0.07-0.11,0.1c-0.56,1.41-0.8,3-0.85,4.48c0.04,0.06,0.08,0.11,0.12,0.16c0.01,0,0.02,0.01,0.02,0.01
		c0.34,0.21,0.76,0.36,1.17,0.43c0.35-0.05,0.69-0.23,0.93-0.51c0.25-1.39,0.34-3.1-0.03-4.45C54.2,116.7,54.08,116.58,54.03,116.41
		z"/>
	<path class="st40" d="M55.31,113.6c-0.07,0.01-0.14,0.03-0.23,0.02c-0.1,0.01-0.19,0.01-0.27-0.01c0.03,0.5,0.07,0.99,0.13,1.48
		c0.01,0.06,0.04,0.13,0.06,0.2c0.08,0.04,0.17,0.1,0.23,0.19c0.26,0.38,0.45,0.82,0.54,1.28c0.16-0.04,0.36-0.03,0.59,0.1
		c0.61-0.07,1.31-0.16,1.46-0.83c-0.07-0.8-0.16-1.63-0.44-2.39C56.72,113.63,55.89,113.95,55.31,113.6z"/>
	<path class="st40" d="M55.44,112.39c0.33-0.19,0.77-0.31,1.08-0.34c0.05-0.98,0.1-1.97,0.11-2.96c-0.13-0.21-0.29-0.38-0.49-0.51
		c-0.22,0-0.43-0.01-0.63,0c-0.18-0.01-0.39-0.04-0.58-0.1c-0.06,0.02-0.13,0.06-0.19,0.09c-0.03,1.26-0.03,2.52,0.02,3.76
		c0.04-0.02,0.08-0.04,0.13-0.05C55.1,112.26,55.28,112.31,55.44,112.39z"/>
	<path class="st40" d="M57.82,115.99c0,0.01,0,0.01,0,0.02c0-0.02,0.01-0.03,0.01-0.04C57.82,115.98,57.82,115.99,57.82,115.99z"/>
	<path class="st17" d="M23.09,16.86c0.58,0.03,1.18,0.06,1.79,0.07c0.01,0.07,0.03,0.14,0.04,0.2c0.14,0.86,1.42,0.59,1.24-0.24
		c1.31-0.11,2.56-0.46,3.51-1.43c1.2-1.57,1.17-3.88-0.4-5.2c-0.39-0.37-0.91-1.08-1.47-0.72c-0.04,0.03-0.08,0.04-0.12,0.08
		c-0.25,0.25-0.26,0.68,0,0.93c1.45,1.22,2.12,2.32,0.98,4.08c-0.43,0.37-0.92,0.6-1.43,0.74c-0.16,0.05-0.32,0.09-0.49,0.12
		c-1.13,0.2-2.36,0.06-3.52,0.07c-2.46-0.06-5.31-0.75-6.57-3.13c-0.3-0.65-0.6-1.47-0.53-2.23c0-0.02,0-0.04,0-0.05
		c0.02,0.01,0.04,0.02,0.06,0.03c0.03,0.02,0.06,0.03,0.09,0.04c0.03,0.54,0.64,0.69,1,0.44c2.01,0.74,4.33,0.87,6.42,1.07
		c0.85-0.11,3.35,0.63,3.43-0.57c0-0.36-0.29-0.63-0.64-0.64c-2.46-0.04-4.91-0.13-7.34-0.7c-0.45-0.11-0.91-0.21-1.37-0.33
		c0.21-0.09,0.36-0.31,0.36-0.55c-0.01-0.18-0.1-0.32-0.22-0.45c-0.1-0.11-0.21-0.2-0.34-0.27c0.06-0.92,0.2-1.83,0.51-2.72
		c0.28-0.64,0.4-1.43,0.91-1.94c0.37-0.19,0.76-0.33,1.16-0.44c0.34-0.09,0.69-0.16,1.04-0.21c1.09-0.15,2.23-0.12,3.32-0.09
		c1.04,0.95,1.62,2.37,1.89,3.82c0.11,0.61,0.18,1.21,0.2,1.8c0.01,0.43,0,1.26,0.67,1.24c0.19,0,0.37-0.1,0.49-0.25
		c0.09-0.11,0.15-0.23,0.14-0.38c-0.05-2.6-0.62-5.53-2.68-7.3c-1.11-0.47-2.4-0.15-3.58-0.15c-1.22,0.12-2.53,0.31-3.54,1.07
		c-1.16,1.48-1.61,3.38-1.77,5.28c-0.91,0.17-1.52,1.25-1.51,2.21c-0.04,0.85,0.11,1.63,0.41,2.35c0.57,1.38,1.68,2.48,3.02,3.22
		c0.49,0.27,1.01,0.49,1.55,0.67c-0.05,0.33-0.04,0.71-0.06,0.97c0,0.12,0.03,0.22,0.08,0.3c-0.33,0.01-0.6,0.27-0.6,0.6
		c0,0.33,0.27,0.61,0.61,0.61s0.61-0.27,0.61-0.61c0-0.11-0.04-0.2-0.09-0.29c0.33,0.01,0.67-0.19,0.67-0.61
		c-0.01-0.2,0.02-0.43,0.03-0.66c0.28,0.05,0.55,0.08,0.83,0.1c0.18,0.01,0.36,0.03,0.54,0.03C22.63,16.84,22.86,16.85,23.09,16.86z
		"/>
	<path class="st17" d="M34.98,32.07c0.1-1.14,0.22-2.48,0.43-3.66c0.06-0.33-0.21-0.66-0.53-0.7c-0.3-0.04-0.61,0.15-0.68,0.45
		c-0.33,1.81-0.48,3.66-0.58,5.49c-0.02,0.35,0.3,0.64,0.64,0.64C35.27,34.18,34.8,32.79,34.98,32.07z"/>
	<path class="st17" d="M32.4,36.08c-1.92-0.18-0.08,11.35,0,13.07c0.1,1.27,0.22,2.57,0.35,3.88c0.13,1.48,0.26,2.96,0.38,4.43
		c0.18,2.54,0.26,5.07,0.07,7.49c0,0.06,0,0.12-0.01,0.18c-0.06,0-0.13,0-0.19,0c-3.27,0.05-6.63-1.16-9.92-0.5
		c-0.9,0.26-1.82,0.59-2.75,0.87c-2.2,0.68-4.48,1.14-6.71,0.07c-0.24-0.09-0.5-0.18-0.76-0.26c-0.95-0.3-1.96-0.58-2.76-1.16
		c-0.19-0.14-0.38-0.29-0.55-0.46c-0.09-0.32-0.1-0.65-0.08-0.98c0.02-0.48,0.1-0.96,0.19-1.46c0.02-0.11,0.04-0.23,0.06-0.34
		c0.45-1.24,0.68-2.5,0.8-3.77c0.05-0.54,0.07-1.09,0.08-1.64c0.07-0.2,0.13-0.41,0.2-0.61c0.04-0.12,0.07-0.24,0.11-0.36
		c0.07-0.22,0.14-0.45,0.2-0.67c0.06-0.24-0.03-0.49-0.21-0.63c-0.01,0-0.01-0.01-0.02-0.01c-0.05-0.04-0.11-0.07-0.18-0.09
		c-0.05-0.01-0.1-0.01-0.15-0.01c-0.04-0.67-0.08-1.34-0.14-2.01c-0.15-1.9-0.09-3.78,0.02-5.66c0.06-0.97,0.12-1.95,0.19-2.93
		c0.03-0.42,0.05-0.84,0.07-1.25c0.16-2.04,0.43-4.26,0.59-6.33c0.07-0.3-0.11-0.61-0.43-0.72c-0.48-0.15-0.83,0.33-0.82,0.77
		c-0.11,1.22-0.24,2.43-0.36,3.64C9.52,40,9.41,41.37,9.32,42.76c-0.01,0.12-0.02,0.24-0.02,0.36c-0.09,1.37-0.17,2.74-0.23,4.11
		c-0.15,2.7,0.31,5.41,0.3,8.11c-1.38,4.04-3.1,8.08-3.13,12.39c0.01,0.18,0.12,0.33,0.27,0.43c0.13,0.09,0.29,0.14,0.45,0.11
		c0.3-0.04,0.57-0.32,0.55-0.63c0.01-1.09,0.18-2.15,0.38-3.29c0.09-0.48,0.2-0.97,0.32-1.45c0.06,1.36,0.67,2.14,1.91,2.77
		c1.08,0.56,2.63,1.01,4.7,1.64c2.67,0.8,5.12-0.41,7.63-1.12c0.13-0.04,0.25-0.07,0.38-0.1c1.05-0.27,2.12-0.44,3.22-0.3
		c1.37,0.13,2.72,0.33,4.07,0.48c0.53,0.06,1.07,0.11,1.61,0.14c0.13,0.01,0.27,0.02,0.41,0.03c1.06,0.08,2.25,0.08,2.4-1.27
		c0.34-3.17-0.16-6.37-0.36-9.54c-0.06-3.52-0.61-7.03-0.98-10.53c-0.28-2.55-0.5-5.03-0.32-7.61c0.02-0.25,0.02-0.49,0.04-0.73
		C32.96,36.44,32.74,36.12,32.4,36.08z"/>
	<path class="st17" d="M32.49,69.35c-0.32,5.2,0.25,10.24,0.26,15.47c0.08,0.86-1.03,0.67-1.59,0.99c-0.06,0.03-0.12,0.04-0.18,0.06
		c-0.12,0.05-0.24,0.09-0.36,0.13c-2.17,0.76-4.62,0.45-6.79-0.28c0.17-0.21,0.31-0.46,0.35-0.78c0.06-0.33-0.21-0.65-0.53-0.69
		c-0.22-0.03-0.44,0.07-0.57,0.24c0-0.54,0.01-1.07,0.01-1.61c0-0.18,0-0.36,0-0.54c-0.02-3.38-0.09-6.75,0.13-10.12
		c0.41-0.26,0.28-0.88-0.09-1.13c-1.45-0.61-1.18,1.8-1.28,2.65c-0.07,2.87-0.04,5.74-0.05,8.61c-0.04,1.16-0.08,2.01-0.05,2.65
		c-0.16,0.07-0.32,0.14-0.48,0.22c-0.63-0.04-1.25-0.17-1.89-0.32c-0.05-0.07-0.09-0.12-0.14-0.17c0.02-0.11,0.04-0.22,0.06-0.33
		c0.01-0.64-0.9-0.86-1.2-0.3c-0.14,0.49-0.25,1-0.35,1.51c-0.03,0.01-0.07,0.02-0.1,0.03c-0.11,0.03-0.2,0.08-0.28,0.15
		c-1.64-0.17-3.27-0.85-4.96-0.87c-0.45-2.99,0.03-6.15-0.82-9.12c-0.35-2.03-0.78-4.1-0.94-6.17c-0.15-0.99,0.04-2.29-0.34-3.26
		c-0.11-0.16-0.28-0.23-0.45-0.23c-0.32-0.01-0.66,0.23-0.65,0.6c0.17,3.12,0.53,6.26,1.16,9.34c0.66,2.51,0.5,5.01,0.61,7.64
		c0.05,0.75,0.01,1.63,0.54,2.23c0.37,0.37,0.96,0.3,1.44,0.36c0.11,0.01,0.21,0.03,0.31,0.05c-0.01,0.03-0.01,0.07-0.02,0.1
		c-0.94,4.6-1.21,9.27-1.15,13.94c-0.25-0.05-0.49-0.08-0.7-0.12c-2.28-0.71-3.43,1.11-3.79,3.11c-0.48,2.77,1.38,5.15,3.14,7.19
		c0.24,0.27,0.47,0.54,0.69,0.8c0.72,0.9,1.77,1.36,2.88,1.54c0,0.01-0.01,0.02-0.01,0.03c-0.11,0.13-0.14,0.29-0.13,0.45
		c0.01,0.19,0.1,0.37,0.25,0.49c0.63,0.33,1.06-0.13,1.36-0.83c0.02-0.04,0.04-0.08,0.05-0.13c0.04-0.01,0.07-0.04,0.11-0.05
		c0.18-0.08,0.34-0.19,0.45-0.38c0.12-0.2,0.11-0.41,0.03-0.58c-0.05-0.1-0.12-0.2-0.21-0.27c0.07-0.32,0.13-0.62,0.18-0.88
		c0.05-0.25,0.09-0.46,0.13-0.61c0.28-3.29-0.25-6.64,0.57-9.88c-0.03,0.07-0.03,0.07-0.03,0.07c0,0,0,0,0,0.01
		c0.13-0.26,0.03-0.53-0.16-0.7c0.7-4.21,1.15-8.47,1.89-12.67c0.01-0.05,0.02-0.1,0.02-0.14c0.14,0.03,0.27,0.06,0.41,0.07
		c0.81,0.19,1.54-0.09,2.26-0.41c0.24,0.01,0.48,0,0.73-0.03c0.04,0.04,0.08,0.08,0.12,0.11c0.47,0.38,1.29,0.58,2.67,0.87
		c0.27,0.06,0.56,0.12,0.88,0.18c1.3,0.33,2.62,0.29,3.92,0.01c0.17-0.04,0.34-0.08,0.51-0.12c-0.04,0.09-0.07,0.19-0.11,0.29
		c-0.39,1.06-0.48,2.24-0.75,3.34c-1.51,6.73-2.76,13.61-2.75,20.55c-0.59,0.41-1.29,0.32-1.95,0.24c0.24-2.46,0.32-4.92,0.29-7.39
		c-0.14-5.21,0.23-10.34,0.43-15.56c0.28-0.5-0.01-1.3-0.51-1.35c-0.15-0.01-0.31,0.03-0.49,0.18c-0.46,0.75-0.18,1.78-0.29,2.64
		c-0.03,2.19-0.29,4.36-0.36,6.59c-0.17,4.99,0.16,9.92-0.34,14.91c-0.35,0.11-0.65,0.36-0.86,0.87c-0.93,2.06-0.71,4.38-0.9,6.62
		c0.01,1.63-0.11,3.99,2.13,3.89c1.53,0.07,3.77,0.66,4.77-0.84c0.03-0.08,0.04-0.17,0.06-0.26c0.22-0.78,0.04-1.65,0.1-2.47
		c0.05-1.96-0.15-3.9-0.75-5.77c0-0.06,0-0.13,0-0.19c-0.18-4.26,0.17-8.51,0.8-12.77c0.57-3.84,1.41-7.63,2.22-11.43
		c0.03-0.16,0.07-0.32,0.1-0.48c0.07-0.35,0.15-0.7,0.22-1.05c0.19-0.26,0.23-0.65,0.11-0.92c0.12-0.05,0.25-0.09,0.37-0.14
		c1.12-0.24,2.31-0.67,2.22-2.04c0.12-3.32-0.36-6.51-0.4-9.85c-0.13-2.11,0.26-4.23,0.03-6.34c-0.19-0.59-0.02-1.75-0.91-1.7
		c-0.05,0.01-0.07,0.04-0.11,0.05C31.88,67.48,32.52,68.66,32.49,69.35z M14.85,111.63c-0.51-0.05-1.06-0.16-1.52-0.38
		c-2.19-1.94-5.34-5.2-4.24-8.39c0.24-0.53,0.42-1.27,1.04-1.44c0.65,0.03,1.28,0.15,1.9,0.3c0.03,0.01,0.07,0.02,0.1,0.02
		c0,0.11,0,0.23,0.01,0.34c0,0.04,0,0.08,0,0.11c0.02,0.63,0.12,1.27-0.24,1.83c-0.07,0.32,0.07,0.64,0.38,0.77
		c0.03,0.01,0.05,0,0.08,0c0,1.29,1.1,2.42,2.43,2.58c0.11,0.02,0.22,0.02,0.34,0.01c0.07-0.01,0.14-0.02,0.21-0.04
		c0,0.06,0,0.12,0,0.18c0,0.58,0.01,1.16,0,1.73C15.23,110.06,15.09,110.86,14.85,111.63z M16.7,92.35
		c-0.06,0.36-0.11,0.72-0.17,1.07c-0.05,0.35-0.11,0.69-0.16,1.04c-0.36,2.4-0.68,4.81-1.12,7.2c-0.04,0.23,0.07,0.45,0.25,0.58
		c-0.14,1.29-0.17,2.58-0.17,3.88c-0.16-0.04-0.33-0.06-0.5-0.06c-0.52-0.15-1.12-0.52-1.18-1.11c-0.06-0.61,0.34-1.17,0.5-1.72
		c0-0.39-0.34-0.63-0.68-0.6c0-0.2-0.01-0.4-0.01-0.6c0-0.08-0.01-0.15-0.01-0.23c0.01-0.01,0.02-0.03,0.03-0.05
		c0.07-0.1,0.12-0.22,0.12-0.35c-0.01-0.09-0.05-0.16-0.08-0.23c-0.03-0.07-0.07-0.13-0.11-0.19c-0.04-0.63-0.07-1.18-0.01-1.5
		c-0.01-1.73,0-3.42,0.09-5.12c0.07-1.39,0.2-2.78,0.45-4.19c0.16-1.22,0.36-2.41,0.58-3.61c0.85,0.2,1.69,0.45,2.55,0.56
		c0.12,0.02,0.26,0.03,0.4,0.04C17.18,88.89,17,90.64,16.7,92.35z M26.65,122.11c-0.56,0.04-1.12,0.04-1.68,0.01
		c-0.23-0.01-0.45-0.04-0.68-0.06c-0.33-0.04-0.67-0.09-1-0.16c-0.45-1.49-0.22-3.21-0.14-4.78c0.17-1.25,0.01-2.87,0.79-3.97
		c0.53,0.05,1.06,0.16,1.59,0.18c0.4,0.01,0.79-0.07,1.17-0.21c0.2,2.21,1.02,4.28,0.8,6.55C27.37,120.54,28.04,122.24,26.65,122.11
		z"/>
	<path class="st17" d="M45.43,75.48c-0.43-0.68-1.2-0.05-1.79,0.02c-0.35-0.19-0.54-0.49-0.63-0.83c0.19-0.22,0.3-0.5,0.27-0.8
		c0-0.21-0.13-0.36-0.3-0.44c0.05-0.37,0.13-0.73,0.21-1.07c0.05-0.21,0.09-0.41,0.11-0.59c0.86-0.15,1.56-0.66,2.28-1.16
		c0.38-0.27,0.77-0.53,1.18-0.73c0.73-0.34,1.53-0.62,2.35-0.86c0.73-0.21,1.47-0.39,2.19-0.51c0.03-0.01,0.05-0.04,0.08-0.06
		c0.18-0.11,0.28-0.31,0.27-0.52c0.22,0.07,0.44,0.13,0.65,0.19c0.25,0.07,0.49,0.14,0.71,0.2c0.68,0.12,1.42,0.16,2.17,0.14
		c0.16-0.01,0.32-0.01,0.48-0.03c2.82-0.23,5.55-1.61,5.38-4.89c-0.14-1.16-1.16-1.83-2.1-2.35c-0.33-0.33-0.86-0.54-1.19-0.11
		c-0.29,0.56,0.01,0.91,0.46,1.21c0.46,0.31,1.08,0.56,1.33,0.94c0.19,0.26,0.24,0.6,0.16,0.95c-0.2,1.28-1.25,2.36-2.54,2.62
		c-2.85,0.68-5.63-0.11-8.18-1.44c-0.9-0.45-1.69-1.17-2.31-1.97c-0.03-0.04-0.07-0.08-0.1-0.12c-0.15-0.2-0.16-0.46-0.08-0.69
		c0.01-0.02,0.02-0.05,0.03-0.07c0.29-0.84,0.95-1.47,1.88-1.49c0.33-0.01,0.68-0.03,1.02-0.08c0.08,0.53,0.32,0.91,0.85,0.92
		c0.56,0.03,0.84-0.77,0.39-1.1c0.07-0.83,0.15-1.78,0.46-2.63c0.01-0.02,0.01-0.04,0.02-0.06c0.01,0,0.02,0,0.03-0.01
		c0.39-0.08,0.79-0.21,1.07-0.23c0.78-0.21,1.68-0.2,2.45,0.1c0.35,0.14,0.67,0.34,0.94,0.61c0.07,0.07,0.15,0.14,0.21,0.22
		c0.46,1.21,0.62,2.79,0.23,4.01c-1.34,0.3-3.05,1.16-4.17-0.07c-0.6-0.6-1.53,0.33-0.93,0.93c0.43,0.42,0.91,0.79,1.52,0.93
		c1.07,0.32,2.15-0.05,3.19-0.31c0.69-0.13,1.5-0.36,1.72-1.12c0.06-0.31,0.11-0.64,0.15-0.98c0.23-1.96,0.01-4.29-1.87-5.23
		c-1.34-0.85-2.93-0.59-4.39-0.23c-0.16-0.02-0.33,0.02-0.5,0.1c-0.42,0.05-0.92,0.11-0.9,0.68c0.01,0.11,0.04,0.18,0.07,0.26
		c-0.16,0.47-0.38,1.22-0.49,1.96c-2.06-0.11-4.02,0.75-4.31,3.02c0.19,2.03,2.16,3.43,4.27,4.37c0.24,0.11,0.48,0.21,0.72,0.3
		c-0.1,0.01-0.2,0.03-0.3,0.05c-0.94,0.2-1.93,0.67-2.71,0.87c-1.06,0.33-1.93,1.03-2.86,1.59c0-0.02,0.01-0.04,0-0.07
		c-0.12-1.53-0.04-3.08-0.05-4.61c0-0.05-0.02-0.1-0.03-0.14c1.13-2.22-0.05-5.02-0.57-7.4c-0.85-6.2-1.46-12.52-2.07-18.77
		c0.06-0.32-0.01-0.57-0.12-0.77c0.26-0.39,0.42-0.85,0.43-1.37c-0.43-0.99-0.94-1.98-1.22-3.09c-1.38-5.71-3.16-9.76-6.54-12.1
		c-0.56-0.39-1.16-0.74-1.81-1.03c-1.72-0.77-3.78-1.22-6.28-1.33c0.16-0.14,0.25-0.37,0.16-0.65c0.34-0.58-0.37-1.08-0.86-0.83
		c-0.08,0.04-0.16,0.1-0.22,0.18c-0.21,0.27-0.15,0.66-0.09,0.97c0.03,0.15,0.09,0.25,0.17,0.33c-0.37-0.01-0.73-0.02-1.12-0.01
		c-0.33-0.15-0.74,0.07-0.82,0.41c-0.19,0.8,0.77,0.9,1.35,0.92c0.42,0,0.81,0.01,1.2,0.02c0.02,0,0.04,0,0.07,0
		c-0.12,0.33-0.29,0.62-0.49,0.86c-0.8,0.98-2.16,1.34-3.45,1.39c-0.98-0.23-1.81-0.93-2.59-1.59c0.15-0.12,0.26-0.31,0.26-0.5
		c-0.02-0.21-0.1-0.35-0.21-0.45c-0.14-0.13-0.34-0.19-0.57-0.21C18.69,20.03,18.6,20,18.51,20c-0.07,0.01-0.11,0.04-0.17,0.06
		c-0.26,0.01-0.51,0.03-0.71,0.01c-2.21,0.05-4.43,0.08-6.45,1.18c-1.87,1.09-2.81,3.23-4.09,4.9c-0.24,0.61-1.24,1.27-0.68,1.93
		c0.09,0.1,0.21,0.15,0.33,0.16c-0.03,0-0.06-0.02-0.1-0.02c-0.82,0.08-1.1,1.08-1.36,1.73c-0.69,2.11-1.21,4.27-1.78,6.42
		c-0.34,1.18-0.7,2.27-1.14,3.44c-0.14,0.34-0.34,0.69-0.22,1.06c0.06,0.22,0.18,0.41,0.34,0.56c0.39,0.26,0.82,0.44,1.26,0.59
		c0.42,0.14,0.85,0.25,1.29,0.34c-0.02,0.2-0.03,0.41-0.05,0.61c-0.04,0.47-0.08,0.94-0.11,1.41c-0.02,0.37-0.03,0.75-0.05,1.13
		c-0.08,2.04-0.09,4.1-0.21,6.13c-0.64,4.81-1.51,9.61-1.74,14.46c0,0.35,0.22,0.54,0.49,0.6c0.05,0.01,0.1,0.02,0.15,0.02
		c-0.05,0.24-0.09,0.49-0.11,0.74c-0.14,1.81,0.56,3.93,1.92,4.75c0.7,0.66,2.33-0.23,1.62-1.13c-0.26-0.26-0.72-0.24-0.95,0.05
		c-0.16-0.11-0.31-0.24-0.43-0.38c-1-1.08-1-2.88-0.72-4.28c1.01-0.44,0.19-1.47-0.61-1.12c0.12-1.71,0.29-3.48,0.48-5.19
		c0.82-5.48,1.56-11.04,1.42-16.57c-0.01-0.35-0.02-0.69-0.03-1.04c0.47,0.07,0.93,0.14,1.39,0.23c0.36,0.05,0.71-0.21,0.75-0.58
		c0.05-0.36-0.21-0.7-0.57-0.75c-1.44-0.24-2.82-0.39-4.22-0.94c0.21-0.49,0.39-1,0.56-1.5c0.13-0.37,0.25-0.74,0.36-1.12
		c0.82-2.73,1.35-5.56,2.41-8.21c1.01,0.06,0.81-1.31-0.01-1.43c0.13,0.01,0.26-0.01,0.37-0.07c3.68-5,3.8-6.37,8.35-6.72
		c0.67-0.05,1.43-0.08,2.31-0.1c0.12,0.25,0.31,0.5,0.56,0.69c0.12,0.09,0.23,0.18,0.35,0.27c0.87,0.7,1.76,1.46,2.88,1.68
		c2.1,0.09,4.52-0.73,5.29-2.86c0.02-0.04,0.03-0.09,0.04-0.14c0.04-0.13,0.03-0.26-0.01-0.38c0.21,0.02,0.42,0.04,0.63,0.06
		c9.6,1.05,9.59,7.68,13,16.33c-0.83,1.58-2.81,1.83-4.19,2.74c-0.67-0.23-1.5-1.35-2.17-0.88c-0.07,0.05-0.14,0.1-0.21,0.19
		c-0.19,0.32-0.07,0.71,0.24,0.9c0.53,0.31,1.02,0.72,1.58,0.97c-0.09,0.08-0.16,0.2-0.18,0.35c0.6,3.7,1.76,7.37,2.84,10.97
		c0.36,0.94,0.68,1.87,0.97,2.8c0.54,1.71,0.97,3.45,1.21,5.29c0.03,0.18,0.12,0.33,0.25,0.43c-0.21,0.15-0.42,0.41-0.62,0.73
		c-0.17,0.28-0.33,0.6-0.45,0.92c-0.21-0.01-0.44,0.07-0.61,0.3c-0.52,0.98-0.62,2.16-0.88,3.23c-0.14,0.89-0.43,2.14,0.54,2.64
		c0.51,0.21,0.93,0.03,1.3-0.3c0.08-0.07,0.16-0.14,0.23-0.23c-0.25,1.43-0.22,3.37,0.03,4.85c0.2,1.17,0.53,2.06,0.97,2.16
		c0.11,0.04,0.22,0.07,0.34,0.08c0.19,0.63,0.56,1.17,1.21,1.48c0.65,0.38,1.46,0.06,2.1-0.24c0.04-0.02,0.08-0.04,0.12-0.06
		C45.49,76.18,45.61,75.79,45.43,75.48z M42.62,70.61c-0.73,0.5-0.74,1.45-0.86,2.27c-0.32-1.85-0.29-3.77,0.18-5.65
		c0.21-0.33,0.28-0.79-0.12-1.02c-0.19-0.08-0.36-0.08-0.52-0.01c-0.03-0.03-0.05-0.07-0.08-0.09c-0.77-0.5-1.21,0.66-1.73,1.05
		c0.03-0.37,0.09-0.74,0.15-1.11c0.03-0.17,0.05-0.34,0.09-0.5c0.08-0.39,0.17-0.78,0.25-1.17c0.02,0,0.04,0.01,0.06,0.02
		c0.18,0.01,0.3-0.04,0.4-0.11c0.04-0.03,0.08-0.05,0.11-0.08c0.02,0.01,0.04,0.02,0.07,0.02c0.54,0.08,0.74-0.45,0.78-0.9
		c0.1-0.23,0.08-0.46-0.03-0.65c0.71-0.02,0.8-1.46,0.27-1.9c0.19-0.14,0.31-0.36,0.27-0.6c-0.34-2.21-0.76-4.41-1.6-6.5
		c-1.29-3.55-2.27-7.23-3.15-10.91c-0.1-0.43-0.21-0.86-0.31-1.29c-0.02-0.07-0.03-0.14-0.05-0.2c-0.01-0.1-0.05-0.19-0.1-0.26
		c0.33-0.11,0.62-0.34,0.93-0.5c0.81-0.36,1.85-0.77,2.69-1.34c0,0,0.01-0.01,0.01-0.01c0.02,0.33,0.05,0.66,0.07,1
		c0.37,5.15,1.11,10.27,1.57,15.41c0.14,2.17,0.9,4.14,1.23,6.26c0.06,0.42,0.12,0.84,0.14,1.28c0.03,0.24-0.03,0.49-0.11,0.73
		c-0.12,0.36-0.32,0.71-0.51,1.02c-0.31,0.38-0.85,0.88-0.37,1.38c0.16,0.16,0.38,0.21,0.59,0.17c-0.01,1.2-0.05,2.41,0.07,3.59
		c0,0.03,0.02,0.06,0.03,0.09c0.04,0.14,0.11,0.25,0.2,0.31c-0.07,0.03-0.14,0.05-0.21,0.07C42.92,70.53,42.77,70.58,42.62,70.61z"
		/>
	<path class="st17" d="M65.87,86.75c-0.88-0.57-1.85-0.83-2.86-1.06c-0.6-0.59-0.88-1.46-1.2-2.23c-0.72-1.57-0.88-3.2-0.92-4.91
		c0.22-0.08,0.42-0.18,0.58-0.26c0.83-0.42,1.04-1.22,0.62-2.02c-0.64-1.61-0.87-3.24-1.24-4.95c-0.13-0.69-1.88-3.1-2.7-2.6
		c-0.13,0.08-0.24,0.22-0.31,0.47c0.07,0.85,1.11,1.21,1.48,1.95c0.65,1.55,0.75,3.3,1.27,4.92c0.1,0.32,0.21,0.63,0.35,0.93
		c-0.09,0.08-0.19,0.13-0.31,0.17c-0.11,0.02-0.22,0.05-0.33,0.11c-0.05,0.01-0.1,0.03-0.16,0.04c-0.01-0.05-0.04-0.09-0.06-0.14
		c-0.12-0.23-0.36-0.38-0.68-0.29c-0.02,0-0.03,0.01-0.05,0.01c-0.07-0.02-0.14-0.03-0.23-0.01c-0.42-0.02-0.79,0.17-1,0.44
		c-0.15,0.09-0.29,0.19-0.4,0.32c-0.15,0.16-0.27,0.37-0.34,0.58c-0.87,0.29-0.51,1.69-0.54,2.43c0.07,0.42,0.15,0.84,0.25,1.26
		c0.41,1.8,1.12,3.58,2.16,5.09c0.4,0.58,0.86,1.12,1.38,1.61c0.02,0.02,0.04,0.04,0.06,0.06c-0.02,0.03-0.03,0.06-0.05,0.08
		c-0.01,0-0.01,0-0.02,0.01c-2.7,1.05-5.58,1.02-8.4,0.36c-1.88-0.26-3.79-0.15-5.69-0.26c-0.2-0.01-0.4-0.01-0.6-0.03
		c0.01-0.4,0.05-0.8,0.08-1.2c0.13-1.54,0.37-3.07,0.61-4.6c0.27-1.68,0.54-3.36,0.67-5.06c0.04-0.54,0.07-1.08,0.07-1.62
		c0.16-0.59-0.62-1.03-1.04-0.59c-0.12,0.11-0.17,0.27-0.2,0.43c-0.02,0.1-0.03,0.2-0.03,0.3c-0.06,1.31-0.25,2.68-0.32,4.02
		c-0.28,2.75-1.16,5.52-1.13,8.32c-0.01,0.41,0.17,0.82,0.51,1.07c0.93,0.27,1.9,0.36,2.89,0.39c0,2.55,0,5.1-0.14,7.64
		c-0.13,4.51-0.53,5.46,2.28,5.65c-0.52,4.32,0.92,8.7,1.46,12.99c-0.57,1.39-0.71,2.98-0.82,4.47c-0.11,1.08,1,1.64,1.88,1.9
		c3.5,1.16,3.24-2.38,3.13-4.87c0.05,0.02,0.09,0.05,0.16,0.07c1.22,0.2,2.72-0.32,3.09-1.61c0.21-0.98-0.1-2.02-0.31-2.98
		c-0.15-0.51-0.41-1.12-0.97-1.26c0.14-1.62,0.13-3.26,0.08-4.9c0.07-0.25,0.1-0.52,0.12-0.79c0.26-0.23,0.32-0.66,0-0.92
		c-0.01-0.19-0.02-0.39-0.04-0.57c-0.03-0.13-0.1-0.22-0.19-0.3c-0.11-0.76-0.15-1.52-0.21-2.32c-0.01-0.19-0.1-0.36-0.24-0.47
		c0.44-0.15,0.83-0.34,1.01-0.51c0.36-0.6,0.33-1.34,0.21-2.1c0.21-0.85-0.02-1.91,0.22-2.79c0.25-0.93,0.93-1.77,1.41-2.65
		c0.53-1.07,0.78-2.25,1.16-3.38c0.02-0.16,0.08-0.31,0.15-0.46c0.07-0.16,0.14-0.32,0.16-0.49c0.02-0.01,0.04-0.02,0.06-0.03
		c0.02-0.03,0.04-0.07,0.07-0.11c0.05,0.04,0.1,0.08,0.16,0.12c0.16,0.1,0.34,0.11,0.52,0.06c0.08,0.35,0.44,0.7,0.64,0.98
		c0.34,0.5,0.75,1,1.35,1.18c0.66,0.13,1.33-0.12,1.92-0.48c0.29-0.18,0.56-0.38,0.8-0.58C68.84,89.46,67.33,87.5,65.87,86.75z
		 M51.43,103.69c0-0.02,0-0.03,0-0.05c0.25,0,0.52,0.01,0.8,0.01c0.28,0,0.57,0,0.89,0c0.04,0,0.08,0,0.13,0
		c0.14,0,0.29,0,0.44,0.01c0,0.22-0.01,0.42-0.05,0.59c0,0.01,0,0.03-0.01,0.05c0,0.27-0.01,0.55-0.02,0.82
		c-0.02,0.68-0.04,1.36-0.07,2.04c-0.12,2.72-0.26,5.46,0.22,8.1c-0.32-0.05-0.7,0.01-1.02-0.04
		C52.17,111.38,51.04,107.57,51.43,103.69z M54.39,121.21c-0.03,0.18-0.07,0.36-0.1,0.53c-0.26,0.05-0.55,0.03-0.83-0.02
		c-0.42-0.07-0.83-0.22-1.17-0.43c0,0-0.01-0.01-0.02-0.01c-0.02-0.01-0.06-0.04-0.1-0.08c-0.01-0.01-0.01-0.01-0.02-0.02
		c0-0.02,0-0.04,0-0.06c0.05-1.47,0.29-3.07,0.85-4.48c0.05-0.03,0.07-0.07,0.11-0.1c0.33,0.02,0.67,0,0.92-0.13c0,0,0,0,0,0
		c0,0,0,0,0,0c0.05,0.16,0.17,0.28,0.32,0.35C54.72,118.12,54.64,119.82,54.39,121.21z M54.73,108.57c0-0.05,0-0.11,0-0.17
		c0.06,0.03,0.12,0.05,0.19,0.07c0.19,0.06,0.4,0.08,0.58,0.1c0.2-0.01,0.42,0,0.63,0c0.16,0,0.33,0,0.49-0.01c0,0.17,0,0.35,0,0.52
		c-0.02,0.99-0.06,1.98-0.11,2.96c-0.31,0.03-0.75,0.15-1.08,0.34c-0.16-0.08-0.34-0.13-0.56-0.1c-0.05,0.01-0.08,0.03-0.13,0.05
		C54.7,111.09,54.7,109.83,54.73,108.57z M56.6,106.65c0.01,0.14,0.01,0.29,0.02,0.43c-0.01,0.04-0.01,0.08-0.02,0.13
		c-0.56,0.07-1.12,0.05-1.71-0.01c-0.04,0.01-0.07,0.02-0.11,0.04c0-0.08,0.01-0.17,0.01-0.25c0.04-1.13,0.1-2.27,0.16-3.39
		c0.39-0.07,0.76-0.21,1.06-0.51c0.01,0.74,0.03,1.48,0.01,2.21c0.01,0.32,0.24,0.59,0.56,0.63c0,0.02-0.01,0.04-0.01,0.07
		C56.58,106.22,56.59,106.44,56.6,106.65z M57.82,115.99c0,0,0.01-0.01,0.01-0.02c0,0.02-0.01,0.03-0.01,0.04
		C57.81,116,57.82,116,57.82,115.99z M57.37,113.63c0.29,0.76,0.38,1.59,0.44,2.39c-0.14,0.67-0.84,0.76-1.46,0.83
		c-0.23-0.13-0.43-0.14-0.59-0.1c-0.09-0.46-0.27-0.9-0.54-1.28c-0.07-0.09-0.15-0.15-0.23-0.19c-0.02-0.07-0.04-0.14-0.06-0.2
		c-0.05-0.49-0.09-0.98-0.13-1.48c0.08,0.01,0.17,0.02,0.27,0.01c0.09,0.01,0.15-0.01,0.23-0.02
		C55.89,113.95,56.72,113.63,57.37,113.63z M59.14,93.2c-0.46,0.89-1.11,1.69-1.47,2.64c-0.06,0.15-0.08,0.3-0.12,0.45
		c-0.7,0.04-0.6,0.86-0.52,1.37c0.06,0.55,0.13,1.08,0.19,1.62c-0.36,0.24-0.87,0.5-0.84,0.94c-0.13,0.06-0.25,0.14-0.31,0.29
		c0,0.04,0,0.09-0.01,0.14c-0.01,0.09-0.01,0.18-0.01,0.27c-0.23,0.03-0.43,0.09-0.59,0.19c-0.01-0.2-0.03-0.41-0.05-0.61
		c-0.2-2.27-0.59-4.53-0.43-6.82c0.18-0.2,0.21-0.53,0.02-0.77c-2.38-1.59-0.94,6.4-0.8,8.8c-0.21,0.1-0.33,0.29-0.4,0.53
		c-1.46,0.02-2.92,0.01-4.37-0.11c-0.07-0.01-0.13-0.01-0.2-0.01c-0.06-1.18-0.06-2.36-0.04-3.54c0.04-2.41,0.16-4.83,0.15-7.25
		c0-0.33-0.01-0.67-0.02-1c0.32,0,0.63,0.01,0.95,0.02c1.18,0.03,2.36,0.11,3.49,0.44c0.21,0.03,0.43,0.06,0.65,0.08
		c0.65,0.08,1.32,0.12,2,0.11c1.26-0.01,2.52-0.19,3.69-0.59C59.8,91.34,59.53,92.28,59.14,93.2z M64.97,90.59
		c-0.87,0-1.12-1.87-2.06-1.58c-0.05-0.29-0.34-0.5-0.63-0.7c-0.01-0.22-0.11-0.42-0.39-0.56c-0.11-0.05-0.21-0.06-0.3-0.05
		c-2.1-2.07-3.39-5.11-3.48-8.07c0.27-0.11,0.47-0.16,0.79-0.2c0.26-0.03,0.41-0.19,0.48-0.38c0.01-0.03,0.03-0.06,0.03-0.09
		c0.09-0.02,0.18-0.04,0.26-0.06c0,0.24,0,0.48,0.01,0.72c0.01,0.16,0.01,0.32,0.03,0.48c0.16,1.7,0.61,3.36,1.35,4.92
		c0.11,0.22,0.22,0.45,0.34,0.68c0.19,0.36,0.42,0.7,0.73,0.95c0.09,0.08,0.2,0.14,0.31,0.2c0.04,0.02,0.08,0.06,0.12,0.08
		c1.44,0.32,2.94,0.85,3.9,2.04C66.95,89.83,65.57,90.31,64.97,90.59z"/>
</g>
</svg>
