<?xml version="1.0" encoding="utf-8"?>
<!-- Generator: Adobe Illustrator 27.7.0, SVG Export Plug-In . SVG Version: 6.00 Build 0)  -->
<svg version="1.1" id="圖層_1" xmlns="http://www.w3.org/2000/svg" xmlns:xlink="http://www.w3.org/1999/xlink" x="0px" y="0px"
	 viewBox="0 0 180 245" style="enable-background:new 0 0 180 245;" xml:space="preserve">
<style type="text/css">
	.st0{fill:none;}
	.st1{fill:#294A26;}
	.st2{fill:#1F2214;}
	.st3{fill:#9E6924;}
	.st4{fill:#164323;}
	.st5{fill:#293B1D;}
	.st6{fill:#2A4D28;}
	.st7{fill:#749A2F;}
	.st8{fill:#76933C;}
	.st9{fill:#5F7D33;}
	.st10{fill:#3F562A;}
	.st11{fill:#101D0A;}
	.st12{fill:#C89A5D;}
	.st13{fill:#F2C1A3;}
	.st14{fill:#A87762;}
	.st15{fill:#3E3526;}
	.st16{fill:#28201C;}
	.st17{fill:#040000;}
	.st18{fill:#41617E;}
	.st19{fill:#DDB3A2;}
	.st20{fill:#A34529;}
	.st21{fill:#E7D0C8;}
	.st22{fill:#282828;}
	.st23{fill:#B1927D;}
	.st24{fill:#A3A399;}
	.st25{fill:#BF8466;}
	.st26{fill:#424242;}
	.st27{fill:#552D18;}
	.st28{fill:#A1BA39;}
	.st29{fill:#E2E1E1;}
	.st30{fill:#0D2037;}
	.st31{fill:#968272;}
	.st32{fill:#9CA2C4;}
	.st33{fill:#928884;}
	.st34{fill:#DCA88D;}
	.st35{fill:#BBB6C5;}
	.st36{fill:#9C6D4D;}
	.st37{fill:#080605;}
	.st38{fill:#2A6031;}
	.st39{fill:#FEFAFC;}
	.st40{fill:#509AB3;}
	.st41{fill:#4F431E;}
	.st42{fill:#3D6832;}
	.st43{fill:#84B733;}
	.st44{fill:#1B2912;}
	.st45{fill:#806F68;}
	.st46{fill:#4A3332;}
	.st47{fill:#9BD7F0;}
	.st48{fill:#78484B;}
	.st49{fill:#A1D9F2;}
	.st50{fill:#523D38;}
	.st51{fill:#C1A09C;}
	.st52{fill:#65676D;}
	.st53{fill:#C7BBAC;}
	.st54{fill:#5E6166;}
	.st55{fill:#CA997D;}
	.st56{fill:#C6C2B6;}
	.st57{fill:#17151C;}
	.st58{fill:#5D5A5C;}
	.st59{fill:#030810;}
	.st60{fill:none;stroke:#040000;stroke-width:0;stroke-linecap:round;stroke-linejoin:round;}
	.st61{fill:#9F8D89;}
	.st62{fill:#EECFCD;}
	.st63{fill:#BACAE8;}
	.st64{fill:#370504;}
	.st65{fill:#212022;}
	.st66{fill:#EC6B5E;}
</style>
<g>
	<path class="st1" d="M25.31,128.45c-0.53-1.24,0.08-2.68,1.3-3.21c2.18-0.94,4.37-1.87,6.62-2.61c2.15-0.75,4.31-1.45,6.49-2.11
		c1.27-0.39,2.66,0.45,3,1.7c0.36,1.32-0.44,2.61-1.71,3c-2.81,0.91-5.44,1.69-8.14,2.72C30.53,128.6,26.96,131.68,25.31,128.45z"/>
	<path class="st1" d="M33.87,135.65c-0.3-2.79,2.82-2.77,4.58-3.9c1.58-1,3.79-2.11,5.05-0.03c1.32,2.49-1.32,3.72-3.17,4.62
		C38.3,137.56,34.55,139.04,33.87,135.65z"/>
	<path class="st1" d="M40.44,138.53c0-1.39,1.17-2.56,2.56-2.56s2.56,1.17,2.56,2.56s-1.17,2.56-2.56,2.56
		S40.44,139.92,40.44,138.53z"/>
	<path class="st1" d="M40.79,147.36c0-1.39,1.16-2.55,2.55-2.55c0.21,0,0.42,0.03,0.62,0.08c2.41-1.58,4.49-3.61,6.64-5.52
		c2.32-2.18,5.63,1.13,3.43,3.43C51.27,145.13,42.52,155.06,40.79,147.36z"/>
	<path class="st1" d="M51.37,150.66c-3.83-0.84-2.42-6.99,1.41-5.54c1.84-1.47,3.1-2.65,4.71-4.17c2.33-2.19,5.64,1.11,3.45,3.45
		C58.47,146.5,54.91,151.38,51.37,150.66z"/>
	<path class="st1" d="M58.57,152.03c-2.56-0.59-2.35-4.75,0.13-5.28c1.46-1.89,2.72-3.93,4.02-5.93c0.71-1.11,2.14-1.56,3.32-0.87
		c1.12,0.66,1.57,2.19,0.88,3.32c-1.49,2.4-2.96,4.82-4.7,7.05C61.44,151.57,60.06,152.51,58.57,152.03z"/>
	<path class="st1" d="M61.94,153c-0.88-1.8,0.01-4.73,2.29-4.73c1.14-2.08,1.97-4,2.95-6.12c0.55-1.23,1.97-1.85,3.23-1.32
		c3.13,1.55,0.38,4.98-0.45,7.18c-1.16,2.23-2.05,4.99-4.43,6.19C64.25,154.9,62.55,154.44,61.94,153z"/>
	<path class="st1" d="M61.46,158.06c-1.2-1.16-0.75-2.95,0.35-4c1.31-2.12,2.6-4.26,3.93-6.37c1.61-2.54,3.21-5.07,4.84-7.6
		c0.73-1.13,2.18-1.59,3.38-0.89c1.13,0.66,1.6,2.24,0.89,3.38c-2.49,3.97-5,7.92-7.45,11.92
		C66.17,156.55,64.24,160.48,61.46,158.06z"/>
	<path class="st1" d="M75.42,154.05c-3.1-0.47-2.61-4.8-0.2-5.85c2.16-2.98,4.21-6.06,6.19-9.17c0.7-1.13,2.17-1.56,3.34-0.88
		c1.14,0.67,1.55,2.2,0.88,3.34c-2.46,3.96-4.87,8.01-7.86,11.6C77.17,153.78,76.32,154.18,75.42,154.05z"/>
	<path class="st1" d="M84.84,148.98c-1.87-1.04-1.6-4.23,0.35-5.02c1.89-1.94,2.96-7.2,6.49-5.56c1.18,0.69,1.61,2.27,0.91,3.45
		C90.54,144.3,88.94,150.61,84.84,148.98z"/>
	<path class="st1" d="M108.82,149.38c-4.68-2.25,3.86-9.58,4.77-13.03c1.65-2.9,6.17-0.27,4.45,2.6
		C115.49,141.91,113.42,150.21,108.82,149.38z"/>
	<path class="st1" d="M100.21,145.68c-0.41-0.95-0.15-2.02,0.54-2.74c0.4-0.37,0.34-0.32,0.58-0.65c2.65-4.04,5.12-7.49,7.66-11.46
		c0.73-1.13,2.18-1.59,3.38-0.89c1.14,0.66,1.6,2.24,0.89,3.38c-2.07,3.31-4.26,6.55-6.46,9.77c0.24,1.64-1.33,2.51-2.46,3.37
		C103.12,147.68,100.85,147.33,100.21,145.68z"/>
	<path class="st1" d="M122.51,146.79c-2.95-1.1-1.59-3.62-0.85-5.75c1.14-3.35,2.37-6.59,3.7-9.86c1.31-2.92,5.65-1.11,4.5,1.9
		c-1.49,3.96-2.93,7.93-4.25,11.95C125.18,146.35,123.83,147.17,122.51,146.79z"/>
	<path class="st1" d="M128.88,144.16c-1.71-1.39-0.71-3.79-0.5-5.62c0.54-3.11,1.12-6.21,1.66-9.32c0.54-3.17,5.21-2.54,4.86,0.66
		c-0.54,4.07-1.44,8.07-2.01,12.12C133.12,144.08,130.48,145.5,128.88,144.16z"/>
	<path class="st1" d="M138.59,140.6c-1.39-0.16-2.36-1.51-2.18-2.88c0.24-3.33,0.79-6.64,1.23-9.95c0.18-1.33,1.45-2.29,2.77-2.11
		c1.36,0.19,2.25,1.44,2.11,2.77c-0.35,3.32-0.82,6.64-1.05,9.97C141.37,139.8,139.91,140.78,138.59,140.6z"/>
	<path class="st1" d="M151.14,133.9c-2.22-2.99-10.67-5.98-8.46-10.24c3.43-3.42,8.94,4.81,12.04,6.57
		C162.46,129.71,156.25,139.95,151.14,133.9z"/>
	<path class="st1" d="M159.01,128.33c-3.12-3.43-5.94-7.15-10.1-9.55c-1.02-0.73-1.26-2.23-0.64-3.28
		c3.03-4.23,11.29,5.15,13.17,7.88C166.94,124.08,163.36,130.69,159.01,128.33z"/>
	<path class="st1" d="M29.39,141.02c-3.13-0.47-4.38-4.27-2.19-6.54c1.4-1.56,4.22-0.41,4.22,1.65c2.33,0.07,5.96-1.88,6.97,1.26
		c0.35,1.28-0.42,2.84-1.78,3.13C34.25,140.98,31.79,141.39,29.39,141.02z"/>
	<path class="st1" d="M22.69,121.52c-0.42-0.98-0.14-2.31,0.77-2.94c0.81-0.62,1.88-0.56,2.73-1.12c2.96-1.53,5.74-3.43,8.51-5.28
		c1.81-1.19,4.31,0.78,3.66,2.81c-0.18,0.65-0.6,1.12-1.14,1.49c-2.18,1.48-4.4,2.89-6.65,4.25
		C28.34,121.91,24.38,124.79,22.69,121.52z"/>
	<path class="st1" d="M23.96,108.6c-2.29,0.03-4.55-2.08-3.58-4.43c0.88-2.15,4.08-3.07,5.11-0.55c2.28-0.01,5.85-1.93,6.84,1.16
		c0.35,1.26-0.41,2.75-1.73,3.05C28.43,108.28,26.19,108.76,23.96,108.6z"/>
	<path class="st1" d="M24.2,113.02c-1.88,0.12-3.95-1.13-3.4-3.25c0.26-1.66,2.23-2.85,3.76-2.01c3.8-2.22,7.24-4.68,10.79-7.23
		c1.08-0.81,2.64-0.63,3.47,0.45c0.82,1.07,0.62,2.66-0.45,3.48c-2.12,1.62-4.33,3.1-6.47,4.54
		C29.45,110.47,27.12,112.66,24.2,113.02z"/>
	<path class="st1" d="M36.67,121.52c-0.79-1.3-0.11-2.7,0.89-3.65c2.39-2.9,5.29-5.32,7.96-7.95c9.28-8.74,18.28-17.75,27.44-26.61
		c2.37-2.24,5.81,1.15,3.54,3.54c-10.37,10.39-20.85,20.68-31.55,30.73c2.97,0.13,3.19,4.49,0.24,4.91
		c-1.49,0.23-2.97-0.35-4.45,0.09C39.3,122.86,37.5,123.01,36.67,121.52z"/>
	<path class="st1" d="M44.65,135.44c-2.57-0.65-2.31-4.51,0.27-4.89c2.26-1.9,4.01-4.3,5.93-6.52c2.08-2.53,5.91,0.41,3.96,3.05
		C52.38,129.58,48.5,136.22,44.65,135.44z"/>
	<path class="st1" d="M53.1,139.14c-2.9-1.25-3.92-4.7-3.31-7.6c-0.95-0.44-1.7-1.21-2.1-2.19c-3.82,3.57-6.99-2.41-2.65-4.54
		c0.64-3.82,4.42-14.54,9.53-10.35c1.67,0.04,2.82,1.43,2.74,3.06c5.93-3.81,6.15,3.66,3.05,7.01c1.21-0.5,2.67-0.32,3.77,0.37
		c1.13-1.57,2.18-4.17,4.59-3.13c2.97,1.36,0.79,4.49,0.23,6.67c0.94-1.03,2.66-1.14,3.69-0.19c1.33-2.45,5.43-4.12,6.23-0.42
		c0.62,1.61-1.73,5.98,1.42,5.25c3.97-0.91,7.81-8.28,11.55-5.61c2.3,2.52-1.23,4.66-2.97,6.17c-3.97,3.87-11.61,7.96-15,1.25
		c-1.28,1.22-3.43,2.45-5.03,1.17c-1.96,1.66-5.59,1.06-6.15-1.69C60.34,137.12,57.14,140.76,53.1,139.14z"/>
	<path class="st1" d="M72.4,132.34c-5.74-5.4-1.61-12.61,2.39-17.66c2.13-2.6,6.07,0.43,4.06,3.13c-1.44,1.68-2.58,3.6-3.59,5.57
		c-1.19,2.06-0.97,3.71,0.67,5.43C78.19,131.18,74.74,134.61,72.4,132.34z"/>
	<path class="st1" d="M74.18,138.73c-3.64-0.07-5.28-6.07-1.05-6.49c0.95,0,1.78,0.55,2.21,1.34c3.26-1.23,6.2-3.24,9.19-5.02
		c1.02-0.66,2.46-0.31,3.18,0.62c0.79,1.01,0.66,2.68-0.44,3.44C83.22,135,79.05,138.65,74.18,138.73z"/>
	<path class="st1" d="M76,138.75c0-1.38,1.16-2.54,2.54-2.54s2.54,1.16,2.54,2.54s-1.16,2.54-2.54,2.54S76,140.13,76,138.75z"/>
	<path class="st1" d="M72.96,144.37c-1.95-1.09-1.43-4.37,0.64-4.93c1.77-1.66,3.51-5.96,6.44-4.01c1.04,0.81,1.27,2.39,0.44,3.43
		C78.55,140.8,76.27,145.97,72.96,144.37z"/>
	<path class="st1" d="M77.11,143.57c-3.07-0.42-2.75-5.34,0.41-5.19c3.03-2.99,5.62-6.42,8.28-9.73c0.82-1.05,2.38-1.26,3.43-0.45
		c1.06,0.82,1.25,2.37,0.44,3.44c-2.17,2.85-4.46,5.62-6.8,8.34C81.33,141.59,79.61,143.91,77.11,143.57z"/>
	<path class="st1" d="M87.44,136.15c-2.32-1.91,0.27-4.58,1.21-6.54c1.33-1.96,2.34-6.36,5.5-4.76c1.17,0.68,1.52,2.18,0.88,3.35
		c-1.22,2.21-2.46,4.41-3.66,6.63C90.97,136.48,88.77,137.23,87.44,136.15z"/>
	<path class="st1" d="M40.65,122.35c-1.9-1.78,0.29-5.19,2.69-4.3c0.82-0.35,1.62-0.74,2.41-1.13c3.03-1.24,4.93,3.23,1.95,4.6
		C45.55,122.43,42.7,124.43,40.65,122.35z"/>
	<path class="st1" d="M47.91,115.87c-3.51-1.1-8.28-1.77-9.93-5.51c-1.29-3.77,4-5.55,4.85-1.66c1.9,1.29,4.23,1.73,6.39,2.4
		C52.34,112.04,51.05,116.64,47.91,115.87z"/>
	<path class="st1" d="M153.21,106.73c0-1.43,1.2-2.63,2.63-2.63s2.63,1.2,2.63,2.63s-1.2,2.63-2.63,2.63
		S153.21,108.16,153.21,106.73z"/>
	<path class="st1" d="M161.86,103.45c-0.54-0.08-1.09-0.11-1.64-0.07c-1.37,0.08-2.51-1.2-2.51-2.5c0-1.4,1.14-2.46,2.51-2.51
		c2.05-0.13,4.72,0.31,4.45,2.95C164.49,102.69,163.19,103.61,161.86,103.45z"/>
	<path class="st1" d="M161.02,121.61c-1.69-1.67-3.34-3.37-5.09-4.98c-0.88-0.77-2.04-1.29-2.51-2.42
		c-1.22-2.78,3.09-5.13,4.67-2.43c2.45,1.89,4.57,4.24,6.62,6.58C166.59,120.71,163.14,123.75,161.02,121.61z"/>
	<path class="st1" d="M164.89,107.07c-1.79-2.55-3.71-5.01-6-7.12c-1.13-1.05-2.66-2.21-2.66-3.9c0-1.36,1.13-2.49,2.49-2.49
		c0.96,0,1.81,0.57,2.22,1.38c3.15,2.69,5.9,5.81,8.12,9.31C170.68,106.88,166.72,109.55,164.89,107.07z"/>
	<path class="st1" d="M19.72,98.86c-0.9-1.02-0.97-2.72-0.09-3.78c1.48-1.84,4.09-1.84,6.21-2.37c2.71-0.6,5.42-1.2,8.12-1.82
		c3.22-0.77,4.51,3.92,1.34,4.86c-3.75,0.87-7.51,1.7-11.29,2.45C23.53,100.05,20.78,100.44,19.72,98.86z"/>
	<path class="st1" d="M22.05,106.65c-1.24-1.58-0.16-3.92,1.73-4.3c1.33-0.09,2.58-0.43,3.82-0.97c1.13-1.76,3.71-2.07,5.65-2.56
		c2.17-0.57,4.37-1.12,6.42-2.05c0.94-0.68,1.93-1.38,3.07-1.69c2.61-0.72,4.32,2.74,2.2,4.4c-1.74,1.17-3.6,2.14-5.22,3.51
		c0.53,1.94-1.27,3.17-3.01,3.23c-1.67,0.64-3.72-0.36-4.01-2.17c-0.27,0.07-0.54,0.15-0.81,0.22c-0.01,0-0.02,0.01-0.03,0.01
		c-1.08,1.85-3.41,2.18-5.27,2.85C25.12,107.64,23.13,108.13,22.05,106.65z"/>
	<path class="st1" d="M13.45,104.32c0-1.37,1.14-2.51,2.51-2.51s2.51,1.14,2.51,2.51s-1.14,2.51-2.51,2.51
		S13.45,105.69,13.45,104.32z"/>
	<path class="st1" d="M22.39,91.33c-2.05-0.53-2.46-3.49-0.59-4.52c0.53-0.31,1.18-0.44,1.78-0.31c2.23-0.43,4.4-1.13,6.58-1.74
		c3.15-0.79,4.42,3.81,1.31,4.76C28.5,90.15,25.48,91.8,22.39,91.33z"/>
	<path class="st1" d="M24.53,91.98c-0.73-4.14,5.52-3.43,8.14-4.05c1.32-0.16,2.57,0.75,2.75,2.09c0.24,3.59-4.34,2.76-6.68,3.39
		C27.17,93.95,25.06,93.94,24.53,91.98z"/>
	<path class="st1" d="M57.04,142.51c-3.54-3.56-0.58-13.36,4.99-9.12c0.16-0.24,0.32-0.48,0.49-0.72c0.72-1.07,1.43-2.15,2.14-3.22
		c-1.48-0.76-2.56-2.25-2.96-3.85c-4.45,2.43-6.19-3.42-5.77-6.84c1.21-3.28,10.3-22.68,12.91-12.36c2.19,1.14,1.32,3.96,0.53,5.75
		c1.77,4.56-4.52,7.77-2.51,12.54c0,0,0-0.08,0-0.08c0.02,0.02,0.04,0.05,0.06,0.07c2.02-0.52,2.65-3.03,4.46-4.06
		c1.58-1.35,4.31-0.02,4.2,2.06c0.18,3.35-3.7,4.37-4.89,7.1c0.47,0.08,0.91,0.28,1.25,0.59c3.18-1.61,6.75-10.69,10.3-5.16
		c1.9-3.39,7.45-3.77,6.59,1.15c3.53-0.45,5.56-3.58,8.43-5.29c4.43-1.79,5.26,4.24,4.36,7.31c2.6-0.35,3.08,2.31,3.62,4.14
		c2.59-3.4,6.58-9.23,10.8-4.34c0.62-0.26,1.22-0.6,1.86-0.82c0.3-1.41,1.14-3.05,2.59-3.55c-0.21-3.79,5.6-3.48,5.12,0.25
		c8.59,0.43,2.91,9.84-3.18,9.02c-0.75,2.72-4.96,3.44-5.77,0.41c-1.57,0.45-3.4-0.07-4.31-1.47c-2.35,3.74-7.4,9.58-11.13,3.95
		c-1.99,3.05-7.07,2.25-6.69-1.8c0.31-2,1.76-3.53,1.74-5.63c-3.11,2.16-9.04,5.39-12.25,2.17c-0.53,0.45-1.08,0.91-1.73,1.18
		c-1.26,0.53-2.87,0.37-3.9-0.58c-1.33,1.84-3.39,2.93-5.01,4.34c-0.72,1.35-2.22,2.47-3.8,1.9
		C67.12,141.58,61.45,147.23,57.04,142.51z"/>
	<path class="st1" d="M74.56,129.2c-4.42-2.42,4.1-12.36-2.32-11.87c-1.08,1.96-2.34,4.84-4.88,5.01c-3.99,0.02-4-4.23-1.81-6.56
		c-1.06,0.64-2.23,1.21-3.13,2.07c-0.69,1.08-2.01,1.59-3.23,1.07c-1.26-0.54-1.96-2.11-1.37-3.38c0.87-1.12-0.27-1.86-1.22-2.33
		c-1.28-0.79-2.81-0.6-4,0.26c-2.65,5.2-8.52,0.87-4.61-3.09c-0.82-0.53-1.76-1-2.75-1.03c-6.26,2.53-8.14-3.63-6.54-8.58
		c1.54-5.03,8.81-4.85,9.74,0.43c1.14-1.06,2.98-1.12,3.96,0.17c1.38,1.83-0.13,3.61-1.77,4.55c0.79,0.51,1.52,1.13,2,1.94
		c3.59-1.02,7.81,0.8,9.84,3.85c2.95-1.85,7.86-3.1,9.97,0.57c4.42-0.42,8.16,3.8,7.32,8.14c2.61-1.97,5.82-4.64,9.3-3.7
		c1.34-1.1,2.71-2.17,4.03-3.3c0.83-0.88,1.88-1.67,3.13-1.71c2.1-0.11,3.79,1.96,2.72,3.91c-2.88,4.93-9.6,13.17-15.75,8.5
		C80.79,125.56,77.54,130.86,74.56,129.2z"/>
	<path class="st1" d="M108.28,131.3c-0.41-0.08-0.84-0.36-1.16-0.61c-0.27-0.21-0.49-0.47-0.66-0.75c-2.45,0.31-4.17-2.57-2.97-4.66
		c-0.95-0.83-1.16-2.13-1.45-3.32c-0.24-1.49,0.54-2.91,1.32-4.12c2.07-3.67,5.57-6.05,8.3-9.13c1.78-1.62,4.06-3.52,6.63-3.01
		c2.18,0.36,3.67,2.48,2.94,4.62c-1.39,4.13-4.58,7.1-7.13,10.45c0.31-0.03,0.62,0,0.91,0.08c0.61,0.17,1.15,0.59,1.5,1.13
		c2.63-0.37,3.92,2.53,2.48,4.54c1.75,1.48,0.58,4.59-1.71,4.56c-1.15,0.63-2.62,0.35-3.56-0.5c-0.51,0-1-0.11-1.44-0.35
		C111.25,131.28,109.68,131.73,108.28,131.3z"/>
	<path class="st2" d="M98.94,199.16c-0.05-5.15-0.13-10.3-0.45-15.44c-0.67-7.76-2.08-15.45-2.48-23.22
		c-0.05-6.47,0.02-12.93-0.17-19.4c0.05-1.8-0.44-3.77,0.45-5.42c1.83-2.97,6.25,0.19,4.34,2.97c0.55,9.5-0.36,19.09,0.88,28.54
		c1.54,10.6,2.5,21.26,2.41,31.97C103.86,202.42,99.03,202.45,98.94,199.16z"/>
	<path class="st2" d="M98.94,235.89c-0.92-5.22-0.17-10.65-0.75-15.93c-0.79-7.92-1.65-15.84-2.88-23.71
		c-2.41-20.66-2.98-41.54-2.52-62.33c0.08-3.13,4.77-3.22,4.84,0c-0.48,17.38,0.37,35.14,1.6,52.38c0.94,10.51,2.85,20.9,3.82,31.41
		c0.62,5.59,0.23,11.28,0.75,16.84C104.61,237.73,99.95,239.1,98.94,235.89z"/>
	<path class="st2" d="M100.53,212.45c0-1.31,1.09-2.4,2.4-2.4s2.4,1.09,2.4,2.4s-1.09,2.4-2.4,2.4S100.53,213.76,100.53,212.45z"/>
	<path class="st3" d="M96.5,159.96c-0.52-0.4-0.79-0.96-0.92-1.59c-0.36-1.82-0.54-3.66-0.66-5.51c-0.45-5.96-0.34-11.94-0.62-17.91
		c0.05-3.16,4.74-3.19,4.84,0c0.29,5.34,0.21,10.7,0.5,16.04c0.16,2.26,0.32,4.5,0.75,6.72C100.77,159.78,98.09,161.29,96.5,159.96z
		"/>
	<path class="st3" d="M100.3,147.61c0.14-2.76,0.21-5.52,0.21-8.29c0.08-3.18,4.76-3.18,4.84,0c0,2.77-0.08,5.53-0.23,8.29
		c-0.07,1.31-1.04,2.41-2.41,2.41C101.45,150.02,100.23,148.92,100.3,147.61z"/>
	<path class="st3" d="M85.66,155.73c-0.37-4.19-0.45-8.41-0.45-12.61c0-1.31,1.09-2.41,2.41-2.41c1.31,0,2.41,1.09,2.4,2.41
		c0,3.46,0.1,6.92,0.29,10.37c0.28,1.71,0.24,4.01-1.93,4.3C87.12,157.96,85.77,157.03,85.66,155.73z"/>
	<path class="st3" d="M97.75,137.15c0-1.32,1.1-2.41,2.41-2.41s2.41,1.1,2.41,2.41s-1.1,2.41-2.41,2.41S97.75,138.46,97.75,137.15z"
		/>
	<path class="st3" d="M97.06,235.92c-1.7-0.64-1.78-2.54-1.51-4.08c0.5-9.41-0.13-18.91,0.42-28.29c0.73-2.66,4.77-2.14,4.77,0.64
		c-0.28,7.66,0.05,15.36-0.12,23.03c1.06,0.63,1.38,1.87,1.29,3.03c0.11,1.07-0.06,2.26-1.02,2.87
		C100.51,234.85,99.01,236.81,97.06,235.92z"/>
	<path class="st4" d="M111.97,233.15c-1.27-0.54-1.75-1.95-1.3-3.2c1.07-2.28,1.48-5.71,4.16-6.26c3.03-0.36,4.8,4.45,1.44,5.37
		C115.37,231.05,114.95,234.16,111.97,233.15z"/>
	<path class="st4" d="M120.62,234.91c-3.15-1.55-0.37-4.92,0.57-7.06c1.32-2.18,3.91-7.53,7.03-5.41c2.36,2.12-0.15,3.96-1.44,5.76
		c-1.11,1.69-2,3.55-2.85,5.23C123.44,234.73,121.93,235.5,120.62,234.91z"/>
	<path class="st4" d="M128.75,227.71c0-1.35,1.12-2.47,2.47-2.47s2.47,1.12,2.47,2.47s-1.12,2.47-2.47,2.47
		S128.75,229.06,128.75,227.71z"/>
	<path class="st4" d="M135.84,227.35c0.02-1.93-0.07-4.52,2.52-4.59c1.31,0,2.46,1.11,2.44,2.44c0.06,1.87-0.02,4.58-2.51,4.6
		C137.01,229.79,135.77,228.68,135.84,227.35z"/>
	<path class="st4" d="M76.49,230.92c0-1.37,1.14-2.52,2.52-2.52s2.52,1.14,2.52,2.52s-1.14,2.52-2.52,2.52
		S76.49,232.29,76.49,230.92z"/>
	<path class="st4" d="M67.85,237.47c-2.84-1.34-0.67-4.41,0.07-6.44c0.5-1.21,1.96-1.79,3.16-1.29c2.83,1.33,0.67,4.42-0.06,6.44
		C70.51,237.4,69.03,237.98,67.85,237.47z"/>
	<path class="st4" d="M65.59,234.03c0-1.35,1.12-2.48,2.48-2.48s2.48,1.12,2.48,2.48s-1.12,2.48-2.48,2.48
		S65.59,235.38,65.59,234.03z"/>
	<path class="st4" d="M81.98,231.05c0-1.32,1.11-2.43,2.43-2.43s2.43,1.11,2.43,2.43s-1.11,2.43-2.43,2.43
		S81.98,232.37,81.98,231.05z"/>
	<path class="st4" d="M81.59,234.14c0-1.35,1.12-2.47,2.47-2.47s2.47,1.12,2.47,2.47s-1.12,2.47-2.47,2.47
		S81.59,235.49,81.59,234.14z"/>
	<path class="st4" d="M122.13,239.52c-3.24-0.12-12.97-2.14-9.58-6.91c0.91-0.92,2.61-1.02,3.52,0c0.26,0.36,0.6,0.58,0.99,0.78
		c4.03,1.59,8.62,1.48,12.88,1.11c3.51-0.54,6.58-2.54,10.03-3.2c2.67,0,8.59-2.34,9.27,1.49c0.22,2.44-1.94,3.07-3.96,3
		c-1.73,0.18-3.45,0.37-5.17,0.62c-2.79,0.97-5.46,2.27-8.38,2.85C128.58,239.97,125.32,239.77,122.13,239.52z"/>
	<path class="st4" d="M127.84,231.27c0-1.34,1.12-2.46,2.46-2.46s2.46,1.12,2.46,2.46s-1.12,2.46-2.46,2.46
		S127.84,232.61,127.84,231.27z"/>
	<path class="st4" d="M129.25,227.71c0-1.32,1.11-2.43,2.43-2.43s2.43,1.11,2.43,2.43s-1.11,2.43-2.43,2.43
		S129.25,229.04,129.25,227.71z"/>
	<path class="st4" d="M115.95,235.64c-1.08-2.83,2.4-3.71,4.4-4.41c1.25-0.43,2.64,0.48,2.98,1.69c0.44,1.47-0.68,2.83-2.1,3.12
		C119.31,236.85,117.23,238.15,115.95,235.64z"/>
	<path class="st4" d="M105.29,237.57c-0.78-1.01-0.66-2.7,0.45-3.45c0.42-0.32,0.96-0.53,1.34-0.89c1.3-1.85,4.46-0.8,4.4,1.48
		c0,1.77-1.7,2.65-2.99,3.48C107.46,238.85,106.02,238.5,105.29,237.57z"/>
	<path class="st4" d="M99.61,235.17c0-1.31,1.09-2.4,2.4-2.4s2.4,1.09,2.4,2.4s-1.09,2.4-2.4,2.4S99.61,236.48,99.61,235.17z"/>
	<path class="st4" d="M93.05,238.83c-1.82-0.97-1.45-3.99,0.58-4.45c0.33-0.07,0.66-0.16,0.96-0.31c0.66-0.33,1.25-0.77,1.8-1.26
		c0.99-0.86,2.61-0.55,3.37,0.43c0.82,1.02,0.58,2.57-0.43,3.37C97.67,237.96,95.29,239.87,93.05,238.83z"/>
	<path class="st4" d="M82.84,238.1c-0.87-2.11,1.11-3.26,2.8-3.89c1.19-0.57,2.68,0.12,3.17,1.29c0.87,2.06-1.15,3.26-2.78,3.9
		C84.85,239.98,83.34,239.28,82.84,238.1z"/>
	<path class="st4" d="M63.44,240.35c0-1.33,1.11-2.44,2.44-2.44s2.44,1.11,2.44,2.44s-1.11,2.44-2.44,2.44
		S63.44,241.67,63.44,240.35z"/>
	<path class="st4" d="M61.08,237.23c0-1.43,1.19-2.62,2.62-2.62s2.62,1.19,2.62,2.62s-1.19,2.62-2.62,2.62
		S61.08,238.66,61.08,237.23z"/>
	<path class="st4" d="M82.52,236.31c0-1.41,1.18-2.58,2.58-2.58s2.58,1.18,2.58,2.58s-1.18,2.58-2.58,2.58
		S82.52,237.72,82.52,236.31z"/>
	<path class="st4" d="M76.22,236.2c0-1.33,1.11-2.43,2.43-2.43s2.43,1.11,2.43,2.43s-1.11,2.43-2.43,2.43S76.22,237.53,76.22,236.2z
		"/>
	<path class="st4" d="M71.67,239.42c0-1.36,1.13-2.49,2.49-2.49s2.49,1.13,2.49,2.49s-1.13,2.49-2.49,2.49
		S71.67,240.78,71.67,239.42z"/>
	<path class="st4" d="M141.16,232.08c0-1.36,1.14-2.5,2.5-2.5s2.5,1.14,2.5,2.5s-1.14,2.5-2.5,2.5S141.16,233.44,141.16,232.08z"/>
	<path class="st4" d="M142.9,231.84c0-1.34,1.12-2.47,2.47-2.47s2.47,1.12,2.47,2.47s-1.12,2.47-2.47,2.47
		S142.9,233.18,142.9,231.84z"/>
	<path class="st4" d="M22.22,91.89c-1.9-0.39-4.03-0.44-5.68-1.54c-1.92-1.44-1.5-3.77,0-5.35c1.36-1.92,4.66-0.65,4.39,1.66
		c1.93,0.26,4.32,0.58,4.07,3.11C24.83,91.11,23.53,92.09,22.22,91.89z"/>
	<path class="st4" d="M24.22,83.39c-2.5-0.18-4.31-2.95-2.12-4.82c0.72-0.67,1.67-0.79,2.6-0.95c1.13-0.1,2.41-0.65,3.46-0.03
		c2.27-0.56,5.46-3.32,6.98-0.19c0.55,1.29-0.11,2.65-1.32,3.24C30.82,82.04,27.58,83.45,24.22,83.39z"/>
	<path class="st4" d="M23.88,82.85c0-1.39,1.16-2.54,2.54-2.54s2.54,1.16,2.54,2.54s-1.16,2.54-2.54,2.54S23.88,84.24,23.88,82.85z"
		/>
	<path class="st4" d="M68.72,112.02c-2.1-2.15,0.85-4.48,2.16-6.05c1.8-1.61,3.57-5.78,6.44-3.84c1.01,0.78,1.32,2.42,0.44,3.43
		c-1.47,1.7-2.93,3.41-4.42,5.09C72.85,112.47,70.13,113.49,68.72,112.02z"/>
	<path class="st4" d="M84.61,112.43c-4.07-0.21-3.25-6.42,0.75-5.14c2.3-0.77,5.25-4.36,7.29-1.36c1.24,2.17-1.08,3.6-2.74,4.47
		C88.27,111.32,86.54,112.43,84.61,112.43z"/>
	<path class="st4" d="M89.64,115.96c-3.14-1.02-1.27-4.62-0.52-6.75c0.92-2.05,2.09-5.9,5.02-4.38c2.61,1.64,0.12,4.32-0.5,6.37
		C92.98,113.19,92.5,116.69,89.64,115.96z"/>
	<path class="st4" d="M90.55,121.4c-1.47-0.18-2.45-1.72-2.06-3.13c0.68-3.1,1.55-6.16,2.41-9.21c0.36-1.28,1.71-2.06,3-1.7
		c1.27,0.35,2.06,1.72,1.7,3c-0.82,2.93-1.63,5.88-2.18,8.54C93.33,120.36,92.08,121.64,90.55,121.4z"/>
	<path class="st4" d="M104.89,110.65c-4.4-1.38,0.09-10.12,3.78-7.38c1.87,1.43,0.72,3.54-0.4,5.02
		C107.88,109.83,106.53,111.14,104.89,110.65z"/>
	<path class="st4" d="M113.91,123.03c-0.04-3.98-0.02-7.97-0.09-11.95c0.08-3.22,4.8-3.22,4.91,0c0.15,3.98,0.15,7.97,0.13,11.95
		c-0.01,1.34-1.12,2.47-2.47,2.47C115.02,125.5,113.92,124.37,113.91,123.03z"/>
	<path class="st4" d="M123.09,118.62c0.09-2.21,0.52-6.66,3.41-6.73c1.37,0,2.52,1.14,2.52,2.51c-0.08,1.46-1.12,2.7-0.96,4.21
		C127.96,121.88,123.16,121.88,123.09,118.62z"/>
	<path class="st4" d="M133.16,130.57c0.07-2.72,0.42-5.58,1.69-8.01c1.05-2.31,4.37-3.12,5.32-0.31c0.29,1.04-0.16,2.12-1.01,2.7
		c-0.81,1.73-0.99,3.72-1.03,5.61C138.06,133.84,133.23,133.84,133.16,130.57z"/>
	<path class="st4" d="M139.23,143.66c-1.07-0.08-2.1-1.11-2.18-2.18c-0.14-2.51,0.03-5.04-0.02-7.55c-0.02-2.66,3.76-3.41,4.76-0.97
		c1.67-1.59,4.53-0.08,4.2,2.2c-0.16,1.93-0.45,3.9-2.66,4.31C142.68,141.38,141.76,144.12,139.23,143.66z"/>
	<path class="st5" d="M99.03,20.25c-1.61-0.67-1.78-2.53-1.07-3.94c0.83-2.56,1.64-5.13,2.24-7.75c0.35-1.26,0.08-2.65,0.67-3.83
		c0.82-1.5,3.11-1.68,4.13-0.29c0.6,0.74,0.52,1.59,0.44,2.45c-0.12,2.31-0.77,4.56-1.43,6.77
		C102.98,16.06,102.85,21.46,99.03,20.25z"/>
	<path class="st5" d="M104.45,22.37c-1.19-0.7-1.57-2.24-0.9-3.43c2.18-3.85,4.41-7.69,6.42-11.63c0.93-2.27,3.19-6.33,5.99-3.93
		c0.92,0.92,1.01,2.61,0,3.51c-0.45,0.34-0.64,0.88-0.91,1.36c-2.19,4.51-4.68,8.87-7.17,13.22
		C107.2,22.66,105.61,23.05,104.45,22.37z"/>
	<path class="st5" d="M113.67,16.32c-2.65-1.78-0.41-4.17,0.8-5.97c1.3-2.14,3.95-6.18,6.55-3.32c0.93,1.2,0.55,2.95-0.72,3.72
		c-0.34,0.3-0.64,0.85-0.76,0.97C118.01,13.59,116.79,17.91,113.67,16.32z"/>
	<path class="st5" d="M112.11,20.02c-2.45-1.73-0.69-3.65,0.43-5.52c0.14-1.42,0.97-2.81,2.57-2.79c3.08,0.15,2.89,3.78,1.48,5.68
		C115.74,19.06,114.19,21.25,112.11,20.02z"/>
	<path class="st5" d="M109.75,26.85c-2.84-2.57,1.58-5.4,2.73-7.72c1.77-2.49,3.27-5.14,4-8.13c0.97-3.16,5.7-1.86,4.86,1.34
		c-0.93,3.28-2.41,6.34-4.42,9.1C115.23,23.38,112.9,29.05,109.75,26.85z"/>
	<path class="st5" d="M119.51,18.33c0-1.37,1.14-2.51,2.51-2.51s2.51,1.14,2.51,2.51s-1.14,2.51-2.51,2.51S119.51,19.7,119.51,18.33
		z"/>
	<path class="st5" d="M125.38,23.53c-1.05-0.81-1.29-2.42-0.45-3.48c1.58-1.97,3.11-3.99,4.56-6.06c0.68-1.35,2.26-2.17,3.67-1.34
		c2.84,1.88-0.1,4.81-1.41,6.69C130.11,21.14,128.37,25.53,125.38,23.53z"/>
	<path class="st5" d="M130.06,29.14c-0.79-0.61-1.17-1.69-0.89-2.65c0.01-0.04,0.03-0.09,0.04-0.13c-2.18,0.57-3.9-2.24-2.48-3.96
		c0.73-0.93,1.67-1.65,2.5-2.48c1.48-1.51,4.23-0.45,4.24,1.68c0.98-0.52,2.27-0.44,3.17,0.15c1.13,0.71,1.36,1.97,2.08,2.96
		c1.12,2.51-2.42,4.79-4.36,3.03C133.54,29.24,131.61,30.36,130.06,29.14z"/>
	<path class="st5" d="M136.21,32.41c-1.95-2.11,0.35-3.75,1.5-5.47c1.06-1.66,2.41-3.47,3.06-5.3c-0.77-1.28-0.29-3.03,1.12-3.62
		c1.87-0.81,3.49,0.97,3.83,2.68c0.42,3.09-1.75,5.73-3.25,8.23C141.22,30.97,138.85,34.77,136.21,32.41z"/>
	<path class="st5" d="M139.77,36.05c-1.19-0.5-1.92-2.04-1.32-3.25c1.01-2.09,1.92-4.23,2.59-6.45c-3.1-2.69,1.83-6.32,4.3-3.77
		c2.64,2.98-1.1,9.35-2.46,12.45C142.32,36.1,140.87,36.51,139.77,36.05z"/>
	<path class="st5" d="M142.16,38.23c-3.41,0.63-4.27-4.39-0.89-4.91c3.43-1.04,5.86,1.25,5.75,4.7
		C146.99,41.08,142.48,41.28,142.16,38.23z"/>
	<path class="st5" d="M90.07,18.39c-0.07-3.1-0.25-6.34-1.64-9.17c-0.9-2.04-4-4.42-1.52-6.5c3.29-2.14,5.21,3.12,6.44,5.36
		c1.42,3.22,1.58,6.84,1.61,10.32c-0.03,1.34-1.09,2.45-2.45,2.45C91.19,20.84,90.07,19.73,90.07,18.39z"/>
	<path class="st5" d="M88.96,20.28c-1.03-0.79-1.34-2.46-0.45-3.48c1.38-1.6,2.7-3.25,3.92-4.98c1.2-1.81,2.23-3.71,3.09-5.71
		c0.85-1.92,3.35-3.16,4.88-1.24c0.86,1.11,0.58,2.6-0.45,3.48c-0.47,0.98-0.9,2-1.44,2.94c-1.62,3.12-3.78,5.91-6.07,8.55
		C91.63,20.89,90.02,21.13,88.96,20.28z"/>
	<path class="st5" d="M36.19,33.91c-3.6-0.73-1.89-5.33-1.17-7.72c1.2-2.96,4.84-3.27,6-0.13c1.5-0.7,3.22-1.02,4.86-0.72
		c2.26-3.53,5.4-5.06,9.22-2.73c1.07-2.52,2.14-6.26,5.5-6.13c1.32-2.24,3.69-3.76,6.33-3.66c0.13-1.44,0.35-2.8,1.26-3.93
		c2.05-2.32,4.93-0.27,4.69,2.49c3.68,1.2,5.59,6.72,0.63,7.43c-2.47,0.06-4.96-1.23-7.43-0.75c-1.24,0.83-1.95,2.43-2.3,3.83
		c-0.44,1.46-2.1,2.33-3.52,1.67c-1.86,5.48-3.93,5.64-8.72,3.06c-1.17,0.82-1.62,2.23-2.4,3.36c-0.77,1.06-2.43,1.3-3.45,0.56
		c-2.93-1.09-4.43,3.16-7.23,2.55C37.89,33.69,37.02,34.03,36.19,33.91z"/>
	<path class="st5" d="M38.42,36.14c-0.61-2.03-0.46-4.34,1.11-5.89c1.43-1.58,4.3-0.36,4.21,1.74c0.06,1.18-1.15,1.68-0.57,2.84
		C43.95,37.97,39.36,39.24,38.42,36.14z"/>
	<path class="st5" d="M37.25,43c-0.62-1.44,0.29-2.94,1.7-3.42c1.36-0.86,2.68-1.8,4.24-2.28c3.02-1.16,4.87,3.22,1.92,4.54
		C42.61,42.63,39.22,46.62,37.25,43z"/>
	<path class="st5" d="M33.33,42.08c-3.45-0.71-1.61-4.92-1.62-7.32c0.14-1.32,1.47-2.27,2.76-2.09c3.43,0.71,1.6,4.91,1.64,7.31
		C35.98,41.31,34.62,42.26,33.33,42.08z"/>
	<path class="st5" d="M149.25,39.99c-1.06-0.82-1.34-2.5-0.46-3.56c1.33-1.59,2.6-3.23,3.8-4.92c0.79-1.11,2.45-1.26,3.5-0.45
		c2.33,1.88-0.2,4.35-1.36,6.11C153.48,38.87,151.62,41.74,149.25,39.99z"/>
	<path class="st5" d="M150.28,44.51c-0.88-1.1-0.58-2.76,0.53-3.58c1.38-1.22,2.79-2.43,3.95-3.43c1.88-1.35,4.14-5.04,6.63-2.77
		c0.91,0.91,1,2.59,0,3.49c-2.52,2.26-4.99,4.59-7.59,6.75C152.75,45.83,151.1,45.56,150.28,44.51z"/>
	<path class="st5" d="M163.39,61.45c-1.16-0.19-2.26-1-2.47-2.2c-3.04,0.45-4.51-3.05-2.7-5.22c-1.78,0.39-3.61,1.91-5.39,0.77
		c-1.5-0.77-1.66-2.95-0.52-4.08c0.61-0.61,1.19-1.24,1.75-1.9c-2.84-2.85,1.15-6.07,3.66-7.33c1.11-1.59,2.15-3.2,2.92-4.98
		c0.17-1.32,1.53-2.24,2.81-2.07c4.84,1.4,0.16,7.01-1.32,9.49c0.12,1.61-0.58,3.14-1.41,4.49c2.52,0.18,3.84,2.86,3.28,5.13
		c0.91-0.01,1.81,0.19,2.49,0.86c1,1,1.05,2.27,0.62,3.44C169.2,60.24,165.69,63.62,163.39,61.45z"/>
	<path class="st5" d="M160.83,74.45c-1.92,0.05-4.46-0.83-4.12-3.18c0.21-1.35,1.45-2.32,2.82-2.14c0.67,0.18,1.28,0.4,1.98,0.4
		C164.73,70.03,164.07,74.78,160.83,74.45z"/>
	<path class="st5" d="M162.48,74.36c-2.84-0.25-9.37,0.18-8.16-4.31c1.71-3.09,5.75-0.37,8.51-0.78
		C165.9,69.58,165.57,74.46,162.48,74.36z"/>
	<path class="st5" d="M146.65,85.88c-4.73-3.43,0.6-10.16,3.48-13.19c4.37-2.6,5.74,2.7,2.04,5.27c0.37-0.02,0.73,0.04,1.09,0.16
		c0.4,0.13,0.71,0.32,1.01,0.56c2.13-0.41,3.5-2.43,5.51-3.13c-1.67-3.62,3.03-5.1,5.69-3.55c-0.39-0.84-0.21-1.78,0.31-2.48
		c-1.41-5.37,5.85-4.5,7.85-1.23c2.71,2.5,5.58,12.39-0.97,10.32c0.59,3.91-4.98,6.37-8.21,5.37c-1.58-0.6-2.32-2.13-3.41-3.3
		c-2.31,1.76-5.2,3.86-8.25,2.94C151.25,85.27,148.99,87.04,146.65,85.88z M166.35,78.92c0.07-0.02,0.14-0.04,0.21-0.06
		c0.01,0,0.02-0.01,0.03-0.01c-0.28-0.23-0.58-0.45-0.87-0.67C165.93,78.42,166.14,78.67,166.35,78.92z M171.34,76.21
		c-0.01-0.1-0.03-0.21-0.05-0.31c-0.03,0.06-0.05,0.12-0.08,0.17C171.26,76.12,171.3,76.16,171.34,76.21z"/>
	<path class="st5" d="M155.99,96.38c-1.68-1.39-3.64-2.27-5.62-3.11c-1.05-0.52-1.89-1.36-1.89-2.62c0-1.38,1.15-2.53,2.53-2.53
		c0.65,0,1.25,0.26,1.7,0.67c2.28,0.9,4.48,2.01,6.33,3.65C161.56,94.52,158.63,98.31,155.99,96.38z"/>
	<path class="st5" d="M156.63,91.61c-1.89-2.76,1.61-4.65,4-4.85c1.92-0.4,4.45-0.62,4.85,1.87c0.22,2.76-2.35,2.83-4.38,3.15
		c-0.89,0.07-1.54,0.85-2.44,0.79C157.89,92.58,157.11,92.23,156.63,91.61z"/>
	<path class="st5" d="M172.65,84.88c-2.03-0.96-4.24-1.49-6.27-2.44c-2.91-1.04-4.31-6.44-0.31-6.8c1.22,0,2.37,0.98,2.48,2.2
		c2.02,0.83,4.12,1.36,6.08,2.35C177.66,81.63,175.75,86.1,172.65,84.88z"/>
	<path class="st5" d="M166.16,91.91c0-1.39,1.17-2.56,2.56-2.56s2.56,1.17,2.56,2.56s-1.17,2.56-2.56,2.56S166.16,93.3,166.16,91.91
		z"/>
	<path class="st5" d="M162.43,100.15c-3.44-1.79-0.06-5.59,0.82-8.01c0.86-1.58,1.15-3.47,2.32-4.87c0.96-0.96,2.57-0.96,3.52,0
		c0.88,0.87,0.95,2.27,0.24,3.24c-0.5,1.35-1.01,2.69-1.61,4C166.49,96.66,165.86,101.36,162.43,100.15z"/>
	<path class="st5" d="M124.53,123.34c-3.45-0.57-4.24-4.52-2.86-7.3c1.02-2.44,3.24-4.26,5.57-5.39c0.1-0.66,0.24-1.32,0.44-1.97
		c-1.61-0.46-3.28-1.6-2.73-3.52c0.81-2.61,3.53-1.91,5.41-0.98c1.16-1.22,2.75-1.7,4.12-2.56c3.47-2.21,6.65-0.13,9.51,1.88
		c0.05-0.4,0.21-0.77,0.46-1.09c0.31-3.1-0.03-5.92,1.66-8.57c0.91-1.68,3.51-1.65,4.44,0c1.03,1.31,1.17,2.98,1.3,4.58
		c0.26-0.03,0.52-0.06,0.78-0.1c0.13-0.03,0.27-0.07,0.3-0.07c0.04-0.02,0.07-0.03,0.11-0.05c0.06-0.02,0.11-0.04,0.1-0.05
		c-0.03,0.01-0.06,0.03-0.09,0.04c-0.06,0.02-0.12,0.04-0.17,0.06c1.58-0.72,2.21-2.62,2.97-4.07c-1.15-0.91-1.35-2.51-1.16-3.88
		c0.08-4.5,3.19-7.69,7.58-5.13c0.84,0.4,1.56,1.17,2.51,1.29c1.39-0.03,2.61,1.04,2.6,2.46c-0.07,2.73-3.19,2.86-5.12,1.91
		c-1.14,5.37-3.75,12.86-10.31,12.88c-0.06,1.24-0.16,2.47-0.31,3.69c-0.14,1.16-1.07,2.06-2.17,2.28c-0.03,1.1,0.01,2.35-0.97,3.08
		c-0.57,2.79,0.33,8.39-3.86,8.19c-3.82-0.82-1.96-5.77-2.14-8.49c-1.3,1.66-1.87,3.8-3.7,5.01c-1.79,2.92-5.39,5.85-8.83,3.72
		C128.46,122.45,126.55,123.58,124.53,123.34z"/>
	<path class="st5" d="M117.51,116.67c-0.37-3.74,2.12-7.09,3.64-10.35c1.44-2.06,3.08-7.59,6.34-5.84c1.11,0.65,1.61,2.23,0.87,3.34
		c-2.26,3.66-4.42,7.46-5.85,11.52C123.78,118.85,118.13,120.34,117.51,116.67z"/>
	<path class="st5" d="M137.17,128.17c-3.29-0.95-2.72-5.12,0.51-5.62c0.32-0.5,0.62-1.01,0.9-1.53c0.01-0.02,0.02-0.03,0.03-0.05
		c-0.03-0.12-0.06-0.24-0.09-0.36c-1.75,1.16-4.41,2.18-5.73,0.04c-1.1,1.7-2.3,4.63-4.82,3.58c-1.13-0.48-1.86-1.84-1.47-3.04
		c1.12-3.72,2.44-7.5,2.32-11.31c-2.35,1.95-4.68,3.92-6.74,6.17c-0.5,1.88-3.1,3.72-4.88,2.29c-0.99-0.77-1.26-2.18-0.63-3.25
		c1.89-3.08,4.8-5.41,7.52-7.74c1.15-0.96,2.23-2,3.68-2.48c4.95-1.73,6.68,4.34,5.82,8.13c1.25,0.01,2.42,0.75,2.95,1.88
		c1.75-2.46,3.5-4.93,5.21-7.42c0.9-1.49,1.96-3.05,3.81-3.33c2.73-0.53,3.58,1.8,3.42,4.1c0.4-0.17,0.85-0.23,1.3-0.17
		c0.89,0.12,1.75,0.77,2.05,1.63c0.84-1.65,1.63-3.11,2.37-4.73c1.4-3.02,5.87-1.13,4.67,1.97c-1.23,2.86-2.56,5.67-4.01,8.42
		c-0.62,1.25-1.41,2.55-2.87,2.93c-3,4.14-7.17,7.83-12.2,9.16C139.36,128.1,138.26,128.43,137.17,128.17z"/>
	<path class="st5" d="M147.65,99.14c-0.78-2.21-2.37-4.3-2.32-6.7c0.11-1.17,0.85-2.16,1.88-2.7c2.22-1.33,4.82,1.38,3.39,3.52
		c0.74,2.23,3.43,5.68,0.32,7.21C149.67,100.99,148.19,100.39,147.65,99.14z"/>
	<path class="st5" d="M144.67,99.63c-1.4-13.55,8.77-10.82,5.39-5.54c-0.93,2.61,1.16,7.71-2.86,8.07
		C145.79,102.17,144.72,101.01,144.67,99.63z"/>
	<path class="st5" d="M137.78,106.46c-1.47-0.81-1.46-2.7-0.58-3.94c0.64-1.3,1.3-2.61,1.79-3.98c0.64-1.71,1.07-3.49,1.94-5.11
		c1-1.47,2.93-2.8,4.59-1.54c1.45,1.1,1.17,3.36-0.38,4.23c-1.12,3.24-2.22,6.49-3.99,9.45
		C140.49,106.75,138.91,107.12,137.78,106.46z"/>
	<path class="st5" d="M85.51,118.18c-1.42-0.95-1.19-2.76-0.8-4.17c-0.67-0.4-1.47-0.24-2.18-0.05c-2.52,1.09-5.17-0.07-5.62-2.89
		c-2.48-0.08-3.17-3.04-2.68-5.05c-0.08-0.01-0.16-0.01-0.24-0.02c-1.71,2.24-4.51,6.35-7.08,2.61c-1.21,1.9-2.39,4.06-4.49,5.07
		c-1.74,0.65-4.57-0.02-4.79-2.17c-0.08-0.93-0.18-1.88,0.11-2.78c-0.38-0.69-0.44-1.54-0.15-2.33c0.15-0.41,0.32-0.8,0.52-1.18
		c-5.09,3.16-9.18,3.32-12.28-2.4c-3.11,1.37-8-0.68-7.09-4.57c-0.78-1.12-0.99-2.62-0.8-3.95c-0.15-0.23-0.27-0.48-0.34-0.75
		c-3.34-0.28-6.42-3.63-5.23-7.04c-1.13-2.12-1.28-4.62-1.68-6.95c-0.19-1.34,0.79-2.61,2.12-2.79c3.25-0.3,2.86,3.73,3.64,5.86
		c0.8-0.25,1.7-0.38,2.54-0.29c2.16-1.37,4.56,0.43,6.05,2c5.7-2.43,10.46,1.71,11.4,7.32c1,0.63,1.92,1.39,2.84,2.13
		c0.59,0.47,1.2,0.93,1.81,1.38c5.15-1.41,9.97,2.02,15.02,2.6c7.25,0.58,12.59,2.76,9.32,11.03c1.67,0.39,3.25,1.4,4.05,2.94
		c0.87-0.25,1.82-0.21,2.7-0.12c0.9,0.1,1.76,0.44,2.62,0.7c1.88-2.43,3.47-5.17,5.21-7.65c0.94-1.83,3.73-2.73,5.11-0.94
		c0.71-1.06,1.6-1.91,2.51-2.79c2.05-1.92,4.62,0.26,4.69,2.63c1.97-0.48,4.74-0.39,4.82,2.23c0,1.38-1.11,2.38-2.44,2.44
		c-0.63,0.01-1.29,0.01-1.7,0.56c-1.93,2.39-2.78,5.47-4.77,7.8c-1.12,1.49-3.6,1.25-4.37-0.46c-0.89,0.55-1.96,0.62-2.86,0.06
		c-0.8,1.66-3.01,2.5-4.41,1.05c-1.56,0.66-3.18,0.05-4.68-0.48c-1.02-0.36-2.05,0.19-2.75,0.93
		C88.29,118.8,86.58,119.07,85.51,118.18z M52.09,102.28c0.1-0.01,0.21-0.03,0.31-0.05c0.22-0.05,0.44-0.12,0.65-0.2
		c-0.07,0.02-0.14,0.05-0.21,0.07c0,0-0.01,0-0.11,0.04c0.1-0.04,0.2-0.09,0.3-0.14c0.66-0.34,1.33-0.69,1.99-1.03
		c-1.17-0.83-1.9-2.05-2.41-3.4c-0.84,0.79-1.63,1.6-2.47,2.39c0.47,0.74,0.88,1.54,1.54,2.12c-0.09-0.06-0.19-0.12-0.28-0.19
		C51.63,102.04,51.84,102.2,52.09,102.28z M45.45,95.64c-0.09-0.14-0.18-0.3-0.24-0.46c-0.04-0.09-0.07-0.19-0.1-0.28
		c-0.23,0.15-0.48,0.28-0.76,0.37c-0.01,0-0.02,0.01-0.03,0.01C44.71,95.37,45.09,95.49,45.45,95.64z"/>
	<path class="st5" d="M27.66,62.32c-3.52-1.28-3.26-7.47,0.95-7.39c1.96-0.05,3.26,2.36,2.1,3.95
		C31.54,60.74,29.62,62.94,27.66,62.32z"/>
	<path class="st5" d="M24.01,63.09c0-1.38,1.15-2.53,2.53-2.53s2.53,1.15,2.53,2.53s-1.15,2.53-2.53,2.53S24.01,64.47,24.01,63.09z"
		/>
	<path class="st5" d="M27.11,79.7c-4.81-1.08-14.2-1.4-16.3-6.55c-0.3-1.1-0.01-2.16,0.48-3.14c1.34-2.45,5.29-0.83,4.51,1.85
		c3.71,1.85,7.96,2.11,11.98,2.89c1.35,0.21,2.32,1.45,2.14,2.82C29.75,78.9,28.44,79.9,27.11,79.7z"/>
	<path class="st5" d="M22.81,53c0-1.41,1.18-2.59,2.59-2.59s2.59,1.18,2.59,2.59s-1.18,2.59-2.59,2.59S22.81,54.41,22.81,53z"/>
	<path class="st5" d="M27.2,47.83c0-1.39,1.16-2.55,2.55-2.55s2.55,1.16,2.55,2.55s-1.16,2.55-2.55,2.55S27.2,49.22,27.2,47.83z"/>
	<path class="st5" d="M27.46,47.16c-0.63-1.55-1.29-3.07-2-4.58c-1.09-2.2-2.77-4.33-2.88-6.87c-0.14-2.46,2.73-5.27,4.92-3.18
		c0.93,0.93,0.92,2.37,0.13,3.35c1.53,3.09,3.32,6.04,4.4,9.35c0.48,1.26-0.04,2.71-1.32,3.25C29.5,48.99,27.97,48.41,27.46,47.16z"
		/>
	<path class="st5" d="M21.91,59.37c-1.87-1.41-4.21-2.88-4.65-5.36c-0.28-1.5,0.53-3.14,1.95-3.75c1.07-0.45,2.29-0.29,3.43-0.29
		c2.46-0.03,3.38,3.37,1.25,4.57c1.54,0.95,2.84,2.65,1.54,4.37C24.56,60.04,23.02,60.15,21.91,59.37z"/>
	<path class="st5" d="M84.89,122.41c-2.52-0.47-3.29-3.19-3.25-5.43c-0.07-1.78-0.05-3.65,0.86-5.23c1.22-2.12,3.99-2.17,6.06-1.94
		c1.06-1.71,3.9-2.8,5.41-1.12c0.88-1.02,1.68-2.18,2.8-2.94c1.43-0.91,3.52-0.45,4.27,1.11c0.68,1.63,0.48,3.49,1.38,5.08
		c1.58-1.34,3.24-4.22,5.58-2.47c1.1,0.85,1.31,2.48,0.46,3.59c-1.33,1.65-2.78,3.38-4.68,4.37c-1.56,0.67-3.55,0.29-4.79-0.87
		c-0.99-0.99-1.35-2.39-1.86-3.66C93.83,116.44,90.4,122.84,84.89,122.41z"/>
	<path class="st5" d="M98.1,110.31c-1.06-0.21-2-0.69-2.87-1.31c-0.58-0.42-1.02-0.99-1.33-1.62c-1.81,0.9-4.66,1.46-5.65-0.84
		c-0.77-1.49-1.34-3.11-1.07-4.82c-1.78-4.42-0.93-13.07,2.59-16.49c1.08-3.9,3.81-8.09,8.19-8.48c1.85-4.01,5.68-7.51,10.33-5.75
		c2.86-9.7,13.9-12.04,17.25-1.43c0.98-1.52,1.91-3.1,2.73-4.7c0.31-1.45,0.69-3.27,2.36-3.68c1.71-0.52,3.55,0.99,3.55,2.75
		c0.1,1.03-0.55,1.88-0.69,2.84c0.1-0.06,0.2-0.11,0.3-0.16c0.53-0.28,1.07-0.5,1.65-0.64c0.69-0.98,1.68-1.73,2.83-2.14
		c0.66-0.23,1.35-0.32,2.04-0.28c1.93-3.51,6.32-2.15,9.4-1.3c-3.03-3.55,0.78-7.83,4.73-5.51c2.12,1.21,2.94,3.65,3.29,5.9
		c0.38,0.97,0.44,2.08-0.2,2.97c0.42,1.01,0.13,2.15-0.61,2.93c-0.84,1.14-0.99,2.74-1.61,4.04c1.64,1.1,3.41,2.12,4.75,3.58
		c1.6,1.61,1.54,4.63-0.76,5.57c-1.62,3.42-5.48,5.44-7.83,8.19c-1.84,2.64-5.17,12.56-9.26,7.55c-0.37-0.03-0.73-0.1-1.08-0.21
		c-0.44,3.67-2.39,6.87-4.19,10.01c-2.14,2.92-5.35,2.66-6.64-0.79c-0.94,0.15-1.86,0.13-2.8-0.02c-1.42-0.21-2.75-0.87-3.83-1.81
		c-0.32,0.72-0.71,1.4-1.08,2.1c-0.81,1.54-3.15,1.76-4.27,0.48c-2.33-0.15-3.53-2.76-3.26-4.86c-0.54,0.07-1.09,0.05-1.61-0.14
		c-0.2,0.2-0.4,0.4-0.6,0.6c-0.74,0.72-1.52,1.43-2.35,2.06c-0.66,3.05-3.91,6.02-6.12,2.43
		C102.68,109.04,100.65,110.88,98.1,110.31z M128.82,101.28c0.02-0.08,0.04-0.16,0.06-0.24c0.15-0.45,0.29-0.9,0.44-1.35
		c-0.54,0.45-1.08,0.9-1.62,1.35c0.07,0.03,0.14,0.06,0.22,0.09c0.21,0.06,0.42,0.11,0.64,0.15c-0.11-0.02-0.23-0.05-0.34-0.07
		c0.17,0.03,0.35,0.06,0.53,0.07C128.76,101.28,128.79,101.28,128.82,101.28z M101.47,100.92c0.03-0.01,0.06-0.02,0.09-0.04
		c0.32-0.32,0.73-0.55,1.17-0.68c0.06-0.08,0.11-0.15,0.16-0.23c0.16-0.25,0.32-0.5,0.48-0.75
		C102.78,99.83,102.13,100.4,101.47,100.92z M124.28,93.79c0.01-0.01,0.02-0.03,0.03-0.04c0.38-0.54,0.8-1.07,1.22-1.58
		c-0.03-0.03-0.05-0.06,0.01-0.01c-0.55-0.63-1.31-1.03-2.06-1.37c0.44,0.94,0.69,1.94,0.79,2.98
		C124.26,93.78,124.27,93.79,124.28,93.79z M134.98,87.09c0.11,0.15,0.23,0.29,0.35,0.44c1.33-2.02,1.91-4.47,3.62-6.27
		c-0.5,0.01-1.01,0.01-1.51-0.01c-1.62,1.08-2.67,2.91-4.52,3.76c-0.11,0.35-0.21,0.71-0.31,1.07
		C133.5,85.98,134.45,86.4,134.98,87.09z M101.2,87.11c0.5-1.17,1.23-2.29,1.3-3.59c-0.22-0.31-0.52-0.56-0.83-0.77
		C101.38,84.18,101.18,85.64,101.2,87.11z M153.31,80.42c0.01,0.14,0.02,0.27,0.03,0.41c0.82-0.66,1.03-1.31,1.15-2.3
		c-0.32-0.25-0.65-0.5-0.99-0.74C153.54,78.67,153.44,79.55,153.31,80.42z M115.54,79.35c0.17,0.37,0.31,0.75,0.42,1.13
		c0.69-0.43,1.03-1.14,1.38-1.85c-1.42-2.77-2.42-8.91,1.22-10.36c-3.63-1.72-5.86,5.33-5.88,7.98
		C113.87,77.01,114.96,78.08,115.54,79.35z M106.58,80.05c0-0.01-0.01-0.03-0.01-0.04c-0.07-0.18-0.13-0.37-0.2-0.56
		c-0.07-0.01-0.13-0.02-0.2-0.02c-0.06,0-0.12,0-0.17-0.01C106.2,79.62,106.4,79.83,106.58,80.05z"/>
	<path class="st6" d="M57.03,80.2c0-1.38,1.15-2.53,2.53-2.53s2.53,1.15,2.53,2.53s-1.15,2.53-2.53,2.53S57.03,81.58,57.03,80.2z"/>
	<path class="st6" d="M55.1,88.56c-1.41-1.41-1.45-3.84,0-5.24c3.8-2.48,8.03-10.89,13.06-7.16c1.36,1.36,1.5,3.88,0,5.21
		C64.17,83.67,60.21,92.36,55.1,88.56z"/>
	<path class="st6" d="M66.34,94.46c-3.97-0.05-4.83-5.17-1.74-7.21c2.44-2.26,5.46-7.43,9.1-4.11c2.74,2.75-0.38,5.73-2.38,7.75
		C69.85,92.32,68.62,94.46,66.34,94.46z"/>
	<path class="st6" d="M65.46,96.26c-5.15-1.86-1.51-7.32,0.39-10.36c1.7-2.75,3.43-8.06,7.59-5.84c4.81,3.67-1.92,9.18-3.29,13.16
		C69.74,95.32,67.62,96.91,65.46,96.26z"/>
	<path class="st6" d="M60.54,93.14c-7.41-0.84-2.58-11.78,3.08-10.08c3.02-4.37,9.55,0.52,5.87,4.48
		C66.98,89.89,64.33,93.38,60.54,93.14z"/>
	<path class="st6" d="M64.22,96.21c-3.63-1.4-2.46-7.15,1.43-7.05c1.81-0.07,3.59-0.59,5.41-0.72c4.71-0.66,5.71,6.64,1,7.27
		C69.46,95.93,66.78,97.09,64.22,96.21z"/>
	<path class="st6" d="M70.23,97.3c0-2.08,1.74-3.82,3.82-3.82s3.82,1.74,3.82,3.82s-1.74,3.82-3.82,3.82S70.23,99.38,70.23,97.3z"/>
	<path class="st6" d="M82.97,106.66c-0.42-0.57-0.8-1.09-1-1.78c0,0,0-0.01,0-0.01c-2.54,1-5.02-0.83-5.43-3.38
		c-0.7-0.03-1.38-0.22-2.02-0.59c-0.5-0.29-0.93-0.67-1.3-1.1c-2.51,3.72-8.61,0.72-6.81-3.52c2.38-3.68,5.35-13.05,11.02-9.89
		c1.26,0.97,1.78,2.82,1.18,4.28c0.18,0.49,0.3,1.03,0.38,1.56c0.98-0.19,1.99-0.13,2.91,0.41c1.13,0.66,1.76,1.68,2.09,2.83
		c3.08-0.54,5.45,2.33,5.39,5.25C95.47,104.36,86.72,111.84,82.97,106.66z"/>
	<path class="st6" d="M81.45,98.83c-0.92-2.5,1.01-4.72,1.95-6.91c-1.02-0.56-1.78-1.66-1.93-2.8c-0.16-1.17,0.27-2.32,1.07-3.12
		c-0.57-3.99,5.35-6.01,7.25-2.39c0.06,0.01,0.12,0.01,0.18,0.02c0.35,0.05,0.69,0.13,1.01,0.25c4.57-4.78,10.88,4.65,4.24,6.5
		c-1.2,1.53-2.43,3.27-4.3,3.99C93.04,99.2,83.41,104.94,81.45,98.83z"/>
	<path class="st6" d="M100.89,85.59c-10.84-3.91-2.54-15.03,2.17-7.31C108.53,80.12,106.49,88.04,100.89,85.59z"/>
	<path class="st6" d="M117.82,77.77c-3.6-2.56-13.23-8.97-4.93-12.04c3.87,0.12,6.19,4.41,9.45,6.19
		C126.15,74.81,121.59,80.71,117.82,77.77z"/>
	<path class="st6" d="M101.53,83.4c-13.14-14.56,2.91-20.03,2.35-10.28c0,0,0.01,0,0.01,0c0.8,2.11,2.13,3.97,3.48,5.76
		C110.32,82.65,104.45,87.21,101.53,83.4z"/>
	<path class="st6" d="M82.61,103.55c-1.97-0.27-3.48-2.18-3.17-4.18c1.69-4.45-0.98-14.95,5.7-15.01c1.99,0.27,3.39,2.15,3.14,4.13
		C86.75,92.97,89.3,103.53,82.61,103.55z"/>
	<path class="st6" d="M54.48,100.59c-0.36-3.68,4-11.02,7.2-12.73c3.05-0.97,5.97,2.75,4.2,5.46c-1.19,1.83-2.28,3.7-3.32,5.61
		C63.74,103.92,55.15,105.95,54.48,100.59z"/>
	<path class="st6" d="M47.63,96.11c-5.76-3.82,0.57-11.74,1.12-16.92c-1.02,0.06-1.97,0.58-2.84,1.07c4.6,8.21-10.27,19.4-12.76,7.5
		c-4.55,1.56-9.19-4.15-5.99-8.13c-1.53-4.03,4.27-6.96,6.71-3.42c0.73-0.35,1.5-0.62,2.3-0.75c1.2-0.2,2.44-0.21,3.64,0.04
		c5.15-5.31,17.05-5.36,16.47,4.15c3.25-0.8,8.85-3.34,10.31,1.21c1.09,4.6-4.22,4.81-7.34,5.61
		C54.74,88.57,53.69,97.83,47.63,96.11z"/>
	<path class="st6" d="M24.88,83.71c-2.67-2.57-4.48-5.86-7.18-8.4c-2.27-2.07-5.81-3.14-5.49-6.67c0.36-3.67,5.78-4.65,7.3-1.3
		c3.43,2.07,15.02,12.43,10.7,16.37C28.75,85.17,26.34,85.16,24.88,83.71z"/>
	<path class="st6" d="M26.1,67.26c-3.86-0.47-12.04-0.68-9.41-6.64c2.22-3.75,7.07-0.93,10.43-0.82
		C31.96,60.46,30.91,67.93,26.1,67.26z"/>
	<path class="st6" d="M13.51,88.01c-4.24,0.1-5.13-6.33-1-7.38c1.81-0.4,3.62-0.83,5.42-1.31c4.3-1.29,6.62,5.37,2.43,6.99
		C18.16,87.07,15.85,87.91,13.51,88.01z"/>
	<path class="st6" d="M16.04,87.06c-3.62-0.14-7.3,0.28-10.89-0.28c-3.35-0.86-3.55-5.61-0.52-7.04c3.59-0.97,7.59,0.35,11.4,0
		C20.77,79.73,20.78,87.08,16.04,87.06z"/>
	<path class="st6" d="M18.46,69.61c-8.98,1.56-9.49-9.76-1.14-7.45c3.14,0.11,8.26-0.75,8.39,3.75
		C25.66,69.84,21.36,69.81,18.46,69.61z"/>
	<path class="st6" d="M20.22,60.58c-6.62-2.9-1.49-11.01,3.19-6.71C28.15,55.91,24.71,63.18,20.22,60.58z"/>
	<path class="st6" d="M21.43,57.56c-0.83-1.08-1.65-2.18-2.67-3.09c-4.58,0.98-6.26-6.05-1.73-7.27c4.89-1.92,14.27,6.63,9.56,11.02
		C25.03,59.44,22.64,59.17,21.43,57.56z"/>
	<path class="st6" d="M25.19,50.85c-2.37-3.18-7.49-4.7-8.1-8.87c0-2.02,1.69-3.71,3.71-3.71c3.9,0.91,6.56,4.88,9.59,7.38
		C33.77,48.99,28.54,54.23,25.19,50.85z"/>
	<path class="st6" d="M82.01,98.98c-3.68-1.18-5.33-5.58-8.39-7.81c-1.63-1.2-4.05-1.7-3.94-4.31c1.19-7.21,9.25-1.99,11.78,1.59
		c1.39,1.46,2.72,2.97,4.04,4.49C87.65,95.43,85.19,99.55,82.01,98.98z"/>
	<path class="st6" d="M116.01,66.06c-1.51-5.64,5.85-8.78,7.42-2.77C125.35,69.5,117.24,72.95,116.01,66.06z"/>
	<path class="st6" d="M9.32,83.22c-6.58-0.69-3.91-11.18,2.07-7.54C21.69,71.67,21.46,84.2,9.32,83.22z"/>
	<path class="st6" d="M8.3,68.79c-2.58-5.35,5.16-8.21,8.63-10.62c4.12-2.44,7.89,4,3.73,6.39c-1.78,1.06-3.6,2.09-5.21,3.39
		C14.61,70.99,9.8,71.63,8.3,68.79z"/>
	<path class="st6" d="M19.1,53.46c0-1.99,1.66-3.66,3.66-3.66s3.66,1.66,3.66,3.66s-1.66,3.66-3.66,3.66S19.1,55.46,19.1,53.46z"/>
	<path class="st6" d="M118.14,80.94c-1.53-1.55-2.34-3.67-2.21-5.85c0.06-0.97,0.31-1.92,0.74-2.78c-5.98-4.2,1.36-9.13,6.25-6.82
		c0.91-5.87,9.65-5.05,7.81,1.11C128.23,71.97,127.17,87.09,118.14,80.94z"/>
	<path class="st6" d="M22.41,96.12c-3.82-0.6-11.87,0.29-10.83-5.66c1.81-5.05,7.98-1.28,11.82-1.61
		C28.12,89.43,27.1,96.78,22.41,96.12z"/>
	<path class="st7" d="M39.21,75.81c-3.24-1.23-9.55-2.22-7.82-7.04c2.14-4.49,6.96-0.83,10.23,0.09
		C45.81,70.45,43.46,77.15,39.21,75.81z"/>
	<path class="st7" d="M30.77,74.09c-2.88-0.61-6.74-2.53-5.82-6.07c1.48-4.28,4.95-2.39,7.79-1.05
		C37.36,68.22,35.34,75.42,30.77,74.09z"/>
	<path class="st7" d="M29.49,77.65c-5.07-2.17-2.22-6.88,1.9-8.02c4.08-2.4,7.81,3.97,3.7,6.32C33.35,76.81,31.52,78.21,29.49,77.65
		z"/>
	<path class="st7" d="M34.13,67.35c-5.92,0.22-6.01-8.43,0.03-7.43c-0.1-0.02-0.2-0.04-0.31-0.06
		C39.43,59.59,39.81,67.74,34.13,67.35z"/>
	<path class="st7" d="M76.49,88.08c-2.04-0.56-3.09-2.63-2.63-4.62c0.04-0.16,0.07-0.31,0.11-0.47c-2.43,0.5-5.1-1.33-5.25-3.87
		c-0.61,0.07-1.24-0.01-1.85-0.27c-0.45-0.19-0.84-0.46-1.17-0.78c-3.1,2.57-7.53-0.88-6.05-4.55c-1.48,2.22-4.76,3.78-7,1.71
		c-0.76,2.13-1.13,3.63-2.22,5.49c-1.82,3.27-6.83,1.86-7.21-1.7c0.27-4.93,4.15-8.97,4.65-13.98c-0.3-4.29,5.9-5.89,7.37-1.77
		c0.23,0.06,0.45,0.13,0.67,0.22c0.64,0.27,1.22,0.73,1.7,1.28c4.5-5.86,12.16-3.48,10.78,4.2c0.23,0.07,0.45,0.17,0.67,0.3
		c0.08,0.05,0.15,0.09,0.22,0.14c2.61-1.07,5.45,0.89,6.07,3.5C84.01,68.58,84.24,89.94,76.49,88.08z"/>
	<path class="st7" d="M85.07,81.58c-4.11-1.87-1.31-6.22-0.29-9.2c1.25-3.12,1.29-8.54,5.61-8.81c3.11-0.02,4.64,3.64,2.92,6.06
		C91.7,73.66,91.29,83.24,85.07,81.58z"/>
	<path class="st7" d="M32.21,66.54c-3.34-1.83-8.95-1.29-10.49-5.31c-0.55-1.66,0.46-3.83,2.14-4.41c3.77-0.84,7.58,1.99,11.22,2.93
		C39.51,61.56,36.57,68.4,32.21,66.54z"/>
	<path class="st7" d="M26.05,46.45c0-2.14,1.79-3.94,3.94-3.94s3.94,1.79,3.94,3.94s-1.79,3.94-3.94,3.94S26.05,48.59,26.05,46.45z"
		/>
	<path class="st7" d="M15.19,65.5c-2.63-3.42,2.19-8.2,5.51-5.37c3.71-0.93,7.2,3.16,4.28,6.23C22.41,68.26,17.25,68.07,15.19,65.5z
		"/>
	<path class="st7" d="M30.4,56.77c-1.42-2.34-4.76-3.45-4.89-6.42c0-2.01,1.68-3.68,3.68-3.68c3.17,0.28,5.06,3.45,7.03,5.61
		C39.15,56.02,33.33,60.55,30.4,56.77z"/>
	<path class="st7" d="M31.9,55.7c-0.08-1.23,0.19-2.43-0.38-3.59c-6.79-1.25-2.72-9.94,3.06-6.83c0.66-3.95,3.44-10.13,8.19-6.58
		c0.97-2.33,0.65-5.56,2.75-7.21c0.03-3.08,3.16-5.62,6.14-4.38c4.28,2.58,4.22,8.7,5.98,12.96c1.38,4.95-6.51,6.63-7.37,1.57
		c-0.2,0.15-0.42,0.28-0.65,0.38c-0.83,2.75-1.92,7.06-5.5,6.9c-0.81,0.94-2.06,1.45-3.32,1.31c-1.46,3-0.77,8.54-5.21,8.67
		C33.82,58.91,32.07,57.52,31.9,55.7z"/>
	<path class="st7" d="M39.88,44.84c-2.57-4.72-10.52-9.58-11.12-14.23c0.21-3.21,4.73-4.49,6.56-1.83c0-0.01-0.01-0.02-0.01-0.03
		c-0.09-0.11-0.19-0.22-0.28-0.32c3.07,3.69,15.2,12.22,10.06,17.09C43.49,46.74,41.13,46.44,39.88,44.84z"/>
	<path class="st7" d="M59.33,32.3c-0.33-3.72-5.43-7.32-1.55-10.6c5.41-3.43,7.79,4.68,8.64,8.64
		C67.67,34.92,60.59,36.91,59.33,32.3z"/>
	<path class="st7" d="M56.36,51.16c-1.92-0.49-3.07-2.59-2.55-4.49c1.89-4.67,2.18-22.41,9.52-19.86c5.09,2.86-0.3,9.23-0.5,13.5
		C61.31,43.99,62.23,52.17,56.36,51.16z"/>
	<path class="st7" d="M49.75,53.3c-20.41-1.52-12.55-16.15-6.31-9.22c3.11,1.6,7.23,0.83,9.75,3.29
		C55.24,49.85,52.9,53.83,49.75,53.3z"/>
	<path class="st7" d="M41.5,64.79c-6.23-1.57-1.5-8.14,1.26-10.88c-1.46-3.37,2.09-5.86,5.2-5.11c2.66-1.99,6.62-6.36,9.68-2.74
		c1.17,1.51,0.97,3.96-0.66,5.1C50.15,54.35,47.12,65.43,41.5,64.79z"/>
	<path class="st7" d="M55.19,62.44c-0.56-3.48-4.94-6.01-0.64-9.26c4.95-3.19,7.63,4.45,8.07,8.24
		C63.29,66.22,55.88,67.28,55.19,62.44z"/>
	<path class="st7" d="M60.1,68.81c-2.68-1.79-3.68-6.71-2.1-9.46c1.95-2.7,6.53-1.28,6.63,2.03C72.03,63.34,65.38,72.07,60.1,68.81z
		"/>
	<path class="st7" d="M71.21,69.02c-5.99-2.33,0.37-12.13,0.6-16.77c0.5-1.91,2.59-3.05,4.47-2.54c5.97,2.31-0.41,12.1-0.58,16.75
		C75.23,68.4,73.08,69.54,71.21,69.02z"/>
	<path class="st7" d="M78.45,84.09c-3.37-1.77-1.67-5.88-2.52-8.78c-2.92-4.6,4.71-8.21,6.71-3.19c3.01-2.48,7.4,1.32,5.4,4.69
		C86.1,80.23,83.39,86.8,78.45,84.09z"/>
	<path class="st7" d="M84.95,84.58c-2.76-0.74-3.15-3.73-2.31-6.08c1.09-3.31-0.41-9.52,4.52-9.76c6.31,0.76,2.72,9.11,2.43,13.21
		C89.17,83.95,86.85,85.09,84.95,84.58z"/>
	<path class="st7" d="M82.46,76.42c0-2.06,1.72-3.78,3.78-3.78s3.78,1.72,3.78,3.78s-1.72,3.78-3.78,3.78S82.46,78.48,82.46,76.42z"
		/>
	<path class="st7" d="M88.09,78.58c-5.1-1.37-4.87-8.08-5.23-12.35c-0.05-1.79,1.41-3.38,3.15-3.61c3.64-0.47,4.36,3.28,4.44,6.09
		c2.4-2.15,2.73-7.2,6.76-6.72c1.99,0.23,3.4,2.18,3.15,4.14C98.73,70.89,93.92,79.3,88.09,78.58z"/>
	<path class="st7" d="M69.46,67.32c-6.59-2.84,4.3-18.62,8.86-11.51c1.55,2.54-0.55,4.47-2.26,6.09
		C74.61,64.46,73.26,68.9,69.46,67.32z"/>
	<path class="st7" d="M36.94,78.27c-3.94-1.79-2.17-6.83,0.33-9.12c-7.81-3.2-2.13-16.58,5.41-15.41c4.03-4.87,12.51-2.17,10.2,4.6
		c2.42,0.07,4.81,0.72,7.25,0.43c3.15-0.16,4.88,4.12,2.58,6.23c-3.41,2.81-8.24-0.36-12,1.22C44.71,68.28,44.12,79.72,36.94,78.27z
		"/>
	<path class="st7" d="M34.42,81.49c1.12-4.07,4.95-7.14,7.09-10.84c2.84-3.8,8.76,0.75,5.81,4.48c-2.94,3.2-4.4,9.29-9.09,10.1
		C36.27,85.24,34.42,83.63,34.42,81.49z"/>
	<path class="st7" d="M5.87,64.88c-6.5-6.56,9.28-10.2,9.67-3.02C15.44,66.39,8.81,66.3,5.87,64.88z"/>
	<path class="st7" d="M31.18,40.5c-6.88-0.94-6.83-9.27,0.03-7.93C37.6,33.62,38.17,41.74,31.18,40.5z"/>
	<path class="st7" d="M67.93,38.21c-5.43-3.39,1.21-10.46,2.09-14.97c0.75-1.83,2.95-2.7,4.76-1.93c5.42,3.39-1.34,10.38-2.04,14.96
		C72.02,38.13,69.71,38.97,67.93,38.21z"/>
	<path class="st7" d="M65.2,37.77c-0.64-4.01-2.6-8.04-2.16-12.12c1.25-5.88,11.19-2.96,7.63,2.54c0.65,2.68,1.24,5.38,1.8,8.08
		C73.24,40.71,66.25,42.15,65.2,37.77z"/>
	<path class="st7" d="M88.68,76.24c-0.87-0.51-1.51-1.36-1.78-2.32c-0.12,0.07-0.25,0.14-0.38,0.2c-1.04,0.55-2.22,0.69-3.3,0.3
		c-1.31,0.34-2.82-0.03-3.77-1.02c-0.37-0.39-0.68-0.81-0.9-1.27c-1.01,0.54-2.19,0.66-3.33,0.17c-0.76-0.32-1.35-0.84-1.75-1.48
		c-4.29,0.62-5.52-4.64-4.73-7.93c-2.92,10.79-11.91,8-9.42,1.2c-2.63,1.88-6.12-0.34-6.22-3.4c0.1-4.31,4.01-7.55,5.61-11.43
		c0.18-4.26,3.46-9.83,6.38-12.88c6.36-3.27,7.18,4.33,4.59,8.53c0.68,1.48,0.27,3.27-0.98,4.36c0.05,0.03,0.1,0.05,0.15,0.08
		c0.34,0.2,0.66,0.46,0.93,0.76c3.72-0.87,6.49,2.66,6.73,6.07c1.98-4.02,9.14-4.29,8.66,1.18c0.72,0.89,1.14,1.98,1.48,3.09
		c0.11,0.35,0.19,0.72,0.26,1.09c0.25,0.15,0.48,0.33,0.7,0.53c0.07,0.06,0.13,0.13,0.19,0.19c3.85-3.69,9.03-0.45,8.28,4.62
		C95.67,70.92,94.42,78.91,88.68,76.24z"/>
	<path class="st1" d="M108.54,71.14c-3.4-0.42-3.34-4.01-3.18-6.65c-2.47,2.53-7.01,0.21-6.45-3.27c0.79-3.71,3.37-8.57,7.63-8.75
		C113.2,51.85,116.29,72.09,108.54,71.14z"/>
	<path class="st1" d="M114.7,66.29c-0.82-0.23-1.44-0.66-2.01-1.21c-0.71-0.3-1.4-0.63-2.09-0.94c-1.62,3.14-6.64,2.38-7.06-1.18
		c-0.11-4.56,5.57-7.68,9.59-5.8c0.23-0.22,0.48-0.42,0.74-0.59c-0.02-0.2-0.06-0.41-0.06-0.41c-5.73-10.16,8.82-12.22,7.42,2.8
		C123.43,63.08,118.66,67.03,114.7,66.29z"/>
	<path class="st1" d="M89.17,64.94c-3.05-0.72-3.68-5.26-0.88-6.74c2.66-1.17,4.74-4.2,7.81-4.06c3.11,0.31,4.32,4.72,1.74,6.54
		C95.13,62.21,92.55,65.53,89.17,64.94z"/>
	<path class="st1" d="M86.25,58.16c0-2,1.67-3.67,3.67-3.67s3.67,1.67,3.67,3.67s-1.67,3.67-3.67,3.67S86.25,60.16,86.25,58.16z"/>
	<path class="st1" d="M84.29,44.63c0-2,1.68-3.68,3.68-3.68s3.68,1.68,3.68,3.68s-1.68,3.68-3.68,3.68
		C85.96,48.31,84.29,46.63,84.29,44.63z"/>
	<path class="st1" d="M83.82,31.35c-3.64-3.66,3.03-11.26,6.93-7.4C94.26,27.54,87.73,35.27,83.82,31.35z"/>
	<path class="st1" d="M94.87,34.81c-3.86-1.69-2.08-6.26-0.29-8.89c2.48-4.8,4.54-9.78,6.29-14.89c1.16-2.99,5.75-3,6.91,0
		c0.82,1.97-0.41,3.79-0.89,5.65c2.08,0.99,2.62,3.69,1.28,5.5C104.61,25.66,100.55,36.44,94.87,34.81z"/>
	<path class="st1" d="M136.49,71.75c-0.52-1.35-1.02-2.7-1.55-4.05c-12.46,7.77-10.76-22.87,1.64-13.71
		c2.21-0.19,4.43-0.42,6.61-0.83c0.3-0.07,0.59-0.14,0.88-0.21c-0.12-0.24-0.21-0.5-0.29-0.77c-1.14-0.7-1.94-1.83-2.25-3.13
		c-0.66,0.16-1.36,0.16-2.02-0.03c-0.53-0.14-0.99-0.39-1.39-0.71c-3.34,4.47-10.07-0.43-6.56-4.86c-0.27-0.9-0.23-1.88,0.19-2.72
		c-0.49-0.02-0.98-0.13-1.43-0.33c-2.26,5.39-10,5.17-8.67-1.41c-0.3,0.01-0.62-0.01-0.93-0.05c-1.5-0.22-2.73-1.33-3.2-2.69
		c-0.54-0.2-1.03-0.51-1.45-0.9c-1.12,0.5-2.48,0.44-3.55-0.19c-0.49-0.29-0.92-0.7-1.25-1.19c-2.4,4.33-9.17,3.69-8.19-1.92
		c0.59-1.92,1.89-3.79,2.64-5.49c-4.47-2.08-1.25-7.07,0.38-10.07c1.4-1.91,0.88-4.99,3.43-5.95c4.72-1.75,6.47,4.17,4.15,7.46
		c0.1,0.08,0.19,0.17,0.28,0.26c0.62,0.62,1.03,1.38,1.23,2.2c2.71-1.56,5.69,1.01,5.99,3.77c0.6,0.24,1.14,0.62,1.55,1.11
		c0.42-5.18,6.43-7.32,9.99-3.48c4.46,1.94,8.58,5.12,6.04,10.48c1.17,0.78,2.02,1.93,2.31,3.32c0.1,0.04,0.2,0.08,0.3,0.13
		c1.56-0.49,3.19-0.02,4.3,1.3c0.18,0.21,0.34,0.43,0.48,0.66c5.41-0.72,6.38,5.64,3.77,9.2c0.53,0.67,0.89,1.37,1.18,2.14
		c10.03,5.85-3.92,12.76-10.3,12.44c1.16,2.48,2.23,5.01,3.03,7.63C145.24,73.72,138.22,76.17,136.49,71.75z"/>
	<path class="st1" d="M150.73,59.05c-1.16-3.51-6.57-4.29-5.57-8.43c0.54-1.95,2.69-3.26,4.67-2.65c3.52,1.01,5.71,4.24,7.41,7.28
		C159.67,59.45,153.24,63.26,150.73,59.05z"/>
	<path class="st1" d="M155.33,59.33c-0.46-4.17-2.66-12.82,3.39-13.5c6.19,0.53,2.71,8.02,3.97,11.99
		C163.44,62.31,156.4,63.76,155.33,59.33z"/>
	<path class="st1" d="M164.71,68.3c-3.61-0.45-3.31-4.26-3.25-7c-0.14-3.52-1.62-9.64,3.57-9.88c4.25,0.06,3.94,4.73,4.02,7.82
		C169.45,62.68,169.69,68.77,164.71,68.3z"/>
	<path class="st1" d="M144.66,60.02c-0.43-3.1-1.47-8.02,2.84-8.65c4.47-0.54,4.49,4.47,4.7,7.62
		C152.86,63.86,145.33,64.92,144.66,60.02z"/>
	<path class="st1" d="M141.14,58.83c-0.63-0.17-1.16-0.52-1.66-0.92c-0.48,0-0.97,0.01-1.45,0.04c-0.18,0.02-0.36,0.03-0.54,0.05
		c-5.6,3.84-12.42-4.42-4.65-6.95c-2.51-6.32,3.9-7.68,8.17-4.16c0.99,0.14,1.99,0.07,2.98-0.01c4.07-0.6,5.99,5.19,2.37,7.11
		C147.23,56.92,144.04,59.94,141.14,58.83z"/>
	<path class="st1" d="M137.52,40.85c-2.47-4.43-13.38-17.4-2.3-17.68c1.83,0.51,2.92,2.27,2.74,4.09c1.78,3.4,4.04,6.52,5.94,9.86
		C146.34,41.22,139.95,45,137.52,40.85z"/>
	<path class="st1" d="M133.45,52.94c-18.34-11.79-3.16-19.39-1.18-10.96c1.96,1.97,4.09,3.55,6.05,5.43
		C141.58,50.47,136.89,55.8,133.45,52.94z"/>
	<path class="st1" d="M119.59,55.74c-2.2-3.93-6.73-3.81-10.53-4.9c-3.58-1.24-3.74-6.7,0.07-7.7c6.15,0.46,13.17,2.79,16.49,8.53
		C127.98,55.4,122.2,59.32,119.59,55.74z"/>
	<path class="st1" d="M118.27,65.42c-7.38-3.35,1.07-11.23-0.92-16.74c-0.11,0.12-0.21,0.24-0.32,0.36
		c-0.16,0.17-0.33,0.32-0.51,0.46c-0.46,3.91-5.4,6.29-7.76,2.47c-1.6-4.36,3.78-13.12,6.42-16.79c2.93-3.67,8.69,0.36,7.04,4.47
		c0.63,0.45,1.22,0.96,1.81,1.45c7.94-4.49,9.25,8.98,9.1,14.2c-0.51,4.48-7.27,4.24-7.85-0.1
		C124.77,59.1,123.98,67.23,118.27,65.42z"/>
	<path class="st8" d="M97.99,57.04c-2.65-4.23-15.25-8.62-7.73-13.94c4.42-1.65,10.48,6.57,13.49,9.49
		C106.65,56.3,100.91,60.76,97.99,57.04z"/>
	<path class="st8" d="M107.3,42.02c-13.04-7.16-2.29-15.43,1.21-8.71c1.27,1,2.49,2.05,3.7,3.13
		C115.5,39.55,110.82,44.84,107.3,42.02z"/>
	<path class="st8" d="M106.29,30.37c0-2.12,1.77-3.88,3.88-3.88s3.88,1.77,3.88,3.88s-1.77,3.88-3.88,3.88
		S106.29,32.49,106.29,30.37z"/>
	<path class="st8" d="M104.55,40.63c-10.89-2.4-5.62-13.85,0.46-7.87C111.23,33.67,111.18,42.21,104.55,40.63z"/>
	<path class="st8" d="M96.28,49.54c-4.17-2.04-5.76-7.06-3-10.93c2.48-4.34,9.06-0.13,6.3,3.99
		C104.29,44.88,100.95,52.11,96.28,49.54z"/>
	<path class="st8" d="M83,52.58c-1.89-0.52-3.2-2.63-2.59-4.56c1.37-3.29,2.69-9.84,7.55-8.07c3.3,1.39,2.4,5.11,0.77,7.47
		C87.65,49.93,86.47,53.56,83,52.58z"/>
	<path class="st8" d="M69.66,49.2c0.1-0.92,0.24-1.82,0.56-2.68c-2.15-1.65-1.52-4.62-2.51-6.89c-0.86-4.42-5.37-9.7-2.52-13.95
		c-2.2-8.26,6.85-13.16,10.96-4.91c0.27-0.18,0.55-0.33,0.84-0.45c-0.74-1.76-1.78-3.38-2.56-5.12c-1.85-5.87,6.16-7.36,8.01-1.97
		c0.66-0.21,1.37-0.25,2.05-0.14c1.2-2.02,4.32-2.3,5.94-0.66c3.49,0.36,3.61,4.31,2.99,7c5.4-4.13,9.32,1.35,6.68,6.61
		c0.28,0.21,0.5,0.46,0.7,0.74c3.2-7.59,11.46-8.48,10.35,1.08c5.31,1,4.44,9.75-1.25,8.37c-1.46,1.08-1.93,2.88-3.18,4.1
		c-2.08,2.15-6.03,0.88-6.36-2.09c-1.04,0.14-2.12-0.04-3.05-0.58c-0.58-0.34-1.05-0.82-1.4-1.39c-3.44,4.17-10.36,11.03-15.42,5.36
		c-0.01,0.13-0.03,0.26-0.06,0.39c-0.07,0.36-0.17,0.71-0.3,1.06C87.97,48.14,69.69,59.34,69.66,49.2z M74.37,35.85
		c0.13,0.37,0.26,0.74,0.39,1.11c0.28-0.09,0.56-0.17,0.84-0.24c0.57-0.14,1.19-0.15,1.78-0.02c-0.37-2.31,0.85-4.46,0.65-6.8
		c-1.59,1.23-4.19,1.36-5.67-0.05c-0.01,0.02-0.02,0.04-0.04,0.06C72.96,31.91,73.67,33.88,74.37,35.85z"/>
	<path class="st8" d="M100.52,19.09c-4.15-5.44,6.88-11.76,9.75-6.11c0.95,2.2-0.5,4.71-2.8,5.21
		C106.68,21.36,102.16,21.94,100.52,19.09z"/>
	<path class="st8" d="M114.32,32.04c0.04-0.2,0.08-0.4,0.11-0.61c0.11-1.85,1.6-3.39,3.43-3.57c2.25-2.35,4.88-7.21,8.61-4.48
		c4.15,3.68-1.75,7.62-3.92,10.58C120.16,37.34,113.84,37.06,114.32,32.04z"/>
	<path class="st8" d="M111,49.94c-4.03-2.73-7.43-14.19-0.48-15c4.65,0.08,3.44,5.12,4.29,8.16C119.13,46.26,115.91,53,111,49.94z"
		/>
	<path class="st8" d="M104.54,50.17c-1.44-4.29-6.16-13.76,1.02-14.92c5.18,0.17,3.77,8.78,5.97,12.49
		C112.86,52.03,106.19,54.36,104.54,50.17z"/>
	<path class="st8" d="M100.35,48.29c0-2.04,1.7-3.73,3.73-3.73s3.73,1.7,3.73,3.73s-1.7,3.73-3.73,3.73S100.35,50.32,100.35,48.29z"
		/>
	<path class="st8" d="M101.62,57.84c-5.81-2.17-7.94-9.89-2.68-13.87c3.9-2.94,8.21,2.92,4.54,5.97c1.77,1.53,4.33,3.1,3.05,5.9
		C105.76,57.67,103.44,58.72,101.62,57.84z"/>
	<path class="st8" d="M94.75,53.93c0-2.07,1.73-3.8,3.8-3.8s3.8,1.73,3.8,3.8s-1.73,3.8-3.8,3.8S94.75,56,94.75,53.93z"/>
	<path class="st8" d="M81.64,62.99c-4.38,0.13-8.48-5.25-3.5-7.89c1.26-0.52,2.66-0.36,3.82,0.35c1.6-0.04,3.19-0.72,4.72-1.2
		c4.43-1.86,7.32,4.98,2.89,6.84C87.03,62.05,84.39,63.05,81.64,62.99z"/>
	<path class="st8" d="M92.51,55.98c-17.8-7.44,4.58-20.69,1.76-7.45C99.97,50.19,98.47,58.41,92.51,55.98z"/>
	<path class="st8" d="M108.3,67.26c0.49-3.89-2.01-11.43,3.71-11.98c1.97,0,3.73,1.68,3.68,3.68c-0.07,2.77-0.14,5.53-0.08,8.3
		C115.67,71.99,108.27,72,108.3,67.26z"/>
	<path class="st8" d="M104.53,66.33c-4.5-1.98-7.63-9.4-2.51-12.36c3.02-1.39,6.36,1.98,4.99,4.98
		C112.03,61.48,110.17,68.61,104.53,66.33z"/>
	<path class="st8" d="M98.22,61.42c-3.08-3.2-2.83-13.96,3.4-12.82c3.57,0.97,2.46,4.64,2.31,7.34
		C105.41,59.65,101.96,64.08,98.22,61.42z"/>
	<path class="st8" d="M91.79,61.6c0-2.05,1.71-3.77,3.77-3.77s3.77,1.71,3.77,3.77s-1.71,3.77-3.77,3.77S91.79,63.66,91.79,61.6z"/>
	<path class="st9" d="M83.18,44.53c-3.15-1.71-7.75-7.97-3.43-10.73c3.91-2.15,5.91,2.63,7.62,5.28
		C89.11,41.8,86.24,45.49,83.18,44.53z"/>
	<path class="st9" d="M94.26,51.93c-5.4-1.14-2.09-7.51-2.33-11.23c0.24-3.73-1.03-10.65,4.61-10.3c5.37,1.14,2.46,7.9,2.81,11.75
		C98.75,45.65,99.44,52.32,94.26,51.93z"/>
	<path class="st9" d="M103.71,48.97c-4.18-1.89-1.3-6.42-0.66-9.59c-0.16-2.15,1.66-4.05,3.79-4.04c4.4,0.13,4.15,5.19,2.96,8.23
		C109.26,46.59,107.41,50.47,103.71,48.97z"/>
	<path class="st9" d="M98.41,56.28c-2.32-1.09-5.39-2.72-5.39-5.69c0-2.08,1.73-3.81,3.81-3.81c2.17-0.07,3.14,2.01,4.94,2.77
		C105.78,51.78,102.55,58.18,98.41,56.28z"/>
	<path class="st9" d="M72.42,56.29c0.33-3.6-1.1-8.04,1.18-11.11c4.2-3.44,7.7,1.28,6.41,5.5c-0.44,3.28,0.87,9.06-3.93,9.26
		C74.06,59.95,72.44,58.29,72.42,56.29z"/>
	<path class="st9" d="M73.16,68.41c-2.27-3.11-6.43-9.84-0.41-11.27c2.48-0.41,3.9,1.73,4.54,3.8c0.81,1.92,2.79,3.47,2.5,5.71
		C79.47,69.79,74.97,71.04,73.16,68.41z"/>
	<path class="st9" d="M80.1,71.36c0-2.1,1.75-3.85,3.85-3.85s3.85,1.75,3.85,3.85s-1.75,3.85-3.85,3.85S80.1,73.46,80.1,71.36z"/>
	<path class="st9" d="M89.64,64.24c-2.12-1.63-4.62-4.3-2.54-6.97c2.42-3.05,5.88-0.54,7.9,1.61
		C98.52,62.29,93.07,67.76,89.64,64.24z"/>
	<path class="st9" d="M84.81,80.54c-1.22-4.82-4.47-8.72-6.18-13.25c-0.3-2.07,1.23-4.05,3.29-4.34c5.51-0.17,7.85,10.98,9.76,15.2
		C93.02,82.36,86.38,84.68,84.81,80.54z"/>
	<path class="st9" d="M75.84,83.29c0.11-4.15-3.01-12.41,3.16-13.12c3.93,0.04,3.83,4.27,3.87,7.16c-0.06,2.54,1.16,5.48-0.37,7.73
		C80.64,87.65,76.16,86.49,75.84,83.29z"/>
	<path class="st9" d="M64.72,86.64c-1.88-0.52-3.27-2.68-2.61-4.61c2.51-4.36,1.96-17.15,9.19-15.16c2.89,1.21,2.6,4.46,1.42,6.82
		C70.52,77.8,71.09,87.41,64.72,86.64z"/>
	<path class="st9" d="M60.32,85.06c-4.32-0.7-3.01-5.48-2.54-8.53c0.27-2.87,0.92-6.87,4.53-6.92c3.28,0.01,4.63,3.62,3.18,6.23
		C64.61,79.16,65.34,85.49,60.32,85.06z"/>
	<path class="st9" d="M48.3,88.42c-3.73-3.12,0.89-7.07,2.54-10c1.78-2.65,3.85-6.1,7.45-6.04c4.25-0.12,5.03,6.43,0.86,7.26
		C56.05,82.66,53.88,91.71,48.3,88.42z"/>
	<path class="st9" d="M41.05,81.91c-1.99-1.96-0.87-4.71,1-6.26c2.2-3.17,7.51-8.37,10.35-3.09c1.45,3.39-2.4,4.85-4,7.16
		C46.66,81.92,43.63,84.47,41.05,81.91z"/>
	<path class="st9" d="M37.92,80.63c-5.14-3.09,2.48-13.01,6.79-8.78C48.11,74.91,41.73,83.16,37.92,80.63z"/>
	<path class="st9" d="M98.69,64.33c-2.6-3.45-6.42-11.92,0.45-12.72c4.86,0.09,3.3,5.84,5.63,8.62
		C107.11,64.02,101.29,67.95,98.69,64.33z"/>
	<path class="st9" d="M110.99,62.22c-2.39-3.25-8.89-2.85-8.56-7.66c1.91-7.46,12.96-0.07,14.43,4.27
		C117.39,61.94,113.41,64.26,110.99,62.22z"/>
	<path class="st9" d="M118.34,63.23c-1.77-2.27-5.08-3.7-5.2-6.89c0-2.08,1.74-3.82,3.82-3.82c3.25,0.26,4.65,3.91,6.87,5.89
		C126.64,61.85,121.4,66.46,118.34,63.23z"/>
	<path class="st9" d="M109.19,69.3c0-2.04,1.7-3.75,3.75-3.75s3.75,1.7,3.75,3.75s-1.7,3.75-3.75,3.75S109.19,71.34,109.19,69.3z"/>
	<path class="st9" d="M115.25,53.8c-2.85-0.09-6.81-1.36-6.25-4.87c0.55-3.79,4.49-3.36,7.27-2.54
		C121.07,47.04,120.03,54.47,115.25,53.8z"/>
	<path class="st9" d="M109.56,36.36c-0.1-4.82,10.51-6.02,11.07-0.96C121.34,40.93,109.61,42.18,109.56,36.36z"/>
	<path class="st9" d="M111.69,28.62c-6.88-0.3-4.6-10.3,1.53-7.41c3.73,0.35,10.11-2.99,11.23,2.46
		C124.55,29.71,115.8,28.42,111.69,28.62z"/>
	<path class="st9" d="M99.72,31.29c0-2,1.67-3.68,3.68-3.68s3.68,1.67,3.68,3.68s-1.67,3.68-3.68,3.68S99.72,33.3,99.72,31.29z"/>
	<path class="st9" d="M64.63,30.37c0-2.12,1.77-3.89,3.89-3.89s3.89,1.77,3.89,3.89s-1.77,3.89-3.89,3.89S64.63,32.5,64.63,30.37z"
		/>
	<path class="st9" d="M68.39,21.8c-0.85-3.33-3.71-6.15-3.64-9.63c0.36-2.3,2.63-3.88,4.92-3.25c3.68,1.61,3.82,6.71,5.62,9.96
		C77.17,23.35,70.26,26.28,68.39,21.8z"/>
	<path class="st9" d="M72.31,23.07c-3.6-0.52-3.49-4.38-2.67-7.11c0.31-3.42,2.39-8.61,6.64-6.36c2.78,1.57,1.6,4.51,0.86,6.88
		C76.72,19.33,76.15,23.59,72.31,23.07z"/>
	<path class="st9" d="M40.7,41.28c-6.99-13.47,7.45-17.13,5.78-7.62c0,0,0.01,0,0.01,0c-0.63,1.6,0.67,3.19,1.11,4.7
		C49.52,42.82,42.54,45.77,40.7,41.28z"/>
	<path class="st9" d="M48.13,43.35c-2.49-1.83-6.66-2.93-6.87-6.53c0-2.02,1.68-3.7,3.69-3.7c2.67,0.33,4.48,2.76,6.92,3.82
		C56.04,39.35,52.24,45.82,48.13,43.35z"/>
	<path class="st9" d="M38.14,57.7c0-1.96,1.63-3.59,3.59-3.59s3.59,1.63,3.59,3.59s-1.63,3.59-3.59,3.59S38.14,59.66,38.14,57.7z"/>
	<path class="st10" d="M94.77,70.03c-0.11-4.54-0.26-9.08-0.51-13.62c0.01,0.16,0.02,0.33,0.04,0.5c-1.49-5.05,6.36-7.17,7.2-1.88
		c-0.53,4.67,3.61,18.21-3.08,18.65C96.39,73.68,94.81,72.02,94.77,70.03z"/>
	<path class="st10" d="M107.02,44.37c-4.83-0.33-5.87-7.64-0.54-7.92C112.5,36.67,113.84,45.04,107.02,44.37z"/>
	<path class="st10" d="M109.19,61.9c-3.9-1.89-12.36-7.08-5.89-11.13c3.89-1.3,6.22,3.51,9.66,4.68
		C117.16,57.88,113.34,64.36,109.19,61.9z"/>
	<path class="st10" d="M121.94,42.19c-2.99-0.77-7.93-0.74-7.42-5.09c0.26-1.93,2.22-3.61,4.22-3.2
		C128.97,34.53,128.37,42.65,121.94,42.19z"/>
	<path class="st10" d="M53.44,49.43c0-2.14,1.79-3.93,3.93-3.93s3.93,1.79,3.93,3.93s-1.79,3.93-3.93,3.93S53.44,51.57,53.44,49.43z
		"/>
	<path class="st10" d="M71.75,38.86c0.05-2.47,0.24-4.98-0.26-7.41c-1.18-2.02-2.92-4.4-0.72-6.52c7.98-6.5,12.23,17.5,4.62,17.57
		C73.47,42.51,71.66,40.85,71.75,38.86z"/>
	<path class="st10" d="M86.86,22.1c1.11-4.58-3.36-15.24,1.85-16.72c7.62-0.71,4.9,11.89,5.5,16.72
		C94.24,26.86,86.83,26.86,86.86,22.1z"/>
	<path class="st10" d="M26.1,58.29c0-2.06,1.72-3.78,3.78-3.78s3.78,1.72,3.78,3.78s-1.72,3.78-3.78,3.78S26.1,60.35,26.1,58.29z"/>
	<path class="st10" d="M45.02,79.56c-4.14-6.94,19.44-13.9,19.5-5.55c-0.2,5-6.01,3.14-9.15,4.53
		C51.99,79.41,47.74,83.81,45.02,79.56z"/>
	<path class="st10" d="M71.59,100.14c-1.94-0.26-3.4-2.14-3.11-4.09c1.64-4.42-0.11-17.52,6.3-17.06c1.94,0.27,3.44,2.15,3.13,4.12
		C76.25,87.5,77.96,100.59,71.59,100.14z"/>
	<path class="st10" d="M79.89,90.58c-3.77-1.6-1.56-5.71-0.54-8.34c0.96-3.01,1.36-8.21,5.82-7.11c4.4,1.37,2.16,6.39,1.16,9.45
		C85.32,87.45,83.82,92.16,79.89,90.58z"/>
	<path class="st10" d="M34.11,79.38c-5.67-2.77,4.76-16.53,8.98-11.68c1.95,1.93,1,4.78-1.01,6.26
		C39.96,76.36,38.17,81.62,34.11,79.38z"/>
	<path class="st10" d="M44.3,87.71c-2.72-4.65,6.19-9.64,8.84-5.01C55.98,87.45,46.99,92.23,44.3,87.71z"/>
	<path class="st10" d="M106.81,83.99c0-2.14,1.79-3.93,3.93-3.93s3.93,1.79,3.93,3.93s-1.79,3.93-3.93,3.93
		S106.81,86.13,106.81,83.99z"/>
	<path class="st10" d="M148.81,44.85c0-2.02,1.68-3.7,3.7-3.7c2.01,0,3.7,1.68,3.7,3.7s-1.68,3.7-3.7,3.7
		C150.49,48.54,148.81,46.86,148.81,44.85z"/>
	<path class="st10" d="M154.75,68.11c-4.48,0.02-5.43-6.63-1.1-7.84c3.03-0.85,7.96-2.45,9.19,1.68
		C163.94,66.61,157.97,67.32,154.75,68.11z"/>
	<path class="st10" d="M144.73,104.75c-2.39-3.84-10.28-4.8-8.53-10.25c3.21-6.88,13.99,3.39,14.85,7.63
		C151.15,105.34,146.93,107.07,144.73,104.75z"/>
	<path class="st10" d="M120.58,109.82c0-2.11,1.76-3.87,3.87-3.87s3.87,1.76,3.87,3.87s-1.76,3.87-3.87,3.87
		S120.58,111.93,120.58,109.82z"/>
	<path class="st10" d="M136.59,110.07c-1.09-2.44-4.19-4.41-2.75-7.41c3.22-5.54,7.8-0.36,9.34,3.55
		C145.69,110.48,139.04,114.37,136.59,110.07z"/>
	<path class="st10" d="M139.37,104.43c0-1.96,1.63-3.59,3.59-3.59s3.59,1.63,3.59,3.59s-1.63,3.59-3.59,3.59
		S139.37,106.39,139.37,104.43z"/>
	<path class="st10" d="M126.4,112.81c0-2.19,1.83-4.02,4.02-4.02s4.02,1.83,4.02,4.02s-1.83,4.02-4.02,4.02
		S126.4,114.99,126.4,112.81z"/>
	<path class="st10" d="M27.4,121.18c0-1.98,1.65-3.62,3.63-3.62s3.63,1.65,3.63,3.62s-1.65,3.62-3.63,3.62S27.4,123.16,27.4,121.18z
		"/>
	<path class="st10" d="M31.41,125.85c-3.58-0.27-8.03-3.7-4.82-7.26c2.02-2.15,4.52-0.37,6.77,0.19
		C37.96,120,35.95,127.15,31.41,125.85z"/>
	<path class="st10" d="M28.23,113.02c0-2.03,1.69-3.72,3.72-3.72s3.72,1.69,3.72,3.72s-1.69,3.72-3.72,3.72
		S28.23,115.05,28.23,113.02z"/>
	<path class="st10" d="M34.97,112.28c-6.2-0.5-4.6-10.33,1.45-7.77C44.75,101.7,44.11,113.34,34.97,112.28z"/>
	<path class="st10" d="M35.25,113.02c0-2.03,1.69-3.72,3.72-3.72s3.72,1.69,3.72,3.72s-1.69,3.72-3.72,3.72
		S35.25,115.06,35.25,113.02z"/>
	<path class="st10" d="M38.43,124.52c0-2.05,1.71-3.77,3.77-3.77s3.77,1.71,3.77,3.77s-1.71,3.77-3.77,3.77
		S38.43,126.57,38.43,124.52z"/>
	<path class="st10" d="M41.69,128.36c-1.47-3.31,2.34-6.11,5.32-4.74c2.55-0.27,5.81-0.02,6.2,3.14
		C53.76,132.48,43.72,132.36,41.69,128.36z"/>
	<path class="st10" d="M51.61,136.51c-4.33-1.27-4.55-8.5,0.46-8.65C58.09,128.28,58.65,138.53,51.61,136.51z"/>
	<path class="st10" d="M97.02,126.58c0-2.22,1.86-4.07,4.07-4.07s4.07,1.86,4.07,4.07c0,2.22-1.86,4.07-4.07,4.07
		S97.02,128.8,97.02,126.58z"/>
	<path class="st10" d="M94.44,140.34c-3.66-3.61,3.17-10.77,6.88-7.05C104.91,136.88,98.16,144.12,94.44,140.34z"/>
	<path class="st10" d="M101.19,133.11c0-2.14,1.79-3.93,3.93-3.93s3.93,1.79,3.93,3.93s-1.79,3.93-3.93,3.93
		S101.19,135.25,101.19,133.11z"/>
	<path class="st10" d="M98.96,145.69c-4.64-1.74-1.82-12.44,3.32-10.9C107.59,136.14,104.43,148.07,98.96,145.69z"/>
	<path class="st10" d="M102.84,147.16c-1.88-0.79-2.83-3.06-2.01-4.95c2.09-3.41,4.21-11.45,9.48-9.11c4.26,2.8-0.38,7-1.7,10.15
		C107.88,145.82,105.73,148.41,102.84,147.16z"/>
	<path class="st10" d="M112.77,138.4c0-2.09,1.75-3.84,3.84-3.84s3.84,1.75,3.84,3.84s-1.75,3.84-3.84,3.84
		S112.77,140.49,112.77,138.4z"/>
	<path class="st10" d="M124.25,138.07c0-2.04,1.71-3.75,3.75-3.75s3.75,1.71,3.75,3.75s-1.71,3.75-3.75,3.75
		S124.25,140.11,124.25,138.07z"/>
	<path class="st11" d="M98.29,239.02c-0.28-0.22-0.33-0.61-0.15-0.9c-0.06-5.29-0.86-10.48-0.98-15.75
		c-0.04-8.88-0.66-17.77-1.17-26.61c-0.78-7.99,0.23-16.07-0.38-24.04c-0.45-4.55-1.14-9.06-1.64-13.61
		c-0.37-7.98-0.12-15.99-0.11-23.98c0-0.6,0.1-1.5,0.86-1.54c0.55,0,0.83,0.71,0.41,1.07c-0.09,8.02-0.17,16.07,0.1,24.09
		c0.6,5.73,1.67,11.4,1.9,17.16c0.22,4.5-0.24,9-0.15,13.5c0.16,4.6,0.46,9.32,0.73,13.9c0.87,9.88,0.42,19.75,1.48,29.61
		c0.15,2.03,0.25,4.06,0.31,6.09C99.61,238.67,98.95,239.5,98.29,239.02z"/>
	<path class="st11" d="M100.52,237.46c0.9-3.23,1.11-6.56,1.44-9.89c0.71-6.64,1.25-13.29,1.13-19.96
		c-0.56-13-1.56-25.99-2.54-38.89c-0.84-10.17,1.01-20.36,1.63-30.51c0.03-0.53-0.09-1.34,0.64-1.38c1.03,0.12,0.49,1.49,0.53,2.19
		c-0.56,9.11-1.94,18.26-1.7,27.35c1.12,12.26,1.78,24.61,2.66,36.83c0.38,6.99,0.06,13.99-0.6,20.95
		c-0.63,4.37-0.43,8.9-1.82,13.12C102.15,238.23,100.52,238.46,100.52,237.46z"/>
	<path class="st11" d="M100.4,237.29c-0.02,0-0.04-0.01-0.05-0.01c-0.89,0.4-1.32-0.92-0.51-1.29c0.47-0.17,1,0.06,1.4,0.31
		C101.76,236.85,101.02,237.59,100.4,237.29z"/>
	<path class="st11" d="M69.16,236.33c-0.99-0.77-0.89-2.12-0.94-3.25c0.03-0.63-0.1-1.31,0.14-1.9c0.31-0.54,1.16-0.3,1.16,0.31
		c-0.09,1.17-0.14,2.53,0.24,3.62c0.05,0.07,0.1,0.14,0.17,0.19c2.53-0.68,2.47-6.9,5.53-3.24c0.16,0.17,0.47,0.03,0.64-0.01
		c1.13-0.52,2.03-1.48,2.98-2.24c0.49-0.49,1.57-1.59,2.1-0.61c0.68,1.6-0.32,3.53,0.32,5.11c0.66-0.1,1.23-0.7,1.62-1.2
		c0.23-0.76,1.36-0.79,1.56,0c0.2,0.53,0.49,1.18,1.04,1.39c-0.01,0-0.02-0.01-0.03-0.01c-0.02-0.01-0.04-0.02-0.06-0.03
		c1.18,0.42,2.43,0.06,3.58-0.23c0.83-0.24,1.2,1.07,0.36,1.29c-1.9,0.57-4.72,1.04-5.77-1.13c-0.89,1.1-2.99,2.03-3.66,0.23
		c-0.36-1.28-0.06-2.66-0.05-3.97c0,0,0,0,0,0c-1.73,1.43-4.31,4.38-6.25,1.63C72.95,233.89,71.48,237.44,69.16,236.33z"/>
	<path class="st11" d="M91.44,235.23c-0.65-0.33-0.86-1.66,0.07-1.71c0.36,0,0.64,0.31,0.63,0.66c2.51-0.22,4.44-2.45,6.6-3.57
		c0.71-0.41,1.36,0.68,0.64,1.1C97.17,232.84,94.03,236.26,91.44,235.23z"/>
	<path class="st11" d="M88.96,236.75c-0.39-0.05-0.86-0.13-1.09-0.48c-0.3-0.38-0.05-0.95,0.42-1.02c0.32-0.09,0.71-0.1,0.9,0.22
		c3.06,0.42,5.71-1.59,8.61-2.18c2.29-0.21,4.68,0.07,6.93-0.57c0.43-0.13,1.04-0.21,1.19,0.34c0.09,0.32-0.11,0.68-0.43,0.76
		c-2.48,0.83-4.86,0.76-7.41,0.81C95.05,235.3,92.18,237.32,88.96,236.75z"/>
	<path class="st11" d="M101.97,237.59c-0.94-0.41,0.04-1.86,0.8-1.25c4.04-1.06,8.25-0.89,12.34-1.6c1.3-0.18,2.6-0.37,3.9-0.5
		c0.36-0.03,0.69,0.2,0.74,0.56c0.05,0.36-0.21,0.7-0.56,0.74c-3.94,0.59-7.92,1.09-11.89,1.36
		C105.52,236.96,103.71,237.86,101.97,237.59z"/>
	<path class="st11" d="M113.3,237.37c-0.52-0.05-1.03-0.19-1.52-0.36c-0.73-0.28-0.26-1.43,0.44-1.15c0.97,0.34,1.88,0.35,2.87,0.23
		c0.34-0.04,0.65,0.18,0.7,0.53C115.79,237.75,114.04,237.32,113.3,237.37z"/>
	<path class="st11" d="M123.08,234.66c-1.05-0.13-1.93-0.95-2.98-1.02c-2.88,0.6-4.52,0.58-4.06-2.96c-4.12,3.6-6.85,2.29-5.33-3.18
		c0.43-1.43,0.56-3.35,1.97-4.19c0.75-0.13,2.09-1.04,2.52-0.05c0.09,0.33-0.11,0.7-0.44,0.78c-0.55,0.17-1.16,0.23-1.65,0.52
		c-0.99,1.59-1.21,3.64-1.52,5.39c-0.26,3.42,3.38-0.19,4.45-1c0.56-0.34,1.4,0.08,1.4,0.75c0.11,0.76-0.71,3.08,0.54,2.95
		c1.45-0.38,3.08-0.51,4.36,0.36c1.6,0.85,3.48,0.15,4.83-0.84c0.29-0.2,0.68-0.18,0.91,0.12
		C128.91,233.77,124.14,235.12,123.08,234.66z"/>
	<path class="st11" d="M103.44,241.87c-4.51,0.09-8.92-0.76-13.36-1.41c-3.89-0.2-7.87-0.06-11.7,0.55
		c-0.61,0.02-0.88-0.88-0.32-1.17c3.52-0.85,7.28-0.8,10.9-0.8c4.64,0.31,9.18,1.57,13.86,1.44c4.95,0.36,9.74-1.21,14.66-1.33
		c4.39-0.28,8.26-2.47,12.48-3.46c2.89-1.24,5.29-3.21,7.74-5.1c0.26-0.21,0.66-0.14,0.86,0.11c0.62,0.96-1.79,1.99-2.34,2.63
		c-2.86,2.36-6.08,3.98-9.71,4.75c-3.76,1.61-7.68,2.54-11.78,2.59C110.98,241.21,107.25,242.06,103.44,241.87z"/>
	<path class="st11" d="M141.88,235.79c-0.68-0.82,0.74-1.3,0.96-2c0.44-1.13,0.33-2.74-0.77-3.42c-0.19-0.11-0.41-0.16-0.64-0.15
		l0-0.01c-0.22,0.04-0.34,0.11-0.48,0.18c-0.92,0.51-1.71,1.24-2.45,1.98c-0.39,0.54-1.15,0.82-1.72,0.37
		c-0.17-0.12-0.26-0.34-0.3-0.54c-0.03-0.89-0.13-1.81-0.3-2.68c-0.18-0.66-0.36-2.11-1.32-1.8c-0.95,0.51-1.85,1.2-2.61,1.96
		c-0.24,0.4-0.69,0.75-1.14,0.41c-0.96-1.07,1.6-2.36,2.31-2.95c3.19-2.48,4.13,1.75,4.31,4.19c1.32-1.16,3.03-3.13,4.94-2.1
		c2,1.11,2.3,4.29,0.8,5.92C143.06,235.53,142.48,236.34,141.88,235.79z"/>
	<path class="st11" d="M132.09,238.31c-0.1-0.17-0.21-0.34-0.31-0.52c-0.73,0.27-2.59,0.88-2.75-0.28c-0.01-0.34,0.03-0.72,0.3-0.96
		c0.62-0.52,1.45-0.7,2.17-1.04c0.29-1.26,3.01-2.76,2.96-0.62c1-0.6,1.99-1.22,2.97-1.85c0.29-0.19,0.7-0.06,0.87,0.23
		c0.18,0.31,0.06,0.68-0.23,0.88c-1.71,1.08-3.38,2.21-5.18,3.13c0.26,0.38,0.55,0.95,0.03,1.26
		C132.64,238.7,132.27,238.59,132.09,238.31z"/>
	<path class="st11" d="M119.36,237.53c-0.36-1.01-0.55-2.05-0.69-3.11c-0.05-0.34,0.2-0.66,0.53-0.7c1-0.03,0.69,1.35,0.93,1.99
		c0.11,0.51,0.26,0.99,0.42,1.49C120.78,237.97,119.58,238.32,119.36,237.53z"/>
	<path class="st11" d="M46.21,150.14c-2.04-0.96-6.18-1.54-6.07-4.4c0.92-3.06,4.78-4.96,7.74-3.6c0.29,0.12,0.59,0.32,0.76,0.59
		c0.37,0.6-0.49,1.25-0.96,0.73c-2.05-1.15-4.5-0.08-5.81,1.68c-0.43,0.45-0.61,1.07-0.12,1.52c1.45,1.13,3.2,1.62,4.87,2.3
		C47.31,149.24,46.92,150.37,46.21,150.14z"/>
	<path class="st11" d="M53.52,157.33c-4.56-0.66-0.57-4.08,1.03-5.72c1.62-1.69,3.7-2.85,5.98-3.34c0.34-0.09,0.71,0.11,0.8,0.46
		s-0.11,0.71-0.46,0.8c-0.93,0.25-1.79,0.47-2.61,0.89c-2.21,1.2-3.93,3.17-5.49,5.09c-0.03,0.07-0.1,0.16-0.04,0.24
		c1.76,0.79,3.76-0.23,5.51-0.64c0.32-0.1,0.67,0.11,0.76,0.43c0.09,0.34-0.11,0.65-0.43,0.76
		C56.94,156.81,55.26,157.42,53.52,157.33z"/>
	<path class="st11" d="M60.76,160.25c-1.06-0.5-1.09-1.75-0.8-2.74c0.4-1.66,0.85-3.31,1.34-4.95c0.44-0.96,1.34-5.48,2.68-4.84
		c0.3,0.18,0.4,0.57,0.23,0.88c-1.16,2.1-1.71,4.42-2.34,6.71c-0.19,1.18-0.9,2.46-0.63,3.61c0,0-0.01,0.01-0.01,0.01
		c0.02,0.02,0.05,0.04,0.07,0.06c1.95-0.91,3.05-2.87,4.31-4.49c1.52-2.08,2.77-4.15,4.25-6.19c0.36-0.49,1.21-0.15,1.1,0.46
		c-0.16,1.13-0.57,2.33-0.54,3.47c0.19,1.84,2.56-1.05,3.04-1.56c0.63-0.72,1.23-1.47,1.82-2.23c0.2-0.27,0.6-0.32,0.86-0.11
		c0.77,0.83-0.83,1.82-1.2,2.55c-1.23,1.28-2.68,3.77-4.74,3.14c-1.01-0.38-1.18-1.53-1.06-2.47
		C67.34,153.83,63.97,160.81,60.76,160.25z"/>
	<path class="st11" d="M76.56,150.31c-1.45-0.19,0.41-4.74,0.58-5.78c0.14-0.45,0.33-0.9,0.55-1.32c0.55-0.66,1.48,0.18,0.98,0.84
		c-0.67,1.81-1.17,3.79-1.36,5.68C77.28,150.1,76.9,150.35,76.56,150.31z"/>
	<path class="st11" d="M81.18,150.9c-1.27-0.76-0.37-2.47-0.11-3.57c0.45-1.4,2.35-9.07,4.49-7.3c0.18,0.3,0.08,0.73-0.24,0.9
		c-1.18,0.8-1.52,2.49-2.07,3.72c-0.51,1.69-1.16,3.36-1.41,5.11c0.04,0.02,0.08,0.04,0.12,0.06c-0.02-0.02-0.05-0.03-0.07-0.04
		c0.14,0.09,0.33-0.01,0.46-0.06c0.84-0.42,1.55-0.84,2.31-1.35c0.71-0.43,1.37,0.69,0.65,1.11
		C84.07,150.14,82.66,151.66,81.18,150.9z"/>
	<path class="st11" d="M107.81,153.65c-0.37-1.04-0.11-2.06,0.36-3.02c0.82-1.82,1.64-3.88,3.34-5.05c0.53-0.31,1.66-0.47,1.7,0.39
		c0.01,0.62-0.63,0.6-1.06,0.73c-1.65,1.37-2.37,3.56-3.14,5.47c-0.06,0.22-0.06,0.46,0,0.68c2.05-1.1,3.34-3.37,4.28-5.44
		c0.14-0.31,0.49-0.46,0.8-0.33c1.09,0.5-0.86,3.04-1.2,3.8c-1.05,1.31-2.34,3.32-4.16,3.32
		C108.32,154.29,107.89,154.11,107.81,153.65z"/>
	<path class="st11" d="M120.62,145.73c-1.33-0.47-1.54-2.07-1.57-3.3c0.06-1.44-0.62-5.27,1.07-5.79c0.68-0.11,0.99,0.89,0.38,1.19
		c-0.45,1.99-0.28,4.04,0.02,5.98c0.15,0.52,0.55,0.87,1.09,0.71c0.8-0.31,1.36-0.73,2-1.21c0.27-0.2,0.67-0.16,0.88,0.11
		c0.51,0.78-0.66,1.22-1.13,1.63C122.56,145.58,121.58,146.1,120.62,145.73z"/>
	<path class="st11" d="M132.27,145.83c-3.43-0.1-2.87-6.67-2.39-9.02c0.11-0.81,1.38-0.64,1.25,0.17c-0.48,2.11-0.42,4.41,0.12,6.45
		c0.15,0.38,0.26,0.91,0.72,1.02c-0.02-0.01-0.05-0.02-0.07-0.02c-0.02-0.01-0.04-0.02-0.06-0.03c0.05,0.02,0.09,0.03,0.13,0.05
		c0.07,0.02,0.13,0.04,0.2,0.05c-0.03-0.01-0.06-0.01-0.09-0.02c0.06,0.01,0.13,0.02,0.19,0.01l0.01,0.01
		c1.81-0.69,2.12-2.8,1.86-4.49c-0.11-0.79,1.12-0.96,1.23-0.17C135.85,142.19,134.98,145.41,132.27,145.83z"/>
	<path class="st11" d="M136.11,139.32c-2.45-0.36-2.25-3.39-1.96-5.24c0.35-1.59,0.47-4.15,2.43-4.52c0.34-0.06,0.66,0.21,0.71,0.54
		c0.08,0.54-0.44,0.66-0.82,0.82c0,0,0.01-0.02,0.01-0.02c-0.93,1.35-1,3.16-1.17,4.7c-0.15,2.37,0.76,2.88,2.89,2.01
		c0.31-0.1,0.65,0.09,0.77,0.37C139.44,139.04,136.81,139.45,136.11,139.32z"/>
	<path class="st11" d="M103.28,143.24c-0.33-0.04-0.59-0.36-0.53-0.7c0.25-1.52,0.53-3.08,0.57-4.61c-0.06-0.76,1.12-0.89,1.22-0.13
		c-0.01,1.65-0.28,3.29-0.56,4.91C103.92,143.04,103.61,143.28,103.28,143.24z"/>
	<path class="st11" d="M152.65,134.33c-1.6-0.83-0.53-6.83,1.45-6.51c0.48,0.14,1.15,0.66,0.83,1.21c-0.22,0.38-0.73,0.38-1.02,0.1
		c0,0,0,0,0,0c-0.47,1.2-0.97,2.63-0.61,3.91l0,0.01c0.02,0.04,0.04,0.08,0.06,0.11c0.18,0.01,0.34-0.05,0.45-0.19
		c0.86-0.98,1.3-2.28,1.18-3.55c-0.01-0.82,1.28-0.83,1.28,0C156.49,131.37,155.19,135.32,152.65,134.33z"/>
	<path class="st11" d="M160.44,121.66c-0.94-1.58-2.86-1.9-4.04-3.14c-0.45-0.75,0.82-1.41,1.16-0.58c0.97,0.59,4.95,2.43,3.81,3.84
		C161.09,121.99,160.65,121.95,160.44,121.66z"/>
	<path class="st11" d="M164.93,109.4c-0.32-0.19-0.41-0.59-0.24-0.91c0.99-2.1,2.54-4.75,1.12-6.93c-0.72-0.09-0.68-1.2,0.03-1.27
		c0.38-0.05,0.69,0.17,0.93,0.44c1.52,1.81,0.9,4.43,0.05,6.41C166.36,107.84,166.09,109.86,164.93,109.4z"/>
	<path class="st11" d="M161.24,108.26c-0.5-0.52,0.06-1.01,0.41-1.4c0.43-0.68,0.41-1.56,0.04-2.26c-0.85-1.59-4.58-2.69-4.96-0.27
		c-0.03,0.4,0.03,0.81,0.19,1.18c0.23,0.19,0.28,0.55,0.14,0.79c-1.53,1.35-1.93-2.37-1.25-3.2c2.09-3.32,8.32-0.48,7.46,3.29
		C163.1,107.21,162.27,108.98,161.24,108.26z"/>
	<path class="st11" d="M46.21,132.38c-1.14-0.17-2.38-0.6-3.42-0.96c-0.93-0.34-2.08-0.79-2.32-1.86c-0.22-0.9,0.3-1.81,0.2-2.72
		c-3.01,1.36-5.98,3.61-9.49,3.17c-3.45-0.11-7.59-4.27-3.59-6.88c4.31-1.74,11.26-0.61,14.27,3.04c0.34,0.93-0.03,2.01-0.12,2.92
		c-0.02,0.37,0.43,0.59,0.66,0.73c1.18,0.52,2.47,0.92,3.66,1.19c0.45,0.04,0.97,0.27,0.89,0.81
		C46.9,132.16,46.55,132.44,46.21,132.38z M32.47,128.73c2.64-0.25,4.92-1.67,7.16-2.92c-1.96-1.91-12.03-3.8-12.4,0
		c0,0,0.01-0.01,0.01-0.01C27.73,128.02,30.48,128.83,32.47,128.73z"/>
	<path class="st11" d="M22.85,119.03c-1.8-0.65-2.81-1.36-0.7-2.65c2.87-0.99,6.43-1.45,9.19,0.09c2.37-0.64,4.75-1.26,7.08-2.01
		c0.77-0.23,1.11,0.99,0.33,1.2c-2.09,0.7-4.21,1.3-6.35,1.87c-0.1,0.22-0.32,0.38-0.57,0.36c-0.18-0.01-0.35-0.03-0.52-0.07
		C28.57,118.48,25.7,119.39,22.85,119.03z M24.3,117.8c1.73-0.13,3.41-0.42,5.06-0.84c-2.19-0.44-4.59-0.18-6.66,0.6c0,0,0,0,0,0
		c0.1,0.07,0.33,0.17,0.41,0.17c0.17,0.03,0.34,0.05,0.49,0.07c0.24,0.01,0.48,0.01,0.72,0L24.3,117.8z"/>
	<path class="st11" d="M31.08,113.65c-0.32-0.09-0.54-0.45-0.44-0.77c0.81-3.04,3.54-5.13,6.29-6.41c1.06-0.29,1.2,1.14,0.18,1.33
		c-2.1,1.11-4.28,2.62-5.1,4.94C31.89,113.2,31.66,113.82,31.08,113.65z"/>
	<path class="st11" d="M33.24,104.66c-3.53-1.01-7.32-2.07-10.13-4.53c-3.35-2.73-3.62-8.54,0.43-10.76c0.95-0.4,1.29,0.9,0.36,1.23
		c-3.7,2.47-2.09,7.56,1.24,9.52c2.62,1.54,5.51,2.54,8.43,3.34C34.34,103.66,34,104.87,33.24,104.66z"/>
	<path class="st11" d="M32.02,97.33c-1.72-0.37-9.27-1.1-9.36-2.99c-0.01-0.84,1.54-0.91,1.54-0.03c2.54,1,5.29,1.35,7.98,1.8
		C32.98,96.21,32.8,97.44,32.02,97.33z"/>
	<path class="st11" d="M34.78,87.53c-0.82-0.05-0.7-1.09-0.76-1.68c-0.2-0.35-0.48-0.65-0.77-0.93c0.22,1.32-0.73,3.26-2.25,2.29
		c-1.99-1.34-2.98-4.59,0.4-4.49c-1.48-2.92-3.53-5.5-4.98-8.45c-0.4-0.69,0.68-1.32,1.07-0.63c1.55,3.33,4.16,6.1,5.44,9.54
		c0.39,0.18,0.75,0.43,1.07,0.7c0.01,0.01,0.03,0.02,0.04,0.03c-0.06-1.52,0.75-3.36,2.49-3.36c0.34-0.05,0.68,0.2,0.71,0.54
		c0.09,0.81-0.77,0.63-1.22,0.93c-1,0.84-0.62,2.37-0.72,3.52C35.61,86.19,35.82,87.53,34.78,87.53z M31.73,86.17
		c0.44-0.42,0.2-1.48,0.13-2.05C29.38,83.42,30.64,85.37,31.73,86.17z"/>
	<path class="st11" d="M30.4,61.94c-1.52-0.72-3.19-1.35-4.41-2.52c-0.85-1.44,1.16-2.15,2.3-2.13c3.37-0.09,6.83,1.11,9.32,3.4
		c0.59,0.59-0.32,1.51-0.92,0.92c-2.51-2.17-6.22-3.58-9.49-2.8c1.13,0.83,2.41,1.41,3.68,1.98c0.31,0.14,0.46,0.5,0.33,0.81
		C31.08,61.92,30.7,62.07,30.4,61.94z"/>
	<path class="st11" d="M37.29,51.54c-0.16-0.11-0.25-0.3-0.32-0.46c-0.06-0.12-0.09-0.25-0.1-0.38c-1.55-0.59-2.16-2.93-0.53-3.79
		c1.31-0.74,2.95,0.36,3.11,1.78c0.48-0.06,0.94,0.14,1.41,0.12c0.57-0.04,1.03-0.42,1.5-0.71c0.71-0.3,1.52-1.69,2.29-0.94
		c0.21,0.27,0.15,0.66-0.11,0.87c-1.09,0.79-2.15,1.9-3.54,2.06c-0.21,0.7-1.24,0.7-1.84,0.92C38.83,51.73,37.93,52.08,37.29,51.54z
		 M37.27,49.48c0.25-0.26,0.56-0.45,0.9-0.57c-0.07-0.44-0.34-0.84-0.77-0.93l-0.01-0.01c-0.43-0.09-0.86,0.3-0.74,0.73
		c-0.01-0.03-0.01-0.06-0.02-0.08C36.67,48.99,36.98,49.3,37.27,49.48z"/>
	<path class="st11" d="M48.44,31.13c-0.24-0.28-0.28-0.66-0.29-1.01c-0.12-0.99-0.33-1.81-0.6-2.74c-0.2-0.42-0.39-1.12-0.95-1.11
		c0,0,0.01,0.01,0.01,0.01c-0.42,0.1-0.66,0.64-0.7,1.03c0.01,0.54,0.93,0.87,0.35,1.48c-0.23,0.24-0.65,0.25-0.88,0
		c-0.78-0.62-0.91-1.67-0.47-2.54c1.38-2.52,3.68-0.89,4.05,1.36c0.27-1.76,2.26-2.57,3.27-0.87c1.27-2.04,2.02-4.43,3.65-6.23
		c0.37-0.39,0.85-0.64,1.31-0.89c0.36-0.52,0.62-1.25,0.82-1.79c0.93-1.96,0.66-5,2.83-6.06c1.56-1.85,2.63-4.13,5.45-2.79
		c0.74,0.29,0.33,1.48-0.43,1.24c-0.51-0.17-0.96-0.36-1.49-0.27c-0.83,0.22-1.19,1.15-1.73,1.74c-0.36,0.43-0.67,0.94-1.14,1.25
		c-0.23,0.11-0.47,0.17-0.63,0.39c-0.87,1.7-1.04,3.68-1.79,5.44c-0.27,0.65-0.53,1.35-1.03,1.86c-0.35,0.29-0.84,0.39-1.17,0.72
		c-1.26,1.31-1.91,3.06-2.76,4.63c-0.63,1.28-2.09,4.09-3.05,1.41c-0.1-0.17-0.32-0.43-0.52-0.23
		C49.69,27.87,50.26,32.46,48.44,31.13z"/>
	<path class="st11" d="M82.99,12.38c-0.33-0.14-0.48-0.53-0.35-0.86c0.29-1.02,1.18-2.13,0.96-3.19c0,0,0,0,0,0
		c-1.37,0.82-2.27,2.27-3.36,3.41c-0.2,0.23-0.5,0.33-0.79,0.21c-0.78-0.37-0.23-1.28,0.15-1.76c-0.55-0.95-0.18-2.01,0.11-2.97
		c0.55-1.38,0.58-3.41,2.01-4.17c2.42-0.43,1.87,2.91,1.08,4.22c0.91-0.65,2.14,0.06,2.2,1.13c0.07,0.82-0.31,1.62-0.61,2.37
		C84.05,11.35,83.94,12.69,82.99,12.38z M81.33,6.29c-0.23,0.68-0.43,1.36-0.62,2.05c0.64-1.2,1.4-2.32,1.44-3.68
		c-0.01-0.08-0.02-0.16-0.03-0.18c-0.01-0.04-0.02-0.07-0.03-0.11C81.68,4.95,81.58,5.65,81.33,6.29z"/>
	<path class="st11" d="M95.66,20.92c-1.57-0.38,2.11-7.59,2.59-8.77c0.52-0.75,2.22-6.02,3.17-3.52c-1.45,2.87-2.95,5.95-4.05,8.98
		c-0.33,0.95-0.64,1.9-0.92,2.87C96.36,20.81,95.99,21.01,95.66,20.92z"/>
	<path class="st11" d="M103.06,19.98c-0.75-0.71,0.54-1.64,0.8-2.25c1.16-1.67,2.21-3.35,3.01-5.15c0.12-0.12,0.28-0.18,0.45-0.18
		c1.59,0.24-0.49,2.96-0.85,3.74c-0.78,1.27-1.61,2.53-2.5,3.73C103.77,20.15,103.34,20.19,103.06,19.98z"/>
	<path class="st11" d="M113.64,33.41c-0.29-0.22-0.37-0.68-0.12-0.96c0.77-0.88,1.47-1.81,2.15-2.76c0.8-1.19,5.17-7.8,3.08-8.52
		c-1.13,0.07-4.72,3.86-5.02,1.56c0.23-1.7,1.43-3.4,0.96-5.13c-0.02-0.01-0.05-0.02-0.07-0.03c-0.02-0.01-0.05-0.01-0.07-0.02
		c0.03,0.01,0.05,0.01,0.09,0.02c-0.86-0.16-1.46,0.77-2.06,1.25c-0.54,0.34-0.62,1.16-1.24,1.32c-0.78,0.09-0.99-0.95-0.47-1.4
		c0.29-1.31,1-3.08,0.16-4.27c-0.22-0.17-0.42-0.28-0.67-0.29c-1.41,0.08-2.73,0.65-3.91,1.38c-0.28,0.24-0.73,0.3-0.98-0.04
		c-0.69-1.16,2.16-1.87,2.93-2.23c3.08-1.23,4.85,0.71,4.18,3.79c0.87-0.85,2.63-1.29,3.29,0.02c0.58,1.49-0.06,3.09-0.48,4.54
		c1.41-0.92,3.6-2.82,4.95-0.84c0.98,2.83-1.27,5.73-2.55,8.14C117.1,29.75,114.71,34.32,113.64,33.41z"/>
	<path class="st11" d="M143.92,36.35c-0.32-0.57,0.21-0.91,0.61-1.16c-2.42-0.33-4.88-0.63-7.32-0.56
		c-0.93-0.04-0.84-1.33,0.06-1.38c2.55-1.54,10.37-5.86,7.65-9.41c-1.15-1.18-3.28-2.13-4.73-0.98c-0.56,0.58-1.5-0.25-1-0.87
		c0.15-0.14,0.23-0.32,0.27-0.5c0,0.02-0.01,0.04-0.01,0.07c-0.01,0.02-0.01,0.03-0.02,0.05c0.01-0.03,0.02-0.04,0.02-0.05
		c0.06-0.28,0.1-0.57,0.13-0.86c0-0.1,0-0.19,0-0.2c-0.01-0.11-0.01-0.22-0.04-0.32c-0.01-0.01-0.01-0.01-0.02-0.02l0-0.01
		c-0.42-0.29-1.06-0.06-1.46,0c-1.27,0.31-2.6,0.57-3.75,1.23c-1.36,1.03-1.77,2.93-2.27,4.47c1.21,0.73-0.66,1.94-1.21,0.85
		c-0.32-0.74,0.1-1.58,0.3-2.3c0.64-1.75,1.29-3.78,3.2-4.51c2.04-0.77,7.11-2.73,6.55,1.25c2.17-0.39,4.66,0.82,5.64,2.8
		c1.59,4.4-3.79,7.22-6.72,9.42c1.45,0.34,6.45-0.18,6.37,1.83C146.07,35.94,144.53,37.26,143.92,36.35z"/>
	<path class="st11" d="M136.36,49.64c-0.78-0.21-2.67,0.22-2.66-0.91c0.05-0.34,0.36-0.56,0.7-0.53c1.61,0.17,3.3,0.25,4.89,0.16
		c3.19-0.16,6.16-1.89,7.92-4.5c1-1.52,2.05-3.55,1.24-5.35c-0.88-1.78-3.06-2.05-4.76-2.64c-0.39-0.12-0.74-0.39-0.76-0.83
		c-0.02-0.59,0.82-0.85,1.14-0.36c9.1,1.66,6.49,9.53,0.58,13.45C142.17,49.64,139.19,49.85,136.36,49.64z"/>
	<path class="st11" d="M126.1,41.8c-3.06-0.27-8.23,0.23-9.92-2.85c-0.86-2.63,2.09-4.54,4.45-4.29c0.75,0.15,2.35-0.4,2.49,0.66
		c-0.09,1.14-2.37,0.39-3.2,0.62c-1.03,0.07-2.21,0.68-2.51,1.69c-0.68,2.99,7.81,2.81,9.72,2.87c0.35-0.01,0.64,0.3,0.64,0.64
		C127.72,41.98,126.69,41.76,126.1,41.8z"/>
	<path class="st11" d="M141.73,56.05c-1.38-2.05-4.26-8.09-0.12-8.61c0.64,0.06,1.85-0.33,1.93,0.63c0,0.34-0.29,0.63-0.63,0.63
		c-0.64,0.07-1.29-0.16-1.77,0.2c-0.88,1.54,0.07,3.32,0.72,4.74c0.21,0.8,1.61,1.94,0.73,2.64
		C142.3,56.45,141.91,56.35,141.73,56.05z"/>
	<path class="st11" d="M162.18,48.42c-0.13-0.32,0.02-0.73,0.35-0.86c1.58-0.76,3.7-1.12,4.76-2.6c0,0-0.01,0-0.01,0
		c0.1-0.42-0.39-0.68-0.7-0.85c-1.59-0.88-4.19-0.28-4.46,1.7c0.19,0.94-1.18,1.22-1.26,0.23c-0.02-2.82,3.37-4.31,5.77-3.34
		c1.3,0.33,2.61,1.75,1.76,3.09c-0.81,1.31-2.44,1.77-3.77,2.38C163.89,48.33,162.73,49.34,162.18,48.42z"/>
	<path class="st11" d="M159.04,58.47c-0.01-1.09,1.85-0.8,2.52-1.09c2.69-0.59,5.56-1.04,8.07-2.15c0.41-0.19,0.87-0.49,1.05-0.93
		c0,0,0,0.02,0,0.02c0.22-1.11-1.09-1.66-1.95-1.85c-0.84-0.18-1.71-0.17-2.56-0.02c-0.34,0.06-0.66-0.21-0.7-0.54
		c-0.05-0.35,0.2-0.64,0.54-0.7c2.45-0.67,7.28,0.66,5.77,3.96c-1.75,2.29-5.14,2.34-7.74,3.07c-1.45,0.29-2.91,0.56-4.37,0.78
		C159.36,59.02,159.09,58.78,159.04,58.47z"/>
	<path class="st11" d="M159.78,57.36c-2.2-2.49-5.99-2.44-8.64-4.2c-0.96-0.89,1.18-1.87,1.32-0.64c2.76,1.19,6.18,1.57,8.23,3.92
		C161.28,57.04,160.37,57.96,159.78,57.36z"/>
	<path class="st11" d="M157.45,68.17c-2.7-0.92-5.35-2.42-6.84-4.94c-0.38-0.47-0.51-1.44,0.31-1.48c0.38-0.01,0.58,0.32,0.66,0.64
		c0.87,1.55,2.26,2.68,3.82,3.47c0.83,0.41,1.69,0.77,2.56,1.09c0.34,0.12,0.49,0.54,0.35,0.86
		C158.17,68.17,157.78,68.3,157.45,68.17z"/>
	<path class="st11" d="M173.78,66.96c-0.72-0.6-1.6-0.98-2.55-1.02c-0.34-0.04-0.57-0.37-0.53-0.7c0.26-0.98,1.61-0.37,2.28-0.2
		c0.58,0.21,1.08,0.57,1.57,0.93C175.21,66.46,174.42,67.47,173.78,66.96z"/>
	<path class="st11" d="M171.13,82.46c-4.1-1.56-8.09-3.48-12.29-4.73c-0.78-0.21-0.45-1.45,0.34-1.22c3.95,1.15,7.85,2.79,11.6,4.41
		c1.23,0.43,2.7,0.98,3.91,0.21c1.14-0.85,1.7-2.44,1.44-3.82c-0.99-4.46-6.14-3.2-9.15-1.79c-0.73,0.31-1.22-0.84-0.48-1.14
		C180.03,67.81,180.49,85.52,171.13,82.46z"/>
	<path class="st11" d="M147.84,79.17c-5.68-0.76,1.49-8.59,4.51-8.13c0.59,0.06,1.72-0.09,1.65,0.79c-0.28,1.03-1.64,0.2-2.38,0.49
		c-1.29,0.38-2.34,1.48-3.19,2.41c-0.6,0.8-1.53,1.65-1.38,2.72c0.02,0.29,0.34,0.28,0.55,0.35c1.68,0.16,3.32-0.61,4.91-1.08
		c0.47-0.18,1.15-0.52,1.43,0.11c0.13,0.3-0.02,0.7-0.33,0.82C151.75,78.32,149.84,79.13,147.84,79.17z"/>
	<path class="st11" d="M163,76.21c-1.04-0.5-4.09-0.36-4.06-1.8c0.07-0.56,0.85-0.73,1.14-0.24c0.86,0.48,3.93,0.3,3.71,1.59
		C163.7,76.1,163.33,76.3,163,76.21z"/>
	<path class="st11" d="M158.99,95.65c-1.63-3.01-4.72-3.61-7.83-3.66c-0.68-0.15-1.96,0.27-2.07-0.7c0-0.33,0.29-0.64,0.63-0.63
		c2.62,0.15,5.48-0.03,7.77,1.47c0.72,0.49,3.53,2.98,2.38,3.75C159.56,96.06,159.19,95.94,158.99,95.65z"/>
	<path class="st11" d="M161.71,104.29c-0.83-0.25-0.27-1.22-0.25-1.78c0.17-1.52-1.04-2.7-2.37-3.13c-1.65-0.56-3.28-0.65-4.96-0.67
		c-0.34,0-0.63-0.29-0.63-0.63s0.29-0.62,0.63-0.63c2.5,0.02,5.3,0.11,7.32,1.77c1.06,0.93,1.53,2.39,1.28,3.76
		C162.62,103.52,162.48,104.47,161.71,104.29z"/>
	<path class="st11" d="M152.02,110.63c-2.18-0.95-4.57-1.39-6.9-1.38c-0.34,0-0.62-0.29-0.63-0.63c0.09-1.66,7.01,0.25,8.03,0.81
		C153.29,109.75,152.79,110.96,152.02,110.63z"/>
	<path class="st11" d="M95.68,84.2c-7.12-0.49,3.52-16.16,6.58-17.74c1.74-1.29,4.16-0.59,4.56,1.64c0.4,1.57-0.06,3.2-0.25,4.72
		c2.35-0.02,4.68-0.91,7.02-0.78c3.28,1.65-1.15,5.54-2.4,7.27c2.49-0.6,6.63-1.03,6.92,2.46c0.01,0.7,0.27,2.17-0.8,2.12
		c-0.89-0.18-0.46-1.23-0.54-1.86c-0.01-0.91-0.58-1.61-1.45-1.73c-1.92-0.23-3.78,0.26-5.56,0.79c-0.7,0.26-1.69-0.46-1.05-1.15
		c1.81-1.82,3.76-3.77,4.77-6.13c0,0.02-0.01,0.04-0.01,0.06c-0.01,0.01-0.01,0.03,0,0.02c0.03-0.11,0.03-0.18,0.03-0.26
		c-0.02-0.05-0.04-0.1-0.04-0.1c-0.08-0.16-0.2-0.29-0.4-0.25c-2.06,0.19-4.09,0.68-6.15,0.84c-0.41,0-0.83,0.01-1.19-0.23
		c-0.55-0.39-0.49-1.18-0.39-1.78c0.25-1.38,0.54-2.74,0.1-4.08c-0.5-1.54-2.2-0.83-3.03-0.02c-3.56,3.5-6.54,7.88-7.69,12.73
		c-0.32,1.89,0.04,2.35,1.97,2.19c0.34,0,0.62,0.29,0.62,0.62C97.25,84.41,96.25,84.18,95.68,84.2z"/>
	<path class="st11" d="M118.03,94.09c-2.13-2.41-5.15-3.64-8.32-3.34c-0.65-0.08-1.85,0.3-1.93-0.64c0-0.35,0.29-0.63,0.64-0.64
		c2.33-0.02,4.77-0.19,6.91,0.92c0.82,0.44,4.52,2.71,3.6,3.71C118.69,94.33,118.28,94.33,118.03,94.09z"/>
	<path class="st11" d="M118.62,106.86c-2.5-2.28-5.78-2.73-9-2.55c-0.81,0.01-0.82-1.27,0-1.26c2.43,0,5-0.13,7.21,1.08
		c0.7,0.52,3.36,1.57,2.69,2.61C119.31,107.02,118.89,107.07,118.62,106.86z"/>
	<path class="st11" d="M116.51,114.07c-1.78-0.33-3.59-0.44-5.39-0.4c-0.54,0.01-1.4,0.13-1.42-0.63c0-0.35,0.29-0.63,0.63-0.63
		c2.12-0.07,4.27-0.03,6.36,0.4C117.51,112.92,117.33,114.2,116.51,114.07z"/>
	<path class="st11" d="M103.23,125.51c-0.84-1.85-1.88-3.72-3.18-5.25c-2.13-2.32-5.14-3.41-7.96-4.61
		c-0.32-0.14-0.48-0.52-0.34-0.84s0.52-0.48,0.84-0.34c2.63,1.13,5.39,2.15,7.56,4.07c0.93,0.59,5.47,6.76,3.93,7.32
		C103.76,125.99,103.38,125.84,103.23,125.51z"/>
	<path class="st11" d="M81.62,120.38c-6.17-0.6-1.52-12.18,2.83-5.59c0.1-1.19,1.39-3.28,2.51-1.69c0.66,1.33-0.51,2.73-1.14,3.86
		c0.23,0.38,0.2,0.93-0.28,1.07c-0.11,0.74,0.47,1.89-0.49,2.13c-0.65,0.08-0.8-0.59-0.78-1.1
		C83.57,119.77,82.66,120.43,81.62,120.38z M81.9,119.06c0,0,0.01,0,0.01,0c0.01,0,0.01,0,0.02,0c-0.01,0-0.01,0-0.02,0
		c-0.03,0-0.05,0-0.07,0c1.09-0.22,1.74-1.23,2.37-2.06c0-0.15,0.01-0.3,0.02-0.44c-0.64-0.93-1.28-1.75-2.15-2.41
		c-0.19-0.08-0.4-0.17-0.6-0.12c-1.38,0.78-1.95,3.08-1.15,4.41c-0.01-0.01-0.02-0.02-0.03-0.03c-0.01-0.02-0.03-0.04-0.04-0.06
		C80.65,118.84,81.3,119.1,81.9,119.06C81.91,119.06,81.9,119.06,81.9,119.06z"/>
	<path class="st11" d="M55.34,114.49c-1.11-0.48,0.09-2.04,0.46-2.74c2.63-4.42,9.87-7.02,13.08-1.84c0.86-1.8,1.85-3.55,2.88-5.26
		c0.18-0.29,0.56-0.4,0.86-0.23c0.29,0.17,0.4,0.57,0.23,0.86c-0.76,1.28-1.51,2.56-2.18,3.89c-0.56,0.89-1.4,4.19-2.58,2.02
		c-2.15-4.71-7.77-3.01-10.46,0.24c-0.66,0.79-1.25,1.62-1.51,2.62C56.03,114.38,55.67,114.58,55.34,114.49z"/>
	<path class="st11" d="M159.24,89.49c-1.45-0.05-2.91,0-4.35-0.2c-1.07-0.21-0.4-1.72,0.49-1.23c1.3,0.13,2.56,0.13,3.86,0.18
		c0.34,0.01,0.62,0.28,0.62,0.62C159.86,89.2,159.57,89.5,159.24,89.49z"/>
	<path class="st11" d="M73.43,63.37c-1.87-1.26-9.31-3.68-8.78-6.11c0.18-0.54,0.8-0.72,1.31-0.73c0.9-0.09,0.94,1.28,0.04,1.26
		c2.33,1.95,5.35,2.95,7.98,4.46C74.65,62.61,74.11,63.69,73.43,63.37z"/>
	<path class="st11" d="M23.4,65.79c0.05-0.43,0.48-0.64,0.82-0.82c2.22-1.33,4.65-2.27,7.14-2.96c0.33-0.09,0.68,0.11,0.77,0.44
		s-0.11,0.68-0.44,0.77c-1.09,0.3-2.17,0.65-3.21,1.08c-1.46,0.6-2.93,1.24-4.2,2.16C23.84,66.65,23.34,66.27,23.4,65.79z"/>
</g>
</svg>
