<?xml version="1.0" encoding="utf-8"?>
<!-- Generator: Adobe Illustrator 27.7.0, SVG Export Plug-In . SVG Version: 6.00 Build 0)  -->
<svg version="1.1" id="圖層_1" xmlns="http://www.w3.org/2000/svg" xmlns:xlink="http://www.w3.org/1999/xlink" x="0px" y="0px"
	 viewBox="0 0 40 135" style="enable-background:new 0 0 40 135;" xml:space="preserve">
<style type="text/css">
	.st0{fill:none;}
	.st1{fill:#294A26;}
	.st2{fill:#1F2214;}
	.st3{fill:#9E6924;}
	.st4{fill:#164323;}
	.st5{fill:#293B1D;}
	.st6{fill:#2A4D28;}
	.st7{fill:#749A2F;}
	.st8{fill:#76933C;}
	.st9{fill:#5F7D33;}
	.st10{fill:#3F562A;}
	.st11{fill:#101D0A;}
	.st12{fill:#C89A5D;}
	.st13{fill:#F2C1A3;}
	.st14{fill:#A87762;}
	.st15{fill:#3E3526;}
	.st16{fill:#28201C;}
	.st17{fill:#040000;}
	.st18{fill:#41617E;}
	.st19{fill:#DDB3A2;}
	.st20{fill:#A34529;}
	.st21{fill:#E7D0C8;}
	.st22{fill:#282828;}
	.st23{fill:#B1927D;}
	.st24{fill:#A3A399;}
	.st25{fill:#BF8466;}
	.st26{fill:#424242;}
	.st27{fill:#552D18;}
	.st28{fill:#A1BA39;}
	.st29{fill:#E2E1E1;}
	.st30{fill:#0D2037;}
	.st31{fill:#968272;}
	.st32{fill:#9CA2C4;}
	.st33{fill:#928884;}
	.st34{fill:#DCA88D;}
	.st35{fill:#BBB6C5;}
	.st36{fill:#9C6D4D;}
	.st37{fill:#080605;}
	.st38{fill:#2A6031;}
	.st39{fill:#FEFAFC;}
	.st40{fill:#509AB3;}
	.st41{fill:#4F431E;}
	.st42{fill:#3D6832;}
	.st43{fill:#84B733;}
	.st44{fill:#1B2912;}
	.st45{fill:#806F68;}
	.st46{fill:#4A3332;}
	.st47{fill:#9BD7F0;}
	.st48{fill:#78484B;}
	.st49{fill:#A1D9F2;}
	.st50{fill:#523D38;}
	.st51{fill:#C1A09C;}
	.st52{fill:#65676D;}
	.st53{fill:#C7BBAC;}
	.st54{fill:#5E6166;}
	.st55{fill:#CA997D;}
	.st56{fill:#C6C2B6;}
	.st57{fill:#17151C;}
	.st58{fill:#5D5A5C;}
	.st59{fill:#030810;}
	.st60{fill:none;stroke:#040000;stroke-width:0;stroke-linecap:round;stroke-linejoin:round;}
	.st61{fill:#9F8D89;}
	.st62{fill:#EECFCD;}
	.st63{fill:#BACAE8;}
	.st64{fill:#370504;}
	.st65{fill:#212022;}
	.st66{fill:#EC6B5E;}
</style>
<g>
	<path class="st0" d="M10.03,29.08c-0.29,0.45-0.51,0.93-0.7,1.43c0.02,0.01,0.03,0.02,0.05,0.03c0.24-0.15,0.51-0.24,0.78-0.27
		c0.24-0.52,0.51-1.03,0.81-1.52c0.04-0.07,0.08-0.14,0.13-0.22c0.03-0.05,0.06-0.1,0.09-0.15c0.18-0.3,0.37-0.58,0.58-0.84
		C11.13,27.97,10.53,28.46,10.03,29.08z"/>
	<path class="st0" d="M35.82,44.55c-0.13-0.06-0.23-0.16-0.3-0.27c0.01,2.05,0.08,4.1,0.17,6.15c0.32,0.05,0.58,0.21,0.8,0.44
		c-0.17-1.13-0.35-2.26-0.5-3.39C35.93,47.08,35.83,45.88,35.82,44.55z"/>
	<path class="st0" d="M25.65,20.55c0.76-0.14,1.51-0.33,2.22-0.6c0.04-0.12,0.09-0.23,0.14-0.33
		C27.28,19.99,26.48,20.31,25.65,20.55z"/>
	<path class="st0" d="M23.97,110.6c0.15-0.41,0.3-0.81,0.44-1.22c-0.07-0.01-0.14-0.03-0.21-0.05
		C24.12,109.75,24.05,110.18,23.97,110.6z"/>
	<path class="st0" d="M19.33,128.91c0.16,0.15,0.35,0.29,0.56,0.42c-0.01-0.03-0.02-0.06-0.03-0.09
		C19.66,129.14,19.49,129.03,19.33,128.91z"/>
	<path class="st0" d="M23.81,125.42c0.08,0.29,0.19,0.59,0.31,0.9C24.02,126.02,23.91,125.72,23.81,125.42z"/>
	<path class="st0" d="M16.2,107.68c-0.01-0.05-0.03-0.1-0.04-0.15c0.45,3.26,1.06,6.5,1.87,9.67
		C17.33,113.89,16.96,110.84,16.2,107.68z"/>
	<path class="st0" d="M18.28,118.16c0.01-0.08,0.02-0.15,0.04-0.22c-0.08-0.11-0.15-0.25-0.2-0.4
		C18.18,117.74,18.22,117.95,18.28,118.16z"/>
	<path class="st0" d="M22.04,52.5c0.01-0.04,0.01-0.08,0.02-0.12c-0.13,0.07-0.27,0.13-0.41,0.19c0.13,0,0.26,0,0.38,0.01
		C22.04,52.55,22.04,52.52,22.04,52.5z"/>
	<path class="st0" d="M22.44,12.96c0.01,0.01,0.03,0.02,0.04,0.03c0.11,0.08,0.22,0.16,0.32,0.24c0.05-0.07,0.11-0.13,0.18-0.19
		c-0.01,0-0.01,0-0.02,0C22.78,13.04,22.61,13,22.44,12.96z"/>
	<path class="st0" d="M16.18,9.68c-0.02-0.25-0.02-0.5,0-0.76c0.04-0.39,0.25-0.77,0.45-1.11c0.38-0.66,0.9-1.18,1.48-1.67
		c0.27-0.23,0.54-0.44,0.83-0.64C19,5.46,19.08,5.44,19.15,5.4c0.72-0.99,2.31-1.37,3.84-0.62c0.18,0.08,0.34,0.18,0.5,0.28
		c-0.36-0.34-0.76-0.64-1.2-0.87c-1.14-0.07-2.45-0.07-3.44,0.55c-1.33,1.43-2.54,3.12-3.21,4.98c0.13,0.01,0.26,0.04,0.39,0.08
		c0.06,0.06,0.11,0.12,0.14,0.18c0-0.03,0.01-0.06,0.01-0.09C16.18,9.82,16.18,9.75,16.18,9.68z"/>
	<path class="st0" d="M17.51,15.86c0.08,0.07,0.16,0.13,0.24,0.19c0.07,0.04,0.14,0.09,0.22,0.12c0,0,0.01,0,0.01,0
		c-0.02-0.08-0.03-0.16-0.04-0.24c-0.18-0.08-0.37-0.15-0.42-0.17c-0.04-0.02-0.09-0.03-0.14-0.04c0,0-0.01,0-0.01,0c0,0,0,0,0,0
		C17.41,15.76,17.46,15.81,17.51,15.86z"/>
	<path class="st0" d="M16.13,10.61c-0.06,0.08-0.14,0.14-0.24,0.2c0.01,0.05,0.03,0.09,0.04,0.14c0.07-0.02,0.14-0.03,0.21-0.05
		C16.12,10.8,16.13,10.71,16.13,10.61z"/>
	<path class="st0" d="M9.73,45.92c0.03,0.71,0.06,1.42,0.11,2.12c0.04-0.01,0.08-0.01,0.12-0.02c0.03-0.09,0.05-0.19,0.07-0.29
		c-0.1-0.64-0.18-1.27-0.25-1.88C9.76,45.88,9.75,45.9,9.73,45.92z"/>
	<path class="st0" d="M11.43,16.28c-0.16-0.76,0.04-1.61,0.68-2.11c0.12-0.1,0.26-0.17,0.39-0.22c0.02-0.09,0.05-0.17,0.07-0.26
		c0.23-0.69,0.62-1.3,1.15-1.8c0.07-0.07,0.15-0.12,0.22-0.17c-0.17,0.12-0.34,0.25-0.51,0.39c-2.29,2.01-3.33,5.02-0.08,6.62
		C12.43,18.17,11.66,17.37,11.43,16.28z"/>
	<path class="st0" d="M15.17,21.22c0.12-0.08,0.25-0.14,0.39-0.19c0-0.01,0.01-0.02,0.02-0.03c-0.27-0.08-0.54-0.16-0.81-0.25
		c-0.05,0.05-0.11,0.1-0.19,0.13c-0.03,0.09-0.04,0.18-0.07,0.27C14.73,21.13,14.96,21.15,15.17,21.22z"/>
	<path class="st0" d="M16.07,26.12c0,0.03,0,0.05,0,0.08c0.03,0,0.05,0.01,0.08,0.01c-0.01-0.03-0.02-0.07-0.03-0.11
		C16.1,26.11,16.09,26.11,16.07,26.12z"/>
	<path class="st0" d="M3.61,68.35c-0.15,0.03-0.31,0.03-0.5,0.01c-0.15-0.02-0.29-0.06-0.41-0.12c0.01,0.38,0.04,0.75,0.13,1.12
		c0.02,0.01,0.03,0.03,0.04,0.05c0.04-0.1,0.1-0.19,0.18-0.25c0.57-0.43,0.95,0.24,1.31,0.6c0.59,0.48,0.97,0.19,1.22-0.38
		c-0.31,0.21-0.81,0.14-0.96-0.23c-0.04-0.01-0.07,0-0.11-0.01C4.08,69.02,3.79,68.72,3.61,68.35z"/>
	<path class="st0" d="M28.01,26.73c0.01-0.02,0.03-0.04,0.04-0.06c-0.05-0.03-0.1-0.08-0.14-0.12c-0.12,0.11-0.26,0.21-0.42,0.27
		c0.09,0.07,0.19,0.15,0.28,0.22c0.05-0.03,0.11-0.05,0.16-0.07C27.94,26.89,27.96,26.81,28.01,26.73z"/>
	<path class="st0" d="M20.44,22.26c0.2-0.14,0.44-0.23,0.77-0.23c0.12,0,0.22,0.03,0.32,0.05c0.01-0.03,0.02-0.06,0.03-0.09
		c-0.4-0.03-0.83-0.07-1.28-0.11c0.02,0.1,0.03,0.19,0.04,0.29C20.36,22.19,20.4,22.22,20.44,22.26z"/>
	<path class="st0" d="M14.63,86.86c-0.02,0.16-0.05,0.32-0.07,0.48c0.06-0.15,0.12-0.3,0.19-0.45c-0.04-0.05-0.07-0.09-0.11-0.14
		C14.64,86.78,14.64,86.82,14.63,86.86z"/>
	<path class="st0" d="M17.97,92.93c0.04,0.01,0.08,0.02,0.13,0.03c-0.03-0.07-0.06-0.14-0.09-0.22
		C17.99,92.8,17.98,92.87,17.97,92.93z"/>
	<path class="st0" d="M17.2,96.24c0.04,0.1,0.11,0.18,0.19,0.25c0.08-0.1,0.16-0.19,0.24-0.29c-0.13-0.04-0.25-0.07-0.38-0.1
		C17.23,96.14,17.21,96.19,17.2,96.24z"/>
	<path class="st0" d="M35.76,82.65c0.19,0.09,0.35,0.22,0.48,0.37c0.07-4.32-0.13-8.64-0.7-12.9c-0.18,0.61-0.38,1.21-0.59,1.8
		C36.07,75.37,35.24,79.11,35.76,82.65z"/>
	<path class="st0" d="M24.87,102.29c-0.09-0.01-0.17-0.01-0.26-0.01c0.4,0.21,0.69,0.6,0.71,1.13c0.16,0,0.32,0.01,0.48,0
		c-0.18-0.24-0.34-0.5-0.44-0.8C25.19,102.51,25.03,102.4,24.87,102.29z"/>
	<path class="st0" d="M25.05,92.31c-0.07,0.27-0.15,0.53-0.22,0.8c0.02,0.02,0.04,0.05,0.06,0.07c0,0,0.01,0,0.01-0.01
		c0.15-0.13,0.32-0.25,0.5-0.35c-0.12-0.14-0.22-0.28-0.31-0.45C25.07,92.35,25.06,92.33,25.05,92.31z"/>
	<path class="st0" d="M19.57,28.25c0,0.04,0,0.07-0.01,0.11c0.08,0.06,0.15,0.11,0.22,0.17c0.08-0.16,0.16-0.31,0.26-0.46
		c-0.07,0.02-0.14,0.04-0.21,0.06C19.74,28.17,19.65,28.21,19.57,28.25z"/>
	<path class="st0" d="M21.3,106.09c0,0.73,0,1.46,0,2.18c0.12-0.74,0.24-1.48,0.39-2.22C21.57,106.08,21.44,106.09,21.3,106.09z"/>
	<path class="st0" d="M26.14,82.37c0.01,0.08,0.02,0.15,0.03,0.23c0.01,0.01,0.02,0.01,0.03,0.02c0.01-0.14,0.02-0.28,0.04-0.42
		c-0.02-0.01-0.03-0.02-0.05-0.03C26.18,82.23,26.16,82.3,26.14,82.37z"/>
	<path class="st0" d="M7.8,94.52c0.02,1.61,0.05,3.23,0.07,4.84c0.05-0.31,0.14-0.65,0.31-1.03C8.02,97.06,7.9,95.79,7.8,94.52z"/>
	<path class="st0" d="M20,102.91c0-0.1,0.02-0.19,0.03-0.28c-0.32,0.04-0.65,0.08-0.97,0.12C19.38,102.81,19.69,102.86,20,102.91z"
		/>
	<path class="st0" d="M7.88,100.26c0.01,0.65,0.02,1.3,0.02,1.95c0,0,0,0,0,0c2.06,0.15,4.13,0.05,6.19,0.07
		c-0.25-0.11-0.5-0.23-0.75-0.38C11.32,102.2,8.3,102.11,7.88,100.26z"/>
	<path class="st0" d="M21.64,115.26c-0.06-0.01-0.11-0.04-0.17-0.06c0.04,0.84,0.1,1.61,0.16,2.4c0.1-0.73,0.44-1.68,0.72-2.43
		C22.15,115.25,21.92,115.29,21.64,115.26z"/>
	<path class="st0" d="M23.14,102.28c-0.64,0.04-1.28,0.11-1.92,0.19c0.01,0.18,0.01,0.37,0.01,0.55c0.14,0.02,0.28,0.07,0.41,0.13
		c0.28,0.04,0.55,0.07,0.83,0.1c0.02-0.05,0.03-0.1,0.05-0.15C22.64,102.71,22.86,102.45,23.14,102.28z"/>
	<path class="st18" d="M26,9.09c-0.55-1.44-1.35-2.96-2.51-4.03c-0.17-0.09-0.32-0.2-0.5-0.28c-1.53-0.75-3.12-0.37-3.84,0.62
		C19.08,5.44,19,5.46,18.93,5.51c-0.29,0.2-0.56,0.41-0.83,0.64c-0.58,0.49-1.1,1.01-1.48,1.67c-0.19,0.33-0.41,0.71-0.45,1.11
		c-0.03,0.26-0.02,0.51,0,0.76c0,0.07,0,0.13,0,0.2c0,0.03-0.01,0.06-0.01,0.09c0.15,0.24,0.11,0.46-0.03,0.64
		c0,0.1-0.01,0.19,0.01,0.29c-0.07,0.02-0.14,0.03-0.21,0.05c0.01,0.1,0,0.21-0.03,0.31c-0.03,1.08,0.93,1.81,1.71,2.39
		c0.29,0.18,0.69,0.36,1.14,0.53c-0.66-0.3-1.28-0.7-1.8-1.25c-0.48-0.4-0.89-1.42-0.02-1.6c0.29-0.04,0.53,0.13,0.64,0.38
		c0.24,0.36,0.59,0.62,0.94,0.87c1.84,1.05,4.17,1.42,6.21,1.08c0.88-0.34,1.67-1.02,2.23-1.72c0.18-0.25,0.54-0.31,0.8-0.16
		c0.75,0.52-0.08,1.27-0.51,1.69c-0.49,0.49-1.06,0.92-1.69,1.22c0.01,1-2.21,1.52-3.01,1.39c-2.81-0.01-6.08-0.75-7.55-3.37
		c-0.25,0.22-0.67,0.27-0.91-0.07c-0.08-0.31-0.11-0.62-0.12-0.93c0,0,0,0-0.01,0c-0.07,0.06-0.15,0.11-0.22,0.17
		c-0.53,0.5-0.92,1.11-1.15,1.8c-0.03,0.08-0.05,0.17-0.07,0.26c-0.14,0.05-0.27,0.13-0.39,0.22c-0.64,0.49-0.84,1.35-0.68,2.11
		c0.23,1.09,1,1.88,1.93,2.45c0.02,0.01,0.04,0.03,0.07,0.04c1.28,0.53,2.69,0.99,4.15,1.34c0.26-0.16,0.56-0.23,0.9-0.19
		c0.48,0.09,0.78,0.29,0.96,0.57c2.09,0.34,4.23,0.41,6.23,0.05c0.83-0.24,1.63-0.55,2.37-0.93c0.29-0.55,0.78-0.94,1.42-0.87
		c1.22-0.91,2.11-2.07,2.36-3.48c0.12-0.87-0.61-1.55-1.31-1.95c-0.52-0.33-1.04-0.67-1.58-0.97c-0.03-0.01-0.07-0.03-0.1-0.04
		c-0.07-0.03-0.14-0.07-0.19-0.12c-0.3-0.16-0.61-0.31-0.93-0.43c-0.04-0.13-0.08-0.27-0.12-0.4c-0.06,0.06-0.12,0.12-0.21,0.16
		C26.23,11.66,26.39,9.77,26,9.09z M22.8,13.23c-0.1-0.09-0.21-0.17-0.32-0.24c-0.01-0.01-0.03-0.02-0.04-0.03
		c0.17,0.04,0.35,0.08,0.53,0.08c0.01,0,0.01,0,0.02,0C22.91,13.1,22.85,13.17,22.8,13.23z M17.38,15.72
		c0.05,0.01,0.09,0.03,0.14,0.04c0.05,0.03,0.24,0.1,0.42,0.17c0.01,0.08,0.03,0.16,0.04,0.24c0,0-0.01,0-0.01,0
		c-0.07-0.04-0.15-0.08-0.22-0.12c-0.08-0.06-0.16-0.12-0.24-0.19c-0.05-0.04-0.1-0.09-0.14-0.14c0,0,0,0,0,0
		C17.37,15.72,17.37,15.72,17.38,15.72z"/>
	<path class="st19" d="M5.34,59.02c0.02,0,0.04,0.01,0.06,0.02c0.31-0.26,0.79-0.26,1.04,0.07c0.55,0.79-0.59,1.44-1.29,1.3
		c-0.04-0.01-0.07-0.03-0.1-0.04c-0.26,1.24-0.54,2.49-0.85,3.65c-0.96,1.17-1.53,2.72-1.5,4.23c0.12,0.06,0.26,0.1,0.41,0.12
		c0.18,0.02,0.35,0.02,0.5-0.01c0.17,0.37,0.47,0.67,0.9,0.79c0.04,0.01,0.07,0,0.11,0.01c-0.03-0.07-0.05-0.16-0.05-0.26
		c0.16-0.81-0.32-3.1,0.95-2.96c0,0,0,0,0,0c0.31,0.07,0.51,0.43,0.42,0.74c-0.09,0.64-0.09,1.21-0.1,1.82
		c0.15-0.8,0.17-1.7,0.14-2.06c0.02-1.47-0.67-3-0.16-4.42c0.29-0.45,0.56-1.75,1-2.47c-0.18-0.71-0.83-1.04-1.47-1
		C5.4,58.69,5.4,58.85,5.34,59.02z"/>
	<path class="st19" d="M18.03,117.19c0.03,0.11,0.06,0.23,0.09,0.34c0.05,0.15,0.12,0.29,0.2,0.4c0.08-0.29,0.24-0.5,0.6-0.56
		c0.41,0.07,0.58,0.33,0.64,0.67c0.01,0,0.01,0.01,0.01,0.02c0.25-0.01,0.5,0,0.75,0.03c-0.45-4.56-0.33-9.16-0.32-13.75
		c-0.21-0.04-0.42-0.07-0.63-0.13c-1.07-0.28-2.15-0.41-3.24-0.48c0.06,0.28-0.01,0.55-0.36,0.69c0.12,1.03,0.25,2.07,0.39,3.1
		c0.01,0.05,0.03,0.1,0.04,0.15C16.96,110.84,17.33,113.89,18.03,117.19z"/>
	<path class="st19" d="M21.24,103.02c0,0.03,0,0.05,0,0.08c0.14,0.02,0.27,0.04,0.41,0.05C21.52,103.09,21.38,103.04,21.24,103.02z"
		/>
	<path class="st19" d="M24.61,102.28c-0.49-0.03-0.98-0.03-1.47,0c-0.28,0.16-0.51,0.43-0.61,0.82c-0.02,0.05-0.03,0.1-0.05,0.15
		c0.94,0.1,1.89,0.16,2.84,0.16C25.31,102.89,25.01,102.5,24.61,102.28z"/>
	<path class="st19" d="M22.35,115.17c0.16-0.44,0.29-0.81,0.33-1.04c0.43-1.18,0.87-2.35,1.29-3.53c0.08-0.42,0.16-0.85,0.23-1.27
		c0.07,0.02,0.15,0.04,0.21,0.05c0.54-1.52,1.04-3.05,1.49-4.61c-1.55,0-3.09-0.01-4.63-0.21c0.01,0.51,0.02,1.02,0.03,1.53
		c0.14,0.01,0.27,0,0.39-0.04c-0.15,0.74-0.27,1.48-0.39,2.22c0,2.26,0,4.51,0.16,6.76c0,0.06,0.01,0.11,0.01,0.17
		c0.06,0.02,0.1,0.04,0.17,0.06C21.92,115.29,22.15,115.25,22.35,115.17z"/>
	<path class="st19" d="M27.18,105.07c-0.16,0.62-0.34,1.22-0.53,1.83c0.09-0.19,0.17-0.37,0.27-0.52c0.61-0.33,0.82-1,0.69-1.61
		c-0.11,0-0.23,0-0.35,0C27.24,104.87,27.2,104.97,27.18,105.07z"/>
	<path class="st20" d="M18.23,119.95c-0.13,0.07-0.27,0.12-0.4,0.12c-0.19,0.92-0.14,1.96-0.25,2.82c0.01,0.55,0.01,1.13,0.03,1.72
		c0.1-0.49,0.22-1,0.37-1.56C18.14,122,18.13,120.98,18.23,119.95z"/>
	<path class="st20" d="M19.36,122.83c-0.02,0.11-0.04,0.22-0.06,0.33c0.06-0.1,0.13-0.2,0.2-0.29
		C19.45,122.85,19.41,122.84,19.36,122.83z"/>
	<path class="st20" d="M23.05,121.79c-0.14-0.05-0.27-0.15-0.36-0.28c-0.44-1.3-1.75-2.18-3.07-2.1c-0.01,0.11-0.03,0.22-0.04,0.33
		c0.01,0.04,0.01,0.09,0.02,0.14c0,0.11-0.02,0.2-0.06,0.28c-0.04,0.41-0.07,0.82-0.09,1.23c0.01,0.01,0.02,0.01,0.03,0.03
		c0.31,0.12,0.87,0.21,1.49,0.32c0.56-0.19,1.16-0.16,1.64,0.28c0.03,0.03,0.04,0.06,0.06,0.09c0.17,0.05,0.33,0.1,0.48,0.16
		C23.11,122.1,23.08,121.94,23.05,121.79z"/>
	<path class="st20" d="M24.21,132.14c-0.32-0.06-0.63-0.12-0.93-0.18C23.56,132.13,23.89,132.19,24.21,132.14z"/>
	<path class="st20" d="M25.14,129.23c-0.28-0.99-0.66-1.95-1.01-2.91c-0.12-0.31-0.24-0.61-0.31-0.9c-0.18-0.54-0.33-1.09-0.44-1.65
		c-0.04,0-0.08,0.02-0.12,0.01c-0.69-0.09-1.48-0.47-2.12-0.59c-0.04-0.01-0.08-0.02-0.12-0.03c-0.56,0.48-0.81,1.56-1.65,1.18
		c-0.13-0.08-0.21-0.18-0.25-0.28c-0.17,0.72-0.34,1.43-0.36,2.17c-0.2,1.37,0.01,2.12,0.58,2.67c0.16,0.12,0.33,0.23,0.53,0.33
		c0.01,0.03,0.02,0.06,0.03,0.09c0.43,0.25,0.96,0.48,1.61,0.73c0.98,0.22,2.04,0.82,3.03,0.65
		C24.89,130.3,25.19,129.8,25.14,129.23z"/>
	<path class="st21" d="M30.88,52.99c-0.33,0.26-0.7,0.47-1.12,0.6c-3.72,0.69-7.54,0.33-11.3,0.33c-1.39-0.06-2.83,0.06-4.21-0.12
		c-0.05,0.1-0.13,0.19-0.24,0.25c-1.75,3.73-2.39,7.78-3.37,11.74c-1.16,4.69-2.15,9.55-2.57,14.32c-0.35,4.8-0.33,9.61-0.26,14.41
		c0.1,1.27,0.23,2.54,0.39,3.81c-0.17,0.38-0.26,0.72-0.31,1.03c0,0.3,0.01,0.6,0.01,0.9c0.42,1.84,3.44,1.94,5.46,1.64
		c0.25,0.15,0.5,0.27,0.75,0.38c1.12,0.01,2.23,0.05,3.34,0.18c0.54,0.1,1.09,0.2,1.63,0.3c0.32-0.04,0.64-0.08,0.97-0.12
		c0.06-0.32,0.22-0.56,0.61-0.61c0.25,0,0.52,0.18,0.58,0.44c0,0,0,0.01,0,0.01c0.64-0.08,1.28-0.16,1.92-0.19
		c0.49-0.03,0.98-0.03,1.47,0c0.09,0.01,0.17,0.01,0.26,0.01c0.16,0.11,0.32,0.22,0.48,0.32c0.1,0.3,0.26,0.56,0.44,0.8
		c0.16,0,0.33-0.01,0.49-0.02c0.11-0.36,0.29-0.68,0.7-0.74c0.34-0.03,0.65,0.18,0.7,0.52c-0.01,0.06-0.03,0.12-0.05,0.18
		c2.23-0.01,4.45,0.44,6.62-0.11c-0.15-0.19-0.2-0.46-0.1-0.69c0.77-2.46,1-5.05,1.27-7.61c0.46-3.94,0.75-7.93,0.81-11.92
		c-0.14-0.15-0.29-0.28-0.48-0.37c-0.51-3.54,0.31-7.28-0.81-10.72c0.21-0.6,0.41-1.2,0.59-1.8c-0.78-5.83-2.23-11.56-4.61-17.01
		C30.9,53.07,30.9,53.03,30.88,52.99z M14.56,87.33c0.02-0.16,0.05-0.32,0.07-0.48c0.01-0.04,0.01-0.08,0.02-0.11
		c0.03,0.05,0.07,0.09,0.11,0.14C14.69,87.03,14.62,87.18,14.56,87.33z M17.39,96.48c-0.08-0.07-0.15-0.15-0.19-0.25
		c0.01-0.05,0.03-0.1,0.04-0.14c0.13,0.03,0.26,0.06,0.38,0.1C17.55,96.29,17.47,96.39,17.39,96.48z M17.97,92.93
		c0.01-0.06,0.03-0.12,0.04-0.19c0.03,0.07,0.06,0.15,0.09,0.22C18.05,92.95,18.01,92.94,17.97,92.93z M24.89,93.18
		C24.88,93.18,24.88,93.18,24.89,93.18c-0.03-0.02-0.04-0.04-0.06-0.06c0.07-0.27,0.15-0.53,0.22-0.8c0.01,0.02,0.02,0.04,0.03,0.06
		c0.09,0.17,0.19,0.32,0.31,0.45C25.21,92.93,25.04,93.04,24.89,93.18z M26.21,82.62c-0.01-0.01-0.02-0.01-0.03-0.02
		c-0.01-0.08-0.02-0.15-0.03-0.23c0.02-0.07,0.03-0.14,0.05-0.21c0.02,0.01,0.03,0.02,0.05,0.03
		C26.23,82.34,26.22,82.48,26.21,82.62z"/>
	<path class="st21" d="M36.4,62.07c-0.91-0.54,0.17-1.66,0.29-2.4c0.72-1.82,0.67-3.58,0-5.37c-0.04-0.25,0.07-0.43,0.23-0.54
		c-0.14-0.97-0.27-1.93-0.42-2.9c-0.21-0.23-0.47-0.39-0.8-0.44c-0.09-2.05-0.17-4.1-0.17-6.15c-0.06-0.1-0.11-0.21-0.1-0.34
		c0.03-2.29,0.03-4.58,0-6.88c0.13-0.67-0.33-2.01,0.01-2.67c-0.11-0.77-0.26-1.52-0.46-2.19c-0.2-0.03-0.38-0.15-0.48-0.39
		c-0.43-0.92-1.14-1.61-1.89-2.28c-0.17,0.01-0.34,0.03-0.53,0.1c-0.82-0.72-1.61-2.16-2.66-2.65c-0.28,0.46-0.61,0.93-1.16,0.63
		c-0.21-0.12-0.34-0.39-0.31-0.63c-0.05,0.02-0.1,0.04-0.16,0.07c-0.09-0.08-0.18-0.15-0.28-0.22c-0.24,0.1-0.53,0.13-0.88,0.07
		c-0.24-0.06-0.43-0.17-0.58-0.32c-0.42,0.2-0.96,0.2-1.36-0.04c-0.41-0.25-0.59-0.56-0.64-0.9c-0.48,0.5-1.29,0.62-1.86,0.22
		c-0.43,0.35-1.06,0.41-1.56,0.2c-0.19,0.45-0.55,0.77-1.24,0.8c-0.32,0-0.61-0.11-0.84-0.29c-0.33,0.42-0.8,0.66-1.45,0.48
		c-0.5-0.14-0.79-0.45-0.92-0.83c-0.03,0-0.05-0.01-0.08-0.01c0,0.08,0,0.17,0.01,0.25c-0.03,1.8-2.62,1.86-2.84,0.2
		c-0.51,0.27-1,0.57-1.47,0.89c-0.22,0.26-0.41,0.55-0.58,0.84c-0.03,0.05-0.06,0.1-0.09,0.15c-0.04,0.07-0.09,0.14-0.13,0.22
		c-0.3,0.49-0.57,1-0.81,1.52c-0.28,0.03-0.54,0.12-0.78,0.27c-0.02-0.01-0.03-0.02-0.05-0.03C9.15,30.97,9,31.46,8.86,31.93
		c-0.1,0.35-0.48,0.57-0.82,0.47c-0.35-0.09-0.57-0.47-0.47-0.82c0.11-0.4,0.24-0.8,0.38-1.2c-2.09,1.03-1.72,9.35-1.66,14.33
		c0.1-0.04,0.21-0.05,0.32-0.04c-0.19-0.12-0.33-0.31-0.32-0.55c0.17-3.14,0.29-6.13,0.42-9.25c0.01-0.37,0.3-0.67,0.67-0.67
		c0.36,0,0.68,0.3,0.67,0.67c-0.04,1.25-0.13,2.51-0.18,3.76c-0.04,1.85-0.2,3.67-0.28,5.48c-0.02,0.36-0.29,0.65-0.65,0.65
		c-0.02,0-0.03-0.01-0.04-0.01c0.15,0.1,0.27,0.26,0.27,0.5c0.01,0.34-0.08,0.68-0.15,1c-0.96,3.74-3.83,7.33-3.14,11.34
		c0.01,0.02,0.02,0.04,0.03,0.05c0.63,0.35,1.5,0.34,2.17-0.18c0.52,1.43,2.46,1.41,3.38,0.35c1.55-1.4,1.64-3.59,2.24-5.48
		c-0.9-1.24-1.36-2.92-1.64-4.62c-0.03,0.09-0.05,0.19-0.07,0.29c-0.04,0.01-0.08,0.01-0.12,0.02c-0.05-0.71-0.08-1.41-0.11-2.12
		c0.02-0.02,0.04-0.04,0.05-0.07c-0.09-0.79-0.15-1.54-0.23-2.21c-0.13-2.2-0.08-4.4-0.07-6.6c-0.14-0.66,0.44-1.43,1.08-0.86
		c0.47,1.1,0.08,2.49,0.21,3.69c0.1,3.98,0.06,8.2,2.03,11.72c0.35,0.75,1.16,0.77,1.88,0.85c0.93,0.05,1.86,0.07,2.78,0.07
		c-0.88-2.22-1.86-4.69-1.43-7.07c0.1-0.31,0.36-0.48,0.64-0.6c0.21-0.19,0.33-0.47,0.57-0.62c0.47-0.3,1.09,0.25,0.86,0.75
		c-0.21,0.37-0.5,0.72-0.86,0.97c-0.13,2.21,0.79,4.36,1.54,6.34c0.05,0.08,0.07,0.17,0.08,0.25c0.63,0.01,1.26,0.01,1.88,0.03
		c0.3,0,0.61,0.01,0.91,0.01c0.14-0.07,0.28-0.12,0.41-0.19c-0.01,0.04-0.01,0.08-0.02,0.12c0,0.03-0.01,0.05-0.01,0.08
		c1.42,0.02,2.84,0.06,4.26,0c-0.06-0.11-0.09-0.24-0.07-0.37c0.16-1.38,0.35-2.77,0.41-4.17c0.05-1.04,0-2.08,0.02-3.13
		c0.01-0.33,0.27-0.61,0.61-0.61s0.61,0.28,0.61,0.61c0.03,1.46,0.08,2.93-0.04,4.39c-0.09,1.03-0.19,2.06-0.32,3.08
		c-0.01,0.04-0.03,0.08-0.04,0.12c0.75-0.06,1.5-0.16,2.24-0.31c1.73-1.19,2.12-3.96,2.5-5.88c0.26-1.64,0.37-3.3,0.59-4.94
		c0.14-0.62,1.09-0.61,1.24,0c0.13,1.1,0.22,2.52-0.34,3.49c-0.32,2.07-0.61,5.38-2.04,7.32c0.2,0.07,0.38,0.24,0.47,0.54
		c2.04,4.53,3.41,9.24,4.27,14.04c0.34-1.63,0.58-3.27,0.75-4.93C36.98,62.07,36.67,62.18,36.4,62.07z M19.78,28.53
		c-0.07-0.06-0.15-0.12-0.22-0.17c0-0.04,0.01-0.07,0.01-0.11c0.09-0.04,0.17-0.08,0.26-0.11c0.07-0.02,0.14-0.04,0.21-0.06
		C19.94,28.22,19.86,28.37,19.78,28.53z"/>
	<path class="st21" d="M35.4,103.27c0.89,1.32-1.54,1.62-3.3,1.66c2.03,0.16,4.06-0.21,4.15-2.43c0.07-1.14,0.07-2.29,0.12-3.44
		c-0.26,1.85-0.61,3.45-1.1,4.12C35.31,103.21,35.36,103.23,35.4,103.27z"/>
	<path class="st22" d="M18.47,19.93c-0.33-0.05-0.64,0.03-0.9,0.19c0.61,0.15,1.23,0.27,1.85,0.38
		C19.24,20.22,18.95,20.02,18.47,19.93z"/>
	<path class="st22" d="M28.05,26.67c0.37-0.55,0.7-1.09,0.98-1.66c-0.79-0.44-0.03-1.72-0.15-2.4c0.12-0.51-0.11-1.33,0.17-1.79
		c-0.66,0.34-1.36,0.61-2.08,0.8c0.09,0.89,0.19,1.78,0.26,2.67c0.11,0.82-1.15,0.99-1.26,0.17c-0.1-0.86-0.17-1.73-0.23-2.59
		c-0.59,0.09-1.19,0.13-1.79,0.15c0.2,0.52,0.23,1.2,0.37,1.65c0.12,0.83-1.16,1.01-1.28,0.18c-0.1-0.64-0.25-1.23-0.45-1.83
		c-0.21-0.01-0.42-0.01-0.62-0.02c-0.14-0.01-0.28-0.02-0.43-0.03c-0.01,0.03-0.02,0.06-0.03,0.09c-0.1-0.02-0.2-0.05-0.32-0.05
		c-0.33,0-0.58,0.1-0.77,0.23c-0.04-0.04-0.08-0.07-0.12-0.1c0.18,1.12,0.36,2.25,0.42,3.39c0.11,0.82-1.16,0.99-1.27,0.17
		c-0.11-1.27-0.3-2.54-0.44-3.82c-0.01-0.06,0-0.12,0.02-0.18c-0.21-0.03-0.43-0.06-0.64-0.1c0.49,0.61,0.15,1.57,0.25,2.31
		c0.01,0.84-1.3,0.84-1.29,0c0.05-0.63-0.23-2.19,0.41-2.42c-0.36-0.07-0.73-0.14-1.09-0.22c0,0.04,0.01,0.07,0,0.11
		c-0.1,1.36-0.08,2.72-0.09,4.08c0,0.84-1.3,0.84-1.29,0c0.06-1.46-0.12-3.01,0.25-4.41c0-0.01,0.01-0.01,0.02-0.02
		c-0.14,0.05-0.27,0.11-0.39,0.19c-0.21-0.07-0.44-0.09-0.67-0.06c-0.36,1.26-0.51,2.63-0.3,3.87c0,0.01,0,0.01,0,0.02
		c0.17,0.06,0.31,0.18,0.41,0.38c0.07,0.25-0.03,0.47-0.2,0.63c0.01-0.01,0.03-0.01,0.04-0.02c-0.04,0.03-0.08,0.06-0.12,0.09
		c-0.01,0.01-0.02,0.01-0.04,0.02c0.05-0.02,0.08-0.06,0.12-0.09c-0.39,0.19-0.79,0.39-1.17,0.59c0.22,1.66,2.81,1.6,2.84-0.2
		c-0.01-0.08-0.01-0.17-0.01-0.25c0-0.03,0-0.05,0-0.08c0.02-0.01,0.04-0.01,0.06-0.02c0.01,0.04,0.02,0.07,0.03,0.11
		c0.13,0.38,0.42,0.69,0.92,0.83c0.64,0.18,1.11-0.06,1.45-0.48c0.24,0.18,0.53,0.29,0.84,0.29c0.68-0.03,1.05-0.35,1.24-0.8
		c0.51,0.22,1.14,0.15,1.56-0.2c0.56,0.4,1.38,0.28,1.86-0.22c0.06,0.34,0.23,0.65,0.64,0.9c0.41,0.24,0.94,0.24,1.36,0.04
		c0.15,0.14,0.35,0.26,0.58,0.32c0.35,0.07,0.64,0.03,0.88-0.07c0.16-0.06,0.3-0.15,0.42-0.27C27.96,26.59,28,26.63,28.05,26.67z"/>
	<path class="st22" d="M29.62,26.63c0.34-0.26,0.55-0.68,0.64-1.14c-0.16,0.36-0.35,0.71-0.57,1.04
		C29.66,26.56,29.64,26.6,29.62,26.63z"/>
	<path class="st22" d="M28.02,19.62c-0.06,0.11-0.1,0.22-0.14,0.33c0.29-0.11,0.58-0.23,0.87-0.37c0.32-0.12,0.65-0.45,0.99-0.77
		c-0.08-0.03-0.16-0.05-0.24-0.06c-0.02,0-0.04,0-0.05,0C28.8,18.68,28.31,19.07,28.02,19.62z"/>
	<path class="st22" d="M29.57,20.53c0.52,0.04,0.64,0.43,0.64,0.9c0.03-0.01,0.05-0.02,0.09-0.03c0.07,0,0.14,0.02,0.21,0.04
		c0.1-0.31,0.14-0.64,0.15-0.97c0.08-0.25,0.07-0.51-0.01-0.74C30.31,20.03,29.95,20.3,29.57,20.53z"/>
	<path class="st17" d="M28.81,12.3c0.03,0.01,0.07,0.03,0.1,0.04c1.38,0.47,2.99,1.24,3.18,2.88c0,0-0.01,0-0.01,0
		c0.04,0.59-0.87,1.24-0.21,1.75c1.23,0.63,1.68-1.77,1.32-2.57c-0.44-1.31-1.46-2.26-2.7-2.8c-0.61-0.22-1.71-0.97-2.04-0.04
		c-0.06,0.22,0.01,0.47,0.17,0.62C28.67,12.23,28.74,12.27,28.81,12.3z"/>
	<path class="st17" d="M8.03,32.4c0.35,0.1,0.72-0.11,0.82-0.47c0.14-0.48,0.3-0.96,0.48-1.43c0.19-0.5,0.42-0.98,0.7-1.43
		c0.49-0.61,1.09-1.1,1.74-1.54c0.47-0.32,0.96-0.62,1.47-0.89c0.39-0.2,0.78-0.4,1.17-0.59c0.18-0.15,0.27-0.38,0.2-0.63
		c-0.1-0.2-0.24-0.32-0.41-0.38c0-0.01,0-0.01,0-0.02c-0.22-1.24-0.06-2.61,0.3-3.87c0.03-0.09,0.04-0.18,0.07-0.27
		c0.08-0.03,0.14-0.08,0.19-0.13c0.27,0.09,0.53,0.17,0.81,0.25c0,0.01-0.01,0.02-0.02,0.03c0,0.01-0.01,0.01-0.02,0.02
		c-0.37,1.41-0.19,2.96-0.25,4.41c0,0.84,1.3,0.84,1.29,0c0.02-1.36,0-2.72,0.09-4.08c0.01-0.04,0-0.07,0-0.11
		c0.36,0.08,0.73,0.15,1.09,0.22c-0.64,0.23-0.36,1.79-0.41,2.42c-0.01,0.84,1.3,0.84,1.29,0c-0.1-0.74,0.24-1.7-0.25-2.31
		c0.22,0.03,0.43,0.07,0.64,0.1c-0.01,0.06-0.02,0.12-0.02,0.18c0.13,1.27,0.33,2.54,0.44,3.82c0.11,0.82,1.38,0.65,1.27-0.17
		c-0.07-1.14-0.24-2.26-0.42-3.39c-0.02-0.1-0.03-0.19-0.04-0.29c0.45,0.05,0.88,0.09,1.28,0.11c0.15,0.01,0.29,0.02,0.43,0.03
		c0.21,0.01,0.42,0.01,0.62,0.02c0.2,0.59,0.35,1.19,0.45,1.83c0.12,0.83,1.4,0.65,1.28-0.18c-0.14-0.46-0.18-1.13-0.37-1.65
		c0.6-0.02,1.2-0.06,1.79-0.15c0.06,0.87,0.13,1.73,0.23,2.59c0.11,0.82,1.37,0.64,1.26-0.17c-0.07-0.89-0.18-1.78-0.26-2.67
		c0.73-0.19,1.42-0.45,2.08-0.8c-0.28,0.46-0.05,1.28-0.17,1.79c0.11,0.67-0.64,1.96,0.15,2.4c-0.27,0.57-0.61,1.11-0.98,1.66
		c-0.01,0.02-0.03,0.04-0.04,0.06c-0.05,0.07-0.08,0.16-0.08,0.24c-0.03,0.25,0.1,0.51,0.31,0.63c0.56,0.29,0.88-0.18,1.16-0.63
		c0.07-0.12,0.14-0.24,0.21-0.34c0.02-0.04,0.05-0.07,0.07-0.1c0.21-0.33,0.4-0.68,0.57-1.04c0.49-1.09,0.73-2.28,0.65-3.48
		c0-0.26-0.17-0.48-0.4-0.57c-0.07-0.03-0.14-0.04-0.21-0.04c-0.04,0-0.06,0.02-0.09,0.03c0-0.47-0.12-0.86-0.64-0.9
		c0.38-0.23,0.74-0.5,1.08-0.8c0.2-0.18,0.41-0.35,0.6-0.55c0.25-0.24,0.24-0.65,0-0.89c-0.51-0.39-1.02,0.04-1.51,0.51
		c-0.33,0.32-0.66,0.65-0.99,0.77c-0.28,0.14-0.57,0.26-0.87,0.37c-0.71,0.27-1.46,0.46-2.22,0.6c-2,0.36-4.14,0.29-6.23-0.05
		c-0.62-0.1-1.24-0.23-1.85-0.38c-1.46-0.35-2.86-0.81-4.15-1.34c-0.02-0.01-0.04-0.03-0.07-0.04c-3.25-1.61-2.21-4.61,0.08-6.62
		c0.17-0.14,0.34-0.27,0.51-0.39c0,0,0,0,0.01,0c0.01,0.31,0.05,0.62,0.12,0.93c0.24,0.34,0.66,0.29,0.91,0.07
		c1.47,2.63,4.74,3.36,7.55,3.37c0.81,0.13,3.03-0.39,3.01-1.39c0.63-0.3,1.2-0.73,1.69-1.22c0.43-0.42,1.26-1.17,0.51-1.69
		c-0.26-0.15-0.62-0.09-0.8,0.16c-0.56,0.7-1.35,1.38-2.23,1.72c-2.04,0.34-4.37-0.03-6.21-1.08c-0.35-0.25-0.7-0.51-0.94-0.87
		c-0.11-0.25-0.35-0.42-0.64-0.38c-0.87,0.18-0.47,1.2,0.02,1.6c0.52,0.55,1.14,0.94,1.8,1.25c-0.45-0.16-0.85-0.35-1.14-0.53
		c-0.78-0.59-1.74-1.31-1.71-2.39c0.04-0.1,0.04-0.21,0.03-0.31c0-0.05-0.02-0.1-0.04-0.14c0.1-0.05,0.18-0.12,0.24-0.2
		c0.14-0.18,0.18-0.4,0.03-0.64c-0.04-0.06-0.08-0.12-0.14-0.18c-0.13-0.04-0.25-0.07-0.39-0.08c0.67-1.86,1.88-3.55,3.21-4.98
		c1-0.63,2.3-0.62,3.44-0.55c0.44,0.24,0.83,0.53,1.2,0.87c1.16,1.08,1.97,2.59,2.51,4.03c0.39,0.68,0.23,2.57,1.36,2.42
		c0.09-0.04,0.15-0.1,0.21-0.16c0.63-0.58-0.28-1.99-0.37-2.73c-0.9-2.27-2.37-5-4.85-5.74c-2.65-0.28-4.67,0.57-5.97,2.94
		c-0.84,1.22-1.78,2.7-2.2,4.23c-1.57,0.76-3.16,2.62-3.67,3.79c-1.34,3.27,0.37,5.24,2.99,6.42c-0.77,1.19-0.75,4.04-0.55,4.97
		c-1.1,0.48-2.39,1.54-2.89,1.9c-1.07,0.81-1.68,2-2.11,3.24c-0.14,0.4-0.26,0.8-0.38,1.2C7.46,31.93,7.68,32.31,8.03,32.4z"/>
	<path class="st17" d="M14.33,26.13c0.04-0.03,0.09-0.06,0.12-0.09c-0.01,0.01-0.03,0.01-0.04,0.02c-0.04,0.03-0.08,0.07-0.12,0.09
		C14.31,26.14,14.32,26.13,14.33,26.13z"/>
	<path class="st17" d="M34.48,31.81c0.1,0.24,0.29,0.35,0.48,0.39c0.47,0.08,1.03-0.35,0.78-0.92c-0.28-0.57-0.6-1.11-1.02-1.59
		c-1.09-1.11-2.31-2.1-3.33-3.29c-0.22-0.38-0.81-0.43-1.08-0.07c-0.12,0.16-0.16,0.37-0.11,0.57c0.55,1.07,1.49,1.84,2.38,2.64
		C33.34,30.2,34.06,30.89,34.48,31.81z"/>
	<path class="st17" d="M35.42,37.06c0.03,2.29,0.03,4.58,0,6.88c0,0.13,0.04,0.24,0.1,0.34c0.07,0.12,0.17,0.22,0.3,0.27
		c0.01,1.33,0.11,2.54,0.18,2.92c0.15,1.13,0.32,2.26,0.5,3.39c0.15,0.96,0.28,1.93,0.42,2.9c-0.16,0.11-0.26,0.29-0.23,0.54
		c0.67,1.78,0.72,3.54,0,5.37c-0.11,0.75-1.2,1.86-0.29,2.4c0.27,0.12,0.58,0,0.75-0.24c0.02-0.03,0.05-0.06,0.07-0.1
		c0.05-0.12,0.1-0.23,0.15-0.35c1.14-0.58,1.34-3.6,1.26-4.6c-0.21-5.18-2.25-10.34-1.16-15.52c0,0,0,0,0,0
		c0.32-0.16,0.4-0.59,0.21-0.88c-0.36-0.29-0.65-0.35-0.88-0.25c0-0.33,0.01-0.65,0.01-0.98c-0.01-1.49-0.05-2.98-0.11-4.47
		C36.66,34.3,36.38,34,36,34c-0.29,0.04-0.47,0.19-0.57,0.39C35.09,35.05,35.55,36.38,35.42,37.06z"/>
	<path class="st17" d="M7,46.27c0.07-0.32,0.16-0.67,0.15-1c0-0.24-0.12-0.4-0.27-0.5c0.01,0,0.03,0.01,0.04,0.01
		c0.37,0,0.64-0.3,0.65-0.65c0.08-1.81,0.24-3.64,0.28-5.48c0.05-1.25,0.14-2.51,0.18-3.76c0.01-0.37-0.31-0.67-0.67-0.67
		c-0.38,0-0.66,0.3-0.67,0.67c-0.13,3.11-0.25,6.11-0.42,9.25c-0.01,0.23,0.13,0.43,0.32,0.55c-0.11-0.01-0.22,0-0.32,0.04
		c-0.21,0.08-0.38,0.27-0.38,0.56c-0.65,3.96-6.18,11.37-2.02,14.46c-0.22,0.98-0.44,1.97-0.71,2.96c-0.05,1-0.98,1.61-1.21,2.57
		c-0.38,1.16-0.7,2.39-0.55,3.62c0.07,0.59,0.15,1.4,0.83,1.58c0.33,0.1,0.61-0.1,0.73-0.37c0.4,0.6,0.96,1.13,1.69,1.25
		c1.23,0.22,2.1-1,2.36-2.07c0.72-2.17-0.05-4.42-0.05-6.6c0.34-0.94,0.81-1.95,1.12-2.92c0.01-0.15-0.01-0.33-0.12-0.46
		c-0.5-0.43-0.86-0.21-1.15,0.26c-0.44,0.72-0.71,2.03-1,2.47c-0.51,1.42,0.19,2.96,0.16,4.42C6.02,66.8,6,67.69,5.84,68.49
		c0.01-0.61,0.01-1.18,0.1-1.82c0.09-0.3-0.11-0.66-0.42-0.74c0,0,0,0,0,0c-1.27-0.14-0.79,2.15-0.95,2.96
		c0,0.1,0.02,0.18,0.05,0.26c0.15,0.37,0.65,0.44,0.96,0.23c-0.25,0.57-0.64,0.86-1.22,0.38c-0.36-0.36-0.73-1.04-1.31-0.6
		c-0.08,0.06-0.14,0.15-0.18,0.25c-0.02-0.02-0.02-0.03-0.04-0.05C2.74,69,2.71,68.62,2.7,68.25c-0.03-1.52,0.54-3.06,1.5-4.23
		c0.3-1.17,0.59-2.41,0.85-3.65c0.03,0.01,0.06,0.03,0.1,0.04c0.7,0.13,1.84-0.52,1.29-1.3c-0.26-0.33-0.73-0.33-1.04-0.07
		c-0.02,0-0.04-0.01-0.06-0.02c0.06-0.16,0.06-0.33,0.01-0.48c-0.12-0.36-0.5-0.6-0.9-0.37c-0.05,0.03-0.09,0.07-0.12,0.11
		c-0.16-0.2-0.31-0.42-0.43-0.62c-0.01-0.02-0.02-0.04-0.03-0.05C3.16,53.59,6.04,50.01,7,46.27z"/>
	<path class="st17" d="M31.66,52.18c1.43-1.94,1.73-5.24,2.04-7.32c0.56-0.98,0.47-2.39,0.34-3.49c-0.15-0.61-1.1-0.62-1.24,0
		c-0.22,1.64-0.33,3.3-0.59,4.94c-0.38,1.91-0.77,4.68-2.5,5.88c-0.74,0.15-1.49,0.25-2.24,0.31c0.01-0.04,0.04-0.07,0.04-0.12
		c0.14-1.03,0.23-2.05,0.32-3.08c0.13-1.46,0.07-2.93,0.04-4.39c-0.01-0.33-0.27-0.61-0.61-0.61s-0.61,0.28-0.61,0.61
		c-0.02,1.05,0.03,2.09-0.02,3.13c-0.06,1.4-0.25,2.79-0.41,4.17c-0.02,0.13,0.02,0.26,0.07,0.37c-1.42,0.06-2.84,0.03-4.26,0
		c-0.13,0-0.26,0-0.38-0.01c-0.3,0-0.61-0.01-0.91-0.01c-0.63-0.02-1.26-0.02-1.88-0.03c-0.01-0.08-0.03-0.16-0.08-0.25
		c-0.75-1.98-1.67-4.12-1.54-6.34c0.36-0.24,0.65-0.59,0.86-0.97c0.24-0.51-0.38-1.06-0.86-0.75c-0.24,0.16-0.36,0.43-0.57,0.62
		c-0.28,0.12-0.54,0.29-0.64,0.6c-0.43,2.38,0.55,4.85,1.43,7.07c-0.93-0.01-1.86-0.03-2.78-0.07c-0.72-0.08-1.53-0.1-1.88-0.85
		c-1.98-3.52-1.93-7.74-2.03-11.72c-0.13-1.2,0.26-2.59-0.21-3.69c-0.64-0.57-1.21,0.21-1.08,0.86c0,2.2-0.06,4.4,0.07,6.6
		c0.08,0.67,0.15,1.42,0.23,2.21c0.07,0.61,0.15,1.25,0.25,1.88c0.28,1.7,0.74,3.38,1.64,4.62c0.32,0.44,0.69,0.83,1.14,1.14
		c0,0,0.01,0,0.01,0c-0.92,1.29-1.49,4.26-1.83,5.25c-2.28,8.89-4.54,17.87-4.51,27.11c-0.07,5.4,0.04,10.79,0.1,16.18
		c-0.06,0.57,0.17,1.15,0.71,1.38c2.36,0.41,4.77,0.25,7.18,0.27c-0.13,0.96,0.2,2.41,0.22,2.97c0.62,4.23,1.27,8.49,2.5,12.6
		c0.01,0.04,0.04,0.07,0.05,0.11c-0.02,0.14,0,0.29,0.08,0.41c0.13,0.22,0.31,0.3,0.51,0.3c0.13,0,0.27-0.05,0.4-0.12
		c-0.1,1.03-0.09,2.05-0.25,3.1c-0.15,0.56-0.27,1.07-0.37,1.56c-0.97,4.81,0.76,6.31,5.67,7.35c0.3,0.06,0.61,0.12,0.93,0.18
		c0.04,0.01,0.08,0.02,0.12,0.02c0.66,0,1.25-0.44,1.57-1.01c1.64-2.36-0.9-4.83-1.14-7.25c-0.24-1.2-0.44-2.61-0.74-3.84
		c-0.09-0.34-0.46-0.55-0.8-0.46c-0.01,0-0.02,0.01-0.03,0.01c-0.29-0.33-0.62-0.64-0.96-0.88c0.3,0.01,0.6-0.18,0.68-0.49
		c0.03-0.13,0.07-0.27,0.11-0.4c0.01,0,0.01,0,0.02,0c0.36,0,0.66-0.3,0.66-0.66c0-0.25-0.15-0.46-0.35-0.57
		c0.95-3.29,2.29-6.46,3.31-9.72c0.19-0.61,0.37-1.22,0.53-1.83c0.02-0.1,0.05-0.2,0.08-0.3c0.12,0,0.23,0,0.35,0
		c0.99,0.01,1.99,0.03,2.99,0.12c0.26,0.02,0.84,0.05,1.5,0.04c1.76-0.03,4.19-0.33,3.3-1.66c-0.04-0.04-0.08-0.06-0.13-0.09
		c0.49-0.67,0.84-2.27,1.1-4.12c0.48-3.39,0.66-7.62,0.89-8.58c0.58-7.93,0.53-15.95-0.86-23.73c-0.86-4.8-2.22-9.5-4.27-14.04
		C32.05,52.42,31.87,52.25,31.66,52.18z M22.66,122.1c-0.02-0.03-0.03-0.06-0.06-0.09c-0.48-0.44-1.08-0.47-1.64-0.28
		c-0.62-0.11-1.18-0.2-1.49-0.32c-0.01-0.01-0.02-0.01-0.03-0.03c0.02-0.41,0.05-0.82,0.09-1.23c0.04-0.08,0.06-0.17,0.06-0.28
		c-0.01-0.04-0.01-0.09-0.02-0.14c0.01-0.11,0.03-0.22,0.04-0.33c1.32-0.09,2.63,0.79,3.07,2.1c0.09,0.14,0.22,0.23,0.36,0.28
		c0.03,0.15,0.06,0.31,0.09,0.47C22.99,122.2,22.83,122.15,22.66,122.1z M19.36,122.83c0.05,0.01,0.09,0.03,0.14,0.04
		c-0.07,0.09-0.14,0.19-0.2,0.29C19.32,123.04,19.35,122.94,19.36,122.83z M16.17,107.53c-0.14-1.03-0.28-2.07-0.39-3.1
		c0.35-0.14,0.42-0.4,0.36-0.69c1.09,0.06,2.17,0.19,3.24,0.48c0.21,0.05,0.42,0.08,0.63,0.13c-0.01,4.58-0.13,9.18,0.32,13.75
		c-0.25-0.03-0.5-0.04-0.75-0.03c-0.01,0-0.01-0.01-0.01-0.02c-0.06-0.34-0.22-0.61-0.64-0.67c-0.36,0.06-0.53,0.28-0.6,0.56
		c-0.02,0.07-0.03,0.14-0.04,0.22c-0.06-0.21-0.1-0.42-0.16-0.62c-0.03-0.11-0.06-0.23-0.09-0.34
		C17.22,114.02,16.62,110.79,16.17,107.53z M21.5,130.05c-0.65-0.25-1.18-0.47-1.61-0.73c-0.22-0.13-0.4-0.27-0.56-0.42
		c-0.57-0.55-0.78-1.3-0.58-2.67c0.02-0.75,0.19-1.46,0.36-2.17c0.05,0.1,0.12,0.2,0.25,0.28c0.84,0.38,1.09-0.7,1.65-1.18
		c0.04,0.01,0.08,0.02,0.12,0.03c0.64,0.11,1.43,0.5,2.12,0.59c0.04,0,0.08-0.01,0.12-0.01c0.11,0.56,0.26,1.11,0.44,1.65
		c0.1,0.3,0.2,0.6,0.31,0.9c0.35,0.97,0.73,1.92,1.01,2.91c0.05,0.56-0.24,1.07-0.61,1.47C23.54,130.87,22.47,130.28,21.5,130.05z
		 M21.64,117.6c-0.06-0.78-0.13-1.56-0.16-2.4c0-0.06-0.01-0.11-0.01-0.17c-0.16-2.25-0.16-4.5-0.16-6.76c0-0.73,0-1.46,0-2.18
		c0-0.51-0.02-1.02-0.03-1.53c1.54,0.2,3.08,0.22,4.63,0.21c-0.45,1.56-0.95,3.09-1.49,4.61c-0.15,0.41-0.29,0.81-0.44,1.22
		c-0.43,1.17-0.86,2.34-1.29,3.53c-0.04,0.23-0.17,0.6-0.33,1.04C22.08,115.92,21.73,116.87,21.64,117.6z M36.24,83.02
		c-0.06,3.99-0.35,7.98-0.81,11.92c-0.27,2.56-0.51,5.15-1.27,7.61c-0.1,0.24-0.05,0.5,0.1,0.69c-2.17,0.55-4.39,0.1-6.62,0.11
		c0.01-0.06,0.04-0.12,0.05-0.18c-0.05-0.34-0.36-0.55-0.7-0.52c-0.41,0.06-0.58,0.38-0.7,0.74c-0.16,0.01-0.33,0.02-0.49,0.02
		c-0.16,0-0.32,0-0.48,0c-0.95,0-1.9-0.06-2.84-0.16c-0.28-0.03-0.55-0.06-0.83-0.1c-0.14-0.02-0.27-0.03-0.41-0.05
		c0-0.03,0-0.05,0-0.08c-0.01-0.18-0.01-0.37-0.01-0.55c0,0,0-0.01,0-0.01c-0.05-0.26-0.32-0.44-0.58-0.44
		c-0.39,0.05-0.55,0.29-0.61,0.61c-0.02,0.09-0.03,0.18-0.03,0.28c-0.31-0.05-0.62-0.1-0.93-0.16c-0.54-0.1-1.09-0.2-1.63-0.3
		c-1.11-0.13-2.22-0.17-3.34-0.18c-2.07-0.02-4.14,0.08-6.19-0.07c0,0,0,0,0,0c0-0.65-0.01-1.3-0.02-1.95c0-0.3-0.01-0.6-0.01-0.9
		c-0.02-1.61-0.05-3.23-0.07-4.84c-0.07-4.81-0.09-9.61,0.26-14.41c0.43-4.78,1.41-9.64,2.57-14.32c0.98-3.96,1.63-8.01,3.37-11.74
		c0.11-0.06,0.19-0.15,0.24-0.25c1.39,0.18,2.82,0.06,4.21,0.12c3.76,0,7.58,0.36,11.3-0.33c0.42-0.13,0.79-0.34,1.12-0.6
		c0.02,0.04,0.02,0.08,0.05,0.12c2.38,5.46,3.83,11.18,4.61,17.01C36.1,74.39,36.31,78.7,36.24,83.02z"/>
</g>
</svg>
